<svg xmlns="http://www.w3.org/2000/svg" viewBox="0 0 1280 860">
<defs>
  <linearGradient id="bg" x1="0" y1="0" x2="1" y2="1">
    <stop offset="0%" stop-color="#081018"/>
    <stop offset="100%" stop-color="#101d2a"/>
  </linearGradient>
  <style>
    .title { font: 700 34px Helvetica, Arial, sans-serif; fill: #e6edf3; }
    .subtitle { font: 500 18px Helvetica, Arial, sans-serif; fill: #9fb3c8; }
    .label { font: 700 20px Helvetica, Arial, sans-serif; fill: #dce7f3; }
    .small { font: 500 15px Helvetica, Arial, sans-serif; fill: #9fb3c8; }
    .tiny { font: 500 13px Helvetica, Arial, sans-serif; fill: #8aa3bc; }
    .panel { fill: #122131; stroke: #5e7fa3; stroke-width: 2; rx: 18; }
    .grid { stroke: #223445; stroke-width: 1; opacity: 0.8; }
    .axis { stroke: #39516a; stroke-width: 2; }
  </style>
</defs>
<rect width="1280" height="860" fill="url(#bg)"/>
<rect x="60" y="120" width="1160" height="690" rx="18" class="panel"/>
<text x="90.0" y="68.0" class="title" text-anchor="start">Brusselator</text>
<text x="90.0" y="98.0" class="subtitle" text-anchor="start">A textbook autocatalytic oscillator model with a fixed point that loses calm and grows a limit cycle.</text>
<text x="930.0" y="185.0" class="label" text-anchor="start">Legend</text>
<text x="968.0" y="232.0" class="small" text-anchor="start">trajectories</text>
<text x="968.0" y="268.0" class="small" text-anchor="start">dx/dt = 0</text>
<text x="968.0" y="304.0" class="small" text-anchor="start">dy/dt = 0</text>
<text x="968.0" y="340.0" class="small" text-anchor="start">fixed points</text>
<circle cx="940.0" cy="224.0" r="8.0" fill="#4ade80" opacity="1.0"/>
<line x1="924.0" y1="260.0" x2="956.0" y2="260.0" stroke="#f97316" stroke-width="4" opacity="1.0"/>
<line x1="924.0" y1="296.0" x2="956.0" y2="296.0" stroke="#60a5fa" stroke-width="4" opacity="1.0"/>
<circle cx="940.0" cy="336.0" r="7.0" fill="#f8fafc" opacity="1.0"/>
<text x="930.0" y="392.0" class="label" text-anchor="start">How to read it</text>
<text x="930.0" y="422.0" class="small" text-anchor="start">The arrows show the local flow.</text>
<text x="930.0" y="446.0" class="small" text-anchor="start">The colored curves show where one derivative vanishes.</text>
<text x="930.0" y="470.0" class="small" text-anchor="start">Trajectories reveal whether the fixed point attracts, spirals, or closes into an orbit.</text>
<text x="930.0" y="528.0" class="label" text-anchor="start">Local fixed-point readout</text>
<text x="930.0" y="558.0" class="small" text-anchor="start">1. (1.00, 2.40) → unstable spiral</text>
<text x="950.0" y="580.0" class="tiny" text-anchor="start">λ = 0.20+0.98i, 0.20-0.98i</text>
<line x1="110.0" y1="170.0" x2="110.0" y2="760.0" stroke="#223445" stroke-width="1" opacity="1.0"/>
<text x="110.0" y="788.0" class="tiny" text-anchor="middle">0.2</text>
<line x1="260.0" y1="170.0" x2="260.0" y2="760.0" stroke="#223445" stroke-width="1" opacity="1.0"/>
<text x="260.0" y="788.0" class="tiny" text-anchor="middle">0.8</text>
<line x1="410.0" y1="170.0" x2="410.0" y2="760.0" stroke="#223445" stroke-width="1" opacity="1.0"/>
<text x="410.0" y="788.0" class="tiny" text-anchor="middle">1.4</text>
<line x1="560.0" y1="170.0" x2="560.0" y2="760.0" stroke="#223445" stroke-width="1" opacity="1.0"/>
<text x="560.0" y="788.0" class="tiny" text-anchor="middle">2.0</text>
<line x1="710.0" y1="170.0" x2="710.0" y2="760.0" stroke="#223445" stroke-width="1" opacity="1.0"/>
<text x="710.0" y="788.0" class="tiny" text-anchor="middle">2.6</text>
<line x1="860.0" y1="170.0" x2="860.0" y2="760.0" stroke="#223445" stroke-width="1" opacity="1.0"/>
<text x="860.0" y="788.0" class="tiny" text-anchor="middle">3.2</text>
<line x1="110.0" y1="760.0" x2="860.0" y2="760.0" stroke="#223445" stroke-width="1" opacity="1.0"/>
<text x="92.0" y="764.0" class="tiny" text-anchor="end">0.0</text>
<line x1="110.0" y1="642.0" x2="860.0" y2="642.0" stroke="#223445" stroke-width="1" opacity="1.0"/>
<text x="92.0" y="646.0" class="tiny" text-anchor="end">0.9</text>
<line x1="110.0" y1="524.0" x2="860.0" y2="524.0" stroke="#223445" stroke-width="1" opacity="1.0"/>
<text x="92.0" y="528.0" class="tiny" text-anchor="end">1.8</text>
<line x1="110.0" y1="406.0" x2="860.0" y2="406.0" stroke="#223445" stroke-width="1" opacity="1.0"/>
<text x="92.0" y="410.0" class="tiny" text-anchor="end">2.7</text>
<line x1="110.0" y1="288.0" x2="860.0" y2="288.0" stroke="#223445" stroke-width="1" opacity="1.0"/>
<text x="92.0" y="292.0" class="tiny" text-anchor="end">3.6</text>
<line x1="110.0" y1="170.0" x2="860.0" y2="170.0" stroke="#223445" stroke-width="1" opacity="1.0"/>
<text x="92.0" y="174.0" class="tiny" text-anchor="end">4.5</text>
<line x1="110.0" y1="760.0" x2="860.0" y2="760.0" stroke="#39516a" stroke-width="2" opacity="1.0"/>
<line x1="110.0" y1="760.0" x2="118.3" y2="750.2" stroke="#4b6580" stroke-width="1.4" opacity="0.9"/>
<line x1="110.0" y1="710.8" x2="118.8" y2="701.3" stroke="#4b6580" stroke-width="1.4" opacity="0.9"/>
<line x1="110.0" y1="661.7" x2="119.2" y2="652.4" stroke="#4b6580" stroke-width="1.4" opacity="0.9"/>
<line x1="110.0" y1="612.5" x2="119.6" y2="603.5" stroke="#4b6580" stroke-width="1.4" opacity="0.9"/>
<line x1="110.0" y1="563.3" x2="120.1" y2="554.6" stroke="#4b6580" stroke-width="1.4" opacity="0.9"/>
<line x1="110.0" y1="514.2" x2="120.5" y2="505.7" stroke="#4b6580" stroke-width="1.4" opacity="0.9"/>
<line x1="110.0" y1="465.0" x2="120.9" y2="456.9" stroke="#4b6580" stroke-width="1.4" opacity="0.9"/>
<line x1="110.0" y1="415.8" x2="121.2" y2="408.0" stroke="#4b6580" stroke-width="1.4" opacity="0.9"/>
<line x1="110.0" y1="366.7" x2="121.6" y2="359.2" stroke="#4b6580" stroke-width="1.4" opacity="0.9"/>
<line x1="110.0" y1="317.5" x2="122.0" y2="310.4" stroke="#4b6580" stroke-width="1.4" opacity="0.9"/>
<line x1="110.0" y1="268.3" x2="122.3" y2="261.6" stroke="#4b6580" stroke-width="1.4" opacity="0.9"/>
<line x1="110.0" y1="219.2" x2="122.6" y2="212.7" stroke="#4b6580" stroke-width="1.4" opacity="0.9"/>
<line x1="110.0" y1="170.0" x2="122.9" y2="163.9" stroke="#4b6580" stroke-width="1.4" opacity="0.9"/>
<line x1="156.9" y1="760.0" x2="152.0" y2="748.8" stroke="#4b6580" stroke-width="1.4" opacity="0.9"/>
<line x1="156.9" y1="710.8" x2="152.6" y2="699.5" stroke="#4b6580" stroke-width="1.4" opacity="0.9"/>
<line x1="156.9" y1="661.7" x2="153.2" y2="650.2" stroke="#4b6580" stroke-width="1.4" opacity="0.9"/>
<line x1="156.9" y1="612.5" x2="154.0" y2="600.9" stroke="#4b6580" stroke-width="1.4" opacity="0.9"/>
<line x1="156.9" y1="563.3" x2="154.9" y2="551.6" stroke="#4b6580" stroke-width="1.4" opacity="0.9"/>
<line x1="156.9" y1="514.2" x2="156.0" y2="502.4" stroke="#4b6580" stroke-width="1.4" opacity="0.9"/>
<line x1="156.9" y1="465.0" x2="157.4" y2="453.2" stroke="#4b6580" stroke-width="1.4" opacity="0.9"/>
<line x1="156.9" y1="415.8" x2="159.0" y2="404.2" stroke="#4b6580" stroke-width="1.4" opacity="0.9"/>
<line x1="156.9" y1="366.7" x2="160.9" y2="355.3" stroke="#4b6580" stroke-width="1.4" opacity="0.9"/>
<line x1="156.9" y1="317.5" x2="163.0" y2="306.7" stroke="#4b6580" stroke-width="1.4" opacity="0.9"/>
<line x1="156.9" y1="268.3" x2="165.2" y2="258.5" stroke="#4b6580" stroke-width="1.4" opacity="0.9"/>
<line x1="156.9" y1="219.2" x2="167.3" y2="210.7" stroke="#4b6580" stroke-width="1.4" opacity="0.9"/>
<line x1="156.9" y1="170.0" x2="169.1" y2="163.2" stroke="#4b6580" stroke-width="1.4" opacity="0.9"/>
<line x1="203.8" y1="760.0" x2="195.2" y2="750.3" stroke="#4b6580" stroke-width="1.4" opacity="0.9"/>
<line x1="203.8" y1="710.8" x2="195.5" y2="701.0" stroke="#4b6580" stroke-width="1.4" opacity="0.9"/>
<line x1="203.8" y1="661.7" x2="195.8" y2="651.7" stroke="#4b6580" stroke-width="1.4" opacity="0.9"/>
<line x1="203.8" y1="612.5" x2="196.2" y2="602.3" stroke="#4b6580" stroke-width="1.4" opacity="0.9"/>
<line x1="203.8" y1="563.3" x2="196.8" y2="552.9" stroke="#4b6580" stroke-width="1.4" opacity="0.9"/>
<line x1="203.8" y1="514.2" x2="197.7" y2="503.4" stroke="#4b6580" stroke-width="1.4" opacity="0.9"/>
<line x1="203.8" y1="465.0" x2="199.0" y2="453.8" stroke="#4b6580" stroke-width="1.4" opacity="0.9"/>
<line x1="203.8" y1="415.8" x2="201.2" y2="404.2" stroke="#4b6580" stroke-width="1.4" opacity="0.9"/>
<line x1="203.8" y1="366.7" x2="205.2" y2="354.9" stroke="#4b6580" stroke-width="1.4" opacity="0.9"/>
<line x1="203.8" y1="317.5" x2="211.6" y2="307.4" stroke="#4b6580" stroke-width="1.4" opacity="0.9"/>
<line x1="203.8" y1="268.3" x2="217.2" y2="263.1" stroke="#4b6580" stroke-width="1.4" opacity="0.9"/>
<line x1="203.8" y1="219.2" x2="218.7" y2="218.7" stroke="#4b6580" stroke-width="1.4" opacity="0.9"/>
<line x1="203.8" y1="170.0" x2="218.5" y2="172.3" stroke="#4b6580" stroke-width="1.4" opacity="0.9"/>
<line x1="250.6" y1="760.0" x2="240.8" y2="751.1" stroke="#4b6580" stroke-width="1.4" opacity="0.9"/>
<line x1="250.6" y1="710.8" x2="240.9" y2="701.9" stroke="#4b6580" stroke-width="1.4" opacity="0.9"/>
<line x1="250.6" y1="661.7" x2="241.0" y2="652.6" stroke="#4b6580" stroke-width="1.4" opacity="0.9"/>
<line x1="250.6" y1="612.5" x2="241.3" y2="603.3" stroke="#4b6580" stroke-width="1.4" opacity="0.9"/>
<line x1="250.6" y1="563.3" x2="241.6" y2="553.9" stroke="#4b6580" stroke-width="1.4" opacity="0.9"/>
<line x1="250.6" y1="514.2" x2="242.2" y2="504.4" stroke="#4b6580" stroke-width="1.4" opacity="0.9"/>
<line x1="250.6" y1="465.0" x2="243.4" y2="454.6" stroke="#4b6580" stroke-width="1.4" opacity="0.9"/>
<line x1="250.6" y1="415.8" x2="247.4" y2="404.3" stroke="#4b6580" stroke-width="1.4" opacity="0.9"/>
<line x1="250.6" y1="366.7" x2="263.7" y2="360.9" stroke="#4b6580" stroke-width="1.4" opacity="0.9"/>
<line x1="250.6" y1="317.5" x2="264.7" y2="321.5" stroke="#4b6580" stroke-width="1.4" opacity="0.9"/>
<line x1="250.6" y1="268.3" x2="263.5" y2="274.4" stroke="#4b6580" stroke-width="1.4" opacity="0.9"/>
<line x1="250.6" y1="219.2" x2="262.9" y2="226.0" stroke="#4b6580" stroke-width="1.4" opacity="0.9"/>
<line x1="250.6" y1="170.0" x2="262.5" y2="177.2" stroke="#4b6580" stroke-width="1.4" opacity="0.9"/>
<line x1="297.5" y1="760.0" x2="287.0" y2="751.6" stroke="#4b6580" stroke-width="1.4" opacity="0.9"/>
<line x1="297.5" y1="710.8" x2="287.0" y2="702.4" stroke="#4b6580" stroke-width="1.4" opacity="0.9"/>
<line x1="297.5" y1="661.7" x2="287.1" y2="653.2" stroke="#4b6580" stroke-width="1.4" opacity="0.9"/>
<line x1="297.5" y1="612.5" x2="287.1" y2="604.0" stroke="#4b6580" stroke-width="1.4" opacity="0.9"/>
<line x1="297.5" y1="563.3" x2="287.2" y2="554.8" stroke="#4b6580" stroke-width="1.4" opacity="0.9"/>
<line x1="297.5" y1="514.2" x2="287.4" y2="505.5" stroke="#4b6580" stroke-width="1.4" opacity="0.9"/>
<line x1="297.5" y1="465.0" x2="288.1" y2="455.8" stroke="#4b6580" stroke-width="1.4" opacity="0.9"/>
<line x1="297.5" y1="415.8" x2="310.1" y2="422.2" stroke="#4b6580" stroke-width="1.4" opacity="0.9"/>
<line x1="297.5" y1="366.7" x2="308.7" y2="374.5" stroke="#4b6580" stroke-width="1.4" opacity="0.9"/>
<line x1="297.5" y1="317.5" x2="308.4" y2="325.6" stroke="#4b6580" stroke-width="1.4" opacity="0.9"/>
<line x1="297.5" y1="268.3" x2="308.3" y2="276.5" stroke="#4b6580" stroke-width="1.4" opacity="0.9"/>
<line x1="297.5" y1="219.2" x2="308.3" y2="227.4" stroke="#4b6580" stroke-width="1.4" opacity="0.9"/>
<line x1="297.5" y1="170.0" x2="308.3" y2="178.2" stroke="#4b6580" stroke-width="1.4" opacity="0.9"/>
<line x1="344.4" y1="760.0" x2="333.5" y2="751.9" stroke="#4b6580" stroke-width="1.4" opacity="0.9"/>
<line x1="344.4" y1="710.8" x2="333.5" y2="702.7" stroke="#4b6580" stroke-width="1.4" opacity="0.9"/>
<line x1="344.4" y1="661.7" x2="333.4" y2="653.6" stroke="#4b6580" stroke-width="1.4" opacity="0.9"/>
<line x1="344.4" y1="612.5" x2="333.2" y2="604.6" stroke="#4b6580" stroke-width="1.4" opacity="0.9"/>
<line x1="344.4" y1="563.3" x2="333.0" y2="555.7" stroke="#4b6580" stroke-width="1.4" opacity="0.9"/>
<line x1="344.4" y1="514.2" x2="332.0" y2="507.5" stroke="#4b6580" stroke-width="1.4" opacity="0.9"/>
<line x1="344.4" y1="465.0" x2="347.9" y2="476.5" stroke="#4b6580" stroke-width="1.4" opacity="0.9"/>
<line x1="344.4" y1="415.8" x2="353.7" y2="425.1" stroke="#4b6580" stroke-width="1.4" opacity="0.9"/>
<line x1="344.4" y1="366.7" x2="354.3" y2="375.5" stroke="#4b6580" stroke-width="1.4" opacity="0.9"/>
<line x1="344.4" y1="317.5" x2="354.5" y2="326.2" stroke="#4b6580" stroke-width="1.4" opacity="0.9"/>
<line x1="344.4" y1="268.3" x2="354.6" y2="277.0" stroke="#4b6580" stroke-width="1.4" opacity="0.9"/>
<line x1="344.4" y1="219.2" x2="354.7" y2="227.7" stroke="#4b6580" stroke-width="1.4" opacity="0.9"/>
<line x1="344.4" y1="170.0" x2="354.7" y2="178.5" stroke="#4b6580" stroke-width="1.4" opacity="0.9"/>
<line x1="391.2" y1="760.0" x2="380.1" y2="752.1" stroke="#4b6580" stroke-width="1.4" opacity="0.9"/>
<line x1="391.2" y1="710.8" x2="380.0" y2="703.0" stroke="#4b6580" stroke-width="1.4" opacity="0.9"/>
<line x1="391.2" y1="661.7" x2="379.8" y2="654.0" stroke="#4b6580" stroke-width="1.4" opacity="0.9"/>
<line x1="391.2" y1="612.5" x2="379.5" y2="605.2" stroke="#4b6580" stroke-width="1.4" opacity="0.9"/>
<line x1="391.2" y1="563.3" x2="378.5" y2="557.1" stroke="#4b6580" stroke-width="1.4" opacity="0.9"/>
<line x1="391.2" y1="514.2" x2="378.0" y2="519.6" stroke="#4b6580" stroke-width="1.4" opacity="0.9"/>
<line x1="391.2" y1="465.0" x2="398.8" y2="475.2" stroke="#4b6580" stroke-width="1.4" opacity="0.9"/>
<line x1="391.2" y1="415.8" x2="400.4" y2="425.2" stroke="#4b6580" stroke-width="1.4" opacity="0.9"/>
<line x1="391.2" y1="366.7" x2="400.9" y2="375.7" stroke="#4b6580" stroke-width="1.4" opacity="0.9"/>
<line x1="391.2" y1="317.5" x2="401.2" y2="326.4" stroke="#4b6580" stroke-width="1.4" opacity="0.9"/>
<line x1="391.2" y1="268.3" x2="401.3" y2="277.1" stroke="#4b6580" stroke-width="1.4" opacity="0.9"/>
<line x1="391.2" y1="219.2" x2="401.4" y2="227.9" stroke="#4b6580" stroke-width="1.4" opacity="0.9"/>
<line x1="391.2" y1="170.0" x2="401.5" y2="178.6" stroke="#4b6580" stroke-width="1.4" opacity="0.9"/>
<line x1="438.1" y1="760.0" x2="426.8" y2="752.2" stroke="#4b6580" stroke-width="1.4" opacity="0.9"/>
<line x1="438.1" y1="710.8" x2="426.7" y2="703.2" stroke="#4b6580" stroke-width="1.4" opacity="0.9"/>
<line x1="438.1" y1="661.7" x2="426.3" y2="654.4" stroke="#4b6580" stroke-width="1.4" opacity="0.9"/>
<line x1="438.1" y1="612.5" x2="425.7" y2="605.9" stroke="#4b6580" stroke-width="1.4" opacity="0.9"/>
<line x1="438.1" y1="563.3" x2="423.7" y2="560.2" stroke="#4b6580" stroke-width="1.4" opacity="0.9"/>
<line x1="438.1" y1="514.2" x2="441.4" y2="525.7" stroke="#4b6580" stroke-width="1.4" opacity="0.9"/>
<line x1="438.1" y1="465.0" x2="446.4" y2="474.8" stroke="#4b6580" stroke-width="1.4" opacity="0.9"/>
<line x1="438.1" y1="415.8" x2="447.4" y2="425.1" stroke="#4b6580" stroke-width="1.4" opacity="0.9"/>
<line x1="438.1" y1="366.7" x2="447.8" y2="375.7" stroke="#4b6580" stroke-width="1.4" opacity="0.9"/>
<line x1="438.1" y1="317.5" x2="448.0" y2="326.4" stroke="#4b6580" stroke-width="1.4" opacity="0.9"/>
<line x1="438.1" y1="268.3" x2="448.1" y2="277.1" stroke="#4b6580" stroke-width="1.4" opacity="0.9"/>
<line x1="438.1" y1="219.2" x2="448.2" y2="227.9" stroke="#4b6580" stroke-width="1.4" opacity="0.9"/>
<line x1="438.1" y1="170.0" x2="448.3" y2="178.7" stroke="#4b6580" stroke-width="1.4" opacity="0.9"/>
<line x1="485.0" y1="760.0" x2="473.6" y2="752.3" stroke="#4b6580" stroke-width="1.4" opacity="0.9"/>
<line x1="485.0" y1="710.8" x2="473.3" y2="703.4" stroke="#4b6580" stroke-width="1.4" opacity="0.9"/>
<line x1="485.0" y1="661.7" x2="472.9" y2="654.7" stroke="#4b6580" stroke-width="1.4" opacity="0.9"/>
<line x1="485.0" y1="612.5" x2="471.8" y2="606.9" stroke="#4b6580" stroke-width="1.4" opacity="0.9"/>
<line x1="485.0" y1="563.3" x2="472.0" y2="569.2" stroke="#4b6580" stroke-width="1.4" opacity="0.9"/>
<line x1="485.0" y1="514.2" x2="491.5" y2="524.8" stroke="#4b6580" stroke-width="1.4" opacity="0.9"/>
<line x1="485.0" y1="465.0" x2="493.7" y2="474.6" stroke="#4b6580" stroke-width="1.4" opacity="0.9"/>
<line x1="485.0" y1="415.8" x2="494.4" y2="425.0" stroke="#4b6580" stroke-width="1.4" opacity="0.9"/>
<line x1="485.0" y1="366.7" x2="494.7" y2="375.7" stroke="#4b6580" stroke-width="1.4" opacity="0.9"/>
<line x1="485.0" y1="317.5" x2="494.9" y2="326.4" stroke="#4b6580" stroke-width="1.4" opacity="0.9"/>
<line x1="485.0" y1="268.3" x2="495.0" y2="277.1" stroke="#4b6580" stroke-width="1.4" opacity="0.9"/>
<line x1="485.0" y1="219.2" x2="495.1" y2="227.9" stroke="#4b6580" stroke-width="1.4" opacity="0.9"/>
<line x1="485.0" y1="170.0" x2="495.2" y2="178.7" stroke="#4b6580" stroke-width="1.4" opacity="0.9"/>
<line x1="531.9" y1="760.0" x2="520.4" y2="752.4" stroke="#4b6580" stroke-width="1.4" opacity="0.9"/>
<line x1="531.9" y1="710.8" x2="520.1" y2="703.6" stroke="#4b6580" stroke-width="1.4" opacity="0.9"/>
<line x1="531.9" y1="661.7" x2="519.5" y2="655.1" stroke="#4b6580" stroke-width="1.4" opacity="0.9"/>
<line x1="531.9" y1="612.5" x2="517.8" y2="608.4" stroke="#4b6580" stroke-width="1.4" opacity="0.9"/>
<line x1="531.9" y1="563.3" x2="530.5" y2="575.1" stroke="#4b6580" stroke-width="1.4" opacity="0.9"/>
<line x1="531.9" y1="514.2" x2="539.5" y2="524.3" stroke="#4b6580" stroke-width="1.4" opacity="0.9"/>
<line x1="531.9" y1="465.0" x2="540.8" y2="474.5" stroke="#4b6580" stroke-width="1.4" opacity="0.9"/>
<line x1="531.9" y1="415.8" x2="541.4" y2="425.0" stroke="#4b6580" stroke-width="1.4" opacity="0.9"/>
<line x1="531.9" y1="366.7" x2="541.6" y2="375.6" stroke="#4b6580" stroke-width="1.4" opacity="0.9"/>
<line x1="531.9" y1="317.5" x2="541.8" y2="326.4" stroke="#4b6580" stroke-width="1.4" opacity="0.9"/>
<line x1="531.9" y1="268.3" x2="541.9" y2="277.1" stroke="#4b6580" stroke-width="1.4" opacity="0.9"/>
<line x1="531.9" y1="219.2" x2="542.0" y2="227.9" stroke="#4b6580" stroke-width="1.4" opacity="0.9"/>
<line x1="531.9" y1="170.0" x2="542.0" y2="178.7" stroke="#4b6580" stroke-width="1.4" opacity="0.9"/>
<line x1="578.8" y1="760.0" x2="567.2" y2="752.5" stroke="#4b6580" stroke-width="1.4" opacity="0.9"/>
<line x1="578.8" y1="710.8" x2="566.8" y2="703.7" stroke="#4b6580" stroke-width="1.4" opacity="0.9"/>
<line x1="578.8" y1="661.7" x2="566.0" y2="655.5" stroke="#4b6580" stroke-width="1.4" opacity="0.9"/>
<line x1="578.8" y1="612.5" x2="563.8" y2="611.2" stroke="#4b6580" stroke-width="1.4" opacity="0.9"/>
<line x1="578.8" y1="563.3" x2="582.7" y2="574.7" stroke="#4b6580" stroke-width="1.4" opacity="0.9"/>
<line x1="578.8" y1="514.2" x2="586.9" y2="524.0" stroke="#4b6580" stroke-width="1.4" opacity="0.9"/>
<line x1="578.8" y1="465.0" x2="587.9" y2="474.3" stroke="#4b6580" stroke-width="1.4" opacity="0.9"/>
<line x1="578.8" y1="415.8" x2="588.3" y2="424.9" stroke="#4b6580" stroke-width="1.4" opacity="0.9"/>
<line x1="578.8" y1="366.7" x2="588.6" y2="375.6" stroke="#4b6580" stroke-width="1.4" opacity="0.9"/>
<line x1="578.8" y1="317.5" x2="588.7" y2="326.3" stroke="#4b6580" stroke-width="1.4" opacity="0.9"/>
<line x1="578.8" y1="268.3" x2="588.8" y2="277.1" stroke="#4b6580" stroke-width="1.4" opacity="0.9"/>
<line x1="578.8" y1="219.2" x2="588.9" y2="227.9" stroke="#4b6580" stroke-width="1.4" opacity="0.9"/>
<line x1="578.8" y1="170.0" x2="588.9" y2="178.7" stroke="#4b6580" stroke-width="1.4" opacity="0.9"/>
<line x1="625.6" y1="760.0" x2="614.0" y2="752.6" stroke="#4b6580" stroke-width="1.4" opacity="0.9"/>
<line x1="625.6" y1="710.8" x2="613.5" y2="703.8" stroke="#4b6580" stroke-width="1.4" opacity="0.9"/>
<line x1="625.6" y1="661.7" x2="612.5" y2="655.9" stroke="#4b6580" stroke-width="1.4" opacity="0.9"/>
<line x1="625.6" y1="612.5" x2="611.5" y2="616.4" stroke="#4b6580" stroke-width="1.4" opacity="0.9"/>
<line x1="625.6" y1="563.3" x2="631.6" y2="574.1" stroke="#4b6580" stroke-width="1.4" opacity="0.9"/>
<line x1="625.6" y1="514.2" x2="634.2" y2="523.8" stroke="#4b6580" stroke-width="1.4" opacity="0.9"/>
<line x1="625.6" y1="465.0" x2="634.9" y2="474.2" stroke="#4b6580" stroke-width="1.4" opacity="0.9"/>
<line x1="625.6" y1="415.8" x2="635.3" y2="424.9" stroke="#4b6580" stroke-width="1.4" opacity="0.9"/>
<line x1="625.6" y1="366.7" x2="635.5" y2="375.6" stroke="#4b6580" stroke-width="1.4" opacity="0.9"/>
<line x1="625.6" y1="317.5" x2="635.6" y2="326.3" stroke="#4b6580" stroke-width="1.4" opacity="0.9"/>
<line x1="625.6" y1="268.3" x2="635.7" y2="277.1" stroke="#4b6580" stroke-width="1.4" opacity="0.9"/>
<line x1="625.6" y1="219.2" x2="635.8" y2="227.9" stroke="#4b6580" stroke-width="1.4" opacity="0.9"/>
<line x1="625.6" y1="170.0" x2="635.8" y2="178.6" stroke="#4b6580" stroke-width="1.4" opacity="0.9"/>
<line x1="672.5" y1="760.0" x2="660.8" y2="752.6" stroke="#4b6580" stroke-width="1.4" opacity="0.9"/>
<line x1="672.5" y1="710.8" x2="660.3" y2="704.0" stroke="#4b6580" stroke-width="1.4" opacity="0.9"/>
<line x1="672.5" y1="661.7" x2="659.0" y2="656.5" stroke="#4b6580" stroke-width="1.4" opacity="0.9"/>
<line x1="672.5" y1="612.5" x2="664.2" y2="622.3" stroke="#4b6580" stroke-width="1.4" opacity="0.9"/>
<line x1="672.5" y1="563.3" x2="679.6" y2="573.7" stroke="#4b6580" stroke-width="1.4" opacity="0.9"/>
<line x1="672.5" y1="514.2" x2="681.3" y2="523.7" stroke="#4b6580" stroke-width="1.4" opacity="0.9"/>
<line x1="672.5" y1="465.0" x2="681.9" y2="474.2" stroke="#4b6580" stroke-width="1.4" opacity="0.9"/>
<line x1="672.5" y1="415.8" x2="682.2" y2="424.8" stroke="#4b6580" stroke-width="1.4" opacity="0.9"/>
<line x1="672.5" y1="366.7" x2="682.4" y2="375.5" stroke="#4b6580" stroke-width="1.4" opacity="0.9"/>
<line x1="672.5" y1="317.5" x2="682.5" y2="326.3" stroke="#4b6580" stroke-width="1.4" opacity="0.9"/>
<line x1="672.5" y1="268.3" x2="682.6" y2="277.0" stroke="#4b6580" stroke-width="1.4" opacity="0.9"/>
<line x1="672.5" y1="219.2" x2="682.7" y2="227.8" stroke="#4b6580" stroke-width="1.4" opacity="0.9"/>
<line x1="672.5" y1="170.0" x2="682.7" y2="178.6" stroke="#4b6580" stroke-width="1.4" opacity="0.9"/>
<line x1="719.4" y1="760.0" x2="707.6" y2="752.7" stroke="#4b6580" stroke-width="1.4" opacity="0.9"/>
<line x1="719.4" y1="710.8" x2="707.1" y2="704.1" stroke="#4b6580" stroke-width="1.4" opacity="0.9"/>
<line x1="719.4" y1="661.7" x2="705.5" y2="657.2" stroke="#4b6580" stroke-width="1.4" opacity="0.9"/>
<line x1="719.4" y1="612.5" x2="718.0" y2="624.2" stroke="#4b6580" stroke-width="1.4" opacity="0.9"/>
<line x1="719.4" y1="563.3" x2="727.1" y2="573.4" stroke="#4b6580" stroke-width="1.4" opacity="0.9"/>
<line x1="719.4" y1="514.2" x2="728.4" y2="523.6" stroke="#4b6580" stroke-width="1.4" opacity="0.9"/>
<line x1="719.4" y1="465.0" x2="728.9" y2="474.1" stroke="#4b6580" stroke-width="1.4" opacity="0.9"/>
<line x1="719.4" y1="415.8" x2="729.2" y2="424.8" stroke="#4b6580" stroke-width="1.4" opacity="0.9"/>
<line x1="719.4" y1="366.7" x2="729.3" y2="375.5" stroke="#4b6580" stroke-width="1.4" opacity="0.9"/>
<line x1="719.4" y1="317.5" x2="729.4" y2="326.3" stroke="#4b6580" stroke-width="1.4" opacity="0.9"/>
<line x1="719.4" y1="268.3" x2="729.5" y2="277.0" stroke="#4b6580" stroke-width="1.4" opacity="0.9"/>
<line x1="719.4" y1="219.2" x2="729.6" y2="227.8" stroke="#4b6580" stroke-width="1.4" opacity="0.9"/>
<line x1="719.4" y1="170.0" x2="729.6" y2="178.6" stroke="#4b6580" stroke-width="1.4" opacity="0.9"/>
<line x1="766.2" y1="760.0" x2="754.5" y2="752.7" stroke="#4b6580" stroke-width="1.4" opacity="0.9"/>
<line x1="766.2" y1="710.8" x2="753.8" y2="704.2" stroke="#4b6580" stroke-width="1.4" opacity="0.9"/>
<line x1="766.2" y1="661.7" x2="751.9" y2="658.2" stroke="#4b6580" stroke-width="1.4" opacity="0.9"/>
<line x1="766.2" y1="612.5" x2="768.8" y2="624.1" stroke="#4b6580" stroke-width="1.4" opacity="0.9"/>
<line x1="766.2" y1="563.3" x2="774.4" y2="573.2" stroke="#4b6580" stroke-width="1.4" opacity="0.9"/>
<line x1="766.2" y1="514.2" x2="775.5" y2="523.5" stroke="#4b6580" stroke-width="1.4" opacity="0.9"/>
<line x1="766.2" y1="465.0" x2="775.9" y2="474.0" stroke="#4b6580" stroke-width="1.4" opacity="0.9"/>
<line x1="766.2" y1="415.8" x2="776.1" y2="424.7" stroke="#4b6580" stroke-width="1.4" opacity="0.9"/>
<line x1="766.2" y1="366.7" x2="776.2" y2="375.5" stroke="#4b6580" stroke-width="1.4" opacity="0.9"/>
<line x1="766.2" y1="317.5" x2="776.3" y2="326.2" stroke="#4b6580" stroke-width="1.4" opacity="0.9"/>
<line x1="766.2" y1="268.3" x2="776.4" y2="277.0" stroke="#4b6580" stroke-width="1.4" opacity="0.9"/>
<line x1="766.2" y1="219.2" x2="776.5" y2="227.8" stroke="#4b6580" stroke-width="1.4" opacity="0.9"/>
<line x1="766.2" y1="170.0" x2="776.5" y2="178.6" stroke="#4b6580" stroke-width="1.4" opacity="0.9"/>
<line x1="813.1" y1="760.0" x2="801.3" y2="752.7" stroke="#4b6580" stroke-width="1.4" opacity="0.9"/>
<line x1="813.1" y1="710.8" x2="800.6" y2="704.4" stroke="#4b6580" stroke-width="1.4" opacity="0.9"/>
<line x1="813.1" y1="661.7" x2="798.3" y2="659.6" stroke="#4b6580" stroke-width="1.4" opacity="0.9"/>
<line x1="813.1" y1="612.5" x2="817.8" y2="623.7" stroke="#4b6580" stroke-width="1.4" opacity="0.9"/>
<line x1="813.1" y1="563.3" x2="821.6" y2="573.1" stroke="#4b6580" stroke-width="1.4" opacity="0.9"/>
<line x1="813.1" y1="514.2" x2="822.5" y2="523.4" stroke="#4b6580" stroke-width="1.4" opacity="0.9"/>
<line x1="813.1" y1="465.0" x2="822.8" y2="474.0" stroke="#4b6580" stroke-width="1.4" opacity="0.9"/>
<line x1="813.1" y1="415.8" x2="823.0" y2="424.7" stroke="#4b6580" stroke-width="1.4" opacity="0.9"/>
<line x1="813.1" y1="366.7" x2="823.2" y2="375.4" stroke="#4b6580" stroke-width="1.4" opacity="0.9"/>
<line x1="813.1" y1="317.5" x2="823.2" y2="326.2" stroke="#4b6580" stroke-width="1.4" opacity="0.9"/>
<line x1="813.1" y1="268.3" x2="823.3" y2="277.0" stroke="#4b6580" stroke-width="1.4" opacity="0.9"/>
<line x1="813.1" y1="219.2" x2="823.4" y2="227.8" stroke="#4b6580" stroke-width="1.4" opacity="0.9"/>
<line x1="813.1" y1="170.0" x2="823.4" y2="178.6" stroke="#4b6580" stroke-width="1.4" opacity="0.9"/>
<line x1="860.0" y1="760.0" x2="848.2" y2="752.8" stroke="#4b6580" stroke-width="1.4" opacity="0.9"/>
<line x1="860.0" y1="710.8" x2="847.3" y2="704.5" stroke="#4b6580" stroke-width="1.4" opacity="0.9"/>
<line x1="860.0" y1="661.7" x2="845.0" y2="661.7" stroke="#4b6580" stroke-width="1.4" opacity="0.9"/>
<line x1="860.0" y1="612.5" x2="865.9" y2="623.4" stroke="#4b6580" stroke-width="1.4" opacity="0.9"/>
<line x1="860.0" y1="563.3" x2="868.7" y2="572.9" stroke="#4b6580" stroke-width="1.4" opacity="0.9"/>
<line x1="860.0" y1="514.2" x2="869.4" y2="523.3" stroke="#4b6580" stroke-width="1.4" opacity="0.9"/>
<line x1="860.0" y1="465.0" x2="869.8" y2="474.0" stroke="#4b6580" stroke-width="1.4" opacity="0.9"/>
<line x1="860.0" y1="415.8" x2="869.9" y2="424.7" stroke="#4b6580" stroke-width="1.4" opacity="0.9"/>
<line x1="860.0" y1="366.7" x2="870.1" y2="375.4" stroke="#4b6580" stroke-width="1.4" opacity="0.9"/>
<line x1="860.0" y1="317.5" x2="870.1" y2="326.2" stroke="#4b6580" stroke-width="1.4" opacity="0.9"/>
<line x1="860.0" y1="268.3" x2="870.2" y2="277.0" stroke="#4b6580" stroke-width="1.4" opacity="0.9"/>
<line x1="860.0" y1="219.2" x2="870.3" y2="227.8" stroke="#4b6580" stroke-width="1.4" opacity="0.9"/>
<line x1="860.0" y1="170.0" x2="870.3" y2="178.6" stroke="#4b6580" stroke-width="1.4" opacity="0.9"/>
<polyline points="110.0,1808.9 112.5,1609.7 115.0,1441.6 117.5,1299.0 120.0,1177.3 122.5,1073.1 125.1,983.3 127.6,905.8 130.1,838.6 132.6,780.2 135.1,729.3 137.6,684.8 140.1,645.9 142.6,611.7 145.1,581.8 147.6,555.4 150.1,532.2 152.6,511.8 155.2,493.9 157.7,478.0 160.2,464.1 162.7,451.9 165.2,441.1 167.7,431.7 170.2,423.5 172.7,416.3 175.2,410.0 177.7,404.6 180.2,399.9 182.7,396.0 185.3,392.6 187.8,389.7 190.3,387.4 192.8,385.5 195.3,384.0 197.8,382.8 200.3,382.0 202.8,381.4 205.3,381.1 207.8,381.1 210.3,381.3 212.8,381.6 215.4,382.2 217.9,382.9 220.4,383.7 222.9,384.7 225.4,385.7 227.9,386.9 230.4,388.2 232.9,389.6 235.4,391.0 237.9,392.5 240.4,394.1 242.9,395.7 245.5,397.3 248.0,399.0 250.5,400.8 253.0,402.5 255.5,404.3 258.0,406.2 260.5,408.0 263.0,409.9 265.5,411.7 268.0,413.6 270.5,415.5 273.0,417.4 275.6,419.3 278.1,421.3 280.6,423.2 283.1,425.1 285.6,427.0 288.1,428.9 290.6,430.8 293.1,432.7 295.6,434.6 298.1,436.5 300.6,438.4 303.1,440.3 305.7,442.1 308.2,444.0 310.7,445.8 313.2,447.7 315.7,449.5 318.2,451.3 320.7,453.1 323.2,454.9 325.7,456.7 328.2,458.4 330.7,460.2 333.2,461.9 335.8,463.6 338.3,465.3 340.8,467.0 343.3,468.7 345.8,470.4 348.3,472.0 350.8,473.7 353.3,475.3 355.8,476.9 358.3,478.5 360.8,480.1 363.3,481.7 365.9,483.2 368.4,484.8 370.9,486.3 373.4,487.8 375.9,489.3 378.4,490.8 380.9,492.3 383.4,493.8 385.9,495.2 388.4,496.6 390.9,498.1 393.4,499.5 396.0,500.9 398.5,502.3 401.0,503.6 403.5,505.0 406.0,506.3 408.5,507.7 411.0,509.0 413.5,510.3 416.0,511.6 418.5,512.9 421.0,514.2 423.5,515.5 426.1,516.7 428.6,517.9 431.1,519.2 433.6,520.4 436.1,521.6 438.6,522.8 441.1,524.0 443.6,525.2 446.1,526.3 448.6,527.5 451.1,528.6 453.6,529.8 456.2,530.9 458.7,532.0 461.2,533.1 463.7,534.2 466.2,535.3 468.7,536.4 471.2,537.4 473.7,538.5 476.2,539.5 478.7,540.6 481.2,541.6 483.7,542.6 486.3,543.6 488.8,544.7 491.3,545.6 493.8,546.6 496.3,547.6 498.8,548.6 501.3,549.5 503.8,550.5 506.3,551.4 508.8,552.4 511.3,553.3 513.8,554.2 516.4,555.1 518.9,556.0 521.4,556.9 523.9,557.8 526.4,558.7 528.9,559.6 531.4,560.5 533.9,561.3 536.4,562.2 538.9,563.0 541.4,563.9 543.9,564.7 546.5,565.5 549.0,566.4 551.5,567.2 554.0,568.0 556.5,568.8 559.0,569.6 561.5,570.4 564.0,571.1 566.5,571.9 569.0,572.7 571.5,573.5 574.0,574.2 576.6,575.0 579.1,575.7 581.6,576.5 584.1,577.2 586.6,577.9 589.1,578.6 591.6,579.4 594.1,580.1 596.6,580.8 599.1,581.5 601.6,582.2 604.1,582.9 606.7,583.6 609.2,584.2 611.7,584.9 614.2,585.6 616.7,586.3 619.2,586.9 621.7,587.6 624.2,588.2 626.7,588.9 629.2,589.5 631.7,590.1 634.2,590.8 636.8,591.4 639.3,592.0 641.8,592.7 644.3,593.3 646.8,593.9 649.3,594.5 651.8,595.1 654.3,595.7 656.8,596.3 659.3,596.9 661.8,597.5 664.3,598.0 666.9,598.6 669.4,599.2 671.9,599.8 674.4,600.3 676.9,600.9 679.4,601.4 681.9,602.0 684.4,602.5 686.9,603.1 689.4,603.6 691.9,604.2 694.4,604.7 697.0,605.2 699.5,605.8 702.0,606.3 704.5,606.8 707.0,607.3 709.5,607.8 712.0,608.4 714.5,608.9 717.0,609.4 719.5,609.9 722.0,610.4 724.5,610.9 727.1,611.3 729.6,611.8 732.1,612.3 734.6,612.8 737.1,613.3 739.6,613.8 742.1,614.2 744.6,614.7 747.1,615.2 749.6,615.6 752.1,616.1 754.6,616.5 757.2,617.0 759.7,617.5 762.2,617.9 764.7,618.4 767.2,618.8 769.7,619.2 772.2,619.7 774.7,620.1 777.2,620.5 779.7,621.0 782.2,621.4 784.7,621.8 787.3,622.3 789.8,622.7 792.3,623.1 794.8,623.5 797.3,623.9 799.8,624.3 802.3,624.7 804.8,625.1 807.3,625.5 809.8,625.9 812.3,626.3 814.8,626.7 817.4,627.1 819.9,627.5 822.4,627.9 824.9,628.3 827.4,628.7 829.9,629.1 832.4,629.5 834.9,629.8 837.4,630.2 839.9,630.6 842.4,631.0 844.9,631.3 847.5,631.7 850.0,632.1 852.5,632.4 855.0,632.8 857.5,633.1 860.0,633.5" fill="none" stroke="#f97316" stroke-width="3.2" stroke-opacity="0.9" stroke-linejoin="round" stroke-linecap="round"/>
<polyline points="110.0,-813.3 112.5,-738.2 115.0,-669.9 117.5,-607.5 120.0,-550.4 122.5,-497.8 125.1,-449.3 127.6,-404.4 130.1,-362.7 132.6,-323.9 135.1,-287.7 137.6,-253.9 140.1,-222.1 142.6,-192.3 145.1,-164.2 147.6,-137.8 150.1,-112.8 152.6,-89.1 155.2,-66.8 157.7,-45.5 160.2,-25.4 162.7,-6.2 165.2,12.1 167.7,29.5 170.2,46.2 172.7,62.0 175.2,77.2 177.7,91.8 180.2,105.7 182.7,119.1 185.3,131.9 187.8,144.3 190.3,156.1 192.8,167.5 195.3,178.5 197.8,189.1 200.3,199.3 202.8,209.1 205.3,218.7 207.8,227.8 210.3,236.7 212.8,245.3 215.4,253.6 217.9,261.7 220.4,269.5 222.9,277.0 225.4,284.3 227.9,291.4 230.4,298.3 232.9,305.0 235.4,311.5 237.9,317.9 240.4,324.0 242.9,330.0 245.5,335.8 248.0,341.5 250.5,347.0 253.0,352.4 255.5,357.6 258.0,362.7 260.5,367.7 263.0,372.5 265.5,377.2 268.0,381.8 270.5,386.3 273.0,390.7 275.6,395.0 278.1,399.2 280.6,403.3 283.1,407.4 285.6,411.3 288.1,415.1 290.6,418.9 293.1,422.5 295.6,426.1 298.1,429.6 300.6,433.1 303.1,436.5 305.7,439.8 308.2,443.0 310.7,446.2 313.2,449.3 315.7,452.3 318.2,455.3 320.7,458.3 323.2,461.1 325.7,463.9 328.2,466.7 330.7,469.4 333.2,472.1 335.8,474.7 338.3,477.3 340.8,479.8 343.3,482.3 345.8,484.7 348.3,487.1 350.8,489.5 353.3,491.8 355.8,494.1 358.3,496.3 360.8,498.5 363.3,500.7 365.9,502.8 368.4,504.9 370.9,506.9 373.4,509.0 375.9,511.0 378.4,512.9 380.9,514.9 383.4,516.8 385.9,518.6 388.4,520.5 390.9,522.3 393.4,524.1 396.0,525.8 398.5,527.6 401.0,529.3 403.5,531.0 406.0,532.6 408.5,534.3 411.0,535.9 413.5,537.5 416.0,539.0 418.5,540.6 421.0,542.1 423.5,543.6 426.1,545.1 428.6,546.6 431.1,548.0 433.6,549.4 436.1,550.8 438.6,552.2 441.1,553.6 443.6,554.9 446.1,556.3 448.6,557.6 451.1,558.9 453.6,560.2 456.2,561.4 458.7,562.7 461.2,563.9 463.7,565.1 466.2,566.3 468.7,567.5 471.2,568.7 473.7,569.9 476.2,571.0 478.7,572.1 481.2,573.2 483.7,574.4 486.3,575.4 488.8,576.5 491.3,577.6 493.8,578.6 496.3,579.7 498.8,580.7 501.3,581.7 503.8,582.7 506.3,583.7 508.8,584.7 511.3,585.7 513.8,586.7 516.4,587.6 518.9,588.6 521.4,589.5 523.9,590.4 526.4,591.3 528.9,592.2 531.4,593.1 533.9,594.0 536.4,594.9 538.9,595.7 541.4,596.6 543.9,597.4 546.5,598.3 549.0,599.1 551.5,599.9 554.0,600.7 556.5,601.6 559.0,602.4 561.5,603.1 564.0,603.9 566.5,604.7 569.0,605.5 571.5,606.2 574.0,607.0 576.6,607.7 579.1,608.4 581.6,609.2 584.1,609.9 586.6,610.6 589.1,611.3 591.6,612.0 594.1,612.7 596.6,613.4 599.1,614.1 601.6,614.8 604.1,615.4 606.7,616.1 609.2,616.8 611.7,617.4 614.2,618.0 616.7,618.7 619.2,619.3 621.7,620.0 624.2,620.6 626.7,621.2 629.2,621.8 631.7,622.4 634.2,623.0 636.8,623.6 639.3,624.2 641.8,624.8 644.3,625.4 646.8,625.9 649.3,626.5 651.8,627.1 654.3,627.6 656.8,628.2 659.3,628.7 661.8,629.3 664.3,629.8 666.9,630.4 669.4,630.9 671.9,631.4 674.4,632.0 676.9,632.5 679.4,633.0 681.9,633.5 684.4,634.0 686.9,634.5 689.4,635.0 691.9,635.5 694.4,636.0 697.0,636.5 699.5,637.0 702.0,637.5 704.5,637.9 707.0,638.4 709.5,638.9 712.0,639.3 714.5,639.8 717.0,640.3 719.5,640.7 722.0,641.2 724.5,641.6 727.1,642.1 729.6,642.5 732.1,642.9 734.6,643.4 737.1,643.8 739.6,644.2 742.1,644.7 744.6,645.1 747.1,645.5 749.6,645.9 752.1,646.3 754.6,646.8 757.2,647.2 759.7,647.6 762.2,648.0 764.7,648.4 767.2,648.8 769.7,649.2 772.2,649.5 774.7,649.9 777.2,650.3 779.7,650.7 782.2,651.1 784.7,651.5 787.3,651.8 789.8,652.2 792.3,652.6 794.8,652.9 797.3,653.3 799.8,653.7 802.3,654.0 804.8,654.4 807.3,654.7 809.8,655.1 812.3,655.4 814.8,655.8 817.4,656.1 819.9,656.5 822.4,656.8 824.9,657.2 827.4,657.5 829.9,657.8 832.4,658.2 834.9,658.5 837.4,658.8 839.9,659.1 842.4,659.5 844.9,659.8 847.5,660.1 850.0,660.4 852.5,660.7 855.0,661.0 857.5,661.4 860.0,661.7" fill="none" stroke="#60a5fa" stroke-width="3.2" stroke-opacity="0.9" stroke-linejoin="round" stroke-linecap="round"/>
<polyline points="343.1,805.5 323.8,795.7 306.8,786.8 291.7,778.8 278.3,771.4 266.2,764.6 255.4,758.3 245.6,752.3 236.7,746.8 228.6,741.5 221.3,736.6 214.6,731.9 208.5,727.4 203.0,723.1 197.9,719.0 193.2,715.0 188.9,711.2 185.0,707.6 181.4,704.0 178.1,700.6 175.1,697.2 172.3,694.0 169.8,690.8 167.4,687.7 165.3,684.7 163.3,681.8 161.5,678.9 159.8,676.1 158.3,673.3 156.9,670.6 155.6,667.9 154.4,665.2 153.3,662.6 152.3,660.0 151.4,657.5 150.6,654.9 149.8,652.5 149.1,650.0 148.5,647.5 147.9,645.1 147.4,642.7 146.9,640.3 146.5,638.0 146.1,635.6 145.8,633.3 145.5,631.0 145.2,628.7 144.9,626.4 144.7,624.1 144.5,621.8 144.4,619.6 144.2,617.3 144.1,615.1 144.0,612.8 143.9,610.6 143.8,608.4 143.8,606.2 143.7,604.0 143.7,601.8 143.7,599.6 143.7,597.4 143.7,595.3 143.7,593.1 143.7,590.9 143.8,588.8 143.8,586.6 143.9,584.5 144.0,582.3 144.0,580.2 144.1,578.0 144.2,575.9 144.3,573.8 144.4,571.7 144.5,569.6 144.6,567.4 144.7,565.3 144.8,563.2 144.9,561.1 145.1,559.0 145.2,556.9 145.3,554.8 145.5,552.8 145.6,550.7 145.8,548.6 145.9,546.5 146.1,544.5 146.2,542.4 146.4,540.3 146.5,538.3 146.7,536.2 146.9,534.1 147.0,532.1 147.2,530.1 147.4,528.0 147.5,526.0 147.7,523.9 147.9,521.9 148.1,519.9 148.3,517.9 148.5,515.8 148.6,513.8 148.8,511.8 149.0,509.8 149.2,507.8 149.4,505.8 149.6,503.8 149.8,501.8 150.0,499.8 150.2,497.8 150.5,495.8 150.7,493.8 150.9,491.9 151.1,489.9 151.3,487.9 151.5,486.0 151.8,484.0 152.0,482.0 152.2,480.1 152.4,478.2 152.7,476.2 152.9,474.3 153.1,472.3 153.4,470.4 153.6,468.5 153.9,466.6 154.1,464.6 154.3,462.7 154.6,460.8 154.8,458.9 155.1,457.0 155.4,455.1 155.6,453.2 155.9,451.3 156.1,449.5 156.4,447.6 156.7,445.7 157.0,443.9 157.2,442.0 157.5,440.1 157.8,438.3 158.1,436.5 158.4,434.6 158.7,432.8 159.0,431.0 159.3,429.1 159.6,427.3 159.9,425.5 160.2,423.7 160.5,421.9 160.8,420.1 161.1,418.3 161.4,416.5 161.8,414.8 162.1,413.0 162.4,411.2 162.8,409.5 163.1,407.7 163.4,406.0 163.8,404.2 164.1,402.5 164.5,400.8 164.9,399.1 165.2,397.4 165.6,395.7 166.0,394.0 166.4,392.3 166.7,390.6 167.1,388.9 167.5,387.3 167.9,385.6 168.3,384.0 168.7,382.3 169.2,380.7 169.6,379.1 170.0,377.5 170.4,375.9 170.9,374.3 171.3,372.7 171.8,371.1 172.2,369.5 172.7,368.0 173.2,366.4 173.6,364.9 174.1,363.3 174.6,361.8 175.1,360.3 175.6,358.8 176.2,357.3 176.7,355.9 177.2,354.4 177.8,352.9 178.3,351.5 178.9,350.1 179.4,348.6 180.0,347.2 180.6,345.9 181.2,344.5 181.8,343.1 182.4,341.8 183.1,340.4 183.7,339.1 184.4,337.8 185.0,336.5 185.7,335.2 186.4,333.9 187.1,332.7 187.8,331.5 188.5,330.3 189.3,329.1 190.1,327.9 190.8,326.7 191.6,325.6 192.4,324.5 193.3,323.4 194.1,322.3 195.0,321.2 195.9,320.2 196.8,319.2 197.7,318.2 198.6,317.2 199.6,316.3 200.6,315.3 201.6,314.4 202.6,313.6 203.7,312.7 204.8,311.9 205.9,311.1 207.1,310.4 208.3,309.7 209.5,309.0 210.7,308.3 212.0,307.7 213.3,307.1 214.7,306.6 216.1,306.1 217.5,305.6 219.0,305.2 220.5,304.8 222.1,304.4 223.7,304.2 225.4,303.9 227.2,303.7 228.9,303.6 230.8,303.5 232.7,303.5 234.7,303.5 236.8,303.7 238.9,303.8 241.1,304.1 243.4,304.4 245.8,304.8 248.3,305.3 250.9,305.9 253.6,306.5 256.5,307.3 259.4,308.1 262.5,309.1 265.7,310.2 269.0,311.4 272.5,312.7 276.2,314.2 280.1,315.8 284.1,317.5 288.4,319.5 292.9,321.6 297.6,323.8 302.5,326.3 307.8,329.0 313.3,331.9 319.1,335.0 325.3,338.4 331.8,342.1 338.7,346.0 346.0,350.3 353.7,354.8 361.9,359.7 370.5,365.0 379.7,370.7 389.4,376.7 399.6,383.2 410.4,390.1 421.8,397.5 433.8,405.3 446.4,413.6 459.5,422.4 473.2,431.6 487.3,441.2 501.8,451.2 516.5,461.6 531.5,472.2 546.4,483.1 561.2,494.0 575.6,504.9 589.4,515.8 602.4,526.3 614.5,536.6 625.4,546.4 635.0,555.6 643.2,564.2 649.9,572.2 655.1,579.4 658.8,585.9 661.1,591.6 661.9,596.7 661.5,601.1 659.9,604.9 657.2,608.0 653.6,610.7 649.1,612.8 643.9,614.5 638.1,615.8 631.7,616.7 624.9,617.3 617.7,617.6 610.2,617.6 602.4,617.4 594.5,617.0 586.4,616.5 578.2,615.7 569.9,614.9 561.6,613.8 553.2,612.7 544.9,611.5 536.6,610.1 528.3,608.7 520.1,607.2 511.9,605.6 503.8,604.0 495.8,602.3 487.9,600.5 480.1,598.7 472.4,596.9 464.9,595.0 457.4,593.0 450.0,591.0 442.8,589.0 435.7,587.0 428.7,584.9 421.8,582.8 415.0,580.7 408.4,578.6 401.9,576.4 395.5,574.2 389.3,572.0 383.1,569.8 377.1,567.6 371.2,565.3 365.5,563.1 359.8,560.8 354.3,558.5 348.9,556.2 343.6,554.0 338.5,551.7 333.5,549.4 328.5,547.0 323.7,544.7 319.0,542.4 314.5,540.1 310.0,537.8 305.6,535.5 301.4,533.2 297.3,530.9 293.2,528.6 289.3,526.3 285.5,524.0 281.8,521.7 278.2,519.4 274.7,517.1 271.3,514.8 267.9,512.6 264.7,510.3 261.6,508.1 258.6,505.8 255.6,503.6 252.8,501.4 250.0,499.1 247.4,496.9 244.8,494.7 242.3,492.5 239.8,490.4 237.5,488.2 235.2,486.1 233.0,483.9 230.9,481.8 228.9,479.7 226.9,477.5 225.0,475.4 223.2,473.4 221.4,471.3 219.7,469.2 218.1,467.2 216.5,465.1 215.0,463.1 213.5,461.1 212.1,459.1 210.8,457.1 209.5,455.1 208.3,453.1 207.1,451.2 205.9,449.2 204.9,447.3 203.8,445.3 202.8,443.4 201.9,441.5 201.0,439.6 200.1,437.7 199.3,435.9 198.6,434.0 197.8,432.2 197.1,430.3 196.5,428.5 195.8,426.7 195.3,424.9 194.7,423.1 194.2,421.3 193.7,419.5 193.2,417.7 192.8,416.0 192.4,414.2 192.1,412.5 191.7,410.8 191.4,409.0 191.1,407.3 190.9,405.6 190.6,404.0 190.4,402.3 190.2,400.6 190.1,399.0 189.9,397.3 189.8,395.7 189.7,394.1 189.7,392.4 189.6,390.8 189.6,389.2 189.6,387.7 189.6,386.1 189.6,384.5 189.7,383.0 189.8,381.4 189.9,379.9 190.0,378.4 190.1,376.9 190.2,375.4 190.4,373.9 190.6,372.4 190.8,371.0 191.0,369.5 191.2,368.1 191.5,366.7 191.8,365.3 192.0,363.9 192.3,362.5 192.7,361.1 193.0,359.8 193.4,358.4 193.7,357.1 194.1,355.8 194.5,354.4 194.9,353.2 195.4,351.9 195.8,350.6 196.3,349.4 196.8,348.1 197.3,346.9 197.8,345.7 198.4,344.6 198.9,343.4 199.5,342.2 200.1,341.1 200.8,340.0 201.4,338.9 202.1,337.8 202.7,336.8 203.5,335.8 204.2,334.7 204.9,333.8 205.7,332.8 206.5,331.8 207.3,330.9 208.2,330.0 209.0,329.1 209.9,328.3 210.8,327.5 211.8,326.7 212.8,325.9 213.8,325.2 214.8,324.5 215.9,323.8 217.0,323.1 218.1,322.5 219.3,321.9 220.5,321.4 221.7,320.9 223.0,320.4 224.3,320.0 225.7,319.6 227.1,319.2 228.6,318.9 230.1,318.6 231.6,318.4 233.2,318.2 234.9,318.1 236.6,318.0 238.4,318.0 240.3,318.1 242.2,318.2 244.2,318.3 246.2,318.6 248.4,318.9 250.6,319.2 252.9,319.7 255.3,320.2 257.8,320.8 260.4,321.5 263.1,322.3 265.9,323.2 268.8,324.1 271.9,325.2 275.1,326.4 278.4,327.7 281.9,329.2 285.6,330.7 289.4,332.4 293.4,334.3 297.6,336.3 302.0,338.5 306.6,340.8 311.4,343.4 316.5,346.1 321.9,349.0 327.5,352.2 333.4,355.5 339.7,359.1 346.2,363.0 353.1,367.2 360.4,371.6 368.0,376.3 376.1,381.3 384.5,386.7 393.4,392.3 402.7,398.4 412.4,404.8 422.5,411.5 433.1,418.6 444.1,426.0 455.5,433.8 467.2,441.9 479.2,450.4 491.4,459.1 503.7,468.0 516.1,477.1 528.4,486.4 540.5,495.7 552.3,504.9 563.6,514.1 574.2,523.1 584.2,531.8 593.2,540.2 601.3,548.2 608.3,555.8 614.2,562.8 619.0,569.4 622.6,575.3 625.0,580.7 626.4,585.5 626.6,589.8 625.9,593.6 624.2,596.9 621.7,599.7 618.5,602.0 614.5,603.9 609.9,605.5 604.8,606.7 599.2,607.6 593.2,608.2 586.9,608.6 580.3,608.7 573.4,608.6 566.4,608.3 559.2,607.9 551.9,607.3 544.5,606.5 537.0,605.6 529.5,604.6 521.9,603.5 514.4,602.2 506.9,600.9 499.4,599.5 492.0,598.1 484.6,596.5 477.2,594.9 470.0,593.3 462.8,591.5 455.7,589.8 448.7,588.0 441.8,586.1 435.0,584.2 428.2,582.3 421.6,580.3 415.1,578.3 408.7,576.3 402.4,574.2 396.2,572.2 390.1,570.1 384.2,568.0 378.3,565.8 372.6,563.7 366.9,561.5 361.4,559.3 356.0,557.1 350.7,554.9 345.5,552.7 340.4,550.5 335.5,548.2 330.6,546.0 325.9,543.7 321.3,541.5 316.7,539.2 312.3,537.0 308.0,534.7 303.8,532.4 299.7,530.2 295.7,527.9 291.8,525.7 288.0,523.4 284.3,521.1 280.7,518.9 277.2,516.7 273.8,514.4 270.5,512.2 267.2,509.9 264.1,507.7 261.1,505.5 258.1,503.3 255.3,501.1 252.5,498.9 249.8,496.7 247.2,494.6 244.7,492.4 242.2,490.2 239.8,488.1 237.6,486.0 235.3,483.8 233.2,481.7 231.1,479.6 229.1,477.5 227.2,475.4 225.3,473.4 223.5,471.3 221.8,469.2 220.2,467.2 218.5,465.2 217.0,463.1 215.5,461.1 214.1,459.1 212.7,457.2 211.4,455.2 210.1,453.2 208.9,451.3 207.8,449.3 206.7,447.4 205.6,445.5 204.6,443.6 203.6,441.7 202.7,439.8 201.8,437.9 200.9,436.0 200.1,434.2 199.4,432.3 198.7,430.5 198.0,428.7 197.3,426.9 196.7,425.1 196.1,423.3 195.6,421.5 195.1,419.7 194.6,418.0 194.1,416.2 193.7,414.5 193.3,412.7 193.0,411.0 192.6,409.3 192.3,407.6 192.1,405.9 191.8,404.2 191.6,402.6 191.4,400.9 191.2,399.2 191.1,397.6 190.9,396.0 190.8,394.4 190.7,392.7 190.7,391.2 190.6,389.6 190.6,388.0 190.6,386.4 190.6,384.9 190.7,383.3 190.7,381.8 190.8,380.3 190.9,378.8 191.0,377.3 191.1,375.8 191.3,374.3 191.5,372.8 191.6,371.4 191.9,369.9 192.1,368.5 192.3,367.1 192.6,365.7 192.9,364.3 193.1,362.9 193.5,361.5 193.8,360.2 194.1,358.8 194.5,357.5 194.9,356.2 195.3,354.9 195.7,353.6 196.1,352.3 196.6,351.1 197.0,349.8 197.5,348.6 198.0,347.4 198.5,346.2 199.1,345.1 199.6,343.9 200.2,342.8 200.8,341.6 201.4,340.5 202.1,339.4 202.7,338.4 203.4,337.3 204.1,336.3 204.8,335.3 205.6,334.3 206.4,333.4 207.1,332.4 208.0,331.5 208.8,330.6 209.7,329.7 210.6,328.9 211.5,328.1 212.4,327.3 213.4,326.5 214.4,325.8 215.4,325.1 216.5,324.4 217.6,323.8 218.7,323.2 219.9,322.6 221.1,322.1 222.4,321.6 223.7,321.1 225.0,320.7 226.3,320.3 227.8,319.9 229.2,319.6 230.7,319.4 232.3,319.2 233.9,319.0 235.6,318.9 237.3,318.8 239.1,318.8 240.9,318.9 242.9,319.0 244.9,319.2 246.9,319.4 249.1,319.7 251.3,320.1 253.6,320.6 256.0,321.1 258.5,321.7 261.1,322.4 263.8,323.2 266.6,324.1 269.6,325.1 272.6,326.2 275.8,327.4 279.2,328.7 282.7,330.2 286.3,331.8 290.2,333.5 294.2,335.4 298.4,337.4 302.8,339.6 307.4,342.0 312.3,344.5 317.4,347.2 322.7,350.2 328.4,353.3 334.3,356.7 340.5,360.4 347.1,364.2 354.0,368.4 361.3,372.8 368.9,377.5 376.9,382.6 385.3,387.9 394.2,393.6 403.5,399.6 413.1,406.0 423.3,412.7 433.8,419.8 444.7,427.2 456.0,435.0 467.6,443.1 479.5,451.5 491.6,460.1 503.8,469.0 516.1,478.0 528.2,487.2 540.2,496.4 551.8,505.6 562.9,514.6 573.4,523.5 583.2,532.2 592.1,540.5 600.0,548.4 606.9,555.8 612.6,562.8 617.3,569.2 620.8,575.1 623.2,580.4 624.4,585.2 624.7,589.5 623.9,593.2 622.2,596.4 619.7,599.2 616.4,601.5 612.5,603.4 607.9,605.0 602.9,606.2 597.3,607.1 591.4,607.7 585.1,608.1 578.5,608.2 571.7,608.1 564.7,607.8 557.6,607.4 550.3,606.7 542.9,606.0 535.5,605.1 528.1,604.1 520.6,603.0 513.1,601.7 505.6,600.4 498.2,599.0 490.8,597.6 483.4,596.1 476.1,594.5 468.9,592.8 461.7,591.1 454.7,589.3 447.7,587.5 440.8,585.7 434.0,583.8 427.3,581.9 420.8,579.9 414.3,577.9 407.9,575.9 401.6,573.8 395.5,571.8 389.4,569.7 383.5,567.6 377.6,565.4 371.9,563.3 366.3,561.1 360.8,558.9 355.4,556.7 350.1,554.5 345.0,552.3 339.9,550.1 335.0,547.9 330.2,545.6 325.4,543.4 320.8,541.1 316.3,538.9 311.9,536.6 307.6,534.4 303.4,532.1 299.3,529.8 295.3,527.6 291.4,525.3 287.7,523.1 284.0,520.8 280.4,518.6 276.9,516.3 273.5,514.1 270.2,511.9 267.0,509.6 263.9,507.4 260.8,505.2 257.9,503.0 255.1,500.8 252.3,498.6 249.6,496.4 247.0,494.3 244.5,492.1 242.1,489.9 239.7,487.8 237.4,485.7 235.2,483.5 233.1,481.4 231.0,479.3 229.0,477.2 227.1,475.2 225.2,473.1 223.5,471.0 221.7,469.0 220.1,466.9 218.5,464.9 216.9,462.9 215.5,460.9 214.0,458.9 212.7,456.9 211.4,454.9 210.1,453.0 208.9,451.0 207.7,449.1 206.6,447.2 205.6,445.2 204.6,443.3 203.6,441.4 202.7,439.5 201.8,437.7 200.9,435.8 200.2,434.0 199.4,432.1 198.7,430.3 198.0,428.5 197.3,426.6 196.7,424.8 196.2,423.1 195.6,421.3 195.1,419.5 194.6,417.7 194.2,416.0 193.8,414.3 193.4,412.5 193.0,410.8 192.7,409.1 192.4,407.4 192.1,405.7 191.9,404.0 191.6,402.4 191.4,400.7 191.3,399.1 191.1,397.4 191.0,395.8 190.9,394.2 190.8,392.6 190.7,391.0 190.7,389.4 190.7,387.8 190.7,386.2 190.7,384.7 190.7,383.1 190.8,381.6 190.9,380.1 191.0,378.6 191.1,377.1 191.2,375.6 191.4,374.1 191.5,372.7 191.7,371.2 191.9,369.8 192.2,368.3 192.4,366.9 192.7,365.5 192.9,364.1 193.2,362.7 193.6,361.4 193.9,360.0 194.2,358.7 194.6,357.4 195.0,356.1 195.4,354.8 195.8,353.5 196.2,352.2 196.7,351.0 197.1,349.7 197.6,348.5 198.1,347.3 198.7,346.1 199.2,344.9 199.8,343.8 200.3,342.6 200.9,341.5 201.6,340.4 202.2,339.3 202.9,338.3 203.5,337.2 204.3,336.2 205.0,335.2 205.7,334.2 206.5,333.3 207.3,332.3 208.1,331.4 209.0,330.5 209.8,329.7 210.7,328.8 211.6,328.0 212.6,327.2 213.6,326.5 214.6,325.8 215.6,325.1 216.7,324.4 217.8,323.8 218.9,323.2 220.1,322.6 221.3,322.0 222.6,321.6 223.9,321.1 225.2,320.7 226.6,320.3 228.0,319.9 229.5,319.6" fill="none" stroke="#4ade80" stroke-width="2.6" stroke-opacity="0.72" stroke-linejoin="round" stroke-linecap="round"/>
<polyline points="480.3,802.5 447.9,787.5 420.1,774.6 396.0,763.2 374.8,753.0 355.9,743.9 339.0,735.5 323.8,727.8 310.0,720.7 297.5,714.0 286.0,707.8 275.6,701.9 266.0,696.4 257.2,691.1 249.0,686.1 241.5,681.3 234.6,676.7 228.2,672.3 222.3,668.1 216.8,664.1 211.7,660.1 207.0,656.3 202.6,652.7 198.6,649.1 194.8,645.7 191.3,642.3 188.1,639.0 185.1,635.8 182.3,632.7 179.7,629.6 177.3,626.7 175.0,623.7 173.0,620.9 171.0,618.0 169.3,615.3 167.6,612.5 166.1,609.9 164.6,607.2 163.3,604.6 162.1,602.0 161.0,599.5 159.9,597.0 159.0,594.5 158.1,592.1 157.3,589.6 156.5,587.2 155.8,584.8 155.2,582.5 154.6,580.1 154.0,577.8 153.5,575.5 153.1,573.2 152.7,570.9 152.3,568.7 152.0,566.4 151.7,564.2 151.4,562.0 151.2,559.8 150.9,557.6 150.8,555.4 150.6,553.2 150.4,551.1 150.3,548.9 150.2,546.7 150.1,544.6 150.1,542.5 150.0,540.4 150.0,538.2 150.0,536.1 149.9,534.0 150.0,531.9 150.0,529.8 150.0,527.8 150.0,525.7 150.1,523.6 150.1,521.5 150.2,519.5 150.3,517.4 150.4,515.4 150.5,513.3 150.6,511.3 150.7,509.3 150.8,507.2 150.9,505.2 151.1,503.2 151.2,501.2 151.3,499.2 151.5,497.2 151.6,495.2 151.8,493.2 152.0,491.2 152.1,489.2 152.3,487.3 152.5,485.3 152.7,483.3 152.9,481.4 153.1,479.4 153.2,477.4 153.4,475.5 153.7,473.5 153.9,471.6 154.1,469.7 154.3,467.7 154.5,465.8 154.7,463.9 155.0,462.0 155.2,460.1 155.4,458.2 155.7,456.3 155.9,454.4 156.1,452.5 156.4,450.6 156.6,448.7 156.9,446.8 157.2,445.0 157.4,443.1 157.7,441.2 157.9,439.4 158.2,437.5 158.5,435.7 158.8,433.9 159.1,432.0 159.3,430.2 159.6,428.4 159.9,426.6 160.2,424.7 160.5,422.9 160.8,421.1 161.1,419.4 161.5,417.6 161.8,415.8 162.1,414.0 162.4,412.3 162.7,410.5 163.1,408.7 163.4,407.0 163.8,405.2 164.1,403.5 164.5,401.8 164.8,400.1 165.2,398.4 165.5,396.6 165.9,395.0 166.3,393.3 166.7,391.6 167.0,389.9 167.4,388.2 167.8,386.6 168.2,384.9 168.6,383.3 169.0,381.6 169.4,380.0 169.9,378.4 170.3,376.8 170.7,375.2 171.2,373.6 171.6,372.0 172.1,370.4 172.5,368.9 173.0,367.3 173.5,365.8 173.9,364.2 174.4,362.7 174.9,361.2 175.4,359.7 175.9,358.2 176.5,356.7 177.0,355.2 177.5,353.8 178.1,352.3 178.6,350.9 179.2,349.5 179.8,348.1 180.3,346.7 180.9,345.3 181.5,343.9 182.1,342.5 182.8,341.2 183.4,339.9 184.0,338.6 184.7,337.3 185.4,336.0 186.1,334.7 186.8,333.4 187.5,332.2 188.2,331.0 188.9,329.8 189.7,328.6 190.4,327.4 191.2,326.3 192.0,325.1 192.9,324.0 193.7,322.9 194.5,321.9 195.4,320.8 196.3,319.8 197.2,318.8 198.2,317.8 199.1,316.8 200.1,315.9 201.1,315.0 202.1,314.1 203.2,313.2 204.2,312.4 205.4,311.6 206.5,310.8 207.7,310.1 208.8,309.4 210.1,308.7 211.3,308.1 212.6,307.5 214.0,306.9 215.3,306.4 216.8,305.9 218.2,305.5 219.7,305.0 221.3,304.7 222.9,304.4 224.5,304.1 226.2,303.9 228.0,303.7 229.8,303.6 231.7,303.6 233.7,303.6 235.7,303.7 237.8,303.8 239.9,304.0 242.2,304.3 244.6,304.6 247.0,305.1 249.5,305.6 252.2,306.2 254.9,306.9 257.8,307.7 260.8,308.6 263.9,309.6 267.2,310.8 270.6,312.0 274.2,313.4 278.0,314.9 281.9,316.6 286.1,318.5 290.4,320.5 295.0,322.6 299.8,325.0 304.9,327.6 310.3,330.3 315.9,333.3 321.9,336.6 328.2,340.1 334.9,343.9 341.9,347.9 349.4,352.3 357.3,357.1 365.7,362.1 374.6,367.6 384.0,373.4 393.9,379.7 404.4,386.3 415.5,393.4 427.1,401.0 439.4,409.0 452.2,417.5 465.5,426.5 479.4,435.9 493.7,445.7 508.3,455.9 523.2,466.4 538.1,477.1 553.0,488.0 567.6,498.9 581.7,509.8 595.2,520.5 607.8,531.0 619.4,541.0 629.7,550.5 638.7,559.5 646.2,567.8 652.2,575.4 656.8,582.3 659.8,588.5 661.5,594.0 661.7,598.7 660.8,602.8 658.7,606.3 655.6,609.2 651.6,611.6 646.8,613.6 641.3,615.0 635.2,616.2 628.6,616.9 621.6,617.4 614.3,617.6 606.6,617.5 598.8,617.2 590.8,616.8 582.6,616.1 574.4,615.3 566.1,614.4 557.7,613.3 549.4,612.1 541.1,610.9 532.8,609.5 524.5,608.0 516.3,606.5 508.2,604.9 500.2,603.2 492.2,601.5 484.4,599.7 476.6,597.9 469.0,596.0 461.4,594.1 454.0,592.1 446.7,590.1 439.5,588.1 432.5,586.1 425.5,584.0 418.7,581.9 412.0,579.7 405.4,577.6 399.0,575.4 392.7,573.2 386.5,571.0 380.4,568.8 374.4,566.6 368.6,564.3 362.9,562.0 357.3,559.8 351.9,557.5 346.5,555.2 341.3,552.9 336.2,550.6 331.2,548.3 326.3,546.0 321.6,543.7 317.0,541.4 312.4,539.1 308.0,536.8 303.7,534.4 299.5,532.1 295.4,529.8 291.5,527.5 287.6,525.2 283.8,522.9 280.2,520.6 276.6,518.4 273.1,516.1 269.8,513.8 266.5,511.5 263.3,509.3 260.2,507.0 257.2,504.8 254.3,502.6 251.5,500.3 248.8,498.1 246.2,495.9 243.6,493.7 241.2,491.6 238.8,489.4 236.5,487.2 234.2,485.1 232.1,482.9 230.0,480.8 228.0,478.7 226.0,476.6 224.2,474.5 222.4,472.4 220.6,470.3 219.0,468.3 217.4,466.2 215.8,464.2 214.3,462.2 212.9,460.2 211.5,458.2 210.2,456.2 208.9,454.2 207.7,452.2 206.6,450.3 205.5,448.3 204.4,446.4 203.4,444.5 202.4,442.6 201.5,440.7 200.6,438.8 199.8,436.9 199.0,435.0 198.2,433.2 197.5,431.3 196.8,429.5 196.2,427.7 195.6,425.8 195.0,424.0 194.5,422.2 194.0,420.5 193.5,418.7 193.1,416.9 192.6,415.2 192.3,413.4 191.9,411.7 191.6,410.0 191.3,408.3 191.0,406.6 190.8,404.9 190.5,403.2 190.3,401.5 190.2,399.9 190.0,398.2 189.9,396.6 189.8,394.9 189.7,393.3 189.7,391.7 189.6,390.1 189.6,388.5 189.6,387.0 189.6,385.4 189.7,383.8 189.7,382.3 189.8,380.8 189.9,379.2 190.0,377.7 190.2,376.2 190.3,374.7 190.5,373.3 190.7,371.8 190.9,370.3 191.1,368.9 191.4,367.5 191.6,366.0 191.9,364.6 192.2,363.2 192.5,361.9 192.8,360.5 193.2,359.1 193.5,357.8 193.9,356.5 194.3,355.2 194.7,353.9 195.1,352.6 195.6,351.3 196.1,350.1 196.5,348.8 197.0,347.6 197.6,346.4 198.1,345.2 198.6,344.0 199.2,342.9 199.8,341.7 200.4,340.6 201.0,339.5 201.7,338.4 202.4,337.4 203.1,336.3 203.8,335.3 204.5,334.3 205.3,333.3 206.1,332.4 206.9,331.4 207.7,330.5 208.5,329.6 209.4,328.8 210.3,327.9 211.3,327.1 212.2,326.3 213.2,325.6 214.2,324.8 215.3,324.1 216.4,323.5 217.5,322.8 218.6,322.2 219.8,321.7 221.0,321.1 222.3,320.6 223.6,320.2 225.0,319.8 226.3,319.4 227.8,319.1 229.3,318.8 230.8,318.5 232.4,318.3 234.0,318.2 235.7,318.1 237.4,318.0 239.2,318.0 241.1,318.1 243.1,318.2 245.1,318.4 247.2,318.7 249.4,319.0 251.6,319.4 254.0,319.9 256.4,320.5 258.9,321.1 261.6,321.8 264.3,322.7 267.2,323.6 270.2,324.6 273.3,325.8 276.6,327.0 280.0,328.4 283.5,329.9 287.3,331.5 291.2,333.3 295.3,335.2 299.5,337.3 304.0,339.5 308.8,342.0 313.7,344.6 318.9,347.4 324.4,350.4 330.2,353.7 336.2,357.1 342.6,360.9 349.3,364.9 356.4,369.1 363.8,373.7 371.6,378.5 379.8,383.7 388.5,389.2 397.5,395.0 407.0,401.2 416.9,407.8 427.3,414.7 438.0,421.9 449.2,429.5 460.7,437.5 472.6,445.7 484.7,454.3 497.0,463.1 509.3,472.1 521.7,481.3 533.9,490.6 545.9,499.9 557.5,509.1 568.5,518.2 578.8,527.1 588.4,535.7 597.0,543.9 604.6,551.7 611.1,559.0 616.5,565.9 620.8,572.1 623.8,577.8 625.8,583.0 626.6,587.6 626.4,591.6 625.3,595.1 623.2,598.2 620.3,600.8 616.7,602.9 612.5,604.7 607.7,606.1 602.3,607.2 596.5,607.9 590.4,608.4 583.9,608.7 577.2,608.7 570.3,608.5 563.2,608.1 555.9,607.6 548.5,606.9 541.1,606.1 533.6,605.1 526.1,604.1 518.5,602.9 511.0,601.6 503.5,600.3 496.0,598.9 488.6,597.4 481.2,595.8 473.9,594.2 466.7,592.5 459.6,590.7 452.5,589.0 445.5,587.1 438.7,585.2 431.9,583.3 425.2,581.4 418.7,579.4 412.2,577.4 405.8,575.4 399.6,573.3 393.4,571.2 387.4,569.1 381.5,567.0 375.7,564.8 370.0,562.7 364.4,560.5 358.9,558.3 353.6,556.1 348.3,553.9 343.2,551.7 338.2,549.4 333.3,547.2 328.5,545.0 323.8,542.7 319.2,540.5 314.7,538.2 310.3,535.9 306.1,533.7 301.9,531.4 297.9,529.2 293.9,526.9 290.0,524.6 286.3,522.4 282.6,520.1 279.1,517.9 275.6,515.6 272.3,513.4 269.0,511.2 265.8,508.9 262.7,506.7 259.7,504.5 256.8,502.3 254.0,500.1 251.3,497.9 248.6,495.7 246.0,493.6 243.5,491.4 241.1,489.3 238.8,487.1 236.5,485.0 234.4,482.9 232.2,480.8 230.2,478.7 228.2,476.6 226.3,474.5 224.5,472.4 222.8,470.4 221.1,468.3 219.4,466.3 217.8,464.2 216.3,462.2 214.9,460.2 213.5,458.2 212.1,456.3 210.8,454.3 209.6,452.3 208.4,450.4 207.3,448.4 206.2,446.5 205.1,444.6 204.1,442.7 203.2,440.8 202.3,438.9 201.4,437.1 200.6,435.2 199.8,433.3 199.1,431.5 198.3,429.7 197.7,427.9 197.0,426.0 196.4,424.2 195.9,422.5 195.4,420.7 194.9,418.9 194.4,417.2 194.0,415.4 193.5,413.7 193.2,411.9 192.8,410.2 192.5,408.5 192.2,406.8 191.9,405.1 191.7,403.5 191.5,401.8 191.3,400.1 191.1,398.5 191.0,396.9 190.9,395.2 190.8,393.6 190.7,392.0 190.6,390.4 190.6,388.8 190.6,387.3 190.6,385.7 190.6,384.2 190.7,382.6 190.7,381.1 190.8,379.6 190.9,378.1 191.1,376.6 191.2,375.1 191.4,373.6 191.5,372.2 191.7,370.7 192.0,369.3 192.2,367.8 192.4,366.4 192.7,365.0 193.0,363.6 193.3,362.3 193.6,360.9 193.9,359.6 194.3,358.2 194.7,356.9 195.0,355.6 195.5,354.3 195.9,353.0 196.3,351.8 196.8,350.5 197.3,349.3 197.7,348.1 198.3,346.9 198.8,345.7 199.3,344.5 199.9,343.4 200.5,342.2 201.1,341.1 201.7,340.0 202.4,339.0 203.0,337.9 203.7,336.9 204.4,335.9 205.2,334.9 205.9,333.9 206.7,332.9 207.5,332.0 208.3,331.1 209.2,330.2 210.1,329.4 211.0,328.5 211.9,327.7 212.9,327.0 213.9,326.2 214.9,325.5 215.9,324.8 217.0,324.1 218.1,323.5 219.3,322.9 220.5,322.4 221.7,321.8 222.9,321.3 224.3,320.9 225.6,320.5 227.0,320.1 228.4,319.8 229.9,319.5 231.4,319.3 233.0,319.1 234.7,318.9 236.3,318.9 238.1,318.8 239.9,318.8 241.8,318.9 243.8,319.1 245.8,319.3 247.9,319.5 250.1,319.9 252.3,320.3 254.7,320.8 257.1,321.4 259.7,322.0 262.3,322.8 265.1,323.6 267.9,324.5 270.9,325.6 274.1,326.7 277.3,328.0 280.8,329.4 284.3,330.9 288.1,332.5 292.0,334.3 296.1,336.3 300.4,338.4 304.9,340.6 309.6,343.1 314.6,345.7 319.8,348.5 325.3,351.6 331.0,354.8 337.1,358.3 343.5,362.1 350.2,366.1 357.2,370.4 364.7,374.9 372.5,379.8 380.7,385.0 389.3,390.5 398.3,396.3 407.8,402.5 417.7,409.0 428.0,415.9 438.7,423.1 449.8,430.7 461.2,438.6 473.0,446.8 485.0,455.3 497.1,464.1 509.4,473.1 521.6,482.2 533.7,491.3 545.5,500.5 556.9,509.7 567.8,518.7 577.9,527.5 587.3,536.0 595.8,544.1 603.2,551.8 609.6,559.1 614.9,565.8 619.0,572.0 622.0,577.6 623.9,582.7 624.7,587.2 624.4,591.2 623.2,594.7 621.2,597.7 618.3,600.3 614.7,602.4 610.5,604.2 605.7,605.6 600.4,606.6 594.7,607.4 588.6,607.9 582.2,608.1 575.5,608.2 568.6,608.0 561.5,607.6 554.3,607.1 547.0,606.4 539.6,605.6 532.1,604.6 524.7,603.6 517.2,602.4 509.7,601.2 502.2,599.8 494.8,598.4 487.4,596.9 480.1,595.3 472.8,593.7 465.6,592.0 458.5,590.3 451.5,588.5 444.6,586.7 437.7,584.8 431.0,582.9 424.3,581.0 417.8,579.0 411.4,577.0 405.0,575.0 398.8,572.9 392.7,570.8 386.7,568.7 380.8,566.6 375.0,564.5 369.4,562.3 363.8,560.1 358.4,557.9 353.0,555.7 347.8,553.5 342.7,551.3 337.7,549.1 332.8,546.8 328.0,544.6 323.3,542.3 318.8,540.1 314.3,537.8 309.9,535.6 305.7,533.3 301.5,531.1 297.5,528.8 293.6,526.6 289.7,524.3 286.0,522.1 282.3,519.8 278.8,517.6 275.3,515.3 272.0,513.1 268.7,510.9 265.6,508.6 262.5,506.4 259.5,504.2 256.6,502.0 253.8,499.8 251.1,497.6 248.4,495.4 245.9,493.3 243.4,491.1 241.0,489.0 238.7,486.8 236.4,484.7 234.2,482.6 232.1,480.5 230.1,478.4 228.1,476.3 226.3,474.2 224.4,472.1 222.7,470.1 221.0,468.0 219.3,466.0 217.8,464.0 216.3,462.0 214.8,460.0 213.4,458.0 212.1,456.0 210.8,454.0 209.6,452.1 208.4,450.1 207.2,448.2 206.1,446.3 205.1,444.4 204.1,442.5 203.2,440.6 202.3,438.7 201.4,436.8 200.6,435.0 199.8,433.1 199.1,431.3 198.4,429.5 197.7,427.6 197.1,425.8 196.5,424.0 195.9,422.2 195.4,420.5 194.9,418.7 194.4,416.9 194.0,415.2 193.6,413.5 193.2,411.7 192.9,410.0 192.5,408.3 192.3,406.6 192.0,404.9 191.8,403.3 191.5,401.6 191.4,400.0 191.2,398.3 191.0,396.7 190.9,395.1 190.8,393.4 190.8,391.8 190.7,390.2 190.7,388.7 190.7,387.1 190.7,385.5 190.7,384.0 190.8,382.5 190.8,380.9 190.9,379.4 191.0,377.9 191.1,376.4 191.3,374.9 191.4,373.5 191.6,372.0 191.8,370.6 192.0,369.1 192.3,367.7 192.5,366.3 192.8,364.9 193.1,363.5 193.4,362.1 193.7,360.8 194.0,359.4 194.4,358.1 194.8,356.8 195.2,355.5 195.6,354.2 196.0,352.9 196.4,351.6 196.9,350.4 197.4,349.2 197.9,348.0 198.4,346.8 198.9,345.6 199.5,344.4 200.0,343.3 200.6,342.1 201.2,341.0 201.9,339.9 202.5,338.9 203.2,337.8 203.9,336.8 204.6,335.8 205.3,334.8 206.1,333.8 206.9,332.9 207.7,331.9 208.5,331.0 209.3,330.1 210.2,329.3 211.1,328.5 212.1,327.7 213.0,326.9 214.0,326.2 215.0,325.4 216.1,324.8 217.2,324.1 218.3,323.5 219.5,322.9 220.7,322.3 221.9,321.8 223.2,321.3 224.5,320.9 225.8,320.5 227.2,320.1 228.7,319.8 230.1,319.5 231.7,319.3 233.3,319.1 234.9,319.0 236.6,318.9 238.4,318.9 240.2,318.9 242.1,319.0 244.1,319.1 246.1,319.4 248.2,319.6 250.4,320.0 252.7,320.4" fill="none" stroke="#4ade80" stroke-width="2.6" stroke-opacity="0.72" stroke-linejoin="round" stroke-linecap="round"/>
<polyline points="382.9,494.4 382.8,495.3 382.6,496.1 382.3,496.9 382.0,497.7 381.6,498.4 381.1,499.1 380.5,499.7 379.9,500.3 379.2,500.9 378.4,501.4 377.5,501.8 376.6,502.2 375.6,502.6 374.6,502.9 373.5,503.1 372.3,503.3 371.1,503.5 369.8,503.6 368.5,503.7 367.1,503.7 365.6,503.7 364.1,503.6 362.6,503.5 361.0,503.4 359.4,503.2 357.7,502.9 356.0,502.7 354.3,502.4 352.5,502.0 350.8,501.6 348.9,501.2 347.1,500.7 345.2,500.2 343.3,499.7 341.4,499.1 339.5,498.5 337.6,497.8 335.7,497.2 333.7,496.5 331.7,495.7 329.8,495.0 327.8,494.2 325.8,493.4 323.8,492.5 321.9,491.7 319.9,490.8 317.9,489.9 316.0,488.9 314.0,488.0 312.1,487.0 310.1,486.0 308.2,485.0 306.3,483.9 304.4,482.9 302.5,481.8 300.6,480.7 298.7,479.6 296.9,478.4 295.1,477.3 293.3,476.1 291.5,475.0 289.7,473.8 288.0,472.6 286.2,471.4 284.5,470.2 282.8,469.0 281.2,467.7 279.6,466.5 278.0,465.2 276.4,464.0 274.8,462.7 273.3,461.4 271.8,460.1 270.3,458.8 268.8,457.6 267.4,456.3 266.0,455.0 264.6,453.7 263.3,452.3 262.0,451.0 260.7,449.7 259.4,448.4 258.2,447.1 257.0,445.8 255.8,444.4 254.6,443.1 253.5,441.8 252.4,440.5 251.4,439.1 250.3,437.8 249.3,436.5 248.3,435.2 247.4,433.9 246.4,432.6 245.5,431.2 244.7,429.9 243.8,428.6 243.0,427.3 242.2,426.0 241.4,424.7 240.7,423.4 240.0,422.1 239.3,420.9 238.6,419.6 238.0,418.3 237.4,417.0 236.8,415.8 236.2,414.5 235.7,413.3 235.2,412.0 234.7,410.8 234.2,409.6 233.8,408.3 233.4,407.1 233.0,405.9 232.7,404.7 232.3,403.5 232.0,402.3 231.7,401.2 231.5,400.0 231.2,398.8 231.0,397.7 230.8,396.5 230.6,395.4 230.5,394.3 230.4,393.2 230.3,392.1 230.2,391.0 230.1,389.9 230.1,388.9 230.1,387.8 230.1,386.8 230.2,385.8 230.2,384.7 230.3,383.7 230.4,382.8 230.6,381.8 230.7,380.8 230.9,379.9 231.1,379.0 231.3,378.0 231.6,377.1 231.8,376.3 232.1,375.4 232.5,374.5 232.8,373.7 233.2,372.9 233.6,372.1 234.0,371.3 234.5,370.6 234.9,369.8 235.4,369.1 236.0,368.4 236.5,367.7 237.1,367.1 237.7,366.4 238.3,365.8 239.0,365.3 239.7,364.7 240.4,364.2 241.2,363.6 242.0,363.2 242.8,362.7 243.7,362.3 244.5,361.9 245.5,361.5 246.4,361.2 247.4,360.9 248.5,360.6 249.5,360.4 250.6,360.2 251.8,360.0 253.0,359.9 254.2,359.8 255.5,359.7 256.8,359.7 258.2,359.7 259.6,359.8 261.1,359.9 262.6,360.1 264.2,360.3 265.8,360.6 267.5,360.9 269.2,361.3 271.0,361.7 272.9,362.2 274.9,362.7 276.9,363.3 279.0,364.0 281.1,364.7 283.3,365.5 285.7,366.4 288.1,367.4 290.5,368.4 293.1,369.5 295.8,370.7 298.5,372.0 301.4,373.4 304.4,374.8 307.5,376.4 310.6,378.0 314.0,379.8 317.4,381.7 320.9,383.7 324.6,385.8 328.4,388.0 332.4,390.3 336.5,392.8 340.7,395.4 345.1,398.1 349.6,401.0 354.3,404.0 359.1,407.1 364.1,410.4 369.2,413.8 374.5,417.4 379.9,421.1 385.5,425.0 391.2,429.0 397.1,433.2 403.1,437.5 409.2,442.0 415.3,446.6 421.6,451.3 427.9,456.1 434.3,461.0 440.7,466.1 447.1,471.2 453.4,476.3 459.6,481.5 465.8,486.7 471.8,492.0 477.6,497.2 483.2,502.3 488.5,507.5 493.6,512.5 498.3,517.4 502.7,522.2 506.6,526.8 510.2,531.3 513.3,535.6 516.0,539.6 518.2,543.5 519.9,547.2 521.2,550.6 522.0,553.8 522.3,556.7 522.1,559.4 521.6,561.9 520.6,564.1 519.1,566.2 517.3,567.9 515.2,569.5 512.7,570.9 509.9,572.0 506.7,573.0 503.4,573.8 499.7,574.4 495.9,574.8 491.8,575.1 487.5,575.2 483.1,575.2 478.6,575.1 473.9,574.8 469.1,574.4 464.3,573.9 459.3,573.3 454.3,572.6 449.2,571.8 444.1,570.9 439.0,569.9 433.8,568.9 428.7,567.8 423.5,566.6 418.4,565.3 413.2,564.0 408.1,562.7 403.0,561.3 398.0,559.8 393.0,558.3 388.0,556.7 383.1,555.1 378.2,553.5 373.4,551.8 368.6,550.1 363.9,548.4 359.2,546.7 354.7,544.9 350.1,543.1 345.7,541.2 341.3,539.4 337.0,537.5 332.8,535.6 328.6,533.7 324.5,531.7 320.5,529.8 316.6,527.8 312.7,525.9 308.9,523.9 305.2,521.9 301.6,519.9 298.0,517.9 294.5,515.9 291.1,513.9 287.8,511.9 284.5,509.9 281.3,507.8 278.2,505.8 275.2,503.8 272.2,501.8 269.4,499.7 266.6,497.7 263.8,495.7 261.2,493.7 258.6,491.7 256.0,489.6 253.6,487.6 251.2,485.6 248.9,483.6 246.6,481.6 244.4,479.6 242.3,477.7 240.3,475.7 238.3,473.7 236.3,471.7 234.5,469.8 232.7,467.8 230.9,465.9 229.2,463.9 227.6,462.0 226.0,460.1 224.5,458.2 223.0,456.3 221.6,454.4 220.2,452.5 218.9,450.6 217.6,448.7 216.4,446.9 215.2,445.0 214.0,443.2 213.0,441.3 211.9,439.5 210.9,437.7 210.0,435.9 209.0,434.1 208.2,432.3 207.3,430.5 206.5,428.7 205.8,427.0 205.0,425.2 204.4,423.5 203.7,421.8 203.1,420.0 202.5,418.3 201.9,416.6 201.4,414.9 200.9,413.2 200.5,411.6 200.0,409.9 199.6,408.2 199.3,406.6 198.9,405.0 198.6,403.3 198.3,401.7 198.0,400.1 197.8,398.5 197.6,396.9 197.4,395.4 197.2,393.8 197.1,392.2 197.0,390.7 196.9,389.2 196.8,387.6 196.7,386.1 196.7,384.6 196.7,383.1 196.7,381.7 196.7,380.2 196.8,378.7 196.9,377.3 197.0,375.9 197.1,374.4 197.2,373.0 197.4,371.6 197.5,370.2 197.7,368.9 197.9,367.5 198.2,366.2 198.4,364.8 198.7,363.5 199.0,362.2 199.3,360.9 199.6,359.6 200.0,358.4 200.3,357.1 200.7,355.9 201.1,354.7 201.5,353.5 202.0,352.3 202.4,351.1 202.9,349.9 203.4,348.8 203.9,347.7 204.5,346.6 205.0,345.5 205.6,344.4 206.2,343.4 206.8,342.4 207.5,341.3 208.2,340.4 208.9,339.4 209.6,338.4 210.3,337.5 211.1,336.6 211.9,335.7 212.7,334.9 213.5,334.1 214.4,333.3 215.3,332.5 216.2,331.7 217.2,331.0 218.2,330.3 219.2,329.7 220.3,329.0 221.3,328.4 222.5,327.9 223.6,327.3 224.8,326.8 226.1,326.4 227.3,326.0 228.7,325.6 230.0,325.2 231.4,324.9 232.9,324.7 234.4,324.5 235.9,324.3 237.5,324.2 239.2,324.1 240.9,324.1 242.7,324.1 244.6,324.2 246.5,324.4 248.5,324.6 250.5,324.9 252.7,325.3 254.9,325.7 257.2,326.2 259.6,326.8 262.1,327.4 264.7,328.2 267.4,329.0 270.2,330.0 273.2,331.0 276.2,332.2 279.4,333.4 282.8,334.8 286.3,336.3 289.9,337.9 293.7,339.7 297.7,341.6 301.9,343.6 306.2,345.8 310.8,348.2 315.6,350.8 320.6,353.5 325.9,356.5 331.5,359.6 337.3,363.0 343.4,366.6 349.8,370.4 356.6,374.5 363.6,378.9 371.0,383.5 378.8,388.5 387.0,393.7 395.5,399.2 404.4,405.1 413.6,411.2 423.3,417.7 433.3,424.5 443.6,431.6 454.3,439.0 465.2,446.7 476.3,454.7 487.6,462.8 499.0,471.2 510.4,479.7 521.6,488.3 532.7,497.0 543.4,505.6 553.6,514.1 563.3,522.4 572.4,530.5 580.6,538.3 588.0,545.8 594.4,552.9 599.8,559.5 604.3,565.6 607.6,571.3 610.0,576.4 611.4,581.1 611.7,585.3 611.2,588.9 609.8,592.2 607.7,594.9 604.8,597.3 601.2,599.3 597.1,600.9 592.5,602.2 587.4,603.2 581.8,603.9 576.0,604.4 569.9,604.6 563.5,604.6 556.9,604.4 550.1,604.1 543.2,603.6 536.2,602.9 529.1,602.1 521.9,601.2 514.8,600.1 507.6,599.0 500.4,597.8 493.2,596.5 486.1,595.1 478.9,593.6 471.9,592.1 464.9,590.5 458.0,588.8 451.1,587.1 444.3,585.4 437.6,583.6 431.0,581.7 424.5,579.8 418.0,577.9 411.7,576.0 405.5,574.0 399.3,572.0 393.3,570.0 387.4,567.9 381.6,565.8 375.8,563.7 370.2,561.6 364.7,559.5 359.3,557.3 354.0,555.2 348.8,553.0 343.8,550.8 338.8,548.6 333.9,546.4 329.2,544.2 324.5,542.0 320.0,539.8 315.5,537.5 311.2,535.3 307.0,533.1 302.8,530.8 298.8,528.6 294.9,526.4 291.0,524.1 287.3,521.9 283.7,519.7 280.1,517.4 276.7,515.2 273.3,513.0 270.0,510.8 266.9,508.6 263.8,506.4 260.8,504.2 257.9,502.0 255.1,499.8 252.3,497.6 249.7,495.5 247.1,493.3 244.6,491.2 242.2,489.0 239.9,486.9 237.6,484.8 235.4,482.7 233.3,480.6 231.2,478.5 229.3,476.4 227.4,474.3 225.5,472.3 223.8,470.2 222.0,468.2 220.4,466.1 218.8,464.1 217.3,462.1 215.8,460.1 214.4,458.1 213.0,456.2 211.7,454.2 210.5,452.2 209.3,450.3 208.1,448.4 207.0,446.4 206.0,444.5 205.0,442.6 204.0,440.7 203.1,438.9 202.2,437.0 201.4,435.1 200.6,433.3 199.8,431.5 199.1,429.6 198.4,427.8 197.8,426.0 197.2,424.2 196.6,422.4 196.1,420.7 195.6,418.9 195.1,417.1 194.6,415.4 194.2,413.7 193.8,411.9 193.5,410.2 193.1,408.5 192.8,406.8 192.6,405.2 192.3,403.5 192.1,401.8 191.9,400.2 191.7,398.5 191.6,396.9 191.4,395.3 191.3,393.7 191.3,392.1 191.2,390.5 191.2,388.9 191.1,387.3 191.1,385.8 191.2,384.2 191.2,382.7 191.3,381.2 191.3,379.7 191.4,378.2 191.6,376.7 191.7,375.2 191.9,373.7 192.0,372.3 192.2,370.8 192.4,369.4 192.7,368.0 192.9,366.5 193.2,365.2 193.4,363.8 193.7,362.4 194.1,361.0 194.4,359.7 194.7,358.4 195.1,357.1 195.5,355.8 195.9,354.5 196.3,353.2 196.8,351.9 197.2,350.7 197.7,349.5 198.2,348.2 198.7,347.1 199.2,345.9 199.8,344.7 200.3,343.6 200.9,342.4 201.5,341.3 202.1,340.2 202.8,339.2 203.5,338.1 204.1,337.1 204.9,336.1 205.6,335.1 206.3,334.1 207.1,333.2 207.9,332.3 208.8,331.4 209.6,330.5 210.5,329.6 211.4,328.8 212.3,328.0 213.3,327.2 214.3,326.5 215.3,325.8 216.4,325.1 217.4,324.5 218.6,323.8 219.7,323.2 220.9,322.7 222.1,322.2 223.4,321.7 224.7,321.3 226.1,320.9 227.4,320.5 228.9,320.2 230.4,319.9 231.9,319.7 233.5,319.5 235.1,319.4 236.8,319.3 238.6,319.3 240.4,319.3 242.3,319.4 244.3,319.5 246.3,319.8 248.4,320.0 250.6,320.4 252.9,320.8 255.2,321.3 257.7,321.9 260.2,322.6 262.9,323.3 265.7,324.2 268.6,325.2 271.6,326.2 274.7,327.4 278.0,328.7 281.4,330.1 285.0,331.6 288.8,333.3 292.7,335.1 296.8,337.0 301.1,339.1 305.7,341.4 310.4,343.9 315.4,346.5 320.6,349.4 326.2,352.5 331.9,355.7 338.0,359.3 344.4,363.0 351.2,367.1 358.3,371.4 365.7,376.0 373.5,380.8 381.8,386.0 390.4,391.6 399.5,397.4 408.9,403.6 418.8,410.2 429.1,417.1 439.9,424.3 450.9,431.9 462.4,439.8 474.1,448.1 486.0,456.6 498.1,465.3 510.3,474.2 522.5,483.3 534.4,492.4 546.1,501.6 557.4,510.7 568.1,519.6 578.1,528.3 587.4,536.7 595.7,544.8 603.0,552.4 609.2,559.6 614.3,566.2 618.3,572.3 621.2,577.9 622.9,582.9 623.6,587.3 623.3,591.3 622.0,594.7 619.9,597.7 617.0,600.2 613.3,602.3 609.1,604.0 604.3,605.4 599.0,606.4 593.2,607.2 587.1,607.6 580.7,607.9 574.0,607.9 567.1,607.7 560.1,607.3 552.9,606.8 545.6,606.1 538.2,605.2 530.8,604.3 523.3,603.2 515.9,602.1 508.4,600.8 501.0,599.5 493.6,598.0 486.2,596.5 478.9,595.0 471.7,593.3 464.5,591.7 457.4,589.9 450.4,588.1 443.5,586.3 436.7,584.4 430.0,582.5 423.4,580.6 416.9,578.6 410.5,576.6 404.1,574.6 397.9,572.5 391.9,570.4 385.9,568.3 380.0,566.2 374.2,564.1 368.6,561.9 363.1,559.7 357.6,557.6 352.3,555.4 347.1,553.2 342.0,550.9 337.0,548.7 332.2,546.5 327.4,544.2 322.7,542.0 318.2,539.7 313.7,537.5 309.4,535.2 305.2,533.0 301.0,530.7 297.0,528.5 293.1,526.2 289.3,524.0 285.5,521.7 281.9,519.5 278.4,517.2 274.9,515.0 271.6,512.7 268.4,510.5 265.2,508.3 262.1,506.1 259.2,503.9 256.3,501.7 253.5,499.5 250.8,497.3 248.1,495.1 245.6,493.0 243.1,490.8 240.7,488.7 238.4,486.5 236.2,484.4 234.0,482.3 231.9,480.2 229.9,478.1 227.9,476.0 226.1,473.9 224.3,471.9 222.5,469.8 220.8,467.8 219.2,465.7 217.6,463.7 216.1,461.7 214.7,459.7 213.3,457.7 212.0,455.7 210.7,453.8 209.4,451.8 208.3,449.9 207.1,447.9 206.1,446.0 205.0,444.1 204.0,442.2 203.1,440.3 202.2,438.4 201.3,436.6 200.5,434.7 199.8,432.9 199.0,431.0 198.3,429.2 197.7,427.4 197.0,425.6 196.4,423.8 195.9,422.0 195.4,420.2 194.9,418.5 194.4,416.7 194.0,415.0 193.6,413.2 193.2,411.5 192.9,409.8 192.6,408.1 192.3,406.4 192.0,404.7 191.8,403.0 191.6,401.4 191.4,399.7 191.2,398.1 191.1,396.5 191.0,394.8 190.9,393.2 190.8,391.6 190.7,390.0 190.7,388.5 190.7,386.9 190.7,385.3 190.7,383.8 190.8,382.2 190.9,380.7 191.0,379.2 191.1,377.7 191.2,376.2 191.3,374.7 191.5,373.3 191.7,371.8 191.9,370.4 192.1,368.9 192.3,367.5 192.6,366.1 192.9,364.7 193.1,363.3 193.5,361.9 193.8,360.6 194.1,359.2 194.5,357.9 194.8,356.6 195.2,355.3 195.6,354.0 196.1,352.7 196.5,351.5 197.0,350.2 197.5,349.0 198.0,347.8 198.5,346.6 199.0,345.4 199.6,344.3 200.1,343.1 200.7,342.0 201.3,340.9 202.0,339.8 202.6,338.7 203.3,337.7 204.0,336.6 204.7,335.6 205.4,334.6 206.2,333.7 207.0,332.7 207.8,331.8 208.6,330.9 209.5,330.0 210.4,329.2 211.3,328.4 212.2,327.6 213.2,326.8 214.2,326.1 215.2,325.4 216.3,324.7 217.4,324.0 218.5,323.4 219.7,322.8 220.9,322.3 222.1,321.8 223.4,321.3 224.7,320.9 226.0,320.5 227.4,320.1 228.9,319.8 230.4,319.5 231.9,319.3 233.5,319.1 235.2,319.0 236.9,318.9 238.7,318.9 240.5,318.9 242.4,319.0 244.4,319.2 246.4,319.4 248.5,319.7 250.7,320.1 253.0,320.5 255.4,321.0 257.9,321.6 260.4,322.3 263.1,323.1 265.9,324.0 268.8,324.9 271.9,326.0 275.0,327.2 278.3,328.5 281.8,329.9 285.4,331.4 289.2,333.1 293.2,335.0 297.3,336.9 301.7,339.1 306.2,341.4 311.0,343.9 316.0,346.6 321.3,349.5 326.9,352.6 332.7,355.9 338.9,359.5 345.4,363.3 352.2,367.4 359.3,371.7 366.9,376.3 374.8,381.3 383.1,386.6 391.8,392.2 401.0,398.1 410.5,404.4 420.5,411.0 430.9,418.0 441.7,425.3 452.9,433.0 464.5,440.9 476.3,449.2 488.3,457.8 500.5,466.6 512.7,475.6 524.9,484.7 536.9,493.9 548.6,503.1 559.8,512.2 570.5,521.2 580.5,529.9 589.6,538.3 597.8,546.3 604.9,553.8 611.0,560.9 616.0,567.5 619.8,573.5 622.4,579.0 624.0,583.9 624.5,588.3 624.0,592.2 622.6,595.5 620.3,598.4 617.2,600.9 613.4,602.9 609.0,604.5 604.1,605.8 598.7,606.8 592.9,607.5 586.7,607.9 580.2,608.1 573.4,608.1 566.5,607.9 559.4,607.4 552.2,606.9 544.8,606.1 537.4,605.3 530.0,604.3 522.5,603.2 515.0,602.0 507.5,600.8 500.1,599.4 492.7,597.9 485.3,596.4 478.0,594.8 470.7,593.2 463.6,591.5 456.5,589.8 449.5,588.0 442.6,586.1 435.8,584.3 429.1,582.3 422.5,580.4 416.0,578.4 409.5,576.4 403.3,574.4 397.1,572.3 391.0,570.2 385.0,568.1 379.2,566.0 373.4,563.8 367.8,561.7 362.2,559.5 356.8,557.3 351.5,555.1 346.3,552.9 341.3,550.7 336.3,548.4 331.4,546.2 326.7,543.9 322.0,541.7 317.5,539.4 313.1,537.2 308.7,534.9 304.5,532.7 300.4,530.4 296.4,528.2 292.5,525.9 288.7,523.7 284.9,521.4 281.3,519.2 277.8,516.9 274.4,514.7 271.1,512.4 267.8,510.2 264.7,508.0 261.6,505.8 258.7,503.6 255.8,501.4 253.0,499.2 250.3,497.0 247.7,494.8 245.2,492.7 242.7,490.5 240.3,488.4 238.0,486.2 235.8,484.1 233.6,482.0 231.6,479.9 229.6,477.8 227.6,475.7 225.7,473.6 223.9,471.6 222.2,469.5 220.5,467.5 218.9,465.4 217.4,463.4 215.9,461.4 214.4,459.4 213.0,457.4 211.7,455.4 210.4,453.5 209.2,451.5 208.1,449.6 206.9,447.7 205.9,445.7 204.8,443.8 203.9,441.9 202.9,440.0 202.0,438.2 201.2,436.3 200.4,434.4 199.6,432.6 198.9,430.8 198.2,428.9 197.5,427.1 196.9,425.3 196.3,423.5 195.8,421.7 195.2,420.0 194.8,418.2 194.3,416.4 193.9,414.7 193.5,413.0 193.1,411.3 192.8,409.5 192.5,407.8 192.2,406.1 191.9,404.5 191.7,402.8 191.5,401.1 191.3,399.5 191.2,397.8 191.0,396.2 190.9,394.6 190.8,393.0 190.7,391.4 190.7,389.8 190.7,388.2 190.7,386.7 190.7,385.1 190.7,383.6 190.8,382.0 190.8,380.5 190.9,379.0 191.1,377.5 191.2,376.0 191.3,374.5 191.5,373.0 191.7,371.6 191.9,370.1 192.1,368.7 192.3,367.3 192.6,365.9 192.9,364.5 193.2,363.1 193.5,361.7 193.8,360.4 194.1,359.0 194.5,357.7 194.9,356.4 195.3,355.1 195.7,353.8 196.1,352.5 196.6,351.3 197.0,350.0 197.5,348.8 198.0,347.6 198.5,346.4 199.1,345.2 199.6,344.1 200.2,342.9 200.8,341.8 201.4,340.7 202.0,339.6 202.7,338.6 203.4,337.5 204.1,336.5 204.8,335.5 205.5,334.5 206.3,333.5 207.1,332.6 207.9,331.7 208.7,330.8 209.6,329.9 210.5,329.1 211.4,328.2 212.3,327.5 213.3,326.7 214.3,326.0 215.4,325.2 216.4,324.6 217.5,323.9 218.6,323.3 219.8,322.7 221.0,322.2 222.3,321.7 223.5,321.2 224.9,320.8 226.2,320.4 227.6,320.0 229.1,319.7 230.6,319.5 232.1,319.2 233.7,319.1 235.4,319.0 237.1,318.9 238.9,318.9 240.7,318.9 242.7,319.0 244.6,319.2 246.7,319.4 248.8,319.7 251.0,320.1 253.3,320.6 255.7,321.1 258.2,321.7 260.8,322.4 263.5,323.2 266.3,324.1 269.2,325.0 272.3,326.1 275.5,327.3 278.8,328.6 282.3,330.1 285.9,331.6 289.7,333.3 293.7,335.2 297.9,337.2 302.3,339.4 306.9,341.7 311.7,344.2 316.8,346.9 322.1,349.9 327.7,353.0 333.6,356.4 339.8,359.9 346.3,363.8 353.1,367.9 360.3,372.3 367.9,377.0 375.9,382.0 384.3,387.3 393.1,392.9 402.3,398.9 411.9,405.2 421.9,411.9 432.4,418.9 443.3,426.3 454.5,434.0 466.1,442.1 478.0,450.4 490.0,459.0 502.2,467.9 514.5,476.9 526.6,486.0 538.6,495.2 550.2,504.4 561.4,513.5 572.0,522.4 581.8,531.1 590.8,539.4 598.9,547.4 605.9,554.9 611.8,561.9 616.6,568.4 620.3,574.4 622.8,579.8 624.2,584.6 624.5,588.9 623.9,592.7 622.3,596.0 619.9,598.8 616.8,601.2 612.9,603.2 608.4,604.8 603.4,606.0 597.9,607.0 592.1,607.6 585.8,608.0 579.3,608.1 572.5,608.1 565.6,607.8 558.4,607.4 551.2,606.8 543.8,606.0 536.4,605.2 528.9,604.2 521.5,603.1 514.0,601.9 506.5,600.6 499.0,599.2 491.6,597.7 484.3,596.2 477.0,594.6 469.8,593.0 462.6,591.3 455.5,589.5 448.6,587.7 441.7,585.9 434.9,584.0 428.2,582.1 421.6,580.1 415.1,578.1 408.7,576.1 402.4,574.1 396.2,572.0 390.2,569.9 384.2,567.8 378.4,565.7 372.6,563.5 367.0,561.4 361.5,559.2 356.1,557.0 350.8,554.8 345.6,552.6 340.6,550.4 335.6,548.1 330.8,545.9 326.0,543.6 321.4,541.4 316.9,539.1 312.4,536.9 308.1,534.6 303.9,532.4 299.8,530.1 295.8,527.9 291.9,525.6 288.1,523.3 284.4,521.1 280.8,518.8 277.3,516.6 273.9,514.4 270.6,512.1 267.4,509.9 264.3,507.7 261.2,505.5 258.3,503.3 255.4,501.1 252.6,498.9 249.9,496.7 247.3,494.5 244.8,492.4 242.4,490.2 240.0,488.1 237.7,485.9 235.5,483.8 233.3,481.7 231.3,479.6 229.3,477.5 227.3,475.4 225.5,473.3 223.7,471.3 222.0,469.2 220.3,467.2 218.7,465.2 217.1,463.1 215.7,461.1 214.2,459.1 212.8,457.2 211.5,455.2 210.3,453.2 209.1,451.3 207.9,449.3 206.8,447.4 205.7,445.5 204.7,443.6 203.7,441.7 202.8,439.8 201.9,437.9 201.1,436.0 200.3,434.2 199.5,432.3 198.8,430.5 198.1,428.7 197.4,426.9 196.8,425.1 196.2,423.3 195.7,421.5 195.2,419.7 194.7,418.0 194.2,416.2 193.8,414.5 193.4,412.7 193.1,411.0 192.7,409.3 192.4,407.6 192.1,405.9 191.9,404.2 191.7,402.6 191.5,400.9 191.3,399.3 191.1,397.6 191.0,396.0 190.9,394.4 190.8,392.8 190.7,391.2 190.7,389.6 190.7,388.0 190.7,386.4 190.7,384.9 190.7,383.3 190.8,381.8 190.9,380.3 191.0,378.8 191.1,377.3 191.2,375.8 191.4,374.3 191.5,372.8 191.7,371.4 191.9,369.9 192.1,368.5 192.4,367.1 192.6,365.7 192.9,364.3 193.2,362.9 193.5,361.6 193.8,360.2 194.2,358.9 194.5,357.5 194.9,356.2 195.3,354.9 195.7,353.6 196.2,352.4 196.6,351.1 197.1,349.9 197.6,348.7 198.1,347.4 198.6,346.3 199.1,345.1 199.7,343.9 200.3,342.8 200.9,341.7 201.5,340.6 202.1,339.5 202.8,338.4 203.5,337.4 204.2,336.3 204.9,335.3 205.6,334.4 206.4,333.4 207.2,332.5 208.0,331.5 208.9,330.7 209.7,329.8 210.6,328.9 211.5,328.1 212.5,327.3 213.5,326.6 214.5,325.9 215.5,325.2 216.6,324.5 217.7,323.8 218.8,323.2 220.0,322.7 221.2,322.1 222.4,321.6 223.7,321.1 225.0,320.7 226.4,320.3 227.8,320.0 229.3,319.7 230.8,319.4 232.3,319.2 234.0,319.1 235.6,318.9 237.4,318.9 239.1,318.9 241.0,318.9 242.9,319.1 244.9,319.2 247.0,319.5 249.1,319.8 251.3,320.2 253.7,320.6 256.1,321.2 258.6,321.8 261.2,322.5 263.9,323.3 266.7,324.2 269.6,325.2 272.7,326.3 275.9,327.5 279.3,328.8 282.8,330.3 286.4,331.9 290.3,333.6 294.3,335.5 298.5,337.5" fill="none" stroke="#4ade80" stroke-width="2.6" stroke-opacity="0.72" stroke-linejoin="round" stroke-linecap="round"/>
<polyline points="393.1,129.9 427.5,149.3 469.5,173.1 521.3,202.7 585.4,239.5 664.5,285.1 760.0,340.4 870.0,404.8" fill="none" stroke="#4ade80" stroke-width="2.6" stroke-opacity="0.72" stroke-linejoin="round" stroke-linecap="round"/>
<circle cx="310.0" cy="445.3" r="6.0" fill="#f8fafc" opacity="1.0"/>
<text x="110.0" y="788.0" class="small" text-anchor="start">Generated from a standard-library Python gallery: vector field + nullclines + trajectories.</text>
</svg>
