<svg xmlns="http://www.w3.org/2000/svg" viewBox="0 0 1440 920">
<defs>
  <linearGradient id="bg" x1="0" y1="0" x2="1" y2="1">
    <stop offset="0%" stop-color="#081018"/>
    <stop offset="100%" stop-color="#101d2a"/>
  </linearGradient>
  <style>
    .title { font: 700 34px Helvetica, Arial, sans-serif; fill: #e6edf3; }
    .subtitle { font: 500 18px Helvetica, Arial, sans-serif; fill: #9fb3c8; }
    .label { font: 700 20px Helvetica, Arial, sans-serif; fill: #dce7f3; }
    .small { font: 500 15px Helvetica, Arial, sans-serif; fill: #9fb3c8; }
    .tiny { font: 500 13px Helvetica, Arial, sans-serif; fill: #8aa3bc; }
    .panel { fill: #122131; stroke: #5e7fa3; stroke-width: 2; rx: 18; }
    .grid { stroke: #223445; stroke-width: 1; opacity: 0.8; }
    .axis { stroke: #39516a; stroke-width: 2; }
  </style>
</defs>
<rect width="1440" height="920" fill="url(#bg)"/>
<rect x="70" y="136" width="1310" height="712" rx="18" class="panel"/>
<rect x="900" y="150" width="480" height="678" rx="18" fill="#0f1b28" stroke="#5e7fa3" stroke-width="1.6"/>
<text x="90.0" y="68.0" class="title" text-anchor="start">Brusselator</text>
<text x="90.0" y="98.0" class="subtitle"><tspan x="90.0" dy="0">A textbook autocatalytic oscillator model with a fixed point that loses calm and grows a limit</tspan><tspan x="90.0" dy="22.0">cycle.</tspan></text>
<text x="928.0" y="188.0" class="label" text-anchor="start">Legend</text>
<text x="966.0" y="234.0" class="small" text-anchor="start">trajectories</text>
<text x="966.0" y="270.0" class="small" text-anchor="start">dx/dt = 0</text>
<text x="966.0" y="306.0" class="small" text-anchor="start">dy/dt = 0</text>
<text x="966.0" y="342.0" class="small" text-anchor="start">fixed points</text>
<circle cx="938.0" cy="226.0" r="8.0" fill="#4ade80" opacity="1.0"/>
<line x1="922.0" y1="262.0" x2="954.0" y2="262.0" stroke="#f97316" stroke-width="4" opacity="1.0"/>
<line x1="922.0" y1="298.0" x2="954.0" y2="298.0" stroke="#60a5fa" stroke-width="4" opacity="1.0"/>
<circle cx="938.0" cy="334.0" r="7.0" fill="#f8fafc" opacity="1.0"/>
<text x="928.0" y="392.0" class="label" text-anchor="start">How to read it</text>
<text x="928.0" y="422.0" class="small"><tspan x="928.0" dy="0">The arrows show the local flow.</tspan></text>
<text x="928.0" y="468.0" class="small"><tspan x="928.0" dy="0">The colored curves show where one derivative</tspan><tspan x="928.0" dy="22.0">vanishes.</tspan></text>
<text x="928.0" y="530.0" class="small"><tspan x="928.0" dy="0">Trajectories reveal whether the fixed point</tspan><tspan x="928.0" dy="22.0">attracts, spirals, or closes into an orbit.</tspan></text>
<text x="928.0" y="620.0" class="label" text-anchor="start">Local fixed-point readout</text>
<text x="928.0" y="650.0" class="small"><tspan x="928.0" dy="0">1. (1.00, 2.40) → unstable spiral</tspan></text>
<text x="946.0" y="670.0" class="tiny"><tspan x="946.0" dy="0">λ = 0.20+0.98i, 0.20-0.98i</tspan></text>
<line x1="118.0" y1="186.0" x2="118.0" y2="788.0" stroke="#223445" stroke-width="1" opacity="1.0"/>
<text x="118.0" y="816.0" class="tiny" text-anchor="middle">0.2</text>
<line x1="266.4" y1="186.0" x2="266.4" y2="788.0" stroke="#223445" stroke-width="1" opacity="1.0"/>
<text x="266.4" y="816.0" class="tiny" text-anchor="middle">0.8</text>
<line x1="414.8" y1="186.0" x2="414.8" y2="788.0" stroke="#223445" stroke-width="1" opacity="1.0"/>
<text x="414.8" y="816.0" class="tiny" text-anchor="middle">1.4</text>
<line x1="563.2" y1="186.0" x2="563.2" y2="788.0" stroke="#223445" stroke-width="1" opacity="1.0"/>
<text x="563.2" y="816.0" class="tiny" text-anchor="middle">2.0</text>
<line x1="711.6" y1="186.0" x2="711.6" y2="788.0" stroke="#223445" stroke-width="1" opacity="1.0"/>
<text x="711.6" y="816.0" class="tiny" text-anchor="middle">2.6</text>
<line x1="860.0" y1="186.0" x2="860.0" y2="788.0" stroke="#223445" stroke-width="1" opacity="1.0"/>
<text x="860.0" y="816.0" class="tiny" text-anchor="middle">3.2</text>
<line x1="118.0" y1="788.0" x2="860.0" y2="788.0" stroke="#223445" stroke-width="1" opacity="1.0"/>
<text x="100.0" y="792.0" class="tiny" text-anchor="end">0.0</text>
<line x1="118.0" y1="667.6" x2="860.0" y2="667.6" stroke="#223445" stroke-width="1" opacity="1.0"/>
<text x="100.0" y="671.6" class="tiny" text-anchor="end">0.9</text>
<line x1="118.0" y1="547.2" x2="860.0" y2="547.2" stroke="#223445" stroke-width="1" opacity="1.0"/>
<text x="100.0" y="551.2" class="tiny" text-anchor="end">1.8</text>
<line x1="118.0" y1="426.8" x2="860.0" y2="426.8" stroke="#223445" stroke-width="1" opacity="1.0"/>
<text x="100.0" y="430.8" class="tiny" text-anchor="end">2.7</text>
<line x1="118.0" y1="306.4" x2="860.0" y2="306.4" stroke="#223445" stroke-width="1" opacity="1.0"/>
<text x="100.0" y="310.4" class="tiny" text-anchor="end">3.6</text>
<line x1="118.0" y1="186.0" x2="860.0" y2="186.0" stroke="#223445" stroke-width="1" opacity="1.0"/>
<text x="100.0" y="190.0" class="tiny" text-anchor="end">4.5</text>
<line x1="118.0" y1="788.0" x2="860.0" y2="788.0" stroke="#39516a" stroke-width="2" opacity="1.0"/>
<line x1="118.0" y1="788.0" x2="126.2" y2="778.0" stroke="#4b6580" stroke-width="1.4" opacity="0.9"/>
<line x1="118.0" y1="737.8" x2="126.7" y2="728.1" stroke="#4b6580" stroke-width="1.4" opacity="0.9"/>
<line x1="118.0" y1="687.7" x2="127.1" y2="678.2" stroke="#4b6580" stroke-width="1.4" opacity="0.9"/>
<line x1="118.0" y1="637.5" x2="127.5" y2="628.3" stroke="#4b6580" stroke-width="1.4" opacity="0.9"/>
<line x1="118.0" y1="587.3" x2="128.0" y2="578.4" stroke="#4b6580" stroke-width="1.4" opacity="0.9"/>
<line x1="118.0" y1="537.2" x2="128.4" y2="528.5" stroke="#4b6580" stroke-width="1.4" opacity="0.9"/>
<line x1="118.0" y1="487.0" x2="128.8" y2="478.7" stroke="#4b6580" stroke-width="1.4" opacity="0.9"/>
<line x1="118.0" y1="436.8" x2="129.1" y2="428.9" stroke="#4b6580" stroke-width="1.4" opacity="0.9"/>
<line x1="118.0" y1="386.7" x2="129.5" y2="379.0" stroke="#4b6580" stroke-width="1.4" opacity="0.9"/>
<line x1="118.0" y1="336.5" x2="129.8" y2="329.2" stroke="#4b6580" stroke-width="1.4" opacity="0.9"/>
<line x1="118.0" y1="286.3" x2="130.1" y2="279.4" stroke="#4b6580" stroke-width="1.4" opacity="0.9"/>
<line x1="118.0" y1="236.2" x2="130.4" y2="229.6" stroke="#4b6580" stroke-width="1.4" opacity="0.9"/>
<line x1="118.0" y1="186.0" x2="130.7" y2="179.8" stroke="#4b6580" stroke-width="1.4" opacity="0.9"/>
<line x1="164.4" y1="788.0" x2="159.6" y2="776.6" stroke="#4b6580" stroke-width="1.4" opacity="0.9"/>
<line x1="164.4" y1="737.8" x2="160.1" y2="726.3" stroke="#4b6580" stroke-width="1.4" opacity="0.9"/>
<line x1="164.4" y1="687.7" x2="160.8" y2="676.0" stroke="#4b6580" stroke-width="1.4" opacity="0.9"/>
<line x1="164.4" y1="637.5" x2="161.5" y2="625.7" stroke="#4b6580" stroke-width="1.4" opacity="0.9"/>
<line x1="164.4" y1="587.3" x2="162.4" y2="575.4" stroke="#4b6580" stroke-width="1.4" opacity="0.9"/>
<line x1="164.4" y1="537.2" x2="163.6" y2="525.1" stroke="#4b6580" stroke-width="1.4" opacity="0.9"/>
<line x1="164.4" y1="487.0" x2="164.9" y2="475.0" stroke="#4b6580" stroke-width="1.4" opacity="0.9"/>
<line x1="164.4" y1="436.8" x2="166.5" y2="424.9" stroke="#4b6580" stroke-width="1.4" opacity="0.9"/>
<line x1="164.4" y1="386.7" x2="168.3" y2="375.1" stroke="#4b6580" stroke-width="1.4" opacity="0.9"/>
<line x1="164.4" y1="336.5" x2="170.4" y2="325.5" stroke="#4b6580" stroke-width="1.4" opacity="0.9"/>
<line x1="164.4" y1="286.3" x2="172.6" y2="276.3" stroke="#4b6580" stroke-width="1.4" opacity="0.9"/>
<line x1="164.4" y1="236.2" x2="174.7" y2="227.5" stroke="#4b6580" stroke-width="1.4" opacity="0.9"/>
<line x1="164.4" y1="186.0" x2="176.5" y2="179.0" stroke="#4b6580" stroke-width="1.4" opacity="0.9"/>
<line x1="210.8" y1="788.0" x2="202.3" y2="778.1" stroke="#4b6580" stroke-width="1.4" opacity="0.9"/>
<line x1="210.8" y1="737.8" x2="202.6" y2="727.8" stroke="#4b6580" stroke-width="1.4" opacity="0.9"/>
<line x1="210.8" y1="687.7" x2="202.9" y2="677.5" stroke="#4b6580" stroke-width="1.4" opacity="0.9"/>
<line x1="210.8" y1="637.5" x2="203.3" y2="627.1" stroke="#4b6580" stroke-width="1.4" opacity="0.9"/>
<line x1="210.8" y1="587.3" x2="203.9" y2="576.6" stroke="#4b6580" stroke-width="1.4" opacity="0.9"/>
<line x1="210.8" y1="537.2" x2="204.8" y2="526.1" stroke="#4b6580" stroke-width="1.4" opacity="0.9"/>
<line x1="210.8" y1="487.0" x2="206.1" y2="475.6" stroke="#4b6580" stroke-width="1.4" opacity="0.9"/>
<line x1="210.8" y1="436.8" x2="208.3" y2="425.0" stroke="#4b6580" stroke-width="1.4" opacity="0.9"/>
<line x1="210.8" y1="386.7" x2="212.2" y2="374.7" stroke="#4b6580" stroke-width="1.4" opacity="0.9"/>
<line x1="210.8" y1="336.5" x2="218.5" y2="326.2" stroke="#4b6580" stroke-width="1.4" opacity="0.9"/>
<line x1="210.8" y1="286.3" x2="224.1" y2="281.0" stroke="#4b6580" stroke-width="1.4" opacity="0.9"/>
<line x1="210.8" y1="236.2" x2="225.6" y2="235.7" stroke="#4b6580" stroke-width="1.4" opacity="0.9"/>
<line x1="210.8" y1="186.0" x2="225.3" y2="188.4" stroke="#4b6580" stroke-width="1.4" opacity="0.9"/>
<line x1="257.1" y1="788.0" x2="247.4" y2="778.9" stroke="#4b6580" stroke-width="1.4" opacity="0.9"/>
<line x1="257.1" y1="737.8" x2="247.5" y2="728.7" stroke="#4b6580" stroke-width="1.4" opacity="0.9"/>
<line x1="257.1" y1="687.7" x2="247.6" y2="678.4" stroke="#4b6580" stroke-width="1.4" opacity="0.9"/>
<line x1="257.1" y1="637.5" x2="247.9" y2="628.1" stroke="#4b6580" stroke-width="1.4" opacity="0.9"/>
<line x1="257.1" y1="587.3" x2="248.2" y2="577.7" stroke="#4b6580" stroke-width="1.4" opacity="0.9"/>
<line x1="257.1" y1="537.2" x2="248.8" y2="527.2" stroke="#4b6580" stroke-width="1.4" opacity="0.9"/>
<line x1="257.1" y1="487.0" x2="250.0" y2="476.4" stroke="#4b6580" stroke-width="1.4" opacity="0.9"/>
<line x1="257.1" y1="436.8" x2="254.0" y2="425.1" stroke="#4b6580" stroke-width="1.4" opacity="0.9"/>
<line x1="257.1" y1="386.7" x2="270.0" y2="380.7" stroke="#4b6580" stroke-width="1.4" opacity="0.9"/>
<line x1="257.1" y1="336.5" x2="271.1" y2="340.6" stroke="#4b6580" stroke-width="1.4" opacity="0.9"/>
<line x1="257.1" y1="286.3" x2="269.9" y2="292.5" stroke="#4b6580" stroke-width="1.4" opacity="0.9"/>
<line x1="257.1" y1="236.2" x2="269.3" y2="243.1" stroke="#4b6580" stroke-width="1.4" opacity="0.9"/>
<line x1="257.1" y1="186.0" x2="268.9" y2="193.3" stroke="#4b6580" stroke-width="1.4" opacity="0.9"/>
<line x1="303.5" y1="788.0" x2="293.1" y2="779.4" stroke="#4b6580" stroke-width="1.4" opacity="0.9"/>
<line x1="303.5" y1="737.8" x2="293.1" y2="729.2" stroke="#4b6580" stroke-width="1.4" opacity="0.9"/>
<line x1="303.5" y1="687.7" x2="293.2" y2="679.0" stroke="#4b6580" stroke-width="1.4" opacity="0.9"/>
<line x1="303.5" y1="637.5" x2="293.2" y2="628.8" stroke="#4b6580" stroke-width="1.4" opacity="0.9"/>
<line x1="303.5" y1="587.3" x2="293.3" y2="578.6" stroke="#4b6580" stroke-width="1.4" opacity="0.9"/>
<line x1="303.5" y1="537.2" x2="293.5" y2="528.3" stroke="#4b6580" stroke-width="1.4" opacity="0.9"/>
<line x1="303.5" y1="487.0" x2="294.2" y2="477.6" stroke="#4b6580" stroke-width="1.4" opacity="0.9"/>
<line x1="303.5" y1="436.8" x2="316.0" y2="443.3" stroke="#4b6580" stroke-width="1.4" opacity="0.9"/>
<line x1="303.5" y1="386.7" x2="314.6" y2="394.7" stroke="#4b6580" stroke-width="1.4" opacity="0.9"/>
<line x1="303.5" y1="336.5" x2="314.3" y2="344.7" stroke="#4b6580" stroke-width="1.4" opacity="0.9"/>
<line x1="303.5" y1="286.3" x2="314.2" y2="294.7" stroke="#4b6580" stroke-width="1.4" opacity="0.9"/>
<line x1="303.5" y1="236.2" x2="314.2" y2="244.5" stroke="#4b6580" stroke-width="1.4" opacity="0.9"/>
<line x1="303.5" y1="186.0" x2="314.1" y2="194.4" stroke="#4b6580" stroke-width="1.4" opacity="0.9"/>
<line x1="349.9" y1="788.0" x2="339.1" y2="779.7" stroke="#4b6580" stroke-width="1.4" opacity="0.9"/>
<line x1="349.9" y1="737.8" x2="339.1" y2="729.6" stroke="#4b6580" stroke-width="1.4" opacity="0.9"/>
<line x1="349.9" y1="687.7" x2="339.0" y2="679.5" stroke="#4b6580" stroke-width="1.4" opacity="0.9"/>
<line x1="349.9" y1="637.5" x2="338.9" y2="629.4" stroke="#4b6580" stroke-width="1.4" opacity="0.9"/>
<line x1="349.9" y1="587.3" x2="338.6" y2="579.5" stroke="#4b6580" stroke-width="1.4" opacity="0.9"/>
<line x1="349.9" y1="537.2" x2="337.7" y2="530.3" stroke="#4b6580" stroke-width="1.4" opacity="0.9"/>
<line x1="349.9" y1="487.0" x2="353.4" y2="498.7" stroke="#4b6580" stroke-width="1.4" opacity="0.9"/>
<line x1="349.9" y1="436.8" x2="359.1" y2="446.3" stroke="#4b6580" stroke-width="1.4" opacity="0.9"/>
<line x1="349.9" y1="386.7" x2="359.7" y2="395.7" stroke="#4b6580" stroke-width="1.4" opacity="0.9"/>
<line x1="349.9" y1="336.5" x2="359.9" y2="345.4" stroke="#4b6580" stroke-width="1.4" opacity="0.9"/>
<line x1="349.9" y1="286.3" x2="360.0" y2="295.1" stroke="#4b6580" stroke-width="1.4" opacity="0.9"/>
<line x1="349.9" y1="236.2" x2="360.1" y2="244.9" stroke="#4b6580" stroke-width="1.4" opacity="0.9"/>
<line x1="349.9" y1="186.0" x2="360.1" y2="194.7" stroke="#4b6580" stroke-width="1.4" opacity="0.9"/>
<line x1="396.2" y1="788.0" x2="385.3" y2="779.9" stroke="#4b6580" stroke-width="1.4" opacity="0.9"/>
<line x1="396.2" y1="737.8" x2="385.1" y2="729.8" stroke="#4b6580" stroke-width="1.4" opacity="0.9"/>
<line x1="396.2" y1="687.7" x2="385.0" y2="679.9" stroke="#4b6580" stroke-width="1.4" opacity="0.9"/>
<line x1="396.2" y1="637.5" x2="384.6" y2="630.1" stroke="#4b6580" stroke-width="1.4" opacity="0.9"/>
<line x1="396.2" y1="587.3" x2="383.7" y2="580.9" stroke="#4b6580" stroke-width="1.4" opacity="0.9"/>
<line x1="396.2" y1="537.2" x2="383.1" y2="542.8" stroke="#4b6580" stroke-width="1.4" opacity="0.9"/>
<line x1="396.2" y1="487.0" x2="403.7" y2="497.4" stroke="#4b6580" stroke-width="1.4" opacity="0.9"/>
<line x1="396.2" y1="436.8" x2="405.3" y2="446.4" stroke="#4b6580" stroke-width="1.4" opacity="0.9"/>
<line x1="396.2" y1="386.7" x2="405.8" y2="395.9" stroke="#4b6580" stroke-width="1.4" opacity="0.9"/>
<line x1="396.2" y1="336.5" x2="406.1" y2="345.5" stroke="#4b6580" stroke-width="1.4" opacity="0.9"/>
<line x1="396.2" y1="286.3" x2="406.2" y2="295.3" stroke="#4b6580" stroke-width="1.4" opacity="0.9"/>
<line x1="396.2" y1="236.2" x2="406.3" y2="245.0" stroke="#4b6580" stroke-width="1.4" opacity="0.9"/>
<line x1="396.2" y1="186.0" x2="406.4" y2="194.8" stroke="#4b6580" stroke-width="1.4" opacity="0.9"/>
<line x1="442.6" y1="788.0" x2="431.5" y2="780.1" stroke="#4b6580" stroke-width="1.4" opacity="0.9"/>
<line x1="442.6" y1="737.8" x2="431.3" y2="730.1" stroke="#4b6580" stroke-width="1.4" opacity="0.9"/>
<line x1="442.6" y1="687.7" x2="431.0" y2="680.2" stroke="#4b6580" stroke-width="1.4" opacity="0.9"/>
<line x1="442.6" y1="637.5" x2="430.3" y2="630.8" stroke="#4b6580" stroke-width="1.4" opacity="0.9"/>
<line x1="442.6" y1="587.3" x2="428.3" y2="584.1" stroke="#4b6580" stroke-width="1.4" opacity="0.9"/>
<line x1="442.6" y1="537.2" x2="445.9" y2="548.9" stroke="#4b6580" stroke-width="1.4" opacity="0.9"/>
<line x1="442.6" y1="487.0" x2="450.8" y2="497.0" stroke="#4b6580" stroke-width="1.4" opacity="0.9"/>
<line x1="442.6" y1="436.8" x2="451.8" y2="446.3" stroke="#4b6580" stroke-width="1.4" opacity="0.9"/>
<line x1="442.6" y1="386.7" x2="452.2" y2="395.9" stroke="#4b6580" stroke-width="1.4" opacity="0.9"/>
<line x1="442.6" y1="336.5" x2="452.4" y2="345.6" stroke="#4b6580" stroke-width="1.4" opacity="0.9"/>
<line x1="442.6" y1="286.3" x2="452.5" y2="295.3" stroke="#4b6580" stroke-width="1.4" opacity="0.9"/>
<line x1="442.6" y1="236.2" x2="452.6" y2="245.1" stroke="#4b6580" stroke-width="1.4" opacity="0.9"/>
<line x1="442.6" y1="186.0" x2="452.7" y2="194.8" stroke="#4b6580" stroke-width="1.4" opacity="0.9"/>
<line x1="489.0" y1="788.0" x2="477.7" y2="780.2" stroke="#4b6580" stroke-width="1.4" opacity="0.9"/>
<line x1="489.0" y1="737.8" x2="477.5" y2="730.3" stroke="#4b6580" stroke-width="1.4" opacity="0.9"/>
<line x1="489.0" y1="687.7" x2="477.0" y2="680.6" stroke="#4b6580" stroke-width="1.4" opacity="0.9"/>
<line x1="489.0" y1="637.5" x2="476.0" y2="631.8" stroke="#4b6580" stroke-width="1.4" opacity="0.9"/>
<line x1="489.0" y1="587.3" x2="476.1" y2="593.3" stroke="#4b6580" stroke-width="1.4" opacity="0.9"/>
<line x1="489.0" y1="537.2" x2="495.4" y2="548.0" stroke="#4b6580" stroke-width="1.4" opacity="0.9"/>
<line x1="489.0" y1="487.0" x2="497.6" y2="496.8" stroke="#4b6580" stroke-width="1.4" opacity="0.9"/>
<line x1="489.0" y1="436.8" x2="498.3" y2="446.2" stroke="#4b6580" stroke-width="1.4" opacity="0.9"/>
<line x1="489.0" y1="386.7" x2="498.6" y2="395.9" stroke="#4b6580" stroke-width="1.4" opacity="0.9"/>
<line x1="489.0" y1="336.5" x2="498.8" y2="345.6" stroke="#4b6580" stroke-width="1.4" opacity="0.9"/>
<line x1="489.0" y1="286.3" x2="498.9" y2="295.3" stroke="#4b6580" stroke-width="1.4" opacity="0.9"/>
<line x1="489.0" y1="236.2" x2="499.0" y2="245.1" stroke="#4b6580" stroke-width="1.4" opacity="0.9"/>
<line x1="489.0" y1="186.0" x2="499.1" y2="194.9" stroke="#4b6580" stroke-width="1.4" opacity="0.9"/>
<line x1="535.4" y1="788.0" x2="524.0" y2="780.3" stroke="#4b6580" stroke-width="1.4" opacity="0.9"/>
<line x1="535.4" y1="737.8" x2="523.7" y2="730.4" stroke="#4b6580" stroke-width="1.4" opacity="0.9"/>
<line x1="535.4" y1="687.7" x2="523.1" y2="680.9" stroke="#4b6580" stroke-width="1.4" opacity="0.9"/>
<line x1="535.4" y1="637.5" x2="521.5" y2="633.3" stroke="#4b6580" stroke-width="1.4" opacity="0.9"/>
<line x1="535.4" y1="587.3" x2="534.0" y2="599.3" stroke="#4b6580" stroke-width="1.4" opacity="0.9"/>
<line x1="535.4" y1="537.2" x2="542.9" y2="547.5" stroke="#4b6580" stroke-width="1.4" opacity="0.9"/>
<line x1="535.4" y1="487.0" x2="544.2" y2="496.7" stroke="#4b6580" stroke-width="1.4" opacity="0.9"/>
<line x1="535.4" y1="436.8" x2="544.8" y2="446.2" stroke="#4b6580" stroke-width="1.4" opacity="0.9"/>
<line x1="535.4" y1="386.7" x2="545.0" y2="395.8" stroke="#4b6580" stroke-width="1.4" opacity="0.9"/>
<line x1="535.4" y1="336.5" x2="545.2" y2="345.5" stroke="#4b6580" stroke-width="1.4" opacity="0.9"/>
<line x1="535.4" y1="286.3" x2="545.3" y2="295.3" stroke="#4b6580" stroke-width="1.4" opacity="0.9"/>
<line x1="535.4" y1="236.2" x2="545.4" y2="245.1" stroke="#4b6580" stroke-width="1.4" opacity="0.9"/>
<line x1="535.4" y1="186.0" x2="545.4" y2="194.8" stroke="#4b6580" stroke-width="1.4" opacity="0.9"/>
<line x1="581.8" y1="788.0" x2="570.3" y2="780.4" stroke="#4b6580" stroke-width="1.4" opacity="0.9"/>
<line x1="581.8" y1="737.8" x2="569.9" y2="730.6" stroke="#4b6580" stroke-width="1.4" opacity="0.9"/>
<line x1="581.8" y1="687.7" x2="569.1" y2="681.3" stroke="#4b6580" stroke-width="1.4" opacity="0.9"/>
<line x1="581.8" y1="637.5" x2="567.0" y2="636.2" stroke="#4b6580" stroke-width="1.4" opacity="0.9"/>
<line x1="581.8" y1="587.3" x2="585.7" y2="598.9" stroke="#4b6580" stroke-width="1.4" opacity="0.9"/>
<line x1="581.8" y1="537.2" x2="589.9" y2="547.3" stroke="#4b6580" stroke-width="1.4" opacity="0.9"/>
<line x1="581.8" y1="487.0" x2="590.8" y2="496.5" stroke="#4b6580" stroke-width="1.4" opacity="0.9"/>
<line x1="581.8" y1="436.8" x2="591.2" y2="446.1" stroke="#4b6580" stroke-width="1.4" opacity="0.9"/>
<line x1="581.8" y1="386.7" x2="591.5" y2="395.8" stroke="#4b6580" stroke-width="1.4" opacity="0.9"/>
<line x1="581.8" y1="336.5" x2="591.6" y2="345.5" stroke="#4b6580" stroke-width="1.4" opacity="0.9"/>
<line x1="581.8" y1="286.3" x2="591.7" y2="295.3" stroke="#4b6580" stroke-width="1.4" opacity="0.9"/>
<line x1="581.8" y1="236.2" x2="591.8" y2="245.0" stroke="#4b6580" stroke-width="1.4" opacity="0.9"/>
<line x1="581.8" y1="186.0" x2="591.8" y2="194.8" stroke="#4b6580" stroke-width="1.4" opacity="0.9"/>
<line x1="628.1" y1="788.0" x2="616.6" y2="780.4" stroke="#4b6580" stroke-width="1.4" opacity="0.9"/>
<line x1="628.1" y1="737.8" x2="616.2" y2="730.7" stroke="#4b6580" stroke-width="1.4" opacity="0.9"/>
<line x1="628.1" y1="687.7" x2="615.2" y2="681.8" stroke="#4b6580" stroke-width="1.4" opacity="0.9"/>
<line x1="628.1" y1="637.5" x2="614.1" y2="641.5" stroke="#4b6580" stroke-width="1.4" opacity="0.9"/>
<line x1="628.1" y1="587.3" x2="634.1" y2="598.4" stroke="#4b6580" stroke-width="1.4" opacity="0.9"/>
<line x1="628.1" y1="537.2" x2="636.6" y2="547.0" stroke="#4b6580" stroke-width="1.4" opacity="0.9"/>
<line x1="628.1" y1="487.0" x2="637.3" y2="496.4" stroke="#4b6580" stroke-width="1.4" opacity="0.9"/>
<line x1="628.1" y1="436.8" x2="637.7" y2="446.0" stroke="#4b6580" stroke-width="1.4" opacity="0.9"/>
<line x1="628.1" y1="386.7" x2="637.9" y2="395.7" stroke="#4b6580" stroke-width="1.4" opacity="0.9"/>
<line x1="628.1" y1="336.5" x2="638.0" y2="345.5" stroke="#4b6580" stroke-width="1.4" opacity="0.9"/>
<line x1="628.1" y1="286.3" x2="638.1" y2="295.2" stroke="#4b6580" stroke-width="1.4" opacity="0.9"/>
<line x1="628.1" y1="236.2" x2="638.2" y2="245.0" stroke="#4b6580" stroke-width="1.4" opacity="0.9"/>
<line x1="628.1" y1="186.0" x2="638.2" y2="194.8" stroke="#4b6580" stroke-width="1.4" opacity="0.9"/>
<line x1="674.5" y1="788.0" x2="662.9" y2="780.5" stroke="#4b6580" stroke-width="1.4" opacity="0.9"/>
<line x1="674.5" y1="737.8" x2="662.4" y2="730.8" stroke="#4b6580" stroke-width="1.4" opacity="0.9"/>
<line x1="674.5" y1="687.7" x2="661.2" y2="682.4" stroke="#4b6580" stroke-width="1.4" opacity="0.9"/>
<line x1="674.5" y1="637.5" x2="666.3" y2="647.5" stroke="#4b6580" stroke-width="1.4" opacity="0.9"/>
<line x1="674.5" y1="587.3" x2="681.5" y2="597.9" stroke="#4b6580" stroke-width="1.4" opacity="0.9"/>
<line x1="674.5" y1="537.2" x2="683.3" y2="546.9" stroke="#4b6580" stroke-width="1.4" opacity="0.9"/>
<line x1="674.5" y1="487.0" x2="683.8" y2="496.4" stroke="#4b6580" stroke-width="1.4" opacity="0.9"/>
<line x1="674.5" y1="436.8" x2="684.1" y2="446.0" stroke="#4b6580" stroke-width="1.4" opacity="0.9"/>
<line x1="674.5" y1="386.7" x2="684.3" y2="395.7" stroke="#4b6580" stroke-width="1.4" opacity="0.9"/>
<line x1="674.5" y1="336.5" x2="684.4" y2="345.5" stroke="#4b6580" stroke-width="1.4" opacity="0.9"/>
<line x1="674.5" y1="286.3" x2="684.5" y2="295.2" stroke="#4b6580" stroke-width="1.4" opacity="0.9"/>
<line x1="674.5" y1="236.2" x2="684.6" y2="245.0" stroke="#4b6580" stroke-width="1.4" opacity="0.9"/>
<line x1="674.5" y1="186.0" x2="684.6" y2="194.8" stroke="#4b6580" stroke-width="1.4" opacity="0.9"/>
<line x1="720.9" y1="788.0" x2="709.3" y2="780.5" stroke="#4b6580" stroke-width="1.4" opacity="0.9"/>
<line x1="720.9" y1="737.8" x2="708.7" y2="731.0" stroke="#4b6580" stroke-width="1.4" opacity="0.9"/>
<line x1="720.9" y1="687.7" x2="707.1" y2="683.2" stroke="#4b6580" stroke-width="1.4" opacity="0.9"/>
<line x1="720.9" y1="637.5" x2="719.5" y2="649.5" stroke="#4b6580" stroke-width="1.4" opacity="0.9"/>
<line x1="720.9" y1="587.3" x2="728.5" y2="597.7" stroke="#4b6580" stroke-width="1.4" opacity="0.9"/>
<line x1="720.9" y1="537.2" x2="729.8" y2="546.8" stroke="#4b6580" stroke-width="1.4" opacity="0.9"/>
<line x1="720.9" y1="487.0" x2="730.3" y2="496.3" stroke="#4b6580" stroke-width="1.4" opacity="0.9"/>
<line x1="720.9" y1="436.8" x2="730.6" y2="445.9" stroke="#4b6580" stroke-width="1.4" opacity="0.9"/>
<line x1="720.9" y1="386.7" x2="730.7" y2="395.7" stroke="#4b6580" stroke-width="1.4" opacity="0.9"/>
<line x1="720.9" y1="336.5" x2="730.8" y2="345.4" stroke="#4b6580" stroke-width="1.4" opacity="0.9"/>
<line x1="720.9" y1="286.3" x2="730.9" y2="295.2" stroke="#4b6580" stroke-width="1.4" opacity="0.9"/>
<line x1="720.9" y1="236.2" x2="731.0" y2="245.0" stroke="#4b6580" stroke-width="1.4" opacity="0.9"/>
<line x1="720.9" y1="186.0" x2="731.0" y2="194.8" stroke="#4b6580" stroke-width="1.4" opacity="0.9"/>
<line x1="767.2" y1="788.0" x2="755.6" y2="780.5" stroke="#4b6580" stroke-width="1.4" opacity="0.9"/>
<line x1="767.2" y1="737.8" x2="754.9" y2="731.1" stroke="#4b6580" stroke-width="1.4" opacity="0.9"/>
<line x1="767.2" y1="687.7" x2="753.0" y2="684.2" stroke="#4b6580" stroke-width="1.4" opacity="0.9"/>
<line x1="767.2" y1="637.5" x2="769.7" y2="649.4" stroke="#4b6580" stroke-width="1.4" opacity="0.9"/>
<line x1="767.2" y1="587.3" x2="775.3" y2="597.4" stroke="#4b6580" stroke-width="1.4" opacity="0.9"/>
<line x1="767.2" y1="537.2" x2="776.4" y2="546.7" stroke="#4b6580" stroke-width="1.4" opacity="0.9"/>
<line x1="767.2" y1="487.0" x2="776.8" y2="496.2" stroke="#4b6580" stroke-width="1.4" opacity="0.9"/>
<line x1="767.2" y1="436.8" x2="777.0" y2="445.9" stroke="#4b6580" stroke-width="1.4" opacity="0.9"/>
<line x1="767.2" y1="386.7" x2="777.1" y2="395.6" stroke="#4b6580" stroke-width="1.4" opacity="0.9"/>
<line x1="767.2" y1="336.5" x2="777.2" y2="345.4" stroke="#4b6580" stroke-width="1.4" opacity="0.9"/>
<line x1="767.2" y1="286.3" x2="777.3" y2="295.2" stroke="#4b6580" stroke-width="1.4" opacity="0.9"/>
<line x1="767.2" y1="236.2" x2="777.4" y2="245.0" stroke="#4b6580" stroke-width="1.4" opacity="0.9"/>
<line x1="767.2" y1="186.0" x2="777.4" y2="194.8" stroke="#4b6580" stroke-width="1.4" opacity="0.9"/>
<line x1="813.6" y1="788.0" x2="801.9" y2="780.6" stroke="#4b6580" stroke-width="1.4" opacity="0.9"/>
<line x1="813.6" y1="737.8" x2="801.2" y2="731.2" stroke="#4b6580" stroke-width="1.4" opacity="0.9"/>
<line x1="813.6" y1="687.7" x2="799.0" y2="685.6" stroke="#4b6580" stroke-width="1.4" opacity="0.9"/>
<line x1="813.6" y1="637.5" x2="818.2" y2="649.0" stroke="#4b6580" stroke-width="1.4" opacity="0.9"/>
<line x1="813.6" y1="587.3" x2="822.0" y2="597.3" stroke="#4b6580" stroke-width="1.4" opacity="0.9"/>
<line x1="813.6" y1="537.2" x2="822.9" y2="546.6" stroke="#4b6580" stroke-width="1.4" opacity="0.9"/>
<line x1="813.6" y1="487.0" x2="823.2" y2="496.2" stroke="#4b6580" stroke-width="1.4" opacity="0.9"/>
<line x1="813.6" y1="436.8" x2="823.4" y2="445.9" stroke="#4b6580" stroke-width="1.4" opacity="0.9"/>
<line x1="813.6" y1="386.7" x2="823.5" y2="395.6" stroke="#4b6580" stroke-width="1.4" opacity="0.9"/>
<line x1="813.6" y1="336.5" x2="823.6" y2="345.4" stroke="#4b6580" stroke-width="1.4" opacity="0.9"/>
<line x1="813.6" y1="286.3" x2="823.7" y2="295.2" stroke="#4b6580" stroke-width="1.4" opacity="0.9"/>
<line x1="813.6" y1="236.2" x2="823.8" y2="245.0" stroke="#4b6580" stroke-width="1.4" opacity="0.9"/>
<line x1="813.6" y1="186.0" x2="823.8" y2="194.8" stroke="#4b6580" stroke-width="1.4" opacity="0.9"/>
<line x1="860.0" y1="788.0" x2="848.3" y2="780.6" stroke="#4b6580" stroke-width="1.4" opacity="0.9"/>
<line x1="860.0" y1="737.8" x2="847.5" y2="731.4" stroke="#4b6580" stroke-width="1.4" opacity="0.9"/>
<line x1="860.0" y1="687.7" x2="845.2" y2="687.7" stroke="#4b6580" stroke-width="1.4" opacity="0.9"/>
<line x1="860.0" y1="637.5" x2="865.8" y2="648.6" stroke="#4b6580" stroke-width="1.4" opacity="0.9"/>
<line x1="860.0" y1="587.3" x2="868.6" y2="597.1" stroke="#4b6580" stroke-width="1.4" opacity="0.9"/>
<line x1="860.0" y1="537.2" x2="869.3" y2="546.5" stroke="#4b6580" stroke-width="1.4" opacity="0.9"/>
<line x1="860.0" y1="487.0" x2="869.7" y2="496.1" stroke="#4b6580" stroke-width="1.4" opacity="0.9"/>
<line x1="860.0" y1="436.8" x2="869.8" y2="445.8" stroke="#4b6580" stroke-width="1.4" opacity="0.9"/>
<line x1="860.0" y1="386.7" x2="870.0" y2="395.6" stroke="#4b6580" stroke-width="1.4" opacity="0.9"/>
<line x1="860.0" y1="336.5" x2="870.0" y2="345.4" stroke="#4b6580" stroke-width="1.4" opacity="0.9"/>
<line x1="860.0" y1="286.3" x2="870.1" y2="295.2" stroke="#4b6580" stroke-width="1.4" opacity="0.9"/>
<line x1="860.0" y1="236.2" x2="870.1" y2="245.0" stroke="#4b6580" stroke-width="1.4" opacity="0.9"/>
<line x1="860.0" y1="186.0" x2="870.2" y2="194.8" stroke="#4b6580" stroke-width="1.4" opacity="0.9"/>
<polyline points="118.0,1858.2 120.5,1655.0 123.0,1483.5 125.4,1338.0 127.9,1213.8 130.4,1107.4 132.9,1015.9 135.4,936.8 137.9,868.2 140.3,808.6 142.8,756.7 145.3,711.3 147.8,671.5 150.3,636.7 152.7,606.1 155.2,579.2 157.7,555.6 160.2,534.8 162.7,516.4 165.2,500.3 167.6,486.1 170.1,473.6 172.6,462.7 175.1,453.0 177.6,444.6 180.0,437.3 182.5,430.9 185.0,425.4 187.5,420.6 190.0,416.6 192.4,413.1 194.9,410.2 197.4,407.8 199.9,405.9 202.4,404.3 204.9,403.1 207.3,402.3 209.8,401.7 212.3,401.4 214.8,401.4 217.3,401.6 219.7,401.9 222.2,402.5 224.7,403.2 227.2,404.0 229.7,405.0 232.2,406.1 234.6,407.3 237.1,408.6 239.6,410.0 242.1,411.5 244.6,413.0 247.0,414.6 249.5,416.3 252.0,418.0 254.5,419.7 257.0,421.5 259.5,423.3 261.9,425.1 264.4,427.0 266.9,428.9 269.4,430.7 271.9,432.7 274.3,434.6 276.8,436.5 279.3,438.5 281.8,440.4 284.3,442.4 286.7,444.3 289.2,446.3 291.7,448.2 294.2,450.2 296.7,452.1 299.2,454.1 301.6,456.0 304.1,457.9 306.6,459.8 309.1,461.8 311.6,463.7 314.0,465.6 316.5,467.4 319.0,469.3 321.5,471.2 324.0,473.0 326.5,474.8 328.9,476.7 331.4,478.5 333.9,480.3 336.4,482.1 338.9,483.8 341.3,485.6 343.8,487.3 346.3,489.1 348.8,490.8 351.3,492.5 353.8,494.2 356.2,495.8 358.7,497.5 361.2,499.2 363.7,500.8 366.2,502.4 368.6,504.0 371.1,505.6 373.6,507.2 376.1,508.7 378.6,510.3 381.1,511.8 383.5,513.3 386.0,514.8 388.5,516.3 391.0,517.8 393.5,519.3 395.9,520.7 398.4,522.2 400.9,523.6 403.4,525.0 405.9,526.4 408.3,527.8 410.8,529.2 413.3,530.6 415.8,531.9 418.3,533.2 420.8,534.6 423.2,535.9 425.7,537.2 428.2,538.5 430.7,539.8 433.2,541.0 435.6,542.3 438.1,543.5 440.6,544.8 443.1,546.0 445.6,547.2 448.1,548.4 450.5,549.6 453.0,550.8 455.5,551.9 458.0,553.1 460.5,554.2 462.9,555.4 465.4,556.5 467.9,557.6 470.4,558.7 472.9,559.8 475.4,560.9 477.8,562.0 480.3,563.1 482.8,564.1 485.3,565.2 487.8,566.2 490.2,567.2 492.7,568.3 495.2,569.3 497.7,570.3 500.2,571.3 502.6,572.3 505.1,573.3 507.6,574.2 510.1,575.2 512.6,576.2 515.1,577.1 517.5,578.0 520.0,579.0 522.5,579.9 525.0,580.8 527.5,581.7 529.9,582.6 532.4,583.5 534.9,584.4 537.4,585.3 539.9,586.2 542.4,587.0 544.8,587.9 547.3,588.7 549.8,589.6 552.3,590.4 554.8,591.2 557.2,592.1 559.7,592.9 562.2,593.7 564.7,594.5 567.2,595.3 569.7,596.1 572.1,596.9 574.6,597.7 577.1,598.4 579.6,599.2 582.1,600.0 584.5,600.7 587.0,601.5 589.5,602.2 592.0,603.0 594.5,603.7 596.9,604.4 599.4,605.1 601.9,605.9 604.4,606.6 606.9,607.3 609.4,608.0 611.8,608.7 614.3,609.4 616.8,610.0 619.3,610.7 621.8,611.4 624.2,612.1 626.7,612.7 629.2,613.4 631.7,614.0 634.2,614.7 636.7,615.3 639.1,616.0 641.6,616.6 644.1,617.2 646.6,617.9 649.1,618.5 651.5,619.1 654.0,619.7 656.5,620.3 659.0,620.9 661.5,621.5 664.0,622.1 666.4,622.7 668.9,623.3 671.4,623.9 673.9,624.5 676.4,625.1 678.8,625.6 681.3,626.2 683.8,626.8 686.3,627.3 688.8,627.9 691.3,628.4 693.7,629.0 696.2,629.5 698.7,630.1 701.2,630.6 703.7,631.2 706.1,631.7 708.6,632.2 711.1,632.7 713.6,633.3 716.1,633.8 718.5,634.3 721.0,634.8 723.5,635.3 726.0,635.8 728.5,636.3 731.0,636.8 733.4,637.3 735.9,637.8 738.4,638.3 740.9,638.8 743.4,639.3 745.8,639.7 748.3,640.2 750.8,640.7 753.3,641.2 755.8,641.6 758.3,642.1 760.7,642.6 763.2,643.0 765.7,643.5 768.2,643.9 770.7,644.4 773.1,644.8 775.6,645.3 778.1,645.7 780.6,646.1 783.1,646.6 785.6,647.0 788.0,647.5 790.5,647.9 793.0,648.3 795.5,648.7 798.0,649.2 800.4,649.6 802.9,650.0 805.4,650.4 807.9,650.8 810.4,651.2 812.8,651.6 815.3,652.0 817.8,652.4 820.3,652.8 822.8,653.2 825.3,653.6 827.7,654.0 830.2,654.4 832.7,654.8 835.2,655.2 837.7,655.6 840.1,655.9 842.6,656.3 845.1,656.7 847.6,657.1 850.1,657.5 852.6,657.8 855.0,658.2 857.5,658.6 860.0,658.9" fill="none" stroke="#f97316" stroke-width="3.2" stroke-opacity="0.9" stroke-linejoin="round" stroke-linecap="round"/>
<polyline points="118.0,-817.3 120.5,-740.6 123.0,-671.0 125.4,-607.3 127.9,-549.0 130.4,-495.4 132.9,-445.9 135.4,-400.1 137.9,-357.6 140.3,-318.0 142.8,-281.0 145.3,-246.5 147.8,-214.1 150.3,-183.6 152.7,-155.0 155.2,-128.0 157.7,-102.5 160.2,-78.4 162.7,-55.6 165.2,-33.9 167.6,-13.3 170.1,6.2 172.6,24.9 175.1,42.7 177.6,59.6 180.0,75.8 182.5,91.3 185.0,106.2 187.5,120.4 190.0,134.1 192.4,147.2 194.9,159.7 197.4,171.8 199.9,183.5 202.4,194.7 204.9,205.5 207.3,215.9 209.8,225.9 212.3,235.6 214.8,245.0 217.3,254.1 219.7,262.8 222.2,271.3 224.7,279.5 227.2,287.5 229.7,295.2 232.2,302.7 234.6,309.9 237.1,317.0 239.6,323.8 242.1,330.4 244.6,336.9 247.0,343.1 249.5,349.2 252.0,355.2 254.5,361.0 257.0,366.6 259.5,372.1 261.9,377.4 264.4,382.6 266.9,387.7 269.4,392.6 271.9,397.4 274.3,402.2 276.8,406.7 279.3,411.2 281.8,415.6 284.3,419.9 286.7,424.1 289.2,428.2 291.7,432.2 294.2,436.1 296.7,439.9 299.2,443.7 301.6,447.3 304.1,450.9 306.6,454.4 309.1,457.9 311.6,461.3 314.0,464.6 316.5,467.8 319.0,471.0 321.5,474.1 324.0,477.1 326.5,480.1 328.9,483.0 331.4,485.9 333.9,488.8 336.4,491.5 338.9,494.2 341.3,496.9 343.8,499.5 346.3,502.1 348.8,504.7 351.3,507.1 353.8,509.6 356.2,512.0 358.7,514.3 361.2,516.7 363.7,518.9 366.2,521.2 368.6,523.4 371.1,525.6 373.6,527.7 376.1,529.8 378.6,531.9 381.1,533.9 383.5,535.9 386.0,537.9 388.5,539.8 391.0,541.7 393.5,543.6 395.9,545.5 398.4,547.3 400.9,549.1 403.4,550.8 405.9,552.6 408.3,554.3 410.8,556.0 413.3,557.7 415.8,559.3 418.3,560.9 420.8,562.5 423.2,564.1 425.7,565.7 428.2,567.2 430.7,568.7 433.2,570.2 435.6,571.7 438.1,573.1 440.6,574.6 443.1,576.0 445.6,577.4 448.1,578.8 450.5,580.1 453.0,581.5 455.5,582.8 458.0,584.1 460.5,585.4 462.9,586.7 465.4,587.9 467.9,589.2 470.4,590.4 472.9,591.6 475.4,592.8 477.8,594.0 480.3,595.2 482.8,596.3 485.3,597.5 487.8,598.6 490.2,599.7 492.7,600.8 495.2,601.9 497.7,603.0 500.2,604.0 502.6,605.1 505.1,606.1 507.6,607.1 510.1,608.2 512.6,609.2 515.1,610.2 517.5,611.1 520.0,612.1 522.5,613.1 525.0,614.0 527.5,615.0 529.9,615.9 532.4,616.8 534.9,617.7 537.4,618.6 539.9,619.5 542.4,620.4 544.8,621.3 547.3,622.1 549.8,623.0 552.3,623.8 554.8,624.7 557.2,625.5 559.7,626.3 562.2,627.1 564.7,627.9 567.2,628.7 569.7,629.5 572.1,630.3 574.6,631.1 577.1,631.9 579.6,632.6 582.1,633.4 584.5,634.1 587.0,634.8 589.5,635.6 592.0,636.3 594.5,637.0 596.9,637.7 599.4,638.4 601.9,639.1 604.4,639.8 606.9,640.5 609.4,641.2 611.8,641.8 614.3,642.5 616.8,643.2 619.3,643.8 621.8,644.5 624.2,645.1 626.7,645.7 629.2,646.4 631.7,647.0 634.2,647.6 636.7,648.2 639.1,648.8 641.6,649.4 644.1,650.0 646.6,650.6 649.1,651.2 651.5,651.8 654.0,652.4 656.5,652.9 659.0,653.5 661.5,654.1 664.0,654.6 666.4,655.2 668.9,655.7 671.4,656.3 673.9,656.8 676.4,657.4 678.8,657.9 681.3,658.4 683.8,658.9 686.3,659.5 688.8,660.0 691.3,660.5 693.7,661.0 696.2,661.5 698.7,662.0 701.2,662.5 703.7,663.0 706.1,663.5 708.6,663.9 711.1,664.4 713.6,664.9 716.1,665.4 718.5,665.8 721.0,666.3 723.5,666.8 726.0,667.2 728.5,667.7 731.0,668.1 733.4,668.6 735.9,669.0 738.4,669.5 740.9,669.9 743.4,670.3 745.8,670.8 748.3,671.2 750.8,671.6 753.3,672.0 755.8,672.5 758.3,672.9 760.7,673.3 763.2,673.7 765.7,674.1 768.2,674.5 770.7,674.9 773.1,675.3 775.6,675.7 778.1,676.1 780.6,676.5 783.1,676.9 785.6,677.2 788.0,677.6 790.5,678.0 793.0,678.4 795.5,678.8 798.0,679.1 800.4,679.5 802.9,679.9 805.4,680.2 807.9,680.6 810.4,681.0 812.8,681.3 815.3,681.7 817.8,682.0 820.3,682.4 822.8,682.7 825.3,683.1 827.7,683.4 830.2,683.7 832.7,684.1 835.2,684.4 837.7,684.8 840.1,685.1 842.6,685.4 845.1,685.7 847.6,686.1 850.1,686.4 852.6,686.7 855.0,687.0 857.5,687.4 860.0,687.7" fill="none" stroke="#60a5fa" stroke-width="3.2" stroke-opacity="0.9" stroke-linejoin="round" stroke-linecap="round"/>
<polyline points="348.6,834.4 329.5,824.4 312.7,815.4 297.8,807.2 284.5,799.7 272.6,792.7 261.8,786.2 252.1,780.2 243.3,774.5 235.4,769.2 228.1,764.1 221.5,759.3 215.5,754.7 210.0,750.3 204.9,746.1 200.3,742.1 196.1,738.2 192.2,734.5 188.6,730.9 185.4,727.4 182.4,724.0 179.6,720.6 177.1,717.4 174.8,714.3 172.7,711.2 170.7,708.2 168.9,705.3 167.3,702.4 165.8,699.5 164.4,696.7 163.1,694.0 161.9,691.3 160.9,688.6 159.9,686.0 159.0,683.4 158.2,680.8 157.4,678.3 156.7,675.7 156.1,673.3 155.5,670.8 155.0,668.3 154.6,665.9 154.1,663.5 153.7,661.1 153.4,658.7 153.1,656.3 152.8,654.0 152.6,651.7 152.3,649.3 152.2,647.0 152.0,644.7 151.8,642.4 151.7,640.1 151.6,637.8 151.5,635.6 151.5,633.3 151.4,631.1 151.4,628.8 151.3,626.6 151.3,624.3 151.3,622.1 151.3,619.9 151.4,617.7 151.4,615.5 151.4,613.3 151.5,611.1 151.5,608.9 151.6,606.7 151.7,604.5 151.7,602.3 151.8,600.2 151.9,598.0 152.0,595.8 152.1,593.7 152.2,591.5 152.3,589.4 152.5,587.2 152.6,585.1 152.7,582.9 152.8,580.8 153.0,578.7 153.1,576.5 153.2,574.4 153.4,572.3 153.5,570.2 153.7,568.1 153.8,566.0 154.0,563.9 154.1,561.7 154.3,559.7 154.5,557.6 154.6,555.5 154.8,553.4 155.0,551.3 155.1,549.2 155.3,547.1 155.5,545.1 155.7,543.0 155.9,540.9 156.0,538.9 156.2,536.8 156.4,534.8 156.6,532.7 156.8,530.7 157.0,528.6 157.2,526.6 157.4,524.5 157.6,522.5 157.8,520.5 158.0,518.5 158.2,516.4 158.4,514.4 158.7,512.4 158.9,510.4 159.1,508.4 159.3,506.4 159.5,504.4 159.8,502.4 160.0,500.4 160.2,498.4 160.4,496.5 160.7,494.5 160.9,492.5 161.1,490.5 161.4,488.6 161.6,486.6 161.9,484.7 162.1,482.7 162.4,480.8 162.6,478.9 162.9,476.9 163.1,475.0 163.4,473.1 163.7,471.2 163.9,469.2 164.2,467.3 164.5,465.4 164.7,463.5 165.0,461.6 165.3,459.8 165.6,457.9 165.9,456.0 166.1,454.1 166.4,452.3 166.7,450.4 167.0,448.5 167.3,446.7 167.6,444.9 167.9,443.0 168.3,441.2 168.6,439.4 168.9,437.6 169.2,435.7 169.5,433.9 169.9,432.1 170.2,430.3 170.5,428.6 170.9,426.8 171.2,425.0 171.6,423.2 171.9,421.5 172.3,419.7 172.6,418.0 173.0,416.3 173.4,414.5 173.8,412.8 174.1,411.1 174.5,409.4 174.9,407.7 175.3,406.0 175.7,404.3 176.1,402.6 176.5,401.0 176.9,399.3 177.4,397.7 177.8,396.0 178.2,394.4 178.7,392.8 179.1,391.2 179.6,389.6 180.0,388.0 180.5,386.4 181.0,384.8 181.5,383.3 181.9,381.7 182.4,380.2 182.9,378.7 183.4,377.1 184.0,375.6 184.5,374.1 185.0,372.7 185.6,371.2 186.1,369.7 186.7,368.3 187.3,366.8 187.8,365.4 188.4,364.0 189.0,362.6 189.7,361.2 190.3,359.9 190.9,358.5 191.6,357.2 192.2,355.9 192.9,354.6 193.6,353.3 194.3,352.0 195.0,350.8 195.7,349.5 196.4,348.3 197.2,347.1 198.0,345.9 198.8,344.7 199.6,343.6 200.4,342.5 201.2,341.4 202.1,340.3 202.9,339.2 203.8,338.2 204.7,337.2 205.7,336.2 206.6,335.2 207.6,334.3 208.6,333.4 209.7,332.5 210.7,331.6 211.8,330.8 212.9,330.0 214.0,329.2 215.2,328.5 216.4,327.8 217.7,327.1 218.9,326.5 220.2,325.9 221.6,325.3 222.9,324.8 224.4,324.3 225.8,323.9 227.4,323.5 228.9,323.2 230.5,322.9 232.2,322.6 233.9,322.4 235.7,322.3 237.5,322.2 239.4,322.2 241.4,322.3 243.4,322.4 245.5,322.6 247.7,322.8 250.0,323.1 252.4,323.5 254.9,324.0 257.4,324.6 260.1,325.3 262.9,326.1 265.8,326.9 268.8,327.9 272.0,329.0 275.3,330.3 278.8,331.6 282.5,333.1 286.3,334.7 290.3,336.5 294.5,338.5 298.9,340.6 303.6,343.0 308.5,345.5 313.7,348.2 319.1,351.2 324.9,354.4 331.0,357.8 337.4,361.6 344.2,365.6 351.5,369.9 359.1,374.6 367.2,379.6 375.7,385.0 384.8,390.7 394.4,396.9 404.5,403.5 415.2,410.6 426.5,418.1 438.4,426.1 450.8,434.6 463.8,443.5 477.3,452.9 491.2,462.7 505.6,473.0 520.2,483.5 535.0,494.4 549.8,505.4 564.4,516.6 578.6,527.8 592.3,538.8 605.2,549.6 617.1,560.0 627.9,570.0 637.4,579.4 645.5,588.2 652.1,596.3 657.3,603.7 661.0,610.3 663.2,616.2 664.0,621.4 663.6,625.9 662.0,629.7 659.4,632.9 655.8,635.6 651.4,637.8 646.2,639.5 640.5,640.8 634.2,641.8 627.4,642.4 620.3,642.7 612.8,642.7 605.2,642.5 597.3,642.1 589.3,641.6 581.2,640.8 573.0,639.9 564.7,638.9 556.5,637.7 548.2,636.4 540.0,635.1 531.8,633.6 523.7,632.1 515.6,630.5 507.6,628.8 499.7,627.1 491.9,625.3 484.2,623.4 476.6,621.5 469.1,619.6 461.7,617.6 454.4,615.6 447.2,613.6 440.2,611.5 433.3,609.4 426.5,607.2 419.8,605.1 413.2,602.9 406.8,600.7 400.5,598.4 394.3,596.2 388.2,593.9 382.3,591.7 376.4,589.4 370.7,587.1 365.2,584.8 359.7,582.4 354.4,580.1 349.2,577.8 344.1,575.4 339.1,573.1 334.2,570.7 329.4,568.4 324.8,566.0 320.3,563.6 315.9,561.3 311.6,558.9 307.4,556.6 303.3,554.2 299.3,551.9 295.4,549.5 291.6,547.2 288.0,544.8 284.4,542.5 280.9,540.2 277.5,537.9 274.3,535.5 271.1,533.2 268.0,530.9 265.0,528.6 262.1,526.4 259.3,524.1 256.5,521.8 253.9,519.6 251.3,517.3 248.8,515.1 246.4,512.9 244.1,510.7 241.9,508.5 239.7,506.3 237.6,504.1 235.6,502.0 233.7,499.8 231.8,497.7 230.0,495.5 228.2,493.4 226.5,491.3 224.9,489.2 223.4,487.1 221.9,485.1 220.4,483.0 219.0,480.9 217.7,478.9 216.4,476.9 215.2,474.9 214.0,472.9 212.9,470.9 211.9,468.9 210.8,466.9 209.9,465.0 208.9,463.0 208.0,461.1 207.2,459.2 206.4,457.3 205.6,455.4 204.9,453.5 204.2,451.6 203.5,449.7 202.9,447.9 202.4,446.0 201.8,444.2 201.3,442.4 200.8,440.6 200.4,438.8 199.9,437.0 199.5,435.2 199.2,433.4 198.8,431.7 198.5,429.9 198.3,428.2 198.0,426.4 197.8,424.7 197.6,423.0 197.4,421.3 197.2,419.6 197.1,417.9 197.0,416.3 196.9,414.6 196.8,413.0 196.8,411.3 196.7,409.7 196.7,408.1 196.8,406.5 196.8,404.9 196.8,403.3 196.9,401.7 197.0,400.2 197.1,398.6 197.2,397.1 197.4,395.6 197.5,394.1 197.7,392.6 197.9,391.1 198.1,389.6 198.4,388.1 198.6,386.7 198.9,385.2 199.2,383.8 199.5,382.4 199.8,381.0 200.1,379.6 200.5,378.2 200.8,376.9 201.2,375.5 201.6,374.2 202.0,372.9 202.5,371.6 202.9,370.3 203.4,369.0 203.9,367.8 204.4,366.5 204.9,365.3 205.4,364.1 206.0,362.9 206.6,361.7 207.2,360.6 207.8,359.5 208.4,358.4 209.1,357.3 209.8,356.2 210.5,355.1 211.2,354.1 211.9,353.1 212.7,352.1 213.5,351.1 214.3,350.2 215.1,349.3 216.0,348.4 216.8,347.5 217.8,346.7 218.7,345.9 219.7,345.1 220.7,344.3 221.7,343.6 222.7,342.9 223.8,342.2 225.0,341.6 226.1,341.0 227.3,340.5 228.5,339.9 229.8,339.4 231.1,339.0 232.5,338.6 233.9,338.2 235.3,337.9 236.8,337.6 238.3,337.4 239.9,337.2 241.6,337.1 243.3,337.0 245.0,337.0 246.9,337.1 248.8,337.2 250.7,337.3 252.8,337.6 254.9,337.9 257.1,338.3 259.4,338.7 261.7,339.3 264.2,339.9 266.8,340.6 269.4,341.4 272.2,342.3 275.1,343.3 278.2,344.4 281.3,345.6 284.6,346.9 288.1,348.4 291.7,350.0 295.5,351.8 299.4,353.6 303.6,355.7 307.9,357.9 312.5,360.3 317.3,362.9 322.3,365.7 327.6,368.7 333.2,371.9 339.0,375.3 345.2,379.0 351.7,382.9 358.5,387.2 365.7,391.7 373.3,396.5 381.2,401.6 389.6,407.1 398.3,412.9 407.5,419.0 417.2,425.5 427.2,432.4 437.7,439.6 448.5,447.2 459.8,455.2 471.4,463.5 483.2,472.1 495.3,481.0 507.5,490.1 519.8,499.4 531.9,508.8 543.9,518.3 555.6,527.7 566.7,537.1 577.3,546.3 587.1,555.2 596.1,563.8 604.1,571.9 611.0,579.6 616.9,586.8 621.6,593.5 625.1,599.6 627.5,605.1 628.9,610.0 629.1,614.4 628.4,618.2 626.8,621.5 624.3,624.4 621.0,626.8 617.1,628.8 612.6,630.4 607.5,631.6 602.0,632.5 596.1,633.2 589.8,633.5 583.3,633.6 576.5,633.5 569.5,633.2 562.4,632.8 555.2,632.1 547.8,631.4 540.4,630.4 533.0,629.4 525.5,628.3 518.1,627.0 510.7,625.7 503.3,624.3 495.9,622.8 488.6,621.2 481.3,619.6 474.1,617.9 467.0,616.1 460.0,614.3 453.1,612.5 446.2,610.6 439.5,608.6 432.8,606.7 426.3,604.7 419.8,602.6 413.5,600.6 407.3,598.5 401.2,596.3 395.1,594.2 389.2,592.0 383.4,589.9 377.8,587.7 372.2,585.5 366.7,583.2 361.4,581.0 356.1,578.7 351.0,576.5 346.0,574.2 341.1,571.9 336.3,569.6 331.6,567.3 327.0,565.0 322.5,562.7 318.2,560.4 313.9,558.1 309.7,555.8 305.7,553.5 301.7,551.2 297.8,548.9 294.1,546.6 290.4,544.3 286.9,542.0 283.4,539.7 280.0,537.4 276.7,535.1 273.6,532.9 270.5,530.6 267.5,528.3 264.5,526.1 261.7,523.8 259.0,521.6 256.3,519.4 253.7,517.2 251.2,514.9 248.8,512.7 246.5,510.6 244.2,508.4 242.0,506.2 239.9,504.0 237.8,501.9 235.9,499.8 234.0,497.6 232.1,495.5 230.3,493.4 228.6,491.3 227.0,489.2 225.4,487.2 223.9,485.1 222.4,483.1 221.0,481.0 219.6,479.0 218.3,477.0 217.1,475.0 215.9,473.0 214.7,471.0 213.6,469.0 212.6,467.1 211.6,465.1 210.6,463.2 209.7,461.3 208.8,459.3 208.0,457.4 207.2,455.6 206.4,453.7 205.7,451.8 205.0,449.9 204.4,448.1 203.8,446.2 203.2,444.4 202.7,442.6 202.2,440.8 201.7,439.0 201.3,437.2 200.8,435.4 200.5,433.7 200.1,431.9 199.8,430.2 199.5,428.4 199.2,426.7 198.9,425.0 198.7,423.3 198.5,421.6 198.3,419.9 198.2,418.2 198.1,416.6 198.0,414.9 197.9,413.3 197.8,411.6 197.8,410.0 197.7,408.4 197.7,406.8 197.8,405.2 197.8,403.7 197.9,402.1 197.9,400.5 198.0,399.0 198.1,397.5 198.3,395.9 198.4,394.4 198.6,392.9 198.8,391.5 199.0,390.0 199.2,388.5 199.4,387.1 199.7,385.6 200.0,384.2 200.3,382.8 200.6,381.4 200.9,380.0 201.2,378.7 201.6,377.3 202.0,376.0 202.4,374.7 202.8,373.3 203.2,372.1 203.6,370.8 204.1,369.5 204.6,368.3 205.1,367.0 205.6,365.8 206.1,364.6 206.7,363.4 207.3,362.3 207.9,361.1 208.5,360.0 209.1,358.9 209.7,357.8 210.4,356.7 211.1,355.7 211.8,354.7 212.6,353.7 213.3,352.7 214.1,351.7 214.9,350.8 215.7,349.9 216.6,349.0 217.5,348.1 218.4,347.3 219.3,346.5 220.3,345.7 221.3,345.0 222.3,344.3 223.4,343.6 224.5,342.9 225.6,342.3 226.7,341.7 227.9,341.2 229.2,340.6 230.4,340.2 231.8,339.7 233.1,339.3 234.5,339.0 236.0,338.7 237.4,338.4 239.0,338.2 240.6,338.0 242.2,337.9 243.9,337.9 245.7,337.9 247.5,337.9 249.4,338.0 251.4,338.2 253.5,338.5 255.6,338.8 257.8,339.2 260.1,339.6 262.4,340.2 264.9,340.8 267.5,341.5 270.2,342.3 273.0,343.2 275.9,344.3 278.9,345.4 282.1,346.6 285.4,348.0 288.8,349.5 292.5,351.1 296.3,352.8 300.2,354.7 304.4,356.8 308.7,359.0 313.3,361.5 318.1,364.0 323.2,366.8 328.5,369.8 334.0,373.1 339.9,376.5 346.1,380.2 352.6,384.2 359.4,388.4 366.6,392.9 374.1,397.8 382.1,402.9 390.4,408.4 399.2,414.2 408.3,420.3 417.9,426.8 427.9,433.7 438.3,440.9 449.1,448.5 460.3,456.4 471.8,464.6 483.6,473.2 495.5,482.0 507.6,491.1 519.8,500.3 531.8,509.6 543.6,519.0 555.1,528.4 566.1,537.6 576.5,546.7 586.1,555.5 594.9,564.0 602.8,572.1 609.6,579.7 615.3,586.8 619.9,593.3 623.3,599.4 625.7,604.8 626.9,609.7 627.2,614.0 626.4,617.8 624.8,621.1 622.3,623.9 619.0,626.3 615.1,628.3 610.6,629.8 605.6,631.1 600.1,632.0 594.2,632.6 588.0,633.0 581.5,633.1 574.8,633.0 567.9,632.7 560.8,632.2 553.6,631.6 546.3,630.8 539.0,629.9 531.6,628.9 524.2,627.8 516.8,626.5 509.4,625.2 502.0,623.8 494.7,622.3 487.4,620.7 480.2,619.1 473.1,617.4 466.0,615.7 459.0,613.9 452.1,612.0 445.3,610.1 438.6,608.2 432.0,606.2 425.4,604.2 419.0,602.2 412.7,600.1 406.5,598.0 400.4,595.9 394.4,593.8 388.5,591.6 382.8,589.5 377.1,587.3 371.6,585.1 366.1,582.8 360.8,580.6 355.6,578.3 350.5,576.1 345.5,573.8 340.6,571.5 335.8,569.3 331.1,567.0 326.6,564.7 322.1,562.4 317.7,560.1 313.5,557.8 309.3,555.5 305.3,553.2 301.4,550.9 297.5,548.6 293.8,546.3 290.1,544.0 286.6,541.7 283.1,539.4 279.8,537.1 276.5,534.8 273.3,532.5 270.2,530.3 267.2,528.0 264.3,525.8 261.5,523.5 258.8,521.3 256.1,519.1 253.6,516.9 251.1,514.7 248.6,512.5 246.3,510.3 244.1,508.1 241.9,505.9 239.8,503.8 237.7,501.6 235.8,499.5 233.9,497.4 232.0,495.2 230.3,493.1 228.5,491.1 226.9,489.0 225.3,486.9 223.8,484.8 222.3,482.8 220.9,480.8 219.6,478.7 218.3,476.7 217.0,474.7 215.8,472.7 214.7,470.8 213.6,468.8 212.6,466.8 211.6,464.9 210.6,463.0 209.7,461.0 208.8,459.1 208.0,457.2 207.2,455.3 206.4,453.4 205.7,451.6 205.1,449.7 204.4,447.9 203.8,446.0 203.2,444.2 202.7,442.4 202.2,440.6 201.7,438.8 201.3,437.0 200.9,435.2 200.5,433.5 200.1,431.7 199.8,430.0 199.5,428.2 199.2,426.5 199.0,424.8 198.8,423.1 198.6,421.4 198.4,419.7 198.2,418.0 198.1,416.4 198.0,414.7 197.9,413.1 197.9,411.5 197.8,409.8 197.8,408.2 197.8,406.6 197.8,405.1 197.9,403.5 197.9,401.9 198.0,400.4 198.1,398.8 198.2,397.3 198.3,395.8 198.5,394.3 198.7,392.8 198.9,391.3 199.1,389.8 199.3,388.4 199.5,386.9 199.8,385.5 200.1,384.1 200.4,382.7 200.7,381.3 201.0,379.9 201.3,378.5 201.7,377.2 202.1,375.8 202.5,374.5 202.9,373.2 203.3,371.9 203.7,370.6 204.2,369.4 204.7,368.1 205.2,366.9 205.7,365.7 206.3,364.5 206.8,363.3 207.4,362.2 208.0,361.0 208.6,359.9 209.2,358.8 209.9,357.7 210.6,356.6 211.2,355.6 212.0,354.6 212.7,353.6 213.5,352.6 214.3,351.6 215.1,350.7 215.9,349.8 216.8,348.9 217.6,348.1 218.6,347.2 219.5,346.4 220.5,345.7 221.5,344.9 222.5,344.2 223.6,343.5 224.6,342.9 225.8,342.3 226.9,341.7 228.1,341.1 229.4,340.6 230.7,340.2 232.0,339.7 233.3,339.3 234.7,339.0 236.2,338.7" fill="none" stroke="#4ade80" stroke-width="2.6" stroke-opacity="0.72" stroke-linejoin="round" stroke-linecap="round"/>
<polyline points="484.3,831.4 452.3,816.1 424.8,802.9 400.9,791.3 379.9,780.9 361.3,771.5 344.6,763.0 329.5,755.1 315.9,747.9 303.5,741.1 292.2,734.7 281.8,728.7 272.3,723.1 263.6,717.7 255.5,712.6 248.1,707.7 241.3,703.0 234.9,698.6 229.1,694.3 223.7,690.1 218.6,686.1 214.0,682.2 209.6,678.5 205.6,674.9 201.9,671.3 198.5,667.9 195.2,664.5 192.3,661.3 189.5,658.1 186.9,655.0 184.6,651.9 182.3,649.0 180.3,646.0 178.4,643.1 176.6,640.3 175.0,637.5 173.5,634.8 172.1,632.1 170.8,629.4 169.5,626.8 168.4,624.2 167.4,621.7 166.4,619.1 165.6,616.6 164.8,614.2 164.0,611.7 163.3,609.3 162.7,606.9 162.1,604.5 161.6,602.1 161.1,599.8 160.6,597.4 160.2,595.1 159.9,592.8 159.5,590.5 159.2,588.2 159.0,586.0 158.7,583.7 158.5,581.5 158.3,579.2 158.2,577.0 158.0,574.8 157.9,572.6 157.8,570.4 157.7,568.2 157.6,566.1 157.6,563.9 157.5,561.7 157.5,559.6 157.5,557.4 157.5,555.3 157.5,553.2 157.6,551.0 157.6,548.9 157.7,546.8 157.7,544.7 157.8,542.6 157.9,540.5 158.0,538.4 158.0,536.3 158.2,534.2 158.3,532.2 158.4,530.1 158.5,528.0 158.6,526.0 158.8,523.9 158.9,521.9 159.1,519.8 159.2,517.8 159.4,515.8 159.5,513.7 159.7,511.7 159.9,509.7 160.0,507.7 160.2,505.7 160.4,503.7 160.6,501.7 160.8,499.7 161.0,497.7 161.2,495.7 161.4,493.7 161.6,491.8 161.8,489.8 162.0,487.8 162.3,485.9 162.5,483.9 162.7,482.0 162.9,480.0 163.2,478.1 163.4,476.2 163.6,474.2 163.9,472.3 164.1,470.4 164.4,468.5 164.7,466.6 164.9,464.7 165.2,462.8 165.4,460.9 165.7,459.0 166.0,457.1 166.3,455.2 166.5,453.4 166.8,451.5 167.1,449.6 167.4,447.8 167.7,445.9 168.0,444.1 168.3,442.3 168.6,440.4 168.9,438.6 169.2,436.8 169.5,435.0 169.9,433.2 170.2,431.4 170.5,429.6 170.8,427.8 171.2,426.0 171.5,424.3 171.9,422.5 172.2,420.7 172.6,419.0 172.9,417.3 173.3,415.5 173.7,413.8 174.0,412.1 174.4,410.4 174.8,408.7 175.2,407.0 175.6,405.3 176.0,403.6 176.4,401.9 176.8,400.3 177.2,398.6 177.7,397.0 178.1,395.4 178.5,393.7 179.0,392.1 179.4,390.5 179.9,388.9 180.3,387.3 180.8,385.7 181.3,384.2 181.7,382.6 182.2,381.1 182.7,379.5 183.2,378.0 183.8,376.5 184.3,375.0 184.8,373.5 185.3,372.0 185.9,370.6 186.4,369.1 187.0,367.7 187.6,366.3 188.2,364.8 188.8,363.4 189.4,362.1 190.0,360.7 190.6,359.3 191.3,358.0 191.9,356.7 192.6,355.3 193.2,354.0 193.9,352.8 194.6,351.5 195.4,350.3 196.1,349.0 196.8,347.8 197.6,346.6 198.4,345.4 199.2,344.3 200.0,343.2 200.8,342.0 201.6,340.9 202.5,339.9 203.4,338.8 204.3,337.8 205.2,336.8 206.2,335.8 207.1,334.9 208.1,333.9 209.1,333.0 210.2,332.2 211.2,331.3 212.3,330.5 213.5,329.7 214.6,329.0 215.8,328.2 217.0,327.6 218.3,326.9 219.5,326.3 220.9,325.7 222.2,325.2 223.6,324.7 225.1,324.2 226.6,323.8 228.1,323.4 229.7,323.1 231.3,322.8 233.0,322.6 234.7,322.4 236.5,322.3 238.4,322.3 240.3,322.3 242.3,322.4 244.4,322.5 246.6,322.7 248.8,323.0 251.1,323.4 253.5,323.8 256.0,324.4 258.7,325.0 261.4,325.7 264.2,326.5 267.2,327.4 270.3,328.5 273.5,329.6 276.9,330.9 280.5,332.3 284.2,333.9 288.1,335.6 292.2,337.5 296.5,339.5 301.0,341.7 305.8,344.1 310.8,346.8 316.1,349.6 321.7,352.7 327.6,356.0 333.9,359.5 340.5,363.4 347.5,367.6 354.9,372.0 362.7,376.9 371.0,382.0 379.8,387.6 389.1,393.5 398.9,399.9 409.3,406.7 420.2,414.0 431.8,421.7 443.9,429.9 456.5,438.6 469.8,447.7 483.5,457.3 497.6,467.3 512.1,477.7 526.8,488.4 541.5,499.3 556.3,510.4 570.7,521.6 584.7,532.7 598.0,543.7 610.5,554.3 621.9,564.6 632.1,574.3 641.0,583.4 648.5,591.9 654.5,599.7 658.9,606.7 662.0,613.0 663.6,618.6 663.9,623.4 662.9,627.6 660.8,631.2 657.8,634.2 653.8,636.6 649.0,638.6 643.6,640.1 637.6,641.2 631.1,642.0 624.1,642.5 616.9,642.7 609.3,642.6 601.6,642.3 593.6,641.9 585.6,641.2 577.4,640.4 569.2,639.4 561.0,638.3 552.7,637.1 544.5,635.8 536.3,634.4 528.1,632.9 520.0,631.4 512.0,629.7 504.0,628.0 496.2,626.3 488.4,624.4 480.7,622.6 473.2,620.7 465.7,618.7 458.4,616.7 451.1,614.7 444.0,612.6 437.0,610.5 430.2,608.4 423.4,606.2 416.8,604.1 410.3,601.9 403.9,599.7 397.7,597.4 391.5,595.2 385.5,592.9 379.6,590.6 373.9,588.3 368.2,586.0 362.7,583.7 357.3,581.4 352.0,579.0 346.8,576.7 341.8,574.4 336.9,572.0 332.0,569.6 327.3,567.3 322.7,564.9 318.3,562.6 313.9,560.2 309.6,557.9 305.5,555.5 301.5,553.1 297.5,550.8 293.7,548.5 290.0,546.1 286.3,543.8 282.8,541.4 279.4,539.1 276.1,536.8 272.8,534.5 269.7,532.2 266.6,529.9 263.7,527.6 260.8,525.3 258.0,523.1 255.3,520.8 252.7,518.6 250.2,516.3 247.8,514.1 245.4,511.9 243.1,509.7 240.9,507.5 238.8,505.3 236.7,503.1 234.7,501.0 232.8,498.8 231.0,496.7 229.2,494.6 227.5,492.5 225.8,490.4 224.2,488.3 222.7,486.2 221.2,484.1 219.8,482.1 218.4,480.0 217.1,478.0 215.9,476.0 214.7,474.0 213.5,472.0 212.4,470.0 211.4,468.0 210.4,466.1 209.4,464.1 208.5,462.2 207.7,460.2 206.8,458.3 206.0,456.4 205.3,454.5 204.6,452.6 203.9,450.8 203.3,448.9 202.7,447.0 202.1,445.2 201.6,443.4 201.1,441.6 200.6,439.7 200.2,437.9 199.8,436.2 199.4,434.4 199.0,432.6 198.7,430.9 198.4,429.1 198.1,427.4 197.9,425.7 197.7,423.9 197.5,422.2 197.3,420.5 197.2,418.9 197.0,417.2 196.9,415.5 196.9,413.9 196.8,412.2 196.8,410.6 196.7,409.0 196.8,407.4 196.8,405.8 196.8,404.2 196.9,402.6 197.0,401.0 197.1,399.5 197.2,397.9 197.3,396.4 197.5,394.9 197.6,393.4 197.8,391.9 198.0,390.4 198.2,388.9 198.5,387.5 198.7,386.0 199.0,384.6 199.3,383.2 199.6,381.8 199.9,380.4 200.3,379.0 200.6,377.6 201.0,376.3 201.4,374.9 201.8,373.6 202.2,372.3 202.7,371.0 203.1,369.7 203.6,368.5 204.1,367.2 204.6,366.0 205.1,364.8 205.7,363.6 206.3,362.4 206.8,361.2 207.5,360.1 208.1,359.0 208.7,357.9 209.4,356.8 210.1,355.7 210.8,354.7 211.5,353.6 212.3,352.6 213.0,351.7 213.8,350.7 214.6,349.8 215.5,348.9 216.4,348.0 217.3,347.1 218.2,346.3 219.1,345.5 220.1,344.7 221.1,344.0 222.2,343.3 223.2,342.6 224.3,342.0 225.5,341.3 226.6,340.8 227.9,340.2 229.1,339.7 230.4,339.2 231.7,338.8 233.1,338.4 234.5,338.1 236.0,337.8 237.5,337.5 239.1,337.3 240.7,337.2 242.3,337.1 244.1,337.0 245.9,337.0 247.7,337.1 249.7,337.2 251.7,337.4 253.7,337.7 255.9,338.1 258.1,338.5 260.4,339.0 262.8,339.5 265.3,340.2 268.0,340.9 270.7,341.8 273.5,342.7 276.5,343.8 279.6,344.9 282.8,346.2 286.2,347.6 289.7,349.1 293.4,350.8 297.2,352.6 301.3,354.6 305.5,356.7 310.0,359.0 314.6,361.5 319.5,364.1 324.7,367.0 330.1,370.1 335.8,373.4 341.8,376.9 348.1,380.8 354.7,384.8 361.7,389.2 369.1,393.8 376.8,398.8 384.9,404.0 393.5,409.7 402.4,415.6 411.8,421.9 421.7,428.6 431.9,435.6 442.5,443.0 453.6,450.8 465.0,458.9 476.7,467.3 488.7,476.1 500.8,485.1 513.1,494.3 525.3,503.6 537.4,513.1 549.2,522.6 560.7,532.0 571.6,541.3 581.8,550.3 591.3,559.1 599.8,567.5 607.3,575.5 613.8,583.0 619.1,589.9 623.3,596.3 626.4,602.1 628.3,607.4 629.1,612.0 628.9,616.2 627.8,619.8 625.7,622.9 622.9,625.5 619.3,627.7 615.1,629.5 610.3,631.0 605.1,632.1 599.4,632.8 593.3,633.3 586.9,633.6 580.2,633.6 573.4,633.4 566.3,633.1 559.1,632.5 551.9,631.8 544.5,631.0 537.1,630.0 529.6,628.9 522.2,627.7 514.7,626.4 507.3,625.0 499.9,623.6 492.6,622.1 485.3,620.5 478.1,618.8 470.9,617.1 463.8,615.3 456.9,613.5 450.0,611.6 443.2,609.7 436.5,607.7 429.9,605.8 423.4,603.7 417.0,601.7 410.7,599.6 404.5,597.5 398.4,595.4 392.5,593.2 386.6,591.1 380.9,588.9 375.2,586.7 369.7,584.4 364.3,582.2 359.0,580.0 353.8,577.7 348.7,575.4 343.8,573.2 338.9,570.9 334.1,568.6 329.5,566.3 325.0,564.0 320.5,561.7 316.2,559.4 312.0,557.1 307.9,554.8 303.9,552.5 299.9,550.1 296.1,547.8 292.4,545.5 288.8,543.2 285.3,541.0 281.9,538.7 278.5,536.4 275.3,534.1 272.1,531.8 269.1,529.6 266.1,527.3 263.2,525.1 260.5,522.8 257.7,520.6 255.1,518.4 252.6,516.2 250.1,513.9 247.7,511.8 245.4,509.6 243.2,507.4 241.0,505.2 238.9,503.1 236.9,500.9 235.0,498.8 233.1,496.7 231.3,494.6 229.6,492.5 227.9,490.4 226.2,488.3 224.7,486.2 223.2,484.2 221.7,482.1 220.4,480.1 219.0,478.1 217.7,476.1 216.5,474.1 215.3,472.1 214.2,470.1 213.1,468.1 212.1,466.2 211.1,464.2 210.2,462.3 209.3,460.4 208.4,458.5 207.6,456.6 206.8,454.7 206.1,452.8 205.4,451.0 204.7,449.1 204.1,447.3 203.5,445.4 203.0,443.6 202.4,441.8 202.0,440.0 201.5,438.2 201.1,436.4 200.7,434.6 200.3,432.9 199.9,431.1 199.6,429.4 199.3,427.6 199.1,425.9 198.8,424.2 198.6,422.5 198.4,420.8 198.3,419.1 198.1,417.5 198.0,415.8 197.9,414.2 197.8,412.5 197.8,410.9 197.7,409.3 197.7,407.7 197.7,406.1 197.8,404.5 197.8,402.9 197.9,401.4 198.0,399.8 198.1,398.3 198.2,396.8 198.3,395.3 198.5,393.8 198.7,392.3 198.9,390.8 199.1,389.3 199.3,387.9 199.6,386.4 199.8,385.0 200.1,383.6 200.4,382.2 200.7,380.8 201.0,379.4 201.4,378.1 201.8,376.7 202.1,375.4 202.5,374.1 203.0,372.8 203.4,371.5 203.8,370.2 204.3,368.9 204.8,367.7 205.3,366.5 205.8,365.3 206.4,364.1 206.9,362.9 207.5,361.7 208.1,360.6 208.7,359.5 209.4,358.4 210.0,357.3 210.7,356.3 211.4,355.2 212.2,354.2 212.9,353.2 213.7,352.2 214.5,351.3 215.3,350.4 216.1,349.5 217.0,348.6 217.9,347.8 218.8,346.9 219.8,346.1 220.7,345.4 221.8,344.6 222.8,343.9 223.9,343.3 225.0,342.6 226.1,342.0 227.3,341.5 228.5,340.9 229.7,340.4 231.0,340.0 232.4,339.6 233.7,339.2 235.2,338.8 236.6,338.6 238.1,338.3 239.7,338.1 241.3,338.0 243.0,337.9 244.7,337.8 246.5,337.9 248.4,338.0 250.3,338.1 252.3,338.3 254.4,338.6 256.6,338.9 258.8,339.4 261.1,339.9 263.5,340.4 266.1,341.1 268.7,341.9 271.4,342.7 274.3,343.7 277.2,344.8 280.3,345.9 283.6,347.2 286.9,348.6 290.5,350.2 294.2,351.9 298.0,353.7 302.1,355.7 306.3,357.8 310.8,360.1 315.5,362.6 320.4,365.3 325.5,368.2 331.0,371.3 336.7,374.6 342.7,378.2 349.0,382.0 355.6,386.1 362.6,390.4 370.0,395.1 377.7,400.1 385.8,405.3 394.3,410.9 403.3,416.9 412.6,423.2 422.4,429.9 432.6,436.9 443.2,444.3 454.2,452.0 465.5,460.1 477.1,468.5 489.0,477.1 501.0,486.1 513.1,495.2 525.2,504.5 537.2,513.9 548.8,523.3 560.1,532.6 570.9,541.8 580.9,550.7 590.2,559.4 598.6,567.7 606.0,575.6 612.3,583.0 617.5,589.8 621.6,596.1 624.5,601.9 626.4,607.1 627.2,611.7 626.9,615.8 625.8,619.4 623.7,622.4 620.9,625.0 617.4,627.2 613.2,629.0 608.4,630.4 603.2,631.5 597.5,632.3 591.5,632.8 585.1,633.1 578.5,633.1 571.7,632.9 564.7,632.5 557.6,632.0 550.3,631.3 543.0,630.4 535.6,629.5 528.2,628.4 520.8,627.2 513.4,625.9 506.0,624.6 498.7,623.1 491.4,621.6 484.1,620.0 477.0,618.3 469.8,616.6 462.8,614.8 455.9,613.0 449.0,611.2 442.2,609.3 435.6,607.3 429.0,605.3 422.5,603.3 416.2,601.3 409.9,599.2 403.7,597.1 397.7,595.0 391.8,592.8 385.9,590.7 380.2,588.5 374.6,586.3 369.1,584.1 363.7,581.8 358.4,579.6 353.3,577.3 348.2,575.1 343.2,572.8 338.4,570.5 333.7,568.2 329.0,565.9 324.5,563.6 320.1,561.3 315.8,559.0 311.6,556.7 307.5,554.4 303.5,552.1 299.6,549.8 295.8,547.5 292.1,545.2 288.5,542.9 285.0,540.6 281.6,538.3 278.3,536.1 275.0,533.8 271.9,531.5 268.9,529.3 265.9,527.0 263.0,524.8 260.3,522.5 257.6,520.3 254.9,518.1 252.4,515.9 250.0,513.7 247.6,511.5 245.3,509.3 243.1,507.1 240.9,504.9 238.8,502.8 236.8,500.7 234.9,498.5 233.0,496.4 231.2,494.3 229.5,492.2 227.8,490.1 226.2,488.0 224.6,486.0 223.1,483.9 221.7,481.9 220.3,479.8 219.0,477.8 217.7,475.8 216.5,473.8 215.3,471.8 214.2,469.9 213.1,467.9 212.1,466.0 211.1,464.0 210.2,462.1 209.3,460.2 208.4,458.3 207.6,456.4 206.8,454.5 206.1,452.6 205.4,450.7 204.8,448.9 204.1,447.0 203.5,445.2 203.0,443.4 202.5,441.6 202.0,439.8 201.5,438.0 201.1,436.2 200.7,434.4 200.3,432.7 200.0,430.9 199.7,429.2 199.4,427.4 199.1,425.7 198.9,424.0 198.7,422.3 198.5,420.6 198.3,419.0 198.2,417.3 198.1,415.6 198.0,414.0 197.9,412.4 197.8,410.7 197.8,409.1 197.8,407.5 197.8,405.9 197.8,404.3 197.9,402.8 198.0,401.2 198.0,399.7 198.1,398.1 198.3,396.6 198.4,395.1 198.6,393.6 198.8,392.1 199.0,390.6 199.2,389.2 199.4,387.7 199.6,386.3 199.9,384.8 200.2,383.4 200.5,382.0 200.8,380.6 201.1,379.3 201.5,377.9 201.9,376.6 202.2,375.2 202.6,373.9 203.1,372.6 203.5,371.3 204.0,370.1 204.4,368.8 204.9,367.6 205.4,366.4 206.0,365.1 206.5,364.0 207.1,362.8 207.6,361.6 208.3,360.5 208.9,359.4 209.5,358.3 210.2,357.2 210.9,356.2 211.6,355.1 212.3,354.1 213.0,353.1 213.8,352.2 214.6,351.2 215.4,350.3 216.3,349.4 217.2,348.5 218.1,347.7 219.0,346.9 219.9,346.1 220.9,345.3 221.9,344.6 223.0,343.9 224.0,343.2 225.2,342.6 226.3,342.0 227.5,341.4 228.7,340.9 229.9,340.4 231.2,340.0 232.6,339.5 234.0,339.2 235.4,338.9 236.9,338.6 238.4,338.3 240.0,338.1 241.6,338.0 243.3,337.9 245.0,337.9 246.8,337.9 248.7,338.0 250.6,338.2 252.6,338.4 254.7,338.7 256.9,339.0 259.1,339.5" fill="none" stroke="#4ade80" stroke-width="2.6" stroke-opacity="0.72" stroke-linejoin="round" stroke-linecap="round"/>
<polyline points="388.0,517.0 387.9,517.9 387.7,518.8 387.4,519.6 387.1,520.4 386.7,521.1 386.2,521.8 385.6,522.4 385.0,523.0 384.3,523.6 383.5,524.1 382.7,524.6 381.8,525.0 380.8,525.3 379.8,525.6 378.7,525.9 377.5,526.1 376.3,526.3 375.0,526.4 373.7,526.5 372.3,526.5 370.9,526.5 369.4,526.4 367.9,526.3 366.3,526.1 364.7,526.0 363.1,525.7 361.4,525.4 359.7,525.1 358.0,524.8 356.2,524.3 354.4,523.9 352.6,523.4 350.7,522.9 348.9,522.4 347.0,521.8 345.1,521.2 343.2,520.5 341.2,519.8 339.3,519.1 337.4,518.4 335.4,517.6 333.5,516.8 331.5,516.0 329.6,515.1 327.6,514.2 325.7,513.3 323.7,512.4 321.8,511.4 319.8,510.4 317.9,509.4 316.0,508.4 314.1,507.4 312.2,506.3 310.3,505.2 308.4,504.1 306.6,503.0 304.7,501.9 302.9,500.7 301.1,499.6 299.3,498.4 297.5,497.2 295.8,496.0 294.1,494.8 292.4,493.5 290.7,492.3 289.0,491.0 287.4,489.8 285.8,488.5 284.2,487.2 282.6,485.9 281.1,484.6 279.5,483.3 278.0,482.0 276.6,480.7 275.1,479.4 273.7,478.1 272.3,476.8 271.0,475.4 269.7,474.1 268.4,472.7 267.1,471.4 265.8,470.1 264.6,468.7 263.4,467.4 262.2,466.0 261.1,464.7 260.0,463.3 258.9,462.0 257.8,460.6 256.8,459.3 255.8,457.9 254.8,456.6 253.9,455.2 253.0,453.9 252.1,452.6 251.2,451.2 250.4,449.9 249.6,448.6 248.8,447.2 248.0,445.9 247.3,444.6 246.6,443.3 245.9,442.0 245.2,440.7 244.6,439.4 244.0,438.1 243.4,436.8 242.9,435.5 242.4,434.2 241.9,432.9 241.4,431.7 240.9,430.4 240.5,429.2 240.1,427.9 239.7,426.7 239.4,425.5 239.0,424.3 238.7,423.1 238.4,421.9 238.2,420.7 237.9,419.5 237.7,418.3 237.5,417.2 237.4,416.0 237.2,414.9 237.1,413.7 237.0,412.6 236.9,411.5 236.9,410.4 236.8,409.3 236.8,408.3 236.8,407.2 236.9,406.1 236.9,405.1 237.0,404.1 237.1,403.1 237.3,402.1 237.4,401.1 237.6,400.2 237.8,399.2 238.0,398.3 238.3,397.4 238.5,396.5 238.8,395.6 239.2,394.7 239.5,393.9 239.9,393.0 240.3,392.2 240.7,391.4 241.1,390.6 241.6,389.9 242.1,389.2 242.6,388.4 243.2,387.8 243.7,387.1 244.3,386.4 245.0,385.8 245.6,385.2 246.3,384.7 247.0,384.1 247.8,383.6 248.6,383.1 249.4,382.6 250.2,382.2 251.1,381.8 252.0,381.4 253.0,381.1 254.0,380.8 255.0,380.5 256.0,380.2 257.1,380.0 258.3,379.8 259.4,379.7 260.7,379.6 261.9,379.6 263.2,379.6 264.6,379.6 266.0,379.7 267.5,379.8 269.0,380.0 270.5,380.2 272.1,380.4 273.8,380.8 275.5,381.1 277.3,381.6 279.2,382.1 281.1,382.6 283.1,383.3 285.2,383.9 287.3,384.7 289.5,385.5 291.8,386.4 294.2,387.4 296.6,388.4 299.2,389.6 301.8,390.8 304.5,392.1 307.4,393.5 310.3,395.0 313.4,396.6 316.5,398.3 319.8,400.1 323.2,402.0 326.7,404.0 330.3,406.1 334.1,408.4 338.0,410.8 342.0,413.3 346.2,415.9 350.6,418.7 355.0,421.7 359.7,424.7 364.4,427.9 369.4,431.3 374.4,434.8 379.7,438.4 385.0,442.2 390.6,446.2 396.2,450.3 402.0,454.6 407.9,459.0 414.0,463.5 420.1,468.2 426.3,473.0 432.5,477.9 438.8,483.0 445.2,488.1 451.5,493.3 457.7,498.5 463.9,503.8 470.0,509.2 475.9,514.5 481.7,519.8 487.2,525.1 492.5,530.3 497.5,535.4 502.2,540.4 506.5,545.3 510.4,550.1 513.9,554.6 517.0,559.0 519.6,563.2 521.8,567.1 523.5,570.8 524.8,574.3 525.6,577.6 525.9,580.6 525.7,583.3 525.2,585.9 524.2,588.2 522.8,590.2 521.0,592.0 518.9,593.6 516.4,595.0 513.6,596.2 510.5,597.2 507.2,598.0 503.6,598.6 499.7,599.1 495.7,599.3 491.5,599.5 487.2,599.5 482.7,599.3 478.0,599.0 473.3,598.6 468.5,598.1 463.6,597.5 458.6,596.8 453.6,596.0 448.6,595.1 443.5,594.1 438.4,593.0 433.3,591.9 428.2,590.7 423.1,589.4 418.0,588.1 412.9,586.7 407.9,585.2 402.9,583.7 397.9,582.2 393.0,580.6 388.1,579.0 383.3,577.3 378.5,575.6 373.8,573.9 369.2,572.1 364.6,570.3 360.0,568.5 355.6,566.6 351.2,564.8 346.8,562.9 342.6,561.0 338.4,559.0 334.3,557.1 330.2,555.1 326.2,553.1 322.4,551.1 318.5,549.1 314.8,547.1 311.1,545.1 307.5,543.0 304.0,541.0 300.5,539.0 297.2,536.9 293.9,534.8 290.7,532.8 287.5,530.7 284.4,528.7 281.4,526.6 278.5,524.5 275.7,522.5 272.9,520.4 270.2,518.3 267.5,516.3 265.0,514.2 262.5,512.1 260.1,510.1 257.7,508.0 255.4,506.0 253.2,504.0 251.0,501.9 248.9,499.9 246.9,497.9 244.9,495.9 243.0,493.9 241.1,491.9 239.3,489.9 237.6,487.9 235.9,485.9 234.3,483.9 232.7,482.0 231.2,480.0 229.8,478.1 228.4,476.2 227.0,474.2 225.7,472.3 224.4,470.4 223.2,468.5 222.1,466.6 220.9,464.7 219.9,462.9 218.8,461.0 217.8,459.1 216.9,457.3 216.0,455.5 215.1,453.6 214.3,451.8 213.5,450.0 212.7,448.2 212.0,446.4 211.3,444.6 210.7,442.9 210.1,441.1 209.5,439.4 209.0,437.6 208.4,435.9 208.0,434.2 207.5,432.5 207.1,430.8 206.7,429.1 206.3,427.4 206.0,425.7 205.6,424.1 205.4,422.4 205.1,420.8 204.9,419.2 204.6,417.5 204.5,415.9 204.3,414.3 204.2,412.8 204.0,411.2 203.9,409.6 203.9,408.1 203.8,406.5 203.8,405.0 203.8,403.5 203.8,402.0 203.8,400.5 203.9,399.0 203.9,397.5 204.0,396.0 204.2,394.6 204.3,393.2 204.4,391.7 204.6,390.3 204.8,388.9 205.0,387.5 205.2,386.2 205.5,384.8 205.7,383.4 206.0,382.1 206.3,380.8 206.7,379.5 207.0,378.2 207.4,376.9 207.7,375.7 208.1,374.4 208.6,373.2 209.0,372.0 209.4,370.8 209.9,369.6 210.4,368.4 210.9,367.3 211.5,366.2 212.0,365.1 212.6,364.0 213.2,362.9 213.8,361.9 214.5,360.8 215.1,359.8 215.8,358.8 216.5,357.9 217.2,356.9 218.0,356.0 218.8,355.1 219.6,354.2 220.4,353.4 221.3,352.6 222.2,351.8 223.1,351.0 224.1,350.3 225.0,349.6 226.0,348.9 227.1,348.3 228.2,347.7 229.3,347.1 230.4,346.5 231.6,346.0 232.8,345.6 234.1,345.1 235.4,344.7 236.7,344.4 238.1,344.1 239.6,343.8 241.1,343.6 242.6,343.4 244.2,343.3 245.8,343.2 247.5,343.2 249.3,343.3 251.1,343.4 253.0,343.5 255.0,343.8 257.0,344.1 259.2,344.4 261.4,344.9 263.6,345.4 266.0,346.0 268.5,346.6 271.1,347.4 273.7,348.3 276.5,349.2 279.4,350.3 282.5,351.5 285.6,352.7 288.9,354.1 292.4,355.7 296.0,357.3 299.7,359.1 303.7,361.1 307.8,363.1 312.1,365.4 316.7,367.8 321.4,370.4 326.4,373.3 331.6,376.3 337.1,379.5 342.9,382.9 348.9,386.6 355.3,390.5 361.9,394.7 368.9,399.1 376.3,403.9 383.9,408.9 392.0,414.2 400.4,419.9 409.2,425.8 418.4,432.1 427.9,438.7 437.8,445.7 448.1,452.9 458.6,460.5 469.4,468.3 480.4,476.4 491.6,484.8 502.9,493.3 514.1,502.0 525.2,510.8 536.2,519.6 546.8,528.4 556.9,537.1 566.5,545.6 575.4,553.9 583.6,561.8 590.9,569.5 597.2,576.7 602.6,583.4 607.0,589.7 610.3,595.5 612.7,600.7 614.0,605.5 614.4,609.7 613.9,613.5 612.5,616.7 610.4,619.6 607.5,622.0 604.0,624.0 599.9,625.7 595.3,627.0 590.3,628.0 584.8,628.7 579.0,629.2 572.9,629.4 566.6,629.5 560.1,629.3 553.4,628.9 546.6,628.4 539.6,627.7 532.6,626.9 525.5,625.9 518.4,624.9 511.3,623.7 504.2,622.5 497.1,621.1 490.0,619.7 483.0,618.2 476.0,616.6 469.1,615.0 462.2,613.3 455.5,611.6 448.7,609.8 442.1,608.0 435.6,606.1 429.1,604.2 422.8,602.2 416.5,600.2 410.3,598.2 404.2,596.2 398.3,594.1 392.4,592.0 386.7,589.9 381.0,587.8 375.4,585.6 370.0,583.4 364.7,581.2 359.4,579.0 354.3,576.8 349.3,574.6 344.4,572.3 339.6,570.1 334.8,567.8 330.2,565.6 325.7,563.3 321.3,561.0 317.1,558.7 312.9,556.5 308.8,554.2 304.8,551.9 300.9,549.6 297.1,547.3 293.4,545.1 289.8,542.8 286.3,540.5 282.9,538.2 279.6,536.0 276.3,533.7 273.2,531.5 270.1,529.2 267.2,527.0 264.3,524.7 261.5,522.5 258.8,520.3 256.2,518.1 253.6,515.9 251.2,513.7 248.8,511.5 246.5,509.3 244.2,507.2 242.1,505.0 240.0,502.9 238.0,500.7 236.0,498.6 234.1,496.5 232.3,494.4 230.5,492.3 228.8,490.2 227.2,488.2 225.6,486.1 224.1,484.1 222.7,482.0 221.3,480.0 219.9,478.0 218.6,476.0 217.4,474.0 216.2,472.0 215.1,470.0 214.0,468.1 213.0,466.1 212.0,464.2 211.0,462.3 210.1,460.3 209.2,458.4 208.4,456.5 207.6,454.7 206.9,452.8 206.2,450.9 205.5,449.1 204.8,447.2 204.2,445.4 203.7,443.6 203.1,441.8 202.6,440.0 202.2,438.2 201.7,436.4 201.3,434.6 200.9,432.9 200.6,431.1 200.3,429.4 200.0,427.7 199.7,425.9 199.4,424.2 199.2,422.5 199.0,420.9 198.9,419.2 198.7,417.5 198.6,415.9 198.5,414.2 198.4,412.6 198.3,411.0 198.3,409.4 198.3,407.8 198.3,406.2 198.3,404.6 198.3,403.0 198.4,401.5 198.5,399.9 198.6,398.4 198.7,396.9 198.8,395.4 199.0,393.9 199.2,392.4 199.3,390.9 199.5,389.4 199.8,388.0 200.0,386.5 200.3,385.1 200.6,383.7 200.8,382.3 201.2,380.9 201.5,379.6 201.8,378.2 202.2,376.9 202.6,375.5 203.0,374.2 203.4,372.9 203.8,371.6 204.3,370.4 204.7,369.1 205.2,367.9 205.7,366.7 206.3,365.5 206.8,364.3 207.4,363.1 207.9,362.0 208.5,360.8 209.2,359.7 209.8,358.6 210.5,357.5 211.1,356.5 211.8,355.5 212.6,354.4 213.3,353.5 214.1,352.5 214.9,351.6 215.7,350.6 216.5,349.7 217.4,348.9 218.3,348.0 219.2,347.2 220.2,346.4 221.2,345.7 222.2,345.0 223.2,344.3 224.3,343.6 225.4,343.0 226.5,342.4 227.7,341.8 228.9,341.3 230.2,340.8 231.5,340.3 232.8,339.9 234.2,339.6 235.6,339.2 237.1,339.0 238.6,338.7 240.2,338.5 241.8,338.4 243.5,338.3 245.2,338.3 247.0,338.3 248.9,338.4 250.8,338.6 252.9,338.8 254.9,339.1 257.1,339.5 259.4,339.9 261.7,340.4 264.1,341.0 266.6,341.7 269.3,342.5 272.0,343.3 274.9,344.3 277.9,345.4 281.0,346.6 284.2,347.9 287.6,349.3 291.2,350.9 294.9,352.6 298.8,354.4 302.8,356.4 307.1,358.6 311.6,360.9 316.3,363.4 321.2,366.1 326.4,369.0 331.8,372.2 337.6,375.5 343.6,379.1 349.9,383.0 356.6,387.1 363.6,391.5 371.0,396.1 378.7,401.1 386.9,406.4 395.4,412.1 404.4,418.1 413.8,424.4 423.5,431.1 433.7,438.1 444.3,445.5 455.3,453.3 466.6,461.3 478.2,469.7 490.0,478.4 502.0,487.3 514.0,496.4 526.1,505.7 537.9,515.0 549.5,524.3 560.6,533.6 571.2,542.7 581.1,551.6 590.3,560.2 598.5,568.4 605.7,576.2 611.9,583.5 616.9,590.3 620.9,596.5 623.7,602.2 625.4,607.3 626.1,611.8 625.8,615.9 624.6,619.4 622.5,622.4 619.6,625.0 616.0,627.1 611.8,628.8 607.0,630.2 601.7,631.3 596.1,632.1 590.0,632.5 583.7,632.8 577.1,632.8 570.3,632.6 563.3,632.2 556.2,631.6 548.9,630.9 541.7,630.1 534.3,629.1 526.9,628.0 519.5,626.8 512.2,625.6 504.8,624.2 497.5,622.7 490.2,621.2 483.0,619.6 475.8,617.9 468.7,616.2 461.7,614.5 454.8,612.6 448.0,610.8 441.2,608.9 434.6,606.9 428.0,604.9 421.6,602.9 415.2,600.9 409.0,598.8 402.9,596.7 396.8,594.6 390.9,592.4 385.1,590.3 379.4,588.1 373.8,585.9 368.4,583.7 363.0,581.4 357.7,579.2 352.6,576.9 347.5,574.7 342.6,572.4 337.8,570.1 333.1,567.8 328.5,565.6 324.0,563.3 319.6,561.0 315.3,558.7 311.1,556.4 307.0,554.1 303.0,551.8 299.1,549.5 295.3,547.2 291.7,544.9 288.1,542.6 284.6,540.3 281.2,538.0 277.9,535.7 274.7,533.4 271.6,531.2 268.5,528.9 265.6,526.7 262.7,524.4 260.0,522.2 257.3,520.0 254.7,517.7 252.1,515.5 249.7,513.3 247.3,511.1 245.0,509.0 242.8,506.8 240.7,504.6 238.6,502.5 236.6,500.3 234.7,498.2 232.8,496.1 231.0,494.0 229.3,491.9 227.6,489.8 226.0,487.7 224.5,485.7 223.0,483.6 221.6,481.6 220.2,479.6 218.9,477.5 217.6,475.5 216.4,473.5 215.2,471.6 214.1,469.6 213.0,467.6 212.0,465.7 211.0,463.7 210.1,461.8 209.2,459.9 208.4,458.0 207.6,456.1 206.8,454.2 206.1,452.3 205.4,450.5 204.7,448.6 204.1,446.8 203.5,444.9 203.0,443.1 202.4,441.3 202.0,439.5 201.5,437.7 201.1,435.9 200.7,434.2 200.3,432.4 200.0,430.7 199.7,428.9 199.4,427.2 199.1,425.5 198.9,423.8 198.7,422.1 198.5,420.4 198.3,418.7 198.2,417.1 198.1,415.4 198.0,413.8 197.9,412.1 197.9,410.5 197.8,408.9 197.8,407.3 197.9,405.7 197.9,404.1 197.9,402.6 198.0,401.0 198.1,399.5 198.2,397.9 198.3,396.4 198.5,394.9 198.6,393.4 198.8,391.9 199.0,390.4 199.2,389.0 199.5,387.5 199.7,386.1 200.0,384.7 200.3,383.2 200.6,381.8 200.9,380.5 201.2,379.1 201.6,377.7 201.9,376.4 202.3,375.1 202.7,373.8 203.2,372.5 203.6,371.2 204.1,369.9 204.5,368.7 205.0,367.4 205.5,366.2 206.1,365.0 206.6,363.8 207.2,362.6 207.8,361.5 208.4,360.4 209.0,359.3 209.6,358.2 210.3,357.1 211.0,356.0 211.7,355.0 212.4,354.0 213.2,353.0 214.0,352.0 214.8,351.1 215.6,350.2 216.4,349.3 217.3,348.4 218.2,347.6 219.1,346.8 220.1,346.0 221.1,345.2 222.1,344.5 223.1,343.8 224.2,343.2 225.3,342.5 226.5,341.9 227.7,341.4 228.9,340.9 230.2,340.4 231.5,339.9 232.8,339.5 234.2,339.2 235.6,338.8 237.1,338.6 238.6,338.3 240.2,338.2 241.8,338.0 243.5,338.0 245.3,337.9 247.1,338.0 249.0,338.1 250.9,338.2 253.0,338.5 255.1,338.8 257.2,339.1 259.5,339.6 261.9,340.1 264.3,340.7 266.8,341.4 269.5,342.2 272.3,343.1 275.1,344.1 278.1,345.2 281.3,346.4 284.5,347.7 288.0,349.1 291.5,350.7 295.3,352.4 299.2,354.3 303.3,356.3 307.6,358.5 312.1,360.9 316.9,363.4 321.9,366.2 327.1,369.1 332.6,372.3 338.4,375.7 344.4,379.3 350.8,383.2 357.6,387.4 364.7,391.8 372.1,396.5 379.9,401.6 388.2,407.0 396.8,412.7 405.9,418.7 415.3,425.1 425.2,431.9 435.5,439.0 446.2,446.5 457.3,454.3 468.7,462.5 480.4,470.9 492.3,479.7 504.3,488.7 516.4,497.8 528.5,507.1 540.4,516.5 551.9,525.9 563.0,535.2 573.6,544.3 583.5,553.2 592.5,561.7 600.6,569.9 607.7,577.6 613.7,584.9 618.6,591.6 622.3,597.7 625.0,603.3 626.5,608.4 627.0,612.8 626.5,616.8 625.1,620.2 622.8,623.1 619.8,625.6 616.1,627.7 611.7,629.4 606.8,630.7 601.5,631.7 595.7,632.4 589.6,632.8 583.2,633.0 576.5,633.0 569.6,632.8 562.6,632.3 555.4,631.8 548.2,631.0 540.8,630.1 533.5,629.1 526.1,628.0 518.7,626.8 511.3,625.5 503.9,624.1 496.6,622.6 489.3,621.1 482.1,619.5 474.9,617.8 467.8,616.1 460.8,614.3 453.9,612.5 447.1,610.6 440.3,608.7 433.7,606.7 427.1,604.7 420.7,602.7 414.4,600.7 408.1,598.6 402.0,596.5 396.0,594.3 390.1,592.2 384.3,590.0 378.6,587.8 373.0,585.6 367.6,583.4 362.2,581.2 356.9,578.9 351.8,576.7 346.8,574.4 341.9,572.1 337.1,569.8 332.4,567.6 327.8,565.3 323.3,563.0 318.9,560.7 314.6,558.4 310.4,556.1 306.4,553.8 302.4,551.4 298.5,549.1 294.8,546.8 291.1,544.6 287.5,542.3 284.0,540.0 280.6,537.7 277.4,535.4 274.2,533.1 271.0,530.9 268.0,528.6 265.1,526.4 262.3,524.1 259.5,521.9 256.8,519.7 254.2,517.4 251.7,515.2 249.3,513.0 246.9,510.8 244.7,508.7 242.5,506.5 240.3,504.3 238.3,502.2 236.3,500.0 234.4,497.9 232.5,495.8 230.7,493.7 229.0,491.6 227.3,489.5 225.7,487.4 224.2,485.4 222.7,483.3 221.3,481.3 219.9,479.3 218.6,477.3 217.4,475.2 216.2,473.3 215.0,471.3 213.9,469.3 212.8,467.3 211.8,465.4 210.9,463.5 209.9,461.5 209.0,459.6 208.2,457.7 207.4,455.8 206.6,453.9 205.9,452.1 205.2,450.2 204.6,448.3 204.0,446.5 203.4,444.7 202.8,442.9 202.3,441.0 201.9,439.2 201.4,437.5 201.0,435.7 200.6,433.9 200.2,432.2 199.9,430.4 199.6,428.7 199.3,427.0 199.1,425.2 198.8,423.5 198.6,421.8 198.4,420.2 198.3,418.5 198.2,416.8 198.0,415.2 198.0,413.5 197.9,411.9 197.8,410.3 197.8,408.7 197.8,407.1 197.8,405.5 197.9,403.9 197.9,402.3 198.0,400.8 198.1,399.2 198.2,397.7 198.3,396.2 198.5,394.7 198.6,393.2 198.8,391.7 199.0,390.2 199.2,388.8 199.5,387.3 199.7,385.9 200.0,384.4 200.3,383.0 200.6,381.6 200.9,380.3 201.2,378.9 201.6,377.5 202.0,376.2 202.4,374.9 202.8,373.6 203.2,372.3 203.6,371.0 204.1,369.7 204.6,368.5 205.1,367.2 205.6,366.0 206.1,364.8 206.7,363.6 207.2,362.5 207.8,361.3 208.4,360.2 209.1,359.1 209.7,358.0 210.4,356.9 211.1,355.9 211.8,354.8 212.5,353.8 213.3,352.9 214.1,351.9 214.9,351.0 215.7,350.0 216.5,349.2 217.4,348.3 218.3,347.5 219.3,346.7 220.2,345.9 221.2,345.1 222.2,344.4 223.3,343.7 224.4,343.1 225.5,342.4 226.6,341.8 227.8,341.3 229.1,340.8 230.3,340.3 231.6,339.8 233.0,339.4 234.4,339.1 235.8,338.8 237.3,338.5 238.8,338.3 240.4,338.1 242.1,338.0 243.8,337.9 245.5,337.9 247.3,338.0 249.2,338.1 251.2,338.2 253.2,338.5 255.3,338.8 257.5,339.2 259.8,339.6 262.2,340.2 264.6,340.8 267.2,341.5 269.9,342.3 272.6,343.2 275.5,344.2 278.5,345.3 281.7,346.5 285.0,347.9 288.4,349.3 292.0,350.9 295.8,352.7 299.7,354.6 303.9,356.6 308.2,358.8 312.8,361.2 317.5,363.8 322.5,366.5 327.8,369.5 333.4,372.7 339.2,376.1 345.3,379.8 351.8,383.7 358.5,387.9 365.7,392.4 373.2,397.2 381.1,402.3 389.3,407.7 398.0,413.5 407.1,419.6 416.7,426.0 426.6,432.8 437.0,440.0 447.7,447.5 458.9,455.4 470.3,463.6 482.0,472.1 494.0,480.9 506.0,489.9 518.1,499.1 530.2,508.4 542.0,517.8 553.5,527.2 564.6,536.5 575.1,545.6 584.8,554.4 593.7,562.9 601.7,571.0 608.6,578.7 614.5,585.9 619.2,592.5 622.8,598.6 625.3,604.1 626.7,609.0 627.0,613.4 626.4,617.3 624.9,620.7 622.5,623.5 619.4,626.0 615.5,628.0 611.1,629.6 606.2,630.9 600.7,631.8 594.9,632.5 588.7,632.9 582.3,633.1 575.6,633.0 568.7,632.7 561.6,632.3 554.5,631.7 547.2,630.9 539.9,630.0 532.5,629.0 525.1,627.9 517.7,626.7 510.3,625.3 502.9,623.9 495.6,622.4 488.3,620.9 481.1,619.3 473.9,617.6 466.8,615.9 459.9,614.1 452.9,612.2 446.1,610.3 439.4,608.4 432.8,606.5 426.2,604.5 419.8,602.4 413.5,600.4 407.3,598.3 401.2,596.2 395.2,594.1 389.3,591.9 383.5,589.7 377.8,587.5 372.3,585.3 366.8,583.1 361.5,580.9 356.2,578.6 351.1,576.4 346.1,574.1 341.2,571.8 336.4,569.5 331.7,567.2 327.1,564.9 322.7,562.6 318.3,560.3 314.0,558.0 309.9,555.7 305.8,553.4 301.8,551.1 298.0,548.8 294.2,546.5 290.6,544.2 287.0,541.9 283.6,539.7 280.2,537.4 276.9,535.1 273.7,532.8 270.6,530.6 267.6,528.3 264.7,526.1 261.9,523.8 259.1,521.6 256.5,519.3 253.9,517.1 251.4,514.9 249.0,512.7 246.6,510.5 244.3,508.4 242.2,506.2 240.0,504.0 238.0,501.9 236.0,499.7 234.1,497.6 232.3,495.5 230.5,493.4 228.8,491.3 227.1,489.2 225.5,487.2 224.0,485.1 222.5,483.1 221.1,481.0 219.8,479.0 218.4,477.0 217.2,475.0 216.0,473.0 214.8,471.0 213.7,469.0 212.7,467.1 211.7,465.1 210.7,463.2 209.8,461.3 208.9,459.4 208.1,457.4 207.3,455.6 206.5,453.7 205.8,451.8 205.1,449.9 204.5,448.1 203.9,446.3 203.3,444.4 202.8,442.6 202.3,440.8 201.8,439.0 201.3,437.2 200.9,435.4 200.5,433.7 200.2,431.9 199.9,430.2 199.5,428.4 199.3,426.7 199.0,425.0 198.8,423.3 198.6,421.6 198.4,419.9 198.3,418.2 198.1,416.6 198.0,414.9 197.9,413.3 197.9,411.7 197.8,410.0 197.8,408.4 197.8,406.8 197.8,405.3 197.9,403.7 197.9,402.1 198.0,400.6 198.1,399.0 198.2,397.5 198.3,396.0 198.5,394.5 198.7,393.0 198.8,391.5 199.0,390.0 199.3,388.6 199.5,387.1 199.8,385.7 200.0,384.3 200.3,382.8 200.6,381.4 200.9,380.1 201.3,378.7 201.6,377.3 202.0,376.0 202.4,374.7 202.8,373.4 203.3,372.1 203.7,370.8 204.2,369.5 204.6,368.3 205.1,367.1 205.7,365.8 206.2,364.6 206.7,363.5 207.3,362.3 207.9,361.2 208.5,360.0 209.1,358.9 209.8,357.8 210.5,356.8 211.2,355.7 211.9,354.7 212.6,353.7 213.4,352.7 214.2,351.8 215.0,350.8 215.8,349.9 216.7,349.0 217.5,348.2 218.4,347.3 219.4,346.5 220.3,345.8 221.3,345.0 222.4,344.3 223.4,343.6 224.5,343.0 225.6,342.3 226.8,341.8 228.0,341.2 229.2,340.7 230.5,340.2 231.8,339.8 233.2,339.4 234.6,339.0 236.0,338.7 237.5,338.5 239.0,338.3 240.6,338.1 242.3,338.0 244.0,337.9 245.8,337.9 247.6,338.0 249.5,338.1 251.5,338.3 253.5,338.5 255.6,338.8 257.8,339.2 260.1,339.7 262.5,340.2 265.0,340.9 267.5,341.6 270.2,342.4 273.0,343.3 275.9,344.3 279.0,345.5 282.1,346.7 285.5,348.1 288.9,349.5 292.5,351.2 296.3,352.9 300.3,354.8 304.5,356.9" fill="none" stroke="#4ade80" stroke-width="2.6" stroke-opacity="0.72" stroke-linejoin="round" stroke-linecap="round"/>
<polyline points="398.0,145.1 432.1,164.9 473.7,189.2 524.9,219.4 588.4,256.9 666.6,303.4 761.1,359.9 869.9,425.5" fill="none" stroke="#4ade80" stroke-width="2.6" stroke-opacity="0.72" stroke-linejoin="round" stroke-linecap="round"/>
<circle cx="315.9" cy="466.9" r="6.0" fill="#f8fafc" opacity="1.0"/>
<text x="118.0" y="842.0" class="small" text-anchor="start">Generated from a standard-library Python gallery: vector field + nullclines + trajectories.</text>
</svg>
