<svg xmlns="http://www.w3.org/2000/svg" viewBox="0 0 1280 860">
<defs>
  <linearGradient id="bg" x1="0" y1="0" x2="1" y2="1">
    <stop offset="0%" stop-color="#081018"/>
    <stop offset="100%" stop-color="#101d2a"/>
  </linearGradient>
  <style>
    .title { font: 700 34px Helvetica, Arial, sans-serif; fill: #e6edf3; }
    .subtitle { font: 500 18px Helvetica, Arial, sans-serif; fill: #9fb3c8; }
    .label { font: 700 20px Helvetica, Arial, sans-serif; fill: #dce7f3; }
    .small { font: 500 15px Helvetica, Arial, sans-serif; fill: #9fb3c8; }
    .tiny { font: 500 13px Helvetica, Arial, sans-serif; fill: #8aa3bc; }
    .panel { fill: #122131; stroke: #5e7fa3; stroke-width: 2; rx: 18; }
    .grid { stroke: #223445; stroke-width: 1; opacity: 0.8; }
    .axis { stroke: #39516a; stroke-width: 2; }
  </style>
</defs>
<rect width="1280" height="860" fill="url(#bg)"/>
<rect x="60" y="120" width="1160" height="690" rx="18" class="panel"/>
<text x="90.0" y="68.0" class="title" text-anchor="start">Linear saddle</text>
<text x="90.0" y="98.0" class="subtitle" text-anchor="start">The cleanest local-stability example in the repo: one axis attracts, the other repels.</text>
<text x="930.0" y="185.0" class="label" text-anchor="start">Legend</text>
<text x="968.0" y="232.0" class="small" text-anchor="start">trajectories</text>
<text x="968.0" y="268.0" class="small" text-anchor="start">dx/dt = 0</text>
<text x="968.0" y="304.0" class="small" text-anchor="start">dy/dt = 0</text>
<text x="968.0" y="340.0" class="small" text-anchor="start">fixed points</text>
<circle cx="940.0" cy="224.0" r="8.0" fill="#4ade80" opacity="1.0"/>
<line x1="924.0" y1="260.0" x2="956.0" y2="260.0" stroke="#f97316" stroke-width="4" opacity="1.0"/>
<line x1="924.0" y1="296.0" x2="956.0" y2="296.0" stroke="#60a5fa" stroke-width="4" opacity="1.0"/>
<circle cx="940.0" cy="336.0" r="7.0" fill="#f8fafc" opacity="1.0"/>
<text x="930.0" y="392.0" class="label" text-anchor="start">How to read it</text>
<text x="930.0" y="422.0" class="small" text-anchor="start">The arrows show the local flow.</text>
<text x="930.0" y="446.0" class="small" text-anchor="start">The colored curves show where one derivative vanishes.</text>
<text x="930.0" y="470.0" class="small" text-anchor="start">Trajectories reveal whether the fixed point attracts, spirals, or closes into an orbit.</text>
<text x="930.0" y="528.0" class="label" text-anchor="start">Local fixed-point readout</text>
<text x="930.0" y="558.0" class="small" text-anchor="start">1. (0.00, 0.00) → saddle</text>
<text x="950.0" y="580.0" class="tiny" text-anchor="start">λ = 1.00, -1.00</text>
<line x1="110.0" y1="170.0" x2="110.0" y2="760.0" stroke="#223445" stroke-width="1" opacity="1.0"/>
<text x="110.0" y="788.0" class="tiny" text-anchor="middle">-2.4</text>
<line x1="260.0" y1="170.0" x2="260.0" y2="760.0" stroke="#223445" stroke-width="1" opacity="1.0"/>
<text x="260.0" y="788.0" class="tiny" text-anchor="middle">-1.4</text>
<line x1="410.0" y1="170.0" x2="410.0" y2="760.0" stroke="#223445" stroke-width="1" opacity="1.0"/>
<text x="410.0" y="788.0" class="tiny" text-anchor="middle">-0.5</text>
<line x1="560.0" y1="170.0" x2="560.0" y2="760.0" stroke="#223445" stroke-width="1" opacity="1.0"/>
<text x="560.0" y="788.0" class="tiny" text-anchor="middle">0.5</text>
<line x1="710.0" y1="170.0" x2="710.0" y2="760.0" stroke="#223445" stroke-width="1" opacity="1.0"/>
<text x="710.0" y="788.0" class="tiny" text-anchor="middle">1.4</text>
<line x1="860.0" y1="170.0" x2="860.0" y2="760.0" stroke="#223445" stroke-width="1" opacity="1.0"/>
<text x="860.0" y="788.0" class="tiny" text-anchor="middle">2.4</text>
<line x1="110.0" y1="760.0" x2="860.0" y2="760.0" stroke="#223445" stroke-width="1" opacity="1.0"/>
<text x="92.0" y="764.0" class="tiny" text-anchor="end">-2.4</text>
<line x1="110.0" y1="642.0" x2="860.0" y2="642.0" stroke="#223445" stroke-width="1" opacity="1.0"/>
<text x="92.0" y="646.0" class="tiny" text-anchor="end">-1.4</text>
<line x1="110.0" y1="524.0" x2="860.0" y2="524.0" stroke="#223445" stroke-width="1" opacity="1.0"/>
<text x="92.0" y="528.0" class="tiny" text-anchor="end">-0.5</text>
<line x1="110.0" y1="406.0" x2="860.0" y2="406.0" stroke="#223445" stroke-width="1" opacity="1.0"/>
<text x="92.0" y="410.0" class="tiny" text-anchor="end">0.5</text>
<line x1="110.0" y1="288.0" x2="860.0" y2="288.0" stroke="#223445" stroke-width="1" opacity="1.0"/>
<text x="92.0" y="292.0" class="tiny" text-anchor="end">1.4</text>
<line x1="110.0" y1="170.0" x2="860.0" y2="170.0" stroke="#223445" stroke-width="1" opacity="1.0"/>
<text x="92.0" y="174.0" class="tiny" text-anchor="end">2.4</text>
<line x1="485.0" y1="170.0" x2="485.0" y2="760.0" stroke="#39516a" stroke-width="2" opacity="1.0"/>
<line x1="110.0" y1="465.0" x2="860.0" y2="465.0" stroke="#39516a" stroke-width="2" opacity="1.0"/>
<line x1="110.0" y1="760.0" x2="99.4" y2="751.7" stroke="#4b6580" stroke-width="1.4" opacity="0.9"/>
<line x1="110.0" y1="710.8" x2="98.5" y2="703.3" stroke="#4b6580" stroke-width="1.4" opacity="0.9"/>
<line x1="110.0" y1="661.7" x2="97.5" y2="655.1" stroke="#4b6580" stroke-width="1.4" opacity="0.9"/>
<line x1="110.0" y1="612.5" x2="96.6" y2="607.2" stroke="#4b6580" stroke-width="1.4" opacity="0.9"/>
<line x1="110.0" y1="563.3" x2="95.8" y2="559.6" stroke="#4b6580" stroke-width="1.4" opacity="0.9"/>
<line x1="110.0" y1="514.2" x2="95.2" y2="512.2" stroke="#4b6580" stroke-width="1.4" opacity="0.9"/>
<line x1="110.0" y1="465.0" x2="95.0" y2="465.0" stroke="#4b6580" stroke-width="1.4" opacity="0.9"/>
<line x1="110.0" y1="415.8" x2="95.2" y2="417.8" stroke="#4b6580" stroke-width="1.4" opacity="0.9"/>
<line x1="110.0" y1="366.7" x2="95.8" y2="370.4" stroke="#4b6580" stroke-width="1.4" opacity="0.9"/>
<line x1="110.0" y1="317.5" x2="96.6" y2="322.8" stroke="#4b6580" stroke-width="1.4" opacity="0.9"/>
<line x1="110.0" y1="268.3" x2="97.5" y2="274.9" stroke="#4b6580" stroke-width="1.4" opacity="0.9"/>
<line x1="110.0" y1="219.2" x2="98.5" y2="226.7" stroke="#4b6580" stroke-width="1.4" opacity="0.9"/>
<line x1="110.0" y1="170.0" x2="99.4" y2="178.3" stroke="#4b6580" stroke-width="1.4" opacity="0.9"/>
<line x1="156.9" y1="760.0" x2="147.0" y2="751.1" stroke="#4b6580" stroke-width="1.4" opacity="0.9"/>
<line x1="156.9" y1="710.8" x2="146.0" y2="702.7" stroke="#4b6580" stroke-width="1.4" opacity="0.9"/>
<line x1="156.9" y1="661.7" x2="144.9" y2="654.5" stroke="#4b6580" stroke-width="1.4" opacity="0.9"/>
<line x1="156.9" y1="612.5" x2="143.9" y2="606.6" stroke="#4b6580" stroke-width="1.4" opacity="0.9"/>
<line x1="156.9" y1="563.3" x2="142.9" y2="559.1" stroke="#4b6580" stroke-width="1.4" opacity="0.9"/>
<line x1="156.9" y1="514.2" x2="142.1" y2="512.0" stroke="#4b6580" stroke-width="1.4" opacity="0.9"/>
<line x1="156.9" y1="465.0" x2="141.9" y2="465.0" stroke="#4b6580" stroke-width="1.4" opacity="0.9"/>
<line x1="156.9" y1="415.8" x2="142.1" y2="418.0" stroke="#4b6580" stroke-width="1.4" opacity="0.9"/>
<line x1="156.9" y1="366.7" x2="142.9" y2="370.9" stroke="#4b6580" stroke-width="1.4" opacity="0.9"/>
<line x1="156.9" y1="317.5" x2="143.9" y2="323.4" stroke="#4b6580" stroke-width="1.4" opacity="0.9"/>
<line x1="156.9" y1="268.3" x2="144.9" y2="275.5" stroke="#4b6580" stroke-width="1.4" opacity="0.9"/>
<line x1="156.9" y1="219.2" x2="146.0" y2="227.3" stroke="#4b6580" stroke-width="1.4" opacity="0.9"/>
<line x1="156.9" y1="170.0" x2="147.0" y2="178.9" stroke="#4b6580" stroke-width="1.4" opacity="0.9"/>
<line x1="203.8" y1="760.0" x2="194.8" y2="750.6" stroke="#4b6580" stroke-width="1.4" opacity="0.9"/>
<line x1="203.8" y1="710.8" x2="193.7" y2="702.1" stroke="#4b6580" stroke-width="1.4" opacity="0.9"/>
<line x1="203.8" y1="661.7" x2="192.5" y2="653.8" stroke="#4b6580" stroke-width="1.4" opacity="0.9"/>
<line x1="203.8" y1="612.5" x2="191.3" y2="606.0" stroke="#4b6580" stroke-width="1.4" opacity="0.9"/>
<line x1="203.8" y1="563.3" x2="190.0" y2="558.5" stroke="#4b6580" stroke-width="1.4" opacity="0.9"/>
<line x1="203.8" y1="514.2" x2="189.1" y2="511.6" stroke="#4b6580" stroke-width="1.4" opacity="0.9"/>
<line x1="203.8" y1="465.0" x2="188.8" y2="465.0" stroke="#4b6580" stroke-width="1.4" opacity="0.9"/>
<line x1="203.8" y1="415.8" x2="189.1" y2="418.4" stroke="#4b6580" stroke-width="1.4" opacity="0.9"/>
<line x1="203.8" y1="366.7" x2="190.0" y2="371.5" stroke="#4b6580" stroke-width="1.4" opacity="0.9"/>
<line x1="203.8" y1="317.5" x2="191.3" y2="324.0" stroke="#4b6580" stroke-width="1.4" opacity="0.9"/>
<line x1="203.8" y1="268.3" x2="192.5" y2="276.2" stroke="#4b6580" stroke-width="1.4" opacity="0.9"/>
<line x1="203.8" y1="219.2" x2="193.7" y2="227.9" stroke="#4b6580" stroke-width="1.4" opacity="0.9"/>
<line x1="203.8" y1="170.0" x2="194.8" y2="179.4" stroke="#4b6580" stroke-width="1.4" opacity="0.9"/>
<line x1="250.6" y1="760.0" x2="242.7" y2="750.0" stroke="#4b6580" stroke-width="1.4" opacity="0.9"/>
<line x1="250.6" y1="710.8" x2="241.6" y2="701.4" stroke="#4b6580" stroke-width="1.4" opacity="0.9"/>
<line x1="250.6" y1="661.7" x2="240.4" y2="653.1" stroke="#4b6580" stroke-width="1.4" opacity="0.9"/>
<line x1="250.6" y1="612.5" x2="238.9" y2="605.1" stroke="#4b6580" stroke-width="1.4" opacity="0.9"/>
<line x1="250.6" y1="563.3" x2="237.4" y2="557.8" stroke="#4b6580" stroke-width="1.4" opacity="0.9"/>
<line x1="250.6" y1="514.2" x2="236.1" y2="511.1" stroke="#4b6580" stroke-width="1.4" opacity="0.9"/>
<line x1="250.6" y1="465.0" x2="235.6" y2="465.0" stroke="#4b6580" stroke-width="1.4" opacity="0.9"/>
<line x1="250.6" y1="415.8" x2="236.1" y2="418.9" stroke="#4b6580" stroke-width="1.4" opacity="0.9"/>
<line x1="250.6" y1="366.7" x2="237.4" y2="372.2" stroke="#4b6580" stroke-width="1.4" opacity="0.9"/>
<line x1="250.6" y1="317.5" x2="238.9" y2="324.9" stroke="#4b6580" stroke-width="1.4" opacity="0.9"/>
<line x1="250.6" y1="268.3" x2="240.4" y2="276.9" stroke="#4b6580" stroke-width="1.4" opacity="0.9"/>
<line x1="250.6" y1="219.2" x2="241.6" y2="228.6" stroke="#4b6580" stroke-width="1.4" opacity="0.9"/>
<line x1="250.6" y1="170.0" x2="242.7" y2="180.0" stroke="#4b6580" stroke-width="1.4" opacity="0.9"/>
<line x1="297.5" y1="760.0" x2="290.8" y2="749.4" stroke="#4b6580" stroke-width="1.4" opacity="0.9"/>
<line x1="297.5" y1="710.8" x2="289.8" y2="700.7" stroke="#4b6580" stroke-width="1.4" opacity="0.9"/>
<line x1="297.5" y1="661.7" x2="288.5" y2="652.2" stroke="#4b6580" stroke-width="1.4" opacity="0.9"/>
<line x1="297.5" y1="612.5" x2="286.9" y2="604.2" stroke="#4b6580" stroke-width="1.4" opacity="0.9"/>
<line x1="297.5" y1="563.3" x2="285.0" y2="556.8" stroke="#4b6580" stroke-width="1.4" opacity="0.9"/>
<line x1="297.5" y1="514.2" x2="283.3" y2="510.4" stroke="#4b6580" stroke-width="1.4" opacity="0.9"/>
<line x1="297.5" y1="465.0" x2="282.5" y2="465.0" stroke="#4b6580" stroke-width="1.4" opacity="0.9"/>
<line x1="297.5" y1="415.8" x2="283.3" y2="419.6" stroke="#4b6580" stroke-width="1.4" opacity="0.9"/>
<line x1="297.5" y1="366.7" x2="285.0" y2="373.2" stroke="#4b6580" stroke-width="1.4" opacity="0.9"/>
<line x1="297.5" y1="317.5" x2="286.9" y2="325.8" stroke="#4b6580" stroke-width="1.4" opacity="0.9"/>
<line x1="297.5" y1="268.3" x2="288.5" y2="277.8" stroke="#4b6580" stroke-width="1.4" opacity="0.9"/>
<line x1="297.5" y1="219.2" x2="289.8" y2="229.3" stroke="#4b6580" stroke-width="1.4" opacity="0.9"/>
<line x1="297.5" y1="170.0" x2="290.8" y2="180.6" stroke="#4b6580" stroke-width="1.4" opacity="0.9"/>
<line x1="344.4" y1="760.0" x2="339.1" y2="749.0" stroke="#4b6580" stroke-width="1.4" opacity="0.9"/>
<line x1="344.4" y1="710.8" x2="338.2" y2="700.1" stroke="#4b6580" stroke-width="1.4" opacity="0.9"/>
<line x1="344.4" y1="661.7" x2="337.0" y2="651.4" stroke="#4b6580" stroke-width="1.4" opacity="0.9"/>
<line x1="344.4" y1="612.5" x2="335.4" y2="603.1" stroke="#4b6580" stroke-width="1.4" opacity="0.9"/>
<line x1="344.4" y1="563.3" x2="333.2" y2="555.5" stroke="#4b6580" stroke-width="1.4" opacity="0.9"/>
<line x1="344.4" y1="514.2" x2="330.7" y2="509.4" stroke="#4b6580" stroke-width="1.4" opacity="0.9"/>
<line x1="344.4" y1="465.0" x2="329.4" y2="465.0" stroke="#4b6580" stroke-width="1.4" opacity="0.9"/>
<line x1="344.4" y1="415.8" x2="330.7" y2="420.6" stroke="#4b6580" stroke-width="1.4" opacity="0.9"/>
<line x1="344.4" y1="366.7" x2="333.2" y2="374.5" stroke="#4b6580" stroke-width="1.4" opacity="0.9"/>
<line x1="344.4" y1="317.5" x2="335.4" y2="326.9" stroke="#4b6580" stroke-width="1.4" opacity="0.9"/>
<line x1="344.4" y1="268.3" x2="337.0" y2="278.6" stroke="#4b6580" stroke-width="1.4" opacity="0.9"/>
<line x1="344.4" y1="219.2" x2="338.2" y2="229.9" stroke="#4b6580" stroke-width="1.4" opacity="0.9"/>
<line x1="344.4" y1="170.0" x2="339.1" y2="181.0" stroke="#4b6580" stroke-width="1.4" opacity="0.9"/>
<line x1="391.2" y1="760.0" x2="387.6" y2="748.6" stroke="#4b6580" stroke-width="1.4" opacity="0.9"/>
<line x1="391.2" y1="710.8" x2="386.9" y2="699.5" stroke="#4b6580" stroke-width="1.4" opacity="0.9"/>
<line x1="391.2" y1="661.7" x2="386.0" y2="650.6" stroke="#4b6580" stroke-width="1.4" opacity="0.9"/>
<line x1="391.2" y1="612.5" x2="384.5" y2="601.9" stroke="#4b6580" stroke-width="1.4" opacity="0.9"/>
<line x1="391.2" y1="563.3" x2="382.2" y2="553.9" stroke="#4b6580" stroke-width="1.4" opacity="0.9"/>
<line x1="391.2" y1="514.2" x2="378.8" y2="507.6" stroke="#4b6580" stroke-width="1.4" opacity="0.9"/>
<line x1="391.2" y1="465.0" x2="376.2" y2="465.0" stroke="#4b6580" stroke-width="1.4" opacity="0.9"/>
<line x1="391.2" y1="415.8" x2="378.8" y2="422.4" stroke="#4b6580" stroke-width="1.4" opacity="0.9"/>
<line x1="391.2" y1="366.7" x2="382.2" y2="376.1" stroke="#4b6580" stroke-width="1.4" opacity="0.9"/>
<line x1="391.2" y1="317.5" x2="384.5" y2="328.1" stroke="#4b6580" stroke-width="1.4" opacity="0.9"/>
<line x1="391.2" y1="268.3" x2="386.0" y2="279.4" stroke="#4b6580" stroke-width="1.4" opacity="0.9"/>
<line x1="391.2" y1="219.2" x2="386.9" y2="230.5" stroke="#4b6580" stroke-width="1.4" opacity="0.9"/>
<line x1="391.2" y1="170.0" x2="387.6" y2="181.4" stroke="#4b6580" stroke-width="1.4" opacity="0.9"/>
<line x1="438.1" y1="760.0" x2="436.3" y2="748.3" stroke="#4b6580" stroke-width="1.4" opacity="0.9"/>
<line x1="438.1" y1="710.8" x2="435.9" y2="699.2" stroke="#4b6580" stroke-width="1.4" opacity="0.9"/>
<line x1="438.1" y1="661.7" x2="435.4" y2="650.1" stroke="#4b6580" stroke-width="1.4" opacity="0.9"/>
<line x1="438.1" y1="612.5" x2="434.5" y2="601.1" stroke="#4b6580" stroke-width="1.4" opacity="0.9"/>
<line x1="438.1" y1="563.3" x2="432.9" y2="552.3" stroke="#4b6580" stroke-width="1.4" opacity="0.9"/>
<line x1="438.1" y1="514.2" x2="429.1" y2="504.7" stroke="#4b6580" stroke-width="1.4" opacity="0.9"/>
<line x1="438.1" y1="465.0" x2="423.1" y2="465.0" stroke="#4b6580" stroke-width="1.4" opacity="0.9"/>
<line x1="438.1" y1="415.8" x2="429.1" y2="425.3" stroke="#4b6580" stroke-width="1.4" opacity="0.9"/>
<line x1="438.1" y1="366.7" x2="432.9" y2="377.7" stroke="#4b6580" stroke-width="1.4" opacity="0.9"/>
<line x1="438.1" y1="317.5" x2="434.5" y2="328.9" stroke="#4b6580" stroke-width="1.4" opacity="0.9"/>
<line x1="438.1" y1="268.3" x2="435.4" y2="279.9" stroke="#4b6580" stroke-width="1.4" opacity="0.9"/>
<line x1="438.1" y1="219.2" x2="435.9" y2="230.8" stroke="#4b6580" stroke-width="1.4" opacity="0.9"/>
<line x1="438.1" y1="170.0" x2="436.3" y2="181.7" stroke="#4b6580" stroke-width="1.4" opacity="0.9"/>
<line x1="485.0" y1="760.0" x2="485.0" y2="748.2" stroke="#4b6580" stroke-width="1.4" opacity="0.9"/>
<line x1="485.0" y1="710.8" x2="485.0" y2="699.0" stroke="#4b6580" stroke-width="1.4" opacity="0.9"/>
<line x1="485.0" y1="661.7" x2="485.0" y2="649.9" stroke="#4b6580" stroke-width="1.4" opacity="0.9"/>
<line x1="485.0" y1="612.5" x2="485.0" y2="600.7" stroke="#4b6580" stroke-width="1.4" opacity="0.9"/>
<line x1="485.0" y1="563.3" x2="485.0" y2="551.5" stroke="#4b6580" stroke-width="1.4" opacity="0.9"/>
<line x1="485.0" y1="514.2" x2="485.0" y2="502.4" stroke="#4b6580" stroke-width="1.4" opacity="0.9"/>
<line x1="485.0" y1="415.8" x2="485.0" y2="427.6" stroke="#4b6580" stroke-width="1.4" opacity="0.9"/>
<line x1="485.0" y1="366.7" x2="485.0" y2="378.5" stroke="#4b6580" stroke-width="1.4" opacity="0.9"/>
<line x1="485.0" y1="317.5" x2="485.0" y2="329.3" stroke="#4b6580" stroke-width="1.4" opacity="0.9"/>
<line x1="485.0" y1="268.3" x2="485.0" y2="280.1" stroke="#4b6580" stroke-width="1.4" opacity="0.9"/>
<line x1="485.0" y1="219.2" x2="485.0" y2="231.0" stroke="#4b6580" stroke-width="1.4" opacity="0.9"/>
<line x1="485.0" y1="170.0" x2="485.0" y2="181.8" stroke="#4b6580" stroke-width="1.4" opacity="0.9"/>
<line x1="531.9" y1="760.0" x2="533.7" y2="748.3" stroke="#4b6580" stroke-width="1.4" opacity="0.9"/>
<line x1="531.9" y1="710.8" x2="534.1" y2="699.2" stroke="#4b6580" stroke-width="1.4" opacity="0.9"/>
<line x1="531.9" y1="661.7" x2="534.6" y2="650.1" stroke="#4b6580" stroke-width="1.4" opacity="0.9"/>
<line x1="531.9" y1="612.5" x2="535.5" y2="601.1" stroke="#4b6580" stroke-width="1.4" opacity="0.9"/>
<line x1="531.9" y1="563.3" x2="537.1" y2="552.3" stroke="#4b6580" stroke-width="1.4" opacity="0.9"/>
<line x1="531.9" y1="514.2" x2="540.9" y2="504.7" stroke="#4b6580" stroke-width="1.4" opacity="0.9"/>
<line x1="531.9" y1="465.0" x2="546.9" y2="465.0" stroke="#4b6580" stroke-width="1.4" opacity="0.9"/>
<line x1="531.9" y1="415.8" x2="540.9" y2="425.3" stroke="#4b6580" stroke-width="1.4" opacity="0.9"/>
<line x1="531.9" y1="366.7" x2="537.1" y2="377.7" stroke="#4b6580" stroke-width="1.4" opacity="0.9"/>
<line x1="531.9" y1="317.5" x2="535.5" y2="328.9" stroke="#4b6580" stroke-width="1.4" opacity="0.9"/>
<line x1="531.9" y1="268.3" x2="534.6" y2="279.9" stroke="#4b6580" stroke-width="1.4" opacity="0.9"/>
<line x1="531.9" y1="219.2" x2="534.1" y2="230.8" stroke="#4b6580" stroke-width="1.4" opacity="0.9"/>
<line x1="531.9" y1="170.0" x2="533.7" y2="181.7" stroke="#4b6580" stroke-width="1.4" opacity="0.9"/>
<line x1="578.8" y1="760.0" x2="582.4" y2="748.6" stroke="#4b6580" stroke-width="1.4" opacity="0.9"/>
<line x1="578.8" y1="710.8" x2="583.1" y2="699.5" stroke="#4b6580" stroke-width="1.4" opacity="0.9"/>
<line x1="578.8" y1="661.7" x2="584.0" y2="650.6" stroke="#4b6580" stroke-width="1.4" opacity="0.9"/>
<line x1="578.8" y1="612.5" x2="585.5" y2="601.9" stroke="#4b6580" stroke-width="1.4" opacity="0.9"/>
<line x1="578.8" y1="563.3" x2="587.8" y2="553.9" stroke="#4b6580" stroke-width="1.4" opacity="0.9"/>
<line x1="578.8" y1="514.2" x2="591.2" y2="507.6" stroke="#4b6580" stroke-width="1.4" opacity="0.9"/>
<line x1="578.8" y1="465.0" x2="593.8" y2="465.0" stroke="#4b6580" stroke-width="1.4" opacity="0.9"/>
<line x1="578.8" y1="415.8" x2="591.2" y2="422.4" stroke="#4b6580" stroke-width="1.4" opacity="0.9"/>
<line x1="578.8" y1="366.7" x2="587.8" y2="376.1" stroke="#4b6580" stroke-width="1.4" opacity="0.9"/>
<line x1="578.8" y1="317.5" x2="585.5" y2="328.1" stroke="#4b6580" stroke-width="1.4" opacity="0.9"/>
<line x1="578.8" y1="268.3" x2="584.0" y2="279.4" stroke="#4b6580" stroke-width="1.4" opacity="0.9"/>
<line x1="578.8" y1="219.2" x2="583.1" y2="230.5" stroke="#4b6580" stroke-width="1.4" opacity="0.9"/>
<line x1="578.8" y1="170.0" x2="582.4" y2="181.4" stroke="#4b6580" stroke-width="1.4" opacity="0.9"/>
<line x1="625.6" y1="760.0" x2="630.9" y2="749.0" stroke="#4b6580" stroke-width="1.4" opacity="0.9"/>
<line x1="625.6" y1="710.8" x2="631.8" y2="700.1" stroke="#4b6580" stroke-width="1.4" opacity="0.9"/>
<line x1="625.6" y1="661.7" x2="633.0" y2="651.4" stroke="#4b6580" stroke-width="1.4" opacity="0.9"/>
<line x1="625.6" y1="612.5" x2="634.6" y2="603.1" stroke="#4b6580" stroke-width="1.4" opacity="0.9"/>
<line x1="625.6" y1="563.3" x2="636.8" y2="555.5" stroke="#4b6580" stroke-width="1.4" opacity="0.9"/>
<line x1="625.6" y1="514.2" x2="639.3" y2="509.4" stroke="#4b6580" stroke-width="1.4" opacity="0.9"/>
<line x1="625.6" y1="465.0" x2="640.6" y2="465.0" stroke="#4b6580" stroke-width="1.4" opacity="0.9"/>
<line x1="625.6" y1="415.8" x2="639.3" y2="420.6" stroke="#4b6580" stroke-width="1.4" opacity="0.9"/>
<line x1="625.6" y1="366.7" x2="636.8" y2="374.5" stroke="#4b6580" stroke-width="1.4" opacity="0.9"/>
<line x1="625.6" y1="317.5" x2="634.6" y2="326.9" stroke="#4b6580" stroke-width="1.4" opacity="0.9"/>
<line x1="625.6" y1="268.3" x2="633.0" y2="278.6" stroke="#4b6580" stroke-width="1.4" opacity="0.9"/>
<line x1="625.6" y1="219.2" x2="631.8" y2="229.9" stroke="#4b6580" stroke-width="1.4" opacity="0.9"/>
<line x1="625.6" y1="170.0" x2="630.9" y2="181.0" stroke="#4b6580" stroke-width="1.4" opacity="0.9"/>
<line x1="672.5" y1="760.0" x2="679.2" y2="749.4" stroke="#4b6580" stroke-width="1.4" opacity="0.9"/>
<line x1="672.5" y1="710.8" x2="680.2" y2="700.7" stroke="#4b6580" stroke-width="1.4" opacity="0.9"/>
<line x1="672.5" y1="661.7" x2="681.5" y2="652.2" stroke="#4b6580" stroke-width="1.4" opacity="0.9"/>
<line x1="672.5" y1="612.5" x2="683.1" y2="604.2" stroke="#4b6580" stroke-width="1.4" opacity="0.9"/>
<line x1="672.5" y1="563.3" x2="685.0" y2="556.8" stroke="#4b6580" stroke-width="1.4" opacity="0.9"/>
<line x1="672.5" y1="514.2" x2="686.7" y2="510.4" stroke="#4b6580" stroke-width="1.4" opacity="0.9"/>
<line x1="672.5" y1="465.0" x2="687.5" y2="465.0" stroke="#4b6580" stroke-width="1.4" opacity="0.9"/>
<line x1="672.5" y1="415.8" x2="686.7" y2="419.6" stroke="#4b6580" stroke-width="1.4" opacity="0.9"/>
<line x1="672.5" y1="366.7" x2="685.0" y2="373.2" stroke="#4b6580" stroke-width="1.4" opacity="0.9"/>
<line x1="672.5" y1="317.5" x2="683.1" y2="325.8" stroke="#4b6580" stroke-width="1.4" opacity="0.9"/>
<line x1="672.5" y1="268.3" x2="681.5" y2="277.8" stroke="#4b6580" stroke-width="1.4" opacity="0.9"/>
<line x1="672.5" y1="219.2" x2="680.2" y2="229.3" stroke="#4b6580" stroke-width="1.4" opacity="0.9"/>
<line x1="672.5" y1="170.0" x2="679.2" y2="180.6" stroke="#4b6580" stroke-width="1.4" opacity="0.9"/>
<line x1="719.4" y1="760.0" x2="727.3" y2="750.0" stroke="#4b6580" stroke-width="1.4" opacity="0.9"/>
<line x1="719.4" y1="710.8" x2="728.4" y2="701.4" stroke="#4b6580" stroke-width="1.4" opacity="0.9"/>
<line x1="719.4" y1="661.7" x2="729.6" y2="653.1" stroke="#4b6580" stroke-width="1.4" opacity="0.9"/>
<line x1="719.4" y1="612.5" x2="731.1" y2="605.1" stroke="#4b6580" stroke-width="1.4" opacity="0.9"/>
<line x1="719.4" y1="563.3" x2="732.6" y2="557.8" stroke="#4b6580" stroke-width="1.4" opacity="0.9"/>
<line x1="719.4" y1="514.2" x2="733.9" y2="511.1" stroke="#4b6580" stroke-width="1.4" opacity="0.9"/>
<line x1="719.4" y1="465.0" x2="734.4" y2="465.0" stroke="#4b6580" stroke-width="1.4" opacity="0.9"/>
<line x1="719.4" y1="415.8" x2="733.9" y2="418.9" stroke="#4b6580" stroke-width="1.4" opacity="0.9"/>
<line x1="719.4" y1="366.7" x2="732.6" y2="372.2" stroke="#4b6580" stroke-width="1.4" opacity="0.9"/>
<line x1="719.4" y1="317.5" x2="731.1" y2="324.9" stroke="#4b6580" stroke-width="1.4" opacity="0.9"/>
<line x1="719.4" y1="268.3" x2="729.6" y2="276.9" stroke="#4b6580" stroke-width="1.4" opacity="0.9"/>
<line x1="719.4" y1="219.2" x2="728.4" y2="228.6" stroke="#4b6580" stroke-width="1.4" opacity="0.9"/>
<line x1="719.4" y1="170.0" x2="727.3" y2="180.0" stroke="#4b6580" stroke-width="1.4" opacity="0.9"/>
<line x1="766.3" y1="760.0" x2="775.2" y2="750.6" stroke="#4b6580" stroke-width="1.4" opacity="0.9"/>
<line x1="766.3" y1="710.8" x2="776.3" y2="702.1" stroke="#4b6580" stroke-width="1.4" opacity="0.9"/>
<line x1="766.3" y1="661.7" x2="777.5" y2="653.8" stroke="#4b6580" stroke-width="1.4" opacity="0.9"/>
<line x1="766.3" y1="612.5" x2="778.7" y2="606.0" stroke="#4b6580" stroke-width="1.4" opacity="0.9"/>
<line x1="766.3" y1="563.3" x2="780.0" y2="558.5" stroke="#4b6580" stroke-width="1.4" opacity="0.9"/>
<line x1="766.3" y1="514.2" x2="780.9" y2="511.6" stroke="#4b6580" stroke-width="1.4" opacity="0.9"/>
<line x1="766.3" y1="465.0" x2="781.3" y2="465.0" stroke="#4b6580" stroke-width="1.4" opacity="0.9"/>
<line x1="766.3" y1="415.8" x2="780.9" y2="418.4" stroke="#4b6580" stroke-width="1.4" opacity="0.9"/>
<line x1="766.3" y1="366.7" x2="780.0" y2="371.5" stroke="#4b6580" stroke-width="1.4" opacity="0.9"/>
<line x1="766.3" y1="317.5" x2="778.7" y2="324.0" stroke="#4b6580" stroke-width="1.4" opacity="0.9"/>
<line x1="766.3" y1="268.3" x2="777.5" y2="276.2" stroke="#4b6580" stroke-width="1.4" opacity="0.9"/>
<line x1="766.3" y1="219.2" x2="776.3" y2="227.9" stroke="#4b6580" stroke-width="1.4" opacity="0.9"/>
<line x1="766.3" y1="170.0" x2="775.2" y2="179.4" stroke="#4b6580" stroke-width="1.4" opacity="0.9"/>
<line x1="813.1" y1="760.0" x2="823.0" y2="751.1" stroke="#4b6580" stroke-width="1.4" opacity="0.9"/>
<line x1="813.1" y1="710.8" x2="824.0" y2="702.7" stroke="#4b6580" stroke-width="1.4" opacity="0.9"/>
<line x1="813.1" y1="661.7" x2="825.1" y2="654.5" stroke="#4b6580" stroke-width="1.4" opacity="0.9"/>
<line x1="813.1" y1="612.5" x2="826.1" y2="606.6" stroke="#4b6580" stroke-width="1.4" opacity="0.9"/>
<line x1="813.1" y1="563.3" x2="827.1" y2="559.1" stroke="#4b6580" stroke-width="1.4" opacity="0.9"/>
<line x1="813.1" y1="514.2" x2="827.9" y2="512.0" stroke="#4b6580" stroke-width="1.4" opacity="0.9"/>
<line x1="813.1" y1="465.0" x2="828.1" y2="465.0" stroke="#4b6580" stroke-width="1.4" opacity="0.9"/>
<line x1="813.1" y1="415.8" x2="827.9" y2="418.0" stroke="#4b6580" stroke-width="1.4" opacity="0.9"/>
<line x1="813.1" y1="366.7" x2="827.1" y2="370.9" stroke="#4b6580" stroke-width="1.4" opacity="0.9"/>
<line x1="813.1" y1="317.5" x2="826.1" y2="323.4" stroke="#4b6580" stroke-width="1.4" opacity="0.9"/>
<line x1="813.1" y1="268.3" x2="825.1" y2="275.5" stroke="#4b6580" stroke-width="1.4" opacity="0.9"/>
<line x1="813.1" y1="219.2" x2="824.0" y2="227.3" stroke="#4b6580" stroke-width="1.4" opacity="0.9"/>
<line x1="813.1" y1="170.0" x2="823.0" y2="178.9" stroke="#4b6580" stroke-width="1.4" opacity="0.9"/>
<line x1="860.0" y1="760.0" x2="870.6" y2="751.7" stroke="#4b6580" stroke-width="1.4" opacity="0.9"/>
<line x1="860.0" y1="710.8" x2="871.5" y2="703.3" stroke="#4b6580" stroke-width="1.4" opacity="0.9"/>
<line x1="860.0" y1="661.7" x2="872.5" y2="655.1" stroke="#4b6580" stroke-width="1.4" opacity="0.9"/>
<line x1="860.0" y1="612.5" x2="873.4" y2="607.2" stroke="#4b6580" stroke-width="1.4" opacity="0.9"/>
<line x1="860.0" y1="563.3" x2="874.2" y2="559.6" stroke="#4b6580" stroke-width="1.4" opacity="0.9"/>
<line x1="860.0" y1="514.2" x2="874.8" y2="512.2" stroke="#4b6580" stroke-width="1.4" opacity="0.9"/>
<line x1="860.0" y1="465.0" x2="875.0" y2="465.0" stroke="#4b6580" stroke-width="1.4" opacity="0.9"/>
<line x1="860.0" y1="415.8" x2="874.8" y2="417.8" stroke="#4b6580" stroke-width="1.4" opacity="0.9"/>
<line x1="860.0" y1="366.7" x2="874.2" y2="370.4" stroke="#4b6580" stroke-width="1.4" opacity="0.9"/>
<line x1="860.0" y1="317.5" x2="873.4" y2="322.8" stroke="#4b6580" stroke-width="1.4" opacity="0.9"/>
<line x1="860.0" y1="268.3" x2="872.5" y2="274.9" stroke="#4b6580" stroke-width="1.4" opacity="0.9"/>
<line x1="860.0" y1="219.2" x2="871.5" y2="226.7" stroke="#4b6580" stroke-width="1.4" opacity="0.9"/>
<line x1="860.0" y1="170.0" x2="870.6" y2="178.3" stroke="#4b6580" stroke-width="1.4" opacity="0.9"/>
<polyline points="485.0,760.0 485.0,170.0" fill="none" stroke="#f97316" stroke-width="3.2" stroke-opacity="0.9" stroke-linejoin="round" stroke-linecap="round"/>
<polyline points="110.0,465.0 860.0,465.0" fill="none" stroke="#60a5fa" stroke-width="3.2" stroke-opacity="0.9" stroke-linejoin="round" stroke-linecap="round"/>
<polyline points="333.8,127.0 330.0,135.4 326.1,143.5 322.1,151.4 317.9,159.2 313.7,166.7 309.4,174.1 304.9,181.3 300.4,188.3 295.7,195.1 290.9,201.8 286.0,208.3 281.0,214.6 275.8,220.8 270.5,226.8 265.1,232.7 259.5,238.4 253.8,244.0 247.9,249.5 241.9,254.8 235.8,260.0 229.5,265.1 223.0,270.0 216.4,274.8 209.6,279.5 202.6,284.1 195.5,288.6 188.1,292.9 180.6,297.2 172.9,301.3 165.0,305.4 156.9,309.3 148.6,313.1 140.1,316.9 131.3,320.5 122.4,324.1 113.2,327.6 103.8,331.0 94.2,334.3 84.3,337.5 74.1,340.7 63.7,343.7 53.0,346.7" fill="none" stroke="#4ade80" stroke-width="2.6" stroke-opacity="0.72" stroke-linejoin="round" stroke-linecap="round"/>
<polyline points="448.5,128.0 447.6,136.3 446.7,144.4 445.7,152.3 444.7,160.0 443.7,167.6 442.6,174.9 441.6,182.1 440.5,189.1 439.3,195.9 438.2,202.5 437.0,209.0 435.8,215.3 434.5,221.5 433.2,227.5 431.9,233.4 430.6,239.1 429.2,244.7 427.8,250.1 426.4,255.4 424.9,260.6 423.4,265.6 421.8,270.5 420.2,275.3 418.5,280.0 416.9,284.6 415.1,289.0 413.4,293.4 411.6,297.6 409.7,301.8 407.8,305.8 405.8,309.7 403.8,313.6 401.8,317.3 399.7,320.9 397.5,324.5 395.3,328.0 393.0,331.4 390.7,334.7 388.3,337.9 385.9,341.0 383.4,344.1 380.8,347.1 378.1,350.0 375.4,352.8 372.7,355.6 369.8,358.3 366.9,360.9 363.9,363.5 360.9,366.0 357.7,368.4 354.5,370.8 351.2,373.1 347.8,375.4 344.3,377.6 340.8,379.8 337.1,381.9 333.4,383.9 329.5,385.9 325.6,387.9 321.6,389.8 317.4,391.7 313.2,393.5 308.8,395.2 304.4,397.0 299.8,398.6 295.1,400.3 290.3,401.9 285.4,403.4 280.3,404.9 275.1,406.4 269.8,407.9 264.4,409.3 258.8,410.7 253.1,412.0 247.2,413.3 241.2,414.6 235.0,415.8 228.7,417.0 222.2,418.2 215.5,419.4 208.7,420.5 201.7,421.6 194.5,422.7 187.2,423.7 179.6,424.7 171.9,425.7 164.0,426.7 155.9,427.7 147.5,428.6 139.0,429.5 130.2,430.4 121.3,431.2 112.0,432.0 102.6,432.9 92.9,433.6 83.0,434.4 72.8,435.2 62.4,435.9 51.7,436.6" fill="none" stroke="#4ade80" stroke-width="2.6" stroke-opacity="0.72" stroke-linejoin="round" stroke-linecap="round"/>
<polyline points="525.9,126.6 526.9,134.9 528.0,143.1 529.0,151.0 530.2,158.8 531.3,166.3 532.5,173.7 533.7,180.9 534.9,187.9 536.2,194.8 537.5,201.4 538.8,207.9 540.2,214.3 541.6,220.5 543.0,226.5 544.5,232.4 546.0,238.1 547.5,243.7 549.1,249.2 550.7,254.5 552.4,259.7 554.1,264.8 555.8,269.7 557.6,274.6 559.5,279.3 561.3,283.9 563.3,288.3 565.3,292.7 567.3,296.9 569.4,301.1 571.5,305.1 573.7,309.1 575.9,312.9 578.2,316.7 580.6,320.4 583.0,323.9 585.5,327.4 588.0,330.8 590.7,334.1 593.3,337.3 596.1,340.5 598.9,343.6 601.8,346.6 604.7,349.5 607.8,352.3 610.9,355.1 614.0,357.8 617.3,360.5 620.7,363.1 624.1,365.6 627.6,368.0 631.2,370.4 634.9,372.8 638.7,375.0 642.6,377.3 646.6,379.4 650.7,381.5 654.9,383.6 659.2,385.6 663.6,387.6 668.1,389.5 672.8,391.4 677.5,393.2 682.4,394.9 687.4,396.7 692.5,398.4 697.8,400.0 703.1,401.6 708.7,403.2 714.3,404.7 720.1,406.2 726.1,407.6 732.2,409.1 738.4,410.4 744.9,411.8 751.4,413.1 758.2,414.4 765.1,415.6 772.2,416.9 779.5,418.0 786.9,419.2 794.6,420.3 802.4,421.4 810.4,422.5 818.7,423.6 827.1,424.6 835.8,425.6 844.7,426.6 853.8,427.5 863.1,428.4 872.7,429.3 882.5,430.2 892.6,431.1 902.9,431.9 913.4,432.7" fill="none" stroke="#4ade80" stroke-width="2.6" stroke-opacity="0.72" stroke-linejoin="round" stroke-linecap="round"/>
<polyline points="587.7,801.6 590.3,793.3 593.0,785.2 595.7,777.3 598.5,769.5 601.4,762.0 604.3,754.7 607.4,747.5 610.5,740.6 613.6,733.8 616.9,727.1 620.2,720.7 623.6,714.3 627.2,708.2 630.8,702.2 634.4,696.3 638.2,690.6 642.1,685.0 646.1,679.6 650.2,674.3 654.3,669.1 658.6,664.1 663.0,659.2 667.5,654.4 672.2,649.7 676.9,645.2 681.7,640.7 686.7,636.4 691.8,632.1 697.1,628.0 702.4,624.0 707.9,620.1 713.6,616.2 719.4,612.5 725.3,608.9 731.4,605.3 737.6,601.8 744.0,598.5 750.6,595.2 757.3,592.0 764.2,588.8 771.3,585.8 778.5,582.8 785.9,579.9 793.6,577.0 801.4,574.3 809.4,571.6 817.6,568.9 826.0,566.4 834.6,563.9 843.5,561.4 852.6,559.1 861.9,556.7 871.4,554.5 881.2,552.3 891.2,550.1 901.5,548.0 912.1,545.9" fill="none" stroke="#4ade80" stroke-width="2.6" stroke-opacity="0.72" stroke-linejoin="round" stroke-linecap="round"/>
<polyline points="485.0,126.6 485.0,134.9 485.0,143.1 485.0,151.0 485.0,158.8 485.0,166.3 485.0,173.7 485.0,180.9 485.0,187.9 485.0,194.8 485.0,201.4 485.0,207.9 485.0,214.3 485.0,220.5 485.0,226.5 485.0,232.4 485.0,238.1 485.0,243.7 485.0,249.2 485.0,254.5 485.0,259.7 485.0,264.8 485.0,269.7 485.0,274.6 485.0,279.3 485.0,283.9 485.0,288.3 485.0,292.7 485.0,296.9 485.0,301.1 485.0,305.1 485.0,309.1 485.0,312.9 485.0,316.7 485.0,320.4 485.0,323.9 485.0,327.4 485.0,330.8 485.0,334.1 485.0,337.3 485.0,340.5 485.0,343.6 485.0,346.6 485.0,349.5 485.0,352.3 485.0,355.1 485.0,357.8 485.0,360.5 485.0,363.1 485.0,365.6 485.0,368.0 485.0,370.4 485.0,372.8 485.0,375.0 485.0,377.3 485.0,379.4 485.0,381.5 485.0,383.6 485.0,385.6 485.0,387.6 485.0,389.5 485.0,391.4 485.0,393.2 485.0,394.9 485.0,396.7 485.0,398.4 485.0,400.0 485.0,401.6 485.0,403.2 485.0,404.7 485.0,406.2 485.0,407.6 485.0,409.1 485.0,410.4 485.0,411.8 485.0,413.1 485.0,414.4 485.0,415.6 485.0,416.9 485.0,418.0 485.0,419.2 485.0,420.3 485.0,421.4 485.0,422.5 485.0,423.6 485.0,424.6 485.0,425.6 485.0,426.6 485.0,427.5 485.0,428.4 485.0,429.3 485.0,430.2 485.0,431.1 485.0,431.9 485.0,432.7 485.0,433.5 485.0,434.3 485.0,435.1 485.0,435.8 485.0,436.5 485.0,437.2 485.0,437.9 485.0,438.6 485.0,439.2 485.0,439.9 485.0,440.5 485.0,441.1 485.0,441.7 485.0,442.3 485.0,442.8 485.0,443.4 485.0,443.9 485.0,444.4 485.0,444.9 485.0,445.4 485.0,445.9 485.0,446.4 485.0,446.8 485.0,447.3 485.0,447.7 485.0,448.2 485.0,448.6 485.0,449.0 485.0,449.4 485.0,449.8 485.0,450.1 485.0,450.5 485.0,450.9 485.0,451.2 485.0,451.5 485.0,451.9 485.0,452.2 485.0,452.5 485.0,452.8 485.0,453.1 485.0,453.4 485.0,453.7 485.0,454.0 485.0,454.3 485.0,454.5 485.0,454.8 485.0,455.0 485.0,455.3 485.0,455.5 485.0,455.8 485.0,456.0 485.0,456.2 485.0,456.4 485.0,456.6 485.0,456.8 485.0,457.0 485.0,457.2 485.0,457.4 485.0,457.6 485.0,457.8 485.0,458.0 485.0,458.1 485.0,458.3 485.0,458.5 485.0,458.6 485.0,458.8 485.0,459.0 485.0,459.1 485.0,459.2 485.0,459.4 485.0,459.5 485.0,459.7 485.0,459.8 485.0,459.9 485.0,460.1 485.0,460.2 485.0,460.3 485.0,460.4 485.0,460.5 485.0,460.6 485.0,460.7 485.0,460.8 485.0,460.9 485.0,461.0 485.0,461.1 485.0,461.2 485.0,461.3 485.0,461.4 485.0,461.5 485.0,461.6 485.0,461.7 485.0,461.8 485.0,461.8 485.0,461.9 485.0,462.0 485.0,462.1 485.0,462.1 485.0,462.2 485.0,462.3 485.0,462.4 485.0,462.4 485.0,462.5 485.0,462.5 485.0,462.6 485.0,462.7 485.0,462.7 485.0,462.8 485.0,462.8 485.0,462.9 485.0,462.9 485.0,463.0 485.0,463.0 485.0,463.1 485.0,463.1 485.0,463.2 485.0,463.2 485.0,463.3 485.0,463.3 485.0,463.4 485.0,463.4 485.0,463.4 485.0,463.5 485.0,463.5 485.0,463.5 485.0,463.6 485.0,463.6 485.0,463.7 485.0,463.7 485.0,463.7 485.0,463.7 485.0,463.8 485.0,463.8 485.0,463.8 485.0,463.9 485.0,463.9 485.0,463.9 485.0,463.9 485.0,464.0 485.0,464.0 485.0,464.0 485.0,464.0 485.0,464.1 485.0,464.1 485.0,464.1 485.0,464.1 485.0,464.2 485.0,464.2 485.0,464.2 485.0,464.2 485.0,464.2 485.0,464.3 485.0,464.3 485.0,464.3 485.0,464.3 485.0,464.3 485.0,464.3 485.0,464.4 485.0,464.4 485.0,464.4 485.0,464.4 485.0,464.4 485.0,464.4 485.0,464.5 485.0,464.5 485.0,464.5 485.0,464.5 485.0,464.5 485.0,464.5 485.0,464.5 485.0,464.5 485.0,464.6 485.0,464.6 485.0,464.6 485.0,464.6 485.0,464.6 485.0,464.6 485.0,464.6 485.0,464.6 485.0,464.6 485.0,464.6 485.0,464.7 485.0,464.7 485.0,464.7 485.0,464.7 485.0,464.7 485.0,464.7 485.0,464.7 485.0,464.7 485.0,464.7 485.0,464.7 485.0,464.7 485.0,464.7 485.0,464.7 485.0,464.7 485.0,464.8 485.0,464.8 485.0,464.8 485.0,464.8 485.0,464.8 485.0,464.8 485.0,464.8 485.0,464.8 485.0,464.8 485.0,464.8 485.0,464.8 485.0,464.8 485.0,464.8 485.0,464.8 485.0,464.8 485.0,464.8 485.0,464.8 485.0,464.8 485.0,464.8 485.0,464.8 485.0,464.9 485.0,464.9 485.0,464.9 485.0,464.9 485.0,464.9 485.0,464.9 485.0,464.9 485.0,464.9 485.0,464.9 485.0,464.9 485.0,464.9 485.0,464.9 485.0,464.9 485.0,464.9 485.0,464.9 485.0,464.9 485.0,464.9 485.0,464.9 485.0,464.9 485.0,464.9 485.0,464.9 485.0,464.9 485.0,464.9 485.0,464.9 485.0,464.9 485.0,464.9 485.0,464.9 485.0,464.9 485.0,464.9 485.0,464.9 485.0,464.9 485.0,464.9 485.0,464.9 485.0,464.9 485.0,464.9 485.0,464.9 485.0,464.9 485.0,464.9 485.0,464.9 485.0,464.9 485.0,464.9 485.0,464.9 485.0,464.9 485.0,464.9 485.0,465.0 485.0,465.0 485.0,465.0 485.0,465.0 485.0,465.0 485.0,465.0 485.0,465.0 485.0,465.0 485.0,465.0 485.0,465.0 485.0,465.0 485.0,465.0 485.0,465.0 485.0,465.0 485.0,465.0 485.0,465.0 485.0,465.0 485.0,465.0 485.0,465.0 485.0,465.0 485.0,465.0 485.0,465.0 485.0,465.0 485.0,465.0 485.0,465.0 485.0,465.0 485.0,465.0 485.0,465.0 485.0,465.0 485.0,465.0 485.0,465.0 485.0,465.0 485.0,465.0 485.0,465.0 485.0,465.0 485.0,465.0 485.0,465.0 485.0,465.0 485.0,465.0 485.0,465.0 485.0,465.0 485.0,465.0 485.0,465.0 485.0,465.0 485.0,465.0 485.0,465.0 485.0,465.0 485.0,465.0 485.0,465.0 485.0,465.0 485.0,465.0 485.0,465.0 485.0,465.0 485.0,465.0 485.0,465.0 485.0,465.0 485.0,465.0 485.0,465.0 485.0,465.0 485.0,465.0 485.0,465.0 485.0,465.0 485.0,465.0 485.0,465.0 485.0,465.0 485.0,465.0 485.0,465.0 485.0,465.0 485.0,465.0 485.0,465.0 485.0,465.0 485.0,465.0 485.0,465.0 485.0,465.0 485.0,465.0 485.0,465.0 485.0,465.0 485.0,465.0 485.0,465.0 485.0,465.0 485.0,465.0 485.0,465.0 485.0,465.0 485.0,465.0 485.0,465.0 485.0,465.0 485.0,465.0 485.0,465.0 485.0,465.0 485.0,465.0 485.0,465.0 485.0,465.0 485.0,465.0 485.0,465.0 485.0,465.0 485.0,465.0 485.0,465.0 485.0,465.0 485.0,465.0 485.0,465.0 485.0,465.0 485.0,465.0 485.0,465.0 485.0,465.0 485.0,465.0 485.0,465.0 485.0,465.0 485.0,465.0 485.0,465.0 485.0,465.0 485.0,465.0 485.0,465.0 485.0,465.0 485.0,465.0 485.0,465.0 485.0,465.0 485.0,465.0 485.0,465.0 485.0,465.0 485.0,465.0 485.0,465.0 485.0,465.0 485.0,465.0 485.0,465.0 485.0,465.0 485.0,465.0 485.0,465.0 485.0,465.0 485.0,465.0 485.0,465.0 485.0,465.0 485.0,465.0 485.0,465.0 485.0,465.0 485.0,465.0 485.0,465.0 485.0,465.0 485.0,465.0 485.0,465.0 485.0,465.0 485.0,465.0 485.0,465.0 485.0,465.0 485.0,465.0 485.0,465.0 485.0,465.0 485.0,465.0 485.0,465.0 485.0,465.0 485.0,465.0 485.0,465.0 485.0,465.0 485.0,465.0 485.0,465.0 485.0,465.0 485.0,465.0 485.0,465.0 485.0,465.0 485.0,465.0 485.0,465.0 485.0,465.0 485.0,465.0 485.0,465.0 485.0,465.0 485.0,465.0 485.0,465.0 485.0,465.0 485.0,465.0 485.0,465.0 485.0,465.0 485.0,465.0 485.0,465.0 485.0,465.0 485.0,465.0 485.0,465.0 485.0,465.0 485.0,465.0 485.0,465.0 485.0,465.0 485.0,465.0 485.0,465.0 485.0,465.0 485.0,465.0 485.0,465.0 485.0,465.0 485.0,465.0 485.0,465.0 485.0,465.0 485.0,465.0 485.0,465.0 485.0,465.0 485.0,465.0 485.0,465.0 485.0,465.0 485.0,465.0 485.0,465.0 485.0,465.0 485.0,465.0 485.0,465.0 485.0,465.0 485.0,465.0 485.0,465.0 485.0,465.0 485.0,465.0 485.0,465.0 485.0,465.0 485.0,465.0 485.0,465.0 485.0,465.0 485.0,465.0 485.0,465.0 485.0,465.0 485.0,465.0 485.0,465.0 485.0,465.0 485.0,465.0 485.0,465.0 485.0,465.0 485.0,465.0 485.0,465.0 485.0,465.0 485.0,465.0 485.0,465.0 485.0,465.0 485.0,465.0 485.0,465.0 485.0,465.0 485.0,465.0 485.0,465.0 485.0,465.0 485.0,465.0 485.0,465.0 485.0,465.0 485.0,465.0 485.0,465.0 485.0,465.0 485.0,465.0 485.0,465.0 485.0,465.0 485.0,465.0 485.0,465.0 485.0,465.0 485.0,465.0 485.0,465.0 485.0,465.0 485.0,465.0 485.0,465.0 485.0,465.0 485.0,465.0 485.0,465.0 485.0,465.0 485.0,465.0 485.0,465.0 485.0,465.0 485.0,465.0 485.0,465.0 485.0,465.0 485.0,465.0 485.0,465.0 485.0,465.0 485.0,465.0 485.0,465.0 485.0,465.0 485.0,465.0 485.0,465.0 485.0,465.0 485.0,465.0 485.0,465.0 485.0,465.0 485.0,465.0 485.0,465.0 485.0,465.0 485.0,465.0 485.0,465.0 485.0,465.0 485.0,465.0 485.0,465.0 485.0,465.0 485.0,465.0 485.0,465.0 485.0,465.0 485.0,465.0 485.0,465.0 485.0,465.0 485.0,465.0 485.0,465.0 485.0,465.0 485.0,465.0 485.0,465.0 485.0,465.0 485.0,465.0 485.0,465.0 485.0,465.0 485.0,465.0 485.0,465.0 485.0,465.0 485.0,465.0 485.0,465.0 485.0,465.0 485.0,465.0 485.0,465.0 485.0,465.0 485.0,465.0 485.0,465.0 485.0,465.0 485.0,465.0 485.0,465.0 485.0,465.0 485.0,465.0 485.0,465.0 485.0,465.0 485.0,465.0 485.0,465.0 485.0,465.0 485.0,465.0 485.0,465.0 485.0,465.0 485.0,465.0 485.0,465.0 485.0,465.0 485.0,465.0 485.0,465.0 485.0,465.0 485.0,465.0 485.0,465.0 485.0,465.0 485.0,465.0 485.0,465.0 485.0,465.0 485.0,465.0 485.0,465.0 485.0,465.0 485.0,465.0 485.0,465.0 485.0,465.0 485.0,465.0 485.0,465.0 485.0,465.0 485.0,465.0 485.0,465.0 485.0,465.0 485.0,465.0 485.0,465.0 485.0,465.0 485.0,465.0 485.0,465.0 485.0,465.0 485.0,465.0 485.0,465.0 485.0,465.0 485.0,465.0 485.0,465.0 485.0,465.0 485.0,465.0 485.0,465.0 485.0,465.0 485.0,465.0 485.0,465.0 485.0,465.0 485.0,465.0 485.0,465.0 485.0,465.0 485.0,465.0 485.0,465.0 485.0,465.0 485.0,465.0 485.0,465.0 485.0,465.0 485.0,465.0 485.0,465.0 485.0,465.0 485.0,465.0 485.0,465.0 485.0,465.0 485.0,465.0 485.0,465.0 485.0,465.0 485.0,465.0 485.0,465.0 485.0,465.0 485.0,465.0 485.0,465.0 485.0,465.0 485.0,465.0 485.0,465.0 485.0,465.0 485.0,465.0 485.0,465.0 485.0,465.0 485.0,465.0 485.0,465.0 485.0,465.0 485.0,465.0 485.0,465.0 485.0,465.0 485.0,465.0 485.0,465.0 485.0,465.0 485.0,465.0 485.0,465.0 485.0,465.0 485.0,465.0 485.0,465.0 485.0,465.0 485.0,465.0 485.0,465.0 485.0,465.0 485.0,465.0 485.0,465.0 485.0,465.0 485.0,465.0 485.0,465.0 485.0,465.0 485.0,465.0 485.0,465.0 485.0,465.0 485.0,465.0 485.0,465.0 485.0,465.0 485.0,465.0 485.0,465.0 485.0,465.0 485.0,465.0 485.0,465.0 485.0,465.0 485.0,465.0 485.0,465.0 485.0,465.0 485.0,465.0 485.0,465.0 485.0,465.0 485.0,465.0 485.0,465.0 485.0,465.0 485.0,465.0 485.0,465.0 485.0,465.0 485.0,465.0 485.0,465.0 485.0,465.0 485.0,465.0 485.0,465.0 485.0,465.0 485.0,465.0 485.0,465.0 485.0,465.0 485.0,465.0 485.0,465.0 485.0,465.0 485.0,465.0 485.0,465.0 485.0,465.0 485.0,465.0 485.0,465.0 485.0,465.0 485.0,465.0 485.0,465.0 485.0,465.0 485.0,465.0 485.0,465.0 485.0,465.0 485.0,465.0 485.0,465.0 485.0,465.0 485.0,465.0 485.0,465.0 485.0,465.0 485.0,465.0 485.0,465.0 485.0,465.0 485.0,465.0 485.0,465.0 485.0,465.0 485.0,465.0 485.0,465.0 485.0,465.0 485.0,465.0 485.0,465.0 485.0,465.0 485.0,465.0 485.0,465.0 485.0,465.0 485.0,465.0 485.0,465.0 485.0,465.0 485.0,465.0 485.0,465.0 485.0,465.0 485.0,465.0 485.0,465.0 485.0,465.0 485.0,465.0 485.0,465.0 485.0,465.0 485.0,465.0 485.0,465.0 485.0,465.0 485.0,465.0 485.0,465.0 485.0,465.0 485.0,465.0 485.0,465.0 485.0,465.0 485.0,465.0 485.0,465.0 485.0,465.0 485.0,465.0 485.0,465.0 485.0,465.0 485.0,465.0 485.0,465.0 485.0,465.0 485.0,465.0 485.0,465.0 485.0,465.0 485.0,465.0 485.0,465.0 485.0,465.0 485.0,465.0 485.0,465.0 485.0,465.0 485.0,465.0 485.0,465.0 485.0,465.0 485.0,465.0 485.0,465.0 485.0,465.0 485.0,465.0 485.0,465.0 485.0,465.0 485.0,465.0 485.0,465.0 485.0,465.0 485.0,465.0 485.0,465.0 485.0,465.0 485.0,465.0 485.0,465.0 485.0,465.0 485.0,465.0 485.0,465.0 485.0,465.0 485.0,465.0 485.0,465.0 485.0,465.0 485.0,465.0 485.0,465.0 485.0,465.0 485.0,465.0 485.0,465.0 485.0,465.0 485.0,465.0 485.0,465.0 485.0,465.0 485.0,465.0 485.0,465.0 485.0,465.0 485.0,465.0 485.0,465.0 485.0,465.0 485.0,465.0 485.0,465.0 485.0,465.0 485.0,465.0 485.0,465.0 485.0,465.0 485.0,465.0 485.0,465.0 485.0,465.0 485.0,465.0 485.0,465.0 485.0,465.0 485.0,465.0 485.0,465.0 485.0,465.0 485.0,465.0 485.0,465.0 485.0,465.0 485.0,465.0 485.0,465.0 485.0,465.0 485.0,465.0 485.0,465.0 485.0,465.0 485.0,465.0 485.0,465.0 485.0,465.0 485.0,465.0 485.0,465.0 485.0,465.0 485.0,465.0 485.0,465.0 485.0,465.0 485.0,465.0 485.0,465.0 485.0,465.0 485.0,465.0 485.0,465.0 485.0,465.0 485.0,465.0 485.0,465.0 485.0,465.0 485.0,465.0 485.0,465.0 485.0,465.0 485.0,465.0 485.0,465.0 485.0,465.0 485.0,465.0 485.0,465.0 485.0,465.0 485.0,465.0 485.0,465.0 485.0,465.0 485.0,465.0 485.0,465.0 485.0,465.0 485.0,465.0 485.0,465.0 485.0,465.0 485.0,465.0 485.0,465.0 485.0,465.0 485.0,465.0 485.0,465.0 485.0,465.0 485.0,465.0 485.0,465.0 485.0,465.0 485.0,465.0 485.0,465.0 485.0,465.0 485.0,465.0 485.0,465.0 485.0,465.0 485.0,465.0 485.0,465.0 485.0,465.0 485.0,465.0 485.0,465.0 485.0,465.0 485.0,465.0 485.0,465.0 485.0,465.0 485.0,465.0 485.0,465.0 485.0,465.0 485.0,465.0 485.0,465.0 485.0,465.0 485.0,465.0 485.0,465.0 485.0,465.0 485.0,465.0 485.0,465.0 485.0,465.0 485.0,465.0 485.0,465.0 485.0,465.0 485.0,465.0 485.0,465.0 485.0,465.0 485.0,465.0 485.0,465.0 485.0,465.0" fill="none" stroke="#4ade80" stroke-width="2.6" stroke-opacity="0.72" stroke-linejoin="round" stroke-linecap="round"/>
<polyline points="485.0,465.0 485.0,465.0 485.0,465.0 485.0,465.0 485.0,465.0 485.0,465.0 485.0,465.0 485.0,465.0 485.0,465.0 485.0,465.0 485.0,465.0 485.0,465.0 485.0,465.0 485.0,465.0 485.0,465.0 485.0,465.0 485.0,465.0 485.0,465.0 485.0,465.0 485.0,465.0 485.0,465.0 485.0,465.0 485.0,465.0 485.0,465.0 485.0,465.0 485.0,465.0 485.0,465.0 485.0,465.0 485.0,465.0 485.0,465.0 485.0,465.0 485.0,465.0 485.0,465.0 485.0,465.0 485.0,465.0 485.0,465.0 485.0,465.0 485.0,465.0 485.0,465.0 485.0,465.0 485.0,465.0 485.0,465.0 485.0,465.0 485.0,465.0 485.0,465.0 485.0,465.0 485.0,465.0 485.0,465.0 485.0,465.0 485.0,465.0 485.0,465.0 485.0,465.0 485.0,465.0 485.0,465.0 485.0,465.0 485.0,465.0 485.0,465.0 485.0,465.0 485.0,465.0 485.0,465.0 485.0,465.0 485.0,465.0 485.0,465.0 485.0,465.0 485.0,465.0 485.0,465.0 485.0,465.0 485.0,465.0 485.0,465.0 485.0,465.0 485.0,465.0 485.0,465.0 485.0,465.0 485.0,465.0 485.0,465.0 485.0,465.0 485.0,465.0 485.0,465.0 485.0,465.0 485.0,465.0 485.0,465.0 485.0,465.0 485.0,465.0 485.0,465.0 485.0,465.0 485.0,465.0 485.0,465.0 485.0,465.0 485.0,465.0 485.0,465.0 485.0,465.0 485.0,465.0 485.0,465.0 485.0,465.0 485.0,465.0 485.0,465.0 485.0,465.0 485.0,465.0 485.0,465.0 485.0,465.0 485.0,465.0 485.0,465.0 485.0,465.0 485.0,465.0 485.0,465.0 485.0,465.0 485.0,465.0 485.0,465.0 485.0,465.0 485.0,465.0 485.0,465.0 485.0,465.0 485.0,465.0 485.0,465.0 485.0,465.0 485.0,465.0 485.0,465.0 485.0,465.0 485.0,465.0 485.0,465.0 485.0,465.0 485.0,465.0 485.0,465.0 485.0,465.0 485.0,465.0 485.0,465.0 485.0,465.0 485.0,465.0 485.0,465.0 485.0,465.0 485.0,465.0 485.0,465.0 485.0,465.0 485.0,465.0 485.0,465.0 485.0,465.0 485.0,465.0 485.0,465.0 485.0,465.0 485.0,465.0 485.0,465.0 485.0,465.0 485.0,465.0 485.0,465.0 485.0,465.0 485.0,465.0 485.0,465.0 485.0,465.0 485.0,465.0 485.0,465.0 485.0,465.0 485.0,465.0 485.0,465.0 485.0,465.0 485.0,465.0 485.1,465.0 485.1,465.0 485.1,465.0 485.1,465.0 485.1,465.0 485.1,465.0 485.1,465.0 485.1,465.0 485.1,465.0 485.1,465.0 485.1,465.0 485.1,465.0 485.1,465.0 485.1,465.0 485.1,465.0 485.1,465.0 485.1,465.0 485.1,465.0 485.1,465.0 485.1,465.0 485.1,465.0 485.1,465.0 485.1,465.0 485.1,465.0 485.1,465.0 485.1,465.0 485.1,465.0 485.1,465.0 485.1,465.0 485.1,465.0 485.1,465.0 485.1,465.0 485.1,465.0 485.1,465.0 485.1,465.0 485.1,465.0 485.1,465.0 485.1,465.0 485.1,465.0 485.1,465.0 485.1,465.0 485.1,465.0 485.1,465.0 485.1,465.0 485.2,465.0 485.2,465.0 485.2,465.0 485.2,465.0 485.2,465.0 485.2,465.0 485.2,465.0 485.2,465.0 485.2,465.0 485.2,465.0 485.2,465.0 485.2,465.0 485.2,465.0 485.2,465.0 485.2,465.0 485.2,465.0 485.2,465.0 485.2,465.0 485.2,465.0 485.2,465.0 485.3,465.0 485.3,465.0 485.3,465.0 485.3,465.0 485.3,465.0 485.3,465.0 485.3,465.0 485.3,465.0 485.3,465.0 485.3,465.0 485.3,465.0 485.3,465.0 485.3,465.0 485.3,465.0 485.4,465.0 485.4,465.0 485.4,465.0 485.4,465.0 485.4,465.0 485.4,465.0 485.4,465.0 485.4,465.0 485.4,465.0 485.4,465.0 485.5,465.0 485.5,465.0 485.5,465.0 485.5,465.0 485.5,465.0 485.5,465.0 485.5,465.0 485.5,465.0 485.6,465.0 485.6,465.0 485.6,465.0 485.6,465.0 485.6,465.0 485.6,465.0 485.6,465.0 485.7,465.0 485.7,465.0 485.7,465.0 485.7,465.0 485.7,465.0 485.8,465.0 485.8,465.0 485.8,465.0 485.8,465.0 485.8,465.0 485.9,465.0 485.9,465.0 485.9,465.0 485.9,465.0 485.9,465.0 486.0,465.0 486.0,465.0 486.0,465.0 486.0,465.0 486.1,465.0 486.1,465.0 486.1,465.0 486.1,465.0 486.2,465.0 486.2,465.0 486.2,465.0 486.3,465.0 486.3,465.0 486.3,465.0 486.4,465.0 486.4,465.0 486.4,465.0 486.5,465.0 486.5,465.0 486.6,465.0 486.6,465.0 486.6,465.0 486.7,465.0 486.7,465.0 486.8,465.0 486.8,465.0 486.8,465.0 486.9,465.0 486.9,465.0 487.0,465.0 487.0,465.0 487.1,465.0 487.1,465.0 487.2,465.0 487.3,465.0 487.3,465.0 487.4,465.0 487.4,465.0 487.5,465.0 487.6,465.0 487.6,465.0 487.7,465.0 487.8,465.0 487.8,465.0 487.9,465.0 488.0,465.0 488.0,465.0 488.1,465.0 488.2,465.0 488.3,465.0 488.4,465.0 488.5,465.0 488.5,465.0 488.6,465.0 488.7,465.0 488.8,465.0 488.9,465.0 489.0,465.0 489.1,465.0 489.2,465.0 489.3,465.0 489.4,465.0 489.5,465.0 489.7,465.0 489.8,465.0 489.9,465.0 490.0,465.0 490.2,465.0 490.3,465.0 490.4,465.0 490.6,465.0 490.7,465.0 490.8,465.0 491.0,465.0 491.1,465.0 491.3,465.0 491.5,465.0 491.6,465.0 491.8,465.0 492.0,465.0 492.1,465.0 492.3,465.0 492.5,465.0 492.7,465.0 492.9,465.0 493.1,465.0 493.3,465.0 493.5,465.0 493.7,465.0 493.9,465.0 494.2,465.0 494.4,465.0 494.6,465.0 494.9,465.0 495.1,465.0 495.4,465.0 495.6,465.0 495.9,465.0 496.2,465.0 496.5,465.0 496.8,465.0 497.1,465.0 497.4,465.0 497.7,465.0 498.0,465.0 498.3,465.0 498.7,465.0 499.0,465.0 499.4,465.0 499.7,465.0 500.1,465.0 500.5,465.0 500.9,465.0 501.3,465.0 501.7,465.0 502.1,465.0 502.5,465.0 503.0,465.0 503.4,465.0 503.9,465.0 504.4,465.0 504.9,465.0 505.4,465.0 505.9,465.0 506.4,465.0 507.0,465.0 507.5,465.0 508.1,465.0 508.7,465.0 509.3,465.0 509.9,465.0 510.5,465.0 511.2,465.0 511.8,465.0 512.5,465.0 513.2,465.0 513.9,465.0 514.6,465.0 515.4,465.0 516.2,465.0 517.0,465.0 517.8,465.0 518.6,465.0 519.4,465.0 520.3,465.0 521.2,465.0 522.1,465.0 523.1,465.0 524.0,465.0 525.0,465.0 526.0,465.0 527.1,465.0 528.1,465.0 529.2,465.0 530.3,465.0 531.5,465.0 532.7,465.0 533.9,465.0 535.1,465.0 536.4,465.0 537.7,465.0 539.0,465.0 540.4,465.0 541.8,465.0 543.2,465.0 544.7,465.0 546.2,465.0 547.8,465.0 549.3,465.0 551.0,465.0 552.6,465.0 554.4,465.0 556.1,465.0 557.9,465.0 559.8,465.0 561.6,465.0 563.6,465.0 565.6,465.0 567.6,465.0 569.7,465.0 571.9,465.0 574.1,465.0 576.3,465.0 578.6,465.0 581.0,465.0 583.4,465.0 585.9,465.0 588.5,465.0 591.1,465.0 593.8,465.0 596.5,465.0 599.3,465.0 602.2,465.0 605.2,465.0 608.3,465.0 611.4,465.0 614.6,465.0 617.9,465.0 621.2,465.0 624.7,465.0 628.2,465.0 631.8,465.0 635.5,465.0 639.4,465.0 643.3,465.0 647.3,465.0 651.4,465.0 655.6,465.0 659.9,465.0 664.3,465.0 668.9,465.0 673.5,465.0 678.3,465.0 683.2,465.0 688.2,465.0 693.4,465.0 698.6,465.0 704.0,465.0 709.6,465.0 715.3,465.0 721.1,465.0 727.1,465.0 733.2,465.0 739.5,465.0 745.9,465.0 752.5,465.0 759.3,465.0 766.3,465.0 773.4,465.0 780.7,465.0 788.2,465.0 795.8,465.0 803.7,465.0 811.8,465.0 820.0,465.0 828.5,465.0 837.2,465.0 846.1,465.0 855.3,465.0 864.6,465.0 874.3,465.0 884.1,465.0 894.2,465.0 904.6,465.0 915.2,465.0" fill="none" stroke="#4ade80" stroke-width="2.6" stroke-opacity="0.72" stroke-linejoin="round" stroke-linecap="round"/>
<circle cx="485.0" cy="465.0" r="6.0" fill="#f8fafc" opacity="1.0"/>
<text x="110.0" y="788.0" class="small" text-anchor="start">Generated from a standard-library Python gallery: vector field + nullclines + trajectories.</text>
</svg>
