<svg xmlns="http://www.w3.org/2000/svg" viewBox="0 0 1440 920">
<defs>
  <linearGradient id="bg" x1="0" y1="0" x2="1" y2="1">
    <stop offset="0%" stop-color="#081018"/>
    <stop offset="100%" stop-color="#101d2a"/>
  </linearGradient>
  <style>
    .title { font: 700 34px Helvetica, Arial, sans-serif; fill: #e6edf3; }
    .subtitle { font: 500 18px Helvetica, Arial, sans-serif; fill: #9fb3c8; }
    .label { font: 700 20px Helvetica, Arial, sans-serif; fill: #dce7f3; }
    .small { font: 500 15px Helvetica, Arial, sans-serif; fill: #9fb3c8; }
    .tiny { font: 500 13px Helvetica, Arial, sans-serif; fill: #8aa3bc; }
    .panel { fill: #122131; stroke: #5e7fa3; stroke-width: 2; rx: 18; }
    .grid { stroke: #223445; stroke-width: 1; opacity: 0.8; }
    .axis { stroke: #39516a; stroke-width: 2; }
  </style>
</defs>
<rect width="1440" height="920" fill="url(#bg)"/>
<rect x="70" y="136" width="1310" height="712" rx="18" class="panel"/>
<rect x="900" y="150" width="480" height="678" rx="18" fill="#0f1b28" stroke="#5e7fa3" stroke-width="1.6"/>
<text x="90.0" y="68.0" class="title" text-anchor="start">Linear saddle</text>
<text x="90.0" y="98.0" class="subtitle"><tspan x="90.0" dy="0">The cleanest local-stability example in the repo: one axis attracts, the other repels.</tspan></text>
<text x="928.0" y="188.0" class="label" text-anchor="start">Legend</text>
<text x="966.0" y="234.0" class="small" text-anchor="start">trajectories</text>
<text x="966.0" y="270.0" class="small" text-anchor="start">dx/dt = 0</text>
<text x="966.0" y="306.0" class="small" text-anchor="start">dy/dt = 0</text>
<text x="966.0" y="342.0" class="small" text-anchor="start">fixed points</text>
<circle cx="938.0" cy="226.0" r="8.0" fill="#4ade80" opacity="1.0"/>
<line x1="922.0" y1="262.0" x2="954.0" y2="262.0" stroke="#f97316" stroke-width="4" opacity="1.0"/>
<line x1="922.0" y1="298.0" x2="954.0" y2="298.0" stroke="#60a5fa" stroke-width="4" opacity="1.0"/>
<circle cx="938.0" cy="334.0" r="7.0" fill="#f8fafc" opacity="1.0"/>
<text x="928.0" y="392.0" class="label" text-anchor="start">How to read it</text>
<text x="928.0" y="422.0" class="small"><tspan x="928.0" dy="0">The arrows show the local flow.</tspan></text>
<text x="928.0" y="468.0" class="small"><tspan x="928.0" dy="0">The colored curves show where one derivative</tspan><tspan x="928.0" dy="22.0">vanishes.</tspan></text>
<text x="928.0" y="530.0" class="small"><tspan x="928.0" dy="0">Trajectories reveal whether the fixed point</tspan><tspan x="928.0" dy="22.0">attracts, spirals, or closes into an orbit.</tspan></text>
<text x="928.0" y="620.0" class="label" text-anchor="start">Local fixed-point readout</text>
<text x="928.0" y="650.0" class="small"><tspan x="928.0" dy="0">1. (0.00, 0.00) → saddle</tspan></text>
<text x="946.0" y="670.0" class="tiny"><tspan x="946.0" dy="0">λ = 1.00, -1.00</tspan></text>
<line x1="118.0" y1="186.0" x2="118.0" y2="788.0" stroke="#223445" stroke-width="1" opacity="1.0"/>
<text x="118.0" y="816.0" class="tiny" text-anchor="middle">-2.4</text>
<line x1="266.4" y1="186.0" x2="266.4" y2="788.0" stroke="#223445" stroke-width="1" opacity="1.0"/>
<text x="266.4" y="816.0" class="tiny" text-anchor="middle">-1.4</text>
<line x1="414.8" y1="186.0" x2="414.8" y2="788.0" stroke="#223445" stroke-width="1" opacity="1.0"/>
<text x="414.8" y="816.0" class="tiny" text-anchor="middle">-0.5</text>
<line x1="563.2" y1="186.0" x2="563.2" y2="788.0" stroke="#223445" stroke-width="1" opacity="1.0"/>
<text x="563.2" y="816.0" class="tiny" text-anchor="middle">0.5</text>
<line x1="711.6" y1="186.0" x2="711.6" y2="788.0" stroke="#223445" stroke-width="1" opacity="1.0"/>
<text x="711.6" y="816.0" class="tiny" text-anchor="middle">1.4</text>
<line x1="860.0" y1="186.0" x2="860.0" y2="788.0" stroke="#223445" stroke-width="1" opacity="1.0"/>
<text x="860.0" y="816.0" class="tiny" text-anchor="middle">2.4</text>
<line x1="118.0" y1="788.0" x2="860.0" y2="788.0" stroke="#223445" stroke-width="1" opacity="1.0"/>
<text x="100.0" y="792.0" class="tiny" text-anchor="end">-2.4</text>
<line x1="118.0" y1="667.6" x2="860.0" y2="667.6" stroke="#223445" stroke-width="1" opacity="1.0"/>
<text x="100.0" y="671.6" class="tiny" text-anchor="end">-1.4</text>
<line x1="118.0" y1="547.2" x2="860.0" y2="547.2" stroke="#223445" stroke-width="1" opacity="1.0"/>
<text x="100.0" y="551.2" class="tiny" text-anchor="end">-0.5</text>
<line x1="118.0" y1="426.8" x2="860.0" y2="426.8" stroke="#223445" stroke-width="1" opacity="1.0"/>
<text x="100.0" y="430.8" class="tiny" text-anchor="end">0.5</text>
<line x1="118.0" y1="306.4" x2="860.0" y2="306.4" stroke="#223445" stroke-width="1" opacity="1.0"/>
<text x="100.0" y="310.4" class="tiny" text-anchor="end">1.4</text>
<line x1="118.0" y1="186.0" x2="860.0" y2="186.0" stroke="#223445" stroke-width="1" opacity="1.0"/>
<text x="100.0" y="190.0" class="tiny" text-anchor="end">2.4</text>
<line x1="489.0" y1="186.0" x2="489.0" y2="788.0" stroke="#39516a" stroke-width="2" opacity="1.0"/>
<line x1="118.0" y1="487.0" x2="860.0" y2="487.0" stroke="#39516a" stroke-width="2" opacity="1.0"/>
<line x1="118.0" y1="788.0" x2="107.5" y2="779.5" stroke="#4b6580" stroke-width="1.4" opacity="0.9"/>
<line x1="118.0" y1="737.8" x2="106.6" y2="730.1" stroke="#4b6580" stroke-width="1.4" opacity="0.9"/>
<line x1="118.0" y1="687.7" x2="105.7" y2="681.0" stroke="#4b6580" stroke-width="1.4" opacity="0.9"/>
<line x1="118.0" y1="637.5" x2="104.7" y2="632.1" stroke="#4b6580" stroke-width="1.4" opacity="0.9"/>
<line x1="118.0" y1="587.3" x2="103.9" y2="583.5" stroke="#4b6580" stroke-width="1.4" opacity="0.9"/>
<line x1="118.0" y1="537.2" x2="103.4" y2="535.2" stroke="#4b6580" stroke-width="1.4" opacity="0.9"/>
<line x1="118.0" y1="487.0" x2="103.2" y2="487.0" stroke="#4b6580" stroke-width="1.4" opacity="0.9"/>
<line x1="118.0" y1="436.8" x2="103.4" y2="438.8" stroke="#4b6580" stroke-width="1.4" opacity="0.9"/>
<line x1="118.0" y1="386.7" x2="103.9" y2="390.5" stroke="#4b6580" stroke-width="1.4" opacity="0.9"/>
<line x1="118.0" y1="336.5" x2="104.7" y2="341.9" stroke="#4b6580" stroke-width="1.4" opacity="0.9"/>
<line x1="118.0" y1="286.3" x2="105.7" y2="293.0" stroke="#4b6580" stroke-width="1.4" opacity="0.9"/>
<line x1="118.0" y1="236.2" x2="106.6" y2="243.9" stroke="#4b6580" stroke-width="1.4" opacity="0.9"/>
<line x1="118.0" y1="186.0" x2="107.5" y2="194.5" stroke="#4b6580" stroke-width="1.4" opacity="0.9"/>
<line x1="164.4" y1="788.0" x2="154.6" y2="778.9" stroke="#4b6580" stroke-width="1.4" opacity="0.9"/>
<line x1="164.4" y1="737.8" x2="153.6" y2="729.5" stroke="#4b6580" stroke-width="1.4" opacity="0.9"/>
<line x1="164.4" y1="687.7" x2="152.6" y2="680.4" stroke="#4b6580" stroke-width="1.4" opacity="0.9"/>
<line x1="164.4" y1="637.5" x2="151.5" y2="631.5" stroke="#4b6580" stroke-width="1.4" opacity="0.9"/>
<line x1="164.4" y1="587.3" x2="150.5" y2="583.0" stroke="#4b6580" stroke-width="1.4" opacity="0.9"/>
<line x1="164.4" y1="537.2" x2="149.8" y2="534.9" stroke="#4b6580" stroke-width="1.4" opacity="0.9"/>
<line x1="164.4" y1="487.0" x2="149.5" y2="487.0" stroke="#4b6580" stroke-width="1.4" opacity="0.9"/>
<line x1="164.4" y1="436.8" x2="149.8" y2="439.1" stroke="#4b6580" stroke-width="1.4" opacity="0.9"/>
<line x1="164.4" y1="386.7" x2="150.5" y2="391.0" stroke="#4b6580" stroke-width="1.4" opacity="0.9"/>
<line x1="164.4" y1="336.5" x2="151.5" y2="342.5" stroke="#4b6580" stroke-width="1.4" opacity="0.9"/>
<line x1="164.4" y1="286.3" x2="152.6" y2="293.6" stroke="#4b6580" stroke-width="1.4" opacity="0.9"/>
<line x1="164.4" y1="236.2" x2="153.6" y2="244.5" stroke="#4b6580" stroke-width="1.4" opacity="0.9"/>
<line x1="164.4" y1="186.0" x2="154.6" y2="195.1" stroke="#4b6580" stroke-width="1.4" opacity="0.9"/>
<line x1="210.8" y1="788.0" x2="201.8" y2="778.4" stroke="#4b6580" stroke-width="1.4" opacity="0.9"/>
<line x1="210.8" y1="737.8" x2="200.8" y2="728.9" stroke="#4b6580" stroke-width="1.4" opacity="0.9"/>
<line x1="210.8" y1="687.7" x2="199.7" y2="679.7" stroke="#4b6580" stroke-width="1.4" opacity="0.9"/>
<line x1="210.8" y1="637.5" x2="198.4" y2="630.8" stroke="#4b6580" stroke-width="1.4" opacity="0.9"/>
<line x1="210.8" y1="587.3" x2="197.2" y2="582.4" stroke="#4b6580" stroke-width="1.4" opacity="0.9"/>
<line x1="210.8" y1="537.2" x2="196.3" y2="534.6" stroke="#4b6580" stroke-width="1.4" opacity="0.9"/>
<line x1="210.8" y1="487.0" x2="195.9" y2="487.0" stroke="#4b6580" stroke-width="1.4" opacity="0.9"/>
<line x1="210.8" y1="436.8" x2="196.3" y2="439.4" stroke="#4b6580" stroke-width="1.4" opacity="0.9"/>
<line x1="210.8" y1="386.7" x2="197.2" y2="391.6" stroke="#4b6580" stroke-width="1.4" opacity="0.9"/>
<line x1="210.8" y1="336.5" x2="198.4" y2="343.2" stroke="#4b6580" stroke-width="1.4" opacity="0.9"/>
<line x1="210.8" y1="286.3" x2="199.7" y2="294.3" stroke="#4b6580" stroke-width="1.4" opacity="0.9"/>
<line x1="210.8" y1="236.2" x2="200.8" y2="245.1" stroke="#4b6580" stroke-width="1.4" opacity="0.9"/>
<line x1="210.8" y1="186.0" x2="201.8" y2="195.6" stroke="#4b6580" stroke-width="1.4" opacity="0.9"/>
<line x1="257.1" y1="788.0" x2="249.3" y2="777.8" stroke="#4b6580" stroke-width="1.4" opacity="0.9"/>
<line x1="257.1" y1="737.8" x2="248.2" y2="728.2" stroke="#4b6580" stroke-width="1.4" opacity="0.9"/>
<line x1="257.1" y1="687.7" x2="247.0" y2="678.9" stroke="#4b6580" stroke-width="1.4" opacity="0.9"/>
<line x1="257.1" y1="637.5" x2="245.5" y2="630.0" stroke="#4b6580" stroke-width="1.4" opacity="0.9"/>
<line x1="257.1" y1="587.3" x2="244.0" y2="581.7" stroke="#4b6580" stroke-width="1.4" opacity="0.9"/>
<line x1="257.1" y1="537.2" x2="242.8" y2="534.1" stroke="#4b6580" stroke-width="1.4" opacity="0.9"/>
<line x1="257.1" y1="487.0" x2="242.3" y2="487.0" stroke="#4b6580" stroke-width="1.4" opacity="0.9"/>
<line x1="257.1" y1="436.8" x2="242.8" y2="439.9" stroke="#4b6580" stroke-width="1.4" opacity="0.9"/>
<line x1="257.1" y1="386.7" x2="244.0" y2="392.3" stroke="#4b6580" stroke-width="1.4" opacity="0.9"/>
<line x1="257.1" y1="336.5" x2="245.5" y2="344.0" stroke="#4b6580" stroke-width="1.4" opacity="0.9"/>
<line x1="257.1" y1="286.3" x2="247.0" y2="295.1" stroke="#4b6580" stroke-width="1.4" opacity="0.9"/>
<line x1="257.1" y1="236.2" x2="248.2" y2="245.8" stroke="#4b6580" stroke-width="1.4" opacity="0.9"/>
<line x1="257.1" y1="186.0" x2="249.3" y2="196.2" stroke="#4b6580" stroke-width="1.4" opacity="0.9"/>
<line x1="303.5" y1="788.0" x2="296.9" y2="777.2" stroke="#4b6580" stroke-width="1.4" opacity="0.9"/>
<line x1="303.5" y1="737.8" x2="295.9" y2="727.5" stroke="#4b6580" stroke-width="1.4" opacity="0.9"/>
<line x1="303.5" y1="687.7" x2="294.6" y2="678.0" stroke="#4b6580" stroke-width="1.4" opacity="0.9"/>
<line x1="303.5" y1="637.5" x2="293.0" y2="629.0" stroke="#4b6580" stroke-width="1.4" opacity="0.9"/>
<line x1="303.5" y1="587.3" x2="291.2" y2="580.7" stroke="#4b6580" stroke-width="1.4" opacity="0.9"/>
<line x1="303.5" y1="537.2" x2="289.4" y2="533.4" stroke="#4b6580" stroke-width="1.4" opacity="0.9"/>
<line x1="303.5" y1="487.0" x2="288.7" y2="487.0" stroke="#4b6580" stroke-width="1.4" opacity="0.9"/>
<line x1="303.5" y1="436.8" x2="289.4" y2="440.6" stroke="#4b6580" stroke-width="1.4" opacity="0.9"/>
<line x1="303.5" y1="386.7" x2="291.2" y2="393.3" stroke="#4b6580" stroke-width="1.4" opacity="0.9"/>
<line x1="303.5" y1="336.5" x2="293.0" y2="345.0" stroke="#4b6580" stroke-width="1.4" opacity="0.9"/>
<line x1="303.5" y1="286.3" x2="294.6" y2="296.0" stroke="#4b6580" stroke-width="1.4" opacity="0.9"/>
<line x1="303.5" y1="236.2" x2="295.9" y2="246.5" stroke="#4b6580" stroke-width="1.4" opacity="0.9"/>
<line x1="303.5" y1="186.0" x2="296.9" y2="196.8" stroke="#4b6580" stroke-width="1.4" opacity="0.9"/>
<line x1="349.9" y1="788.0" x2="344.7" y2="776.7" stroke="#4b6580" stroke-width="1.4" opacity="0.9"/>
<line x1="349.9" y1="737.8" x2="343.8" y2="726.9" stroke="#4b6580" stroke-width="1.4" opacity="0.9"/>
<line x1="349.9" y1="687.7" x2="342.6" y2="677.2" stroke="#4b6580" stroke-width="1.4" opacity="0.9"/>
<line x1="349.9" y1="637.5" x2="341.0" y2="627.9" stroke="#4b6580" stroke-width="1.4" opacity="0.9"/>
<line x1="349.9" y1="587.3" x2="338.8" y2="579.3" stroke="#4b6580" stroke-width="1.4" opacity="0.9"/>
<line x1="349.9" y1="537.2" x2="336.3" y2="532.3" stroke="#4b6580" stroke-width="1.4" opacity="0.9"/>
<line x1="349.9" y1="487.0" x2="335.0" y2="487.0" stroke="#4b6580" stroke-width="1.4" opacity="0.9"/>
<line x1="349.9" y1="436.8" x2="336.3" y2="441.7" stroke="#4b6580" stroke-width="1.4" opacity="0.9"/>
<line x1="349.9" y1="386.7" x2="338.8" y2="394.7" stroke="#4b6580" stroke-width="1.4" opacity="0.9"/>
<line x1="349.9" y1="336.5" x2="341.0" y2="346.1" stroke="#4b6580" stroke-width="1.4" opacity="0.9"/>
<line x1="349.9" y1="286.3" x2="342.6" y2="296.8" stroke="#4b6580" stroke-width="1.4" opacity="0.9"/>
<line x1="349.9" y1="236.2" x2="343.8" y2="247.1" stroke="#4b6580" stroke-width="1.4" opacity="0.9"/>
<line x1="349.9" y1="186.0" x2="344.7" y2="197.3" stroke="#4b6580" stroke-width="1.4" opacity="0.9"/>
<line x1="396.2" y1="788.0" x2="392.7" y2="776.3" stroke="#4b6580" stroke-width="1.4" opacity="0.9"/>
<line x1="396.2" y1="737.8" x2="392.0" y2="726.3" stroke="#4b6580" stroke-width="1.4" opacity="0.9"/>
<line x1="396.2" y1="687.7" x2="391.0" y2="676.4" stroke="#4b6580" stroke-width="1.4" opacity="0.9"/>
<line x1="396.2" y1="637.5" x2="389.6" y2="626.7" stroke="#4b6580" stroke-width="1.4" opacity="0.9"/>
<line x1="396.2" y1="587.3" x2="387.3" y2="577.7" stroke="#4b6580" stroke-width="1.4" opacity="0.9"/>
<line x1="396.2" y1="537.2" x2="383.9" y2="530.5" stroke="#4b6580" stroke-width="1.4" opacity="0.9"/>
<line x1="396.2" y1="487.0" x2="381.4" y2="487.0" stroke="#4b6580" stroke-width="1.4" opacity="0.9"/>
<line x1="396.2" y1="436.8" x2="383.9" y2="443.5" stroke="#4b6580" stroke-width="1.4" opacity="0.9"/>
<line x1="396.2" y1="386.7" x2="387.3" y2="396.3" stroke="#4b6580" stroke-width="1.4" opacity="0.9"/>
<line x1="396.2" y1="336.5" x2="389.6" y2="347.3" stroke="#4b6580" stroke-width="1.4" opacity="0.9"/>
<line x1="396.2" y1="286.3" x2="391.0" y2="297.6" stroke="#4b6580" stroke-width="1.4" opacity="0.9"/>
<line x1="396.2" y1="236.2" x2="392.0" y2="247.7" stroke="#4b6580" stroke-width="1.4" opacity="0.9"/>
<line x1="396.2" y1="186.0" x2="392.7" y2="197.7" stroke="#4b6580" stroke-width="1.4" opacity="0.9"/>
<line x1="442.6" y1="788.0" x2="440.8" y2="776.1" stroke="#4b6580" stroke-width="1.4" opacity="0.9"/>
<line x1="442.6" y1="737.8" x2="440.4" y2="725.9" stroke="#4b6580" stroke-width="1.4" opacity="0.9"/>
<line x1="442.6" y1="687.7" x2="439.9" y2="675.8" stroke="#4b6580" stroke-width="1.4" opacity="0.9"/>
<line x1="442.6" y1="637.5" x2="439.0" y2="625.8" stroke="#4b6580" stroke-width="1.4" opacity="0.9"/>
<line x1="442.6" y1="587.3" x2="437.4" y2="576.1" stroke="#4b6580" stroke-width="1.4" opacity="0.9"/>
<line x1="442.6" y1="537.2" x2="433.7" y2="527.5" stroke="#4b6580" stroke-width="1.4" opacity="0.9"/>
<line x1="442.6" y1="487.0" x2="427.8" y2="487.0" stroke="#4b6580" stroke-width="1.4" opacity="0.9"/>
<line x1="442.6" y1="436.8" x2="433.7" y2="446.5" stroke="#4b6580" stroke-width="1.4" opacity="0.9"/>
<line x1="442.6" y1="386.7" x2="437.4" y2="397.9" stroke="#4b6580" stroke-width="1.4" opacity="0.9"/>
<line x1="442.6" y1="336.5" x2="439.0" y2="348.2" stroke="#4b6580" stroke-width="1.4" opacity="0.9"/>
<line x1="442.6" y1="286.3" x2="439.9" y2="298.2" stroke="#4b6580" stroke-width="1.4" opacity="0.9"/>
<line x1="442.6" y1="236.2" x2="440.4" y2="248.1" stroke="#4b6580" stroke-width="1.4" opacity="0.9"/>
<line x1="442.6" y1="186.0" x2="440.8" y2="197.9" stroke="#4b6580" stroke-width="1.4" opacity="0.9"/>
<line x1="489.0" y1="788.0" x2="489.0" y2="776.0" stroke="#4b6580" stroke-width="1.4" opacity="0.9"/>
<line x1="489.0" y1="737.8" x2="489.0" y2="725.8" stroke="#4b6580" stroke-width="1.4" opacity="0.9"/>
<line x1="489.0" y1="687.7" x2="489.0" y2="675.6" stroke="#4b6580" stroke-width="1.4" opacity="0.9"/>
<line x1="489.0" y1="637.5" x2="489.0" y2="625.5" stroke="#4b6580" stroke-width="1.4" opacity="0.9"/>
<line x1="489.0" y1="587.3" x2="489.0" y2="575.3" stroke="#4b6580" stroke-width="1.4" opacity="0.9"/>
<line x1="489.0" y1="537.2" x2="489.0" y2="525.1" stroke="#4b6580" stroke-width="1.4" opacity="0.9"/>
<line x1="489.0" y1="436.8" x2="489.0" y2="448.9" stroke="#4b6580" stroke-width="1.4" opacity="0.9"/>
<line x1="489.0" y1="386.7" x2="489.0" y2="398.7" stroke="#4b6580" stroke-width="1.4" opacity="0.9"/>
<line x1="489.0" y1="336.5" x2="489.0" y2="348.5" stroke="#4b6580" stroke-width="1.4" opacity="0.9"/>
<line x1="489.0" y1="286.3" x2="489.0" y2="298.4" stroke="#4b6580" stroke-width="1.4" opacity="0.9"/>
<line x1="489.0" y1="236.2" x2="489.0" y2="248.2" stroke="#4b6580" stroke-width="1.4" opacity="0.9"/>
<line x1="489.0" y1="186.0" x2="489.0" y2="198.0" stroke="#4b6580" stroke-width="1.4" opacity="0.9"/>
<line x1="535.4" y1="788.0" x2="537.2" y2="776.1" stroke="#4b6580" stroke-width="1.4" opacity="0.9"/>
<line x1="535.4" y1="737.8" x2="537.6" y2="725.9" stroke="#4b6580" stroke-width="1.4" opacity="0.9"/>
<line x1="535.4" y1="687.7" x2="538.1" y2="675.8" stroke="#4b6580" stroke-width="1.4" opacity="0.9"/>
<line x1="535.4" y1="637.5" x2="539.0" y2="625.8" stroke="#4b6580" stroke-width="1.4" opacity="0.9"/>
<line x1="535.4" y1="587.3" x2="540.6" y2="576.1" stroke="#4b6580" stroke-width="1.4" opacity="0.9"/>
<line x1="535.4" y1="537.2" x2="544.3" y2="527.5" stroke="#4b6580" stroke-width="1.4" opacity="0.9"/>
<line x1="535.4" y1="487.0" x2="550.2" y2="487.0" stroke="#4b6580" stroke-width="1.4" opacity="0.9"/>
<line x1="535.4" y1="436.8" x2="544.3" y2="446.5" stroke="#4b6580" stroke-width="1.4" opacity="0.9"/>
<line x1="535.4" y1="386.7" x2="540.6" y2="397.9" stroke="#4b6580" stroke-width="1.4" opacity="0.9"/>
<line x1="535.4" y1="336.5" x2="539.0" y2="348.2" stroke="#4b6580" stroke-width="1.4" opacity="0.9"/>
<line x1="535.4" y1="286.3" x2="538.1" y2="298.2" stroke="#4b6580" stroke-width="1.4" opacity="0.9"/>
<line x1="535.4" y1="236.2" x2="537.6" y2="248.1" stroke="#4b6580" stroke-width="1.4" opacity="0.9"/>
<line x1="535.4" y1="186.0" x2="537.2" y2="197.9" stroke="#4b6580" stroke-width="1.4" opacity="0.9"/>
<line x1="581.8" y1="788.0" x2="585.3" y2="776.3" stroke="#4b6580" stroke-width="1.4" opacity="0.9"/>
<line x1="581.8" y1="737.8" x2="586.0" y2="726.3" stroke="#4b6580" stroke-width="1.4" opacity="0.9"/>
<line x1="581.8" y1="687.7" x2="587.0" y2="676.4" stroke="#4b6580" stroke-width="1.4" opacity="0.9"/>
<line x1="581.8" y1="637.5" x2="588.4" y2="626.7" stroke="#4b6580" stroke-width="1.4" opacity="0.9"/>
<line x1="581.8" y1="587.3" x2="590.7" y2="577.7" stroke="#4b6580" stroke-width="1.4" opacity="0.9"/>
<line x1="581.8" y1="537.2" x2="594.1" y2="530.5" stroke="#4b6580" stroke-width="1.4" opacity="0.9"/>
<line x1="581.8" y1="487.0" x2="596.6" y2="487.0" stroke="#4b6580" stroke-width="1.4" opacity="0.9"/>
<line x1="581.8" y1="436.8" x2="594.1" y2="443.5" stroke="#4b6580" stroke-width="1.4" opacity="0.9"/>
<line x1="581.8" y1="386.7" x2="590.7" y2="396.3" stroke="#4b6580" stroke-width="1.4" opacity="0.9"/>
<line x1="581.8" y1="336.5" x2="588.4" y2="347.3" stroke="#4b6580" stroke-width="1.4" opacity="0.9"/>
<line x1="581.8" y1="286.3" x2="587.0" y2="297.6" stroke="#4b6580" stroke-width="1.4" opacity="0.9"/>
<line x1="581.8" y1="236.2" x2="586.0" y2="247.7" stroke="#4b6580" stroke-width="1.4" opacity="0.9"/>
<line x1="581.8" y1="186.0" x2="585.3" y2="197.7" stroke="#4b6580" stroke-width="1.4" opacity="0.9"/>
<line x1="628.1" y1="788.0" x2="633.3" y2="776.7" stroke="#4b6580" stroke-width="1.4" opacity="0.9"/>
<line x1="628.1" y1="737.8" x2="634.2" y2="726.9" stroke="#4b6580" stroke-width="1.4" opacity="0.9"/>
<line x1="628.1" y1="687.7" x2="635.4" y2="677.2" stroke="#4b6580" stroke-width="1.4" opacity="0.9"/>
<line x1="628.1" y1="637.5" x2="637.0" y2="627.9" stroke="#4b6580" stroke-width="1.4" opacity="0.9"/>
<line x1="628.1" y1="587.3" x2="639.2" y2="579.3" stroke="#4b6580" stroke-width="1.4" opacity="0.9"/>
<line x1="628.1" y1="537.2" x2="641.7" y2="532.3" stroke="#4b6580" stroke-width="1.4" opacity="0.9"/>
<line x1="628.1" y1="487.0" x2="643.0" y2="487.0" stroke="#4b6580" stroke-width="1.4" opacity="0.9"/>
<line x1="628.1" y1="436.8" x2="641.7" y2="441.7" stroke="#4b6580" stroke-width="1.4" opacity="0.9"/>
<line x1="628.1" y1="386.7" x2="639.2" y2="394.7" stroke="#4b6580" stroke-width="1.4" opacity="0.9"/>
<line x1="628.1" y1="336.5" x2="637.0" y2="346.1" stroke="#4b6580" stroke-width="1.4" opacity="0.9"/>
<line x1="628.1" y1="286.3" x2="635.4" y2="296.8" stroke="#4b6580" stroke-width="1.4" opacity="0.9"/>
<line x1="628.1" y1="236.2" x2="634.2" y2="247.1" stroke="#4b6580" stroke-width="1.4" opacity="0.9"/>
<line x1="628.1" y1="186.0" x2="633.3" y2="197.3" stroke="#4b6580" stroke-width="1.4" opacity="0.9"/>
<line x1="674.5" y1="788.0" x2="681.1" y2="777.2" stroke="#4b6580" stroke-width="1.4" opacity="0.9"/>
<line x1="674.5" y1="737.8" x2="682.1" y2="727.5" stroke="#4b6580" stroke-width="1.4" opacity="0.9"/>
<line x1="674.5" y1="687.7" x2="683.4" y2="678.0" stroke="#4b6580" stroke-width="1.4" opacity="0.9"/>
<line x1="674.5" y1="637.5" x2="685.0" y2="629.0" stroke="#4b6580" stroke-width="1.4" opacity="0.9"/>
<line x1="674.5" y1="587.3" x2="686.8" y2="580.7" stroke="#4b6580" stroke-width="1.4" opacity="0.9"/>
<line x1="674.5" y1="537.2" x2="688.6" y2="533.4" stroke="#4b6580" stroke-width="1.4" opacity="0.9"/>
<line x1="674.5" y1="487.0" x2="689.3" y2="487.0" stroke="#4b6580" stroke-width="1.4" opacity="0.9"/>
<line x1="674.5" y1="436.8" x2="688.6" y2="440.6" stroke="#4b6580" stroke-width="1.4" opacity="0.9"/>
<line x1="674.5" y1="386.7" x2="686.8" y2="393.3" stroke="#4b6580" stroke-width="1.4" opacity="0.9"/>
<line x1="674.5" y1="336.5" x2="685.0" y2="345.0" stroke="#4b6580" stroke-width="1.4" opacity="0.9"/>
<line x1="674.5" y1="286.3" x2="683.4" y2="296.0" stroke="#4b6580" stroke-width="1.4" opacity="0.9"/>
<line x1="674.5" y1="236.2" x2="682.1" y2="246.5" stroke="#4b6580" stroke-width="1.4" opacity="0.9"/>
<line x1="674.5" y1="186.0" x2="681.1" y2="196.8" stroke="#4b6580" stroke-width="1.4" opacity="0.9"/>
<line x1="720.9" y1="788.0" x2="728.7" y2="777.8" stroke="#4b6580" stroke-width="1.4" opacity="0.9"/>
<line x1="720.9" y1="737.8" x2="729.8" y2="728.2" stroke="#4b6580" stroke-width="1.4" opacity="0.9"/>
<line x1="720.9" y1="687.7" x2="731.0" y2="678.9" stroke="#4b6580" stroke-width="1.4" opacity="0.9"/>
<line x1="720.9" y1="637.5" x2="732.5" y2="630.0" stroke="#4b6580" stroke-width="1.4" opacity="0.9"/>
<line x1="720.9" y1="587.3" x2="734.0" y2="581.7" stroke="#4b6580" stroke-width="1.4" opacity="0.9"/>
<line x1="720.9" y1="537.2" x2="735.2" y2="534.1" stroke="#4b6580" stroke-width="1.4" opacity="0.9"/>
<line x1="720.9" y1="487.0" x2="735.7" y2="487.0" stroke="#4b6580" stroke-width="1.4" opacity="0.9"/>
<line x1="720.9" y1="436.8" x2="735.2" y2="439.9" stroke="#4b6580" stroke-width="1.4" opacity="0.9"/>
<line x1="720.9" y1="386.7" x2="734.0" y2="392.3" stroke="#4b6580" stroke-width="1.4" opacity="0.9"/>
<line x1="720.9" y1="336.5" x2="732.5" y2="344.0" stroke="#4b6580" stroke-width="1.4" opacity="0.9"/>
<line x1="720.9" y1="286.3" x2="731.0" y2="295.1" stroke="#4b6580" stroke-width="1.4" opacity="0.9"/>
<line x1="720.9" y1="236.2" x2="729.8" y2="245.8" stroke="#4b6580" stroke-width="1.4" opacity="0.9"/>
<line x1="720.9" y1="186.0" x2="728.7" y2="196.2" stroke="#4b6580" stroke-width="1.4" opacity="0.9"/>
<line x1="767.3" y1="788.0" x2="776.2" y2="778.4" stroke="#4b6580" stroke-width="1.4" opacity="0.9"/>
<line x1="767.3" y1="737.8" x2="777.2" y2="728.9" stroke="#4b6580" stroke-width="1.4" opacity="0.9"/>
<line x1="767.3" y1="687.7" x2="778.3" y2="679.7" stroke="#4b6580" stroke-width="1.4" opacity="0.9"/>
<line x1="767.3" y1="637.5" x2="779.6" y2="630.8" stroke="#4b6580" stroke-width="1.4" opacity="0.9"/>
<line x1="767.3" y1="587.3" x2="780.8" y2="582.4" stroke="#4b6580" stroke-width="1.4" opacity="0.9"/>
<line x1="767.3" y1="537.2" x2="781.7" y2="534.6" stroke="#4b6580" stroke-width="1.4" opacity="0.9"/>
<line x1="767.3" y1="487.0" x2="782.1" y2="487.0" stroke="#4b6580" stroke-width="1.4" opacity="0.9"/>
<line x1="767.3" y1="436.8" x2="781.7" y2="439.4" stroke="#4b6580" stroke-width="1.4" opacity="0.9"/>
<line x1="767.3" y1="386.7" x2="780.8" y2="391.6" stroke="#4b6580" stroke-width="1.4" opacity="0.9"/>
<line x1="767.3" y1="336.5" x2="779.6" y2="343.2" stroke="#4b6580" stroke-width="1.4" opacity="0.9"/>
<line x1="767.3" y1="286.3" x2="778.3" y2="294.3" stroke="#4b6580" stroke-width="1.4" opacity="0.9"/>
<line x1="767.3" y1="236.2" x2="777.2" y2="245.1" stroke="#4b6580" stroke-width="1.4" opacity="0.9"/>
<line x1="767.3" y1="186.0" x2="776.2" y2="195.6" stroke="#4b6580" stroke-width="1.4" opacity="0.9"/>
<line x1="813.6" y1="788.0" x2="823.4" y2="778.9" stroke="#4b6580" stroke-width="1.4" opacity="0.9"/>
<line x1="813.6" y1="737.8" x2="824.4" y2="729.5" stroke="#4b6580" stroke-width="1.4" opacity="0.9"/>
<line x1="813.6" y1="687.7" x2="825.4" y2="680.4" stroke="#4b6580" stroke-width="1.4" opacity="0.9"/>
<line x1="813.6" y1="637.5" x2="826.5" y2="631.5" stroke="#4b6580" stroke-width="1.4" opacity="0.9"/>
<line x1="813.6" y1="587.3" x2="827.5" y2="583.0" stroke="#4b6580" stroke-width="1.4" opacity="0.9"/>
<line x1="813.6" y1="537.2" x2="828.2" y2="534.9" stroke="#4b6580" stroke-width="1.4" opacity="0.9"/>
<line x1="813.6" y1="487.0" x2="828.5" y2="487.0" stroke="#4b6580" stroke-width="1.4" opacity="0.9"/>
<line x1="813.6" y1="436.8" x2="828.2" y2="439.1" stroke="#4b6580" stroke-width="1.4" opacity="0.9"/>
<line x1="813.6" y1="386.7" x2="827.5" y2="391.0" stroke="#4b6580" stroke-width="1.4" opacity="0.9"/>
<line x1="813.6" y1="336.5" x2="826.5" y2="342.5" stroke="#4b6580" stroke-width="1.4" opacity="0.9"/>
<line x1="813.6" y1="286.3" x2="825.4" y2="293.6" stroke="#4b6580" stroke-width="1.4" opacity="0.9"/>
<line x1="813.6" y1="236.2" x2="824.4" y2="244.5" stroke="#4b6580" stroke-width="1.4" opacity="0.9"/>
<line x1="813.6" y1="186.0" x2="823.4" y2="195.1" stroke="#4b6580" stroke-width="1.4" opacity="0.9"/>
<line x1="860.0" y1="788.0" x2="870.5" y2="779.5" stroke="#4b6580" stroke-width="1.4" opacity="0.9"/>
<line x1="860.0" y1="737.8" x2="871.4" y2="730.1" stroke="#4b6580" stroke-width="1.4" opacity="0.9"/>
<line x1="860.0" y1="687.7" x2="872.3" y2="681.0" stroke="#4b6580" stroke-width="1.4" opacity="0.9"/>
<line x1="860.0" y1="637.5" x2="873.3" y2="632.1" stroke="#4b6580" stroke-width="1.4" opacity="0.9"/>
<line x1="860.0" y1="587.3" x2="874.1" y2="583.5" stroke="#4b6580" stroke-width="1.4" opacity="0.9"/>
<line x1="860.0" y1="537.2" x2="874.6" y2="535.2" stroke="#4b6580" stroke-width="1.4" opacity="0.9"/>
<line x1="860.0" y1="487.0" x2="874.8" y2="487.0" stroke="#4b6580" stroke-width="1.4" opacity="0.9"/>
<line x1="860.0" y1="436.8" x2="874.6" y2="438.8" stroke="#4b6580" stroke-width="1.4" opacity="0.9"/>
<line x1="860.0" y1="386.7" x2="874.1" y2="390.5" stroke="#4b6580" stroke-width="1.4" opacity="0.9"/>
<line x1="860.0" y1="336.5" x2="873.3" y2="341.9" stroke="#4b6580" stroke-width="1.4" opacity="0.9"/>
<line x1="860.0" y1="286.3" x2="872.3" y2="293.0" stroke="#4b6580" stroke-width="1.4" opacity="0.9"/>
<line x1="860.0" y1="236.2" x2="871.4" y2="243.9" stroke="#4b6580" stroke-width="1.4" opacity="0.9"/>
<line x1="860.0" y1="186.0" x2="870.5" y2="194.5" stroke="#4b6580" stroke-width="1.4" opacity="0.9"/>
<polyline points="489.0,788.0 489.0,186.0" fill="none" stroke="#f97316" stroke-width="3.2" stroke-opacity="0.9" stroke-linejoin="round" stroke-linecap="round"/>
<polyline points="118.0,487.0 860.0,487.0" fill="none" stroke="#60a5fa" stroke-width="3.2" stroke-opacity="0.9" stroke-linejoin="round" stroke-linecap="round"/>
<polyline points="339.5,142.1 335.7,150.7 331.8,159.0 327.8,167.1 323.7,175.0 319.5,182.7 315.3,190.2 310.9,197.5 306.3,204.7 301.7,211.6 297.0,218.4 292.1,225.1 287.1,231.5 282.0,237.8 276.8,244.0 271.4,250.0 265.9,255.8 260.3,261.5 254.5,267.1 248.5,272.5 242.4,277.8 236.2,283.0 229.8,288.0 223.2,293.0 216.5,297.7 209.6,302.4 202.5,307.0 195.3,311.4 187.9,315.8 180.2,320.0 172.4,324.1 164.4,328.1 156.2,332.0 147.8,335.9 139.1,339.6 130.3,343.2 121.2,346.8 111.9,350.3 102.3,353.6 92.5,356.9 82.5,360.1 72.2,363.3 61.7,366.3" fill="none" stroke="#4ade80" stroke-width="2.6" stroke-opacity="0.72" stroke-linejoin="round" stroke-linecap="round"/>
<polyline points="452.9,143.1 452.0,151.6 451.1,159.9 450.1,167.9 449.1,175.8 448.1,183.5 447.1,191.0 446.0,198.3 444.9,205.4 443.8,212.4 442.7,219.2 441.5,225.8 440.3,232.2 439.1,238.5 437.8,244.7 436.5,250.6 435.2,256.5 433.8,262.2 432.4,267.7 431.0,273.1 429.5,278.4 428.0,283.6 426.5,288.6 424.9,293.5 423.3,298.3 421.6,302.9 419.9,307.5 418.1,311.9 416.3,316.2 414.5,320.4 412.6,324.6 410.7,328.6 408.7,332.5 406.7,336.3 404.6,340.0 402.4,343.6 400.3,347.2 398.0,350.6 395.7,354.0 393.3,357.3 390.9,360.5 388.4,363.6 385.9,366.7 383.3,369.6 380.6,372.5 377.9,375.4 375.1,378.1 372.2,380.8 369.2,383.4 366.2,386.0 363.1,388.5 359.9,390.9 356.6,393.3 353.3,395.6 349.8,397.8 346.3,400.0 342.7,402.2 339.0,404.3 335.2,406.3 331.3,408.3 327.3,410.3 323.2,412.2 319.0,414.0 314.7,415.8 310.3,417.6 305.8,419.3 301.1,421.0 296.4,422.6 291.5,424.2 286.5,425.7 281.4,427.2 276.1,428.7 270.7,430.2 265.2,431.6 259.5,432.9 253.7,434.3 247.8,435.6 241.7,436.8 235.4,438.1 229.0,439.3 222.4,440.5 215.7,441.6 208.7,442.7 201.6,443.8 194.4,444.9 186.9,445.9 179.3,446.9 171.4,447.9 163.4,448.9 155.1,449.8 146.7,450.8 138.0,451.6 129.1,452.5 120.0,453.4 110.7,454.2 101.1,455.0 91.3,455.8 81.2,456.6 70.9,457.3 60.3,458.1" fill="none" stroke="#4ade80" stroke-width="2.6" stroke-opacity="0.72" stroke-linejoin="round" stroke-linecap="round"/>
<polyline points="529.4,141.7 530.4,150.2 531.5,158.5 532.6,166.6 533.7,174.6 534.8,182.3 536.0,189.8 537.2,197.1 538.4,204.3 539.6,211.3 540.9,218.1 542.2,224.7 543.6,231.2 544.9,237.5 546.4,243.7 547.8,249.7 549.3,255.5 550.8,261.2 552.4,266.8 554.0,272.3 555.6,277.6 557.3,282.7 559.1,287.8 560.8,292.7 562.7,297.5 564.5,302.2 566.4,306.7 568.4,311.2 570.4,315.5 572.5,319.8 574.6,323.9 576.7,327.9 579.0,331.8 581.2,335.7 583.6,339.4 586.0,343.1 588.4,346.6 590.9,350.1 593.5,353.5 596.2,356.8 598.9,360.0 601.7,363.1 604.5,366.2 607.4,369.1 610.4,372.1 613.5,374.9 616.7,377.7 619.9,380.4 623.2,383.0 626.6,385.6 630.1,388.1 633.7,390.5 637.3,392.9 641.1,395.2 644.9,397.5 648.9,399.7 652.9,401.8 657.1,404.0 661.3,406.0 665.7,408.0 670.2,410.0 674.8,411.9 679.5,413.7 684.3,415.5 689.2,417.3 694.3,419.0 699.5,420.7 704.8,422.3 710.3,423.9 715.9,425.5 721.6,427.0 727.5,428.5 733.6,429.9 739.7,431.3 746.1,432.7 752.6,434.0 759.3,435.4 766.1,436.6 773.1,437.9 780.3,439.1 787.7,440.3 795.3,441.4 803.0,442.5 811.0,443.6 819.1,444.7 827.5,445.8 836.0,446.8 844.8,447.8 853.8,448.7 863.1,449.7 872.5,450.6 882.2,451.5 892.2,452.4 902.4,453.2 912.9,454.1" fill="none" stroke="#4ade80" stroke-width="2.6" stroke-opacity="0.72" stroke-linejoin="round" stroke-linecap="round"/>
<polyline points="590.6,830.4 593.2,821.9 595.8,813.7 598.5,805.6 601.3,797.7 604.1,790.1 607.1,782.6 610.0,775.3 613.1,768.2 616.3,761.2 619.5,754.5 622.8,747.9 626.2,741.4 629.6,735.1 633.2,729.0 636.9,723.0 640.6,717.2 644.4,711.5 648.4,706.0 652.4,700.6 656.5,695.3 660.8,690.2 665.1,685.1 669.6,680.2 674.2,675.5 678.8,670.8 683.6,666.3 688.6,661.9 693.6,657.5 698.8,653.3 704.1,649.2 709.6,645.2 715.1,641.3 720.9,637.5 726.7,633.8 732.8,630.2 738.9,626.6 745.3,623.2 751.7,619.8 758.4,616.5 765.2,613.3 772.2,610.2 779.4,607.2 786.7,604.2 794.3,601.3 802.0,598.5 809.9,595.7 818.0,593.1 826.4,590.4 834.9,587.9 843.7,585.4 852.7,583.0 861.9,580.6 871.3,578.3 881.0,576.0 890.9,573.8 901.1,571.7 911.5,569.6" fill="none" stroke="#4ade80" stroke-width="2.6" stroke-opacity="0.72" stroke-linejoin="round" stroke-linecap="round"/>
<polyline points="489.0,141.7 489.0,150.2 489.0,158.5 489.0,166.6 489.0,174.6 489.0,182.3 489.0,189.8 489.0,197.1 489.0,204.3 489.0,211.3 489.0,218.1 489.0,224.7 489.0,231.2 489.0,237.5 489.0,243.7 489.0,249.7 489.0,255.5 489.0,261.2 489.0,266.8 489.0,272.3 489.0,277.6 489.0,282.7 489.0,287.8 489.0,292.7 489.0,297.5 489.0,302.2 489.0,306.7 489.0,311.2 489.0,315.5 489.0,319.8 489.0,323.9 489.0,327.9 489.0,331.8 489.0,335.7 489.0,339.4 489.0,343.1 489.0,346.6 489.0,350.1 489.0,353.5 489.0,356.8 489.0,360.0 489.0,363.1 489.0,366.2 489.0,369.1 489.0,372.1 489.0,374.9 489.0,377.7 489.0,380.4 489.0,383.0 489.0,385.6 489.0,388.1 489.0,390.5 489.0,392.9 489.0,395.2 489.0,397.5 489.0,399.7 489.0,401.8 489.0,404.0 489.0,406.0 489.0,408.0 489.0,410.0 489.0,411.9 489.0,413.7 489.0,415.5 489.0,417.3 489.0,419.0 489.0,420.7 489.0,422.3 489.0,423.9 489.0,425.5 489.0,427.0 489.0,428.5 489.0,429.9 489.0,431.3 489.0,432.7 489.0,434.0 489.0,435.4 489.0,436.6 489.0,437.9 489.0,439.1 489.0,440.3 489.0,441.4 489.0,442.5 489.0,443.6 489.0,444.7 489.0,445.8 489.0,446.8 489.0,447.8 489.0,448.7 489.0,449.7 489.0,450.6 489.0,451.5 489.0,452.4 489.0,453.2 489.0,454.1 489.0,454.9 489.0,455.7 489.0,456.4 489.0,457.2 489.0,457.9 489.0,458.7 489.0,459.4 489.0,460.0 489.0,460.7 489.0,461.4 489.0,462.0 489.0,462.6 489.0,463.2 489.0,463.8 489.0,464.4 489.0,464.9 489.0,465.5 489.0,466.0 489.0,466.5 489.0,467.0 489.0,467.5 489.0,468.0 489.0,468.5 489.0,468.9 489.0,469.4 489.0,469.8 489.0,470.2 489.0,470.6 489.0,471.1 489.0,471.4 489.0,471.8 489.0,472.2 489.0,472.6 489.0,472.9 489.0,473.3 489.0,473.6 489.0,473.9 489.0,474.3 489.0,474.6 489.0,474.9 489.0,475.2 489.0,475.5 489.0,475.8 489.0,476.0 489.0,476.3 489.0,476.6 489.0,476.8 489.0,477.1 489.0,477.3 489.0,477.6 489.0,477.8 489.0,478.0 489.0,478.2 489.0,478.5 489.0,478.7 489.0,478.9 489.0,479.1 489.0,479.3 489.0,479.5 489.0,479.7 489.0,479.8 489.0,480.0 489.0,480.2 489.0,480.4 489.0,480.5 489.0,480.7 489.0,480.8 489.0,481.0 489.0,481.1 489.0,481.3 489.0,481.4 489.0,481.6 489.0,481.7 489.0,481.8 489.0,481.9 489.0,482.1 489.0,482.2 489.0,482.3 489.0,482.4 489.0,482.5 489.0,482.7 489.0,482.8 489.0,482.9 489.0,483.0 489.0,483.1 489.0,483.2 489.0,483.3 489.0,483.4 489.0,483.4 489.0,483.5 489.0,483.6 489.0,483.7 489.0,483.8 489.0,483.9 489.0,483.9 489.0,484.0 489.0,484.1 489.0,484.2 489.0,484.2 489.0,484.3 489.0,484.4 489.0,484.4 489.0,484.5 489.0,484.6 489.0,484.6 489.0,484.7 489.0,484.7 489.0,484.8 489.0,484.8 489.0,484.9 489.0,484.9 489.0,485.0 489.0,485.0 489.0,485.1 489.0,485.1 489.0,485.2 489.0,485.2 489.0,485.3 489.0,485.3 489.0,485.4 489.0,485.4 489.0,485.4 489.0,485.5 489.0,485.5 489.0,485.6 489.0,485.6 489.0,485.6 489.0,485.7 489.0,485.7 489.0,485.7 489.0,485.8 489.0,485.8 489.0,485.8 489.0,485.8 489.0,485.9 489.0,485.9 489.0,485.9 489.0,486.0 489.0,486.0 489.0,486.0 489.0,486.0 489.0,486.1 489.0,486.1 489.0,486.1 489.0,486.1 489.0,486.1 489.0,486.2 489.0,486.2 489.0,486.2 489.0,486.2 489.0,486.2 489.0,486.3 489.0,486.3 489.0,486.3 489.0,486.3 489.0,486.3 489.0,486.3 489.0,486.4 489.0,486.4 489.0,486.4 489.0,486.4 489.0,486.4 489.0,486.4 489.0,486.5 489.0,486.5 489.0,486.5 489.0,486.5 489.0,486.5 489.0,486.5 489.0,486.5 489.0,486.5 489.0,486.6 489.0,486.6 489.0,486.6 489.0,486.6 489.0,486.6 489.0,486.6 489.0,486.6 489.0,486.6 489.0,486.6 489.0,486.6 489.0,486.7 489.0,486.7 489.0,486.7 489.0,486.7 489.0,486.7 489.0,486.7 489.0,486.7 489.0,486.7 489.0,486.7 489.0,486.7 489.0,486.7 489.0,486.7 489.0,486.7 489.0,486.7 489.0,486.8 489.0,486.8 489.0,486.8 489.0,486.8 489.0,486.8 489.0,486.8 489.0,486.8 489.0,486.8 489.0,486.8 489.0,486.8 489.0,486.8 489.0,486.8 489.0,486.8 489.0,486.8 489.0,486.8 489.0,486.8 489.0,486.8 489.0,486.8 489.0,486.8 489.0,486.8 489.0,486.9 489.0,486.9 489.0,486.9 489.0,486.9 489.0,486.9 489.0,486.9 489.0,486.9 489.0,486.9 489.0,486.9 489.0,486.9 489.0,486.9 489.0,486.9 489.0,486.9 489.0,486.9 489.0,486.9 489.0,486.9 489.0,486.9 489.0,486.9 489.0,486.9 489.0,486.9 489.0,486.9 489.0,486.9 489.0,486.9 489.0,486.9 489.0,486.9 489.0,486.9 489.0,486.9 489.0,486.9 489.0,486.9 489.0,486.9 489.0,486.9 489.0,486.9 489.0,486.9 489.0,486.9 489.0,486.9 489.0,486.9 489.0,486.9 489.0,486.9 489.0,486.9 489.0,486.9 489.0,486.9 489.0,486.9 489.0,486.9 489.0,486.9 489.0,487.0 489.0,487.0 489.0,487.0 489.0,487.0 489.0,487.0 489.0,487.0 489.0,487.0 489.0,487.0 489.0,487.0 489.0,487.0 489.0,487.0 489.0,487.0 489.0,487.0 489.0,487.0 489.0,487.0 489.0,487.0 489.0,487.0 489.0,487.0 489.0,487.0 489.0,487.0 489.0,487.0 489.0,487.0 489.0,487.0 489.0,487.0 489.0,487.0 489.0,487.0 489.0,487.0 489.0,487.0 489.0,487.0 489.0,487.0 489.0,487.0 489.0,487.0 489.0,487.0 489.0,487.0 489.0,487.0 489.0,487.0 489.0,487.0 489.0,487.0 489.0,487.0 489.0,487.0 489.0,487.0 489.0,487.0 489.0,487.0 489.0,487.0 489.0,487.0 489.0,487.0 489.0,487.0 489.0,487.0 489.0,487.0 489.0,487.0 489.0,487.0 489.0,487.0 489.0,487.0 489.0,487.0 489.0,487.0 489.0,487.0 489.0,487.0 489.0,487.0 489.0,487.0 489.0,487.0 489.0,487.0 489.0,487.0 489.0,487.0 489.0,487.0 489.0,487.0 489.0,487.0 489.0,487.0 489.0,487.0 489.0,487.0 489.0,487.0 489.0,487.0 489.0,487.0 489.0,487.0 489.0,487.0 489.0,487.0 489.0,487.0 489.0,487.0 489.0,487.0 489.0,487.0 489.0,487.0 489.0,487.0 489.0,487.0 489.0,487.0 489.0,487.0 489.0,487.0 489.0,487.0 489.0,487.0 489.0,487.0 489.0,487.0 489.0,487.0 489.0,487.0 489.0,487.0 489.0,487.0 489.0,487.0 489.0,487.0 489.0,487.0 489.0,487.0 489.0,487.0 489.0,487.0 489.0,487.0 489.0,487.0 489.0,487.0 489.0,487.0 489.0,487.0 489.0,487.0 489.0,487.0 489.0,487.0 489.0,487.0 489.0,487.0 489.0,487.0 489.0,487.0 489.0,487.0 489.0,487.0 489.0,487.0 489.0,487.0 489.0,487.0 489.0,487.0 489.0,487.0 489.0,487.0 489.0,487.0 489.0,487.0 489.0,487.0 489.0,487.0 489.0,487.0 489.0,487.0 489.0,487.0 489.0,487.0 489.0,487.0 489.0,487.0 489.0,487.0 489.0,487.0 489.0,487.0 489.0,487.0 489.0,487.0 489.0,487.0 489.0,487.0 489.0,487.0 489.0,487.0 489.0,487.0 489.0,487.0 489.0,487.0 489.0,487.0 489.0,487.0 489.0,487.0 489.0,487.0 489.0,487.0 489.0,487.0 489.0,487.0 489.0,487.0 489.0,487.0 489.0,487.0 489.0,487.0 489.0,487.0 489.0,487.0 489.0,487.0 489.0,487.0 489.0,487.0 489.0,487.0 489.0,487.0 489.0,487.0 489.0,487.0 489.0,487.0 489.0,487.0 489.0,487.0 489.0,487.0 489.0,487.0 489.0,487.0 489.0,487.0 489.0,487.0 489.0,487.0 489.0,487.0 489.0,487.0 489.0,487.0 489.0,487.0 489.0,487.0 489.0,487.0 489.0,487.0 489.0,487.0 489.0,487.0 489.0,487.0 489.0,487.0 489.0,487.0 489.0,487.0 489.0,487.0 489.0,487.0 489.0,487.0 489.0,487.0 489.0,487.0 489.0,487.0 489.0,487.0 489.0,487.0 489.0,487.0 489.0,487.0 489.0,487.0 489.0,487.0 489.0,487.0 489.0,487.0 489.0,487.0 489.0,487.0 489.0,487.0 489.0,487.0 489.0,487.0 489.0,487.0 489.0,487.0 489.0,487.0 489.0,487.0 489.0,487.0 489.0,487.0 489.0,487.0 489.0,487.0 489.0,487.0 489.0,487.0 489.0,487.0 489.0,487.0 489.0,487.0 489.0,487.0 489.0,487.0 489.0,487.0 489.0,487.0 489.0,487.0 489.0,487.0 489.0,487.0 489.0,487.0 489.0,487.0 489.0,487.0 489.0,487.0 489.0,487.0 489.0,487.0 489.0,487.0 489.0,487.0 489.0,487.0 489.0,487.0 489.0,487.0 489.0,487.0 489.0,487.0 489.0,487.0 489.0,487.0 489.0,487.0 489.0,487.0 489.0,487.0 489.0,487.0 489.0,487.0 489.0,487.0 489.0,487.0 489.0,487.0 489.0,487.0 489.0,487.0 489.0,487.0 489.0,487.0 489.0,487.0 489.0,487.0 489.0,487.0 489.0,487.0 489.0,487.0 489.0,487.0 489.0,487.0 489.0,487.0 489.0,487.0 489.0,487.0 489.0,487.0 489.0,487.0 489.0,487.0 489.0,487.0 489.0,487.0 489.0,487.0 489.0,487.0 489.0,487.0 489.0,487.0 489.0,487.0 489.0,487.0 489.0,487.0 489.0,487.0 489.0,487.0 489.0,487.0 489.0,487.0 489.0,487.0 489.0,487.0 489.0,487.0 489.0,487.0 489.0,487.0 489.0,487.0 489.0,487.0 489.0,487.0 489.0,487.0 489.0,487.0 489.0,487.0 489.0,487.0 489.0,487.0 489.0,487.0 489.0,487.0 489.0,487.0 489.0,487.0 489.0,487.0 489.0,487.0 489.0,487.0 489.0,487.0 489.0,487.0 489.0,487.0 489.0,487.0 489.0,487.0 489.0,487.0 489.0,487.0 489.0,487.0 489.0,487.0 489.0,487.0 489.0,487.0 489.0,487.0 489.0,487.0 489.0,487.0 489.0,487.0 489.0,487.0 489.0,487.0 489.0,487.0 489.0,487.0 489.0,487.0 489.0,487.0 489.0,487.0 489.0,487.0 489.0,487.0 489.0,487.0 489.0,487.0 489.0,487.0 489.0,487.0 489.0,487.0 489.0,487.0 489.0,487.0 489.0,487.0 489.0,487.0 489.0,487.0 489.0,487.0 489.0,487.0 489.0,487.0 489.0,487.0 489.0,487.0 489.0,487.0 489.0,487.0 489.0,487.0 489.0,487.0 489.0,487.0 489.0,487.0 489.0,487.0 489.0,487.0 489.0,487.0 489.0,487.0 489.0,487.0 489.0,487.0 489.0,487.0 489.0,487.0 489.0,487.0 489.0,487.0 489.0,487.0 489.0,487.0 489.0,487.0 489.0,487.0 489.0,487.0 489.0,487.0 489.0,487.0 489.0,487.0 489.0,487.0 489.0,487.0 489.0,487.0 489.0,487.0 489.0,487.0 489.0,487.0 489.0,487.0 489.0,487.0 489.0,487.0 489.0,487.0 489.0,487.0 489.0,487.0 489.0,487.0 489.0,487.0 489.0,487.0 489.0,487.0 489.0,487.0 489.0,487.0 489.0,487.0 489.0,487.0 489.0,487.0 489.0,487.0 489.0,487.0 489.0,487.0 489.0,487.0 489.0,487.0 489.0,487.0 489.0,487.0 489.0,487.0 489.0,487.0 489.0,487.0 489.0,487.0 489.0,487.0 489.0,487.0 489.0,487.0 489.0,487.0 489.0,487.0 489.0,487.0 489.0,487.0 489.0,487.0 489.0,487.0 489.0,487.0 489.0,487.0 489.0,487.0 489.0,487.0 489.0,487.0 489.0,487.0 489.0,487.0 489.0,487.0 489.0,487.0 489.0,487.0 489.0,487.0 489.0,487.0 489.0,487.0 489.0,487.0 489.0,487.0 489.0,487.0 489.0,487.0 489.0,487.0 489.0,487.0 489.0,487.0 489.0,487.0 489.0,487.0 489.0,487.0 489.0,487.0 489.0,487.0 489.0,487.0 489.0,487.0 489.0,487.0 489.0,487.0 489.0,487.0 489.0,487.0 489.0,487.0 489.0,487.0 489.0,487.0 489.0,487.0 489.0,487.0 489.0,487.0 489.0,487.0 489.0,487.0 489.0,487.0 489.0,487.0 489.0,487.0 489.0,487.0 489.0,487.0 489.0,487.0 489.0,487.0 489.0,487.0 489.0,487.0 489.0,487.0 489.0,487.0 489.0,487.0 489.0,487.0 489.0,487.0 489.0,487.0 489.0,487.0 489.0,487.0 489.0,487.0 489.0,487.0 489.0,487.0 489.0,487.0 489.0,487.0 489.0,487.0 489.0,487.0 489.0,487.0 489.0,487.0 489.0,487.0 489.0,487.0 489.0,487.0 489.0,487.0 489.0,487.0 489.0,487.0 489.0,487.0 489.0,487.0 489.0,487.0 489.0,487.0 489.0,487.0 489.0,487.0 489.0,487.0 489.0,487.0 489.0,487.0 489.0,487.0 489.0,487.0 489.0,487.0 489.0,487.0 489.0,487.0 489.0,487.0 489.0,487.0 489.0,487.0 489.0,487.0 489.0,487.0 489.0,487.0 489.0,487.0 489.0,487.0 489.0,487.0 489.0,487.0 489.0,487.0 489.0,487.0 489.0,487.0 489.0,487.0 489.0,487.0 489.0,487.0 489.0,487.0 489.0,487.0 489.0,487.0 489.0,487.0 489.0,487.0 489.0,487.0 489.0,487.0 489.0,487.0 489.0,487.0 489.0,487.0 489.0,487.0 489.0,487.0 489.0,487.0 489.0,487.0 489.0,487.0 489.0,487.0 489.0,487.0 489.0,487.0 489.0,487.0 489.0,487.0 489.0,487.0 489.0,487.0 489.0,487.0 489.0,487.0 489.0,487.0 489.0,487.0 489.0,487.0 489.0,487.0 489.0,487.0 489.0,487.0 489.0,487.0 489.0,487.0 489.0,487.0 489.0,487.0 489.0,487.0 489.0,487.0 489.0,487.0 489.0,487.0 489.0,487.0 489.0,487.0 489.0,487.0 489.0,487.0 489.0,487.0 489.0,487.0 489.0,487.0 489.0,487.0 489.0,487.0 489.0,487.0 489.0,487.0 489.0,487.0 489.0,487.0 489.0,487.0 489.0,487.0 489.0,487.0 489.0,487.0 489.0,487.0 489.0,487.0 489.0,487.0 489.0,487.0 489.0,487.0 489.0,487.0 489.0,487.0 489.0,487.0 489.0,487.0 489.0,487.0 489.0,487.0 489.0,487.0 489.0,487.0 489.0,487.0 489.0,487.0 489.0,487.0 489.0,487.0 489.0,487.0 489.0,487.0 489.0,487.0 489.0,487.0 489.0,487.0 489.0,487.0 489.0,487.0 489.0,487.0 489.0,487.0 489.0,487.0 489.0,487.0 489.0,487.0 489.0,487.0 489.0,487.0 489.0,487.0 489.0,487.0 489.0,487.0 489.0,487.0 489.0,487.0 489.0,487.0 489.0,487.0 489.0,487.0 489.0,487.0 489.0,487.0 489.0,487.0 489.0,487.0 489.0,487.0 489.0,487.0 489.0,487.0 489.0,487.0 489.0,487.0 489.0,487.0 489.0,487.0 489.0,487.0 489.0,487.0 489.0,487.0 489.0,487.0 489.0,487.0 489.0,487.0 489.0,487.0 489.0,487.0 489.0,487.0 489.0,487.0 489.0,487.0 489.0,487.0 489.0,487.0 489.0,487.0 489.0,487.0 489.0,487.0 489.0,487.0 489.0,487.0 489.0,487.0 489.0,487.0 489.0,487.0 489.0,487.0 489.0,487.0 489.0,487.0 489.0,487.0 489.0,487.0 489.0,487.0 489.0,487.0 489.0,487.0 489.0,487.0 489.0,487.0 489.0,487.0 489.0,487.0 489.0,487.0 489.0,487.0 489.0,487.0 489.0,487.0 489.0,487.0 489.0,487.0 489.0,487.0 489.0,487.0 489.0,487.0 489.0,487.0 489.0,487.0 489.0,487.0 489.0,487.0 489.0,487.0 489.0,487.0 489.0,487.0 489.0,487.0 489.0,487.0 489.0,487.0 489.0,487.0 489.0,487.0 489.0,487.0 489.0,487.0 489.0,487.0 489.0,487.0 489.0,487.0" fill="none" stroke="#4ade80" stroke-width="2.6" stroke-opacity="0.72" stroke-linejoin="round" stroke-linecap="round"/>
<polyline points="489.0,487.0 489.0,487.0 489.0,487.0 489.0,487.0 489.0,487.0 489.0,487.0 489.0,487.0 489.0,487.0 489.0,487.0 489.0,487.0 489.0,487.0 489.0,487.0 489.0,487.0 489.0,487.0 489.0,487.0 489.0,487.0 489.0,487.0 489.0,487.0 489.0,487.0 489.0,487.0 489.0,487.0 489.0,487.0 489.0,487.0 489.0,487.0 489.0,487.0 489.0,487.0 489.0,487.0 489.0,487.0 489.0,487.0 489.0,487.0 489.0,487.0 489.0,487.0 489.0,487.0 489.0,487.0 489.0,487.0 489.0,487.0 489.0,487.0 489.0,487.0 489.0,487.0 489.0,487.0 489.0,487.0 489.0,487.0 489.0,487.0 489.0,487.0 489.0,487.0 489.0,487.0 489.0,487.0 489.0,487.0 489.0,487.0 489.0,487.0 489.0,487.0 489.0,487.0 489.0,487.0 489.0,487.0 489.0,487.0 489.0,487.0 489.0,487.0 489.0,487.0 489.0,487.0 489.0,487.0 489.0,487.0 489.0,487.0 489.0,487.0 489.0,487.0 489.0,487.0 489.0,487.0 489.0,487.0 489.0,487.0 489.0,487.0 489.0,487.0 489.0,487.0 489.0,487.0 489.0,487.0 489.0,487.0 489.0,487.0 489.0,487.0 489.0,487.0 489.0,487.0 489.0,487.0 489.0,487.0 489.0,487.0 489.0,487.0 489.0,487.0 489.0,487.0 489.0,487.0 489.0,487.0 489.0,487.0 489.0,487.0 489.0,487.0 489.0,487.0 489.0,487.0 489.0,487.0 489.0,487.0 489.0,487.0 489.0,487.0 489.0,487.0 489.0,487.0 489.0,487.0 489.0,487.0 489.0,487.0 489.0,487.0 489.0,487.0 489.0,487.0 489.0,487.0 489.0,487.0 489.0,487.0 489.0,487.0 489.0,487.0 489.0,487.0 489.0,487.0 489.0,487.0 489.0,487.0 489.0,487.0 489.0,487.0 489.0,487.0 489.0,487.0 489.0,487.0 489.0,487.0 489.0,487.0 489.0,487.0 489.0,487.0 489.0,487.0 489.0,487.0 489.0,487.0 489.0,487.0 489.0,487.0 489.0,487.0 489.0,487.0 489.0,487.0 489.0,487.0 489.0,487.0 489.0,487.0 489.0,487.0 489.0,487.0 489.0,487.0 489.0,487.0 489.0,487.0 489.0,487.0 489.0,487.0 489.0,487.0 489.0,487.0 489.0,487.0 489.0,487.0 489.0,487.0 489.0,487.0 489.0,487.0 489.0,487.0 489.0,487.0 489.0,487.0 489.0,487.0 489.0,487.0 489.0,487.0 489.0,487.0 489.0,487.0 489.0,487.0 489.0,487.0 489.1,487.0 489.1,487.0 489.1,487.0 489.1,487.0 489.1,487.0 489.1,487.0 489.1,487.0 489.1,487.0 489.1,487.0 489.1,487.0 489.1,487.0 489.1,487.0 489.1,487.0 489.1,487.0 489.1,487.0 489.1,487.0 489.1,487.0 489.1,487.0 489.1,487.0 489.1,487.0 489.1,487.0 489.1,487.0 489.1,487.0 489.1,487.0 489.1,487.0 489.1,487.0 489.1,487.0 489.1,487.0 489.1,487.0 489.1,487.0 489.1,487.0 489.1,487.0 489.1,487.0 489.1,487.0 489.1,487.0 489.1,487.0 489.1,487.0 489.1,487.0 489.1,487.0 489.1,487.0 489.1,487.0 489.1,487.0 489.1,487.0 489.2,487.0 489.2,487.0 489.2,487.0 489.2,487.0 489.2,487.0 489.2,487.0 489.2,487.0 489.2,487.0 489.2,487.0 489.2,487.0 489.2,487.0 489.2,487.0 489.2,487.0 489.2,487.0 489.2,487.0 489.2,487.0 489.2,487.0 489.2,487.0 489.2,487.0 489.2,487.0 489.2,487.0 489.3,487.0 489.3,487.0 489.3,487.0 489.3,487.0 489.3,487.0 489.3,487.0 489.3,487.0 489.3,487.0 489.3,487.0 489.3,487.0 489.3,487.0 489.3,487.0 489.3,487.0 489.4,487.0 489.4,487.0 489.4,487.0 489.4,487.0 489.4,487.0 489.4,487.0 489.4,487.0 489.4,487.0 489.4,487.0 489.4,487.0 489.5,487.0 489.5,487.0 489.5,487.0 489.5,487.0 489.5,487.0 489.5,487.0 489.5,487.0 489.5,487.0 489.6,487.0 489.6,487.0 489.6,487.0 489.6,487.0 489.6,487.0 489.6,487.0 489.6,487.0 489.7,487.0 489.7,487.0 489.7,487.0 489.7,487.0 489.7,487.0 489.7,487.0 489.8,487.0 489.8,487.0 489.8,487.0 489.8,487.0 489.8,487.0 489.9,487.0 489.9,487.0 489.9,487.0 489.9,487.0 490.0,487.0 490.0,487.0 490.0,487.0 490.0,487.0 490.1,487.0 490.1,487.0 490.1,487.0 490.1,487.0 490.2,487.0 490.2,487.0 490.2,487.0 490.3,487.0 490.3,487.0 490.3,487.0 490.4,487.0 490.4,487.0 490.4,487.0 490.5,487.0 490.5,487.0 490.5,487.0 490.6,487.0 490.6,487.0 490.7,487.0 490.7,487.0 490.7,487.0 490.8,487.0 490.8,487.0 490.9,487.0 490.9,487.0 491.0,487.0 491.0,487.0 491.1,487.0 491.1,487.0 491.2,487.0 491.2,487.0 491.3,487.0 491.3,487.0 491.4,487.0 491.5,487.0 491.5,487.0 491.6,487.0 491.7,487.0 491.7,487.0 491.8,487.0 491.9,487.0 491.9,487.0 492.0,487.0 492.1,487.0 492.2,487.0 492.2,487.0 492.3,487.0 492.4,487.0 492.5,487.0 492.6,487.0 492.7,487.0 492.8,487.0 492.9,487.0 493.0,487.0 493.1,487.0 493.2,487.0 493.3,487.0 493.4,487.0 493.5,487.0 493.6,487.0 493.7,487.0 493.8,487.0 494.0,487.0 494.1,487.0 494.2,487.0 494.4,487.0 494.5,487.0 494.6,487.0 494.8,487.0 494.9,487.0 495.1,487.0 495.2,487.0 495.4,487.0 495.5,487.0 495.7,487.0 495.9,487.0 496.1,487.0 496.2,487.0 496.4,487.0 496.6,487.0 496.8,487.0 497.0,487.0 497.2,487.0 497.4,487.0 497.6,487.0 497.8,487.0 498.1,487.0 498.3,487.0 498.5,487.0 498.8,487.0 499.0,487.0 499.3,487.0 499.5,487.0 499.8,487.0 500.1,487.0 500.3,487.0 500.6,487.0 500.9,487.0 501.2,487.0 501.5,487.0 501.9,487.0 502.2,487.0 502.5,487.0 502.9,487.0 503.2,487.0 503.6,487.0 503.9,487.0 504.3,487.0 504.7,487.0 505.1,487.0 505.5,487.0 505.9,487.0 506.3,487.0 506.8,487.0 507.2,487.0 507.7,487.0 508.2,487.0 508.7,487.0 509.2,487.0 509.7,487.0 510.2,487.0 510.7,487.0 511.3,487.0 511.8,487.0 512.4,487.0 513.0,487.0 513.6,487.0 514.2,487.0 514.9,487.0 515.5,487.0 516.2,487.0 516.9,487.0 517.6,487.0 518.3,487.0 519.1,487.0 519.8,487.0 520.6,487.0 521.4,487.0 522.2,487.0 523.1,487.0 523.9,487.0 524.8,487.0 525.7,487.0 526.7,487.0 527.6,487.0 528.6,487.0 529.6,487.0 530.6,487.0 531.7,487.0 532.8,487.0 533.9,487.0 535.0,487.0 536.2,487.0 537.4,487.0 538.6,487.0 539.8,487.0 541.1,487.0 542.4,487.0 543.8,487.0 545.2,487.0 546.6,487.0 548.1,487.0 549.6,487.0 551.1,487.0 552.7,487.0 554.3,487.0 555.9,487.0 557.6,487.0 559.4,487.0 561.1,487.0 563.0,487.0 564.8,487.0 566.8,487.0 568.7,487.0 570.7,487.0 572.8,487.0 574.9,487.0 577.1,487.0 579.3,487.0 581.6,487.0 584.0,487.0 586.4,487.0 588.8,487.0 591.4,487.0 594.0,487.0 596.6,487.0 599.3,487.0 602.1,487.0 605.0,487.0 607.9,487.0 610.9,487.0 614.0,487.0 617.2,487.0 620.4,487.0 623.8,487.0 627.2,487.0 630.7,487.0 634.3,487.0 637.9,487.0 641.7,487.0 645.6,487.0 649.5,487.0 653.6,487.0 657.8,487.0 662.0,487.0 666.4,487.0 670.9,487.0 675.5,487.0 680.2,487.0 685.1,487.0 690.0,487.0 695.1,487.0 700.4,487.0 705.7,487.0 711.2,487.0 716.8,487.0 722.6,487.0 728.5,487.0 734.6,487.0 740.8,487.0 747.1,487.0 753.7,487.0 760.4,487.0 767.3,487.0 774.3,487.0 781.5,487.0 788.9,487.0 796.5,487.0 804.3,487.0 812.3,487.0 820.5,487.0 828.9,487.0 837.5,487.0 846.3,487.0 855.3,487.0 864.6,487.0 874.1,487.0 883.9,487.0 893.9,487.0 904.1,487.0 914.6,487.0" fill="none" stroke="#4ade80" stroke-width="2.6" stroke-opacity="0.72" stroke-linejoin="round" stroke-linecap="round"/>
<circle cx="489.0" cy="487.0" r="6.0" fill="#f8fafc" opacity="1.0"/>
<text x="118.0" y="842.0" class="small" text-anchor="start">Generated from a standard-library Python gallery: vector field + nullclines + trajectories.</text>
</svg>
