<svg xmlns="http://www.w3.org/2000/svg" viewBox="0 0 1280 860">
<defs>
  <linearGradient id="bg" x1="0" y1="0" x2="1" y2="1">
    <stop offset="0%" stop-color="#081018"/>
    <stop offset="100%" stop-color="#101d2a"/>
  </linearGradient>
  <style>
    .title { font: 700 34px Helvetica, Arial, sans-serif; fill: #e6edf3; }
    .subtitle { font: 500 18px Helvetica, Arial, sans-serif; fill: #9fb3c8; }
    .label { font: 700 20px Helvetica, Arial, sans-serif; fill: #dce7f3; }
    .small { font: 500 15px Helvetica, Arial, sans-serif; fill: #9fb3c8; }
    .tiny { font: 500 13px Helvetica, Arial, sans-serif; fill: #8aa3bc; }
    .panel { fill: #122131; stroke: #5e7fa3; stroke-width: 2; rx: 18; }
    .grid { stroke: #223445; stroke-width: 1; opacity: 0.8; }
    .axis { stroke: #39516a; stroke-width: 2; }
  </style>
</defs>
<rect width="1280" height="860" fill="url(#bg)"/>
<rect x="60" y="120" width="1160" height="690" rx="18" class="panel"/>
<text x="90.0" y="68.0" class="title" text-anchor="start">Lotka-Volterra predator-prey</text>
<text x="90.0" y="98.0" class="subtitle" text-anchor="start">Closed orbits around a coexistence point, with prey feeding predator growth and predators draining prey.</text>
<text x="930.0" y="185.0" class="label" text-anchor="start">Legend</text>
<text x="968.0" y="232.0" class="small" text-anchor="start">trajectories</text>
<text x="968.0" y="268.0" class="small" text-anchor="start">dx/dt = 0</text>
<text x="968.0" y="304.0" class="small" text-anchor="start">dy/dt = 0</text>
<text x="968.0" y="340.0" class="small" text-anchor="start">fixed points</text>
<circle cx="940.0" cy="224.0" r="8.0" fill="#4ade80" opacity="1.0"/>
<line x1="924.0" y1="260.0" x2="956.0" y2="260.0" stroke="#f97316" stroke-width="4" opacity="1.0"/>
<line x1="924.0" y1="296.0" x2="956.0" y2="296.0" stroke="#60a5fa" stroke-width="4" opacity="1.0"/>
<circle cx="940.0" cy="336.0" r="7.0" fill="#f8fafc" opacity="1.0"/>
<text x="930.0" y="392.0" class="label" text-anchor="start">How to read it</text>
<text x="930.0" y="422.0" class="small" text-anchor="start">The arrows show the local flow.</text>
<text x="930.0" y="446.0" class="small" text-anchor="start">The colored curves show where one derivative vanishes.</text>
<text x="930.0" y="470.0" class="small" text-anchor="start">Trajectories reveal whether the fixed point attracts, spirals, or closes into an orbit.</text>
<line x1="110.0" y1="170.0" x2="110.0" y2="760.0" stroke="#223445" stroke-width="1" opacity="1.0"/>
<text x="110.0" y="788.0" class="tiny" text-anchor="middle">0.0</text>
<line x1="260.0" y1="170.0" x2="260.0" y2="760.0" stroke="#223445" stroke-width="1" opacity="1.0"/>
<text x="260.0" y="788.0" class="tiny" text-anchor="middle">0.7</text>
<line x1="410.0" y1="170.0" x2="410.0" y2="760.0" stroke="#223445" stroke-width="1" opacity="1.0"/>
<text x="410.0" y="788.0" class="tiny" text-anchor="middle">1.4</text>
<line x1="560.0" y1="170.0" x2="560.0" y2="760.0" stroke="#223445" stroke-width="1" opacity="1.0"/>
<text x="560.0" y="788.0" class="tiny" text-anchor="middle">2.0</text>
<line x1="710.0" y1="170.0" x2="710.0" y2="760.0" stroke="#223445" stroke-width="1" opacity="1.0"/>
<text x="710.0" y="788.0" class="tiny" text-anchor="middle">2.7</text>
<line x1="860.0" y1="170.0" x2="860.0" y2="760.0" stroke="#223445" stroke-width="1" opacity="1.0"/>
<text x="860.0" y="788.0" class="tiny" text-anchor="middle">3.4</text>
<line x1="110.0" y1="760.0" x2="860.0" y2="760.0" stroke="#223445" stroke-width="1" opacity="1.0"/>
<text x="92.0" y="764.0" class="tiny" text-anchor="end">0.0</text>
<line x1="110.0" y1="642.0" x2="860.0" y2="642.0" stroke="#223445" stroke-width="1" opacity="1.0"/>
<text x="92.0" y="646.0" class="tiny" text-anchor="end">0.7</text>
<line x1="110.0" y1="524.0" x2="860.0" y2="524.0" stroke="#223445" stroke-width="1" opacity="1.0"/>
<text x="92.0" y="528.0" class="tiny" text-anchor="end">1.4</text>
<line x1="110.0" y1="406.0" x2="860.0" y2="406.0" stroke="#223445" stroke-width="1" opacity="1.0"/>
<text x="92.0" y="410.0" class="tiny" text-anchor="end">2.0</text>
<line x1="110.0" y1="288.0" x2="860.0" y2="288.0" stroke="#223445" stroke-width="1" opacity="1.0"/>
<text x="92.0" y="292.0" class="tiny" text-anchor="end">2.7</text>
<line x1="110.0" y1="170.0" x2="860.0" y2="170.0" stroke="#223445" stroke-width="1" opacity="1.0"/>
<text x="92.0" y="174.0" class="tiny" text-anchor="end">3.4</text>
<line x1="110.0" y1="170.0" x2="110.0" y2="760.0" stroke="#39516a" stroke-width="2" opacity="1.0"/>
<line x1="110.0" y1="760.0" x2="860.0" y2="760.0" stroke="#39516a" stroke-width="2" opacity="1.0"/>
<line x1="110.0" y1="710.8" x2="110.0" y2="722.6" stroke="#4b6580" stroke-width="1.4" opacity="0.9"/>
<line x1="110.0" y1="661.7" x2="110.0" y2="673.5" stroke="#4b6580" stroke-width="1.4" opacity="0.9"/>
<line x1="110.0" y1="612.5" x2="110.0" y2="624.3" stroke="#4b6580" stroke-width="1.4" opacity="0.9"/>
<line x1="110.0" y1="563.3" x2="110.0" y2="575.1" stroke="#4b6580" stroke-width="1.4" opacity="0.9"/>
<line x1="110.0" y1="514.2" x2="110.0" y2="526.0" stroke="#4b6580" stroke-width="1.4" opacity="0.9"/>
<line x1="110.0" y1="465.0" x2="110.0" y2="476.8" stroke="#4b6580" stroke-width="1.4" opacity="0.9"/>
<line x1="110.0" y1="415.8" x2="110.0" y2="427.6" stroke="#4b6580" stroke-width="1.4" opacity="0.9"/>
<line x1="110.0" y1="366.7" x2="110.0" y2="378.5" stroke="#4b6580" stroke-width="1.4" opacity="0.9"/>
<line x1="110.0" y1="317.5" x2="110.0" y2="329.3" stroke="#4b6580" stroke-width="1.4" opacity="0.9"/>
<line x1="110.0" y1="268.3" x2="110.0" y2="280.1" stroke="#4b6580" stroke-width="1.4" opacity="0.9"/>
<line x1="110.0" y1="219.2" x2="110.0" y2="231.0" stroke="#4b6580" stroke-width="1.4" opacity="0.9"/>
<line x1="110.0" y1="170.0" x2="110.0" y2="181.8" stroke="#4b6580" stroke-width="1.4" opacity="0.9"/>
<line x1="156.9" y1="760.0" x2="171.9" y2="760.0" stroke="#4b6580" stroke-width="1.4" opacity="0.9"/>
<line x1="156.9" y1="710.8" x2="168.2" y2="718.5" stroke="#4b6580" stroke-width="1.4" opacity="0.9"/>
<line x1="156.9" y1="661.7" x2="163.0" y2="672.4" stroke="#4b6580" stroke-width="1.4" opacity="0.9"/>
<line x1="156.9" y1="612.5" x2="159.9" y2="624.1" stroke="#4b6580" stroke-width="1.4" opacity="0.9"/>
<line x1="156.9" y1="563.3" x2="158.2" y2="575.1" stroke="#4b6580" stroke-width="1.4" opacity="0.9"/>
<line x1="156.9" y1="514.2" x2="157.1" y2="526.0" stroke="#4b6580" stroke-width="1.4" opacity="0.9"/>
<line x1="156.9" y1="465.0" x2="156.4" y2="476.8" stroke="#4b6580" stroke-width="1.4" opacity="0.9"/>
<line x1="156.9" y1="415.8" x2="155.9" y2="427.6" stroke="#4b6580" stroke-width="1.4" opacity="0.9"/>
<line x1="156.9" y1="366.7" x2="155.5" y2="378.4" stroke="#4b6580" stroke-width="1.4" opacity="0.9"/>
<line x1="156.9" y1="317.5" x2="155.2" y2="329.2" stroke="#4b6580" stroke-width="1.4" opacity="0.9"/>
<line x1="156.9" y1="268.3" x2="155.0" y2="280.0" stroke="#4b6580" stroke-width="1.4" opacity="0.9"/>
<line x1="156.9" y1="219.2" x2="154.8" y2="230.9" stroke="#4b6580" stroke-width="1.4" opacity="0.9"/>
<line x1="156.9" y1="170.0" x2="154.6" y2="181.7" stroke="#4b6580" stroke-width="1.4" opacity="0.9"/>
<line x1="203.8" y1="760.0" x2="218.8" y2="760.0" stroke="#4b6580" stroke-width="1.4" opacity="0.9"/>
<line x1="203.8" y1="710.8" x2="218.1" y2="714.4" stroke="#4b6580" stroke-width="1.4" opacity="0.9"/>
<line x1="203.8" y1="661.7" x2="215.3" y2="669.2" stroke="#4b6580" stroke-width="1.4" opacity="0.9"/>
<line x1="203.8" y1="612.5" x2="211.1" y2="622.8" stroke="#4b6580" stroke-width="1.4" opacity="0.9"/>
<line x1="203.8" y1="563.3" x2="207.2" y2="574.8" stroke="#4b6580" stroke-width="1.4" opacity="0.9"/>
<line x1="203.8" y1="514.2" x2="204.4" y2="526.0" stroke="#4b6580" stroke-width="1.4" opacity="0.9"/>
<line x1="203.8" y1="465.0" x2="202.5" y2="476.8" stroke="#4b6580" stroke-width="1.4" opacity="0.9"/>
<line x1="203.8" y1="415.8" x2="201.1" y2="427.4" stroke="#4b6580" stroke-width="1.4" opacity="0.9"/>
<line x1="203.8" y1="366.7" x2="200.1" y2="378.1" stroke="#4b6580" stroke-width="1.4" opacity="0.9"/>
<line x1="203.8" y1="317.5" x2="199.4" y2="328.8" stroke="#4b6580" stroke-width="1.4" opacity="0.9"/>
<line x1="203.8" y1="268.3" x2="198.8" y2="279.5" stroke="#4b6580" stroke-width="1.4" opacity="0.9"/>
<line x1="203.8" y1="219.2" x2="198.4" y2="230.2" stroke="#4b6580" stroke-width="1.4" opacity="0.9"/>
<line x1="203.8" y1="170.0" x2="198.0" y2="180.9" stroke="#4b6580" stroke-width="1.4" opacity="0.9"/>
<line x1="250.6" y1="760.0" x2="265.6" y2="760.0" stroke="#4b6580" stroke-width="1.4" opacity="0.9"/>
<line x1="250.6" y1="710.8" x2="265.5" y2="712.4" stroke="#4b6580" stroke-width="1.4" opacity="0.9"/>
<line x1="250.6" y1="661.7" x2="264.8" y2="665.5" stroke="#4b6580" stroke-width="1.4" opacity="0.9"/>
<line x1="250.6" y1="612.5" x2="262.7" y2="619.5" stroke="#4b6580" stroke-width="1.4" opacity="0.9"/>
<line x1="250.6" y1="563.3" x2="258.0" y2="573.6" stroke="#4b6580" stroke-width="1.4" opacity="0.9"/>
<line x1="250.6" y1="514.2" x2="252.2" y2="525.9" stroke="#4b6580" stroke-width="1.4" opacity="0.9"/>
<line x1="250.6" y1="465.0" x2="247.6" y2="476.6" stroke="#4b6580" stroke-width="1.4" opacity="0.9"/>
<line x1="250.6" y1="415.8" x2="244.7" y2="426.7" stroke="#4b6580" stroke-width="1.4" opacity="0.9"/>
<line x1="250.6" y1="366.7" x2="243.0" y2="376.8" stroke="#4b6580" stroke-width="1.4" opacity="0.9"/>
<line x1="250.6" y1="317.5" x2="241.8" y2="327.1" stroke="#4b6580" stroke-width="1.4" opacity="0.9"/>
<line x1="250.6" y1="268.3" x2="241.1" y2="277.4" stroke="#4b6580" stroke-width="1.4" opacity="0.9"/>
<line x1="250.6" y1="219.2" x2="240.5" y2="227.9" stroke="#4b6580" stroke-width="1.4" opacity="0.9"/>
<line x1="250.6" y1="170.0" x2="240.1" y2="178.4" stroke="#4b6580" stroke-width="1.4" opacity="0.9"/>
<line x1="297.5" y1="760.0" x2="312.5" y2="760.0" stroke="#4b6580" stroke-width="1.4" opacity="0.9"/>
<line x1="297.5" y1="710.8" x2="312.5" y2="711.3" stroke="#4b6580" stroke-width="1.4" opacity="0.9"/>
<line x1="297.5" y1="661.7" x2="312.4" y2="662.9" stroke="#4b6580" stroke-width="1.4" opacity="0.9"/>
<line x1="297.5" y1="612.5" x2="312.1" y2="615.2" stroke="#4b6580" stroke-width="1.4" opacity="0.9"/>
<line x1="297.5" y1="563.3" x2="310.7" y2="569.0" stroke="#4b6580" stroke-width="1.4" opacity="0.9"/>
<line x1="297.5" y1="514.2" x2="302.2" y2="525.4" stroke="#4b6580" stroke-width="1.4" opacity="0.9"/>
<line x1="297.5" y1="465.0" x2="289.2" y2="474.8" stroke="#4b6580" stroke-width="1.4" opacity="0.9"/>
<line x1="297.5" y1="415.8" x2="285.4" y2="422.8" stroke="#4b6580" stroke-width="1.4" opacity="0.9"/>
<line x1="297.5" y1="366.7" x2="284.2" y2="372.1" stroke="#4b6580" stroke-width="1.4" opacity="0.9"/>
<line x1="297.5" y1="317.5" x2="283.7" y2="322.1" stroke="#4b6580" stroke-width="1.4" opacity="0.9"/>
<line x1="297.5" y1="268.3" x2="283.5" y2="272.5" stroke="#4b6580" stroke-width="1.4" opacity="0.9"/>
<line x1="297.5" y1="219.2" x2="283.3" y2="223.0" stroke="#4b6580" stroke-width="1.4" opacity="0.9"/>
<line x1="297.5" y1="170.0" x2="283.2" y2="173.6" stroke="#4b6580" stroke-width="1.4" opacity="0.9"/>
<line x1="344.4" y1="760.0" x2="359.4" y2="760.0" stroke="#4b6580" stroke-width="1.4" opacity="0.9"/>
<line x1="344.4" y1="710.8" x2="359.4" y2="710.7" stroke="#4b6580" stroke-width="1.4" opacity="0.9"/>
<line x1="344.4" y1="661.7" x2="359.4" y2="661.2" stroke="#4b6580" stroke-width="1.4" opacity="0.9"/>
<line x1="344.4" y1="612.5" x2="359.3" y2="611.6" stroke="#4b6580" stroke-width="1.4" opacity="0.9"/>
<line x1="344.4" y1="563.3" x2="359.1" y2="561.2" stroke="#4b6580" stroke-width="1.4" opacity="0.9"/>
<line x1="344.4" y1="514.2" x2="355.0" y2="505.8" stroke="#4b6580" stroke-width="1.4" opacity="0.9"/>
<line x1="344.4" y1="465.0" x2="331.0" y2="459.7" stroke="#4b6580" stroke-width="1.4" opacity="0.9"/>
<line x1="344.4" y1="415.8" x2="329.8" y2="413.1" stroke="#4b6580" stroke-width="1.4" opacity="0.9"/>
<line x1="344.4" y1="366.7" x2="329.6" y2="364.6" stroke="#4b6580" stroke-width="1.4" opacity="0.9"/>
<line x1="344.4" y1="317.5" x2="329.5" y2="315.8" stroke="#4b6580" stroke-width="1.4" opacity="0.9"/>
<line x1="344.4" y1="268.3" x2="329.5" y2="266.9" stroke="#4b6580" stroke-width="1.4" opacity="0.9"/>
<line x1="344.4" y1="219.2" x2="329.5" y2="217.8" stroke="#4b6580" stroke-width="1.4" opacity="0.9"/>
<line x1="344.4" y1="170.0" x2="329.5" y2="168.8" stroke="#4b6580" stroke-width="1.4" opacity="0.9"/>
<line x1="391.2" y1="760.0" x2="406.2" y2="760.0" stroke="#4b6580" stroke-width="1.4" opacity="0.9"/>
<line x1="391.2" y1="710.8" x2="406.2" y2="710.2" stroke="#4b6580" stroke-width="1.4" opacity="0.9"/>
<line x1="391.2" y1="661.7" x2="406.1" y2="660.1" stroke="#4b6580" stroke-width="1.4" opacity="0.9"/>
<line x1="391.2" y1="612.5" x2="405.7" y2="609.3" stroke="#4b6580" stroke-width="1.4" opacity="0.9"/>
<line x1="391.2" y1="563.3" x2="403.7" y2="556.8" stroke="#4b6580" stroke-width="1.4" opacity="0.9"/>
<line x1="391.2" y1="514.2" x2="395.2" y2="502.8" stroke="#4b6580" stroke-width="1.4" opacity="0.9"/>
<line x1="391.2" y1="465.0" x2="384.1" y2="454.6" stroke="#4b6580" stroke-width="1.4" opacity="0.9"/>
<line x1="391.2" y1="415.8" x2="380.0" y2="408.0" stroke="#4b6580" stroke-width="1.4" opacity="0.9"/>
<line x1="391.2" y1="366.7" x2="378.6" y2="360.3" stroke="#4b6580" stroke-width="1.4" opacity="0.9"/>
<line x1="391.2" y1="317.5" x2="378.0" y2="312.0" stroke="#4b6580" stroke-width="1.4" opacity="0.9"/>
<line x1="391.2" y1="268.3" x2="377.6" y2="263.4" stroke="#4b6580" stroke-width="1.4" opacity="0.9"/>
<line x1="391.2" y1="219.2" x2="377.4" y2="214.6" stroke="#4b6580" stroke-width="1.4" opacity="0.9"/>
<line x1="391.2" y1="170.0" x2="377.3" y2="165.8" stroke="#4b6580" stroke-width="1.4" opacity="0.9"/>
<line x1="438.1" y1="760.0" x2="453.1" y2="760.0" stroke="#4b6580" stroke-width="1.4" opacity="0.9"/>
<line x1="438.1" y1="710.8" x2="453.1" y2="709.9" stroke="#4b6580" stroke-width="1.4" opacity="0.9"/>
<line x1="438.1" y1="661.7" x2="452.8" y2="659.4" stroke="#4b6580" stroke-width="1.4" opacity="0.9"/>
<line x1="438.1" y1="612.5" x2="451.9" y2="607.9" stroke="#4b6580" stroke-width="1.4" opacity="0.9"/>
<line x1="438.1" y1="563.3" x2="448.7" y2="554.9" stroke="#4b6580" stroke-width="1.4" opacity="0.9"/>
<line x1="438.1" y1="514.2" x2="440.8" y2="502.6" stroke="#4b6580" stroke-width="1.4" opacity="0.9"/>
<line x1="438.1" y1="465.0" x2="433.1" y2="453.9" stroke="#4b6580" stroke-width="1.4" opacity="0.9"/>
<line x1="438.1" y1="415.8" x2="429.2" y2="406.4" stroke="#4b6580" stroke-width="1.4" opacity="0.9"/>
<line x1="438.1" y1="366.7" x2="427.4" y2="358.5" stroke="#4b6580" stroke-width="1.4" opacity="0.9"/>
<line x1="438.1" y1="317.5" x2="426.4" y2="310.2" stroke="#4b6580" stroke-width="1.4" opacity="0.9"/>
<line x1="438.1" y1="268.3" x2="425.8" y2="261.6" stroke="#4b6580" stroke-width="1.4" opacity="0.9"/>
<line x1="438.1" y1="219.2" x2="425.4" y2="212.9" stroke="#4b6580" stroke-width="1.4" opacity="0.9"/>
<line x1="438.1" y1="170.0" x2="425.2" y2="164.0" stroke="#4b6580" stroke-width="1.4" opacity="0.9"/>
<line x1="485.0" y1="760.0" x2="500.0" y2="760.0" stroke="#4b6580" stroke-width="1.4" opacity="0.9"/>
<line x1="485.0" y1="710.8" x2="499.9" y2="709.7" stroke="#4b6580" stroke-width="1.4" opacity="0.9"/>
<line x1="485.0" y1="661.7" x2="499.6" y2="658.8" stroke="#4b6580" stroke-width="1.4" opacity="0.9"/>
<line x1="485.0" y1="612.5" x2="498.2" y2="606.9" stroke="#4b6580" stroke-width="1.4" opacity="0.9"/>
<line x1="485.0" y1="563.3" x2="494.3" y2="554.1" stroke="#4b6580" stroke-width="1.4" opacity="0.9"/>
<line x1="485.0" y1="514.2" x2="487.1" y2="502.5" stroke="#4b6580" stroke-width="1.4" opacity="0.9"/>
<line x1="485.0" y1="465.0" x2="480.9" y2="453.7" stroke="#4b6580" stroke-width="1.4" opacity="0.9"/>
<line x1="485.0" y1="415.8" x2="477.4" y2="405.7" stroke="#4b6580" stroke-width="1.4" opacity="0.9"/>
<line x1="485.0" y1="366.7" x2="475.5" y2="357.5" stroke="#4b6580" stroke-width="1.4" opacity="0.9"/>
<line x1="485.0" y1="317.5" x2="474.4" y2="309.2" stroke="#4b6580" stroke-width="1.4" opacity="0.9"/>
<line x1="485.0" y1="268.3" x2="473.7" y2="260.6" stroke="#4b6580" stroke-width="1.4" opacity="0.9"/>
<line x1="485.0" y1="219.2" x2="473.3" y2="211.8" stroke="#4b6580" stroke-width="1.4" opacity="0.9"/>
<line x1="485.0" y1="170.0" x2="472.9" y2="163.0" stroke="#4b6580" stroke-width="1.4" opacity="0.9"/>
<line x1="531.9" y1="760.0" x2="546.9" y2="760.0" stroke="#4b6580" stroke-width="1.4" opacity="0.9"/>
<line x1="531.9" y1="710.8" x2="546.8" y2="709.5" stroke="#4b6580" stroke-width="1.4" opacity="0.9"/>
<line x1="531.9" y1="661.7" x2="546.3" y2="658.4" stroke="#4b6580" stroke-width="1.4" opacity="0.9"/>
<line x1="531.9" y1="612.5" x2="544.6" y2="606.3" stroke="#4b6580" stroke-width="1.4" opacity="0.9"/>
<line x1="531.9" y1="563.3" x2="540.3" y2="553.6" stroke="#4b6580" stroke-width="1.4" opacity="0.9"/>
<line x1="531.9" y1="514.2" x2="533.7" y2="502.5" stroke="#4b6580" stroke-width="1.4" opacity="0.9"/>
<line x1="531.9" y1="465.0" x2="528.3" y2="453.5" stroke="#4b6580" stroke-width="1.4" opacity="0.9"/>
<line x1="531.9" y1="415.8" x2="525.1" y2="405.3" stroke="#4b6580" stroke-width="1.4" opacity="0.9"/>
<line x1="531.9" y1="366.7" x2="523.2" y2="357.0" stroke="#4b6580" stroke-width="1.4" opacity="0.9"/>
<line x1="531.9" y1="317.5" x2="522.1" y2="308.6" stroke="#4b6580" stroke-width="1.4" opacity="0.9"/>
<line x1="531.9" y1="268.3" x2="521.3" y2="259.9" stroke="#4b6580" stroke-width="1.4" opacity="0.9"/>
<line x1="531.9" y1="219.2" x2="520.8" y2="211.2" stroke="#4b6580" stroke-width="1.4" opacity="0.9"/>
<line x1="531.9" y1="170.0" x2="520.5" y2="162.3" stroke="#4b6580" stroke-width="1.4" opacity="0.9"/>
<line x1="578.8" y1="760.0" x2="593.8" y2="760.0" stroke="#4b6580" stroke-width="1.4" opacity="0.9"/>
<line x1="578.8" y1="710.8" x2="593.6" y2="709.4" stroke="#4b6580" stroke-width="1.4" opacity="0.9"/>
<line x1="578.8" y1="661.7" x2="593.0" y2="658.1" stroke="#4b6580" stroke-width="1.4" opacity="0.9"/>
<line x1="578.8" y1="612.5" x2="591.1" y2="605.8" stroke="#4b6580" stroke-width="1.4" opacity="0.9"/>
<line x1="578.8" y1="563.3" x2="586.6" y2="553.3" stroke="#4b6580" stroke-width="1.4" opacity="0.9"/>
<line x1="578.8" y1="514.2" x2="580.4" y2="502.4" stroke="#4b6580" stroke-width="1.4" opacity="0.9"/>
<line x1="578.8" y1="465.0" x2="575.5" y2="453.5" stroke="#4b6580" stroke-width="1.4" opacity="0.9"/>
<line x1="578.8" y1="415.8" x2="572.5" y2="405.1" stroke="#4b6580" stroke-width="1.4" opacity="0.9"/>
<line x1="578.8" y1="366.7" x2="570.7" y2="356.7" stroke="#4b6580" stroke-width="1.4" opacity="0.9"/>
<line x1="578.8" y1="317.5" x2="569.5" y2="308.2" stroke="#4b6580" stroke-width="1.4" opacity="0.9"/>
<line x1="578.8" y1="268.3" x2="568.8" y2="259.5" stroke="#4b6580" stroke-width="1.4" opacity="0.9"/>
<line x1="578.8" y1="219.2" x2="568.3" y2="210.7" stroke="#4b6580" stroke-width="1.4" opacity="0.9"/>
<line x1="578.8" y1="170.0" x2="567.9" y2="161.9" stroke="#4b6580" stroke-width="1.4" opacity="0.9"/>
<line x1="625.6" y1="760.0" x2="640.6" y2="760.0" stroke="#4b6580" stroke-width="1.4" opacity="0.9"/>
<line x1="625.6" y1="710.8" x2="640.5" y2="709.3" stroke="#4b6580" stroke-width="1.4" opacity="0.9"/>
<line x1="625.6" y1="661.7" x2="639.8" y2="657.8" stroke="#4b6580" stroke-width="1.4" opacity="0.9"/>
<line x1="625.6" y1="612.5" x2="637.6" y2="605.4" stroke="#4b6580" stroke-width="1.4" opacity="0.9"/>
<line x1="625.6" y1="563.3" x2="633.0" y2="553.1" stroke="#4b6580" stroke-width="1.4" opacity="0.9"/>
<line x1="625.6" y1="514.2" x2="627.2" y2="502.4" stroke="#4b6580" stroke-width="1.4" opacity="0.9"/>
<line x1="625.6" y1="465.0" x2="622.6" y2="453.4" stroke="#4b6580" stroke-width="1.4" opacity="0.9"/>
<line x1="625.6" y1="415.8" x2="619.7" y2="405.0" stroke="#4b6580" stroke-width="1.4" opacity="0.9"/>
<line x1="625.6" y1="366.7" x2="618.0" y2="356.5" stroke="#4b6580" stroke-width="1.4" opacity="0.9"/>
<line x1="625.6" y1="317.5" x2="616.9" y2="307.9" stroke="#4b6580" stroke-width="1.4" opacity="0.9"/>
<line x1="625.6" y1="268.3" x2="616.1" y2="259.2" stroke="#4b6580" stroke-width="1.4" opacity="0.9"/>
<line x1="625.6" y1="219.2" x2="615.6" y2="210.4" stroke="#4b6580" stroke-width="1.4" opacity="0.9"/>
<line x1="625.6" y1="170.0" x2="615.1" y2="161.6" stroke="#4b6580" stroke-width="1.4" opacity="0.9"/>
<line x1="672.5" y1="760.0" x2="687.5" y2="760.0" stroke="#4b6580" stroke-width="1.4" opacity="0.9"/>
<line x1="672.5" y1="710.8" x2="687.4" y2="709.2" stroke="#4b6580" stroke-width="1.4" opacity="0.9"/>
<line x1="672.5" y1="661.7" x2="686.6" y2="657.6" stroke="#4b6580" stroke-width="1.4" opacity="0.9"/>
<line x1="672.5" y1="612.5" x2="684.2" y2="605.2" stroke="#4b6580" stroke-width="1.4" opacity="0.9"/>
<line x1="672.5" y1="563.3" x2="679.5" y2="552.9" stroke="#4b6580" stroke-width="1.4" opacity="0.9"/>
<line x1="672.5" y1="514.2" x2="673.9" y2="502.4" stroke="#4b6580" stroke-width="1.4" opacity="0.9"/>
<line x1="672.5" y1="465.0" x2="669.6" y2="453.4" stroke="#4b6580" stroke-width="1.4" opacity="0.9"/>
<line x1="672.5" y1="415.8" x2="666.9" y2="404.9" stroke="#4b6580" stroke-width="1.4" opacity="0.9"/>
<line x1="672.5" y1="366.7" x2="665.2" y2="356.4" stroke="#4b6580" stroke-width="1.4" opacity="0.9"/>
<line x1="672.5" y1="317.5" x2="664.1" y2="307.7" stroke="#4b6580" stroke-width="1.4" opacity="0.9"/>
<line x1="672.5" y1="268.3" x2="663.3" y2="259.0" stroke="#4b6580" stroke-width="1.4" opacity="0.9"/>
<line x1="672.5" y1="219.2" x2="662.8" y2="210.2" stroke="#4b6580" stroke-width="1.4" opacity="0.9"/>
<line x1="672.5" y1="170.0" x2="662.3" y2="161.3" stroke="#4b6580" stroke-width="1.4" opacity="0.9"/>
<line x1="719.4" y1="760.0" x2="734.4" y2="760.0" stroke="#4b6580" stroke-width="1.4" opacity="0.9"/>
<line x1="719.4" y1="710.8" x2="734.2" y2="709.1" stroke="#4b6580" stroke-width="1.4" opacity="0.9"/>
<line x1="719.4" y1="661.7" x2="733.4" y2="657.4" stroke="#4b6580" stroke-width="1.4" opacity="0.9"/>
<line x1="719.4" y1="612.5" x2="730.9" y2="604.9" stroke="#4b6580" stroke-width="1.4" opacity="0.9"/>
<line x1="719.4" y1="563.3" x2="726.2" y2="552.8" stroke="#4b6580" stroke-width="1.4" opacity="0.9"/>
<line x1="719.4" y1="514.2" x2="720.8" y2="502.4" stroke="#4b6580" stroke-width="1.4" opacity="0.9"/>
<line x1="719.4" y1="465.0" x2="716.7" y2="453.4" stroke="#4b6580" stroke-width="1.4" opacity="0.9"/>
<line x1="719.4" y1="415.8" x2="714.0" y2="404.8" stroke="#4b6580" stroke-width="1.4" opacity="0.9"/>
<line x1="719.4" y1="366.7" x2="712.3" y2="356.2" stroke="#4b6580" stroke-width="1.4" opacity="0.9"/>
<line x1="719.4" y1="317.5" x2="711.2" y2="307.6" stroke="#4b6580" stroke-width="1.4" opacity="0.9"/>
<line x1="719.4" y1="268.3" x2="710.5" y2="258.8" stroke="#4b6580" stroke-width="1.4" opacity="0.9"/>
<line x1="719.4" y1="219.2" x2="709.9" y2="210.0" stroke="#4b6580" stroke-width="1.4" opacity="0.9"/>
<line x1="719.4" y1="170.0" x2="709.5" y2="161.1" stroke="#4b6580" stroke-width="1.4" opacity="0.9"/>
<line x1="766.2" y1="760.0" x2="781.2" y2="760.0" stroke="#4b6580" stroke-width="1.4" opacity="0.9"/>
<line x1="766.2" y1="710.8" x2="781.1" y2="709.0" stroke="#4b6580" stroke-width="1.4" opacity="0.9"/>
<line x1="766.2" y1="661.7" x2="780.2" y2="657.3" stroke="#4b6580" stroke-width="1.4" opacity="0.9"/>
<line x1="766.2" y1="612.5" x2="777.6" y2="604.8" stroke="#4b6580" stroke-width="1.4" opacity="0.9"/>
<line x1="766.2" y1="563.3" x2="772.8" y2="552.7" stroke="#4b6580" stroke-width="1.4" opacity="0.9"/>
<line x1="766.2" y1="514.2" x2="767.6" y2="502.4" stroke="#4b6580" stroke-width="1.4" opacity="0.9"/>
<line x1="766.2" y1="465.0" x2="763.6" y2="453.4" stroke="#4b6580" stroke-width="1.4" opacity="0.9"/>
<line x1="766.2" y1="415.8" x2="761.1" y2="404.8" stroke="#4b6580" stroke-width="1.4" opacity="0.9"/>
<line x1="766.2" y1="366.7" x2="759.4" y2="356.2" stroke="#4b6580" stroke-width="1.4" opacity="0.9"/>
<line x1="766.2" y1="317.5" x2="758.3" y2="307.5" stroke="#4b6580" stroke-width="1.4" opacity="0.9"/>
<line x1="766.2" y1="268.3" x2="757.6" y2="258.7" stroke="#4b6580" stroke-width="1.4" opacity="0.9"/>
<line x1="766.2" y1="219.2" x2="757.0" y2="209.9" stroke="#4b6580" stroke-width="1.4" opacity="0.9"/>
<line x1="766.2" y1="170.0" x2="756.6" y2="161.0" stroke="#4b6580" stroke-width="1.4" opacity="0.9"/>
<line x1="813.1" y1="760.0" x2="828.1" y2="760.0" stroke="#4b6580" stroke-width="1.4" opacity="0.9"/>
<line x1="813.1" y1="710.8" x2="827.9" y2="709.0" stroke="#4b6580" stroke-width="1.4" opacity="0.9"/>
<line x1="813.1" y1="661.7" x2="827.0" y2="657.1" stroke="#4b6580" stroke-width="1.4" opacity="0.9"/>
<line x1="813.1" y1="612.5" x2="824.3" y2="604.6" stroke="#4b6580" stroke-width="1.4" opacity="0.9"/>
<line x1="813.1" y1="563.3" x2="819.5" y2="552.7" stroke="#4b6580" stroke-width="1.4" opacity="0.9"/>
<line x1="813.1" y1="514.2" x2="814.4" y2="502.4" stroke="#4b6580" stroke-width="1.4" opacity="0.9"/>
<line x1="813.1" y1="465.0" x2="810.6" y2="453.4" stroke="#4b6580" stroke-width="1.4" opacity="0.9"/>
<line x1="813.1" y1="415.8" x2="808.1" y2="404.7" stroke="#4b6580" stroke-width="1.4" opacity="0.9"/>
<line x1="813.1" y1="366.7" x2="806.5" y2="356.1" stroke="#4b6580" stroke-width="1.4" opacity="0.9"/>
<line x1="813.1" y1="317.5" x2="805.4" y2="307.4" stroke="#4b6580" stroke-width="1.4" opacity="0.9"/>
<line x1="813.1" y1="268.3" x2="804.6" y2="258.6" stroke="#4b6580" stroke-width="1.4" opacity="0.9"/>
<line x1="813.1" y1="219.2" x2="804.1" y2="209.8" stroke="#4b6580" stroke-width="1.4" opacity="0.9"/>
<line x1="813.1" y1="170.0" x2="803.7" y2="160.8" stroke="#4b6580" stroke-width="1.4" opacity="0.9"/>
<line x1="860.0" y1="760.0" x2="875.0" y2="760.0" stroke="#4b6580" stroke-width="1.4" opacity="0.9"/>
<line x1="860.0" y1="710.8" x2="874.8" y2="708.9" stroke="#4b6580" stroke-width="1.4" opacity="0.9"/>
<line x1="860.0" y1="661.7" x2="873.8" y2="657.0" stroke="#4b6580" stroke-width="1.4" opacity="0.9"/>
<line x1="860.0" y1="612.5" x2="871.0" y2="604.5" stroke="#4b6580" stroke-width="1.4" opacity="0.9"/>
<line x1="860.0" y1="563.3" x2="866.2" y2="552.6" stroke="#4b6580" stroke-width="1.4" opacity="0.9"/>
<line x1="860.0" y1="514.2" x2="861.2" y2="502.4" stroke="#4b6580" stroke-width="1.4" opacity="0.9"/>
<line x1="860.0" y1="465.0" x2="857.5" y2="453.4" stroke="#4b6580" stroke-width="1.4" opacity="0.9"/>
<line x1="860.0" y1="415.8" x2="855.1" y2="404.7" stroke="#4b6580" stroke-width="1.4" opacity="0.9"/>
<line x1="860.0" y1="366.7" x2="853.5" y2="356.0" stroke="#4b6580" stroke-width="1.4" opacity="0.9"/>
<line x1="860.0" y1="317.5" x2="852.4" y2="307.3" stroke="#4b6580" stroke-width="1.4" opacity="0.9"/>
<line x1="860.0" y1="268.3" x2="851.7" y2="258.5" stroke="#4b6580" stroke-width="1.4" opacity="0.9"/>
<line x1="860.0" y1="219.2" x2="851.1" y2="209.7" stroke="#4b6580" stroke-width="1.4" opacity="0.9"/>
<line x1="860.0" y1="170.0" x2="850.7" y2="160.7" stroke="#4b6580" stroke-width="1.4" opacity="0.9"/>
<polyline points="110.0,499.7 860.0,499.7" fill="none" stroke="#f97316" stroke-width="3.2" stroke-opacity="0.9" stroke-linejoin="round" stroke-linecap="round"/>
<polyline points="110.0,760.0 110.0,170.0" fill="none" stroke="#f97316" stroke-width="3.2" stroke-opacity="0.9" stroke-linejoin="round" stroke-linecap="round"/>
<polyline points="110.0,760.0 860.0,760.0" fill="none" stroke="#60a5fa" stroke-width="3.2" stroke-opacity="0.9" stroke-linejoin="round" stroke-linecap="round"/>
<polyline points="330.6,760.0 330.6,170.0" fill="none" stroke="#60a5fa" stroke-width="3.2" stroke-opacity="0.9" stroke-linejoin="round" stroke-linecap="round"/>
<polyline points="256.3,105.0 248.2,110.8 240.8,117.1 233.8,123.9 227.4,131.0 221.3,138.6 215.8,146.4 210.6,154.5 205.7,162.9 201.3,171.4 197.1,180.1 193.2,189.0 189.6,197.9 186.3,206.9 183.2,216.0 180.3,225.1 177.6,234.2 175.1,243.3 172.8,252.4 170.7,261.4 168.6,270.5 166.8,279.4 165.0,288.3 163.4,297.1 161.9,305.8 160.5,314.5 159.2,323.0 158.0,331.4 156.9,339.8 155.9,348.0 154.9,356.1 154.0,364.1 153.2,371.9 152.4,379.7 151.7,387.3 151.1,394.8 150.5,402.2 149.9,409.4 149.4,416.5 149.0,423.5 148.6,430.4 148.2,437.1 147.9,443.7 147.6,450.2 147.3,456.6 147.1,462.8 146.9,468.9 146.8,474.9 146.7,480.8 146.6,486.6 146.5,492.2 146.5,497.7 146.5,503.2 146.5,508.5 146.6,513.6 146.7,518.7 146.8,523.7 146.9,528.6 147.1,533.3 147.3,538.0 147.5,542.6 147.8,547.0 148.0,551.4 148.3,555.7 148.7,559.8 149.0,563.9 149.4,567.9 149.8,571.8 150.2,575.6 150.7,579.3 151.1,583.0 151.6,586.5 152.2,590.0 152.7,593.4 153.3,596.7 154.0,600.0 154.6,603.1 155.3,606.2 156.0,609.3 156.7,612.2 157.5,615.1 158.3,617.9 159.2,620.6 160.0,623.3 160.9,625.9 161.9,628.5 162.9,630.9 163.9,633.4 164.9,635.7 166.0,638.0 167.2,640.3 168.4,642.5 169.6,644.6 170.8,646.7 172.2,648.7 173.5,650.7 174.9,652.6 176.4,654.5 177.9,656.3 179.4,658.1 181.0,659.8 182.7,661.5 184.4,663.1 186.2,664.7 188.1,666.2 190.0,667.7 191.9,669.1 194.0,670.5 196.1,671.9 198.2,673.2 200.5,674.5 202.8,675.8 205.2,677.0 207.7,678.1 210.2,679.2 212.8,680.3 215.6,681.4 218.4,682.4 221.3,683.3 224.3,684.3 227.3,685.2 230.5,686.0 233.8,686.8 237.2,687.6 240.7,688.4 244.3,689.1 248.0,689.8 251.9,690.4 255.8,691.0 259.9,691.6 264.1,692.1 268.5,692.6 272.9,693.0 277.5,693.5 282.3,693.8 287.2,694.2 292.2,694.5 297.4,694.8 302.7,695.0 308.2,695.2 313.9,695.3 319.7,695.4 325.7,695.5 331.9,695.5 338.3,695.5 344.8,695.4 351.5,695.2 358.4,695.1 365.5,694.8 372.8,694.6 380.2,694.2 387.9,693.8 395.8,693.3 403.8,692.8 412.1,692.2 420.6,691.6 429.3,690.8 438.2,690.0 447.3,689.1 456.6,688.1 466.1,687.1 475.8,685.9 485.7,684.6 495.8,683.3 506.1,681.8 516.6,680.1 527.3,678.4 538.1,676.5 549.1,674.5 560.2,672.3 571.5,669.9 582.8,667.3 594.3,664.6 605.8,661.6 617.4,658.4 629.0,655.0 640.6,651.3 652.2,647.4 663.7,643.1 675.1,638.5 686.3,633.6 697.3,628.3 708.0,622.7 718.4,616.6 728.5,610.1 738.1,603.1 747.2,595.5 755.6,587.5 763.5,578.9 770.5,569.7 776.8,559.9 782.1,549.5 786.4,538.4 789.6,526.6 791.6,514.1 792.4,500.9 791.8,487.0 789.9,472.4 786.5,457.0 781.5,441.1 775.1,424.5 767.1,407.3 757.6,389.6 746.6,371.4 734.1,353.0 720.2,334.3 705.0,315.4 688.7,296.6 671.2,277.8 652.8,259.4 633.7,241.3 613.9,223.8 593.7,206.9 573.1,190.8 552.5,175.7 531.9,161.5 511.4,148.4 491.3,136.4 471.6,125.7 452.4,116.2 433.8,107.9 415.8,100.9" fill="none" stroke="#4ade80" stroke-width="2.6" stroke-opacity="0.72" stroke-linejoin="round" stroke-linecap="round"/>
<polyline points="217.2,651.3 219.6,652.7 222.1,654.0 224.6,655.3 227.2,656.5 229.9,657.7 232.7,658.9 235.5,660.0 238.5,661.0 241.5,662.0 244.6,663.0 247.8,663.9 251.1,664.8 254.5,665.6 258.0,666.4 261.6,667.2 265.4,667.9 269.2,668.5 273.1,669.2 277.1,669.7 281.3,670.2 285.6,670.7 289.9,671.2 294.4,671.5 299.1,671.9 303.8,672.2 308.7,672.4 313.7,672.6 318.9,672.7 324.1,672.8 329.5,672.9 335.1,672.9 340.8,672.8 346.6,672.7 352.6,672.5 358.7,672.2 364.9,671.9 371.3,671.5 377.9,671.1 384.5,670.6 391.4,670.0 398.4,669.3 405.5,668.6 412.7,667.8 420.1,666.9 427.7,665.9 435.3,664.8 443.1,663.6 451.1,662.4 459.1,661.0 467.3,659.5 475.6,657.8 484.0,656.1 492.4,654.2 501.0,652.2 509.6,650.1 518.3,647.8 527.0,645.3 535.8,642.7 544.5,639.8 553.3,636.8 562.1,633.6 570.7,630.2 579.4,626.5 587.9,622.7 596.3,618.5 604.5,614.1 612.6,609.5 620.4,604.5 628.0,599.2 635.3,593.7 642.2,587.7 648.7,581.5 654.9,574.9 660.5,567.9 665.7,560.5 670.2,552.7 674.2,544.5 677.5,535.9 680.1,526.9 682.0,517.5 683.0,507.6 683.3,497.3 682.6,486.6 681.1,475.5 678.6,464.0 675.2,452.2 670.9,440.0 665.6,427.5 659.3,414.7 652.1,401.8 644.0,388.6 635.1,375.4 625.3,362.1 614.7,348.9 603.3,335.7 591.4,322.6 578.8,309.8 565.7,297.3 552.3,285.2 538.4,273.5 524.4,262.3 510.1,251.7 495.8,241.6 481.5,232.3 467.2,223.6 453.1,215.7 439.1,208.5 425.5,202.1 412.1,196.5 399.1,191.7 386.5,187.7 374.2,184.4 362.5,182.0 351.1,180.3 340.3,179.3 329.9,179.0 319.9,179.4 310.5,180.4 301.5,182.0 293.0,184.2 284.9,186.9 277.2,190.1 269.9,193.8 263.1,197.9 256.6,202.4 250.5,207.2 244.8,212.4 239.4,217.8 234.3,223.6 229.5,229.5 225.0,235.7 220.7,242.1 216.7,248.6 213.0,255.3 209.5,262.1 206.2,268.9 203.1,275.9 200.2,282.9 197.4,290.0 194.9,297.1 192.5,304.2 190.2,311.4 188.1,318.5 186.2,325.6 184.3,332.7 182.6,339.8 181.0,346.8 179.4,353.8 178.0,360.7 176.7,367.6 175.5,374.4 174.4,381.2 173.3,387.8 172.3,394.4 171.4,400.9 170.6,407.4 169.8,413.7 169.1,420.0 168.4,426.2 167.8,432.3 167.3,438.3 166.8,444.2 166.4,450.0 166.0,455.7 165.7,461.3 165.4,466.9 165.2,472.3 165.0,477.7 164.8,482.9 164.7,488.1 164.6,493.1 164.6,498.1 164.6,503.0 164.7,507.8 164.7,512.5 164.9,517.1 165.0,521.6 165.2,526.0 165.4,530.4 165.7,534.6 166.0,538.8 166.3,542.9 166.7,546.9 167.1,550.8 167.5,554.6 168.0,558.4 168.5,562.1 169.1,565.7 169.6,569.2 170.2,572.6 170.9,576.0 171.6,579.3 172.3,582.5 173.1,585.7 173.9,588.7 174.7,591.7 175.6,594.7 176.5,597.6 177.5,600.4 178.5,603.1 179.5,605.8 180.6,608.4 181.7,610.9 182.9,613.4 184.1,615.8 185.4,618.2 186.7,620.5 188.0,622.7 189.4,624.9 190.9,627.1 192.4,629.1 194.0,631.2 195.6,633.1 197.3,635.0 199.0,636.9 200.8,638.7 202.6,640.5 204.5,642.2 206.5,643.8 208.6,645.5 210.7,647.0 212.8,648.5 215.1,650.0 217.4,651.4 219.8,652.8 222.2,654.1 224.8,655.4 227.4,656.6 230.1,657.8 232.8,658.9 235.7,660.0 238.6,661.1 241.7,662.1 244.8,663.1 248.0,664.0 251.3,664.9 254.7,665.7 258.3,666.5 261.9,667.2 265.6,667.9 269.4,668.6 273.3,669.2 277.4,669.8 281.6,670.3 285.8,670.8 290.2,671.2 294.7,671.6 299.4,671.9 304.1,672.2 309.0,672.4 314.0,672.6 319.2,672.8 324.5,672.8 329.9,672.9 335.4,672.9 341.1,672.8 347.0,672.6 352.9,672.5 359.1,672.2 365.3,671.9 371.7,671.5 378.3,671.1 385.0,670.5 391.8,670.0 398.8,669.3 405.9,668.6 413.2,667.7 420.6,666.8 428.1,665.8 435.8,664.7 443.6,663.6 451.6,662.3 459.6,660.9 467.8,659.4 476.1,657.7 484.5,656.0 493.0,654.1 501.5,652.1 510.1,649.9 518.8,647.6 527.6,645.1 536.3,642.5 545.1,639.6 553.9,636.6 562.6,633.4 571.3,630.0 579.9,626.3 588.4,622.4 596.8,618.3 605.0,613.8 613.1,609.2 620.9,604.2 628.4,598.9 635.7,593.3 642.6,587.4 649.1,581.1 655.2,574.4 660.9,567.4 666.0,560.0 670.5,552.2 674.4,544.0 677.7,535.4 680.3,526.3 682.1,516.9 683.1,507.0 683.2,496.7 682.6,485.9 681.0,474.8 678.5,463.3 675.0,451.4 670.6,439.2 665.2,426.7 658.9,413.9 651.7,401.0 643.5,387.8 634.5,374.6 624.6,361.3 614.0,348.0 602.6,334.9 590.6,321.8 578.0,309.1 564.9,296.6 551.4,284.5 537.6,272.8 523.5,261.6 509.2,251.0 494.9,241.0 480.6,231.7 466.3,223.1 452.2,215.2 438.3,208.1 424.6,201.7 411.3,196.2 398.3,191.4 385.7,187.5 373.5,184.3 361.7,181.8 350.4,180.2 339.6,179.2 329.2,179.0 319.3,179.4 309.9,180.4 301.0,182.1 292.4,184.3 284.4,187.1 276.7,190.3 269.5,194.0 262.7,198.1 256.2,202.6 250.2,207.5 244.4,212.7 239.0,218.2 234.0,223.9 229.2,229.9 224.7,236.1 220.5,242.5 216.5,249.0 212.8,255.7 209.3,262.5 206.0,269.4 202.9,276.3 200.0,283.4 197.3,290.4 194.7,297.6 192.3,304.7 190.1,311.8 188.0,319.0 186.0,326.1 184.2,333.2 182.5,340.2 180.9,347.3 179.4,354.2 178.0,361.2 176.6,368.0 175.4,374.8 174.3,381.6 173.2,388.2 172.3,394.8 171.4,401.3 170.5,407.8 169.7,414.1 169.0,420.4 168.4,426.6 167.8,432.6 167.3,438.6 166.8,444.5 166.4,450.4 166.0,456.1 165.7,461.7 165.4,467.2 165.2,472.7 165.0,478.0 164.8,483.2 164.7,488.4 164.6,493.5 164.6,498.4 164.6,503.3 164.7,508.1 164.7,512.8 164.9,517.4 165.0,521.9 165.2,526.3 165.4,530.6 165.7,534.9 166.0,539.1 166.3,543.1 166.7,547.1 167.1,551.0 167.6,554.9 168.0,558.6 168.5,562.3 169.1,565.9 169.7,569.4 170.3,572.8 170.9,576.2 171.6,579.5 172.4,582.7 173.1,585.9 173.9,588.9 174.8,591.9 175.6,594.9 176.6,597.7 177.5,600.5 178.5,603.3 179.6,605.9 180.7,608.5 181.8,611.1 183.0,613.6 184.2,616.0 185.4,618.3 186.8,620.6 188.1,622.9 189.5,625.1 191.0,627.2 192.5,629.3 194.1,631.3 195.7,633.3 197.4,635.2 199.1,637.0 200.9,638.8 202.8,640.6 204.7,642.3 206.6,643.9 208.7,645.5 210.8,647.1 213.0,648.6 215.2,650.1 217.5,651.5 219.9,652.9 222.4,654.2 224.9,655.5 227.5,656.7 230.2,657.9 233.0,659.0 235.9,660.1 238.8,661.2 241.9,662.2 245.0,663.1 248.2,664.0 251.5,664.9 255.0,665.7 258.5,666.5 262.1,667.3 265.8,668.0 269.7,668.6 273.6,669.2 277.6,669.8 281.8,670.3 286.1,670.8 290.5,671.2 295.0,671.6 299.7,671.9 304.4,672.2 309.3,672.4 314.3,672.6 319.5,672.8 324.8,672.8 330.2,672.9 335.8,672.9 341.5,672.8 347.3,672.6 353.3,672.4 359.4,672.2 365.7,671.9 372.1,671.5 378.7,671.0 385.4,670.5 392.2,669.9 399.2,669.3 406.4,668.5 413.6,667.7 421.1,666.8 428.6,665.8 436.3,664.7 444.1,663.5 452.1,662.2 460.1,660.8 468.3,659.3 476.6,657.6 485.0,655.9 493.5,654.0 502.0,652.0 510.7,649.8 519.4,647.5 528.1,645.0 536.9,642.3 545.6,639.5 554.4,636.4 563.1,633.2 571.8,629.7 580.4,626.1 588.9,622.2 597.3,618.0 605.5,613.6 613.6,608.9 621.4,603.9 628.9,598.6 636.1,592.9 643.0,587.0 649.5,580.7 655.6,574.0 661.2,567.0 666.3,559.6 670.8,551.7 674.7,543.5 677.9,534.8 680.4,525.8 682.1,516.3 683.1,506.3 683.2,496.0 682.5,485.3 680.8,474.1 678.3,462.6 674.8,450.7 670.3,438.4 664.9,425.9 658.5,413.1 651.2,400.2 643.0,387.0 633.9,373.8 624.0,360.5 613.3,347.2 601.9,334.0 589.8,321.0 577.2,308.3 564.1,295.8 550.6,283.7 536.7,272.1 522.6,261.0 508.4,250.4 494.0,240.4 479.7,231.2 465.4,222.6 451.3,214.7 437.4,207.7 423.8,201.4 410.5,195.9 397.5,191.2 384.9,187.2 372.8,184.1 361.0,181.7 349.8,180.1 339.0,179.2 328.6,179.0 318.8,179.4 309.4,180.5 300.4,182.2 291.9,184.5 283.9,187.3 276.3,190.5 269.1,194.3 262.3,198.4 255.8,202.9 249.8,207.8 244.1,213.0 238.7,218.5 233.7,224.3 228.9,230.3 224.4,236.5 220.2,242.9 216.3,249.4 212.5,256.1 209.1,262.9 205.8,269.8 202.7,276.8 199.8,283.8 197.1,290.9 194.6,298.0 192.2,305.1 190.0,312.3 187.9,319.4 185.9,326.5 184.1,333.6 182.4,340.7 180.8,347.7 179.3,354.7 177.9,361.6 176.6,368.5 175.4,375.3 174.2,382.0 173.2,388.7 172.2,395.2 171.3,401.8 170.5,408.2 169.7,414.5 169.0,420.8 168.4,426.9 167.8,433.0 167.2,439.0 166.8,444.9 166.4,450.7 166.0,456.4 165.7,462.0 165.4,467.6 165.1,473.0 164.9,478.3 164.8,483.6 164.7,488.7 164.6,493.8 164.6,498.7 164.6,503.6 164.7,508.4 164.7,513.1 164.9,517.7 165.0,522.2 165.2,526.6 165.5,530.9 165.7,535.2 166.0,539.3 166.4,543.4 166.7,547.4 167.1,551.3 167.6,555.1 168.1,558.9 168.6,562.5 169.1,566.1 169.7,569.6 170.3,573.1 171.0,576.4 171.7,579.7 172.4,582.9 173.2,586.0 174.0,589.1 174.8,592.1 175.7,595.0 176.6,597.9 177.6,600.7 178.6,603.4 179.6,606.1 180.7,608.7 181.9,611.2 183.0,613.7 184.3,616.1 185.5,618.5 186.8,620.8 188.2,623.0 189.6,625.2 191.1,627.3 192.6,629.4 194.2,631.4 195.8,633.4 197.5,635.3 199.2,637.1 201.0,638.9 202.9,640.7 204.8,642.4 206.8,644.0 208.8,645.6 210.9,647.2 213.1,648.7 215.3,650.2 217.7,651.6 220.1,652.9 222.5,654.3 225.1,655.5 227.7,656.8 230.4,657.9 233.2,659.1 236.1,660.2 239.0,661.2 242.1,662.2 245.2,663.2 248.4,664.1 251.8,665.0 255.2,665.8 258.7,666.6 262.3,667.3 266.1,668.0 269.9,668.7 273.8,669.3 277.9,669.8 282.1,670.3 286.4,670.8 290.8,671.2 295.3,671.6 300.0,671.9 304.7,672.2 309.6,672.5 314.7,672.6 319.8,672.8 325.1,672.9 330.6,672.9 336.1,672.9 341.8,672.8 347.7,672.6 353.7,672.4 359.8,672.2 366.1,671.8 372.5,671.5 379.1,671.0 385.8,670.5 392.7,669.9 399.7,669.2 406.8,668.5 414.1,667.6 421.5,666.7 429.1,665.7 436.8,664.6 444.6,663.4 452.6,662.1 460.6,660.7 468.8,659.2 477.1,657.5 485.5,655.8 494.0,653.9 502.6,651.8 511.2,649.7 519.9,647.3 528.6,644.8 537.4,642.1 546.2,639.3 554.9,636.2 563.7,633.0 572.4,629.5 581.0,625.8 589.5,621.9 597.8,617.7 606.0,613.3 614.1,608.6 621.8,603.5 629.4,598.2 636.6,592.6 643.4,586.6 649.9,580.3 656.0,573.6 661.5,566.5 666.6,559.1 671.0,551.2 674.9,543.0 678.1,534.3 680.5,525.2 682.2,515.7 683.1,505.7 683.2,495.4 682.4,484.6 680.7,473.4 678.1,461.8 674.5,449.9 670.0,437.7 664.5,425.1 658.1,412.3 650.7,399.3 642.4,386.2 633.3,372.9 623.3,359.7 612.6,346.4 601.2,333.2 589.1,320.2 576.4,307.5 563.3,295.1 549.7,283.0 535.8,271.4 521.7,260.3 507.5,249.8 493.1,239.8 478.8,230.6 464.6,222.1 450.5,214.3 436.6,207.3 423.0,201.0 409.7,195.5 396.7,190.9 384.2,187.0 372.0,183.9 360.3,181.6 349.1,180.0 338.3,179.2 328.0,179.0 318.2,179.5 308.8,180.6 299.9,182.3 291.4,184.6 283.4,187.4 275.8,190.7 268.6,194.5 261.9,198.7 255.5,203.2 249.4,208.1 243.7,213.4 238.4,218.9 233.3,224.7 228.6,230.7 224.1,236.9 220.0,243.3 216.0,249.8 212.3,256.5 208.8,263.3 205.6,270.2 202.5,277.2 199.6,284.2 197.0,291.3 194.4,298.4 192.1,305.6 189.8,312.7 187.7,319.8 185.8,327.0 184.0,334.0 182.3,341.1 180.7,348.1 179.2,355.1 177.8,362.0 176.5,368.9 175.3,375.7 174.2,382.4 173.1,389.1 172.1,395.6 171.2,402.2 170.4,408.6 169.7,414.9 169.0,421.2 168.3,427.3 167.7,433.4 167.2,439.4 166.7,445.3 166.3,451.1 166.0,456.8 165.6,462.4 165.4,467.9 165.1,473.3 164.9,478.6 164.8,483.9 164.7,489.0 164.6,494.1 164.6,499.0 164.6,503.9 164.7,508.7 164.8,513.3 164.9,517.9 165.0,522.4 165.2,526.9 165.5,531.2 165.7,535.4 166.0,539.6 166.4,543.6 166.8,547.6 167.2,551.5 167.6,555.3 168.1,559.1 168.6,562.7 169.2,566.3 169.7,569.8 170.4,573.3 171.0,576.6 171.7,579.9 172.4,583.1 173.2,586.2 174.0,589.3 174.9,592.3 175.8,595.2 176.7,598.1 177.6,600.9 178.7,603.6 179.7,606.3 180.8,608.9 181.9,611.4 183.1,613.9 184.3,616.3 185.6,618.6 186.9,620.9 188.3,623.2 189.7,625.3 191.2,627.5 192.7,629.5 194.3,631.5 195.9,633.5 197.6,635.4 199.3,637.2 201.1,639.0 203.0,640.8 204.9,642.5 206.9,644.1 208.9,645.7 211.1,647.3 213.2,648.8 215.5,650.3 217.8,651.7 220.2,653.0 222.7,654.3 225.2,655.6 227.9,656.8 230.6,658.0 233.4,659.1 236.2,660.2 239.2,661.3 242.3,662.3 245.4,663.2 248.6,664.1 252.0,665.0 255.4,665.8 258.9,666.6 262.6,667.4 266.3,668.0 270.1,668.7 274.1,669.3 278.2,669.9 282.3,670.4 286.6,670.8 291.0,671.3 295.6,671.6 300.2,672.0 305.0,672.2 309.9,672.5 315.0,672.6 320.2,672.8 325.5,672.9 330.9,672.9 336.5,672.8 342.2,672.8 348.1,672.6 354.1,672.4 360.2,672.2 366.5,671.8 372.9,671.4 379.5,671.0 386.2,670.4 393.1,669.8 400.1,669.2 407.3,668.4 414.6,667.6 422.0,666.6 429.6,665.6 437.3,664.5 445.1,663.3 453.1,662.0 461.1,660.6 469.3,659.1 477.6,657.4 486.0,655.7 494.5,653.7 503.1,651.7 511.8,649.5 520.4,647.2 529.2,644.7 537.9,642.0 546.7,639.1 555.5,636.0 564.2,632.8 572.9,629.3 581.5,625.6 590.0,621.7 598.3,617.5 606.5,613.0 614.5,608.3 622.3,603.2 629.8,597.9 637.0,592.2 643.8,586.2 650.3,579.9 656.3,573.2 661.8,566.1 666.9,558.6 671.3,550.7 675.1,542.4 678.2,533.7 680.6,524.6 682.3,515.1 683.2,505.1 683.2,494.7 682.3,483.9 680.6,472.7 677.9,461.1 674.2,449.2 669.7,436.9 664.1,424.3 657.6,411.5 650.2,398.5 641.9,385.4 632.7,372.1 622.7,358.8 611.9,345.6 600.4,332.4 588.3,319.4 575.6,306.7 562.4,294.3 548.9,282.3 535.0,270.7 520.8,259.6 506.6,249.1 492.2,239.3 477.9,230.1 463.7,221.6 449.6,213.8 435.7,206.8 422.1,200.6 408.8,195.2 395.9,190.6 383.4,186.8 371.3,183.8 359.6,181.5 348.4,179.9 337.6,179.1 327.4,179.0 317.6,179.5 308.2,180.7 299.3,182.5 290.9,184.8 282.9,187.6 275.4,191.0 268.2,194.7 261.5,198.9 255.1,203.5 249.1,208.5 243.4,213.7 238.1,219.2 233.0,225.0 228.3,231.1 223.9,237.3 219.7,243.7 215.8,250.3 212.1,257.0 208.6,263.8 205.4,270.7 202.3,277.6 199.5,284.7 196.8,291.8 194.3,298.9 191.9,306.0 189.7,313.1 187.6,320.3 185.7,327.4 183.9,334.5 182.2,341.5 180.6,348.6 179.1,355.5 177.7,362.4 176.4,369.3 175.2,376.1 174.1,382.8 173.0,389.5 172.1,396.1 171.2,402.6 170.4,409.0 169.6,415.3 168.9,421.5 168.3,427.7 167.7,433.8 167.2,439.7 166.7,445.6 166.3,451.4 165.9,457.1 165.6,462.7 165.3,468.2 165.1,473.7 164.9,479.0 164.8,484.2 164.7,489.3 164.6,494.4 164.6,499.3 164.6,504.2 164.7,509.0 164.8,513.6 164.9,518.2 165.1,522.7 165.3,527.1 165.5,531.4 165.8,535.7 166.1,539.8 166.4,543.9 166.8,547.9 167.2,551.8 167.6,555.6 168.1,559.3 168.6,563.0 169.2,566.5 169.8,570.0 170.4,573.5 171.1,576.8 171.8,580.1 172.5,583.3 173.3,586.4 174.1,589.5 174.9,592.5 175.8,595.4 176.7,598.3 177.7,601.0 178.7,603.8 179.8,606.4 180.9,609.0 182.0,611.5 183.2,614.0 184.4,616.4 185.7,618.8 187.0,621.1 188.4,623.3 189.8,625.5 191.3,627.6 192.8,629.6 194.4,631.7 196.0,633.6 197.7,635.5 199.4,637.4 201.2,639.2 203.1,640.9 205.0,642.6 207.0,644.2 209.1,645.8 211.2,647.4 213.4,648.9 215.6,650.3 218.0,651.7 220.4,653.1 222.8,654.4 225.4,655.7 228.0,656.9 230.7,658.1 233.5,659.2 236.4,660.3 239.4,661.3 242.4,662.3 245.6,663.3 248.8,664.2 252.2,665.1 255.6,665.9 259.1,666.7 262.8,667.4 266.5,668.1 270.4,668.7 274.3,669.3 278.4,669.9 282.6,670.4 286.9,670.9 291.3,671.3 295.9,671.7 300.5,672.0 305.3,672.3 310.2,672.5 315.3,672.7 320.5,672.8 325.8,672.9 331.2,672.9 336.8,672.8 342.6,672.8 348.4,672.6 354.4,672.4 360.6,672.1 366.9,671.8 373.3,671.4 379.9,670.9 386.6,670.4 393.5,669.8 400.5,669.1 407.7,668.4 415.0,667.5 422.5,666.6 430.0,665.6 437.7,664.5 445.6,663.2 453.6,661.9 461.6,660.5 469.9,659.0 478.2,657.3 486.6,655.5 495.1,653.6 503.6,651.6 512.3,649.4 521.0,647.0 529.7,644.5 538.5,641.8 547.3,638.9 556.0,635.8 564.8,632.6 573.4,629.1 582.0,625.4 590.5,621.4 598.9,617.2 607.0,612.7 615.0,608.0 622.8,602.9 630.3,597.5 637.4,591.9 644.3,585.8 650.7,579.5 656.7,572.7 662.2,565.6 667.1,558.1 671.5,550.2 675.3,541.9 678.4,533.2 680.8,524.0 682.4,514.5 683.2,504.5 683.2,494.0 682.2,483.2 680.4,472.0 677.7,460.4 674.0,448.4 669.3,436.1 663.7,423.6 657.2,410.7 649.7,397.7 641.4,384.6 632.1,371.3 622.1,358.0 611.2,344.8 599.7,331.6 587.5,318.7 574.8,305.9 561.6,293.5 548.0,281.5 534.1,270.0 520.0,258.9 505.7,248.5 491.4,238.7 477.0,229.5 462.8,221.1 448.7,213.4 434.9,206.4 421.3,200.3 408.0,194.9 395.1,190.4 382.6,186.6 370.5,183.6 358.9,181.4 347.7,179.9 337.0,179.1 326.7,179.0 317.0,179.6 307.7,180.8 298.8,182.6 290.4,185.0 282.4,187.8 274.9,191.2 267.8,195.0 261.0,199.2 254.7,203.8 248.7,208.8 243.1,214.0 237.7,219.6 232.7,225.4 228.0,231.4 223.6,237.7 219.5,244.1 215.5,250.7 211.9,257.4 208.4,264.2 205.2,271.1 202.2,278.1 199.3,285.1 196.6,292.2 194.1,299.3 191.8,306.5 189.6,313.6 187.5,320.7 185.6,327.8 183.8,334.9 182.1,342.0 180.5,349.0 179.0,356.0 177.6,362.9 176.3,369.7 175.1,376.5 174.0,383.2 173.0,389.9 172.0,396.5 171.1,403.0 170.3,409.4 169.6,415.7 168.9,421.9 168.2,428.1 167.7,434.1 167.2,440.1 166.7,446.0 166.3,451.8 165.9,457.5 165.6,463.1 165.3,468.6 165.1,474.0 164.9,479.3 164.8,484.5 164.7,489.7 164.6,494.7 164.6,499.6 164.6,504.5 164.7,509.3 164.8,513.9 164.9,518.5 165.1,523.0 165.3,527.4 165.5,531.7 165.8,535.9 166.1,540.1 166.4,544.1 166.8,548.1 167.2,552.0 167.7,555.8 168.2,559.5 168.7,563.2 169.2,566.8 169.8,570.3 170.4,573.7 171.1,577.0 171.8,580.3 172.5,583.5 173.3,586.6 174.1,589.7 175.0,592.7 175.9,595.6 176.8,598.4 177.8,601.2 178.8,603.9 179.8,606.6 180.9,609.2 182.1,611.7 183.3,614.2 184.5,616.6 185.8,618.9 187.1,621.2 188.5,623.4 189.9,625.6 191.4,627.7 192.9,629.8 194.5,631.8 196.1,633.7 197.8,635.6 199.5,637.5 201.4,639.3 203.2,641.0 205.1,642.7 207.1,644.3 209.2,645.9 211.3,647.5 213.5,649.0 215.8,650.4 218.1,651.8 220.5,653.2 223.0,654.5 225.6,655.8 228.2,657.0 230.9,658.2 233.7,659.3 236.6,660.4 239.6,661.4 242.6,662.4 245.8,663.3 249.0,664.3 252.4,665.1 255.8,665.9 259.4,666.7 263.0,667.4 266.8,668.1 270.6,668.8 274.6,669.4 278.7,669.9 282.9,670.4 287.2,670.9 291.6,671.3 296.2,671.7 300.8,672.0 305.6,672.3 310.6,672.5 315.6,672.7 320.8,672.8 326.1,672.9 331.6,672.9 337.2,672.8 342.9,672.7 348.8,672.6 354.8,672.4 361.0,672.1 367.3,671.8 373.7,671.4 380.3,670.9 387.1,670.4 394.0,669.8 401.0,669.1 408.2,668.3 415.5,667.5 422.9,666.5 430.5,665.5 438.2,664.4 446.1,663.2 454.1,661.9 462.2,660.4 470.4,658.9 478.7,657.2 487.1,655.4 495.6,653.5 504.2,651.4 512.8,649.2 521.5,646.9 530.3,644.3 539.0,641.6 547.8,638.7 556.6,635.7 565.3,632.4 574.0,628.9 582.5,625.1 591.0,621.1 599.4,616.9 607.5,612.4 615.5,607.7 623.3,602.6 630.7,597.2 637.9,591.5 644.7,585.5 651.1,579.1 657.0,572.3 662.5,565.2 667.4,557.7 671.8,549.7 675.5,541.4 678.6,532.6 680.9,523.5 682.5,513.9 683.2,503.8 683.1,493.4 682.2,482.5 680.3,471.3 677.5,459.6 673.7,447.7 669.0,435.4 663.4,422.8 656.8,409.9 649.2,396.9 640.8,383.7 631.5,370.5 621.4,357.2 610.5,343.9 599.0,330.8 586.8,317.9 574.0,305.2 560.8,292.8 547.2,280.8 533.2,269.3 519.1,258.3 504.8,247.9 490.5,238.1 476.1,229.0 461.9,220.6 447.9,212.9 434.0,206.0 420.5,199.9 407.2,194.6 394.3,190.1 381.9,186.4 369.8,183.4 358.2,181.3 347.0,179.8 336.4,179.1 326.1,179.0 316.4,179.7 307.1,180.9 298.3,182.7 289.9,185.1 282.0,188.0 274.4,191.4 267.3,195.2 260.6,199.5 254.3,204.1 248.3,209.1 242.7,214.4 237.4,219.9 232.4,225.8 227.8,231.8 223.3,238.1 219.2,244.5 215.3,251.1 211.7,257.8 208.2,264.6 205.0,271.5 202.0,278.5 199.1,285.6 196.5,292.6 194.0,299.8 191.6,306.9 189.4,314.0 187.4,321.2 185.5,328.3 183.6,335.4 182.0,342.4 180.4,349.4 178.9,356.4 177.5,363.3 176.3,370.1 175.1,376.9 174.0,383.7 172.9,390.3 172.0,396.9 171.1,403.3 170.3,409.8" fill="none" stroke="#4ade80" stroke-width="2.6" stroke-opacity="0.72" stroke-linejoin="round" stroke-linecap="round"/>
<polyline points="341.8,678.3 347.8,678.2 354.0,678.0 360.4,677.7 366.9,677.4 373.5,677.1 380.3,676.6 387.3,676.1 394.4,675.5 401.7,674.9 409.1,674.2 416.7,673.4 424.5,672.5 432.4,671.5 440.4,670.4 448.6,669.3 457.0,668.0 465.5,666.6 474.1,665.1 482.8,663.5 491.7,661.8 500.6,660.0 509.7,658.0 518.9,655.8 528.1,653.5 537.4,651.0 546.7,648.4 556.1,645.6 565.5,642.5 574.8,639.3 584.2,635.9 593.4,632.2 602.6,628.2 611.7,624.0 620.6,619.6 629.3,614.8 637.8,609.7 646.0,604.3 653.9,598.6 661.5,592.5 668.6,586.0 675.4,579.2 681.6,571.9 687.2,564.2 692.3,556.1 696.7,547.5 700.3,538.4 703.2,528.9 705.3,518.9 706.5,508.4 706.8,497.5 706.1,486.0 704.4,474.2 701.7,461.8 698.0,449.1 693.1,435.9 687.3,422.5 680.3,408.7 672.3,394.6 663.3,380.4 653.3,366.0 642.4,351.6 630.6,337.2 618.0,322.9 604.7,308.7 590.8,294.9 576.4,281.3 561.5,268.2 546.3,255.6 530.9,243.6 515.3,232.2 499.7,221.5 484.1,211.6 468.6,202.4 453.4,194.1 438.4,186.7 423.8,180.1 409.5,174.4 395.7,169.6 382.4,165.7 369.5,162.7 357.2,160.4 345.4,159.0 334.1,158.4 323.3,158.6 313.1,159.4 303.4,160.9 294.2,163.1 285.5,165.8 277.3,169.1 269.6,172.9 262.3,177.2 255.4,182.0 249.0,187.1 242.9,192.5 237.2,198.3 231.9,204.4 226.8,210.8 222.1,217.3 217.7,224.1 213.6,231.0 209.7,238.1 206.0,245.3 202.6,252.6 199.4,260.0 196.5,267.5 193.7,275.0 191.0,282.5 188.6,290.1 186.3,297.7 184.1,305.2 182.1,312.8 180.2,320.3 178.5,327.7 176.9,335.2 175.3,342.5 173.9,349.9 172.6,357.1 171.3,364.3 170.2,371.4 169.1,378.4 168.1,385.4 167.2,392.2 166.3,399.0 165.5,405.7 164.8,412.2 164.2,418.7 163.6,425.1 163.0,431.4 162.5,437.6 162.1,443.7 161.7,449.7 161.3,455.6 161.0,461.4 160.8,467.0 160.5,472.6 160.4,478.1 160.2,483.5 160.1,488.8 160.1,494.0 160.0,499.1 160.1,504.1 160.1,509.0 160.2,513.8 160.3,518.5 160.5,523.1 160.7,527.6 160.9,532.0 161.1,536.4 161.4,540.6 161.7,544.8 162.1,548.9 162.5,552.9 162.9,556.8 163.3,560.6 163.8,564.3 164.3,568.0 164.9,571.6 165.5,575.1 166.1,578.5 166.8,581.8 167.4,585.1 168.2,588.3 168.9,591.4 169.7,594.5 170.6,597.5 171.4,600.4 172.3,603.2 173.3,606.0 174.3,608.7 175.3,611.4 176.4,613.9 177.5,616.5 178.6,618.9 179.9,621.3 181.1,623.7 182.4,625.9 183.7,628.2 185.1,630.3 186.6,632.4 188.0,634.5 189.6,636.5 191.2,638.4 192.8,640.3 194.5,642.2 196.3,644.0 198.1,645.7 200.0,647.4 202.0,649.0 204.0,650.6 206.0,652.2 208.2,653.7 210.4,655.1 212.7,656.5 215.0,657.9 217.5,659.2 220.0,660.5 222.6,661.7 225.2,662.9 228.0,664.0 230.8,665.1 233.8,666.2 236.8,667.2 239.9,668.1 243.1,669.1 246.4,669.9 249.8,670.8 253.3,671.6 256.9,672.3 260.6,673.0 264.4,673.7 268.3,674.3 272.3,674.9 276.5,675.5 280.8,676.0 285.2,676.4 289.7,676.8 294.3,677.2 299.1,677.5 304.0,677.8 309.1,678.0 314.3,678.2 319.6,678.3 325.1,678.4 330.7,678.4 336.4,678.4 342.3,678.3 348.4,678.2 354.6,678.0 360.9,677.7 367.4,677.4 374.1,677.0 380.9,676.6 387.9,676.1 395.1,675.5 402.4,674.8 409.8,674.1 417.4,673.3 425.2,672.4 433.1,671.4 441.2,670.3 449.4,669.2 457.7,667.9 466.2,666.5 474.9,665.0 483.6,663.4 492.5,661.7 501.5,659.8 510.5,657.8 519.7,655.6 528.9,653.3 538.2,650.8 547.6,648.1 556.9,645.3 566.3,642.3 575.7,639.0 585.0,635.5 594.2,631.8 603.4,627.9 612.5,623.7 621.3,619.2 630.0,614.4 638.5,609.3 646.7,603.8 654.6,598.1 662.1,591.9 669.3,585.4 675.9,578.5 682.1,571.2 687.7,563.5 692.7,555.3 697.0,546.7 700.6,537.6 703.5,528.0 705.5,518.0 706.6,507.5 706.8,496.5 706.0,485.0 704.2,473.1 701.4,460.7 697.6,447.9 692.7,434.8 686.7,421.2 679.6,407.4 671.5,393.4 662.4,379.1 652.4,364.7 641.4,350.3 629.5,335.9 616.9,321.6 603.5,307.5 589.6,293.6 575.1,280.1 560.2,267.1 544.9,254.5 529.5,242.5 513.9,231.2 498.3,220.6 482.7,210.7 467.3,201.7 452.0,193.4 437.1,186.1 422.5,179.6 408.3,174.0 394.5,169.3 381.2,165.4 368.4,162.4 356.1,160.3 344.3,159.0 333.1,158.4 322.4,158.6 312.2,159.5 302.6,161.1 293.4,163.3 284.8,166.1 276.6,169.5 268.9,173.3 261.7,177.6 254.8,182.4 248.4,187.5 242.4,193.0 236.7,198.9 231.4,205.0 226.4,211.3 221.7,217.9 217.3,224.7 213.2,231.7 209.3,238.8 205.7,246.0 202.3,253.3 199.2,260.7 196.2,268.2 193.4,275.7 190.8,283.2 188.4,290.8 186.1,298.3 184.0,305.9 182.0,313.4 180.1,320.9 178.3,328.4 176.7,335.8 175.2,343.2 173.8,350.5 172.4,357.8 171.2,364.9 170.1,372.0 169.0,379.0 168.0,386.0 167.1,392.8 166.3,399.6 165.5,406.2 164.8,412.8 164.1,419.3 163.5,425.7 163.0,432.0 162.5,438.1 162.0,444.2 161.6,450.2 161.3,456.1 161.0,461.9 160.7,467.5 160.5,473.1 160.3,478.6 160.2,484.0 160.1,489.3 160.1,494.4 160.0,499.5 160.1,504.5 160.1,509.4 160.2,514.2 160.3,518.9 160.5,523.5 160.7,528.0 160.9,532.4 161.2,536.8 161.4,541.0 161.8,545.2 162.1,549.2 162.5,553.2 162.9,557.1 163.4,560.9 163.9,564.7 164.4,568.3 164.9,571.9 165.5,575.4 166.2,578.8 166.8,582.1 167.5,585.4 168.2,588.6 169.0,591.7 169.8,594.7 170.6,597.7 171.5,600.6 172.4,603.5 173.4,606.2 174.4,608.9 175.4,611.6 176.5,614.2 177.6,616.7 178.8,619.1 180.0,621.5 181.2,623.9 182.5,626.1 183.9,628.4 185.2,630.5 186.7,632.6 188.2,634.7 189.7,636.7 191.3,638.6 193.0,640.5 194.7,642.3 196.5,644.1 198.3,645.9 200.2,647.6 202.1,649.2 204.2,650.8 206.2,652.3 208.4,653.8 210.6,655.3 212.9,656.7 215.3,658.0 217.7,659.3 220.2,660.6 222.8,661.8 225.5,663.0 228.2,664.1 231.1,665.2 234.0,666.3 237.0,667.3 240.2,668.2 243.4,669.1 246.7,670.0 250.1,670.9 253.6,671.7 257.2,672.4 260.9,673.1 264.7,673.8 268.7,674.4 272.7,675.0 276.9,675.5 281.2,676.0 285.6,676.5 290.1,676.9 294.8,677.2 299.6,677.5 304.5,677.8 309.5,678.0 314.7,678.2 320.1,678.3 325.5,678.4 331.2,678.4 336.9,678.4 342.9,678.3 348.9,678.1 355.1,677.9 361.5,677.7 368.0,677.4 374.7,677.0 381.6,676.5 388.6,676.0 395.7,675.4 403.0,674.8 410.5,674.0 418.1,673.2 425.9,672.3 433.8,671.3 441.9,670.2 450.1,669.0 458.5,667.8 467.0,666.4 475.6,664.9 484.4,663.2 493.3,661.5 502.3,659.6 511.3,657.6 520.5,655.4 529.8,653.1 539.1,650.6 548.4,647.9 557.8,645.0 567.1,642.0 576.5,638.7 585.8,635.2 595.1,631.5 604.2,627.5 613.3,623.3 622.1,618.7 630.8,613.9 639.3,608.8 647.4,603.3 655.3,597.5 662.8,591.4 669.9,584.8 676.5,577.9 682.6,570.5 688.2,562.8 693.1,554.6 697.4,545.9 700.9,536.8 703.7,527.1 705.6,517.1 706.6,506.5 706.7,495.5 705.9,483.9 704.0,472.0 701.1,459.6 697.2,446.8 692.2,433.6 686.1,420.0 678.9,406.2 670.8,392.1 661.6,377.8 651.4,363.4 640.3,349.0 628.4,334.6 615.7,320.3 602.3,306.2 588.3,292.4 573.8,278.9 558.8,265.9 543.6,253.4 528.1,241.5 512.5,230.2 496.9,219.7 481.3,209.9 465.9,200.9 450.7,192.7 435.8,185.4 421.2,179.0 407.0,173.5 393.3,168.9 380.0,165.1 367.3,162.2 355.0,160.1 343.3,158.9 332.1,158.4 321.5,158.7 311.3,159.6 301.7,161.3 292.6,163.5 284.0,166.4 275.9,169.8 268.2,173.7 261.0,178.0 254.2,182.8 247.9,188.0 241.9,193.6 236.2,199.4 230.9,205.5 226.0,211.9 221.3,218.5 216.9,225.3 212.8,232.3 209.0,239.4 205.4,246.6 202.0,254.0 198.9,261.4 195.9,268.8 193.2,276.4 190.6,283.9 188.2,291.5 185.9,299.0 183.8,306.6 181.8,314.1 179.9,321.6 178.2,329.1 176.6,336.5 175.1,343.9 173.6,351.2 172.3,358.4 171.1,365.6 170.0,372.7 168.9,379.7 167.9,386.6 167.0,393.4 166.2,400.2 165.4,406.8 164.7,413.4 164.0,419.9 163.5,426.2 162.9,432.5 162.4,438.7 162.0,444.8 161.6,450.7 161.3,456.6 161.0,462.4 160.7,468.1 160.5,473.6 160.3,479.1 160.2,484.5 160.1,489.7 160.1,494.9 160.0,500.0 160.1,505.0 160.1,509.8 160.2,514.6 160.3,519.3 160.5,523.9 160.7,528.4 160.9,532.8 161.2,537.2 161.5,541.4 161.8,545.5 162.2,549.6 162.5,553.6 163.0,557.5 163.4,561.3 163.9,565.0 164.4,568.6 165.0,572.2 165.6,575.7 166.2,579.1 166.9,582.4 167.6,585.7 168.3,588.9 169.1,592.0 169.9,595.0 170.7,598.0 171.6,600.9 172.5,603.7 173.5,606.5 174.5,609.2 175.5,611.8 176.6,614.4 177.7,616.9 178.9,619.4 180.1,621.7 181.3,624.1 182.6,626.3 184.0,628.6 185.4,630.7 186.8,632.8 188.3,634.9 189.9,636.8 191.5,638.8 193.1,640.7 194.9,642.5 196.6,644.3 198.5,646.0 200.4,647.7 202.3,649.3 204.3,650.9 206.4,652.5 208.6,653.9 210.8,655.4 213.1,656.8 215.5,658.1 217.9,659.4 220.4,660.7 223.0,661.9 225.7,663.1 228.5,664.2 231.3,665.3 234.3,666.4 237.3,667.4 240.4,668.3 243.7,669.2 247.0,670.1 250.4,670.9 253.9,671.7 257.5,672.5 261.2,673.2 265.1,673.8 269.0,674.5 273.1,675.0 277.3,675.6 281.6,676.0 286.0,676.5 290.5,676.9 295.2,677.2 300.0,677.6 304.9,677.8 310.0,678.0 315.2,678.2 320.6,678.3 326.0,678.4 331.7,678.4 337.5,678.4 343.4,678.3 349.5,678.1 355.7,677.9 362.1,677.7 368.6,677.3 375.3,676.9 382.2,676.5 389.2,676.0 396.4,675.4 403.7,674.7 411.2,674.0 418.8,673.1 426.6,672.2 434.5,671.2 442.6,670.1 450.9,668.9 459.3,667.6 467.8,666.2 476.4,664.7 485.2,663.1 494.1,661.3 503.1,659.4 512.2,657.4 521.3,655.2 530.6,652.9 539.9,650.3 549.2,647.7 558.6,644.8 568.0,641.7 577.3,638.4 586.7,634.9 595.9,631.1 605.0,627.1 614.1,622.9 622.9,618.3 631.6,613.5 640.0,608.3 648.2,602.8 656.0,597.0 663.4,590.8 670.5,584.2 677.1,577.3 683.1,569.9 688.6,562.1 693.5,553.8 697.7,545.1 701.2,535.9 703.9,526.3 705.7,516.1 706.7,505.5 706.7,494.4 705.8,482.9 703.8,470.9 700.8,458.4 696.8,445.6 691.7,432.4 685.5,418.8 678.3,404.9 670.0,390.8 660.7,376.5 650.4,362.1 639.3,347.7 627.3,333.3 614.5,319.1 601.1,305.0 587.0,291.2 572.4,277.8 557.5,264.8 542.2,252.3 526.7,240.4 511.1,229.2 495.5,218.8 479.9,209.0 464.5,200.1 449.3,192.0 434.4,184.8 419.9,178.5 405.8,173.1 392.1,168.5 378.9,164.8 366.1,162.0 353.9,160.0 342.3,158.8 331.1,158.4 320.5,158.7 310.4,159.7 300.9,161.4 291.8,163.8 283.3,166.7 275.2,170.1 267.6,174.1 260.4,178.5 253.7,183.3 247.3,188.5 241.3,194.1 235.7,199.9 230.5,206.1 225.5,212.5 220.9,219.1 216.6,225.9 212.5,232.9 208.7,240.0 205.1,247.3 201.8,254.6 198.6,262.0 195.7,269.5 192.9,277.0 190.4,284.6 187.9,292.1 185.7,299.7 183.6,307.2 181.6,314.8 179.8,322.3 178.0,329.7 176.4,337.2 174.9,344.5 173.5,351.8 172.2,359.0 171.0,366.2 169.9,373.3 168.8,380.3 167.8,387.2 166.9,394.0 166.1,400.8 165.3,407.4 164.6,414.0 164.0,420.4 163.4,426.8 162.9,433.1 162.4,439.2 162.0,445.3 161.6,451.3 161.2,457.1 160.9,462.9 160.7,468.6 160.5,474.1 160.3,479.6 160.2,484.9 160.1,490.2 160.1,495.4 160.0,500.4 160.1,505.4 160.1,510.3 160.2,515.0 160.3,519.7 160.5,524.3 160.7,528.8 160.9,533.2 161.2,537.5 161.5,541.8 161.8,545.9 162.2,550.0 162.6,553.9 163.0,557.8 163.5,561.6 164.0,565.3 164.5,569.0 165.0,572.5 165.6,576.0 166.3,579.4 166.9,582.7 167.6,586.0 168.4,589.1 169.1,592.3 169.9,595.3 170.8,598.2 171.7,601.1 172.6,604.0 173.6,606.7 174.6,609.4 175.6,612.1 176.7,614.6 177.8,617.1 179.0,619.6 180.2,622.0 181.4,624.3 182.7,626.5 184.1,628.8 185.5,630.9 187.0,633.0 188.5,635.0 190.0,637.0 191.6,639.0 193.3,640.8 195.0,642.7 196.8,644.4 198.6,646.2 200.5,647.8 202.5,649.5 204.5,651.1 206.6,652.6 208.8,654.1 211.0,655.5 213.3,656.9 215.7,658.3 218.1,659.6 220.7,660.8 223.3,662.0 226.0,663.2 228.7,664.3 231.6,665.4 234.6,666.4 237.6,667.4 240.7,668.4 243.9,669.3 247.3,670.2 250.7,671.0 254.2,671.8 257.8,672.5 261.6,673.2 265.4,673.9 269.4,674.5 273.5,675.1 277.6,675.6 281.9,676.1 286.4,676.5 290.9,676.9 295.6,677.3 300.4,677.6 305.4,677.8 310.5,678.0 315.7,678.2 321.0,678.3 326.5,678.4 332.2,678.4 338.0,678.4 343.9,678.3 350.0,678.1 356.3,677.9 362.7,677.6 369.2,677.3 375.9,676.9 382.8,676.4 389.8,675.9 397.0,675.3 404.3,674.6 411.8,673.9 419.5,673.1 427.3,672.1 435.3,671.1 443.4,670.0 451.6,668.8 460.0,667.5 468.5,666.1 477.2,664.6 486.0,662.9 494.9,661.2 503.9,659.3 513.0,657.2 522.2,655.0 531.4,652.6 540.7,650.1 550.1,647.4 559.5,644.5 568.8,641.4 578.2,638.1 587.5,634.6 596.7,630.8 605.9,626.8 614.9,622.5 623.7,617.9 632.4,613.0 640.8,607.8 648.9,602.3 656.7,596.5 664.1,590.2 671.1,583.6 677.6,576.6 683.7,569.2 689.1,561.3 693.9,553.0 698.1,544.3 701.5,535.1 704.1,525.4 705.8,515.2 706.7,504.5 706.7,493.4 705.6,481.8 703.6,469.8 700.5,457.3 696.4,444.4 691.2,431.1 684.9,417.5 677.6,403.7 669.2,389.5 659.8,375.3 649.5,360.9 638.3,346.4 626.2,332.0 613.3,317.8 599.8,303.7 585.7,290.0 571.1,276.6 556.1,263.6 540.8,251.2 525.3,239.4 509.7,228.3 494.1,217.8 478.5,208.2 463.1,199.4 448.0,191.4 433.1,184.2 418.6,178.0 404.5,172.6 390.9,168.1 377.7,164.5 365.0,161.8 352.9,159.8 341.3,158.7 330.2,158.4 319.6,158.8 309.6,159.9 300.1,161.6 291.0,164.0 282.5,166.9 274.5,170.4 266.9,174.4 259.8,178.9 253.1,183.7 246.8,189.0 240.8,194.6 235.2,200.5 230.0,206.7 225.1,213.1 220.5,219.7 216.2,226.6 212.1,233.6 208.3,240.7 204.8,247.9 201.5,255.3 198.3,262.7 195.4,270.2 192.7,277.7 190.1,285.3 187.7,292.8 185.5,300.4 183.4,307.9 181.4,315.5 179.6,323.0 177.9,330.4 176.3,337.8 174.8,345.2 173.4,352.5 172.1,359.7 170.9,366.8 169.8,373.9 168.7,380.9 167.8,387.8 166.9,394.6 166.0,401.4 165.3,408.0 164.6,414.6 163.9,421.0 163.4,427.4 162.8,433.6 162.3,439.8 161.9,445.8 161.5,451.8 161.2,457.7 160.9,463.4 160.7,469.1 160.5,474.6 160.3,480.1 160.2,485.4 160.1,490.7 160.1,495.8 160.0,500.9 160.1,505.8 160.1,510.7 160.2,515.5 160.4,520.1 160.5,524.7 160.7,529.2 161.0,533.6 161.2,537.9 161.5,542.1 161.9,546.3 162.2,550.3 162.6,554.3 163.0,558.1 163.5,561.9 164.0,565.6 164.5,569.3 165.1,572.8 165.7,576.3 166.3,579.7 167.0,583.0 167.7,586.3 168.4,589.4 169.2,592.5 170.0,595.6 170.9,598.5 171.8,601.4 172.7,604.2 173.6,607.0 174.6,609.7 175.7,612.3 176.8,614.9 177.9,617.4 179.1,619.8 180.3,622.2 181.6,624.5 182.9,626.7 184.2,628.9 185.6,631.1 187.1,633.2 188.6,635.2 190.2,637.2 191.8,639.1 193.4,641.0 195.2,642.8 197.0,644.6 198.8,646.3 200.7,648.0 202.7,649.6 204.7,651.2 206.8,652.7 209.0,654.2 211.2,655.6 213.5,657.0 215.9,658.4 218.4,659.7 220.9,660.9 223.5,662.1 226.2,663.3 229.0,664.4 231.9,665.5 234.8,666.5 237.9,667.5 241.0,668.5 244.2,669.4 247.6,670.3 251.0,671.1 254.5,671.9 258.2,672.6 261.9,673.3 265.8,673.9 269.7,674.6 273.8,675.1 278.0,675.6 282.3,676.1 286.8,676.6 291.4,677.0 296.0,677.3 300.9,677.6 305.8,677.9 310.9,678.1 316.2,678.2 321.5,678.3 327.0,678.4 332.7,678.4 338.5,678.4 344.5,678.3 350.6,678.1 356.8,677.9 363.2,677.6 369.8,677.3 376.5,676.9 383.4,676.4 390.5,675.9 397.7,675.3 405.0,674.6 412.5,673.8 420.2,673.0 428.0,672.0 436.0,671.0 444.1,669.9 452.4,668.7 460.8,667.4 469.3,666.0 478.0,664.4 486.8,662.8 495.7,661.0 504.7,659.1 513.8,657.0 523.0,654.8 532.3,652.4 541.6,649.9 550.9,647.2 560.3,644.2 569.7,641.1 579.0,637.8 588.3,634.2 597.6,630.4 606.7,626.4 615.7,622.1 624.5,617.5 633.1,612.6 641.5,607.4 649.6,601.8 657.4,595.9 664.7,589.6 671.7,583.0 678.2,576.0 684.2,568.5 689.6,560.6 694.3,552.3 698.4,543.5 701.7,534.2 704.3,524.5 706.0,514.3 706.8,503.6 706.6,492.4 705.5,480.8 703.3,468.7 700.2,456.2 695.9,443.2 690.6,429.9 684.3,416.3 676.8,402.4 668.4,388.3 658.9,374.0 648.5,359.6 637.2,345.1 625.1,330.8 612.2,316.5 598.6,302.5 584.4,288.7 569.8,275.4 554.7,262.5 539.4,250.1 523.9,238.4 508.3,227.3 492.7,216.9 477.1,207.4 461.8,198.6 446.6,190.7 431.8,183.6 417.3,177.5 403.3,172.2 389.7,167.8 376.5,164.2 363.9,161.6 351.8,159.7 340.2,158.7 329.2,158.4 318.7,158.8 308.7,160.0 299.2,161.8 290.3,164.2 281.8,167.2 273.8,170.8 266.3,174.8 259.2,179.3 252.5,184.2 246.2,189.5 240.3,195.1 234.8,201.0 229.6,207.2 224.7,213.7 220.1,220.3 215.8,227.2 211.8,234.2 208.0,241.3 204.5,248.6 201.2,255.9 198.1,263.4 195.2,270.9 192.5,278.4 189.9,285.9 187.5,293.5 185.3,301.1 183.2,308.6 181.3,316.1 179.4,323.6 177.7,331.1 176.2,338.5 174.7,345.8 173.3,353.1 172.0,360.3 170.8,367.5 169.7,374.5 168.6,381.5 167.7,388.4 166.8,395.3 166.0,402.0 165.2,408.6 164.5,415.2 163.9,421.6 163.3,427.9 162.8,434.2 162.3,440.3 161.9,446.4 161.5,452.3 161.2,458.2 160.9,463.9 160.7,469.6 160.5,475.1 160.3,480.5 160.2,485.9 160.1,491.1 160.1,496.3 160.0,501.3 160.1,506.3 160.1,511.1 160.2,515.9 160.4,520.6 160.5,525.1 160.7,529.6 161.0,534.0 161.3,538.3 161.6,542.5 161.9,546.6 162.3,550.7 162.7,554.6 163.1,558.5 163.6,562.3 164.1,566.0 164.6,569.6 165.2,573.1 165.8,576.6 166.4,580.0 167.1,583.3 167.8,586.5 168.5,589.7 169.3,592.8 170.1,595.8 170.9,598.8 171.8,601.7 172.8,604.5 173.7,607.2 174.7,609.9 175.8,612.5 176.9,615.1 178.0,617.6 179.2,620.0 180.4,622.4 181.7,624.7 183.0,626.9 184.3,629.1 185.8,631.3 187.2,633.4 188.7,635.4 190.3,637.4 191.9,639.3 193.6,641.2 195.3,643.0 197.1,644.8 199.0,646.5 200.9,648.1 202.9,649.8 204.9,651.3 207.0,652.9 209.2,654.3 211.4,655.8 213.7,657.2 216.1,658.5 218.6,659.8 221.1,661.0 223.8,662.2 226.5,663.4 229.3,664.5 232.1,665.6 235.1,666.6 238.1,667.6 241.3,668.6 244.5,669.5 247.9,670.3 251.3,671.1 254.9,671.9 258.5,672.7 262.3,673.4 266.1,674.0 270.1,674.6 274.2,675.2 278.4,675.7 282.7,676.2 287.2,676.6 291.8,677.0 296.5,677.3 301.3,677.6 306.3,677.9 311.4,678.1 316.6,678.2 322.0,678.3 327.5,678.4 333.2,678.4 339.0,678.3 345.0,678.2 351.1,678.1 357.4,677.9 363.8,677.6 370.4,677.2 377.2,676.8 384.0,676.4 391.1,675.8 398.3,675.2 405.7,674.5 413.2,673.7 420.9,672.9 428.7,672.0 436.7,670.9 444.8,669.8 453.1,668.6 461.5,667.3 470.1,665.8 478.8,664.3 487.6,662.6 496.5,660.8 505.5,658.9 514.6,656.8 523.8,654.6 533.1,652.2 542.4,649.6 551.8,646.9 561.1,644.0 570.5,640.8 579.9,637.5 589.2,633.9 598.4,630.1 607.5,626.0 616.5,621.7 625.3,617.0 633.9,612.1 642.2,606.9 650.3,601.3 658.0,595.4 665.4,589.1 672.3,582.4 678.8,575.3 684.7,567.8 690.0,559.9 694.7,551.5 698.7,542.7 702.0,533.4 704.5,523.6 706.1,513.3 706.8,502.6 706.5,491.4 705.3,479.7 703.1,467.6 699.8,455.0 695.5,442.1 690.1,428.7 683.6,415.1 676.1,401.1 667.6,387.0 658.0,372.7 647.5,358.3 636.1,343.8 623.9,329.5 611.0,315.2 597.3,301.2 583.1,287.5 568.4,274.2 553.4,261.4 538.0,249.1 522.5,237.4 506.9,226.3 491.3,216.1 475.7,206.5 460.4,197.9 445.3,190.0 430.5,183.0 416.1,177.0 402.0,171.7 388.5,167.4 375.4,164.0 362.8,161.4 350.8,159.6 339.2,158.6 328.2,158.4 317.8,158.9 307.8,160.1 298.4,162.0 289.5,164.5 281.1,167.5 273.1,171.1 265.6,175.2 258.5,179.7 251.9,184.7 245.7,190.0 239.8,195.6 234.3,201.6 229.1,207.8 224.3,214.3 219.7,220.9 215.4,227.8 211.4,234.8 207.7,242.0 204.2,249.2 200.9,256.6 197.8,264.0 194.9,271.5 192.2,279.1 189.7,286.6 187.3,294.2 185.1,301.7 183.0,309.3 181.1,316.8 179.3,324.3 177.6,331.7 176.0,339.1 174.5,346.5 173.2,353.8 171.9,361.0 170.7,368.1 169.6,375.2 168.5,382.2 167.6,389.1 166.7,395.9 165.9,402.6 165.1,409.2 164.5,415.7 163.8,422.2 163.3,428.5 162.7,434.7 162.3,440.9 161.8,446.9 161.5,452.9 161.2,458.7 160.9,464.4 160.6,470.1 160.4,475.6 160.3,481.0 160.2,486.4 160.1,491.6 160.1,496.7 160.0,501.8 160.1,506.7 160.1,511.6 160.3,516.3 160.4,521.0" fill="none" stroke="#4ade80" stroke-width="2.6" stroke-opacity="0.72" stroke-linejoin="round" stroke-linecap="round"/>
<polyline points="430.2,596.4 434.6,594.5 439.0,592.5 443.4,590.3 447.8,588.1 452.0,585.8 456.2,583.3 460.4,580.7 464.4,578.0 468.4,575.2 472.2,572.3 475.9,569.2 479.5,566.0 483.0,562.6 486.3,559.2 489.4,555.6 492.4,551.8 495.2,547.9 497.7,543.9 500.1,539.7 502.2,535.4 504.1,531.0 505.8,526.4 507.2,521.7 508.3,516.9 509.1,511.9 509.7,506.9 510.0,501.7 509.9,496.4 509.6,490.9 508.9,485.4 507.9,479.8 506.6,474.2 505.0,468.4 503.1,462.7 500.8,456.8 498.3,451.0 495.4,445.1 492.2,439.2 488.7,433.3 485.0,427.5 480.9,421.7 476.6,416.0 472.1,410.3 467.3,404.8 462.3,399.3 457.1,394.0 451.7,388.8 446.2,383.8 440.5,379.0 434.7,374.3 428.8,369.9 422.8,365.7 416.7,361.6 410.6,357.9 404.4,354.4 398.3,351.1 392.1,348.1 386.0,345.3 379.8,342.9 373.8,340.7 367.8,338.8 361.8,337.1 356.0,335.8 350.2,334.7 344.5,333.9 339.0,333.4 333.6,333.1 328.3,333.1 323.1,333.3 318.1,333.8 313.1,334.5 308.4,335.5 303.8,336.6 299.3,338.0 294.9,339.6 290.8,341.4 286.7,343.4 282.8,345.6 279.0,347.9 275.4,350.4 271.9,353.0 268.6,355.8 265.3,358.7 262.2,361.7 259.3,364.9 256.4,368.1 253.7,371.4 251.1,374.9 248.6,378.4 246.3,382.0 244.0,385.6 241.9,389.3 239.8,393.1 237.9,396.9 236.0,400.7 234.3,404.6 232.6,408.4 231.1,412.4 229.6,416.3 228.2,420.2 226.9,424.2 225.6,428.1 224.5,432.1 223.4,436.0 222.4,439.9 221.5,443.8 220.6,447.7 219.8,451.6 219.1,455.5 218.4,459.3 217.8,463.1 217.3,466.9 216.8,470.7 216.4,474.4 216.0,478.1 215.7,481.7 215.5,485.3 215.3,488.9 215.2,492.4 215.1,495.9 215.0,499.3 215.1,502.7 215.1,506.0 215.3,509.3 215.4,512.6 215.6,515.8 215.9,519.0 216.2,522.1 216.6,525.1 217.0,528.1 217.5,531.1 218.0,534.0 218.5,536.9 219.1,539.7 219.8,542.4 220.5,545.1 221.2,547.8 222.0,550.4 222.9,552.9 223.8,555.4 224.7,557.9 225.7,560.3 226.7,562.6 227.8,564.9 228.9,567.2 230.1,569.4 231.4,571.5 232.6,573.6 234.0,575.7 235.3,577.7 236.8,579.6 238.3,581.5 239.8,583.3 241.4,585.1 243.0,586.9 244.7,588.6 246.5,590.2 248.3,591.8 250.2,593.3 252.1,594.8 254.1,596.3 256.1,597.7 258.2,599.0 260.3,600.3 262.5,601.6 264.8,602.8 267.1,603.9 269.5,605.0 272.0,606.1 274.5,607.1 277.1,608.0 279.7,608.9 282.4,609.7 285.2,610.5 288.0,611.3 290.9,612.0 293.8,612.6 296.9,613.2 300.0,613.7 303.1,614.2 306.3,614.6 309.6,615.0 313.0,615.3 316.4,615.6 319.9,615.8 323.4,615.9 327.0,616.0 330.7,616.1 334.4,616.0 338.2,615.9 342.0,615.8 345.9,615.6 349.9,615.3 353.9,614.9 358.0,614.5 362.1,614.0 366.3,613.5 370.5,612.8 374.8,612.1 379.1,611.4 383.5,610.5 387.8,609.6 392.3,608.5 396.7,607.4 401.2,606.3 405.6,605.0 410.1,603.6 414.6,602.2 419.1,600.6 423.6,599.0 428.1,597.2 432.5,595.4 437.0,593.4 441.4,591.4 445.7,589.2 450.0,586.9 454.3,584.5 458.4,582.0 462.5,579.3 466.5,576.6 470.4,573.7 474.2,570.7 477.8,567.5 481.4,564.2 484.8,560.8 488.0,557.3 491.0,553.6 493.9,549.8 496.6,545.8 499.0,541.7 501.3,537.5 503.3,533.1 505.0,528.6 506.6,524.0 507.8,519.2 508.8,514.3 509.5,509.3 509.9,504.1 510.0,498.9 509.8,493.5 509.3,488.0 508.4,482.5 507.3,476.9 505.8,471.2 504.0,465.4 501.9,459.6 499.5,453.7 496.8,447.9 493.7,442.0 490.4,436.1 486.8,430.2 482.9,424.4 478.7,418.7 474.2,413.0 469.6,407.4 464.7,401.9 459.6,396.5 454.3,391.3 448.8,386.2 443.2,381.2 437.5,376.5 431.6,372.0 425.6,367.6 419.6,363.5 413.5,359.6 407.3,356.0 401.2,352.6 395.0,349.5 388.9,346.6 382.7,344.0 376.6,341.7 370.6,339.6 364.6,337.9 358.7,336.4 352.9,335.2 347.2,334.2 341.6,333.6 336.1,333.2 330.8,333.0 325.5,333.2 320.4,333.5 315.4,334.1 310.6,335.0 305.9,336.1 301.4,337.4 297.0,338.9 292.7,340.6 288.6,342.5 284.6,344.5 280.8,346.8 277.1,349.2 273.5,351.8 270.1,354.5 266.8,357.3 263.7,360.3 260.7,363.4 257.8,366.6 255.0,369.9 252.3,373.3 249.8,376.7 247.4,380.3 245.1,383.9 242.9,387.6 240.8,391.3 238.8,395.1 236.9,398.9 235.1,402.7 233.4,406.6 231.8,410.5 230.3,414.4 228.8,418.4 227.5,422.3 226.2,426.3 225.0,430.2 223.9,434.1 222.9,438.1 221.9,442.0 221.0,445.9 220.2,449.8 219.4,453.7 218.7,457.5 218.1,461.3 217.5,465.1 217.0,468.9 216.6,472.6 216.2,476.3 215.9,480.0 215.6,483.6 215.4,487.2 215.2,490.7 215.1,494.2 215.0,497.7 215.0,501.1 215.1,504.5 215.2,507.8 215.3,511.1 215.5,514.3 215.8,517.5 216.1,520.6 216.4,523.7 216.8,526.7 217.2,529.7 217.7,532.6 218.3,535.5 218.9,538.3 219.5,541.1 220.2,543.9 220.9,546.5 221.7,549.2 222.5,551.7 223.3,554.3 224.3,556.7 225.2,559.2 226.2,561.5 227.3,563.9 228.4,566.1 229.6,568.4 230.8,570.5 232.0,572.6 233.3,574.7 234.7,576.7 236.1,578.7 237.6,580.6 239.1,582.5 240.6,584.3 242.3,586.1 243.9,587.8 245.7,589.4 247.4,591.1 249.3,592.6 251.2,594.1 253.1,595.6 255.1,597.0 257.2,598.4 259.3,599.7 261.5,601.0 263.7,602.2 266.0,603.4 268.4,604.5 270.8,605.6 273.3,606.6 275.8,607.6 278.4,608.5 281.1,609.4 283.9,610.2 286.7,610.9 289.5,611.7 292.4,612.3 295.4,612.9 298.5,613.5 301.6,614.0 304.8,614.5 308.1,614.9 311.4,615.2 314.8,615.5 318.2,615.7 321.7,615.9 325.3,616.0 328.9,616.1 332.6,616.1 336.4,616.0 340.2,615.9 344.1,615.7 348.0,615.4 352.0,615.1 356.1,614.7 360.2,614.3 364.3,613.7 368.5,613.1 372.8,612.5 377.1,611.7 381.4,610.9 385.8,610.0 390.2,609.0 394.6,608.0 399.1,606.8 403.5,605.6 408.0,604.3 412.5,602.9 417.0,601.4 421.5,599.8 426.0,598.1 430.4,596.3 434.9,594.3 439.3,592.3 443.7,590.2 448.0,588.0 452.3,585.6 456.5,583.2 460.6,580.6 464.6,577.9 468.6,575.1 472.4,572.1 476.1,569.0 479.7,565.8 483.2,562.4 486.5,559.0 489.6,555.3 492.6,551.6 495.3,547.7 497.9,543.7 500.2,539.5 502.3,535.2 504.2,530.7 505.9,526.2 507.2,521.4 508.4,516.6 509.2,511.6 509.7,506.6 510.0,501.4 509.9,496.0 509.5,490.6 508.9,485.1 507.9,479.5 506.6,473.9 504.9,468.1 503.0,462.3 500.7,456.5 498.1,450.6 495.2,444.7 492.0,438.9 488.5,433.0 484.7,427.2 480.7,421.4 476.4,415.7 471.8,410.0 467.0,404.5 462.0,399.0 456.8,393.7 451.4,388.5 445.9,383.5 440.2,378.7 434.4,374.1 428.5,369.6 422.4,365.4 416.4,361.4 410.2,357.7 404.1,354.2 397.9,350.9 391.8,347.9 385.6,345.2 379.5,342.7 373.4,340.6 367.4,338.7 361.5,337.1 355.6,335.7 349.9,334.6 344.2,333.9 338.7,333.3 333.3,333.1 328.0,333.1 322.8,333.3 317.8,333.8 312.9,334.6 308.1,335.5 303.5,336.7 299.0,338.1 294.7,339.7 290.5,341.5 286.5,343.5 282.6,345.7 278.8,348.0 275.2,350.5 271.7,353.2 268.4,356.0 265.2,358.9 262.1,361.9 259.1,365.0 256.3,368.3 253.6,371.6 251.0,375.1 248.5,378.6 246.1,382.2 243.9,385.8 241.8,389.5 239.7,393.3 237.8,397.1 235.9,400.9 234.2,404.8 232.5,408.7 231.0,412.6 229.5,416.5 228.1,420.5 226.8,424.4 225.6,428.3 224.4,432.3 223.3,436.2 222.3,440.2 221.4,444.1 220.6,448.0 219.8,451.9 219.0,455.7 218.4,459.5 217.8,463.4 217.3,467.1 216.8,470.9 216.4,474.6 216.0,478.3 215.7,481.9 215.5,485.5 215.3,489.1 215.2,492.6 215.1,496.1 215.0,499.5 215.1,502.9 215.1,506.2 215.3,509.5 215.4,512.8 215.7,516.0 215.9,519.1 216.2,522.2 216.6,525.3 217.0,528.3 217.5,531.3 218.0,534.2 218.6,537.0 219.2,539.8 219.8,542.6 220.5,545.3 221.3,547.9 222.1,550.5 222.9,553.1 223.8,555.6 224.8,558.0 225.7,560.4 226.8,562.8 227.9,565.1 229.0,567.3 230.2,569.5 231.4,571.7 232.7,573.7 234.0,575.8 235.4,577.8 236.9,579.7 238.4,581.6 239.9,583.4 241.5,585.2 243.1,587.0 244.8,588.7 246.6,590.3 248.4,591.9 250.3,593.4 252.2,594.9 254.2,596.4 256.2,597.8 258.3,599.1 260.5,600.4 262.7,601.6 264.9,602.8 267.3,604.0 269.7,605.1 272.1,606.1 274.6,607.1 277.2,608.1 279.9,609.0 282.6,609.8 285.3,610.6 288.2,611.3 291.1,612.0 294.0,612.7 297.0,613.2 300.1,613.8 303.3,614.2 306.5,614.7 309.8,615.0 313.2,615.4 316.6,615.6 320.1,615.8 323.6,616.0 327.2,616.0 330.9,616.1 334.6,616.0 338.4,615.9 342.3,615.8 346.2,615.6 350.1,615.3 354.2,614.9 358.3,614.5 362.4,614.0 366.6,613.4 370.8,612.8 375.1,612.1 379.4,611.3 383.7,610.4 388.1,609.5 392.5,608.5 397.0,607.4 401.4,606.2 405.9,604.9 410.4,603.5 414.9,602.1 419.4,600.5 423.9,598.9 428.3,597.1 432.8,595.3 437.2,593.3 441.6,591.2 446.0,589.0 450.3,586.8 454.5,584.3 458.7,581.8 462.7,579.2 466.7,576.4 470.6,573.5 474.4,570.5 478.1,567.3 481.6,564.0 484.9,560.6 488.2,557.1 491.2,553.4 494.0,549.5 496.7,545.6 499.1,541.5 501.4,537.2 503.4,532.8 505.1,528.3 506.6,523.7 507.9,518.9 508.8,514.0 509.5,509.0 509.9,503.8 510.0,498.6 509.8,493.2 509.2,487.7 508.4,482.2 507.2,476.5 505.7,470.8 503.9,465.1 501.8,459.2 499.4,453.4 496.6,447.5 493.5,441.6 490.2,435.8 486.5,429.9 482.6,424.1 478.4,418.3 474.0,412.7 469.3,407.1 464.4,401.6 459.3,396.2 454.0,391.0 448.5,385.9 442.9,381.0 437.1,376.2 431.3,371.7 425.3,367.4 419.2,363.3 413.1,359.4 407.0,355.8 400.8,352.4 394.7,349.3 388.5,346.4 382.4,343.9 376.3,341.6 370.2,339.5 364.3,337.8 358.4,336.3 352.6,335.1 346.9,334.2 341.3,333.5 335.8,333.2 330.4,333.0 325.2,333.2 320.1,333.6 315.2,334.2 310.3,335.0 305.7,336.1 301.1,337.4 296.7,338.9 292.5,340.7 288.4,342.6 284.4,344.7 280.6,346.9 276.9,349.3 273.3,351.9 269.9,354.6 266.6,357.5 263.5,360.5 260.5,363.6 257.6,366.8 254.8,370.1 252.2,373.4 249.7,376.9 247.2,380.5 244.9,384.1 242.7,387.8 240.7,391.5 238.7,395.3 236.8,399.1 235.0,402.9 233.3,406.8 231.7,410.7 230.2,414.7 228.8,418.6 227.4,422.5 226.1,426.5 225.0,430.4 223.8,434.4 222.8,438.3 221.8,442.2 221.0,446.1 220.1,450.0 219.4,453.9 218.7,457.7 218.1,461.6 217.5,465.4 217.0,469.1 216.6,472.8 216.2,476.5 215.9,480.2 215.6,483.8 215.4,487.4 215.2,490.9 215.1,494.4 215.0,497.9 215.0,501.3 215.1,504.7 215.2,508.0 215.3,511.3 215.5,514.5 215.8,517.7 216.1,520.8 216.4,523.9 216.8,526.9 217.3,529.9 217.8,532.8 218.3,535.7 218.9,538.5 219.5,541.3 220.2,544.0 220.9,546.7 221.7,549.3 222.5,551.9 223.4,554.4 224.3,556.9 225.3,559.3 226.3,561.7 227.4,564.0 228.5,566.3 229.6,568.5 230.8,570.6 232.1,572.8 233.4,574.8 234.8,576.8 236.2,578.8 237.6,580.7 239.2,582.6 240.7,584.4 242.4,586.2 244.0,587.9 245.8,589.5 247.5,591.2 249.4,592.7 251.3,594.2 253.2,595.7 255.2,597.1 257.3,598.5 259.4,599.8 261.6,601.1 263.9,602.3 266.2,603.4 268.5,604.6 271.0,605.6 273.4,606.7 276.0,607.6 278.6,608.5 281.3,609.4 284.0,610.2 286.8,611.0 289.7,611.7 292.6,612.4 295.6,613.0 298.7,613.5 301.8,614.0 305.0,614.5 308.2,614.9 311.6,615.2 315.0,615.5 318.4,615.7 321.9,615.9 325.5,616.0 329.1,616.1 332.8,616.1 336.6,616.0 340.4,615.9 344.3,615.7 348.3,615.4 352.3,615.1 356.3,614.7 360.4,614.2 364.6,613.7 368.8,613.1 373.0,612.4 377.3,611.7 381.7,610.9 386.0,610.0 390.4,609.0 394.9,607.9 399.3,606.8 403.8,605.5 408.3,604.2 412.8,602.8 417.3,601.3 421.8,599.7 426.2,598.0 430.7,596.1 435.1,594.2 439.6,592.2 443.9,590.1 448.3,587.9 452.5,585.5 456.7,583.0 460.8,580.4 464.9,577.7 468.8,574.9 472.6,571.9 476.4,568.8 479.9,565.6 483.4,562.3 486.7,558.8 489.8,555.1 492.7,551.4 495.5,547.5 498.0,543.4 500.4,539.2 502.5,534.9 504.3,530.5 506.0,525.9 507.3,521.2 508.4,516.3 509.2,511.4 509.7,506.3 510.0,501.0 509.9,495.7 509.5,490.3 508.8,484.8 507.8,479.2 506.5,473.5 504.8,467.8 502.8,462.0 500.5,456.1 497.9,450.3 495.0,444.4 491.8,438.5 488.3,432.7 484.5,426.8 480.4,421.0 476.1,415.3 471.5,409.7 466.7,404.1 461.7,398.7 456.5,393.4 451.1,388.2 445.6,383.3 439.9,378.4 434.0,373.8 428.1,369.4 422.1,365.2 416.0,361.2 409.9,357.5 403.7,354.0 397.6,350.7 391.4,347.8 385.2,345.0 379.1,342.6 373.1,340.5 367.1,338.6 361.1,337.0 355.3,335.6 349.5,334.6 343.9,333.8 338.4,333.3 333.0,333.1 327.7,333.1 322.5,333.3 317.5,333.9 312.6,334.6 307.8,335.6 303.2,336.8 298.8,338.2 294.5,339.8 290.3,341.6 286.2,343.7 282.3,345.8 278.6,348.2 275.0,350.7 271.5,353.3 268.2,356.1 265.0,359.0 261.9,362.1 258.9,365.2 256.1,368.5 253.4,371.8 250.8,375.3 248.4,378.8 246.0,382.4 243.8,386.0 241.6,389.7 239.6,393.5 237.7,397.3 235.8,401.1 234.1,405.0 232.4,408.9 230.9,412.8 229.4,416.7 228.0,420.7 226.7,424.6 225.5,428.6 224.4,432.5 223.3,436.5 222.3,440.4 221.4,444.3 220.5,448.2 219.7,452.1 219.0,455.9 218.4,459.8 217.8,463.6 217.2,467.3 216.8,471.1 216.4,474.8 216.0,478.5 215.7,482.1 215.5,485.7 215.3,489.3 215.1,492.8 215.1,496.3 215.0,499.7 215.1,503.1 215.1,506.4 215.3,509.7 215.4,513.0 215.7,516.2 215.9,519.3 216.3,522.4 216.6,525.5 217.1,528.5 217.5,531.4 218.0,534.3 218.6,537.2 219.2,540.0 219.9,542.7 220.6,545.4 221.3,548.1 222.1,550.7 223.0,553.2 223.9,555.7 224.8,558.2 225.8,560.6 226.8,562.9 227.9,565.2 229.1,567.4 230.3,569.6 231.5,571.8 232.8,573.9 234.1,575.9 235.5,577.9 236.9,579.8 238.4,581.7 240.0,583.5 241.6,585.3 243.2,587.1 244.9,588.8 246.7,590.4 248.5,592.0 250.4,593.5 252.3,595.0 254.3,596.5 256.3,597.8 258.4,599.2 260.6,600.5 262.8,601.7 265.1,602.9 267.4,604.0 269.8,605.1 272.3,606.2 274.8,607.2 277.4,608.1 280.0,609.0 282.7,609.8 285.5,610.6 288.3,611.4 291.2,612.1 294.2,612.7 297.2,613.3 300.3,613.8 303.5,614.3 306.7,614.7 310.0,615.1 313.4,615.4 316.8,615.6 320.3,615.8 323.8,616.0 327.4,616.0 331.1,616.1 334.8,616.0 338.6,615.9 342.5,615.8 346.4,615.5 350.4,615.2 354.4,614.9 358.5,614.5 362.6,614.0 366.8,613.4 371.0,612.8 375.3,612.1 379.6,611.3 384.0,610.4 388.4,609.5 392.8,608.4 397.2,607.3 401.7,606.1 406.2,604.8 410.6,603.5 415.1,602.0 419.6,600.4 424.1,598.8 428.6,597.0 433.1,595.1 437.5,593.2 441.9,591.1 446.2,588.9 450.5,586.6 454.7,584.2 458.9,581.7 463.0,579.0 467.0,576.2 470.9,573.3 474.6,570.3 478.3,567.1 481.8,563.8 485.1,560.4 488.3,556.9 491.4,553.2 494.2,549.3 496.8,545.3 499.3,541.2 501.5,537.0 503.5,532.6 505.2,528.1 506.7,523.4 507.9,518.6 508.9,513.7 509.5,508.7 509.9,503.5 510.0,498.3 509.7,492.9 509.2,487.4 508.3,481.8 507.1,476.2 505.6,470.5 503.8,464.7 501.7,458.9 499.2,453.0 496.4,447.2 493.4,441.3 490.0,435.4 486.3,429.6 482.4,423.8 478.2,418.0 473.7,412.3 469.0,406.7 464.1,401.2 459.0,395.9 453.7,390.7 448.2,385.6 442.6,380.7 436.8,376.0 430.9,371.4 424.9,367.1 418.9,363.0 412.8,359.2 406.6,355.6 400.5,352.2 394.3,349.1 388.1,346.3 382.0,343.7 375.9,341.4 369.9,339.4 363.9,337.7 358.0,336.2 352.2,335.1 346.5,334.1 341.0,333.5 335.5,333.1 330.1,333.0 324.9,333.2 319.8,333.6 314.9,334.2 310.1,335.1 305.4,336.2 300.9,337.5 296.5,339.0 292.2,340.8 288.1,342.7 284.2,344.8 280.3,347.0 276.7,349.5 273.1,352.1 269.7,354.8 266.5,357.7 263.3,360.6 260.3,363.7 257.4,366.9 254.7,370.3 252.0,373.6 249.5,377.1 247.1,380.7 244.8,384.3 242.6,388.0 240.5,391.7 238.6,395.5 236.7,399.3 234.9,403.2 233.2,407.1 231.6,411.0 230.1,414.9 228.7,418.8 227.3,422.8 226.1,426.7 224.9,430.7 223.8,434.6 222.8,438.5 221.8,442.5 220.9,446.4 220.1,450.3 219.3,454.1 218.7,458.0 218.0,461.8 217.5,465.6 217.0,469.3 216.5,473.1 216.2,476.7 215.8,480.4 215.6,484.0 215.4,487.6 215.2,491.1 215.1,494.6 215.0,498.1 215.0,501.5 215.1,504.9 215.2,508.2 215.4,511.4 215.6,514.7 215.8,517.8 216.1,521.0 216.5,524.0 216.9,527.1 217.3,530.0 217.8,533.0 218.3,535.8 218.9,538.7 219.6,541.4 220.2,544.2 221.0,546.8 221.7,549.5 222.6,552.0 223.4,554.6 224.4,557.0 225.3,559.4 226.4,561.8 227.4,564.1 228.5,566.4 229.7,568.6 230.9,570.8 232.2,572.9 233.5,574.9 234.8,577.0 236.3,578.9 237.7,580.8 239.2,582.7 240.8,584.5 242.4,586.3 244.1,588.0 245.9,589.6 247.6,591.2 249.5,592.8 251.4,594.3 253.3,595.8 255.4,597.2 257.4,598.6 259.6,599.9 261.7,601.1 264.0,602.3 266.3,603.5 268.7,604.6 271.1,605.7 273.6,606.7 276.1,607.7 278.8,608.6 281.4,609.5 284.2,610.3 287.0,611.0 289.9,611.7 292.8,612.4 295.8,613.0 298.9,613.6 302.0,614.1 305.2,614.5 308.4,614.9 311.8,615.2 315.2,615.5 318.6,615.7 322.1,615.9 325.7,616.0 329.4,616.1 333.1,616.1 336.8,616.0 340.7,615.8 344.6,615.7 348.5,615.4 352.5,615.1 356.6,614.7 360.7,614.2 364.8,613.7 369.0,613.1 373.3,612.4 377.6,611.6 381.9,610.8 386.3,609.9 390.7,608.9 395.1,607.8 399.6,606.7 404.0,605.5 408.5,604.1 413.0,602.7 417.5,601.2 422.0,599.6 426.5,597.9 431.0,596.0 435.4,594.1 439.8,592.1 444.2,590.0 448.5,587.7 452.8,585.4 457.0,582.9 461.1,580.3 465.1,577.6 469.0,574.7 472.9,571.8 476.6,568.7 480.1,565.4 483.6,562.1 486.8,558.6 490.0,554.9 492.9,551.1 495.6,547.2 498.2,543.2 500.5,539.0 502.6,534.7 504.4,530.2 506.0,525.6 507.4,520.9 508.5,516.0 509.3,511.1 509.8,506.0 510.0,500.7 509.9,495.4 509.5,490.0 508.8,484.5 507.7,478.9 506.4,473.2 504.7,467.4 502.7,461.6 500.4,455.8 497.8,449.9 494.8,444.1 491.6,438.2 488.1,432.3 484.3,426.5 480.2,420.7 475.8,415.0 471.3,409.4 466.5,403.8 461.4,398.4 456.2,393.1 450.8,388.0 445.2,383.0 439.5,378.2 433.7,373.5 427.8,369.1 421.7,364.9 415.7,361.0 409.5,357.2 403.4,353.8 397.2,350.5 391.0,347.6 384.9,344.9 378.8,342.5 372.7,340.3 366.7,338.5 360.8,336.9 355.0,335.6 349.2,334.5 343.6,333.8 338.1,333.3 332.6,333.1 327.4,333.1 322.2,333.4 317.2,333.9 312.3,334.7 307.6,335.7 303.0,336.9 298.5,338.3 294.2,339.9 290.0,341.8 286.0,343.8 282.1,346.0 278.4,348.3 274.8,350.8 271.3,353.5 268.0,356.3 264.8,359.2 261.7,362.3 258.8,365.4 256.0,368.7 253.3,372.0 250.7,375.5 248.2,379.0 245.9,382.6 243.6,386.2 241.5,390.0 239.5,393.7 237.6,397.5 235.7,401.4 234.0,405.2 232.4,409.1 230.8,413.0 229.3,417.0 228.0,420.9 226.7,424.9 225.4,428.8 224.3,432.7 223.2,436.7 222.2,440.6 221.3,444.5 220.5,448.4 219.7,452.3 219.0,456.2 218.3,460.0 217.7,463.8 217.2,467.6 216.7,471.3 216.3,475.0 216.0,478.7 215.7,482.3 215.4,485.9 215.3,489.5 215.1,493.0 215.1,496.5 215.0,499.9 215.1,503.3 215.1,506.6 215.3,509.9 215.5,513.1 215.7,516.3 216.0,519.5 216.3,522.6 216.7,525.6 217.1,528.6 217.6,531.6 218.1,534.5 218.6,537.3 219.3,540.1 219.9,542.9 220.6,545.6 221.4,548.2 222.2,550.8 223.0,553.4 223.9,555.9 224.9,558.3 225.9,560.7 226.9,563.0 228.0,565.3 229.1,567.6 230.3,569.8 231.6,571.9 232.9,574.0 234.2,576.0 235.6,578.0 237.0,579.9 238.5,581.8 240.1,583.7 241.7,585.4 243.3,587.2 245.0,588.9 246.8,590.5 248.6,592.1 250.5,593.6 252.4,595.1 254.4,596.5 256.4,597.9 258.5,599.3 260.7,600.5 262.9,601.8 265.2,603.0 267.5,604.1 269.9,605.2 272.4,606.2 274.9,607.2 277.5,608.2 280.2,609.1 282.9,609.9 285.7,610.7 288.5,611.4 291.4,612.1 294.4,612.7 297.4,613.3 300.5,613.8 303.7,614.3 306.9,614.7 310.2,615.1 313.5,615.4 317.0,615.6 320.5,615.8 324.0,616.0 327.6,616.0 331.3,616.1 335.1,616.0 338.9,615.9 342.7,615.8 346.6,615.5 350.6,615.2 354.6,614.9 358.7,614.4 362.9,613.9 367.0,613.4 371.3,612.7 375.6,612.0 379.9,611.2 384.2,610.3 388.6,609.4 393.0,608.4 397.5,607.2 401.9,606.0 406.4,604.8 410.9,603.4 415.4,601.9 419.9,600.3 424.4,598.7 428.9,596.9 433.3,595.0 437.7,593.1 442.1,591.0 446.5,588.8 450.8,586.5 455.0,584.1 459.1,581.5 463.2,578.9 467.2,576.1 471.1,573.2 474.8,570.1 478.5,567.0 482.0,563.7 485.3,560.2 488.5,556.6 491.5,552.9 494.4,549.1 497.0,545.1 499.4,541.0 501.6,536.7" fill="none" stroke="#4ade80" stroke-width="2.6" stroke-opacity="0.72" stroke-linejoin="round" stroke-linecap="round"/>
<circle cx="110.0" cy="760.0" r="6.0" fill="#f8fafc" opacity="1.0"/>
<circle cx="330.6" cy="499.7" r="6.0" fill="#f8fafc" opacity="1.0"/>
<text x="110.0" y="788.0" class="small" text-anchor="start">Generated from a standard-library Python gallery: vector field + nullclines + trajectories.</text>
</svg>
