<svg xmlns="http://www.w3.org/2000/svg" viewBox="0 0 1440 920">
<defs>
  <linearGradient id="bg" x1="0" y1="0" x2="1" y2="1">
    <stop offset="0%" stop-color="#081018"/>
    <stop offset="100%" stop-color="#101d2a"/>
  </linearGradient>
  <style>
    .title { font: 700 34px Helvetica, Arial, sans-serif; fill: #e6edf3; }
    .subtitle { font: 500 18px Helvetica, Arial, sans-serif; fill: #9fb3c8; }
    .label { font: 700 20px Helvetica, Arial, sans-serif; fill: #dce7f3; }
    .small { font: 500 15px Helvetica, Arial, sans-serif; fill: #9fb3c8; }
    .tiny { font: 500 13px Helvetica, Arial, sans-serif; fill: #8aa3bc; }
    .panel { fill: #122131; stroke: #5e7fa3; stroke-width: 2; rx: 18; }
    .grid { stroke: #223445; stroke-width: 1; opacity: 0.8; }
    .axis { stroke: #39516a; stroke-width: 2; }
  </style>
</defs>
<rect width="1440" height="920" fill="url(#bg)"/>
<rect x="70" y="136" width="1310" height="712" rx="18" class="panel"/>
<rect x="900" y="150" width="480" height="678" rx="18" fill="#0f1b28" stroke="#5e7fa3" stroke-width="1.6"/>
<text x="90.0" y="68.0" class="title" text-anchor="start">Lotka-Volterra predator-prey</text>
<text x="90.0" y="98.0" class="subtitle"><tspan x="90.0" dy="0">Closed orbits around a coexistence point, with prey feeding predator growth and predators draining</tspan><tspan x="90.0" dy="22.0">prey.</tspan></text>
<text x="928.0" y="188.0" class="label" text-anchor="start">Legend</text>
<text x="966.0" y="234.0" class="small" text-anchor="start">trajectories</text>
<text x="966.0" y="270.0" class="small" text-anchor="start">dx/dt = 0</text>
<text x="966.0" y="306.0" class="small" text-anchor="start">dy/dt = 0</text>
<text x="966.0" y="342.0" class="small" text-anchor="start">fixed points</text>
<circle cx="938.0" cy="226.0" r="8.0" fill="#4ade80" opacity="1.0"/>
<line x1="922.0" y1="262.0" x2="954.0" y2="262.0" stroke="#f97316" stroke-width="4" opacity="1.0"/>
<line x1="922.0" y1="298.0" x2="954.0" y2="298.0" stroke="#60a5fa" stroke-width="4" opacity="1.0"/>
<circle cx="938.0" cy="334.0" r="7.0" fill="#f8fafc" opacity="1.0"/>
<text x="928.0" y="392.0" class="label" text-anchor="start">How to read it</text>
<text x="928.0" y="422.0" class="small"><tspan x="928.0" dy="0">The arrows show the local flow.</tspan></text>
<text x="928.0" y="468.0" class="small"><tspan x="928.0" dy="0">The colored curves show where one derivative</tspan><tspan x="928.0" dy="22.0">vanishes.</tspan></text>
<text x="928.0" y="530.0" class="small"><tspan x="928.0" dy="0">Trajectories reveal whether the fixed point</tspan><tspan x="928.0" dy="22.0">attracts, spirals, or closes into an orbit.</tspan></text>
<text x="928.0" y="620.0" class="label" text-anchor="start">Local fixed-point readout</text>
<text x="928.0" y="650.0" class="small"><tspan x="928.0" dy="0">1. (0.00, 0.00) → saddle</tspan></text>
<text x="946.0" y="670.0" class="tiny"><tspan x="946.0" dy="0">λ = 1.50, -1.00</tspan></text>
<text x="928.0" y="722.0" class="small"><tspan x="928.0" dy="0">2. (1.00, 1.50) → center-like</tspan></text>
<text x="946.0" y="742.0" class="tiny"><tspan x="946.0" dy="0">λ = 0.00+1.22i, -0.00-1.22i</tspan></text>
<line x1="118.0" y1="186.0" x2="118.0" y2="788.0" stroke="#223445" stroke-width="1" opacity="1.0"/>
<text x="118.0" y="816.0" class="tiny" text-anchor="middle">0.0</text>
<line x1="266.4" y1="186.0" x2="266.4" y2="788.0" stroke="#223445" stroke-width="1" opacity="1.0"/>
<text x="266.4" y="816.0" class="tiny" text-anchor="middle">0.7</text>
<line x1="414.8" y1="186.0" x2="414.8" y2="788.0" stroke="#223445" stroke-width="1" opacity="1.0"/>
<text x="414.8" y="816.0" class="tiny" text-anchor="middle">1.4</text>
<line x1="563.2" y1="186.0" x2="563.2" y2="788.0" stroke="#223445" stroke-width="1" opacity="1.0"/>
<text x="563.2" y="816.0" class="tiny" text-anchor="middle">2.0</text>
<line x1="711.6" y1="186.0" x2="711.6" y2="788.0" stroke="#223445" stroke-width="1" opacity="1.0"/>
<text x="711.6" y="816.0" class="tiny" text-anchor="middle">2.7</text>
<line x1="860.0" y1="186.0" x2="860.0" y2="788.0" stroke="#223445" stroke-width="1" opacity="1.0"/>
<text x="860.0" y="816.0" class="tiny" text-anchor="middle">3.4</text>
<line x1="118.0" y1="788.0" x2="860.0" y2="788.0" stroke="#223445" stroke-width="1" opacity="1.0"/>
<text x="100.0" y="792.0" class="tiny" text-anchor="end">0.0</text>
<line x1="118.0" y1="667.6" x2="860.0" y2="667.6" stroke="#223445" stroke-width="1" opacity="1.0"/>
<text x="100.0" y="671.6" class="tiny" text-anchor="end">0.7</text>
<line x1="118.0" y1="547.2" x2="860.0" y2="547.2" stroke="#223445" stroke-width="1" opacity="1.0"/>
<text x="100.0" y="551.2" class="tiny" text-anchor="end">1.4</text>
<line x1="118.0" y1="426.8" x2="860.0" y2="426.8" stroke="#223445" stroke-width="1" opacity="1.0"/>
<text x="100.0" y="430.8" class="tiny" text-anchor="end">2.0</text>
<line x1="118.0" y1="306.4" x2="860.0" y2="306.4" stroke="#223445" stroke-width="1" opacity="1.0"/>
<text x="100.0" y="310.4" class="tiny" text-anchor="end">2.7</text>
<line x1="118.0" y1="186.0" x2="860.0" y2="186.0" stroke="#223445" stroke-width="1" opacity="1.0"/>
<text x="100.0" y="190.0" class="tiny" text-anchor="end">3.4</text>
<line x1="118.0" y1="186.0" x2="118.0" y2="788.0" stroke="#39516a" stroke-width="2" opacity="1.0"/>
<line x1="118.0" y1="788.0" x2="860.0" y2="788.0" stroke="#39516a" stroke-width="2" opacity="1.0"/>
<line x1="118.0" y1="737.8" x2="118.0" y2="749.9" stroke="#4b6580" stroke-width="1.4" opacity="0.9"/>
<line x1="118.0" y1="687.7" x2="118.0" y2="699.7" stroke="#4b6580" stroke-width="1.4" opacity="0.9"/>
<line x1="118.0" y1="637.5" x2="118.0" y2="649.5" stroke="#4b6580" stroke-width="1.4" opacity="0.9"/>
<line x1="118.0" y1="587.3" x2="118.0" y2="599.4" stroke="#4b6580" stroke-width="1.4" opacity="0.9"/>
<line x1="118.0" y1="537.2" x2="118.0" y2="549.2" stroke="#4b6580" stroke-width="1.4" opacity="0.9"/>
<line x1="118.0" y1="487.0" x2="118.0" y2="499.0" stroke="#4b6580" stroke-width="1.4" opacity="0.9"/>
<line x1="118.0" y1="436.8" x2="118.0" y2="448.9" stroke="#4b6580" stroke-width="1.4" opacity="0.9"/>
<line x1="118.0" y1="386.7" x2="118.0" y2="398.7" stroke="#4b6580" stroke-width="1.4" opacity="0.9"/>
<line x1="118.0" y1="336.5" x2="118.0" y2="348.5" stroke="#4b6580" stroke-width="1.4" opacity="0.9"/>
<line x1="118.0" y1="286.3" x2="118.0" y2="298.4" stroke="#4b6580" stroke-width="1.4" opacity="0.9"/>
<line x1="118.0" y1="236.2" x2="118.0" y2="248.2" stroke="#4b6580" stroke-width="1.4" opacity="0.9"/>
<line x1="118.0" y1="186.0" x2="118.0" y2="198.0" stroke="#4b6580" stroke-width="1.4" opacity="0.9"/>
<line x1="164.4" y1="788.0" x2="179.2" y2="788.0" stroke="#4b6580" stroke-width="1.4" opacity="0.9"/>
<line x1="164.4" y1="737.8" x2="175.6" y2="745.7" stroke="#4b6580" stroke-width="1.4" opacity="0.9"/>
<line x1="164.4" y1="687.7" x2="170.4" y2="698.7" stroke="#4b6580" stroke-width="1.4" opacity="0.9"/>
<line x1="164.4" y1="637.5" x2="167.4" y2="649.3" stroke="#4b6580" stroke-width="1.4" opacity="0.9"/>
<line x1="164.4" y1="587.3" x2="165.7" y2="599.3" stroke="#4b6580" stroke-width="1.4" opacity="0.9"/>
<line x1="164.4" y1="537.2" x2="164.6" y2="549.2" stroke="#4b6580" stroke-width="1.4" opacity="0.9"/>
<line x1="164.4" y1="487.0" x2="163.9" y2="499.0" stroke="#4b6580" stroke-width="1.4" opacity="0.9"/>
<line x1="164.4" y1="436.8" x2="163.4" y2="448.8" stroke="#4b6580" stroke-width="1.4" opacity="0.9"/>
<line x1="164.4" y1="386.7" x2="163.0" y2="398.7" stroke="#4b6580" stroke-width="1.4" opacity="0.9"/>
<line x1="164.4" y1="336.5" x2="162.7" y2="348.5" stroke="#4b6580" stroke-width="1.4" opacity="0.9"/>
<line x1="164.4" y1="286.3" x2="162.5" y2="298.3" stroke="#4b6580" stroke-width="1.4" opacity="0.9"/>
<line x1="164.4" y1="236.2" x2="162.3" y2="248.1" stroke="#4b6580" stroke-width="1.4" opacity="0.9"/>
<line x1="164.4" y1="186.0" x2="162.2" y2="197.9" stroke="#4b6580" stroke-width="1.4" opacity="0.9"/>
<line x1="210.8" y1="788.0" x2="225.6" y2="788.0" stroke="#4b6580" stroke-width="1.4" opacity="0.9"/>
<line x1="210.8" y1="737.8" x2="224.9" y2="741.5" stroke="#4b6580" stroke-width="1.4" opacity="0.9"/>
<line x1="210.8" y1="687.7" x2="222.2" y2="695.3" stroke="#4b6580" stroke-width="1.4" opacity="0.9"/>
<line x1="210.8" y1="637.5" x2="218.1" y2="648.0" stroke="#4b6580" stroke-width="1.4" opacity="0.9"/>
<line x1="210.8" y1="587.3" x2="214.2" y2="599.0" stroke="#4b6580" stroke-width="1.4" opacity="0.9"/>
<line x1="210.8" y1="537.2" x2="211.4" y2="549.2" stroke="#4b6580" stroke-width="1.4" opacity="0.9"/>
<line x1="210.8" y1="487.0" x2="209.5" y2="499.0" stroke="#4b6580" stroke-width="1.4" opacity="0.9"/>
<line x1="210.8" y1="436.8" x2="208.1" y2="448.7" stroke="#4b6580" stroke-width="1.4" opacity="0.9"/>
<line x1="210.8" y1="386.7" x2="207.2" y2="398.3" stroke="#4b6580" stroke-width="1.4" opacity="0.9"/>
<line x1="210.8" y1="336.5" x2="206.4" y2="348.0" stroke="#4b6580" stroke-width="1.4" opacity="0.9"/>
<line x1="210.8" y1="286.3" x2="205.9" y2="297.7" stroke="#4b6580" stroke-width="1.4" opacity="0.9"/>
<line x1="210.8" y1="236.2" x2="205.4" y2="247.4" stroke="#4b6580" stroke-width="1.4" opacity="0.9"/>
<line x1="210.8" y1="186.0" x2="205.1" y2="197.1" stroke="#4b6580" stroke-width="1.4" opacity="0.9"/>
<line x1="257.1" y1="788.0" x2="272.0" y2="788.0" stroke="#4b6580" stroke-width="1.4" opacity="0.9"/>
<line x1="257.1" y1="737.8" x2="271.8" y2="739.4" stroke="#4b6580" stroke-width="1.4" opacity="0.9"/>
<line x1="257.1" y1="687.7" x2="271.2" y2="691.6" stroke="#4b6580" stroke-width="1.4" opacity="0.9"/>
<line x1="257.1" y1="637.5" x2="269.0" y2="644.7" stroke="#4b6580" stroke-width="1.4" opacity="0.9"/>
<line x1="257.1" y1="587.3" x2="264.5" y2="597.8" stroke="#4b6580" stroke-width="1.4" opacity="0.9"/>
<line x1="257.1" y1="537.2" x2="258.7" y2="549.1" stroke="#4b6580" stroke-width="1.4" opacity="0.9"/>
<line x1="257.1" y1="487.0" x2="254.1" y2="498.8" stroke="#4b6580" stroke-width="1.4" opacity="0.9"/>
<line x1="257.1" y1="436.8" x2="251.3" y2="447.9" stroke="#4b6580" stroke-width="1.4" opacity="0.9"/>
<line x1="257.1" y1="386.7" x2="249.5" y2="397.0" stroke="#4b6580" stroke-width="1.4" opacity="0.9"/>
<line x1="257.1" y1="336.5" x2="248.4" y2="346.3" stroke="#4b6580" stroke-width="1.4" opacity="0.9"/>
<line x1="257.1" y1="286.3" x2="247.7" y2="295.6" stroke="#4b6580" stroke-width="1.4" opacity="0.9"/>
<line x1="257.1" y1="236.2" x2="247.1" y2="245.1" stroke="#4b6580" stroke-width="1.4" opacity="0.9"/>
<line x1="257.1" y1="186.0" x2="246.7" y2="194.6" stroke="#4b6580" stroke-width="1.4" opacity="0.9"/>
<line x1="303.5" y1="788.0" x2="318.3" y2="788.0" stroke="#4b6580" stroke-width="1.4" opacity="0.9"/>
<line x1="303.5" y1="737.8" x2="318.3" y2="738.3" stroke="#4b6580" stroke-width="1.4" opacity="0.9"/>
<line x1="303.5" y1="687.7" x2="318.3" y2="688.9" stroke="#4b6580" stroke-width="1.4" opacity="0.9"/>
<line x1="303.5" y1="637.5" x2="318.0" y2="640.2" stroke="#4b6580" stroke-width="1.4" opacity="0.9"/>
<line x1="303.5" y1="587.3" x2="316.5" y2="593.1" stroke="#4b6580" stroke-width="1.4" opacity="0.9"/>
<line x1="303.5" y1="537.2" x2="308.2" y2="548.6" stroke="#4b6580" stroke-width="1.4" opacity="0.9"/>
<line x1="303.5" y1="487.0" x2="295.3" y2="497.0" stroke="#4b6580" stroke-width="1.4" opacity="0.9"/>
<line x1="303.5" y1="436.8" x2="291.5" y2="443.9" stroke="#4b6580" stroke-width="1.4" opacity="0.9"/>
<line x1="303.5" y1="386.7" x2="290.3" y2="392.2" stroke="#4b6580" stroke-width="1.4" opacity="0.9"/>
<line x1="303.5" y1="336.5" x2="289.9" y2="341.2" stroke="#4b6580" stroke-width="1.4" opacity="0.9"/>
<line x1="303.5" y1="286.3" x2="289.6" y2="290.6" stroke="#4b6580" stroke-width="1.4" opacity="0.9"/>
<line x1="303.5" y1="236.2" x2="289.5" y2="240.0" stroke="#4b6580" stroke-width="1.4" opacity="0.9"/>
<line x1="303.5" y1="186.0" x2="289.3" y2="189.6" stroke="#4b6580" stroke-width="1.4" opacity="0.9"/>
<line x1="349.9" y1="788.0" x2="364.7" y2="788.0" stroke="#4b6580" stroke-width="1.4" opacity="0.9"/>
<line x1="349.9" y1="737.8" x2="364.7" y2="737.7" stroke="#4b6580" stroke-width="1.4" opacity="0.9"/>
<line x1="349.9" y1="687.7" x2="364.7" y2="687.2" stroke="#4b6580" stroke-width="1.4" opacity="0.9"/>
<line x1="349.9" y1="637.5" x2="364.7" y2="636.6" stroke="#4b6580" stroke-width="1.4" opacity="0.9"/>
<line x1="349.9" y1="587.3" x2="364.5" y2="585.2" stroke="#4b6580" stroke-width="1.4" opacity="0.9"/>
<line x1="349.9" y1="537.2" x2="360.4" y2="528.7" stroke="#4b6580" stroke-width="1.4" opacity="0.9"/>
<line x1="349.9" y1="487.0" x2="336.6" y2="481.6" stroke="#4b6580" stroke-width="1.4" opacity="0.9"/>
<line x1="349.9" y1="436.8" x2="335.4" y2="434.0" stroke="#4b6580" stroke-width="1.4" opacity="0.9"/>
<line x1="349.9" y1="386.7" x2="335.3" y2="384.6" stroke="#4b6580" stroke-width="1.4" opacity="0.9"/>
<line x1="349.9" y1="336.5" x2="335.2" y2="334.8" stroke="#4b6580" stroke-width="1.4" opacity="0.9"/>
<line x1="349.9" y1="286.3" x2="335.1" y2="284.8" stroke="#4b6580" stroke-width="1.4" opacity="0.9"/>
<line x1="349.9" y1="236.2" x2="335.1" y2="234.8" stroke="#4b6580" stroke-width="1.4" opacity="0.9"/>
<line x1="349.9" y1="186.0" x2="335.1" y2="184.7" stroke="#4b6580" stroke-width="1.4" opacity="0.9"/>
<line x1="396.2" y1="788.0" x2="411.1" y2="788.0" stroke="#4b6580" stroke-width="1.4" opacity="0.9"/>
<line x1="396.2" y1="737.8" x2="411.1" y2="737.2" stroke="#4b6580" stroke-width="1.4" opacity="0.9"/>
<line x1="396.2" y1="687.7" x2="411.0" y2="686.1" stroke="#4b6580" stroke-width="1.4" opacity="0.9"/>
<line x1="396.2" y1="637.5" x2="410.5" y2="634.2" stroke="#4b6580" stroke-width="1.4" opacity="0.9"/>
<line x1="396.2" y1="587.3" x2="408.6" y2="580.7" stroke="#4b6580" stroke-width="1.4" opacity="0.9"/>
<line x1="396.2" y1="537.2" x2="400.2" y2="525.6" stroke="#4b6580" stroke-width="1.4" opacity="0.9"/>
<line x1="396.2" y1="487.0" x2="389.1" y2="476.4" stroke="#4b6580" stroke-width="1.4" opacity="0.9"/>
<line x1="396.2" y1="436.8" x2="385.1" y2="428.9" stroke="#4b6580" stroke-width="1.4" opacity="0.9"/>
<line x1="396.2" y1="386.7" x2="383.7" y2="380.2" stroke="#4b6580" stroke-width="1.4" opacity="0.9"/>
<line x1="396.2" y1="336.5" x2="383.1" y2="330.9" stroke="#4b6580" stroke-width="1.4" opacity="0.9"/>
<line x1="396.2" y1="286.3" x2="382.8" y2="281.3" stroke="#4b6580" stroke-width="1.4" opacity="0.9"/>
<line x1="396.2" y1="236.2" x2="382.5" y2="231.5" stroke="#4b6580" stroke-width="1.4" opacity="0.9"/>
<line x1="396.2" y1="186.0" x2="382.4" y2="181.7" stroke="#4b6580" stroke-width="1.4" opacity="0.9"/>
<line x1="442.6" y1="788.0" x2="457.5" y2="788.0" stroke="#4b6580" stroke-width="1.4" opacity="0.9"/>
<line x1="442.6" y1="737.8" x2="457.4" y2="736.9" stroke="#4b6580" stroke-width="1.4" opacity="0.9"/>
<line x1="442.6" y1="687.7" x2="457.2" y2="685.3" stroke="#4b6580" stroke-width="1.4" opacity="0.9"/>
<line x1="442.6" y1="637.5" x2="456.3" y2="632.8" stroke="#4b6580" stroke-width="1.4" opacity="0.9"/>
<line x1="442.6" y1="587.3" x2="453.1" y2="578.8" stroke="#4b6580" stroke-width="1.4" opacity="0.9"/>
<line x1="442.6" y1="537.2" x2="445.2" y2="525.3" stroke="#4b6580" stroke-width="1.4" opacity="0.9"/>
<line x1="442.6" y1="487.0" x2="437.6" y2="475.7" stroke="#4b6580" stroke-width="1.4" opacity="0.9"/>
<line x1="442.6" y1="436.8" x2="433.8" y2="427.2" stroke="#4b6580" stroke-width="1.4" opacity="0.9"/>
<line x1="442.6" y1="386.7" x2="432.0" y2="378.3" stroke="#4b6580" stroke-width="1.4" opacity="0.9"/>
<line x1="442.6" y1="336.5" x2="431.0" y2="329.0" stroke="#4b6580" stroke-width="1.4" opacity="0.9"/>
<line x1="442.6" y1="286.3" x2="430.4" y2="279.5" stroke="#4b6580" stroke-width="1.4" opacity="0.9"/>
<line x1="442.6" y1="236.2" x2="430.1" y2="229.7" stroke="#4b6580" stroke-width="1.4" opacity="0.9"/>
<line x1="442.6" y1="186.0" x2="429.8" y2="179.9" stroke="#4b6580" stroke-width="1.4" opacity="0.9"/>
<line x1="489.0" y1="788.0" x2="503.8" y2="788.0" stroke="#4b6580" stroke-width="1.4" opacity="0.9"/>
<line x1="489.0" y1="737.8" x2="503.8" y2="736.7" stroke="#4b6580" stroke-width="1.4" opacity="0.9"/>
<line x1="489.0" y1="687.7" x2="503.4" y2="684.7" stroke="#4b6580" stroke-width="1.4" opacity="0.9"/>
<line x1="489.0" y1="637.5" x2="502.1" y2="631.8" stroke="#4b6580" stroke-width="1.4" opacity="0.9"/>
<line x1="489.0" y1="587.3" x2="498.2" y2="577.9" stroke="#4b6580" stroke-width="1.4" opacity="0.9"/>
<line x1="489.0" y1="537.2" x2="491.1" y2="525.2" stroke="#4b6580" stroke-width="1.4" opacity="0.9"/>
<line x1="489.0" y1="487.0" x2="484.9" y2="475.4" stroke="#4b6580" stroke-width="1.4" opacity="0.9"/>
<line x1="489.0" y1="436.8" x2="481.4" y2="426.5" stroke="#4b6580" stroke-width="1.4" opacity="0.9"/>
<line x1="489.0" y1="386.7" x2="479.6" y2="377.4" stroke="#4b6580" stroke-width="1.4" opacity="0.9"/>
<line x1="489.0" y1="336.5" x2="478.5" y2="328.0" stroke="#4b6580" stroke-width="1.4" opacity="0.9"/>
<line x1="489.0" y1="286.3" x2="477.8" y2="278.4" stroke="#4b6580" stroke-width="1.4" opacity="0.9"/>
<line x1="489.0" y1="236.2" x2="477.4" y2="228.7" stroke="#4b6580" stroke-width="1.4" opacity="0.9"/>
<line x1="489.0" y1="186.0" x2="477.1" y2="178.9" stroke="#4b6580" stroke-width="1.4" opacity="0.9"/>
<line x1="535.4" y1="788.0" x2="550.2" y2="788.0" stroke="#4b6580" stroke-width="1.4" opacity="0.9"/>
<line x1="535.4" y1="737.8" x2="550.1" y2="736.5" stroke="#4b6580" stroke-width="1.4" opacity="0.9"/>
<line x1="535.4" y1="687.7" x2="549.6" y2="684.3" stroke="#4b6580" stroke-width="1.4" opacity="0.9"/>
<line x1="535.4" y1="637.5" x2="548.0" y2="631.1" stroke="#4b6580" stroke-width="1.4" opacity="0.9"/>
<line x1="535.4" y1="587.3" x2="543.7" y2="577.4" stroke="#4b6580" stroke-width="1.4" opacity="0.9"/>
<line x1="535.4" y1="537.2" x2="537.2" y2="525.2" stroke="#4b6580" stroke-width="1.4" opacity="0.9"/>
<line x1="535.4" y1="487.0" x2="531.8" y2="475.3" stroke="#4b6580" stroke-width="1.4" opacity="0.9"/>
<line x1="535.4" y1="436.8" x2="528.6" y2="426.1" stroke="#4b6580" stroke-width="1.4" opacity="0.9"/>
<line x1="535.4" y1="386.7" x2="526.8" y2="376.8" stroke="#4b6580" stroke-width="1.4" opacity="0.9"/>
<line x1="535.4" y1="336.5" x2="525.7" y2="327.4" stroke="#4b6580" stroke-width="1.4" opacity="0.9"/>
<line x1="535.4" y1="286.3" x2="525.0" y2="277.8" stroke="#4b6580" stroke-width="1.4" opacity="0.9"/>
<line x1="535.4" y1="236.2" x2="524.5" y2="228.0" stroke="#4b6580" stroke-width="1.4" opacity="0.9"/>
<line x1="535.4" y1="186.0" x2="524.1" y2="178.2" stroke="#4b6580" stroke-width="1.4" opacity="0.9"/>
<line x1="581.8" y1="788.0" x2="596.6" y2="788.0" stroke="#4b6580" stroke-width="1.4" opacity="0.9"/>
<line x1="581.8" y1="737.8" x2="596.5" y2="736.4" stroke="#4b6580" stroke-width="1.4" opacity="0.9"/>
<line x1="581.8" y1="687.7" x2="595.9" y2="684.0" stroke="#4b6580" stroke-width="1.4" opacity="0.9"/>
<line x1="581.8" y1="637.5" x2="594.0" y2="630.6" stroke="#4b6580" stroke-width="1.4" opacity="0.9"/>
<line x1="581.8" y1="587.3" x2="589.5" y2="577.1" stroke="#4b6580" stroke-width="1.4" opacity="0.9"/>
<line x1="581.8" y1="537.2" x2="583.4" y2="525.2" stroke="#4b6580" stroke-width="1.4" opacity="0.9"/>
<line x1="581.8" y1="487.0" x2="578.5" y2="475.2" stroke="#4b6580" stroke-width="1.4" opacity="0.9"/>
<line x1="581.8" y1="436.8" x2="575.5" y2="425.9" stroke="#4b6580" stroke-width="1.4" opacity="0.9"/>
<line x1="581.8" y1="386.7" x2="573.8" y2="376.5" stroke="#4b6580" stroke-width="1.4" opacity="0.9"/>
<line x1="581.8" y1="336.5" x2="572.6" y2="327.0" stroke="#4b6580" stroke-width="1.4" opacity="0.9"/>
<line x1="581.8" y1="286.3" x2="571.9" y2="277.3" stroke="#4b6580" stroke-width="1.4" opacity="0.9"/>
<line x1="581.8" y1="236.2" x2="571.4" y2="227.6" stroke="#4b6580" stroke-width="1.4" opacity="0.9"/>
<line x1="581.8" y1="186.0" x2="571.0" y2="177.7" stroke="#4b6580" stroke-width="1.4" opacity="0.9"/>
<line x1="628.1" y1="788.0" x2="643.0" y2="788.0" stroke="#4b6580" stroke-width="1.4" opacity="0.9"/>
<line x1="628.1" y1="737.8" x2="642.8" y2="736.2" stroke="#4b6580" stroke-width="1.4" opacity="0.9"/>
<line x1="628.1" y1="687.7" x2="642.1" y2="683.7" stroke="#4b6580" stroke-width="1.4" opacity="0.9"/>
<line x1="628.1" y1="637.5" x2="640.0" y2="630.3" stroke="#4b6580" stroke-width="1.4" opacity="0.9"/>
<line x1="628.1" y1="587.3" x2="635.4" y2="576.9" stroke="#4b6580" stroke-width="1.4" opacity="0.9"/>
<line x1="628.1" y1="537.2" x2="629.6" y2="525.2" stroke="#4b6580" stroke-width="1.4" opacity="0.9"/>
<line x1="628.1" y1="487.0" x2="625.1" y2="475.2" stroke="#4b6580" stroke-width="1.4" opacity="0.9"/>
<line x1="628.1" y1="436.8" x2="622.3" y2="425.8" stroke="#4b6580" stroke-width="1.4" opacity="0.9"/>
<line x1="628.1" y1="386.7" x2="620.6" y2="376.3" stroke="#4b6580" stroke-width="1.4" opacity="0.9"/>
<line x1="628.1" y1="336.5" x2="619.5" y2="326.7" stroke="#4b6580" stroke-width="1.4" opacity="0.9"/>
<line x1="628.1" y1="286.3" x2="618.7" y2="277.0" stroke="#4b6580" stroke-width="1.4" opacity="0.9"/>
<line x1="628.1" y1="236.2" x2="618.2" y2="227.2" stroke="#4b6580" stroke-width="1.4" opacity="0.9"/>
<line x1="628.1" y1="186.0" x2="617.8" y2="177.4" stroke="#4b6580" stroke-width="1.4" opacity="0.9"/>
<line x1="674.5" y1="788.0" x2="689.3" y2="788.0" stroke="#4b6580" stroke-width="1.4" opacity="0.9"/>
<line x1="674.5" y1="737.8" x2="689.2" y2="736.1" stroke="#4b6580" stroke-width="1.4" opacity="0.9"/>
<line x1="674.5" y1="687.7" x2="688.4" y2="683.5" stroke="#4b6580" stroke-width="1.4" opacity="0.9"/>
<line x1="674.5" y1="637.5" x2="686.1" y2="630.0" stroke="#4b6580" stroke-width="1.4" opacity="0.9"/>
<line x1="674.5" y1="587.3" x2="681.5" y2="576.7" stroke="#4b6580" stroke-width="1.4" opacity="0.9"/>
<line x1="674.5" y1="537.2" x2="675.9" y2="525.2" stroke="#4b6580" stroke-width="1.4" opacity="0.9"/>
<line x1="674.5" y1="487.0" x2="671.7" y2="475.2" stroke="#4b6580" stroke-width="1.4" opacity="0.9"/>
<line x1="674.5" y1="436.8" x2="669.0" y2="425.7" stroke="#4b6580" stroke-width="1.4" opacity="0.9"/>
<line x1="674.5" y1="386.7" x2="667.3" y2="376.1" stroke="#4b6580" stroke-width="1.4" opacity="0.9"/>
<line x1="674.5" y1="336.5" x2="666.2" y2="326.5" stroke="#4b6580" stroke-width="1.4" opacity="0.9"/>
<line x1="674.5" y1="286.3" x2="665.4" y2="276.8" stroke="#4b6580" stroke-width="1.4" opacity="0.9"/>
<line x1="674.5" y1="236.2" x2="664.9" y2="227.0" stroke="#4b6580" stroke-width="1.4" opacity="0.9"/>
<line x1="674.5" y1="186.0" x2="664.5" y2="177.1" stroke="#4b6580" stroke-width="1.4" opacity="0.9"/>
<line x1="720.9" y1="788.0" x2="735.7" y2="788.0" stroke="#4b6580" stroke-width="1.4" opacity="0.9"/>
<line x1="720.9" y1="737.8" x2="735.6" y2="736.1" stroke="#4b6580" stroke-width="1.4" opacity="0.9"/>
<line x1="720.9" y1="687.7" x2="734.7" y2="683.3" stroke="#4b6580" stroke-width="1.4" opacity="0.9"/>
<line x1="720.9" y1="637.5" x2="732.3" y2="629.8" stroke="#4b6580" stroke-width="1.4" opacity="0.9"/>
<line x1="720.9" y1="587.3" x2="727.6" y2="576.6" stroke="#4b6580" stroke-width="1.4" opacity="0.9"/>
<line x1="720.9" y1="537.2" x2="722.2" y2="525.2" stroke="#4b6580" stroke-width="1.4" opacity="0.9"/>
<line x1="720.9" y1="487.0" x2="718.2" y2="475.2" stroke="#4b6580" stroke-width="1.4" opacity="0.9"/>
<line x1="720.9" y1="436.8" x2="715.6" y2="425.6" stroke="#4b6580" stroke-width="1.4" opacity="0.9"/>
<line x1="720.9" y1="386.7" x2="713.9" y2="376.0" stroke="#4b6580" stroke-width="1.4" opacity="0.9"/>
<line x1="720.9" y1="336.5" x2="712.8" y2="326.4" stroke="#4b6580" stroke-width="1.4" opacity="0.9"/>
<line x1="720.9" y1="286.3" x2="712.1" y2="276.6" stroke="#4b6580" stroke-width="1.4" opacity="0.9"/>
<line x1="720.9" y1="236.2" x2="711.5" y2="226.8" stroke="#4b6580" stroke-width="1.4" opacity="0.9"/>
<line x1="720.9" y1="186.0" x2="711.1" y2="176.9" stroke="#4b6580" stroke-width="1.4" opacity="0.9"/>
<line x1="767.2" y1="788.0" x2="782.1" y2="788.0" stroke="#4b6580" stroke-width="1.4" opacity="0.9"/>
<line x1="767.2" y1="737.8" x2="781.9" y2="736.0" stroke="#4b6580" stroke-width="1.4" opacity="0.9"/>
<line x1="767.2" y1="687.7" x2="781.0" y2="683.2" stroke="#4b6580" stroke-width="1.4" opacity="0.9"/>
<line x1="767.2" y1="637.5" x2="778.5" y2="629.6" stroke="#4b6580" stroke-width="1.4" opacity="0.9"/>
<line x1="767.2" y1="587.3" x2="773.8" y2="576.5" stroke="#4b6580" stroke-width="1.4" opacity="0.9"/>
<line x1="767.2" y1="537.2" x2="768.6" y2="525.2" stroke="#4b6580" stroke-width="1.4" opacity="0.9"/>
<line x1="767.2" y1="487.0" x2="764.7" y2="475.1" stroke="#4b6580" stroke-width="1.4" opacity="0.9"/>
<line x1="767.2" y1="436.8" x2="762.1" y2="425.5" stroke="#4b6580" stroke-width="1.4" opacity="0.9"/>
<line x1="767.2" y1="386.7" x2="760.5" y2="375.9" stroke="#4b6580" stroke-width="1.4" opacity="0.9"/>
<line x1="767.2" y1="336.5" x2="759.4" y2="326.3" stroke="#4b6580" stroke-width="1.4" opacity="0.9"/>
<line x1="767.2" y1="286.3" x2="758.7" y2="276.5" stroke="#4b6580" stroke-width="1.4" opacity="0.9"/>
<line x1="767.2" y1="236.2" x2="758.1" y2="226.7" stroke="#4b6580" stroke-width="1.4" opacity="0.9"/>
<line x1="767.2" y1="186.0" x2="757.7" y2="176.8" stroke="#4b6580" stroke-width="1.4" opacity="0.9"/>
<line x1="813.6" y1="788.0" x2="828.5" y2="788.0" stroke="#4b6580" stroke-width="1.4" opacity="0.9"/>
<line x1="813.6" y1="737.8" x2="828.3" y2="735.9" stroke="#4b6580" stroke-width="1.4" opacity="0.9"/>
<line x1="813.6" y1="687.7" x2="827.3" y2="683.0" stroke="#4b6580" stroke-width="1.4" opacity="0.9"/>
<line x1="813.6" y1="637.5" x2="824.7" y2="629.5" stroke="#4b6580" stroke-width="1.4" opacity="0.9"/>
<line x1="813.6" y1="587.3" x2="820.0" y2="576.4" stroke="#4b6580" stroke-width="1.4" opacity="0.9"/>
<line x1="813.6" y1="537.2" x2="814.9" y2="525.2" stroke="#4b6580" stroke-width="1.4" opacity="0.9"/>
<line x1="813.6" y1="487.0" x2="811.1" y2="475.1" stroke="#4b6580" stroke-width="1.4" opacity="0.9"/>
<line x1="813.6" y1="436.8" x2="808.7" y2="425.5" stroke="#4b6580" stroke-width="1.4" opacity="0.9"/>
<line x1="813.6" y1="386.7" x2="807.1" y2="375.9" stroke="#4b6580" stroke-width="1.4" opacity="0.9"/>
<line x1="813.6" y1="336.5" x2="806.0" y2="326.2" stroke="#4b6580" stroke-width="1.4" opacity="0.9"/>
<line x1="813.6" y1="286.3" x2="805.2" y2="276.4" stroke="#4b6580" stroke-width="1.4" opacity="0.9"/>
<line x1="813.6" y1="236.2" x2="804.7" y2="226.6" stroke="#4b6580" stroke-width="1.4" opacity="0.9"/>
<line x1="813.6" y1="186.0" x2="804.3" y2="176.7" stroke="#4b6580" stroke-width="1.4" opacity="0.9"/>
<line x1="860.0" y1="788.0" x2="874.8" y2="788.0" stroke="#4b6580" stroke-width="1.4" opacity="0.9"/>
<line x1="860.0" y1="737.8" x2="874.6" y2="735.9" stroke="#4b6580" stroke-width="1.4" opacity="0.9"/>
<line x1="860.0" y1="687.7" x2="873.6" y2="682.9" stroke="#4b6580" stroke-width="1.4" opacity="0.9"/>
<line x1="860.0" y1="637.5" x2="870.9" y2="629.3" stroke="#4b6580" stroke-width="1.4" opacity="0.9"/>
<line x1="860.0" y1="587.3" x2="866.2" y2="576.4" stroke="#4b6580" stroke-width="1.4" opacity="0.9"/>
<line x1="860.0" y1="537.2" x2="861.2" y2="525.2" stroke="#4b6580" stroke-width="1.4" opacity="0.9"/>
<line x1="860.0" y1="487.0" x2="857.6" y2="475.1" stroke="#4b6580" stroke-width="1.4" opacity="0.9"/>
<line x1="860.0" y1="436.8" x2="855.2" y2="425.5" stroke="#4b6580" stroke-width="1.4" opacity="0.9"/>
<line x1="860.0" y1="386.7" x2="853.6" y2="375.8" stroke="#4b6580" stroke-width="1.4" opacity="0.9"/>
<line x1="860.0" y1="336.5" x2="852.5" y2="326.1" stroke="#4b6580" stroke-width="1.4" opacity="0.9"/>
<line x1="860.0" y1="286.3" x2="851.8" y2="276.3" stroke="#4b6580" stroke-width="1.4" opacity="0.9"/>
<line x1="860.0" y1="236.2" x2="851.2" y2="226.5" stroke="#4b6580" stroke-width="1.4" opacity="0.9"/>
<line x1="860.0" y1="186.0" x2="850.8" y2="176.6" stroke="#4b6580" stroke-width="1.4" opacity="0.9"/>
<polyline points="118.0,522.4 860.0,522.4" fill="none" stroke="#f97316" stroke-width="3.2" stroke-opacity="0.9" stroke-linejoin="round" stroke-linecap="round"/>
<polyline points="118.0,788.0 118.0,186.0" fill="none" stroke="#f97316" stroke-width="3.2" stroke-opacity="0.9" stroke-linejoin="round" stroke-linecap="round"/>
<polyline points="118.0,788.0 860.0,788.0" fill="none" stroke="#60a5fa" stroke-width="3.2" stroke-opacity="0.9" stroke-linejoin="round" stroke-linecap="round"/>
<polyline points="336.2,788.0 336.2,186.0" fill="none" stroke="#60a5fa" stroke-width="3.2" stroke-opacity="0.9" stroke-linejoin="round" stroke-linecap="round"/>
<polyline points="262.7,119.7 254.8,125.6 247.4,132.0 240.5,138.9 234.1,146.3 228.2,153.9 222.6,161.9 217.5,170.2 212.7,178.7 208.3,187.5 204.2,196.3 200.4,205.3 196.8,214.5 193.5,223.7 190.4,232.9 187.6,242.2 184.9,251.5 182.4,260.8 180.1,270.1 178.0,279.3 176.0,288.5 174.2,297.6 172.5,306.7 170.9,315.7 169.4,324.6 168.0,333.4 166.7,342.1 165.5,350.7 164.4,359.2 163.4,367.6 162.4,375.9 161.5,384.0 160.7,392.0 159.9,399.9 159.3,407.7 158.6,415.4 158.0,422.9 157.5,430.3 157.0,437.5 156.6,444.7 156.1,451.7 155.8,458.5 155.5,465.3 155.2,471.9 154.9,478.4 154.7,484.8 154.5,491.0 154.4,497.1 154.3,503.1 154.2,509.0 154.1,514.8 154.1,520.4 154.1,525.9 154.2,531.3 154.2,536.6 154.3,541.8 154.4,546.9 154.6,551.9 154.7,556.7 154.9,561.5 155.1,566.1 155.4,570.7 155.6,575.1 155.9,579.5 156.2,583.8 156.6,587.9 157.0,592.0 157.4,596.0 157.8,599.9 158.2,603.7 158.7,607.4 159.2,611.0 159.7,614.6 160.3,618.0 160.9,621.4 161.5,624.7 162.1,628.0 162.8,631.1 163.5,634.2 164.2,637.2 165.0,640.1 165.8,643.0 166.6,645.8 167.5,648.5 168.4,651.2 169.3,653.8 170.3,656.3 171.3,658.8 172.4,661.2 173.4,663.5 174.6,665.8 175.7,668.1 176.9,670.3 178.2,672.4 179.5,674.4 180.8,676.5 182.2,678.4 183.7,680.3 185.2,682.2 186.7,684.0 188.3,685.7 189.9,687.4 191.6,689.1 193.4,690.7 195.2,692.3 197.1,693.8 199.1,695.3 201.1,696.7 203.1,698.1 205.3,699.5 207.5,700.8 209.8,702.0 212.2,703.3 214.6,704.5 217.1,705.6 219.7,706.7 222.4,707.8 225.2,708.8 228.1,709.8 231.0,710.7 234.1,711.6 237.2,712.5 240.5,713.4 243.8,714.2 247.3,714.9 250.9,715.6 254.6,716.3 258.4,717.0 262.3,717.6 266.3,718.2 270.5,718.7 274.8,719.2 279.2,719.7 283.7,720.1 288.4,720.5 293.3,720.9 298.3,721.2 303.4,721.4 308.7,721.7 314.1,721.9 319.7,722.0 325.5,722.1 331.4,722.2 337.5,722.2 343.8,722.1 350.3,722.1 356.9,721.9 363.7,721.7 370.7,721.5 377.9,721.2 385.3,720.9 392.9,720.5 400.7,720.0 408.7,719.5 416.9,718.9 425.3,718.2 433.9,717.4 442.7,716.6 451.7,715.7 460.9,714.7 470.3,713.6 479.9,712.4 489.7,711.1 499.7,709.7 509.9,708.2 520.3,706.5 530.8,704.7 541.5,702.8 552.4,700.7 563.4,698.5 574.5,696.1 585.8,693.4 597.1,690.6 608.5,687.6 620.0,684.4 631.5,680.9 643.0,677.1 654.4,673.1 665.8,668.7 677.0,664.1 688.1,659.1 699.0,653.7 709.6,647.9 719.9,641.7 729.9,635.0 739.4,627.9 748.4,620.2 756.8,612.0 764.5,603.2 771.5,593.9 777.7,583.9 782.9,573.2 787.2,561.9 790.3,549.8 792.3,537.1 793.1,523.6 792.6,509.4 790.6,494.5 787.2,478.9 782.4,462.6 776.0,445.6 768.1,428.1 758.7,410.0 747.8,391.5 735.4,372.7 721.7,353.6 706.7,334.4 690.5,315.1 673.2,296.0 655.0,277.2 636.1,258.8 616.5,240.9 596.5,223.7 576.2,207.3 555.8,191.8 535.4,177.3 515.2,163.9 495.2,151.8 475.7,140.8 456.7,131.1 438.3,122.7 420.6,115.5" fill="none" stroke="#4ade80" stroke-width="2.6" stroke-opacity="0.72" stroke-linejoin="round" stroke-linecap="round"/>
<polyline points="224.1,677.1 226.4,678.5 228.9,679.9 231.4,681.2 234.0,682.4 236.6,683.6 239.4,684.8 242.2,685.9 245.1,687.0 248.1,688.0 251.2,689.0 254.4,690.0 257.6,690.9 261.0,691.7 264.5,692.5 268.0,693.3 271.7,694.0 275.5,694.7 279.4,695.3 283.4,695.9 287.5,696.4 291.7,696.9 296.0,697.4 300.5,697.7 305.1,698.1 309.8,698.4 314.6,698.6 319.5,698.8 324.6,699.0 329.8,699.1 335.2,699.1 340.7,699.1 346.3,699.0 352.1,698.9 358.0,698.7 364.0,698.4 370.2,698.1 376.5,697.7 383.0,697.3 389.6,696.8 396.4,696.2 403.3,695.5 410.3,694.7 417.5,693.9 424.8,693.0 432.3,692.0 439.9,690.9 447.6,689.7 455.4,688.4 463.4,687.0 471.5,685.4 479.7,683.8 488.0,682.0 496.3,680.1 504.8,678.0 513.3,675.8 521.9,673.5 530.6,671.0 539.2,668.3 547.9,665.4 556.6,662.3 565.2,659.0 573.8,655.5 582.4,651.8 590.8,647.9 599.1,643.6 607.3,639.2 615.2,634.4 623.0,629.3 630.5,624.0 637.7,618.3 644.5,612.2 651.0,605.9 657.1,599.1 662.7,592.0 667.7,584.4 672.3,576.5 676.2,568.2 679.5,559.4 682.0,550.2 683.9,540.5 684.9,530.5 685.1,520.0 684.5,509.0 683.0,497.7 680.6,486.0 677.2,473.9 672.9,461.5 667.7,448.7 661.5,435.7 654.4,422.5 646.3,409.1 637.5,395.6 627.8,382.0 617.3,368.5 606.1,355.0 594.2,341.7 581.8,328.7 568.9,315.9 555.5,303.5 541.9,291.6 527.9,280.2 513.9,269.3 499.7,259.1 485.5,249.5 471.4,240.7 457.4,232.6 443.6,225.3 430.1,218.8 416.9,213.0 404.0,208.1 391.5,204.0 379.4,200.7 367.8,198.2 356.6,196.5 345.8,195.5 335.5,195.2 325.7,195.5 316.4,196.6 307.5,198.2 299.0,200.5 291.0,203.2 283.4,206.5 276.2,210.3 269.5,214.4 263.1,219.0 257.0,224.0 251.3,229.2 246.0,234.8 240.9,240.7 236.2,246.8 231.7,253.1 227.5,259.6 223.6,266.2 219.9,273.0 216.4,279.9 213.1,287.0 210.1,294.1 207.2,301.2 204.5,308.4 202.0,315.7 199.6,323.0 197.4,330.3 195.3,337.5 193.3,344.8 191.5,352.0 189.8,359.2 188.2,366.4 186.7,373.5 185.3,380.6 184.0,387.6 182.8,394.6 181.7,401.5 180.6,408.3 179.6,415.0 178.7,421.6 177.9,428.2 177.2,434.7 176.5,441.1 175.8,447.4 175.2,453.6 174.7,459.7 174.2,465.8 173.8,471.7 173.4,477.5 173.1,483.3 172.8,488.9 172.6,494.5 172.4,499.9 172.2,505.3 172.1,510.5 172.0,515.7 172.0,520.8 172.0,525.8 172.1,530.7 172.2,535.4 172.3,540.2 172.4,544.8 172.6,549.3 172.8,553.7 173.1,558.1 173.4,562.3 173.7,566.5 174.1,570.6 174.5,574.6 174.9,578.5 175.4,582.3 175.9,586.0 176.4,589.7 177.0,593.3 177.6,596.8 178.2,600.3 178.9,603.6 179.6,606.9 180.4,610.1 181.2,613.3 182.0,616.3 182.9,619.3 183.8,622.2 184.7,625.1 185.7,627.9 186.8,630.6 187.8,633.3 188.9,635.9 190.1,638.4 191.3,640.9 192.6,643.3 193.9,645.7 195.2,648.0 196.6,650.2 198.0,652.4 199.5,654.5 201.1,656.5 202.7,658.6 204.3,660.5 206.0,662.4 207.8,664.3 209.6,666.0 211.5,667.8 213.5,669.5 215.5,671.1 217.6,672.7 219.7,674.3 221.9,675.7 224.2,677.2 226.6,678.6 229.0,679.9 231.5,681.2 234.1,682.5 236.8,683.7 239.5,684.9 242.4,686.0 245.3,687.1 248.3,688.1 251.4,689.1 254.6,690.0 257.8,690.9 261.2,691.8 264.7,692.6 268.3,693.3 271.9,694.1 275.7,694.7 279.6,695.3 283.6,695.9 287.7,696.5 292.0,696.9 296.3,697.4 300.8,697.8 305.3,698.1 310.1,698.4 314.9,698.6 319.9,698.8 325.0,699.0 330.2,699.1 335.5,699.1 341.0,699.1 346.7,699.0 352.4,698.9 358.3,698.7 364.4,698.4 370.6,698.1 376.9,697.7 383.4,697.3 390.0,696.7 396.8,696.1 403.7,695.5 410.8,694.7 418.0,693.9 425.3,692.9 432.8,691.9 440.3,690.8 448.1,689.6 455.9,688.3 463.9,686.9 472.0,685.3 480.2,683.7 488.5,681.9 496.9,680.0 505.3,677.9 513.9,675.7 522.5,673.3 531.1,670.8 539.8,668.1 548.5,665.2 557.1,662.1 565.8,658.8 574.4,655.3 582.9,651.6 591.3,647.6 599.6,643.4 607.8,638.9 615.7,634.1 623.4,629.0 630.9,623.6 638.1,617.9 644.9,611.9 651.4,605.5 657.4,598.7 663.0,591.5 668.0,584.0 672.5,576.0 676.4,567.6 679.6,558.8 682.2,549.6 684.0,539.9 685.0,529.8 685.1,519.3 684.5,508.4 682.9,497.0 680.4,485.3 677.0,473.1 672.6,460.7 667.3,447.9 661.1,434.9 653.9,421.7 645.8,408.3 636.9,394.7 627.1,381.2 616.6,367.7 605.4,354.2 593.5,340.9 581.0,327.9 568.1,315.2 554.7,302.8 541.0,290.9 527.1,279.5 513.0,268.7 498.8,258.5 484.6,249.0 470.5,240.2 456.5,232.1 442.8,224.9 429.3,218.4 416.1,212.7 403.2,207.9 390.7,203.8 378.7,200.6 367.1,198.1 355.9,196.4 345.2,195.4 334.9,195.2 325.1,195.6 315.8,196.7 306.9,198.3 298.5,200.6 290.5,203.4 283.0,206.7 275.8,210.5 269.0,214.7 262.7,219.3 256.7,224.3 251.0,229.6 245.7,235.2 240.6,241.0 235.9,247.1 231.5,253.5 227.3,260.0 223.4,266.6 219.7,273.4 216.2,280.4 213.0,287.4 209.9,294.5 207.0,301.7 204.3,308.9 201.8,316.1 199.5,323.4 197.2,330.7 195.2,338.0 193.2,345.2 191.4,352.5 189.7,359.7 188.1,366.9 186.6,374.0 185.2,381.1 183.9,388.1 182.7,395.0 181.6,401.9 180.6,408.7 179.6,415.4 178.7,422.1 177.9,428.6 177.1,435.1 176.4,441.5 175.8,447.8 175.2,454.0 174.7,460.1 174.2,466.1 173.8,472.1 173.4,477.9 173.1,483.6 172.8,489.3 172.6,494.8 172.4,500.3 172.2,505.6 172.1,510.9 172.0,516.0 172.0,521.1 172.0,526.1 172.1,531.0 172.2,535.7 172.3,540.4 172.4,545.0 172.6,549.6 172.9,554.0 173.1,558.3 173.4,562.6 173.7,566.7 174.1,570.8 174.5,574.8 174.9,578.7 175.4,582.5 175.9,586.3 176.5,589.9 177.0,593.5 177.6,597.0 178.3,600.5 179.0,603.8 179.7,607.1 180.4,610.3 181.2,613.4 182.1,616.5 182.9,619.5 183.9,622.4 184.8,625.3 185.8,628.1 186.8,630.8 187.9,633.5 189.0,636.0 190.2,638.6 191.4,641.0 192.6,643.5 193.9,645.8 195.3,648.1 196.7,650.3 198.1,652.5 199.6,654.6 201.2,656.7 202.8,658.7 204.4,660.6 206.2,662.5 207.9,664.4 209.8,666.2 211.7,667.9 213.6,669.6 215.6,671.2 217.7,672.8 219.9,674.3 222.1,675.8 224.4,677.3 226.7,678.7 229.2,680.0 231.7,681.3 234.3,682.6 236.9,683.8 239.7,685.0 242.5,686.1 245.5,687.1 248.5,688.2 251.6,689.1 254.8,690.1 258.0,691.0 261.4,691.8 264.9,692.6 268.5,693.4 272.2,694.1 276.0,694.8 279.9,695.4 283.9,696.0 288.0,696.5 292.2,697.0 296.6,697.4 301.0,697.8 305.6,698.1 310.4,698.4 315.2,698.7 320.2,698.9 325.3,699.0 330.5,699.1 335.9,699.1 341.4,699.1 347.0,699.0 352.8,698.9 358.7,698.7 364.8,698.4 371.0,698.1 377.3,697.7 383.8,697.2 390.5,696.7 397.2,696.1 404.1,695.4 411.2,694.6 418.4,693.8 425.7,692.9 433.2,691.9 440.8,690.7 448.6,689.5 456.4,688.2 464.4,686.8 472.5,685.2 480.7,683.6 489.0,681.8 497.4,679.8 505.9,677.8 514.4,675.6 523.0,673.2 531.6,670.6 540.3,667.9 549.0,665.0 557.7,661.9 566.3,658.6 574.9,655.1 583.4,651.3 591.8,647.4 600.1,643.1 608.3,638.6 616.2,633.8 623.9,628.7 631.4,623.3 638.5,617.5 645.3,611.5 651.8,605.0 657.8,598.2 663.3,591.1 668.3,583.5 672.8,575.5 676.6,567.1 679.8,558.3 682.3,549.0 684.0,539.3 685.0,529.2 685.1,518.6 684.4,507.7 682.7,496.3 680.2,484.5 676.7,472.4 672.3,459.9 666.9,447.1 660.6,434.1 653.4,420.8 645.3,407.4 636.3,393.9 626.5,380.4 615.9,366.8 604.6,353.4 592.7,340.1 580.2,327.1 567.3,314.4 553.9,302.0 540.2,290.2 526.2,278.8 512.1,268.0 497.9,257.9 483.7,248.4 469.6,239.6 455.7,231.7 441.9,224.4 428.4,218.0 415.3,212.4 402.4,207.6 390.0,203.6 378.0,200.4 366.4,198.0 355.2,196.3 344.5,195.4 334.3,195.2 324.5,195.6 315.2,196.7 306.4,198.5 298.0,200.8 290.0,203.6 282.5,206.9 275.4,210.7 268.6,215.0 262.3,219.6 256.3,224.6 250.7,229.9 245.3,235.5 240.3,241.4 235.6,247.5 231.2,253.9 227.0,260.4 223.1,267.1 219.4,273.9 216.0,280.8 212.8,287.8 209.7,294.9 206.9,302.1 204.2,309.3 201.7,316.6 199.3,323.9 197.1,331.2 195.0,338.4 193.1,345.7 191.3,352.9 189.6,360.1 188.0,367.3 186.5,374.4 185.1,381.5 183.9,388.5 182.7,395.4 181.5,402.3 180.5,409.1 179.5,415.8 178.6,422.5 177.8,429.0 177.1,435.5 176.4,441.9 175.7,448.2 175.2,454.4 174.6,460.5 174.2,466.5 173.7,472.4 173.4,478.2 173.1,484.0 172.8,489.6 172.6,495.1 172.4,500.6 172.2,505.9 172.1,511.2 172.0,516.3 172.0,521.4 172.0,526.4 172.1,531.3 172.2,536.0 172.3,540.7 172.4,545.3 172.6,549.8 172.9,554.3 173.1,558.6 173.4,562.8 173.8,567.0 174.1,571.1 174.5,575.0 175.0,578.9 175.4,582.8 176.0,586.5 176.5,590.2 177.1,593.7 177.7,597.2 178.3,600.7 179.0,604.0 179.7,607.3 180.5,610.5 181.3,613.6 182.1,616.7 183.0,619.7 183.9,622.6 184.9,625.5 185.9,628.2 186.9,631.0 188.0,633.6 189.1,636.2 190.3,638.7 191.5,641.2 192.7,643.6 194.0,645.9 195.4,648.2 196.8,650.5 198.2,652.6 199.7,654.7 201.3,656.8 202.9,658.8 204.5,660.7 206.3,662.6 208.0,664.5 209.9,666.3 211.8,668.0 213.7,669.7 215.8,671.3 217.8,672.9 220.0,674.4 222.2,675.9 224.5,677.4 226.9,678.8 229.3,680.1 231.8,681.4 234.4,682.7 237.1,683.9 239.9,685.0 242.7,686.1 245.6,687.2 248.7,688.2 251.8,689.2 255.0,690.1 258.2,691.0 261.6,691.9 265.1,692.7 268.7,693.4 272.4,694.1 276.2,694.8 280.1,695.4 284.1,696.0 288.2,696.5 292.5,697.0 296.8,697.4 301.3,697.8 305.9,698.1 310.6,698.4 315.5,698.7 320.5,698.9 325.6,699.0 330.8,699.1 336.2,699.1 341.7,699.1 347.4,699.0 353.2,698.9 359.1,698.6 365.2,698.4 371.4,698.1 377.7,697.7 384.2,697.2 390.9,696.7 397.7,696.0 404.6,695.4 411.6,694.6 418.9,693.7 426.2,692.8 433.7,691.8 441.3,690.7 449.0,689.4 456.9,688.1 464.9,686.7 473.0,685.1 481.2,683.5 489.5,681.6 497.9,679.7 506.4,677.6 514.9,675.4 523.5,673.0 532.2,670.5 540.8,667.7 549.5,664.8 558.2,661.7 566.8,658.4 575.4,654.9 583.9,651.1 592.3,647.1 600.6,642.8 608.8,638.3 616.7,633.5 624.4,628.4 631.8,622.9 639.0,617.2 645.7,611.1 652.2,604.6 658.1,597.8 663.6,590.6 668.6,583.0 673.0,575.0 676.8,566.6 680.0,557.7 682.4,548.4 684.1,538.7 685.0,528.5 685.1,518.0 684.3,507.0 682.6,495.6 680.0,483.8 676.5,471.6 672.0,459.1 666.6,446.3 660.2,433.3 652.9,420.0 644.8,406.6 635.7,393.1 625.9,379.5 615.2,366.0 603.9,352.6 592.0,339.3 579.4,326.3 566.4,313.6 553.0,301.3 539.3,289.4 525.3,278.1 511.2,267.4 497.0,257.3 482.9,247.8 468.8,239.1 454.8,231.2 441.1,224.0 427.6,217.6 414.5,212.1 401.7,207.3 389.2,203.4 377.2,200.2 365.7,197.8 354.5,196.2 343.9,195.3 333.7,195.2 323.9,195.7 314.7,196.8 305.9,198.6 297.5,200.9 289.6,203.8 282.0,207.2 274.9,211.0 268.2,215.3 261.9,219.9 255.9,224.9 250.3,230.3 245.0,235.9 240.0,241.8 235.3,247.9 230.9,254.3 226.8,260.8 222.9,267.5 219.2,274.3 215.8,281.2 212.6,288.3 209.5,295.4 206.7,302.6 204.0,309.8 201.5,317.0 199.2,324.3 197.0,331.6 194.9,338.9 193.0,346.1 191.2,353.4 189.5,360.6 187.9,367.7 186.4,374.9 185.1,381.9 183.8,388.9 182.6,395.9 181.5,402.7 180.4,409.5 179.5,416.2 178.6,422.9 177.8,429.4 177.0,435.9 176.3,442.3 175.7,448.6 175.1,454.8 174.6,460.9 174.1,466.9 173.7,472.8 173.4,478.6 173.0,484.3 172.8,490.0 172.5,495.5 172.4,500.9 172.2,506.3 172.1,511.5 172.0,516.7 172.0,521.7 172.0,526.7 172.1,531.6 172.2,536.3 172.3,541.0 172.5,545.6 172.7,550.1 172.9,554.5 173.1,558.8 173.4,563.1 173.8,567.2 174.2,571.3 174.6,575.3 175.0,579.2 175.5,583.0 176.0,586.7 176.5,590.4 177.1,594.0 177.7,597.5 178.4,600.9 179.1,604.2 179.8,607.5 180.5,610.7 181.3,613.8 182.2,616.9 183.1,619.9 184.0,622.8 184.9,625.6 185.9,628.4 187.0,631.1 188.0,633.8 189.2,636.4 190.3,638.9 191.5,641.3 192.8,643.7 194.1,646.1 195.5,648.4 196.9,650.6 198.3,652.8 199.8,654.9 201.4,656.9 203.0,658.9 204.6,660.9 206.4,662.8 208.2,664.6 210.0,666.4 211.9,668.1 213.9,669.8 215.9,671.4 218.0,673.0 220.1,674.5 222.4,676.0 224.7,677.5 227.0,678.8 229.5,680.2 232.0,681.5 234.6,682.7 237.3,683.9 240.0,685.1 242.9,686.2 245.8,687.3 248.8,688.3 252.0,689.3 255.2,690.2 258.4,691.1 261.8,691.9 265.3,692.7 268.9,693.5 272.6,694.2 276.4,694.8 280.3,695.5 284.4,696.0 288.5,696.5 292.7,697.0 297.1,697.5 301.6,697.8 306.2,698.2 310.9,698.5 315.8,698.7 320.8,698.9 325.9,699.0 331.2,699.1 336.5,699.1 342.1,699.1 347.7,699.0 353.5,698.8 359.5,698.6 365.5,698.4 371.8,698.0 378.1,697.6 384.6,697.2 391.3,696.6 398.1,696.0 405.0,695.3 412.1,694.5 419.3,693.7 426.7,692.8 434.2,691.7 441.8,690.6 449.5,689.4 457.4,688.0 465.4,686.6 473.5,685.0 481.7,683.3 490.0,681.5 498.4,679.6 506.9,677.5 515.5,675.3 524.1,672.9 532.7,670.3 541.4,667.6 550.1,664.6 558.7,661.5 567.4,658.2 576.0,654.6 584.5,650.9 592.9,646.8 601.1,642.6 609.2,638.0 617.2,633.2 624.8,628.0 632.3,622.6 639.4,616.8 646.2,610.7 652.5,604.2 658.5,597.4 664.0,590.1 668.9,582.5 673.3,574.5 677.1,566.0 680.2,557.1 682.6,547.8 684.2,538.1 685.1,527.9 685.1,517.3 684.2,506.3 682.5,494.8 679.8,483.0 676.2,470.8 671.7,458.3 666.2,445.5 659.8,432.5 652.5,419.2 644.2,405.8 635.1,392.2 625.2,378.7 614.6,365.1 603.2,351.7 591.2,338.5 578.6,325.5 565.6,312.8 552.2,300.5 538.4,288.7 524.5,277.4 510.3,266.7 496.2,256.7 482.0,247.3 467.9,238.6 454.0,230.7 440.3,223.6 426.8,217.3 413.7,211.8 400.9,207.0 388.5,203.1 376.5,200.0 364.9,197.7 353.9,196.2 343.2,195.3 333.1,195.2 323.3,195.7 314.1,196.9 305.3,198.7 297.0,201.1 289.1,204.0 281.6,207.4 274.5,211.2 267.8,215.5 261.5,220.2 255.6,225.2 250.0,230.6 244.7,236.2 239.7,242.2 235.1,248.3 230.7,254.7 226.5,261.2 222.7,267.9 219.0,274.7 215.6,281.7 212.4,288.7 209.4,295.8 206.5,303.0 203.9,310.2 201.4,317.5 199.0,324.8 196.8,332.1 194.8,339.3 192.9,346.6 191.1,353.8 189.4,361.0 187.8,368.2 186.4,375.3 185.0,382.4 183.7,389.4 182.5,396.3 181.4,403.2 180.4,409.9 179.4,416.7 178.5,423.3 177.7,429.8 177.0,436.3 176.3,442.7 175.7,448.9 175.1,455.1 174.6,461.2 174.1,467.2 173.7,473.1 173.3,479.0 173.0,484.7 172.8,490.3 172.5,495.8 172.3,501.3 172.2,506.6 172.1,511.8 172.0,517.0 172.0,522.0 172.0,527.0 172.1,531.9 172.2,536.6 172.3,541.3 172.5,545.9 172.7,550.4 172.9,554.8 173.2,559.1 173.5,563.3 173.8,567.5 174.2,571.6 174.6,575.5 175.0,579.4 175.5,583.2 176.0,587.0 176.6,590.6 177.1,594.2 177.8,597.7 178.4,601.1 179.1,604.4 179.8,607.7 180.6,610.9 181.4,614.0 182.2,617.1 183.1,620.0 184.0,623.0 185.0,625.8 186.0,628.6 187.0,631.3 188.1,633.9 189.2,636.5 190.4,639.0 191.6,641.5 192.9,643.9 194.2,646.2 195.5,648.5 196.9,650.7 198.4,652.9 199.9,655.0 201.5,657.0 203.1,659.0 204.8,661.0 206.5,662.9 208.3,664.7 210.1,666.5 212.0,668.2 214.0,669.9 216.0,671.5 218.1,673.1 220.3,674.6 222.5,676.1 224.8,677.5 227.2,678.9 229.6,680.3 232.2,681.6 234.8,682.8 237.5,684.0 240.2,685.2 243.1,686.3 246.0,687.3 249.0,688.4 252.1,689.3 255.4,690.3 258.7,691.1 262.1,692.0 265.6,692.8 269.2,693.5 272.9,694.2 276.7,694.9 280.6,695.5 284.6,696.1 288.8,696.6 293.0,697.1 297.4,697.5 301.9,697.9 306.5,698.2 311.2,698.5 316.1,698.7 321.1,698.9 326.2,699.0 331.5,699.1 336.9,699.1 342.4,699.1 348.1,699.0 353.9,698.8 359.8,698.6 365.9,698.3 372.2,698.0 378.5,697.6 385.0,697.1 391.7,696.6 398.5,696.0 405.4,695.3 412.5,694.5 419.8,693.6 427.1,692.7 434.6,691.7 442.3,690.5 450.0,689.3 457.9,687.9 465.9,686.5 474.0,684.9 482.2,683.2 490.6,681.4 499.0,679.5 507.4,677.4 516.0,675.1 524.6,672.7 533.3,670.1 541.9,667.4 550.6,664.5 559.3,661.3 567.9,658.0 576.5,654.4 585.0,650.6 593.4,646.6 601.6,642.3 609.7,637.7 617.6,632.9 625.3,627.7 632.7,622.2 639.8,616.4 646.6,610.3 652.9,603.8 658.8,596.9 664.3,589.7 669.2,582.0 673.5,574.0 677.3,565.5 680.3,556.6 682.7,547.2 684.3,537.5 685.1,527.3 685.0,516.6 684.1,505.6 682.3,494.1 679.6,482.3 676.0,470.1 671.4,457.5 665.8,444.7 659.4,431.6 652.0,418.4 643.7,404.9 634.5,391.4 624.6,377.8 613.9,364.3 602.5,350.9 590.4,337.7 577.9,324.7 564.8,312.1 551.3,299.8 537.6,288.0 523.6,276.8 509.5,266.1 495.3,256.1 481.1,246.7 467.0,238.1 453.1,230.2 439.4,223.2 426.0,216.9 412.9,211.4 400.1,206.8 387.7,202.9 375.8,199.9 364.2,197.6 353.2,196.1 342.6,195.3 332.4,195.2 322.8,195.8 313.5,197.0 304.8,198.9 296.5,201.3 288.6,204.2 281.1,207.6 274.1,211.5 267.4,215.8 261.1,220.5 255.2,225.6 249.6,230.9 244.4,236.6 239.4,242.5 234.8,248.7 230.4,255.1 226.3,261.6 222.4,268.3 218.8,275.2 215.4,282.1 212.2,289.2 209.2,296.3 206.4,303.5 203.7,310.7 201.2,317.9 198.9,325.2 196.7,332.5 194.7,339.8 192.8,347.0 191.0,354.3 189.3,361.5 187.7,368.6 186.3,375.7 184.9,382.8 183.6,389.8 182.4,396.7 181.3,403.6 180.3,410.4 179.4,417.1 178.5,423.7 177.7,430.2 176.9,436.7 176.2,443.1 175.6,449.3 175.1,455.5 174.5,461.6 174.1,467.6 173.7,473.5 173.3,479.3 173.0,485.0 172.7,490.6 172.5,496.2 172.3,501.6 172.2,506.9 172.1,512.2 172.0,517.3 172.0,522.3 172.0,527.3 172.1,532.2 172.2,536.9 172.3,541.6 172.5,546.2 172.7,550.7 172.9,555.1 173.2,559.4 173.5,563.6 173.8,567.7 174.2,571.8 174.6,575.8 175.1,579.7 175.5,583.5 176.0,587.2 176.6,590.8 177.2,594.4 177.8,597.9 178.5,601.3 179.1,604.6 179.9,607.9 180.6,611.1 181.4,614.2 182.3,617.3 183.2,620.2 184.1,623.1 185.0,626.0 186.0,628.8 187.1,631.5 188.2,634.1 189.3,636.7 190.5,639.2 191.7,641.6 193.0,644.0 194.3,646.4 195.6,648.6 197.0,650.9 198.5,653.0 200.0,655.1 201.6,657.2 203.2,659.2 204.9,661.1 206.6,663.0 208.4,664.8 210.2,666.6 212.1,668.3 214.1,670.0 216.1,671.6 218.2,673.2 220.4,674.7 222.6,676.2 225.0,677.6 227.3,679.0 229.8,680.4 232.3,681.6 234.9,682.9 237.6,684.1 240.4,685.2 243.2,686.3 246.2,687.4 249.2,688.4 252.3,689.4 255.6,690.3 258.9,691.2 262.3,692.0 265.8,692.8 269.4,693.6 273.1,694.3 276.9,694.9 280.8,695.5 284.9,696.1 289.0,696.6 293.3,697.1 297.7,697.5 302.2,697.9 306.8,698.2 311.5,698.5 316.4,698.7 321.4,698.9 326.6,699.0 331.8,699.1 337.2,699.1 342.8,699.1 348.4,699.0 354.3,698.8 360.2,698.6 366.3,698.3 372.5,698.0 378.9,697.6 385.4,697.1 392.1,696.6 398.9,695.9 405.9,695.2 413.0,694.4 420.2,693.6 427.6,692.6 435.1,691.6 442.7,690.4 450.5,689.2 458.4,687.9 466.4,686.4 474.5,684.8 482.7,683.1 491.1,681.3 499.5,679.3 508.0,677.2 516.5,675.0 525.1,672.6 533.8,670.0 542.5,667.2 551.1,664.3 559.8,661.1 568.4,657.8 577.0,654.2 585.5,650.4 593.9,646.3 602.2,642.0 610.2,637.4 618.1,632.6 625.8,627.4 633.2,621.9 640.2,616.1 647.0,609.9 653.3,603.4 659.2,596.5 664.6,589.2 669.5,581.5 673.8,573.5 677.5,564.9 680.5,556.0 682.8,546.6 684.4,536.8 685.1,526.6 685.0,516.0 684.1,504.9 682.2,493.4 679.4,481.5 675.7,469.3 671.1,456.8 665.5,443.9 658.9,430.8 651.5,417.5 643.1,404.1 634.0,390.5 623.9,377.0 613.2,363.5 601.7,350.1 589.7,336.9 577.1,323.9 564.0,311.3 550.5,299.1 536.7,287.3 522.7,276.1 508.6,265.4 494.4,255.5 480.2,246.2 466.2,237.6 452.3,229.8 438.6,222.8 425.2,216.5 412.1,211.1 399.3,206.5 387.0,202.7 375.0,199.7 363.5,197.5 352.5,196.0 341.9,195.3 331.8,195.2 322.2,195.9 313.0,197.1 304.3,199.0 296.0,201.4 288.1,204.4 280.7,207.8 273.7,211.8 267.0,216.1 260.8,220.8 254.9,225.9 249.3,231.3 244.1,237.0 239.1,242.9 234.5,249.1 230.1,255.5 226.0,262.0 222.2,268.7 218.6,275.6 215.2,282.5 212.0,289.6 209.0,296.7 206.2,303.9 203.5,311.1 201.1,318.4 198.8,325.7 196.6,333.0 194.6,340.2 192.6,347.5 190.9,354.7 189.2,361.9 187.6,369.1 186.2,376.2 184.8,383.2 183.5,390.2 182.4,397.1 181.3,404.0 180.3,410.8 179.3,417.5 178.4,424.1 177.6,430.6" fill="none" stroke="#4ade80" stroke-width="2.6" stroke-opacity="0.72" stroke-linejoin="round" stroke-linecap="round"/>
<polyline points="347.3,704.6 353.3,704.5 359.4,704.3 365.7,704.1 372.1,703.7 378.7,703.4 385.4,702.9 392.3,702.4 399.4,701.8 406.6,701.2 413.9,700.4 421.5,699.6 429.1,698.7 436.9,697.7 444.9,696.6 453.0,695.4 461.3,694.1 469.7,692.7 478.2,691.2 486.8,689.6 495.6,687.8 504.5,685.9 513.4,683.9 522.5,681.7 531.6,679.3 540.8,676.8 550.1,674.1 559.3,671.2 568.6,668.2 577.9,664.9 587.1,661.3 596.3,657.6 605.3,653.6 614.3,649.3 623.1,644.7 631.7,639.9 640.1,634.7 648.3,629.2 656.1,623.3 663.6,617.1 670.7,610.5 677.3,603.5 683.5,596.1 689.1,588.2 694.1,579.9 698.4,571.2 702.0,561.9 704.9,552.2 707.0,542.0 708.1,531.3 708.4,520.1 707.8,508.5 706.1,496.3 703.4,483.8 699.7,470.8 694.9,457.4 689.1,443.6 682.2,429.5 674.3,415.2 665.4,400.7 655.5,386.0 644.7,371.3 633.0,356.6 620.6,342.0 607.5,327.6 593.7,313.4 579.4,299.6 564.7,286.2 549.7,273.4 534.4,261.1 519.0,249.5 503.5,238.5 488.1,228.4 472.8,219.1 457.7,210.6 442.9,203.0 428.4,196.3 414.3,190.5 400.7,185.6 387.5,181.6 374.8,178.5 362.5,176.2 350.8,174.8 339.7,174.2 329.0,174.3 318.9,175.2 309.3,176.7 300.3,178.9 291.7,181.7 283.5,185.1 275.9,189.0 268.7,193.4 261.9,198.2 255.5,203.4 249.5,209.0 243.8,214.9 238.6,221.1 233.6,227.6 228.9,234.3 224.6,241.2 220.5,248.3 216.6,255.5 213.0,262.9 209.6,270.3 206.5,277.9 203.5,285.5 200.8,293.1 198.2,300.8 195.7,308.5 193.5,316.3 191.3,324.0 189.4,331.7 187.5,339.3 185.8,346.9 184.1,354.5 182.6,362.0 181.2,369.5 179.9,376.9 178.7,384.2 177.5,391.5 176.5,398.7 175.5,405.7 174.6,412.7 173.7,419.6 173.0,426.4 172.2,433.2 171.6,439.8 171.0,446.3 170.4,452.7 170.0,459.0 169.5,465.2 169.1,471.4 168.8,477.4 168.5,483.3 168.2,489.1 168.0,494.8 167.8,500.4 167.7,505.9 167.6,511.3 167.5,516.6 167.5,521.8 167.5,526.9 167.6,531.9 167.7,536.8 167.8,541.6 167.9,546.3 168.1,550.9 168.3,555.4 168.6,559.8 168.9,564.2 169.2,568.4 169.5,572.6 169.9,576.6 170.3,580.6 170.8,584.5 171.2,588.3 171.8,592.1 172.3,595.7 172.9,599.3 173.5,602.8 174.1,606.2 174.8,609.5 175.5,612.8 176.3,616.0 177.1,619.1 177.9,622.2 178.8,625.1 179.7,628.0 180.6,630.9 181.6,633.6 182.6,636.3 183.7,639.0 184.8,641.5 185.9,644.1 187.1,646.5 188.3,648.9 189.6,651.2 190.9,653.5 192.3,655.7 193.7,657.8 195.2,659.9 196.7,662.0 198.3,664.0 200.0,665.9 201.6,667.8 203.4,669.6 205.2,671.4 207.1,673.1 209.0,674.8 211.0,676.4 213.0,678.0 215.1,679.5 217.3,681.0 219.6,682.4 221.9,683.8 224.3,685.2 226.8,686.5 229.4,687.7 232.0,688.9 234.7,690.1 237.5,691.2 240.4,692.3 243.4,693.3 246.5,694.3 249.7,695.2 252.9,696.1 256.3,697.0 259.7,697.8 263.3,698.6 267.0,699.3 270.7,700.0 274.6,700.6 278.6,701.2 282.7,701.7 287.0,702.3 291.3,702.7 295.8,703.1 300.4,703.5 305.1,703.8 310.0,704.1 315.0,704.3 320.1,704.5 325.4,704.6 330.8,704.7 336.3,704.7 342.0,704.7 347.8,704.6 353.8,704.5 360.0,704.3 366.3,704.0 372.7,703.7 379.3,703.3 386.0,702.9 393.0,702.4 400.0,701.8 407.2,701.1 414.6,700.4 422.1,699.5 429.8,698.6 437.7,697.6 445.6,696.5 453.8,695.3 462.0,694.0 470.4,692.6 479.0,691.1 487.6,689.4 496.4,687.7 505.3,685.7 514.3,683.7 523.3,681.5 532.5,679.1 541.7,676.6 550.9,673.9 560.2,671.0 569.4,667.9 578.7,664.5 587.9,661.0 597.1,657.2 606.2,653.2 615.1,648.9 623.9,644.3 632.5,639.4 640.9,634.2 649.0,628.7 656.8,622.8 664.2,616.5 671.3,609.9 677.9,602.8 684.0,595.4 689.5,587.5 694.5,579.1 698.8,570.3 702.3,561.1 705.1,551.3 707.1,541.1 708.2,530.3 708.4,519.1 707.6,507.4 705.9,495.2 703.1,482.6 699.3,469.6 694.4,456.1 688.5,442.3 681.6,428.3 673.5,413.9 664.5,399.4 654.6,384.7 643.7,370.0 632.0,355.3 619.5,340.7 606.3,326.3 592.4,312.1 578.1,298.4 563.4,285.0 548.3,272.2 533.0,260.0 517.6,248.4 502.1,237.6 486.7,227.5 471.4,218.3 456.4,209.9 441.6,202.4 427.2,195.8 413.1,190.1 399.5,185.2 386.3,181.3 373.6,178.3 361.5,176.1 349.8,174.7 338.7,174.2 328.1,174.4 318.1,175.3 308.5,176.9 299.5,179.2 290.9,182.0 282.8,185.4 275.2,189.4 268.0,193.8 261.3,198.6 254.9,203.9 249.0,209.5 243.4,215.5 238.1,221.7 233.2,228.2 228.5,234.9 224.2,241.8 220.1,248.9 216.3,256.2 212.7,263.5 209.4,271.0 206.2,278.5 203.3,286.2 200.5,293.8 197.9,301.5 195.5,309.2 193.3,317.0 191.2,324.7 189.2,332.3 187.3,340.0 185.6,347.6 184.0,355.2 182.5,362.7 181.1,370.2 179.8,377.6 178.6,384.9 177.4,392.1 176.4,399.3 175.4,406.4 174.5,413.4 173.7,420.2 172.9,427.1 172.2,433.8 171.5,440.4 170.9,446.9 170.4,453.3 169.9,459.6 169.5,465.8 169.1,471.9 168.7,477.9 168.4,483.8 168.2,489.6 168.0,495.3 167.8,500.9 167.7,506.4 167.6,511.8 167.5,517.0 167.5,522.2 167.5,527.3 167.6,532.3 167.7,537.2 167.8,542.0 167.9,546.7 168.1,551.3 168.4,555.8 168.6,560.2 168.9,564.6 169.2,568.8 169.6,572.9 169.9,577.0 170.4,581.0 170.8,584.9 171.3,588.7 171.8,592.4 172.4,596.1 172.9,599.6 173.6,603.1 174.2,606.5 174.9,609.8 175.6,613.1 176.4,616.3 177.2,619.4 178.0,622.4 178.9,625.4 179.8,628.3 180.7,631.1 181.7,633.9 182.7,636.6 183.8,639.2 184.9,641.8 186.0,644.3 187.2,646.7 188.5,649.1 189.7,651.4 191.1,653.7 192.4,655.9 193.9,658.0 195.4,660.1 196.9,662.2 198.5,664.1 200.1,666.1 201.8,667.9 203.5,669.8 205.4,671.5 207.2,673.3 209.2,674.9 211.2,676.6 213.2,678.1 215.3,679.7 217.5,681.1 219.8,682.6 222.1,683.9 224.6,685.3 227.0,686.6 229.6,687.8 232.3,689.0 235.0,690.2 237.8,691.3 240.7,692.4 243.7,693.4 246.8,694.4 249.9,695.3 253.2,696.2 256.6,697.0 260.0,697.9 263.6,698.6 267.3,699.3 271.1,700.0 275.0,700.7 279.0,701.2 283.1,701.8 287.3,702.3 291.7,702.8 296.2,703.2 300.8,703.5 305.5,703.9 310.4,704.1 315.4,704.3 320.6,704.5 325.8,704.6 331.2,704.7 336.8,704.7 342.5,704.7 348.4,704.6 354.4,704.5 360.5,704.3 366.8,704.0 373.3,703.7 379.9,703.3 386.7,702.8 393.6,702.3 400.7,701.7 407.9,701.0 415.3,700.3 422.8,699.4 430.5,698.5 438.4,697.5 446.4,696.4 454.5,695.2 462.8,693.9 471.2,692.5 479.7,690.9 488.4,689.3 497.2,687.5 506.1,685.6 515.1,683.5 524.1,681.3 533.3,678.9 542.5,676.4 551.7,673.6 561.0,670.7 570.3,667.6 579.5,664.2 588.7,660.7 597.9,656.9 607.0,652.8 615.9,648.5 624.7,643.9 633.3,638.9 641.6,633.7 649.7,628.1 657.5,622.2 664.9,615.9 671.9,609.3 678.5,602.2 684.5,594.7 690.0,586.8 694.9,578.4 699.1,569.5 702.6,560.2 705.3,550.4 707.2,540.1 708.3,529.3 708.4,518.1 707.5,506.3 705.7,494.1 702.8,481.5 698.9,468.4 694.0,454.9 687.9,441.1 680.9,427.0 672.8,412.6 663.7,398.1 653.6,383.4 642.7,368.7 630.9,354.0 618.3,339.4 605.0,325.0 591.2,310.9 576.8,297.2 562.0,283.9 546.9,271.1 531.6,258.9 516.2,247.4 500.7,236.7 485.3,226.7 470.1,217.5 455.0,209.2 440.3,201.8 425.9,195.2 411.9,189.6 398.3,184.9 385.2,181.0 372.5,178.0 360.4,175.9 348.8,174.6 337.7,174.2 327.2,174.4 317.2,175.4 307.7,177.1 298.7,179.4 290.2,182.3 282.1,185.8 274.6,189.8 267.4,194.2 260.7,199.1 254.4,204.4 248.5,210.0 242.9,216.0 237.6,222.3 232.7,228.8 228.1,235.5 223.8,242.4 219.7,249.6 216.0,256.8 212.4,264.2 209.1,271.7 205.9,279.2 203.0,286.8 200.3,294.5 197.7,302.2 195.3,309.9 193.1,317.6 191.0,325.3 189.0,333.0 187.2,340.7 185.5,348.3 183.9,355.9 182.4,363.4 181.0,370.8 179.7,378.2 178.5,385.5 177.3,392.8 176.3,399.9 175.3,407.0 174.4,414.0 173.6,420.9 172.8,427.7 172.1,434.4 171.5,441.0 170.9,447.5 170.4,453.9 169.9,460.2 169.4,466.4 169.1,472.4 168.7,478.4 168.4,484.3 168.2,490.1 168.0,495.8 167.8,501.4 167.7,506.9 167.6,512.2 167.5,517.5 167.5,522.7 167.5,527.8 167.6,532.7 167.7,537.6 167.8,542.4 168.0,547.1 168.1,551.7 168.4,556.2 168.6,560.6 168.9,564.9 169.2,569.2 169.6,573.3 170.0,577.4 170.4,581.3 170.9,585.2 171.3,589.0 171.9,592.7 172.4,596.4 173.0,599.9 173.6,603.4 174.3,606.8 175.0,610.1 175.7,613.4 176.4,616.6 177.2,619.7 178.1,622.7 178.9,625.7 179.8,628.5 180.8,631.4 181.8,634.1 182.8,636.8 183.9,639.4 185.0,642.0 186.1,644.5 187.3,646.9 188.6,649.3 189.9,651.6 191.2,653.9 192.6,656.1 194.0,658.2 195.5,660.3 197.0,662.3 198.6,664.3 200.3,666.2 201.9,668.1 203.7,669.9 205.5,671.7 207.4,673.4 209.3,675.1 211.3,676.7 213.4,678.3 215.5,679.8 217.7,681.3 220.0,682.7 222.4,684.1 224.8,685.4 227.3,686.7 229.8,687.9 232.5,689.1 235.2,690.3 238.1,691.4 241.0,692.5 244.0,693.5 247.0,694.4 250.2,695.4 253.5,696.3 256.9,697.1 260.4,697.9 263.9,698.7 267.6,699.4 271.4,700.1 275.3,700.7 279.3,701.3 283.5,701.8 287.7,702.3 292.1,702.8 296.6,703.2 301.2,703.6 306.0,703.9 310.9,704.1 315.9,704.4 321.0,704.5 326.3,704.7 331.7,704.7 337.3,704.7 343.0,704.7 348.9,704.6 354.9,704.5 361.1,704.3 367.4,704.0 373.9,703.7 380.5,703.3 387.3,702.8 394.2,702.3 401.3,701.7 408.5,701.0 416.0,700.2 423.5,699.4 431.2,698.4 439.1,697.4 447.1,696.3 455.2,695.1 463.5,693.8 472.0,692.3 480.5,690.8 489.2,689.1 498.0,687.3 506.9,685.4 515.9,683.3 525.0,681.1 534.1,678.7 543.3,676.1 552.6,673.4 561.8,670.4 571.1,667.3 580.4,663.9 589.6,660.3 598.7,656.5 607.8,652.4 616.7,648.1 625.5,643.4 634.0,638.5 642.4,633.2 650.4,627.6 658.2,621.7 665.5,615.4 672.5,608.6 679.0,601.5 685.0,594.0 690.5,586.0 695.3,577.6 699.5,568.7 702.9,559.4 705.5,549.5 707.4,539.2 708.3,528.3 708.3,517.0 707.4,505.3 705.5,493.0 702.5,480.3 698.5,467.2 693.5,453.7 687.3,439.8 680.2,425.7 672.0,411.3 662.8,396.7 652.7,382.1 641.6,367.3 629.8,352.6 617.1,338.1 603.8,323.7 589.9,309.6 575.5,295.9 560.7,282.7 545.6,270.0 530.2,257.9 514.8,246.4 499.3,235.7 484.0,225.8 468.7,216.7 453.7,208.5 439.0,201.1 424.6,194.7 410.6,189.1 397.1,184.5 384.0,180.7 371.4,177.8 359.3,175.8 347.8,174.6 336.8,174.1 326.3,174.5 316.3,175.5 306.8,177.3 297.9,179.6 289.4,182.6 281.4,186.1 273.9,190.1 266.8,194.6 260.1,199.6 253.8,204.9 247.9,210.6 242.4,216.6 237.2,222.8 232.3,229.4 227.7,236.1 223.4,243.1 219.4,250.2 215.6,257.5 212.1,264.9 208.8,272.3 205.7,279.9 202.8,287.5 200.0,295.2 197.5,302.9 195.1,310.6 192.9,318.3 190.8,326.0 188.8,333.7 187.0,341.4 185.3,349.0 183.7,356.6 182.2,364.1 180.8,371.5 179.6,378.9 178.4,386.2 177.2,393.4 176.2,400.6 175.2,407.6 174.3,414.6 173.5,421.5 172.8,428.3 172.1,435.0 171.4,441.5 170.8,448.0 170.3,454.4 169.8,460.7 169.4,466.9 169.0,473.0 168.7,479.0 168.4,484.8 168.2,490.6 168.0,496.3 167.8,501.9 167.7,507.3 167.6,512.7 167.5,518.0 167.5,523.2 167.5,528.2 167.6,533.2 167.7,538.1 167.8,542.8 168.0,547.5 168.2,552.1 168.4,556.6 168.7,561.0 168.9,565.3 169.3,569.5 169.6,573.7 170.0,577.7 170.4,581.7 170.9,585.6 171.4,589.4 171.9,593.1 172.5,596.7 173.0,600.2 173.7,603.7 174.3,607.1 175.0,610.4 175.7,613.7 176.5,616.8 177.3,619.9 178.1,623.0 179.0,625.9 179.9,628.8 180.9,631.6 181.9,634.4 182.9,637.0 184.0,639.7 185.1,642.2 186.2,644.7 187.4,647.1 188.7,649.5 190.0,651.8 191.3,654.1 192.7,656.3 194.1,658.4 195.6,660.5 197.2,662.5 198.8,664.5 200.4,666.4 202.1,668.3 203.9,670.1 205.7,671.9 207.6,673.6 209.5,675.2 211.5,676.8 213.6,678.4 215.7,679.9 217.9,681.4 220.2,682.8 222.6,684.2 225.0,685.5 227.5,686.8 230.1,688.0 232.7,689.2 235.5,690.4 238.3,691.5 241.2,692.5 244.2,693.6 247.3,694.5 250.5,695.5 253.8,696.4 257.2,697.2 260.7,698.0 264.3,698.8 268.0,699.5 271.8,700.1 275.7,700.8 279.7,701.3 283.9,701.9 288.1,702.4 292.5,702.8 297.0,703.2 301.6,703.6 306.4,703.9 311.3,704.2 316.3,704.4 321.5,704.5 326.8,704.7 332.2,704.7 337.8,704.7 343.6,704.7 349.4,704.6 355.5,704.4 361.6,704.2 368.0,704.0 374.5,703.6 381.1,703.2 387.9,702.7 394.8,702.2 401.9,701.6 409.2,700.9 416.6,700.1 424.2,699.3 431.9,698.3 439.8,697.3 447.8,696.2 456.0,695.0 464.3,693.6 472.7,692.2 481.3,690.6 490.0,689.0 498.8,687.2 507.7,685.2 516.7,683.1 525.8,680.9 534.9,678.5 544.1,675.9 553.4,673.1 562.7,670.2 571.9,667.0 581.2,663.6 590.4,660.0 599.5,656.2 608.6,652.1 617.5,647.7 626.2,643.0 634.8,638.0 643.1,632.7 651.1,627.1 658.8,621.1 666.2,614.8 673.1,608.0 679.6,600.9 685.5,593.3 690.9,585.3 695.7,576.8 699.8,567.9 703.2,558.5 705.7,548.6 707.5,538.2 708.4,527.4 708.3,516.0 707.3,504.2 705.2,491.9 702.2,479.1 698.1,466.0 693.0,452.5 686.7,438.6 679.5,424.4 671.2,410.0 661.9,395.4 651.7,380.7 640.6,366.0 628.7,351.3 616.0,336.8 602.6,322.4 588.6,308.4 574.2,294.7 559.3,281.5 544.2,268.9 528.9,256.8 513.4,245.5 498.0,234.8 482.6,225.0 467.4,216.0 452.4,207.8 437.7,200.5 423.3,194.1 409.4,188.7 395.9,184.1 382.8,180.4 370.3,177.6 358.3,175.6 346.8,174.5 335.8,174.1 325.4,174.5 315.4,175.7 306.0,177.5 297.1,179.9 288.7,182.9 280.7,186.4 273.2,190.5 266.2,195.1 259.5,200.0 253.3,205.4 247.4,211.1 241.9,217.1 236.7,223.4 231.9,230.0 227.3,236.7 223.1,243.7 219.1,250.8 215.3,258.1 211.8,265.5 208.5,273.0 205.4,280.6 202.5,288.2 199.8,295.9 197.3,303.6 194.9,311.3 192.7,319.0 190.6,326.7 188.7,334.4 186.9,342.1 185.2,349.7 183.6,357.2 182.1,364.7 180.7,372.2 179.4,379.5 178.2,386.8 177.1,394.1 176.1,401.2 175.1,408.3 174.3,415.2 173.4,422.1 172.7,428.9 172.0,435.5 171.4,442.1 170.8,448.6 170.3,455.0 169.8,461.3 169.4,467.5 169.0,473.5 168.7,479.5 168.4,485.4 168.1,491.1 167.9,496.8 167.8,502.4 167.7,507.8 167.6,513.2 167.5,518.4 167.5,523.6 167.5,528.7 167.6,533.6 167.7,538.5 167.8,543.3 168.0,547.9 168.2,552.5 168.4,557.0 168.7,561.4 169.0,565.7 169.3,569.9 169.7,574.0 170.1,578.1 170.5,582.0 170.9,585.9 171.4,589.7 172.0,593.4 172.5,597.0 173.1,600.6 173.7,604.0 174.4,607.4 175.1,610.7 175.8,614.0 176.6,617.1 177.4,620.2 178.2,623.2 179.1,626.2 180.0,629.1 181.0,631.9 182.0,634.6 183.0,637.3 184.1,639.9 185.2,642.5 186.3,644.9 187.5,647.4 188.8,649.7 190.1,652.0 191.4,654.3 192.8,656.5 194.3,658.6 195.8,660.7 197.3,662.7 198.9,664.7 200.6,666.6 202.3,668.4 204.0,670.3 205.9,672.0 207.7,673.7 209.7,675.4 211.7,677.0 213.8,678.5 215.9,680.1 218.1,681.5 220.4,682.9 222.8,684.3 225.2,685.6 227.7,686.9 230.3,688.1 233.0,689.3 235.7,690.5 238.6,691.6 241.5,692.6 244.5,693.7 247.6,694.6 250.8,695.5 254.1,696.4 257.5,697.3 261.0,698.1 264.6,698.8 268.3,699.5 272.1,700.2 276.0,700.8 280.1,701.4 284.2,701.9 288.5,702.4 292.9,702.9 297.4,703.3 302.1,703.6 306.8,703.9 311.7,704.2 316.8,704.4 322.0,704.6 327.3,704.7 332.7,704.7 338.3,704.7 344.1,704.7 350.0,704.6 356.0,704.4 362.2,704.2 368.5,703.9 375.0,703.6 381.7,703.2 388.5,702.7 395.5,702.2 402.6,701.5 409.9,700.8 417.3,700.1 424.9,699.2 432.6,698.3 440.5,697.2 448.5,696.1 456.7,694.9 465.0,693.5 473.5,692.1 482.1,690.5 490.8,688.8 499.6,687.0 508.5,685.0 517.5,682.9 526.6,680.7 535.8,678.2 545.0,675.6 554.2,672.9 563.5,669.9 572.8,666.7 582.0,663.3 591.2,659.7 600.3,655.8 609.4,651.7 618.3,647.3 627.0,642.6 635.5,637.6 643.8,632.3 651.8,626.6 659.5,620.6 666.8,614.2 673.7,607.4 680.1,600.2 686.1,592.6 691.4,584.5 696.1,576.0 700.1,567.1 703.4,557.6 705.9,547.7 707.6,537.3 708.4,526.4 708.2,515.0 707.1,503.1 705.0,490.8 701.9,478.0 697.7,464.8 692.4,451.2 686.1,437.3 678.8,423.1 670.4,408.7 661.1,394.1 650.8,379.4 639.6,364.7 627.6,350.0 614.8,335.5 601.4,321.2 587.4,307.2 572.9,293.5 558.0,280.4 542.8,267.8 527.5,255.8 512.0,244.5 496.6,233.9 481.2,224.1 466.0,215.2 451.0,207.1 436.4,199.9 422.1,193.6 408.2,188.2 394.7,183.7 381.7,180.1 369.2,177.4 357.2,175.5 345.8,174.4 334.9,174.2 324.4,174.6 314.6,175.8 305.2,177.6 296.3,180.1 288.0,183.2 280.1,186.8 272.6,190.9 265.6,195.5 259.0,200.5 252.8,205.9 246.9,211.6 241.4,217.7 236.3,224.0 231.5,230.6 226.9,237.4 222.7,244.3 218.7,251.5 215.0,258.8 211.5,266.2 208.2,273.7 205.1,281.3 202.3,288.9 199.6,296.6 197.1,304.3 194.7,312.0 192.5,319.7 190.4,327.4 188.5,335.1 186.7,342.7 185.0,350.4 183.4,357.9 182.0,365.4 180.6,372.8 179.3,380.2 178.1,387.5 177.0,394.7 176.0,401.8 175.1,408.9 174.2,415.8 173.4,422.7 172.6,429.5 171.9,436.1 171.3,442.7 170.7,449.2 170.2,455.6 169.7,461.8 169.3,468.0 169.0,474.1 168.6,480.0 168.4,485.9 168.1,491.7 167.9,497.3 167.8,502.9 167.6,508.3 167.6,513.7 167.5,518.9 167.5,524.1 167.5,529.1 167.6,534.1 167.7,538.9 167.8,543.7 168.0,548.4 168.2,552.9 168.4,557.4 168.7,561.8 169.0,566.1 169.3,570.3 169.7,574.4 170.1,578.4 170.5,582.4 171.0,586.3 171.5,590.0 172.0,593.7 172.6,597.3 173.2,600.9 173.8,604.3 174.4,607.7 175.1,611.0 175.9,614.2 176.6,617.4 177.5,620.5 178.3,623.5 179.2,626.4 180.1,629.3 181.0,632.1 182.0,634.9 183.1,637.5 184.2,640.1 185.3,642.7 186.4,645.2 187.7,647.6 188.9,649.9 190.2,652.2 191.6,654.5 193.0,656.7 194.4,658.8 195.9,660.9 197.4,662.9 199.0,664.8 200.7,666.8 202.4,668.6 204.2,670.4 206.0,672.2 207.9,673.9 209.9,675.5 211.9,677.1 214.0,678.7 216.1,680.2 218.3,681.6 220.6,683.1 223.0,684.4 225.4,685.7 228.0,687.0 230.5,688.3 233.2,689.4 236.0,690.6 238.8,691.7 241.8,692.7 244.8,693.7 247.9,694.7 251.1,695.6 254.4,696.5 257.8,697.3 261.3,698.1 264.9,698.9 268.6,699.6 272.5,700.3 276.4,700.9 280.4,701.4 284.6,702.0 288.9,702.5 293.3,702.9 297.8,703.3 302.5,703.7 307.3,704.0 312.2,704.2 317.2,704.4 322.4,704.6 327.8,704.7 333.2,704.7 338.8,704.7 344.6,704.7 350.5,704.6 356.6,704.4 362.8,704.2 369.1,703.9 375.6,703.6 382.3,703.1 389.1,702.7 396.1,702.1 403.2,701.5 410.5,700.8 418.0,700.0 425.6,699.1 433.3,698.2 441.2,697.1 449.3,696.0 457.5,694.7 465.8,693.4 474.2,691.9 482.8,690.4 491.5,688.6 500.4,686.8 509.3,684.8 518.3,682.7 527.4,680.4 536.6,678.0 545.8,675.4 555.1,672.6 564.3,669.6 573.6,666.4 582.8,663.0 592.0,659.3 601.2,655.4 610.2,651.3 619.1,646.9 627.8,642.1 636.3,637.1 644.6,631.8 652.5,626.1 660.2,620.0 667.5,613.6 674.3,606.8 680.7,599.5 686.6,591.9 691.8,583.8 696.5,575.3 700.5,566.2 703.7,556.7 706.1,546.8 707.7,536.3 708.4,525.4 708.2,513.9 707.0,502.0 704.8,489.6 701.5,476.8 697.3,463.6 691.9,450.0 685.5,436.1 678.1,421.8 669.6,407.4 660.2,392.8 649.8,378.1 638.5,363.4 626.4,348.7 613.6,334.2 600.1,319.9 586.1,305.9 571.5,292.3 556.6,279.2 541.5,266.7 526.1,254.7 510.6,243.5 495.2,233.0 479.8,223.3 464.7,214.4 449.7,206.4 435.1,199.3 420.8,193.1 406.9,187.8 393.5,183.4 380.6,179.8 368.1,177.2 356.2,175.4 344.8,174.4 333.9,174.2 323.5,174.7 313.7,175.9 304.4,177.8 295.6,180.4 287.2,183.5 279.4,187.1 271.9,191.3 265.0,195.9 258.4,201.0 252.2,206.4 246.4,212.1 241.0,218.2 235.8,224.6 231.0,231.2 226.5,238.0 222.3,245.0 218.4,252.1 214.7,259.4 211.2,266.9 207.9,274.4 204.9,282.0 202.0,289.6 199.3,297.3 196.8,305.0 194.5,312.7 192.3,320.4 190.3,328.1 188.3,335.8 186.6,343.4 184.9,351.0 183.3,358.6 181.9,366.1 180.5,373.5 179.2,380.9 178.0,388.1 176.9,395.4 175.9,402.5 175.0,409.5 174.1,416.5 173.3,423.3 172.6,430.1 171.9,436.7 171.3,443.3 170.7,449.8 170.2,456.1 169.7,462.4 169.3,468.5 168.9,474.6 168.6,480.6 168.3,486.4 168.1,492.2 167.9,497.8 167.7,503.4 167.6,508.8 167.6,514.1 167.5,519.4 167.5,524.5 167.5,529.6 167.6,534.5 167.7,539.4 167.9,544.1" fill="none" stroke="#4ade80" stroke-width="2.6" stroke-opacity="0.72" stroke-linejoin="round" stroke-linecap="round"/>
<polyline points="434.8,621.0 439.2,619.1 443.5,617.0 447.9,614.9 452.2,612.6 456.4,610.2 460.5,607.7 464.6,605.1 468.6,602.3 472.5,599.5 476.3,596.5 480.0,593.3 483.6,590.0 487.0,586.6 490.3,583.1 493.4,579.4 496.3,575.6 499.1,571.6 501.6,567.5 503.9,563.3 506.0,558.9 507.9,554.3 509.6,549.7 510.9,544.9 512.1,539.9 512.9,534.9 513.4,529.7 513.7,524.4 513.7,519.0 513.3,513.5 512.7,507.9 511.7,502.1 510.4,496.4 508.8,490.5 506.9,484.6 504.7,478.7 502.1,472.7 499.3,466.7 496.1,460.7 492.7,454.7 489.0,448.7 485.0,442.8 480.7,437.0 476.2,431.2 471.5,425.5 466.6,420.0 461.4,414.6 456.1,409.3 450.6,404.2 445.0,399.2 439.3,394.5 433.4,389.9 427.5,385.6 421.5,381.5 415.4,377.7 409.3,374.1 403.2,370.8 397.1,367.7 391.0,364.9 385.0,362.4 379.0,360.2 373.0,358.2 367.1,356.5 361.3,355.2 355.6,354.1 350.0,353.2 344.6,352.7 339.2,352.4 333.9,352.4 328.8,352.6 323.8,353.1 319.0,353.9 314.3,354.8 309.7,356.0 305.3,357.5 301.0,359.1 296.8,360.9 292.8,362.9 288.9,365.1 285.2,367.5 281.6,370.1 278.2,372.7 274.9,375.6 271.7,378.5 268.6,381.6 265.7,384.8 262.9,388.1 260.2,391.5 257.6,395.0 255.2,398.6 252.8,402.3 250.6,406.0 248.5,409.8 246.4,413.6 244.5,417.5 242.7,421.4 241.0,425.3 239.3,429.3 237.8,433.3 236.3,437.3 234.9,441.3 233.6,445.3 232.4,449.4 231.3,453.4 230.2,457.4 229.2,461.4 228.3,465.4 227.4,469.4 226.6,473.4 225.9,477.3 225.3,481.2 224.7,485.1 224.1,489.0 223.7,492.8 223.3,496.6 222.9,500.3 222.6,504.0 222.4,507.7 222.2,511.3 222.0,514.9 222.0,518.5 221.9,522.0 221.9,525.5 222.0,528.9 222.1,532.2 222.3,535.6 222.5,538.8 222.8,542.0 223.1,545.2 223.5,548.3 223.9,551.4 224.3,554.4 224.8,557.4 225.4,560.3 226.0,563.2 226.6,566.0 227.3,568.8 228.1,571.5 228.8,574.1 229.7,576.7 230.6,579.3 231.5,581.8 232.5,584.2 233.5,586.6 234.6,589.0 235.7,591.3 236.8,593.5 238.1,595.7 239.3,597.8 240.6,599.9 242.0,602.0 243.4,603.9 244.9,605.9 246.4,607.7 248.0,609.6 249.6,611.4 251.3,613.1 253.0,614.8 254.8,616.4 256.7,618.0 258.6,619.5 260.5,621.0 262.5,622.4 264.6,623.8 266.7,625.1 268.9,626.3 271.2,627.6 273.5,628.7 275.8,629.9 278.2,630.9 280.7,631.9 283.3,632.9 285.9,633.8 288.6,634.7 291.3,635.5 294.1,636.3 297.0,637.0 299.9,637.6 302.9,638.2 305.9,638.8 309.1,639.3 312.2,639.7 315.5,640.1 318.8,640.4 322.2,640.7 325.6,640.9 329.1,641.0 332.7,641.1 336.3,641.1 340.0,641.1 343.8,641.0 347.6,640.9 351.4,640.6 355.4,640.3 359.3,640.0 363.4,639.6 367.5,639.1 371.6,638.5 375.8,637.8 380.0,637.1 384.3,636.3 388.6,635.5 392.9,634.5 397.3,633.5 401.6,632.3 406.1,631.1 410.5,629.8 414.9,628.4 419.4,627.0 423.8,625.4 428.3,623.7 432.7,621.9 437.1,620.0 441.5,618.0 445.8,615.9 450.1,613.7 454.4,611.4 458.6,608.9 462.7,606.4 466.8,603.7 470.7,600.8 474.6,597.9 478.3,594.8 481.9,591.6 485.4,588.3 488.8,584.8 491.9,581.2 495.0,577.4 497.8,573.5 500.4,569.5 502.9,565.3 505.1,561.0 507.1,556.5 508.8,551.9 510.3,547.2 511.6,542.3 512.5,537.3 513.2,532.2 513.6,526.9 513.7,521.6 513.5,516.1 513.0,510.5 512.2,504.8 511.1,499.1 509.6,493.3 507.8,487.4 505.7,481.5 503.3,475.5 500.6,469.5 497.6,463.5 494.3,457.5 490.7,451.5 486.9,445.6 482.7,439.7 478.4,433.9 473.7,428.2 468.9,422.6 463.9,417.1 458.6,411.8 453.2,406.6 447.7,401.5 442.0,396.7 436.2,392.1 430.3,387.6 424.3,383.4 418.3,379.5 412.2,375.8 406.1,372.3 400.0,369.1 393.9,366.2 387.8,363.5 381.8,361.2 375.8,359.1 369.9,357.3 364.1,355.8 358.3,354.5 352.7,353.6 347.1,352.9 341.7,352.5 336.4,352.4 331.2,352.5 326.2,352.9 321.3,353.5 316.5,354.3 311.8,355.4 307.3,356.8 303.0,358.3 298.8,360.0 294.7,362.0 290.8,364.1 287.0,366.4 283.3,368.8 279.8,371.5 276.4,374.2 273.2,377.1 270.0,380.2 267.1,383.3 264.2,386.6 261.4,389.9 258.8,393.4 256.3,396.9 253.9,400.5 251.6,404.2 249.5,408.0 247.4,411.8 245.4,415.6 243.5,419.5 241.8,423.5 240.1,427.4 238.5,431.4 237.0,435.4 235.6,439.4 234.2,443.4 233.0,447.5 231.8,451.5 230.7,455.5 229.7,459.5 228.7,463.5 227.8,467.5 227.0,471.5 226.3,475.4 225.6,479.4 224.9,483.3 224.4,487.1 223.9,491.0 223.4,494.8 223.1,498.6 222.7,502.3 222.5,506.0 222.3,509.6 222.1,513.3 222.0,516.8 221.9,520.4 221.9,523.8 222.0,527.3 222.1,530.7 222.2,534.0 222.4,537.3 222.7,540.5 222.9,543.7 223.3,546.9 223.7,550.0 224.1,553.0 224.6,556.0 225.1,559.0 225.7,561.8 226.3,564.7 227.0,567.5 227.7,570.2 228.5,572.9 229.3,575.5 230.1,578.1 231.0,580.6 232.0,583.1 233.0,585.5 234.0,587.9 235.1,590.2 236.3,592.5 237.5,594.7 238.7,596.8 240.0,598.9 241.4,601.0 242.8,603.0 244.2,605.0 245.7,606.9 247.2,608.7 248.8,610.5 250.5,612.3 252.2,614.0 254.0,615.6 255.8,617.2 257.7,618.8 259.6,620.3 261.6,621.7 263.6,623.1 265.7,624.5 267.9,625.8 270.1,627.0 272.4,628.2 274.7,629.3 277.1,630.4 279.6,631.5 282.1,632.5 284.7,633.4 287.3,634.3 290.0,635.1 292.8,635.9 295.6,636.6 298.5,637.3 301.5,637.9 304.5,638.5 307.6,639.0 310.7,639.5 313.9,639.9 317.2,640.3 320.6,640.5 324.0,640.8 327.5,641.0 331.0,641.1 334.6,641.1 338.3,641.1 342.0,641.1 345.8,640.9 349.6,640.7 353.5,640.5 357.5,640.2 361.5,639.8 365.5,639.3 369.6,638.8 373.8,638.2 378.0,637.5 382.2,636.7 386.5,635.9 390.8,635.0 395.2,634.0 399.6,632.9 404.0,631.7 408.4,630.5 412.8,629.1 417.3,627.7 421.7,626.1 426.2,624.5 430.6,622.8 435.0,620.9 439.4,619.0 443.8,616.9 448.1,614.8 452.4,612.5 456.6,610.1 460.8,607.6 464.9,604.9 468.9,602.2 472.8,599.3 476.6,596.3 480.2,593.1 483.8,589.8 487.2,586.4 490.5,582.9 493.6,579.2 496.5,575.3 499.2,571.4 501.7,567.3 504.1,563.0 506.2,558.6 508.0,554.1 509.6,549.4 511.0,544.6 512.1,539.7 512.9,534.6 513.5,529.4 513.7,524.1 513.6,518.7 513.3,513.1 512.6,507.5 511.6,501.8 510.3,496.0 508.7,490.2 506.8,484.3 504.5,478.3 502.0,472.3 499.1,466.3 495.9,460.3 492.5,454.4 488.7,448.4 484.7,442.5 480.5,436.6 475.9,430.9 471.2,425.2 466.3,419.7 461.1,414.3 455.8,409.0 450.3,403.9 444.7,399.0 438.9,394.2 433.1,389.7 427.1,385.4 421.1,381.3 415.0,377.5 409.0,373.9 402.8,370.6 396.7,367.5 390.7,364.8 384.6,362.3 378.6,360.0 372.7,358.1 366.8,356.5 361.0,355.1 355.3,354.0 349.7,353.2 344.2,352.7 338.9,352.4 333.6,352.4 328.5,352.6 323.5,353.2 318.7,353.9 314.0,354.9 309.4,356.1 305.0,357.5 300.7,359.2 296.6,361.0 292.6,363.1 288.7,365.3 285.0,367.7 281.4,370.2 278.0,372.9 274.7,375.7 271.5,378.7 268.4,381.8 265.5,385.0 262.7,388.3 260.0,391.7 257.5,395.2 255.0,398.8 252.7,402.5 250.5,406.2 248.3,410.0 246.3,413.8 244.4,417.7 242.6,421.6 240.9,425.5 239.2,429.5 237.7,433.5 236.2,437.5 234.8,441.5 233.6,445.6 232.3,449.6 231.2,453.6 230.1,457.6 229.2,461.7 228.2,465.6 227.4,469.6 226.6,473.6 225.9,477.5 225.2,481.4 224.6,485.3 224.1,489.2 223.6,493.0 223.2,496.8 222.9,500.5 222.6,504.2 222.3,507.9 222.2,511.6 222.0,515.1 221.9,518.7 221.9,522.2 221.9,525.7 222.0,529.1 222.1,532.4 222.3,535.7 222.5,539.0 222.8,542.2 223.1,545.4 223.5,548.5 223.9,551.6 224.4,554.6 224.9,557.6 225.4,560.5 226.0,563.3 226.7,566.2 227.4,568.9 228.1,571.6 228.9,574.3 229.7,576.9 230.6,579.4 231.5,581.9 232.5,584.4 233.5,586.8 234.6,589.1 235.7,591.4 236.9,593.6 238.1,595.8 239.4,598.0 240.7,600.0 242.1,602.1 243.5,604.0 245.0,606.0 246.5,607.9 248.1,609.7 249.7,611.5 251.4,613.2 253.1,614.9 254.9,616.5 256.8,618.0 258.7,619.6 260.6,621.0 262.6,622.5 264.7,623.8 266.8,625.2 269.0,626.4 271.3,627.6 273.6,628.8 276.0,629.9 278.4,631.0 280.9,632.0 283.4,633.0 286.0,633.9 288.7,634.7 291.5,635.5 294.3,636.3 297.1,637.0 300.1,637.7 303.1,638.3 306.1,638.8 309.2,639.3 312.4,639.7 315.7,640.1 319.0,640.4 322.4,640.7 325.8,640.9 329.3,641.0 332.9,641.1 336.5,641.1 340.2,641.1 344.0,641.0 347.8,640.8 351.7,640.6 355.6,640.3 359.6,640.0 363.6,639.5 367.7,639.0 371.8,638.5 376.0,637.8 380.2,637.1 384.5,636.3 388.8,635.4 393.1,634.4 397.5,633.4 401.9,632.3 406.3,631.1 410.7,629.8 415.2,628.4 419.6,626.9 424.1,625.3 428.5,623.6 432.9,621.8 437.4,619.9 441.7,617.9 446.1,615.8 450.4,613.6 454.6,611.2 458.8,608.8 462.9,606.2 467.0,603.5 470.9,600.7 474.8,597.7 478.5,594.6 482.1,591.4 485.6,588.1 488.9,584.6 492.1,580.9 495.1,577.2 497.9,573.3 500.6,569.2 503.0,565.0 505.2,560.7 507.2,556.2 508.9,551.6 510.4,546.9 511.6,542.0 512.6,537.0 513.2,531.9 513.6,526.6 513.7,521.2 513.5,515.8 513.0,510.2 512.1,504.5 511.0,498.8 509.5,492.9 507.7,487.1 505.6,481.1 503.2,475.2 500.5,469.2 497.5,463.2 494.1,457.2 490.5,451.2 486.6,445.3 482.5,439.4 478.1,433.6 473.5,427.9 468.6,422.3 463.6,416.8 458.3,411.4 452.9,406.3 447.3,401.3 441.6,396.4 435.8,391.8 429.9,387.4 423.9,383.2 417.9,379.3 411.8,375.6 405.7,372.1 399.6,368.9 393.5,366.0 387.5,363.4 381.4,361.1 375.5,359.0 369.6,357.2 363.7,355.7 358.0,354.5 352.3,353.5 346.8,352.9 341.4,352.5 336.1,352.4 330.9,352.5 325.9,352.9 321.0,353.5 316.2,354.4 311.6,355.5 307.1,356.8 302.7,358.4 298.5,360.1 294.5,362.1 290.5,364.2 286.7,366.5 283.1,369.0 279.6,371.6 276.2,374.4 273.0,377.3 269.9,380.3 266.9,383.5 264.0,386.8 261.3,390.1 258.7,393.6 256.2,397.1 253.8,400.8 251.5,404.4 249.3,408.2 247.3,412.0 245.3,415.9 243.4,419.8 241.7,423.7 240.0,427.6 238.4,431.6 236.9,435.6 235.5,439.6 234.2,443.7 232.9,447.7 231.7,451.7 230.6,455.8 229.6,459.8 228.7,463.8 227.8,467.8 227.0,471.7 226.2,475.7 225.5,479.6 224.9,483.5 224.4,487.4 223.9,491.2 223.4,495.0 223.0,498.8 222.7,502.5 222.5,506.2 222.2,509.8 222.1,513.5 222.0,517.0 221.9,520.6 221.9,524.0 222.0,527.5 222.1,530.9 222.2,534.2 222.4,537.5 222.7,540.7 223.0,543.9 223.3,547.1 223.7,550.2 224.1,553.2 224.6,556.2 225.1,559.1 225.7,562.0 226.4,564.8 227.0,567.6 227.7,570.4 228.5,573.0 229.3,575.7 230.2,578.2 231.1,580.8 232.0,583.2 233.1,585.6 234.1,588.0 235.2,590.3 236.4,592.6 237.5,594.8 238.8,597.0 240.1,599.1 241.4,601.1 242.8,603.1 244.3,605.1 245.8,607.0 247.3,608.8 248.9,610.6 250.6,612.4 252.3,614.1 254.1,615.7 255.9,617.3 257.8,618.9 259.7,620.4 261.7,621.8 263.7,623.2 265.8,624.5 268.0,625.8 270.2,627.1 272.5,628.3 274.8,629.4 277.2,630.5 279.7,631.5 282.2,632.5 284.8,633.5 287.4,634.3 290.2,635.2 292.9,636.0 295.8,636.7 298.7,637.4 301.6,638.0 304.7,638.5 307.8,639.1 310.9,639.5 314.1,639.9 317.4,640.3 320.8,640.6 324.2,640.8 327.7,641.0 331.2,641.1 334.8,641.1 338.5,641.1 342.2,641.1 346.0,640.9 349.8,640.7 353.7,640.5 357.7,640.1 361.7,639.7 365.8,639.3 369.9,638.7 374.0,638.1 378.2,637.4 382.5,636.7 386.8,635.8 391.1,634.9 395.4,633.9 399.8,632.8 404.2,631.6 408.7,630.4 413.1,629.0 417.5,627.6 422.0,626.0 426.4,624.4 430.9,622.7 435.3,620.8 439.7,618.9 444.0,616.8 448.4,614.6 452.6,612.4 456.9,609.9 461.0,607.4 465.1,604.8 469.1,602.0 473.0,599.1 476.8,596.1 480.4,592.9 484.0,589.7 487.4,586.2 490.6,582.7 493.7,579.0 496.6,575.1 499.4,571.1 501.9,567.0 504.2,562.8 506.3,558.4 508.1,553.8 509.7,549.1 511.1,544.3 512.2,539.4 513.0,534.3 513.5,529.1 513.7,523.8 513.6,518.4 513.3,512.8 512.6,507.2 511.6,501.5 510.2,495.7 508.6,489.8 506.6,483.9 504.4,478.0 501.8,472.0 498.9,466.0 495.7,460.0 492.3,454.0 488.5,448.1 484.5,442.2 480.2,436.3 475.7,430.6 470.9,424.9 466.0,419.4 460.8,413.9 455.5,408.7 450.0,403.6 444.3,398.7 438.6,394.0 432.7,389.4 426.8,385.1 420.8,381.1 414.7,377.3 408.6,373.7 402.5,370.4 396.4,367.4 390.3,364.6 384.3,362.1 378.3,359.9 372.3,358.0 366.5,356.4 360.7,355.0 355.0,353.9 349.4,353.1 343.9,352.6 338.6,352.4 333.3,352.4 328.2,352.7 323.3,353.2 318.4,354.0 313.7,355.0 309.2,356.2 304.8,357.6 300.5,359.3 296.4,361.1 292.4,363.2 288.5,365.4 284.8,367.8 281.2,370.4 277.8,373.1 274.5,375.9 271.3,378.9 268.3,382.0 265.4,385.2 262.6,388.5 259.9,391.9 257.3,395.5 254.9,399.0 252.6,402.7 250.3,406.4 248.2,410.2 246.2,414.0 244.3,417.9 242.5,421.8 240.8,425.8 239.1,429.8 237.6,433.7 236.1,437.8 234.8,441.8 233.5,445.8 232.3,449.8 231.1,453.9 230.1,457.9 229.1,461.9 228.2,465.9 227.3,469.9 226.6,473.8 225.8,477.8 225.2,481.7 224.6,485.5 224.1,489.4 223.6,493.2 223.2,497.0 222.9,500.8 222.6,504.5 222.3,508.1 222.2,511.8 222.0,515.4 221.9,518.9 221.9,522.4 221.9,525.9 222.0,529.3 222.1,532.6 222.3,535.9 222.5,539.2 222.8,542.4 223.1,545.6 223.5,548.7 223.9,551.8 224.4,554.8 224.9,557.7 225.4,560.7 226.1,563.5 226.7,566.3 227.4,569.1 228.1,571.8 228.9,574.4 229.8,577.0 230.7,579.6 231.6,582.1 232.6,584.5 233.6,586.9 234.7,589.2 235.8,591.5 237.0,593.8 238.2,595.9 239.5,598.1 240.8,600.2 242.2,602.2 243.6,604.2 245.1,606.1 246.6,608.0 248.2,609.8 249.8,611.6 251.5,613.3 253.2,614.9 255.0,616.6 256.9,618.1 258.8,619.7 260.7,621.1 262.8,622.5 264.8,623.9 267.0,625.2 269.2,626.5 271.4,627.7 273.7,628.9 276.1,630.0 278.5,631.1 281.0,632.1 283.6,633.0 286.2,633.9 288.9,634.8 291.6,635.6 294.4,636.3 297.3,637.0 300.2,637.7 303.2,638.3 306.3,638.8 309.4,639.3 312.6,639.7 315.9,640.1 319.2,640.4 322.6,640.7 326.0,640.9 329.5,641.0 333.1,641.1 336.7,641.1 340.4,641.1 344.2,641.0 348.0,640.8 351.9,640.6 355.8,640.3 359.8,639.9 363.8,639.5 367.9,639.0 372.1,638.4 376.2,637.8 380.5,637.0 384.7,636.2 389.1,635.4 393.4,634.4 397.8,633.3 402.2,632.2 406.6,631.0 411.0,629.7 415.4,628.3 419.9,626.8 424.3,625.2 428.8,623.5 433.2,621.7 437.6,619.8 442.0,617.8 446.3,615.7 450.6,613.4 454.9,611.1 459.1,608.6 463.2,606.0 467.2,603.3 471.2,600.5 475.0,597.5 478.7,594.4 482.3,591.2 485.8,587.9 489.1,584.4 492.3,580.7 495.3,577.0 498.1,573.0 500.7,569.0 503.1,564.8 505.3,560.4 507.3,556.0 509.0,551.4 510.5,546.6 511.7,541.7 512.6,536.7 513.3,531.6 513.6,526.3 513.7,520.9 513.5,515.4 512.9,509.9 512.1,504.2 510.9,498.4 509.4,492.6 507.6,486.7 505.5,480.8 503.1,474.8 500.3,468.8 497.3,462.8 493.9,456.8 490.3,450.9 486.4,444.9 482.2,439.1 477.8,433.3 473.2,427.6 468.3,422.0 463.3,416.5 458.0,411.1 452.6,406.0 447.0,401.0 441.3,396.2 435.5,391.5 429.6,387.1 423.6,383.0 417.6,379.0 411.5,375.4 405.4,371.9 399.3,368.8 393.2,365.9 387.1,363.3 381.1,360.9 375.1,358.9 369.2,357.1 363.4,355.6 357.7,354.4 352.0,353.5 346.5,352.8 341.1,352.5 335.8,352.4 330.6,352.5 325.6,352.9 320.7,353.6 315.9,354.5 311.3,355.6 306.8,356.9 302.5,358.5 298.3,360.2 294.2,362.2 290.3,364.3 286.5,366.7 282.9,369.1 279.4,371.8 276.0,374.5 272.8,377.5 269.7,380.5 266.7,383.7 263.9,386.9 261.1,390.3 258.5,393.8 256.0,397.3 253.6,401.0 251.4,404.7 249.2,408.4 247.2,412.2 245.2,416.1 243.3,420.0 241.6,423.9 239.9,427.9 238.3,431.9 236.8,435.9 235.4,439.9 234.1,443.9 232.8,447.9 231.7,452.0 230.6,456.0 229.6,460.0 228.6,464.0 227.7,468.0 226.9,472.0 226.2,475.9 225.5,479.8 224.9,483.7 224.3,487.6 223.8,491.4 223.4,495.2 223.0,499.0 222.7,502.7 222.4,506.4 222.2,510.1 222.1,513.7 222.0,517.2 221.9,520.8 221.9,524.2 222.0,527.7 222.1,531.0 222.2,534.4 222.4,537.7 222.7,540.9 223.0,544.1 223.3,547.2 223.7,550.3 224.2,553.4 224.6,556.4 225.2,559.3 225.8,562.2 226.4,565.0 227.1,567.8 227.8,570.5 228.6,573.2 229.4,575.8 230.2,578.4 231.1,580.9 232.1,583.4 233.1,585.8 234.2,588.1 235.3,590.5 236.4,592.7 237.6,594.9 238.9,597.1 240.2,599.2 241.5,601.2 242.9,603.2 244.4,605.2 245.9,607.1 247.4,608.9 249.0,610.7 250.7,612.5 252.4,614.2 254.2,615.8 256.0,617.4 257.9,618.9 259.8,620.4 261.8,621.9 263.9,623.3 266.0,624.6 268.1,625.9 270.3,627.1 272.6,628.3 275.0,629.5 277.4,630.6 279.8,631.6 282.4,632.6 285.0,633.5 287.6,634.4 290.3,635.2 293.1,636.0 295.9,636.7 298.8,637.4 301.8,638.0 304.8,638.6 307.9,639.1 311.1,639.5 314.3,639.9 317.6,640.3 321.0,640.6 324.4,640.8 327.9,641.0 331.4,641.1 335.0,641.1 338.7,641.1 342.4,641.1 346.2,640.9 350.1,640.7 354.0,640.5 357.9,640.1 361.9,639.7 366.0,639.2 370.1,638.7 374.3,638.1 378.5,637.4 382.7,636.6 387.0,635.8 391.3,634.9 395.7,633.8 400.1,632.8 404.5,631.6 408.9,630.3 413.3,628.9 417.8,627.5 422.2,625.9 426.7,624.3 431.1,622.6 435.5,620.7 439.9,618.7 444.3,616.7 448.6,614.5 452.9,612.2 457.1,609.8 461.3,607.3 465.3,604.6 469.3,601.9 473.2,599.0 477.0,595.9 480.7,592.8 484.2,589.5 487.6,586.0 490.8,582.5 493.9,578.7 496.8,574.9 499.5,570.9 502.0,566.8 504.3,562.5 506.4,558.1 508.2,553.5 509.8,548.9 511.2,544.0 512.2,539.1 513.0,534.0 513.5,528.8 513.7,523.5 513.6,518.0 513.2,512.5 512.5,506.9 511.5,501.2 510.2,495.4 508.5,489.5 506.5,483.6 504.2,477.6 501.6,471.6 498.7,465.6 495.5,459.6 492.0,453.7 488.3,447.7 484.2,441.8 479.9,436.0 475.4,430.2 470.6,424.6 465.7,419.0 460.5,413.6 455.2,408.4 449.7,403.3 444.0,398.4 438.2,393.7 432.4,389.2 426.4,384.9 420.4,380.9 414.3,377.1 408.2,373.5 402.1,370.2 396.0,367.2 390.0,364.5 383.9,362.0 377.9,359.8 372.0,357.9 366.1,356.3 360.3,354.9 354.7,353.9 349.1,353.1 343.6,352.6 338.3,352.4 333.0,352.4 327.9,352.7 323.0,353.2 318.2,354.0 313.5,355.0 308.9,356.3 304.5,357.7 300.2,359.4 296.1,361.3 292.1,363.3 288.3,365.5 284.6,367.9 281.0,370.5 277.6,373.2 274.3,376.1 271.1,379.1 268.1,382.2 265.2,385.4 262.4,388.7 259.7,392.1 257.2,395.7 254.8,399.2 252.4,402.9 250.2,406.6 248.1,410.4 246.1,414.3 244.2,418.1 242.4,422.1 240.7,426.0 239.0,430.0 237.5,434.0 236.1,438.0 234.7,442.0 233.4,446.0 232.2,450.1 231.1,454.1 230.0,458.1 229.0,462.1 228.1,466.1 227.3,470.1 226.5,474.0 225.8,478.0 225.2,481.9 224.6,485.8 224.1,489.6 223.6,493.4 223.2,497.2 222.8,501.0 222.6,504.7 222.3,508.3 222.1,512.0 222.0,515.6 221.9,519.1 221.9,522.6 221.9,526.1 222.0,529.5 222.2,532.8 222.3,536.1 222.6,539.4 222.8,542.6 223.2,545.8 223.5,548.9 223.9,551.9 224.4,555.0 224.9,557.9 225.5,560.8 226.1,563.7 226.7,566.5 227.4,569.2 228.2,571.9 229.0,574.6 229.8,577.2 230.7,579.7 231.6,582.2 232.6,584.7 233.7,587.0 234.7,589.4 235.9,591.7 237.0,593.9 238.3,596.1 239.5,598.2 240.9,600.3 242.3,602.3 243.7,604.3 245.2,606.2 246.7,608.1 248.3,609.9 249.9,611.7 251.6,613.4 253.3,615.0 255.1,616.7 257.0,618.2 258.9,619.7 260.9,621.2 262.9,622.6 265.0,624.0 267.1,625.3 269.3,626.6 271.5,627.8 273.9,628.9 276.2,630.1 278.7,631.1 281.2,632.1 283.7,633.1 286.3,634.0 289.0,634.8 291.8,635.6 294.6,636.4 297.5,637.1 300.4,637.7 303.4,638.3 306.5,638.9 309.6,639.3 312.8,639.8 316.1,640.1 319.4,640.4 322.8,640.7 326.2,640.9 329.7,641.0 333.3,641.1 336.9,641.1 340.6,641.1 344.4,641.0 348.2,640.8 352.1,640.6 356.0,640.3 360.0,639.9 364.1,639.5 368.2,639.0 372.3,638.4 376.5,637.7 380.7,637.0 385.0,636.2 389.3,635.3 393.6,634.3 398.0,633.3 402.4,632.1 406.8,630.9 411.3,629.6 415.7,628.2 420.1,626.7 424.6,625.1 429.0,623.4 433.5,621.6 437.9,619.7 442.2,617.7 446.6,615.5 450.9,613.3 455.1,611.0 459.3,608.5 463.4,605.9 467.4,603.2 471.4,600.3 475.2,597.4 478.9,594.3 482.5,591.0 486.0,587.7 489.3,584.2 492.5,580.5 495.5,576.7 498.3,572.8 500.9,568.7 503.3,564.5 505.4,560.2" fill="none" stroke="#4ade80" stroke-width="2.6" stroke-opacity="0.72" stroke-linejoin="round" stroke-linecap="round"/>
<circle cx="118.0" cy="788.0" r="6.0" fill="#f8fafc" opacity="1.0"/>
<circle cx="336.2" cy="522.4" r="6.0" fill="#f8fafc" opacity="1.0"/>
<text x="118.0" y="842.0" class="small" text-anchor="start">Generated from a standard-library Python gallery: vector field + nullclines + trajectories.</text>
</svg>
