<svg xmlns="http://www.w3.org/2000/svg" viewBox="0 0 1580 1620" width="1580" height="1620">
<defs>
  <linearGradient id="bg" x1="0" y1="0" x2="1" y2="1">
    <stop offset="0%" stop-color="#081018"/>
    <stop offset="100%" stop-color="#101d2a"/>
  </linearGradient>
</defs>
<rect width="100%" height="100%" fill="url(#bg)"/>
<text x="106" y="56" fill="#e6edf3" font-size="34" font-family="Helvetica, Arial, sans-serif" font-weight="700">Selkov parameter atlas</text>
<text x="106" y="86" fill="#9fb3c8" font-size="18" font-family="Helvetica, Arial, sans-serif">Exact local theory gives two Hopf curves when a &lt; 1/8, so the oscillatory regime is a finite band in parameter space rather than a one-sided half-plane.</text>
<rect x="106.00" y="126.00" width="1114.00" height="356.00" rx="20" fill="#122131" stroke="#5e7fa3" stroke-width="2"/>
<text x="124.00" y="156.00" fill="#dce7f3" font-size="20" font-family="Helvetica, Arial, sans-serif" font-weight="700">local side of the two exact Hopf curves</text>
<text x="124.00" y="180.00" fill="#9fb3c8" font-size="14" font-family="Helvetica, Arial, sans-serif">Blue cells are locally attracting. Red cells sit between the two gold Hopf boundaries, where the fixed point repels and the glycolytic oscillation appears.</text>
<rect x="106.00" y="463.26" width="101.67" height="19.14" fill="#3c1321" opacity="0.98"/>
<rect x="207.27" y="463.26" width="101.67" height="19.14" fill="#102d5a" opacity="0.98"/>
<rect x="308.55" y="463.26" width="101.67" height="19.14" fill="#15397b" opacity="0.98"/>
<rect x="409.82" y="463.26" width="101.67" height="19.14" fill="#1a459b" opacity="0.98"/>
<rect x="511.09" y="463.26" width="101.67" height="19.14" fill="#1e51bb" opacity="0.98"/>
<rect x="612.36" y="463.26" width="101.67" height="19.14" fill="#235ddb" opacity="0.98"/>
<rect x="713.64" y="463.26" width="101.67" height="19.14" fill="#2563eb" opacity="0.98"/>
<rect x="814.91" y="463.26" width="101.67" height="19.14" fill="#2563eb" opacity="0.98"/>
<rect x="916.18" y="463.26" width="101.67" height="19.14" fill="#2563eb" opacity="0.98"/>
<rect x="1017.45" y="463.26" width="101.67" height="19.14" fill="#2563eb" opacity="0.98"/>
<rect x="1118.73" y="463.26" width="101.67" height="19.14" fill="#2563eb" opacity="0.98"/>
<rect x="106.00" y="444.53" width="101.67" height="19.14" fill="#541e2d" opacity="0.98"/>
<rect x="207.27" y="444.53" width="101.67" height="19.14" fill="#431624" opacity="0.98"/>
<rect x="308.55" y="444.53" width="101.67" height="19.14" fill="#0e2749" opacity="0.98"/>
<rect x="409.82" y="444.53" width="101.67" height="19.14" fill="#123369" opacity="0.98"/>
<rect x="511.09" y="444.53" width="101.67" height="19.14" fill="#173e89" opacity="0.98"/>
<rect x="612.36" y="444.53" width="101.67" height="19.14" fill="#1b4aa9" opacity="0.98"/>
<rect x="713.64" y="444.53" width="101.67" height="19.14" fill="#2056c9" opacity="0.98"/>
<rect x="814.91" y="444.53" width="101.67" height="19.14" fill="#2563eb" opacity="0.98"/>
<rect x="916.18" y="444.53" width="101.67" height="19.14" fill="#2563eb" opacity="0.98"/>
<rect x="1017.45" y="444.53" width="101.67" height="19.14" fill="#2563eb" opacity="0.98"/>
<rect x="1118.73" y="444.53" width="101.67" height="19.14" fill="#2563eb" opacity="0.98"/>
<rect x="106.00" y="425.79" width="101.67" height="19.14" fill="#6b2a39" opacity="0.98"/>
<rect x="207.27" y="425.79" width="101.67" height="19.14" fill="#5c2231" opacity="0.98"/>
<rect x="308.55" y="425.79" width="101.67" height="19.14" fill="#4c1a29" opacity="0.98"/>
<rect x="409.82" y="425.79" width="101.67" height="19.14" fill="#0b2037" opacity="0.98"/>
<rect x="511.09" y="425.79" width="101.67" height="19.14" fill="#102c57" opacity="0.98"/>
<rect x="612.36" y="425.79" width="101.67" height="19.14" fill="#143877" opacity="0.98"/>
<rect x="713.64" y="425.79" width="101.67" height="19.14" fill="#194497" opacity="0.98"/>
<rect x="814.91" y="425.79" width="101.67" height="19.14" fill="#1e51ba" opacity="0.98"/>
<rect x="916.18" y="425.79" width="101.67" height="19.14" fill="#245fe1" opacity="0.98"/>
<rect x="1017.45" y="425.79" width="101.67" height="19.14" fill="#2563eb" opacity="0.98"/>
<rect x="1118.73" y="425.79" width="101.67" height="19.14" fill="#2563eb" opacity="0.98"/>
<rect x="106.00" y="407.05" width="101.67" height="19.14" fill="#823546" opacity="0.98"/>
<rect x="207.27" y="407.05" width="101.67" height="19.14" fill="#752f3e" opacity="0.98"/>
<rect x="308.55" y="407.05" width="101.67" height="19.14" fill="#672837" opacity="0.98"/>
<rect x="409.82" y="407.05" width="101.67" height="19.14" fill="#58202f" opacity="0.98"/>
<rect x="511.09" y="407.05" width="101.67" height="19.14" fill="#461826" opacity="0.98"/>
<rect x="612.36" y="407.05" width="101.67" height="19.14" fill="#0d2545" opacity="0.98"/>
<rect x="713.64" y="407.05" width="101.67" height="19.14" fill="#123165" opacity="0.98"/>
<rect x="814.91" y="407.05" width="101.67" height="19.14" fill="#173e88" opacity="0.98"/>
<rect x="916.18" y="407.05" width="101.67" height="19.14" fill="#1c4daf" opacity="0.98"/>
<rect x="1017.45" y="407.05" width="101.67" height="19.14" fill="#235edd" opacity="0.98"/>
<rect x="1118.73" y="407.05" width="101.67" height="19.14" fill="#2563eb" opacity="0.98"/>
<rect x="106.00" y="388.32" width="101.67" height="19.14" fill="#9a4152" opacity="0.98"/>
<rect x="207.27" y="388.32" width="101.67" height="19.14" fill="#8e3b4c" opacity="0.98"/>
<rect x="308.55" y="388.32" width="101.67" height="19.14" fill="#823545" opacity="0.98"/>
<rect x="409.82" y="388.32" width="101.67" height="19.14" fill="#752e3e" opacity="0.98"/>
<rect x="511.09" y="388.32" width="101.67" height="19.14" fill="#662736" opacity="0.98"/>
<rect x="612.36" y="388.32" width="101.67" height="19.14" fill="#541e2d" opacity="0.98"/>
<rect x="713.64" y="388.32" width="101.67" height="19.14" fill="#3e1321" opacity="0.98"/>
<rect x="814.91" y="388.32" width="101.67" height="19.14" fill="#102c56" opacity="0.98"/>
<rect x="916.18" y="388.32" width="101.67" height="19.14" fill="#153a7d" opacity="0.98"/>
<rect x="1017.45" y="388.32" width="101.67" height="19.14" fill="#1c4bab" opacity="0.98"/>
<rect x="1118.73" y="388.32" width="101.67" height="19.14" fill="#2563ea" opacity="0.98"/>
<rect x="106.00" y="369.58" width="101.67" height="19.14" fill="#b14c5e" opacity="0.98"/>
<rect x="207.27" y="369.58" width="101.67" height="19.14" fill="#a74759" opacity="0.98"/>
<rect x="308.55" y="369.58" width="101.67" height="19.14" fill="#9c4253" opacity="0.98"/>
<rect x="409.82" y="369.58" width="101.67" height="19.14" fill="#913d4d" opacity="0.98"/>
<rect x="511.09" y="369.58" width="101.67" height="19.14" fill="#853747" opacity="0.98"/>
<rect x="612.36" y="369.58" width="101.67" height="19.14" fill="#762f3f" opacity="0.98"/>
<rect x="713.64" y="369.58" width="101.67" height="19.14" fill="#642636" opacity="0.98"/>
<rect x="814.91" y="369.58" width="101.67" height="19.14" fill="#4b1a29" opacity="0.98"/>
<rect x="916.18" y="369.58" width="101.67" height="19.14" fill="#0e274b" opacity="0.98"/>
<rect x="1017.45" y="369.58" width="101.67" height="19.14" fill="#143879" opacity="0.98"/>
<rect x="1118.73" y="369.58" width="101.67" height="19.14" fill="#1e50b8" opacity="0.98"/>
<rect x="106.00" y="350.84" width="101.67" height="19.14" fill="#c8586a" opacity="0.98"/>
<rect x="207.27" y="350.84" width="101.67" height="19.14" fill="#c05466" opacity="0.98"/>
<rect x="308.55" y="350.84" width="101.67" height="19.14" fill="#b74f61" opacity="0.98"/>
<rect x="409.82" y="350.84" width="101.67" height="19.14" fill="#ae4b5d" opacity="0.98"/>
<rect x="511.09" y="350.84" width="101.67" height="19.14" fill="#a44657" opacity="0.98"/>
<rect x="612.36" y="350.84" width="101.67" height="19.14" fill="#994051" opacity="0.98"/>
<rect x="713.64" y="350.84" width="101.67" height="19.14" fill="#8a394a" opacity="0.98"/>
<rect x="814.91" y="350.84" width="101.67" height="19.14" fill="#773040" opacity="0.98"/>
<rect x="916.18" y="350.84" width="101.67" height="19.14" fill="#5a2130" opacity="0.98"/>
<rect x="1017.45" y="350.84" width="101.67" height="19.14" fill="#0d2647" opacity="0.98"/>
<rect x="1118.73" y="350.84" width="101.67" height="19.14" fill="#163d86" opacity="0.98"/>
<rect x="106.00" y="332.11" width="101.67" height="19.14" fill="#e06477" opacity="0.98"/>
<rect x="207.27" y="332.11" width="101.67" height="19.14" fill="#d96073" opacity="0.98"/>
<rect x="308.55" y="332.11" width="101.67" height="19.14" fill="#d25d6f" opacity="0.98"/>
<rect x="409.82" y="332.11" width="101.67" height="19.14" fill="#cb596c" opacity="0.98"/>
<rect x="511.09" y="332.11" width="101.67" height="19.14" fill="#c45668" opacity="0.98"/>
<rect x="612.36" y="332.11" width="101.67" height="19.14" fill="#bb5163" opacity="0.98"/>
<rect x="713.64" y="332.11" width="101.67" height="19.14" fill="#b04c5e" opacity="0.98"/>
<rect x="814.91" y="332.11" width="101.67" height="19.14" fill="#a34556" opacity="0.98"/>
<rect x="916.18" y="332.11" width="101.67" height="19.14" fill="#8e3b4c" opacity="0.98"/>
<rect x="1017.45" y="332.11" width="101.67" height="19.14" fill="#692938" opacity="0.98"/>
<rect x="1118.73" y="332.11" width="101.67" height="19.14" fill="#0f2b54" opacity="0.98"/>
<rect x="106.00" y="313.37" width="101.67" height="19.14" fill="#f76f83" opacity="0.98"/>
<rect x="207.27" y="313.37" width="101.67" height="19.14" fill="#f26c80" opacity="0.98"/>
<rect x="308.55" y="313.37" width="101.67" height="19.14" fill="#ed6a7e" opacity="0.98"/>
<rect x="409.82" y="313.37" width="101.67" height="19.14" fill="#e8687b" opacity="0.98"/>
<rect x="511.09" y="313.37" width="101.67" height="19.14" fill="#e36578" opacity="0.98"/>
<rect x="612.36" y="313.37" width="101.67" height="19.14" fill="#dd6275" opacity="0.98"/>
<rect x="713.64" y="313.37" width="101.67" height="19.14" fill="#d75f72" opacity="0.98"/>
<rect x="814.91" y="313.37" width="101.67" height="19.14" fill="#ce5b6d" opacity="0.98"/>
<rect x="916.18" y="313.37" width="101.67" height="19.14" fill="#c25567" opacity="0.98"/>
<rect x="1017.45" y="313.37" width="101.67" height="19.14" fill="#ad4a5c" opacity="0.98"/>
<rect x="1118.73" y="313.37" width="101.67" height="19.14" fill="#6c2a3a" opacity="0.98"/>
<rect x="106.00" y="294.63" width="101.67" height="19.14" fill="#e7677b" opacity="0.98"/>
<rect x="207.27" y="294.63" width="101.67" height="19.14" fill="#eb697d" opacity="0.98"/>
<rect x="308.55" y="294.63" width="101.67" height="19.14" fill="#ee6b7e" opacity="0.98"/>
<rect x="409.82" y="294.63" width="101.67" height="19.14" fill="#f16c80" opacity="0.98"/>
<rect x="511.09" y="294.63" width="101.67" height="19.14" fill="#f46d81" opacity="0.98"/>
<rect x="612.36" y="294.63" width="101.67" height="19.14" fill="#f66f83" opacity="0.98"/>
<rect x="713.64" y="294.63" width="101.67" height="19.14" fill="#f97084" opacity="0.98"/>
<rect x="814.91" y="294.63" width="101.67" height="19.14" fill="#fa7084" opacity="0.98"/>
<rect x="916.18" y="294.63" width="101.67" height="19.14" fill="#f66f82" opacity="0.98"/>
<rect x="1017.45" y="294.63" width="101.67" height="19.14" fill="#f06c7f" opacity="0.98"/>
<rect x="1118.73" y="294.63" width="101.67" height="19.14" fill="#e16477" opacity="0.98"/>
<rect x="106.00" y="275.89" width="101.67" height="19.14" fill="#d05c6e" opacity="0.98"/>
<rect x="207.27" y="275.89" width="101.67" height="19.14" fill="#d25d6f" opacity="0.98"/>
<rect x="308.55" y="275.89" width="101.67" height="19.14" fill="#d35d70" opacity="0.98"/>
<rect x="409.82" y="275.89" width="101.67" height="19.14" fill="#d45e71" opacity="0.98"/>
<rect x="511.09" y="275.89" width="101.67" height="19.14" fill="#d45e71" opacity="0.98"/>
<rect x="612.36" y="275.89" width="101.67" height="19.14" fill="#d45e70" opacity="0.98"/>
<rect x="713.64" y="275.89" width="101.67" height="19.14" fill="#d35d70" opacity="0.98"/>
<rect x="814.91" y="275.89" width="101.67" height="19.14" fill="#d15c6f" opacity="0.98"/>
<rect x="916.18" y="275.89" width="101.67" height="19.14" fill="#cc5a6c" opacity="0.98"/>
<rect x="1017.45" y="275.89" width="101.67" height="19.14" fill="#c25567" opacity="0.98"/>
<rect x="1118.73" y="275.89" width="101.67" height="19.14" fill="#9f4455" opacity="0.98"/>
<rect x="106.00" y="257.16" width="101.67" height="19.14" fill="#b95062" opacity="0.98"/>
<rect x="207.27" y="257.16" width="101.67" height="19.14" fill="#b95062" opacity="0.98"/>
<rect x="308.55" y="257.16" width="101.67" height="19.14" fill="#b95062" opacity="0.98"/>
<rect x="409.82" y="257.16" width="101.67" height="19.14" fill="#b74f61" opacity="0.98"/>
<rect x="511.09" y="257.16" width="101.67" height="19.14" fill="#b54e60" opacity="0.98"/>
<rect x="612.36" y="257.16" width="101.67" height="19.14" fill="#b24d5e" opacity="0.98"/>
<rect x="713.64" y="257.16" width="101.67" height="19.14" fill="#ad4a5c" opacity="0.98"/>
<rect x="814.91" y="257.16" width="101.67" height="19.14" fill="#a54658" opacity="0.98"/>
<rect x="916.18" y="257.16" width="101.67" height="19.14" fill="#984051" opacity="0.98"/>
<rect x="1017.45" y="257.16" width="101.67" height="19.14" fill="#7f3444" opacity="0.98"/>
<rect x="1118.73" y="257.16" width="101.67" height="19.14" fill="#0c233e" opacity="0.98"/>
<rect x="106.00" y="238.42" width="101.67" height="19.14" fill="#a14556" opacity="0.98"/>
<rect x="207.27" y="238.42" width="101.67" height="19.14" fill="#a04455" opacity="0.98"/>
<rect x="308.55" y="238.42" width="101.67" height="19.14" fill="#9e4354" opacity="0.98"/>
<rect x="409.82" y="238.42" width="101.67" height="19.14" fill="#9a4152" opacity="0.98"/>
<rect x="511.09" y="238.42" width="101.67" height="19.14" fill="#963f50" opacity="0.98"/>
<rect x="612.36" y="238.42" width="101.67" height="19.14" fill="#8f3c4c" opacity="0.98"/>
<rect x="713.64" y="238.42" width="101.67" height="19.14" fill="#863748" opacity="0.98"/>
<rect x="814.91" y="238.42" width="101.67" height="19.14" fill="#793141" opacity="0.98"/>
<rect x="916.18" y="238.42" width="101.67" height="19.14" fill="#642636" opacity="0.98"/>
<rect x="1017.45" y="238.42" width="101.67" height="19.14" fill="#3c1220" opacity="0.98"/>
<rect x="1118.73" y="238.42" width="101.67" height="19.14" fill="#133570" opacity="0.98"/>
<rect x="106.00" y="219.68" width="101.67" height="19.14" fill="#8a3949" opacity="0.98"/>
<rect x="207.27" y="219.68" width="101.67" height="19.14" fill="#873848" opacity="0.98"/>
<rect x="308.55" y="219.68" width="101.67" height="19.14" fill="#833646" opacity="0.98"/>
<rect x="409.82" y="219.68" width="101.67" height="19.14" fill="#7d3343" opacity="0.98"/>
<rect x="511.09" y="219.68" width="101.67" height="19.14" fill="#762f3f" opacity="0.98"/>
<rect x="612.36" y="219.68" width="101.67" height="19.14" fill="#6d2b3a" opacity="0.98"/>
<rect x="713.64" y="219.68" width="101.67" height="19.14" fill="#602434" opacity="0.98"/>
<rect x="814.91" y="219.68" width="101.67" height="19.14" fill="#4e1b2a" opacity="0.98"/>
<rect x="916.18" y="219.68" width="101.67" height="19.14" fill="#0c2441" opacity="0.98"/>
<rect x="1017.45" y="219.68" width="101.67" height="19.14" fill="#123269" opacity="0.98"/>
<rect x="1118.73" y="219.68" width="101.67" height="19.14" fill="#1a48a2" opacity="0.98"/>
<rect x="106.00" y="200.95" width="101.67" height="19.14" fill="#722d3d" opacity="0.98"/>
<rect x="207.27" y="200.95" width="101.67" height="19.14" fill="#6e2b3b" opacity="0.98"/>
<rect x="308.55" y="200.95" width="101.67" height="19.14" fill="#682838" opacity="0.98"/>
<rect x="409.82" y="200.95" width="101.67" height="19.14" fill="#612534" opacity="0.98"/>
<rect x="511.09" y="200.95" width="101.67" height="19.14" fill="#57202f" opacity="0.98"/>
<rect x="612.36" y="200.95" width="101.67" height="19.14" fill="#4b1a28" opacity="0.98"/>
<rect x="713.64" y="200.95" width="101.67" height="19.14" fill="#0b2138" opacity="0.98"/>
<rect x="814.91" y="200.95" width="101.67" height="19.14" fill="#0f2b54" opacity="0.98"/>
<rect x="916.18" y="200.95" width="101.67" height="19.14" fill="#143673" opacity="0.98"/>
<rect x="1017.45" y="200.95" width="101.67" height="19.14" fill="#19459b" opacity="0.98"/>
<rect x="1118.73" y="200.95" width="101.67" height="19.14" fill="#225bd4" opacity="0.98"/>
<rect x="106.00" y="182.21" width="101.67" height="19.14" fill="#5b2231" opacity="0.98"/>
<rect x="207.27" y="182.21" width="101.67" height="19.14" fill="#551f2e" opacity="0.98"/>
<rect x="308.55" y="182.21" width="101.67" height="19.14" fill="#4d1b2a" opacity="0.98"/>
<rect x="409.82" y="182.21" width="101.67" height="19.14" fill="#441625" opacity="0.98"/>
<rect x="511.09" y="182.21" width="101.67" height="19.14" fill="#0c223c" opacity="0.98"/>
<rect x="612.36" y="182.21" width="101.67" height="19.14" fill="#0f2a52" opacity="0.98"/>
<rect x="713.64" y="182.21" width="101.67" height="19.14" fill="#12336a" opacity="0.98"/>
<rect x="814.91" y="182.21" width="101.67" height="19.14" fill="#163d86" opacity="0.98"/>
<rect x="916.18" y="182.21" width="101.67" height="19.14" fill="#1b49a5" opacity="0.98"/>
<rect x="1017.45" y="182.21" width="101.67" height="19.14" fill="#2158cd" opacity="0.98"/>
<rect x="1118.73" y="182.21" width="101.67" height="19.14" fill="#2563eb" opacity="0.98"/>
<rect x="106.00" y="163.47" width="101.67" height="19.14" fill="#441625" opacity="0.98"/>
<rect x="207.27" y="163.47" width="101.67" height="19.14" fill="#3c1220" opacity="0.98"/>
<rect x="308.55" y="163.47" width="101.67" height="19.14" fill="#0d2647" opacity="0.98"/>
<rect x="409.82" y="163.47" width="101.67" height="19.14" fill="#102d5a" opacity="0.98"/>
<rect x="511.09" y="163.47" width="101.67" height="19.14" fill="#13356e" opacity="0.98"/>
<rect x="612.36" y="163.47" width="101.67" height="19.14" fill="#163d84" opacity="0.98"/>
<rect x="713.64" y="163.47" width="101.67" height="19.14" fill="#1a469c" opacity="0.98"/>
<rect x="814.91" y="163.47" width="101.67" height="19.14" fill="#1e50b8" opacity="0.98"/>
<rect x="916.18" y="163.47" width="101.67" height="19.14" fill="#225cd7" opacity="0.98"/>
<rect x="1017.45" y="163.47" width="101.67" height="19.14" fill="#2563eb" opacity="0.98"/>
<rect x="1118.73" y="163.47" width="101.67" height="19.14" fill="#2563eb" opacity="0.98"/>
<rect x="106.00" y="144.74" width="101.67" height="19.14" fill="#102c56" opacity="0.98"/>
<rect x="207.27" y="144.74" width="101.67" height="19.14" fill="#123267" opacity="0.98"/>
<rect x="308.55" y="144.74" width="101.67" height="19.14" fill="#153979" opacity="0.98"/>
<rect x="409.82" y="144.74" width="101.67" height="19.14" fill="#17408c" opacity="0.98"/>
<rect x="511.09" y="144.74" width="101.67" height="19.14" fill="#1a47a0" opacity="0.98"/>
<rect x="612.36" y="144.74" width="101.67" height="19.14" fill="#1d4fb6" opacity="0.98"/>
<rect x="713.64" y="144.74" width="101.67" height="19.14" fill="#2158ce" opacity="0.98"/>
<rect x="814.91" y="144.74" width="101.67" height="19.14" fill="#2563ea" opacity="0.98"/>
<rect x="916.18" y="144.74" width="101.67" height="19.14" fill="#2563eb" opacity="0.98"/>
<rect x="1017.45" y="144.74" width="101.67" height="19.14" fill="#2563eb" opacity="0.98"/>
<rect x="1118.73" y="144.74" width="101.67" height="19.14" fill="#2563eb" opacity="0.98"/>
<rect x="106.00" y="126.00" width="101.67" height="19.14" fill="#173e88" opacity="0.98"/>
<rect x="207.27" y="126.00" width="101.67" height="19.14" fill="#194599" opacity="0.98"/>
<rect x="308.55" y="126.00" width="101.67" height="19.14" fill="#1c4bab" opacity="0.98"/>
<rect x="409.82" y="126.00" width="101.67" height="19.14" fill="#1e52be" opacity="0.98"/>
<rect x="511.09" y="126.00" width="101.67" height="19.14" fill="#215ad2" opacity="0.98"/>
<rect x="612.36" y="126.00" width="101.67" height="19.14" fill="#2562e8" opacity="0.98"/>
<rect x="713.64" y="126.00" width="101.67" height="19.14" fill="#2563eb" opacity="0.98"/>
<rect x="814.91" y="126.00" width="101.67" height="19.14" fill="#2563eb" opacity="0.98"/>
<rect x="916.18" y="126.00" width="101.67" height="19.14" fill="#2563eb" opacity="0.98"/>
<rect x="1017.45" y="126.00" width="101.67" height="19.14" fill="#2563eb" opacity="0.98"/>
<rect x="1118.73" y="126.00" width="101.67" height="19.14" fill="#2563eb" opacity="0.98"/>
<polyline fill="none" stroke="#fbbf24" stroke-width="3.2" stroke-linejoin="round" stroke-linecap="round" points="116.17,481.57 121.26,480.86 126.35,480.16 131.43,479.46 136.52,478.76 141.61,478.08 146.69,477.39 151.78,476.71 156.87,476.04 161.95,475.36 167.04,474.70 172.13,474.03 177.21,473.37 182.30,472.72 187.39,472.06 192.47,471.41 197.56,470.77 202.65,470.13 207.74,469.49 212.82,468.85 217.91,468.22 223.00,467.58 228.08,466.96 233.17,466.33 238.26,465.71 243.34,465.09 248.43,464.47 253.52,463.85 258.60,463.24 263.69,462.62 268.78,462.01 273.86,461.41 278.95,460.80 284.04,460.20 289.12,459.59 294.21,458.99 299.30,458.40 304.38,457.80 309.47,457.20 314.56,456.61 319.64,456.02 324.73,455.42 329.82,454.83 334.90,454.25 339.99,453.66 345.08,453.07 350.16,452.49 355.25,451.90 360.34,451.32 365.42,450.74 370.51,450.16 375.60,449.58 380.68,449.00 385.77,448.42 390.86,447.85 395.95,447.27 401.03,446.69 406.12,446.12 411.21,445.55 416.29,444.97 421.38,444.40 426.47,443.83 431.55,443.26 436.64,442.68 441.73,442.11 446.81,441.54 451.90,440.97 456.99,440.40 462.07,439.84 467.16,439.27 472.25,438.70 477.33,438.13 482.42,437.56 487.51,436.99 492.59,436.43 497.68,435.86 502.77,435.29 507.85,434.72 512.94,434.16 518.03,433.59 523.11,433.02 528.20,432.45 533.29,431.89 538.37,431.32 543.46,430.75 548.55,430.18 553.63,429.61 558.72,429.05 563.81,428.48 568.89,427.91 573.98,427.34 579.07,426.77 584.16,426.20 589.24,425.63 594.33,425.06 599.42,424.49 604.50,423.91 609.59,423.34 614.68,422.77 619.76,422.20 624.85,421.62 629.94,421.05 635.02,420.47 640.11,419.89 645.20,419.32 650.28,418.74 655.37,418.16 660.46,417.58 665.54,417.00 670.63,416.42 675.72,415.84 680.80,415.25 685.89,414.67 690.98,414.09 696.06,413.50 701.15,412.91 706.24,412.32 711.32,411.73 716.41,411.14 721.50,410.55 726.58,409.96 731.67,409.36 736.76,408.77 741.84,408.17 746.93,407.57 752.02,406.97 757.11,406.37 762.19,405.76 767.28,405.16 772.37,404.55 777.45,403.94 782.54,403.33 787.63,402.72 792.71,402.11 797.80,401.49 802.89,400.87 807.97,400.25 813.06,399.63 818.15,399.01 823.23,398.38 828.32,397.76 833.41,397.13 838.49,396.49 843.58,395.86 848.67,395.22 853.75,394.58 858.84,393.94 863.93,393.29 869.01,392.65 874.10,392.00 879.19,391.34 884.27,390.69 889.36,390.03 894.45,389.37 899.53,388.70 904.62,388.03 909.71,387.36 914.79,386.69 919.88,386.01 924.97,385.33 930.05,384.64 935.14,383.95 940.23,383.26 945.32,382.56 950.40,381.86 955.49,381.16 960.58,380.45 965.66,379.73 970.75,379.02 975.84,378.29 980.92,377.57 986.01,376.83 991.10,376.10 996.18,375.35 1001.27,374.60 1006.36,373.85 1011.44,373.09 1016.53,372.33 1021.62,371.55 1026.70,370.78 1031.79,369.99 1036.88,369.20 1041.96,368.40 1047.05,367.60 1052.14,366.78 1057.22,365.96 1062.31,365.13 1067.40,364.30 1072.48,363.45 1077.57,362.60 1082.66,361.73 1087.74,360.86 1092.83,359.97 1097.92,359.08 1103.00,358.17 1108.09,357.25 1113.18,356.32 1118.26,355.38 1123.35,354.42 1128.44,353.45 1133.53,352.46 1138.61,351.46 1143.70,350.44 1148.79,349.40 1153.87,348.34 1158.96,347.27 1164.05,346.17 1169.13,345.05 1174.22,343.90 1179.31,342.73 1184.39,341.52 1189.48,340.29 1194.57,339.02 1199.65,337.72 1204.74,336.37 1209.83,334.97 1214.91,333.53 1220.00,332.03"/>
<polyline fill="none" stroke="#fbbf24" stroke-width="3.2" stroke-linejoin="round" stroke-linecap="round" points="106.00,158.18 111.09,158.48 116.17,158.78 121.26,159.08 126.35,159.38 131.43,159.68 136.52,159.98 141.61,160.28 146.69,160.58 151.78,160.88 156.87,161.18 161.95,161.49 167.04,161.79 172.13,162.10 177.21,162.41 182.30,162.71 187.39,163.02 192.47,163.33 197.56,163.64 202.65,163.95 207.74,164.26 212.82,164.57 217.91,164.88 223.00,165.19 228.08,165.51 233.17,165.82 238.26,166.14 243.34,166.45 248.43,166.77 253.52,167.09 258.60,167.41 263.69,167.73 268.78,168.05 273.86,168.37 278.95,168.69 284.04,169.01 289.12,169.34 294.21,169.66 299.30,169.99 304.38,170.31 309.47,170.64 314.56,170.97 319.64,171.30 324.73,171.63 329.82,171.96 334.90,172.29 339.99,172.62 345.08,172.96 350.16,173.29 355.25,173.63 360.34,173.97 365.42,174.30 370.51,174.64 375.60,174.98 380.68,175.32 385.77,175.66 390.86,176.01 395.95,176.35 401.03,176.69 406.12,177.04 411.21,177.39 416.29,177.73 421.38,178.08 426.47,178.43 431.55,178.78 436.64,179.14 441.73,179.49 446.81,179.84 451.90,180.20 456.99,180.56 462.07,180.91 467.16,181.27 472.25,181.63 477.33,182.00 482.42,182.36 487.51,182.72 492.59,183.09 497.68,183.45 502.77,183.82 507.85,184.19 512.94,184.56 518.03,184.93 523.11,185.30 528.20,185.68 533.29,186.05 538.37,186.43 543.46,186.81 548.55,187.19 553.63,187.57 558.72,187.95 563.81,188.33 568.89,188.72 573.98,189.10 579.07,189.49 584.16,189.88 589.24,190.27 594.33,190.66 599.42,191.06 604.50,191.45 609.59,191.85 614.68,192.25 619.76,192.65 624.85,193.05 629.94,193.46 635.02,193.86 640.11,194.27 645.20,194.68 650.28,195.09 655.37,195.50 660.46,195.91 665.54,196.33 670.63,196.74 675.72,197.16 680.80,197.58 685.89,198.01 690.98,198.43 696.06,198.86 701.15,199.29 706.24,199.72 711.32,200.15 716.41,200.59 721.50,201.02 726.58,201.46 731.67,201.90 736.76,202.34 741.84,202.79 746.93,203.24 752.02,203.69 757.11,204.14 762.19,204.59 767.28,205.05 772.37,205.51 777.45,205.97 782.54,206.43 787.63,206.90 792.71,207.37 797.80,207.84 802.89,208.32 807.97,208.79 813.06,209.27 818.15,209.75 823.23,210.24 828.32,210.73 833.41,211.22 838.49,211.71 843.58,212.21 848.67,212.71 853.75,213.21 858.84,213.72 863.93,214.23 869.01,214.74 874.10,215.25 879.19,215.77 884.27,216.30 889.36,216.82 894.45,217.35 899.53,217.89 904.62,218.42 909.71,218.96 914.79,219.51 919.88,220.06 924.97,220.61 930.05,221.17 935.14,221.73 940.23,222.30 945.32,222.87 950.40,223.44 955.49,224.02 960.58,224.61 965.66,225.20 970.75,225.79 975.84,226.39 980.92,226.99 986.01,227.61 991.10,228.22 996.18,228.84 1001.27,229.47 1006.36,230.10 1011.44,230.74 1016.53,231.39 1021.62,232.04 1026.70,232.70 1031.79,233.37 1036.88,234.04 1041.96,234.73 1047.05,235.41 1052.14,236.11 1057.22,236.82 1062.31,237.53 1067.40,238.25 1072.48,238.99 1077.57,239.73 1082.66,240.48 1087.74,241.24 1092.83,242.01 1097.92,242.80 1103.00,243.59 1108.09,244.40 1113.18,245.22 1118.26,246.05 1123.35,246.90 1128.44,247.76 1133.53,248.64 1138.61,249.54 1143.70,250.45 1148.79,251.38 1153.87,252.33 1158.96,253.30 1164.05,254.29 1169.13,255.30 1174.22,256.34 1179.31,257.41 1184.39,258.51 1189.48,259.64 1194.57,260.80 1199.65,262.00 1204.74,263.25 1209.83,264.54 1214.91,265.88 1220.00,267.28"/>
<line x1="106.00" y1="192.00" x2="106.00" y2="482.00" stroke="#223445" stroke-width="1" opacity="0.8"/>
<text x="106.00" y="506.00" fill="#8aa3bc" font-size="13" text-anchor="middle" font-family="Helvetica, Arial, sans-serif">0.020</text>
<line x1="328.80" y1="192.00" x2="328.80" y2="482.00" stroke="#223445" stroke-width="1" opacity="0.8"/>
<text x="328.80" y="506.00" fill="#8aa3bc" font-size="13" text-anchor="middle" font-family="Helvetica, Arial, sans-serif">0.040</text>
<line x1="551.60" y1="192.00" x2="551.60" y2="482.00" stroke="#223445" stroke-width="1" opacity="0.8"/>
<text x="551.60" y="506.00" fill="#8aa3bc" font-size="13" text-anchor="middle" font-family="Helvetica, Arial, sans-serif">0.060</text>
<line x1="774.40" y1="192.00" x2="774.40" y2="482.00" stroke="#223445" stroke-width="1" opacity="0.8"/>
<text x="774.40" y="506.00" fill="#8aa3bc" font-size="13" text-anchor="middle" font-family="Helvetica, Arial, sans-serif">0.080</text>
<line x1="997.20" y1="192.00" x2="997.20" y2="482.00" stroke="#223445" stroke-width="1" opacity="0.8"/>
<text x="997.20" y="506.00" fill="#8aa3bc" font-size="13" text-anchor="middle" font-family="Helvetica, Arial, sans-serif">0.100</text>
<line x1="1220.00" y1="192.00" x2="1220.00" y2="482.00" stroke="#223445" stroke-width="1" opacity="0.8"/>
<text x="1220.00" y="506.00" fill="#8aa3bc" font-size="13" text-anchor="middle" font-family="Helvetica, Arial, sans-serif">0.120</text>
<line x1="106.00" y1="482.00" x2="1220.00" y2="482.00" stroke="#223445" stroke-width="1" opacity="0.8"/>
<text x="92.00" y="486.00" fill="#8aa3bc" font-size="13" text-anchor="end" font-family="Helvetica, Arial, sans-serif">0.15</text>
<line x1="106.00" y1="410.80" x2="1220.00" y2="410.80" stroke="#223445" stroke-width="1" opacity="0.8"/>
<text x="92.00" y="414.80" fill="#8aa3bc" font-size="13" text-anchor="end" font-family="Helvetica, Arial, sans-serif">0.33</text>
<line x1="106.00" y1="339.60" x2="1220.00" y2="339.60" stroke="#223445" stroke-width="1" opacity="0.8"/>
<text x="92.00" y="343.60" fill="#8aa3bc" font-size="13" text-anchor="end" font-family="Helvetica, Arial, sans-serif">0.51</text>
<line x1="106.00" y1="268.40" x2="1220.00" y2="268.40" stroke="#223445" stroke-width="1" opacity="0.8"/>
<text x="92.00" y="272.40" fill="#8aa3bc" font-size="13" text-anchor="end" font-family="Helvetica, Arial, sans-serif">0.69</text>
<line x1="106.00" y1="197.20" x2="1220.00" y2="197.20" stroke="#223445" stroke-width="1" opacity="0.8"/>
<text x="92.00" y="201.20" fill="#8aa3bc" font-size="13" text-anchor="end" font-family="Helvetica, Arial, sans-serif">0.87</text>
<line x1="106.00" y1="126.00" x2="1220.00" y2="126.00" stroke="#223445" stroke-width="1" opacity="0.8"/>
<text x="92.00" y="130.00" fill="#8aa3bc" font-size="13" text-anchor="end" font-family="Helvetica, Arial, sans-serif">1.05</text>
<text x="663.00" y="530.00" fill="#dce7f3" font-size="16" text-anchor="middle" font-family="Helvetica, Arial, sans-serif">a</text>
<text x="38.00" y="304.00" fill="#dce7f3" font-size="16" text-anchor="middle" transform="rotate(-90 38.00 304.00)" font-family="Helvetica, Arial, sans-serif">b</text>
<rect x="106.00" y="540.00" width="1114.00" height="356.00" rx="20" fill="#122131" stroke="#5e7fa3" stroke-width="2"/>
<text x="124.00" y="570.00" fill="#dce7f3" font-size="20" font-family="Helvetica, Arial, sans-serif" font-weight="700">long-time x-amplitude inside the oscillatory band</text>
<text x="124.00" y="594.00" fill="#9fb3c8" font-size="14" font-family="Helvetica, Arial, sans-serif">Outside the band the amplitude is pinned to zero because the fixed point attracts there. Inside the band the value comes from RK4 tail measurements.</text>
<rect x="106.00" y="877.26" width="101.67" height="19.14" fill="#0c393d" opacity="0.98"/>
<rect x="207.27" y="877.26" width="101.67" height="19.14" fill="#0b1722" opacity="0.98"/>
<rect x="308.55" y="877.26" width="101.67" height="19.14" fill="#0b1722" opacity="0.98"/>
<rect x="409.82" y="877.26" width="101.67" height="19.14" fill="#0b1722" opacity="0.98"/>
<rect x="511.09" y="877.26" width="101.67" height="19.14" fill="#0b1722" opacity="0.98"/>
<rect x="612.36" y="877.26" width="101.67" height="19.14" fill="#0b1722" opacity="0.98"/>
<rect x="713.64" y="877.26" width="101.67" height="19.14" fill="#0b1722" opacity="0.98"/>
<rect x="814.91" y="877.26" width="101.67" height="19.14" fill="#0b1722" opacity="0.98"/>
<rect x="916.18" y="877.26" width="101.67" height="19.14" fill="#0b1722" opacity="0.98"/>
<rect x="1017.45" y="877.26" width="101.67" height="19.14" fill="#0b1722" opacity="0.98"/>
<rect x="1118.73" y="877.26" width="101.67" height="19.14" fill="#0b1722" opacity="0.98"/>
<rect x="106.00" y="858.53" width="101.67" height="19.14" fill="#88af7c" opacity="0.98"/>
<rect x="207.27" y="858.53" width="101.67" height="19.14" fill="#0e5d5a" opacity="0.98"/>
<rect x="308.55" y="858.53" width="101.67" height="19.14" fill="#0b1722" opacity="0.98"/>
<rect x="409.82" y="858.53" width="101.67" height="19.14" fill="#0b1722" opacity="0.98"/>
<rect x="511.09" y="858.53" width="101.67" height="19.14" fill="#0b1722" opacity="0.98"/>
<rect x="612.36" y="858.53" width="101.67" height="19.14" fill="#0b1722" opacity="0.98"/>
<rect x="713.64" y="858.53" width="101.67" height="19.14" fill="#0b1722" opacity="0.98"/>
<rect x="814.91" y="858.53" width="101.67" height="19.14" fill="#0b1722" opacity="0.98"/>
<rect x="916.18" y="858.53" width="101.67" height="19.14" fill="#0b1722" opacity="0.98"/>
<rect x="1017.45" y="858.53" width="101.67" height="19.14" fill="#0b1722" opacity="0.98"/>
<rect x="1118.73" y="858.53" width="101.67" height="19.14" fill="#0b1722" opacity="0.98"/>
<rect x="106.00" y="839.79" width="101.67" height="19.14" fill="#b0c281" opacity="0.98"/>
<rect x="207.27" y="839.79" width="101.67" height="19.14" fill="#509576" opacity="0.98"/>
<rect x="308.55" y="839.79" width="101.67" height="19.14" fill="#0e6762" opacity="0.98"/>
<rect x="409.82" y="839.79" width="101.67" height="19.14" fill="#0b1722" opacity="0.98"/>
<rect x="511.09" y="839.79" width="101.67" height="19.14" fill="#0b1722" opacity="0.98"/>
<rect x="612.36" y="839.79" width="101.67" height="19.14" fill="#0b1722" opacity="0.98"/>
<rect x="713.64" y="839.79" width="101.67" height="19.14" fill="#0b1722" opacity="0.98"/>
<rect x="814.91" y="839.79" width="101.67" height="19.14" fill="#0b1722" opacity="0.98"/>
<rect x="916.18" y="839.79" width="101.67" height="19.14" fill="#0b1722" opacity="0.98"/>
<rect x="1017.45" y="839.79" width="101.67" height="19.14" fill="#0b1722" opacity="0.98"/>
<rect x="1118.73" y="839.79" width="101.67" height="19.14" fill="#0b1722" opacity="0.98"/>
<rect x="106.00" y="821.05" width="101.67" height="19.14" fill="#cace84" opacity="0.98"/>
<rect x="207.27" y="821.05" width="101.67" height="19.14" fill="#7aa87b" opacity="0.98"/>
<rect x="308.55" y="821.05" width="101.67" height="19.14" fill="#378973" opacity="0.98"/>
<rect x="409.82" y="821.05" width="101.67" height="19.14" fill="#0f6c66" opacity="0.98"/>
<rect x="511.09" y="821.05" width="101.67" height="19.14" fill="#0d5050" opacity="0.98"/>
<rect x="612.36" y="821.05" width="101.67" height="19.14" fill="#0b1722" opacity="0.98"/>
<rect x="713.64" y="821.05" width="101.67" height="19.14" fill="#0b1722" opacity="0.98"/>
<rect x="814.91" y="821.05" width="101.67" height="19.14" fill="#0b1722" opacity="0.98"/>
<rect x="916.18" y="821.05" width="101.67" height="19.14" fill="#0b1722" opacity="0.98"/>
<rect x="1017.45" y="821.05" width="101.67" height="19.14" fill="#0b1722" opacity="0.98"/>
<rect x="1118.73" y="821.05" width="101.67" height="19.14" fill="#0b1722" opacity="0.98"/>
<rect x="106.00" y="802.32" width="101.67" height="19.14" fill="#ded886" opacity="0.98"/>
<rect x="207.27" y="802.32" width="101.67" height="19.14" fill="#96b57e" opacity="0.98"/>
<rect x="308.55" y="802.32" width="101.67" height="19.14" fill="#5d9b77" opacity="0.98"/>
<rect x="409.82" y="802.32" width="101.67" height="19.14" fill="#2c8371" opacity="0.98"/>
<rect x="511.09" y="802.32" width="101.67" height="19.14" fill="#0f6f68" opacity="0.98"/>
<rect x="612.36" y="802.32" width="101.67" height="19.14" fill="#0e5c59" opacity="0.98"/>
<rect x="713.64" y="802.32" width="101.67" height="19.14" fill="#0d3e41" opacity="0.98"/>
<rect x="814.91" y="802.32" width="101.67" height="19.14" fill="#0b1722" opacity="0.98"/>
<rect x="916.18" y="802.32" width="101.67" height="19.14" fill="#0b1722" opacity="0.98"/>
<rect x="1017.45" y="802.32" width="101.67" height="19.14" fill="#0b1722" opacity="0.98"/>
<rect x="1118.73" y="802.32" width="101.67" height="19.14" fill="#0b1722" opacity="0.98"/>
<rect x="106.00" y="783.58" width="101.67" height="19.14" fill="#efdf88" opacity="0.98"/>
<rect x="207.27" y="783.58" width="101.67" height="19.14" fill="#aabf80" opacity="0.98"/>
<rect x="308.55" y="783.58" width="101.67" height="19.14" fill="#77a77a" opacity="0.98"/>
<rect x="409.82" y="783.58" width="101.67" height="19.14" fill="#4c9375" opacity="0.98"/>
<rect x="511.09" y="783.58" width="101.67" height="19.14" fill="#268171" opacity="0.98"/>
<rect x="612.36" y="783.58" width="101.67" height="19.14" fill="#0f716a" opacity="0.98"/>
<rect x="713.64" y="783.58" width="101.67" height="19.14" fill="#0e615d" opacity="0.98"/>
<rect x="814.91" y="783.58" width="101.67" height="19.14" fill="#0d4d4d" opacity="0.98"/>
<rect x="916.18" y="783.58" width="101.67" height="19.14" fill="#0b1722" opacity="0.98"/>
<rect x="1017.45" y="783.58" width="101.67" height="19.14" fill="#0b1722" opacity="0.98"/>
<rect x="1118.73" y="783.58" width="101.67" height="19.14" fill="#0b1722" opacity="0.98"/>
<rect x="106.00" y="764.84" width="101.67" height="19.14" fill="#fde68a" opacity="0.98"/>
<rect x="207.27" y="764.84" width="101.67" height="19.14" fill="#bbc782" opacity="0.98"/>
<rect x="308.55" y="764.84" width="101.67" height="19.14" fill="#8bb07d" opacity="0.98"/>
<rect x="409.82" y="764.84" width="101.67" height="19.14" fill="#639e78" opacity="0.98"/>
<rect x="511.09" y="764.84" width="101.67" height="19.14" fill="#418d74" opacity="0.98"/>
<rect x="612.36" y="764.84" width="101.67" height="19.14" fill="#217e70" opacity="0.98"/>
<rect x="713.64" y="764.84" width="101.67" height="19.14" fill="#0f716a" opacity="0.98"/>
<rect x="814.91" y="764.84" width="101.67" height="19.14" fill="#0e635f" opacity="0.98"/>
<rect x="916.18" y="764.84" width="101.67" height="19.14" fill="#0d5251" opacity="0.98"/>
<rect x="1017.45" y="764.84" width="101.67" height="19.14" fill="#0b1722" opacity="0.98"/>
<rect x="1118.73" y="764.84" width="101.67" height="19.14" fill="#0b1722" opacity="0.98"/>
<rect x="106.00" y="746.11" width="101.67" height="19.14" fill="#fde68a" opacity="0.98"/>
<rect x="207.27" y="746.11" width="101.67" height="19.14" fill="#c9cd84" opacity="0.98"/>
<rect x="308.55" y="746.11" width="101.67" height="19.14" fill="#9ab77e" opacity="0.98"/>
<rect x="409.82" y="746.11" width="101.67" height="19.14" fill="#74a57a" opacity="0.98"/>
<rect x="511.09" y="746.11" width="101.67" height="19.14" fill="#539676" opacity="0.98"/>
<rect x="612.36" y="746.11" width="101.67" height="19.14" fill="#368873" opacity="0.98"/>
<rect x="713.64" y="746.11" width="101.67" height="19.14" fill="#1a7b6f" opacity="0.98"/>
<rect x="814.91" y="746.11" width="101.67" height="19.14" fill="#0f6f68" opacity="0.98"/>
<rect x="916.18" y="746.11" width="101.67" height="19.14" fill="#0e625e" opacity="0.98"/>
<rect x="1017.45" y="746.11" width="101.67" height="19.14" fill="#0d5050" opacity="0.98"/>
<rect x="1118.73" y="746.11" width="101.67" height="19.14" fill="#0b1722" opacity="0.98"/>
<rect x="106.00" y="727.37" width="101.67" height="19.14" fill="#fde68a" opacity="0.98"/>
<rect x="207.27" y="727.37" width="101.67" height="19.14" fill="#d3d285" opacity="0.98"/>
<rect x="308.55" y="727.37" width="101.67" height="19.14" fill="#a5bd80" opacity="0.98"/>
<rect x="409.82" y="727.37" width="101.67" height="19.14" fill="#80ab7b" opacity="0.98"/>
<rect x="511.09" y="727.37" width="101.67" height="19.14" fill="#609c78" opacity="0.98"/>
<rect x="612.36" y="727.37" width="101.67" height="19.14" fill="#448f74" opacity="0.98"/>
<rect x="713.64" y="727.37" width="101.67" height="19.14" fill="#298271" opacity="0.98"/>
<rect x="814.91" y="727.37" width="101.67" height="19.14" fill="#0f766e" opacity="0.98"/>
<rect x="916.18" y="727.37" width="101.67" height="19.14" fill="#0f6b65" opacity="0.98"/>
<rect x="1017.45" y="727.37" width="101.67" height="19.14" fill="#0e5d5a" opacity="0.98"/>
<rect x="1118.73" y="727.37" width="101.67" height="19.14" fill="#0d4647" opacity="0.98"/>
<rect x="106.00" y="708.63" width="101.67" height="19.14" fill="#fde68a" opacity="0.98"/>
<rect x="207.27" y="708.63" width="101.67" height="19.14" fill="#dbd686" opacity="0.98"/>
<rect x="308.55" y="708.63" width="101.67" height="19.14" fill="#acc080" opacity="0.98"/>
<rect x="409.82" y="708.63" width="101.67" height="19.14" fill="#87ae7c" opacity="0.98"/>
<rect x="511.09" y="708.63" width="101.67" height="19.14" fill="#67a078" opacity="0.98"/>
<rect x="612.36" y="708.63" width="101.67" height="19.14" fill="#4c9275" opacity="0.98"/>
<rect x="713.64" y="708.63" width="101.67" height="19.14" fill="#318672" opacity="0.98"/>
<rect x="814.91" y="708.63" width="101.67" height="19.14" fill="#187a6f" opacity="0.98"/>
<rect x="916.18" y="708.63" width="101.67" height="19.14" fill="#0f6f68" opacity="0.98"/>
<rect x="1017.45" y="708.63" width="101.67" height="19.14" fill="#0e625e" opacity="0.98"/>
<rect x="1118.73" y="708.63" width="101.67" height="19.14" fill="#0d4f4f" opacity="0.98"/>
<rect x="106.00" y="689.89" width="101.67" height="19.14" fill="#fde68a" opacity="0.98"/>
<rect x="207.27" y="689.89" width="101.67" height="19.14" fill="#dfd886" opacity="0.98"/>
<rect x="308.55" y="689.89" width="101.67" height="19.14" fill="#aec181" opacity="0.98"/>
<rect x="409.82" y="689.89" width="101.67" height="19.14" fill="#89af7c" opacity="0.98"/>
<rect x="511.09" y="689.89" width="101.67" height="19.14" fill="#69a079" opacity="0.98"/>
<rect x="612.36" y="689.89" width="101.67" height="19.14" fill="#4d9375" opacity="0.98"/>
<rect x="713.64" y="689.89" width="101.67" height="19.14" fill="#328772" opacity="0.98"/>
<rect x="814.91" y="689.89" width="101.67" height="19.14" fill="#187a6f" opacity="0.98"/>
<rect x="916.18" y="689.89" width="101.67" height="19.14" fill="#0f6f68" opacity="0.98"/>
<rect x="1017.45" y="689.89" width="101.67" height="19.14" fill="#0e625e" opacity="0.98"/>
<rect x="1118.73" y="689.89" width="101.67" height="19.14" fill="#0d4d4d" opacity="0.98"/>
<rect x="106.00" y="671.16" width="101.67" height="19.14" fill="#fde68a" opacity="0.98"/>
<rect x="207.27" y="671.16" width="101.67" height="19.14" fill="#dcd686" opacity="0.98"/>
<rect x="308.55" y="671.16" width="101.67" height="19.14" fill="#aabf80" opacity="0.98"/>
<rect x="409.82" y="671.16" width="101.67" height="19.14" fill="#83ad7c" opacity="0.98"/>
<rect x="511.09" y="671.16" width="101.67" height="19.14" fill="#639d78" opacity="0.98"/>
<rect x="612.36" y="671.16" width="101.67" height="19.14" fill="#469074" opacity="0.98"/>
<rect x="713.64" y="671.16" width="101.67" height="19.14" fill="#2b8371" opacity="0.98"/>
<rect x="814.91" y="671.16" width="101.67" height="19.14" fill="#10766e" opacity="0.98"/>
<rect x="916.18" y="671.16" width="101.67" height="19.14" fill="#0f6a65" opacity="0.98"/>
<rect x="1017.45" y="671.16" width="101.67" height="19.14" fill="#0e5a58" opacity="0.98"/>
<rect x="1118.73" y="671.16" width="101.67" height="19.14" fill="#0b1722" opacity="0.98"/>
<rect x="106.00" y="652.42" width="101.67" height="19.14" fill="#fde68a" opacity="0.98"/>
<rect x="207.27" y="652.42" width="101.67" height="19.14" fill="#cdd084" opacity="0.98"/>
<rect x="308.55" y="652.42" width="101.67" height="19.14" fill="#9ab77e" opacity="0.98"/>
<rect x="409.82" y="652.42" width="101.67" height="19.14" fill="#73a57a" opacity="0.98"/>
<rect x="511.09" y="652.42" width="101.67" height="19.14" fill="#539676" opacity="0.98"/>
<rect x="612.36" y="652.42" width="101.67" height="19.14" fill="#368873" opacity="0.98"/>
<rect x="713.64" y="652.42" width="101.67" height="19.14" fill="#197b6f" opacity="0.98"/>
<rect x="814.91" y="652.42" width="101.67" height="19.14" fill="#0f6e67" opacity="0.98"/>
<rect x="916.18" y="652.42" width="101.67" height="19.14" fill="#0e5e5b" opacity="0.98"/>
<rect x="1017.45" y="652.42" width="101.67" height="19.14" fill="#0d4446" opacity="0.98"/>
<rect x="1118.73" y="652.42" width="101.67" height="19.14" fill="#0b1722" opacity="0.98"/>
<rect x="106.00" y="633.68" width="101.67" height="19.14" fill="#f9e48a" opacity="0.98"/>
<rect x="207.27" y="633.68" width="101.67" height="19.14" fill="#abbf80" opacity="0.98"/>
<rect x="308.55" y="633.68" width="101.67" height="19.14" fill="#7ba97b" opacity="0.98"/>
<rect x="409.82" y="633.68" width="101.67" height="19.14" fill="#569776" opacity="0.98"/>
<rect x="511.09" y="633.68" width="101.67" height="19.14" fill="#368873" opacity="0.98"/>
<rect x="612.36" y="633.68" width="101.67" height="19.14" fill="#177a6f" opacity="0.98"/>
<rect x="713.64" y="633.68" width="101.67" height="19.14" fill="#0f6b65" opacity="0.98"/>
<rect x="814.91" y="633.68" width="101.67" height="19.14" fill="#0e5957" opacity="0.98"/>
<rect x="916.18" y="633.68" width="101.67" height="19.14" fill="#0b1722" opacity="0.98"/>
<rect x="1017.45" y="633.68" width="101.67" height="19.14" fill="#0b1722" opacity="0.98"/>
<rect x="1118.73" y="633.68" width="101.67" height="19.14" fill="#0b1722" opacity="0.98"/>
<rect x="106.00" y="614.95" width="101.67" height="19.14" fill="#adc081" opacity="0.98"/>
<rect x="207.27" y="614.95" width="101.67" height="19.14" fill="#74a57a" opacity="0.98"/>
<rect x="308.55" y="614.95" width="101.67" height="19.14" fill="#4c9375" opacity="0.98"/>
<rect x="409.82" y="614.95" width="101.67" height="19.14" fill="#298271" opacity="0.98"/>
<rect x="511.09" y="614.95" width="101.67" height="19.14" fill="#0f726b" opacity="0.98"/>
<rect x="612.36" y="614.95" width="101.67" height="19.14" fill="#0e605d" opacity="0.98"/>
<rect x="713.64" y="614.95" width="101.67" height="19.14" fill="#0b1722" opacity="0.98"/>
<rect x="814.91" y="614.95" width="101.67" height="19.14" fill="#0b1722" opacity="0.98"/>
<rect x="916.18" y="614.95" width="101.67" height="19.14" fill="#0b1722" opacity="0.98"/>
<rect x="1017.45" y="614.95" width="101.67" height="19.14" fill="#0b1722" opacity="0.98"/>
<rect x="1118.73" y="614.95" width="101.67" height="19.14" fill="#0b1722" opacity="0.98"/>
<rect x="106.00" y="596.21" width="101.67" height="19.14" fill="#579877" opacity="0.98"/>
<rect x="207.27" y="596.21" width="101.67" height="19.14" fill="#2e8572" opacity="0.98"/>
<rect x="308.55" y="596.21" width="101.67" height="19.14" fill="#0f726b" opacity="0.98"/>
<rect x="409.82" y="596.21" width="101.67" height="19.14" fill="#0e5e5b" opacity="0.98"/>
<rect x="511.09" y="596.21" width="101.67" height="19.14" fill="#0b1722" opacity="0.98"/>
<rect x="612.36" y="596.21" width="101.67" height="19.14" fill="#0b1722" opacity="0.98"/>
<rect x="713.64" y="596.21" width="101.67" height="19.14" fill="#0b1722" opacity="0.98"/>
<rect x="814.91" y="596.21" width="101.67" height="19.14" fill="#0b1722" opacity="0.98"/>
<rect x="916.18" y="596.21" width="101.67" height="19.14" fill="#0b1722" opacity="0.98"/>
<rect x="1017.45" y="596.21" width="101.67" height="19.14" fill="#0b1722" opacity="0.98"/>
<rect x="1118.73" y="596.21" width="101.67" height="19.14" fill="#0b1722" opacity="0.98"/>
<rect x="106.00" y="577.47" width="101.67" height="19.14" fill="#0e6a64" opacity="0.98"/>
<rect x="207.27" y="577.47" width="101.67" height="19.14" fill="#0d4e4e" opacity="0.98"/>
<rect x="308.55" y="577.47" width="101.67" height="19.14" fill="#0b1722" opacity="0.98"/>
<rect x="409.82" y="577.47" width="101.67" height="19.14" fill="#0b1722" opacity="0.98"/>
<rect x="511.09" y="577.47" width="101.67" height="19.14" fill="#0b1722" opacity="0.98"/>
<rect x="612.36" y="577.47" width="101.67" height="19.14" fill="#0b1722" opacity="0.98"/>
<rect x="713.64" y="577.47" width="101.67" height="19.14" fill="#0b1722" opacity="0.98"/>
<rect x="814.91" y="577.47" width="101.67" height="19.14" fill="#0b1722" opacity="0.98"/>
<rect x="916.18" y="577.47" width="101.67" height="19.14" fill="#0b1722" opacity="0.98"/>
<rect x="1017.45" y="577.47" width="101.67" height="19.14" fill="#0b1722" opacity="0.98"/>
<rect x="1118.73" y="577.47" width="101.67" height="19.14" fill="#0b1722" opacity="0.98"/>
<rect x="106.00" y="558.74" width="101.67" height="19.14" fill="#0b1722" opacity="0.98"/>
<rect x="207.27" y="558.74" width="101.67" height="19.14" fill="#0b1722" opacity="0.98"/>
<rect x="308.55" y="558.74" width="101.67" height="19.14" fill="#0b1722" opacity="0.98"/>
<rect x="409.82" y="558.74" width="101.67" height="19.14" fill="#0b1722" opacity="0.98"/>
<rect x="511.09" y="558.74" width="101.67" height="19.14" fill="#0b1722" opacity="0.98"/>
<rect x="612.36" y="558.74" width="101.67" height="19.14" fill="#0b1722" opacity="0.98"/>
<rect x="713.64" y="558.74" width="101.67" height="19.14" fill="#0b1722" opacity="0.98"/>
<rect x="814.91" y="558.74" width="101.67" height="19.14" fill="#0b1722" opacity="0.98"/>
<rect x="916.18" y="558.74" width="101.67" height="19.14" fill="#0b1722" opacity="0.98"/>
<rect x="1017.45" y="558.74" width="101.67" height="19.14" fill="#0b1722" opacity="0.98"/>
<rect x="1118.73" y="558.74" width="101.67" height="19.14" fill="#0b1722" opacity="0.98"/>
<rect x="106.00" y="540.00" width="101.67" height="19.14" fill="#0b1722" opacity="0.98"/>
<rect x="207.27" y="540.00" width="101.67" height="19.14" fill="#0b1722" opacity="0.98"/>
<rect x="308.55" y="540.00" width="101.67" height="19.14" fill="#0b1722" opacity="0.98"/>
<rect x="409.82" y="540.00" width="101.67" height="19.14" fill="#0b1722" opacity="0.98"/>
<rect x="511.09" y="540.00" width="101.67" height="19.14" fill="#0b1722" opacity="0.98"/>
<rect x="612.36" y="540.00" width="101.67" height="19.14" fill="#0b1722" opacity="0.98"/>
<rect x="713.64" y="540.00" width="101.67" height="19.14" fill="#0b1722" opacity="0.98"/>
<rect x="814.91" y="540.00" width="101.67" height="19.14" fill="#0b1722" opacity="0.98"/>
<rect x="916.18" y="540.00" width="101.67" height="19.14" fill="#0b1722" opacity="0.98"/>
<rect x="1017.45" y="540.00" width="101.67" height="19.14" fill="#0b1722" opacity="0.98"/>
<rect x="1118.73" y="540.00" width="101.67" height="19.14" fill="#0b1722" opacity="0.98"/>
<polyline fill="none" stroke="#fbbf24" stroke-width="3.2" stroke-linejoin="round" stroke-linecap="round" points="116.17,895.57 121.26,894.86 126.35,894.16 131.43,893.46 136.52,892.76 141.61,892.08 146.69,891.39 151.78,890.71 156.87,890.04 161.95,889.36 167.04,888.70 172.13,888.03 177.21,887.37 182.30,886.72 187.39,886.06 192.47,885.41 197.56,884.77 202.65,884.13 207.74,883.49 212.82,882.85 217.91,882.22 223.00,881.58 228.08,880.96 233.17,880.33 238.26,879.71 243.34,879.09 248.43,878.47 253.52,877.85 258.60,877.24 263.69,876.62 268.78,876.01 273.86,875.41 278.95,874.80 284.04,874.20 289.12,873.59 294.21,872.99 299.30,872.40 304.38,871.80 309.47,871.20 314.56,870.61 319.64,870.02 324.73,869.42 329.82,868.83 334.90,868.25 339.99,867.66 345.08,867.07 350.16,866.49 355.25,865.90 360.34,865.32 365.42,864.74 370.51,864.16 375.60,863.58 380.68,863.00 385.77,862.42 390.86,861.85 395.95,861.27 401.03,860.69 406.12,860.12 411.21,859.55 416.29,858.97 421.38,858.40 426.47,857.83 431.55,857.26 436.64,856.68 441.73,856.11 446.81,855.54 451.90,854.97 456.99,854.40 462.07,853.84 467.16,853.27 472.25,852.70 477.33,852.13 482.42,851.56 487.51,850.99 492.59,850.43 497.68,849.86 502.77,849.29 507.85,848.72 512.94,848.16 518.03,847.59 523.11,847.02 528.20,846.45 533.29,845.89 538.37,845.32 543.46,844.75 548.55,844.18 553.63,843.61 558.72,843.05 563.81,842.48 568.89,841.91 573.98,841.34 579.07,840.77 584.16,840.20 589.24,839.63 594.33,839.06 599.42,838.49 604.50,837.91 609.59,837.34 614.68,836.77 619.76,836.20 624.85,835.62 629.94,835.05 635.02,834.47 640.11,833.89 645.20,833.32 650.28,832.74 655.37,832.16 660.46,831.58 665.54,831.00 670.63,830.42 675.72,829.84 680.80,829.25 685.89,828.67 690.98,828.09 696.06,827.50 701.15,826.91 706.24,826.32 711.32,825.73 716.41,825.14 721.50,824.55 726.58,823.96 731.67,823.36 736.76,822.77 741.84,822.17 746.93,821.57 752.02,820.97 757.11,820.37 762.19,819.76 767.28,819.16 772.37,818.55 777.45,817.94 782.54,817.33 787.63,816.72 792.71,816.11 797.80,815.49 802.89,814.87 807.97,814.25 813.06,813.63 818.15,813.01 823.23,812.38 828.32,811.76 833.41,811.13 838.49,810.49 843.58,809.86 848.67,809.22 853.75,808.58 858.84,807.94 863.93,807.29 869.01,806.65 874.10,806.00 879.19,805.34 884.27,804.69 889.36,804.03 894.45,803.37 899.53,802.70 904.62,802.03 909.71,801.36 914.79,800.69 919.88,800.01 924.97,799.33 930.05,798.64 935.14,797.95 940.23,797.26 945.32,796.56 950.40,795.86 955.49,795.16 960.58,794.45 965.66,793.73 970.75,793.02 975.84,792.29 980.92,791.57 986.01,790.83 991.10,790.10 996.18,789.35 1001.27,788.60 1006.36,787.85 1011.44,787.09 1016.53,786.33 1021.62,785.55 1026.70,784.78 1031.79,783.99 1036.88,783.20 1041.96,782.40 1047.05,781.60 1052.14,780.78 1057.22,779.96 1062.31,779.13 1067.40,778.30 1072.48,777.45 1077.57,776.60 1082.66,775.73 1087.74,774.86 1092.83,773.97 1097.92,773.08 1103.00,772.17 1108.09,771.25 1113.18,770.32 1118.26,769.38 1123.35,768.42 1128.44,767.45 1133.53,766.46 1138.61,765.46 1143.70,764.44 1148.79,763.40 1153.87,762.34 1158.96,761.27 1164.05,760.17 1169.13,759.05 1174.22,757.90 1179.31,756.73 1184.39,755.52 1189.48,754.29 1194.57,753.02 1199.65,751.72 1204.74,750.37 1209.83,748.97 1214.91,747.53 1220.00,746.03"/>
<polyline fill="none" stroke="#fbbf24" stroke-width="3.2" stroke-linejoin="round" stroke-linecap="round" points="106.00,572.18 111.09,572.48 116.17,572.78 121.26,573.08 126.35,573.38 131.43,573.68 136.52,573.98 141.61,574.28 146.69,574.58 151.78,574.88 156.87,575.18 161.95,575.49 167.04,575.79 172.13,576.10 177.21,576.41 182.30,576.71 187.39,577.02 192.47,577.33 197.56,577.64 202.65,577.95 207.74,578.26 212.82,578.57 217.91,578.88 223.00,579.19 228.08,579.51 233.17,579.82 238.26,580.14 243.34,580.45 248.43,580.77 253.52,581.09 258.60,581.41 263.69,581.73 268.78,582.05 273.86,582.37 278.95,582.69 284.04,583.01 289.12,583.34 294.21,583.66 299.30,583.99 304.38,584.31 309.47,584.64 314.56,584.97 319.64,585.30 324.73,585.63 329.82,585.96 334.90,586.29 339.99,586.62 345.08,586.96 350.16,587.29 355.25,587.63 360.34,587.97 365.42,588.30 370.51,588.64 375.60,588.98 380.68,589.32 385.77,589.66 390.86,590.01 395.95,590.35 401.03,590.69 406.12,591.04 411.21,591.39 416.29,591.73 421.38,592.08 426.47,592.43 431.55,592.78 436.64,593.14 441.73,593.49 446.81,593.84 451.90,594.20 456.99,594.56 462.07,594.91 467.16,595.27 472.25,595.63 477.33,596.00 482.42,596.36 487.51,596.72 492.59,597.09 497.68,597.45 502.77,597.82 507.85,598.19 512.94,598.56 518.03,598.93 523.11,599.30 528.20,599.68 533.29,600.05 538.37,600.43 543.46,600.81 548.55,601.19 553.63,601.57 558.72,601.95 563.81,602.33 568.89,602.72 573.98,603.10 579.07,603.49 584.16,603.88 589.24,604.27 594.33,604.66 599.42,605.06 604.50,605.45 609.59,605.85 614.68,606.25 619.76,606.65 624.85,607.05 629.94,607.46 635.02,607.86 640.11,608.27 645.20,608.68 650.28,609.09 655.37,609.50 660.46,609.91 665.54,610.33 670.63,610.74 675.72,611.16 680.80,611.58 685.89,612.01 690.98,612.43 696.06,612.86 701.15,613.29 706.24,613.72 711.32,614.15 716.41,614.59 721.50,615.02 726.58,615.46 731.67,615.90 736.76,616.34 741.84,616.79 746.93,617.24 752.02,617.69 757.11,618.14 762.19,618.59 767.28,619.05 772.37,619.51 777.45,619.97 782.54,620.43 787.63,620.90 792.71,621.37 797.80,621.84 802.89,622.32 807.97,622.79 813.06,623.27 818.15,623.75 823.23,624.24 828.32,624.73 833.41,625.22 838.49,625.71 843.58,626.21 848.67,626.71 853.75,627.21 858.84,627.72 863.93,628.23 869.01,628.74 874.10,629.25 879.19,629.77 884.27,630.30 889.36,630.82 894.45,631.35 899.53,631.89 904.62,632.42 909.71,632.96 914.79,633.51 919.88,634.06 924.97,634.61 930.05,635.17 935.14,635.73 940.23,636.30 945.32,636.87 950.40,637.44 955.49,638.02 960.58,638.61 965.66,639.20 970.75,639.79 975.84,640.39 980.92,640.99 986.01,641.61 991.10,642.22 996.18,642.84 1001.27,643.47 1006.36,644.10 1011.44,644.74 1016.53,645.39 1021.62,646.04 1026.70,646.70 1031.79,647.37 1036.88,648.04 1041.96,648.73 1047.05,649.41 1052.14,650.11 1057.22,650.82 1062.31,651.53 1067.40,652.25 1072.48,652.99 1077.57,653.73 1082.66,654.48 1087.74,655.24 1092.83,656.01 1097.92,656.80 1103.00,657.59 1108.09,658.40 1113.18,659.22 1118.26,660.05 1123.35,660.90 1128.44,661.76 1133.53,662.64 1138.61,663.54 1143.70,664.45 1148.79,665.38 1153.87,666.33 1158.96,667.30 1164.05,668.29 1169.13,669.30 1174.22,670.34 1179.31,671.41 1184.39,672.51 1189.48,673.64 1194.57,674.80 1199.65,676.00 1204.74,677.25 1209.83,678.54 1214.91,679.88 1220.00,681.28"/>
<line x1="106.00" y1="606.00" x2="106.00" y2="896.00" stroke="#223445" stroke-width="1" opacity="0.8"/>
<text x="106.00" y="920.00" fill="#8aa3bc" font-size="13" text-anchor="middle" font-family="Helvetica, Arial, sans-serif">0.020</text>
<line x1="328.80" y1="606.00" x2="328.80" y2="896.00" stroke="#223445" stroke-width="1" opacity="0.8"/>
<text x="328.80" y="920.00" fill="#8aa3bc" font-size="13" text-anchor="middle" font-family="Helvetica, Arial, sans-serif">0.040</text>
<line x1="551.60" y1="606.00" x2="551.60" y2="896.00" stroke="#223445" stroke-width="1" opacity="0.8"/>
<text x="551.60" y="920.00" fill="#8aa3bc" font-size="13" text-anchor="middle" font-family="Helvetica, Arial, sans-serif">0.060</text>
<line x1="774.40" y1="606.00" x2="774.40" y2="896.00" stroke="#223445" stroke-width="1" opacity="0.8"/>
<text x="774.40" y="920.00" fill="#8aa3bc" font-size="13" text-anchor="middle" font-family="Helvetica, Arial, sans-serif">0.080</text>
<line x1="997.20" y1="606.00" x2="997.20" y2="896.00" stroke="#223445" stroke-width="1" opacity="0.8"/>
<text x="997.20" y="920.00" fill="#8aa3bc" font-size="13" text-anchor="middle" font-family="Helvetica, Arial, sans-serif">0.100</text>
<line x1="1220.00" y1="606.00" x2="1220.00" y2="896.00" stroke="#223445" stroke-width="1" opacity="0.8"/>
<text x="1220.00" y="920.00" fill="#8aa3bc" font-size="13" text-anchor="middle" font-family="Helvetica, Arial, sans-serif">0.120</text>
<line x1="106.00" y1="896.00" x2="1220.00" y2="896.00" stroke="#223445" stroke-width="1" opacity="0.8"/>
<text x="92.00" y="900.00" fill="#8aa3bc" font-size="13" text-anchor="end" font-family="Helvetica, Arial, sans-serif">0.15</text>
<line x1="106.00" y1="824.80" x2="1220.00" y2="824.80" stroke="#223445" stroke-width="1" opacity="0.8"/>
<text x="92.00" y="828.80" fill="#8aa3bc" font-size="13" text-anchor="end" font-family="Helvetica, Arial, sans-serif">0.33</text>
<line x1="106.00" y1="753.60" x2="1220.00" y2="753.60" stroke="#223445" stroke-width="1" opacity="0.8"/>
<text x="92.00" y="757.60" fill="#8aa3bc" font-size="13" text-anchor="end" font-family="Helvetica, Arial, sans-serif">0.51</text>
<line x1="106.00" y1="682.40" x2="1220.00" y2="682.40" stroke="#223445" stroke-width="1" opacity="0.8"/>
<text x="92.00" y="686.40" fill="#8aa3bc" font-size="13" text-anchor="end" font-family="Helvetica, Arial, sans-serif">0.69</text>
<line x1="106.00" y1="611.20" x2="1220.00" y2="611.20" stroke="#223445" stroke-width="1" opacity="0.8"/>
<text x="92.00" y="615.20" fill="#8aa3bc" font-size="13" text-anchor="end" font-family="Helvetica, Arial, sans-serif">0.87</text>
<line x1="106.00" y1="540.00" x2="1220.00" y2="540.00" stroke="#223445" stroke-width="1" opacity="0.8"/>
<text x="92.00" y="544.00" fill="#8aa3bc" font-size="13" text-anchor="end" font-family="Helvetica, Arial, sans-serif">1.05</text>
<text x="663.00" y="944.00" fill="#dce7f3" font-size="16" text-anchor="middle" font-family="Helvetica, Arial, sans-serif">a</text>
<text x="38.00" y="718.00" fill="#dce7f3" font-size="16" text-anchor="middle" transform="rotate(-90 38.00 718.00)" font-family="Helvetica, Arial, sans-serif">b</text>
<rect x="106.00" y="954.00" width="1114.00" height="356.00" rx="20" fill="#122131" stroke="#5e7fa3" stroke-width="2"/>
<text x="124.00" y="984.00" fill="#dce7f3" font-size="20" font-family="Helvetica, Arial, sans-serif" font-weight="700">estimated cycle period inside the oscillatory band</text>
<text x="124.00" y="1008.00" fill="#9fb3c8" font-size="14" font-family="Helvetica, Arial, sans-serif">Periods come from repeated x-peaks after transients decay. The band narrows as a approaches 1/8.</text>
<rect x="106.00" y="1291.26" width="101.67" height="19.14" fill="#0b1722" opacity="0.98"/>
<rect x="207.27" y="1291.26" width="101.67" height="19.14" fill="#0b1722" opacity="0.98"/>
<rect x="308.55" y="1291.26" width="101.67" height="19.14" fill="#0b1722" opacity="0.98"/>
<rect x="409.82" y="1291.26" width="101.67" height="19.14" fill="#0b1722" opacity="0.98"/>
<rect x="511.09" y="1291.26" width="101.67" height="19.14" fill="#0b1722" opacity="0.98"/>
<rect x="612.36" y="1291.26" width="101.67" height="19.14" fill="#0b1722" opacity="0.98"/>
<rect x="713.64" y="1291.26" width="101.67" height="19.14" fill="#0b1722" opacity="0.98"/>
<rect x="814.91" y="1291.26" width="101.67" height="19.14" fill="#0b1722" opacity="0.98"/>
<rect x="916.18" y="1291.26" width="101.67" height="19.14" fill="#0b1722" opacity="0.98"/>
<rect x="1017.45" y="1291.26" width="101.67" height="19.14" fill="#0b1722" opacity="0.98"/>
<rect x="1118.73" y="1291.26" width="101.67" height="19.14" fill="#0b1722" opacity="0.98"/>
<rect x="106.00" y="1272.53" width="101.67" height="19.14" fill="#bef264" opacity="0.98"/>
<rect x="207.27" y="1272.53" width="101.67" height="19.14" fill="#bef264" opacity="0.98"/>
<rect x="308.55" y="1272.53" width="101.67" height="19.14" fill="#0b1722" opacity="0.98"/>
<rect x="409.82" y="1272.53" width="101.67" height="19.14" fill="#0b1722" opacity="0.98"/>
<rect x="511.09" y="1272.53" width="101.67" height="19.14" fill="#0b1722" opacity="0.98"/>
<rect x="612.36" y="1272.53" width="101.67" height="19.14" fill="#0b1722" opacity="0.98"/>
<rect x="713.64" y="1272.53" width="101.67" height="19.14" fill="#0b1722" opacity="0.98"/>
<rect x="814.91" y="1272.53" width="101.67" height="19.14" fill="#0b1722" opacity="0.98"/>
<rect x="916.18" y="1272.53" width="101.67" height="19.14" fill="#0b1722" opacity="0.98"/>
<rect x="1017.45" y="1272.53" width="101.67" height="19.14" fill="#0b1722" opacity="0.98"/>
<rect x="1118.73" y="1272.53" width="101.67" height="19.14" fill="#0b1722" opacity="0.98"/>
<rect x="106.00" y="1253.79" width="101.67" height="19.14" fill="#bef264" opacity="0.98"/>
<rect x="207.27" y="1253.79" width="101.67" height="19.14" fill="#bef264" opacity="0.98"/>
<rect x="308.55" y="1253.79" width="101.67" height="19.14" fill="#bef264" opacity="0.98"/>
<rect x="409.82" y="1253.79" width="101.67" height="19.14" fill="#0b1722" opacity="0.98"/>
<rect x="511.09" y="1253.79" width="101.67" height="19.14" fill="#0b1722" opacity="0.98"/>
<rect x="612.36" y="1253.79" width="101.67" height="19.14" fill="#0b1722" opacity="0.98"/>
<rect x="713.64" y="1253.79" width="101.67" height="19.14" fill="#0b1722" opacity="0.98"/>
<rect x="814.91" y="1253.79" width="101.67" height="19.14" fill="#0b1722" opacity="0.98"/>
<rect x="916.18" y="1253.79" width="101.67" height="19.14" fill="#0b1722" opacity="0.98"/>
<rect x="1017.45" y="1253.79" width="101.67" height="19.14" fill="#0b1722" opacity="0.98"/>
<rect x="1118.73" y="1253.79" width="101.67" height="19.14" fill="#0b1722" opacity="0.98"/>
<rect x="106.00" y="1235.05" width="101.67" height="19.14" fill="#bef264" opacity="0.98"/>
<rect x="207.27" y="1235.05" width="101.67" height="19.14" fill="#bef264" opacity="0.98"/>
<rect x="308.55" y="1235.05" width="101.67" height="19.14" fill="#bae86c" opacity="0.98"/>
<rect x="409.82" y="1235.05" width="101.67" height="19.14" fill="#b7de73" opacity="0.98"/>
<rect x="511.09" y="1235.05" width="101.67" height="19.14" fill="#b1ce7f" opacity="0.98"/>
<rect x="612.36" y="1235.05" width="101.67" height="19.14" fill="#0b1722" opacity="0.98"/>
<rect x="713.64" y="1235.05" width="101.67" height="19.14" fill="#0b1722" opacity="0.98"/>
<rect x="814.91" y="1235.05" width="101.67" height="19.14" fill="#0b1722" opacity="0.98"/>
<rect x="916.18" y="1235.05" width="101.67" height="19.14" fill="#0b1722" opacity="0.98"/>
<rect x="1017.45" y="1235.05" width="101.67" height="19.14" fill="#0b1722" opacity="0.98"/>
<rect x="1118.73" y="1235.05" width="101.67" height="19.14" fill="#0b1722" opacity="0.98"/>
<rect x="106.00" y="1216.32" width="101.67" height="19.14" fill="#bbeb69" opacity="0.98"/>
<rect x="207.27" y="1216.32" width="101.67" height="19.14" fill="#b5d877" opacity="0.98"/>
<rect x="308.55" y="1216.32" width="101.67" height="19.14" fill="#b1ce7f" opacity="0.98"/>
<rect x="409.82" y="1216.32" width="101.67" height="19.14" fill="#aec784" opacity="0.98"/>
<rect x="511.09" y="1216.32" width="101.67" height="19.14" fill="#acc089" opacity="0.98"/>
<rect x="612.36" y="1216.32" width="101.67" height="19.14" fill="#a9b88f" opacity="0.98"/>
<rect x="713.64" y="1216.32" width="101.67" height="19.14" fill="#a6b095" opacity="0.98"/>
<rect x="814.91" y="1216.32" width="101.67" height="19.14" fill="#0b1722" opacity="0.98"/>
<rect x="916.18" y="1216.32" width="101.67" height="19.14" fill="#0b1722" opacity="0.98"/>
<rect x="1017.45" y="1216.32" width="101.67" height="19.14" fill="#0b1722" opacity="0.98"/>
<rect x="1118.73" y="1216.32" width="101.67" height="19.14" fill="#0b1722" opacity="0.98"/>
<rect x="106.00" y="1197.58" width="101.67" height="19.14" fill="#b5d877" opacity="0.98"/>
<rect x="207.27" y="1197.58" width="101.67" height="19.14" fill="#aec685" opacity="0.98"/>
<rect x="308.55" y="1197.58" width="101.67" height="19.14" fill="#aabb8d" opacity="0.98"/>
<rect x="409.82" y="1197.58" width="101.67" height="19.14" fill="#a8b492" opacity="0.98"/>
<rect x="511.09" y="1197.58" width="101.67" height="19.14" fill="#a6af96" opacity="0.98"/>
<rect x="612.36" y="1197.58" width="101.67" height="19.14" fill="#a4aa99" opacity="0.98"/>
<rect x="713.64" y="1197.58" width="101.67" height="19.14" fill="#a3a69d" opacity="0.98"/>
<rect x="814.91" y="1197.58" width="101.67" height="19.14" fill="#a1a1a0" opacity="0.98"/>
<rect x="916.18" y="1197.58" width="101.67" height="19.14" fill="#0b1722" opacity="0.98"/>
<rect x="1017.45" y="1197.58" width="101.67" height="19.14" fill="#0b1722" opacity="0.98"/>
<rect x="1118.73" y="1197.58" width="101.67" height="19.14" fill="#0b1722" opacity="0.98"/>
<rect x="106.00" y="1178.84" width="101.67" height="19.14" fill="#afc982" opacity="0.98"/>
<rect x="207.27" y="1178.84" width="101.67" height="19.14" fill="#a9b790" opacity="0.98"/>
<rect x="308.55" y="1178.84" width="101.67" height="19.14" fill="#a5ad98" opacity="0.98"/>
<rect x="409.82" y="1178.84" width="101.67" height="19.14" fill="#a3a59d" opacity="0.98"/>
<rect x="511.09" y="1178.84" width="101.67" height="19.14" fill="#a1a0a1" opacity="0.98"/>
<rect x="612.36" y="1178.84" width="101.67" height="19.14" fill="#9f9da4" opacity="0.98"/>
<rect x="713.64" y="1178.84" width="101.67" height="19.14" fill="#9e99a6" opacity="0.98"/>
<rect x="814.91" y="1178.84" width="101.67" height="19.14" fill="#9d96a8" opacity="0.98"/>
<rect x="916.18" y="1178.84" width="101.67" height="19.14" fill="#9c93ab" opacity="0.98"/>
<rect x="1017.45" y="1178.84" width="101.67" height="19.14" fill="#0b1722" opacity="0.98"/>
<rect x="1118.73" y="1178.84" width="101.67" height="19.14" fill="#0b1722" opacity="0.98"/>
<rect x="106.00" y="1160.11" width="101.67" height="19.14" fill="#abbd8b" opacity="0.98"/>
<rect x="207.27" y="1160.11" width="101.67" height="19.14" fill="#a5ac98" opacity="0.98"/>
<rect x="308.55" y="1160.11" width="101.67" height="19.14" fill="#a1a1a0" opacity="0.98"/>
<rect x="409.82" y="1160.11" width="101.67" height="19.14" fill="#9e9aa6" opacity="0.98"/>
<rect x="511.09" y="1160.11" width="101.67" height="19.14" fill="#9d95a9" opacity="0.98"/>
<rect x="612.36" y="1160.11" width="101.67" height="19.14" fill="#9b91ac" opacity="0.98"/>
<rect x="713.64" y="1160.11" width="101.67" height="19.14" fill="#9a8eae" opacity="0.98"/>
<rect x="814.91" y="1160.11" width="101.67" height="19.14" fill="#998cb0" opacity="0.98"/>
<rect x="916.18" y="1160.11" width="101.67" height="19.14" fill="#9889b2" opacity="0.98"/>
<rect x="1017.45" y="1160.11" width="101.67" height="19.14" fill="#9887b3" opacity="0.98"/>
<rect x="1118.73" y="1160.11" width="101.67" height="19.14" fill="#0b1722" opacity="0.98"/>
<rect x="106.00" y="1141.37" width="101.67" height="19.14" fill="#a8b492" opacity="0.98"/>
<rect x="207.27" y="1141.37" width="101.67" height="19.14" fill="#a1a29f" opacity="0.98"/>
<rect x="308.55" y="1141.37" width="101.67" height="19.14" fill="#9e98a7" opacity="0.98"/>
<rect x="409.82" y="1141.37" width="101.67" height="19.14" fill="#9b91ad" opacity="0.98"/>
<rect x="511.09" y="1141.37" width="101.67" height="19.14" fill="#998bb0" opacity="0.98"/>
<rect x="612.36" y="1141.37" width="101.67" height="19.14" fill="#9888b3" opacity="0.98"/>
<rect x="713.64" y="1141.37" width="101.67" height="19.14" fill="#9785b5" opacity="0.98"/>
<rect x="814.91" y="1141.37" width="101.67" height="19.14" fill="#9682b7" opacity="0.98"/>
<rect x="916.18" y="1141.37" width="101.67" height="19.14" fill="#9580b9" opacity="0.98"/>
<rect x="1017.45" y="1141.37" width="101.67" height="19.14" fill="#957fba" opacity="0.98"/>
<rect x="1118.73" y="1141.37" width="101.67" height="19.14" fill="#947dbb" opacity="0.98"/>
<rect x="106.00" y="1122.63" width="101.67" height="19.14" fill="#a5ab99" opacity="0.98"/>
<rect x="207.27" y="1122.63" width="101.67" height="19.14" fill="#9f9aa5" opacity="0.98"/>
<rect x="308.55" y="1122.63" width="101.67" height="19.14" fill="#9b90ad" opacity="0.98"/>
<rect x="409.82" y="1122.63" width="101.67" height="19.14" fill="#9888b3" opacity="0.98"/>
<rect x="511.09" y="1122.63" width="101.67" height="19.14" fill="#9683b6" opacity="0.98"/>
<rect x="612.36" y="1122.63" width="101.67" height="19.14" fill="#957fb9" opacity="0.98"/>
<rect x="713.64" y="1122.63" width="101.67" height="19.14" fill="#947cbc" opacity="0.98"/>
<rect x="814.91" y="1122.63" width="101.67" height="19.14" fill="#937abd" opacity="0.98"/>
<rect x="916.18" y="1122.63" width="101.67" height="19.14" fill="#9278bf" opacity="0.98"/>
<rect x="1017.45" y="1122.63" width="101.67" height="19.14" fill="#9276c0" opacity="0.98"/>
<rect x="1118.73" y="1122.63" width="101.67" height="19.14" fill="#9175c1" opacity="0.98"/>
<rect x="106.00" y="1103.89" width="101.67" height="19.14" fill="#a2a49e" opacity="0.98"/>
<rect x="207.27" y="1103.89" width="101.67" height="19.14" fill="#9c93ab" opacity="0.98"/>
<rect x="308.55" y="1103.89" width="101.67" height="19.14" fill="#9888b3" opacity="0.98"/>
<rect x="409.82" y="1103.89" width="101.67" height="19.14" fill="#9581b8" opacity="0.98"/>
<rect x="511.09" y="1103.89" width="101.67" height="19.14" fill="#947cbc" opacity="0.98"/>
<rect x="612.36" y="1103.89" width="101.67" height="19.14" fill="#9278bf" opacity="0.98"/>
<rect x="713.64" y="1103.89" width="101.67" height="19.14" fill="#9175c1" opacity="0.98"/>
<rect x="814.91" y="1103.89" width="101.67" height="19.14" fill="#9073c3" opacity="0.98"/>
<rect x="916.18" y="1103.89" width="101.67" height="19.14" fill="#9071c4" opacity="0.98"/>
<rect x="1017.45" y="1103.89" width="101.67" height="19.14" fill="#8f6fc5" opacity="0.98"/>
<rect x="1118.73" y="1103.89" width="101.67" height="19.14" fill="#8f6ec6" opacity="0.98"/>
<rect x="106.00" y="1085.16" width="101.67" height="19.14" fill="#a09ea3" opacity="0.98"/>
<rect x="207.27" y="1085.16" width="101.67" height="19.14" fill="#998cb0" opacity="0.98"/>
<rect x="308.55" y="1085.16" width="101.67" height="19.14" fill="#9581b8" opacity="0.98"/>
<rect x="409.82" y="1085.16" width="101.67" height="19.14" fill="#937abe" opacity="0.98"/>
<rect x="511.09" y="1085.16" width="101.67" height="19.14" fill="#9174c1" opacity="0.98"/>
<rect x="612.36" y="1085.16" width="101.67" height="19.14" fill="#9071c4" opacity="0.98"/>
<rect x="713.64" y="1085.16" width="101.67" height="19.14" fill="#8f6ec6" opacity="0.98"/>
<rect x="814.91" y="1085.16" width="101.67" height="19.14" fill="#8e6bc8" opacity="0.98"/>
<rect x="916.18" y="1085.16" width="101.67" height="19.14" fill="#8d6aca" opacity="0.98"/>
<rect x="1017.45" y="1085.16" width="101.67" height="19.14" fill="#8d68cb" opacity="0.98"/>
<rect x="1118.73" y="1085.16" width="101.67" height="19.14" fill="#0b1722" opacity="0.98"/>
<rect x="106.00" y="1066.42" width="101.67" height="19.14" fill="#9d96a8" opacity="0.98"/>
<rect x="207.27" y="1066.42" width="101.67" height="19.14" fill="#9684b6" opacity="0.98"/>
<rect x="308.55" y="1066.42" width="101.67" height="19.14" fill="#9279be" opacity="0.98"/>
<rect x="409.82" y="1066.42" width="101.67" height="19.14" fill="#9072c4" opacity="0.98"/>
<rect x="511.09" y="1066.42" width="101.67" height="19.14" fill="#8e6dc7" opacity="0.98"/>
<rect x="612.36" y="1066.42" width="101.67" height="19.14" fill="#8d69ca" opacity="0.98"/>
<rect x="713.64" y="1066.42" width="101.67" height="19.14" fill="#8c67cc" opacity="0.98"/>
<rect x="814.91" y="1066.42" width="101.67" height="19.14" fill="#8b64cd" opacity="0.98"/>
<rect x="916.18" y="1066.42" width="101.67" height="19.14" fill="#8b63cf" opacity="0.98"/>
<rect x="1017.45" y="1066.42" width="101.67" height="19.14" fill="#8a61d0" opacity="0.98"/>
<rect x="1118.73" y="1066.42" width="101.67" height="19.14" fill="#0b1722" opacity="0.98"/>
<rect x="106.00" y="1047.68" width="101.67" height="19.14" fill="#998ab1" opacity="0.98"/>
<rect x="207.27" y="1047.68" width="101.67" height="19.14" fill="#9278bf" opacity="0.98"/>
<rect x="308.55" y="1047.68" width="101.67" height="19.14" fill="#8f6fc6" opacity="0.98"/>
<rect x="409.82" y="1047.68" width="101.67" height="19.14" fill="#8d69ca" opacity="0.98"/>
<rect x="511.09" y="1047.68" width="101.67" height="19.14" fill="#8b65cd" opacity="0.98"/>
<rect x="612.36" y="1047.68" width="101.67" height="19.14" fill="#8a62d0" opacity="0.98"/>
<rect x="713.64" y="1047.68" width="101.67" height="19.14" fill="#895fd1" opacity="0.98"/>
<rect x="814.91" y="1047.68" width="101.67" height="19.14" fill="#895dd3" opacity="0.98"/>
<rect x="916.18" y="1047.68" width="101.67" height="19.14" fill="#0b1722" opacity="0.98"/>
<rect x="1017.45" y="1047.68" width="101.67" height="19.14" fill="#0b1722" opacity="0.98"/>
<rect x="1118.73" y="1047.68" width="101.67" height="19.14" fill="#0b1722" opacity="0.98"/>
<rect x="106.00" y="1028.95" width="101.67" height="19.14" fill="#9175c1" opacity="0.98"/>
<rect x="207.27" y="1028.95" width="101.67" height="19.14" fill="#8d6aca" opacity="0.98"/>
<rect x="308.55" y="1028.95" width="101.67" height="19.14" fill="#8b63ce" opacity="0.98"/>
<rect x="409.82" y="1028.95" width="101.67" height="19.14" fill="#895fd2" opacity="0.98"/>
<rect x="511.09" y="1028.95" width="101.67" height="19.14" fill="#885cd4" opacity="0.98"/>
<rect x="612.36" y="1028.95" width="101.67" height="19.14" fill="#875ad6" opacity="0.98"/>
<rect x="713.64" y="1028.95" width="101.67" height="19.14" fill="#0b1722" opacity="0.98"/>
<rect x="814.91" y="1028.95" width="101.67" height="19.14" fill="#0b1722" opacity="0.98"/>
<rect x="916.18" y="1028.95" width="101.67" height="19.14" fill="#0b1722" opacity="0.98"/>
<rect x="1017.45" y="1028.95" width="101.67" height="19.14" fill="#0b1722" opacity="0.98"/>
<rect x="1118.73" y="1028.95" width="101.67" height="19.14" fill="#0b1722" opacity="0.98"/>
<rect x="106.00" y="1010.21" width="101.67" height="19.14" fill="#8a61d0" opacity="0.98"/>
<rect x="207.27" y="1010.21" width="101.67" height="19.14" fill="#885cd4" opacity="0.98"/>
<rect x="308.55" y="1010.21" width="101.67" height="19.14" fill="#8758d7" opacity="0.98"/>
<rect x="409.82" y="1010.21" width="101.67" height="19.14" fill="#8655d9" opacity="0.98"/>
<rect x="511.09" y="1010.21" width="101.67" height="19.14" fill="#0b1722" opacity="0.98"/>
<rect x="612.36" y="1010.21" width="101.67" height="19.14" fill="#0b1722" opacity="0.98"/>
<rect x="713.64" y="1010.21" width="101.67" height="19.14" fill="#0b1722" opacity="0.98"/>
<rect x="814.91" y="1010.21" width="101.67" height="19.14" fill="#0b1722" opacity="0.98"/>
<rect x="916.18" y="1010.21" width="101.67" height="19.14" fill="#0b1722" opacity="0.98"/>
<rect x="1017.45" y="1010.21" width="101.67" height="19.14" fill="#0b1722" opacity="0.98"/>
<rect x="1118.73" y="1010.21" width="101.67" height="19.14" fill="#0b1722" opacity="0.98"/>
<rect x="106.00" y="991.47" width="101.67" height="19.14" fill="#8553da" opacity="0.98"/>
<rect x="207.27" y="991.47" width="101.67" height="19.14" fill="#8450dc" opacity="0.98"/>
<rect x="308.55" y="991.47" width="101.67" height="19.14" fill="#0b1722" opacity="0.98"/>
<rect x="409.82" y="991.47" width="101.67" height="19.14" fill="#0b1722" opacity="0.98"/>
<rect x="511.09" y="991.47" width="101.67" height="19.14" fill="#0b1722" opacity="0.98"/>
<rect x="612.36" y="991.47" width="101.67" height="19.14" fill="#0b1722" opacity="0.98"/>
<rect x="713.64" y="991.47" width="101.67" height="19.14" fill="#0b1722" opacity="0.98"/>
<rect x="814.91" y="991.47" width="101.67" height="19.14" fill="#0b1722" opacity="0.98"/>
<rect x="916.18" y="991.47" width="101.67" height="19.14" fill="#0b1722" opacity="0.98"/>
<rect x="1017.45" y="991.47" width="101.67" height="19.14" fill="#0b1722" opacity="0.98"/>
<rect x="1118.73" y="991.47" width="101.67" height="19.14" fill="#0b1722" opacity="0.98"/>
<rect x="106.00" y="972.74" width="101.67" height="19.14" fill="#0b1722" opacity="0.98"/>
<rect x="207.27" y="972.74" width="101.67" height="19.14" fill="#0b1722" opacity="0.98"/>
<rect x="308.55" y="972.74" width="101.67" height="19.14" fill="#0b1722" opacity="0.98"/>
<rect x="409.82" y="972.74" width="101.67" height="19.14" fill="#0b1722" opacity="0.98"/>
<rect x="511.09" y="972.74" width="101.67" height="19.14" fill="#0b1722" opacity="0.98"/>
<rect x="612.36" y="972.74" width="101.67" height="19.14" fill="#0b1722" opacity="0.98"/>
<rect x="713.64" y="972.74" width="101.67" height="19.14" fill="#0b1722" opacity="0.98"/>
<rect x="814.91" y="972.74" width="101.67" height="19.14" fill="#0b1722" opacity="0.98"/>
<rect x="916.18" y="972.74" width="101.67" height="19.14" fill="#0b1722" opacity="0.98"/>
<rect x="1017.45" y="972.74" width="101.67" height="19.14" fill="#0b1722" opacity="0.98"/>
<rect x="1118.73" y="972.74" width="101.67" height="19.14" fill="#0b1722" opacity="0.98"/>
<rect x="106.00" y="954.00" width="101.67" height="19.14" fill="#0b1722" opacity="0.98"/>
<rect x="207.27" y="954.00" width="101.67" height="19.14" fill="#0b1722" opacity="0.98"/>
<rect x="308.55" y="954.00" width="101.67" height="19.14" fill="#0b1722" opacity="0.98"/>
<rect x="409.82" y="954.00" width="101.67" height="19.14" fill="#0b1722" opacity="0.98"/>
<rect x="511.09" y="954.00" width="101.67" height="19.14" fill="#0b1722" opacity="0.98"/>
<rect x="612.36" y="954.00" width="101.67" height="19.14" fill="#0b1722" opacity="0.98"/>
<rect x="713.64" y="954.00" width="101.67" height="19.14" fill="#0b1722" opacity="0.98"/>
<rect x="814.91" y="954.00" width="101.67" height="19.14" fill="#0b1722" opacity="0.98"/>
<rect x="916.18" y="954.00" width="101.67" height="19.14" fill="#0b1722" opacity="0.98"/>
<rect x="1017.45" y="954.00" width="101.67" height="19.14" fill="#0b1722" opacity="0.98"/>
<rect x="1118.73" y="954.00" width="101.67" height="19.14" fill="#0b1722" opacity="0.98"/>
<polyline fill="none" stroke="#fbbf24" stroke-width="3.2" stroke-linejoin="round" stroke-linecap="round" points="116.17,1309.57 121.26,1308.86 126.35,1308.16 131.43,1307.46 136.52,1306.76 141.61,1306.08 146.69,1305.39 151.78,1304.71 156.87,1304.04 161.95,1303.36 167.04,1302.70 172.13,1302.03 177.21,1301.37 182.30,1300.72 187.39,1300.06 192.47,1299.41 197.56,1298.77 202.65,1298.13 207.74,1297.49 212.82,1296.85 217.91,1296.22 223.00,1295.58 228.08,1294.96 233.17,1294.33 238.26,1293.71 243.34,1293.09 248.43,1292.47 253.52,1291.85 258.60,1291.24 263.69,1290.62 268.78,1290.01 273.86,1289.41 278.95,1288.80 284.04,1288.20 289.12,1287.59 294.21,1286.99 299.30,1286.40 304.38,1285.80 309.47,1285.20 314.56,1284.61 319.64,1284.02 324.73,1283.42 329.82,1282.83 334.90,1282.25 339.99,1281.66 345.08,1281.07 350.16,1280.49 355.25,1279.90 360.34,1279.32 365.42,1278.74 370.51,1278.16 375.60,1277.58 380.68,1277.00 385.77,1276.42 390.86,1275.85 395.95,1275.27 401.03,1274.69 406.12,1274.12 411.21,1273.55 416.29,1272.97 421.38,1272.40 426.47,1271.83 431.55,1271.26 436.64,1270.68 441.73,1270.11 446.81,1269.54 451.90,1268.97 456.99,1268.40 462.07,1267.84 467.16,1267.27 472.25,1266.70 477.33,1266.13 482.42,1265.56 487.51,1264.99 492.59,1264.43 497.68,1263.86 502.77,1263.29 507.85,1262.72 512.94,1262.16 518.03,1261.59 523.11,1261.02 528.20,1260.45 533.29,1259.89 538.37,1259.32 543.46,1258.75 548.55,1258.18 553.63,1257.61 558.72,1257.05 563.81,1256.48 568.89,1255.91 573.98,1255.34 579.07,1254.77 584.16,1254.20 589.24,1253.63 594.33,1253.06 599.42,1252.49 604.50,1251.91 609.59,1251.34 614.68,1250.77 619.76,1250.20 624.85,1249.62 629.94,1249.05 635.02,1248.47 640.11,1247.89 645.20,1247.32 650.28,1246.74 655.37,1246.16 660.46,1245.58 665.54,1245.00 670.63,1244.42 675.72,1243.84 680.80,1243.25 685.89,1242.67 690.98,1242.09 696.06,1241.50 701.15,1240.91 706.24,1240.32 711.32,1239.73 716.41,1239.14 721.50,1238.55 726.58,1237.96 731.67,1237.36 736.76,1236.77 741.84,1236.17 746.93,1235.57 752.02,1234.97 757.11,1234.37 762.19,1233.76 767.28,1233.16 772.37,1232.55 777.45,1231.94 782.54,1231.33 787.63,1230.72 792.71,1230.11 797.80,1229.49 802.89,1228.87 807.97,1228.25 813.06,1227.63 818.15,1227.01 823.23,1226.38 828.32,1225.76 833.41,1225.13 838.49,1224.49 843.58,1223.86 848.67,1223.22 853.75,1222.58 858.84,1221.94 863.93,1221.29 869.01,1220.65 874.10,1220.00 879.19,1219.34 884.27,1218.69 889.36,1218.03 894.45,1217.37 899.53,1216.70 904.62,1216.03 909.71,1215.36 914.79,1214.69 919.88,1214.01 924.97,1213.33 930.05,1212.64 935.14,1211.95 940.23,1211.26 945.32,1210.56 950.40,1209.86 955.49,1209.16 960.58,1208.45 965.66,1207.73 970.75,1207.02 975.84,1206.29 980.92,1205.57 986.01,1204.83 991.10,1204.10 996.18,1203.35 1001.27,1202.60 1006.36,1201.85 1011.44,1201.09 1016.53,1200.33 1021.62,1199.55 1026.70,1198.78 1031.79,1197.99 1036.88,1197.20 1041.96,1196.40 1047.05,1195.60 1052.14,1194.78 1057.22,1193.96 1062.31,1193.13 1067.40,1192.30 1072.48,1191.45 1077.57,1190.60 1082.66,1189.73 1087.74,1188.86 1092.83,1187.97 1097.92,1187.08 1103.00,1186.17 1108.09,1185.25 1113.18,1184.32 1118.26,1183.38 1123.35,1182.42 1128.44,1181.45 1133.53,1180.46 1138.61,1179.46 1143.70,1178.44 1148.79,1177.40 1153.87,1176.34 1158.96,1175.27 1164.05,1174.17 1169.13,1173.05 1174.22,1171.90 1179.31,1170.73 1184.39,1169.52 1189.48,1168.29 1194.57,1167.02 1199.65,1165.72 1204.74,1164.37 1209.83,1162.97 1214.91,1161.53 1220.00,1160.03"/>
<polyline fill="none" stroke="#fbbf24" stroke-width="3.2" stroke-linejoin="round" stroke-linecap="round" points="106.00,986.18 111.09,986.48 116.17,986.78 121.26,987.08 126.35,987.38 131.43,987.68 136.52,987.98 141.61,988.28 146.69,988.58 151.78,988.88 156.87,989.18 161.95,989.49 167.04,989.79 172.13,990.10 177.21,990.41 182.30,990.71 187.39,991.02 192.47,991.33 197.56,991.64 202.65,991.95 207.74,992.26 212.82,992.57 217.91,992.88 223.00,993.19 228.08,993.51 233.17,993.82 238.26,994.14 243.34,994.45 248.43,994.77 253.52,995.09 258.60,995.41 263.69,995.73 268.78,996.05 273.86,996.37 278.95,996.69 284.04,997.01 289.12,997.34 294.21,997.66 299.30,997.99 304.38,998.31 309.47,998.64 314.56,998.97 319.64,999.30 324.73,999.63 329.82,999.96 334.90,1000.29 339.99,1000.62 345.08,1000.96 350.16,1001.29 355.25,1001.63 360.34,1001.97 365.42,1002.30 370.51,1002.64 375.60,1002.98 380.68,1003.32 385.77,1003.66 390.86,1004.01 395.95,1004.35 401.03,1004.69 406.12,1005.04 411.21,1005.39 416.29,1005.73 421.38,1006.08 426.47,1006.43 431.55,1006.78 436.64,1007.14 441.73,1007.49 446.81,1007.84 451.90,1008.20 456.99,1008.56 462.07,1008.91 467.16,1009.27 472.25,1009.63 477.33,1010.00 482.42,1010.36 487.51,1010.72 492.59,1011.09 497.68,1011.45 502.77,1011.82 507.85,1012.19 512.94,1012.56 518.03,1012.93 523.11,1013.30 528.20,1013.68 533.29,1014.05 538.37,1014.43 543.46,1014.81 548.55,1015.19 553.63,1015.57 558.72,1015.95 563.81,1016.33 568.89,1016.72 573.98,1017.10 579.07,1017.49 584.16,1017.88 589.24,1018.27 594.33,1018.66 599.42,1019.06 604.50,1019.45 609.59,1019.85 614.68,1020.25 619.76,1020.65 624.85,1021.05 629.94,1021.46 635.02,1021.86 640.11,1022.27 645.20,1022.68 650.28,1023.09 655.37,1023.50 660.46,1023.91 665.54,1024.33 670.63,1024.74 675.72,1025.16 680.80,1025.58 685.89,1026.01 690.98,1026.43 696.06,1026.86 701.15,1027.29 706.24,1027.72 711.32,1028.15 716.41,1028.59 721.50,1029.02 726.58,1029.46 731.67,1029.90 736.76,1030.34 741.84,1030.79 746.93,1031.24 752.02,1031.69 757.11,1032.14 762.19,1032.59 767.28,1033.05 772.37,1033.51 777.45,1033.97 782.54,1034.43 787.63,1034.90 792.71,1035.37 797.80,1035.84 802.89,1036.32 807.97,1036.79 813.06,1037.27 818.15,1037.75 823.23,1038.24 828.32,1038.73 833.41,1039.22 838.49,1039.71 843.58,1040.21 848.67,1040.71 853.75,1041.21 858.84,1041.72 863.93,1042.23 869.01,1042.74 874.10,1043.25 879.19,1043.77 884.27,1044.30 889.36,1044.82 894.45,1045.35 899.53,1045.89 904.62,1046.42 909.71,1046.96 914.79,1047.51 919.88,1048.06 924.97,1048.61 930.05,1049.17 935.14,1049.73 940.23,1050.30 945.32,1050.87 950.40,1051.44 955.49,1052.02 960.58,1052.61 965.66,1053.20 970.75,1053.79 975.84,1054.39 980.92,1054.99 986.01,1055.61 991.10,1056.22 996.18,1056.84 1001.27,1057.47 1006.36,1058.10 1011.44,1058.74 1016.53,1059.39 1021.62,1060.04 1026.70,1060.70 1031.79,1061.37 1036.88,1062.04 1041.96,1062.73 1047.05,1063.41 1052.14,1064.11 1057.22,1064.82 1062.31,1065.53 1067.40,1066.25 1072.48,1066.99 1077.57,1067.73 1082.66,1068.48 1087.74,1069.24 1092.83,1070.01 1097.92,1070.80 1103.00,1071.59 1108.09,1072.40 1113.18,1073.22 1118.26,1074.05 1123.35,1074.90 1128.44,1075.76 1133.53,1076.64 1138.61,1077.54 1143.70,1078.45 1148.79,1079.38 1153.87,1080.33 1158.96,1081.30 1164.05,1082.29 1169.13,1083.30 1174.22,1084.34 1179.31,1085.41 1184.39,1086.51 1189.48,1087.64 1194.57,1088.80 1199.65,1090.00 1204.74,1091.25 1209.83,1092.54 1214.91,1093.88 1220.00,1095.28"/>
<line x1="106.00" y1="1020.00" x2="106.00" y2="1310.00" stroke="#223445" stroke-width="1" opacity="0.8"/>
<text x="106.00" y="1334.00" fill="#8aa3bc" font-size="13" text-anchor="middle" font-family="Helvetica, Arial, sans-serif">0.020</text>
<line x1="328.80" y1="1020.00" x2="328.80" y2="1310.00" stroke="#223445" stroke-width="1" opacity="0.8"/>
<text x="328.80" y="1334.00" fill="#8aa3bc" font-size="13" text-anchor="middle" font-family="Helvetica, Arial, sans-serif">0.040</text>
<line x1="551.60" y1="1020.00" x2="551.60" y2="1310.00" stroke="#223445" stroke-width="1" opacity="0.8"/>
<text x="551.60" y="1334.00" fill="#8aa3bc" font-size="13" text-anchor="middle" font-family="Helvetica, Arial, sans-serif">0.060</text>
<line x1="774.40" y1="1020.00" x2="774.40" y2="1310.00" stroke="#223445" stroke-width="1" opacity="0.8"/>
<text x="774.40" y="1334.00" fill="#8aa3bc" font-size="13" text-anchor="middle" font-family="Helvetica, Arial, sans-serif">0.080</text>
<line x1="997.20" y1="1020.00" x2="997.20" y2="1310.00" stroke="#223445" stroke-width="1" opacity="0.8"/>
<text x="997.20" y="1334.00" fill="#8aa3bc" font-size="13" text-anchor="middle" font-family="Helvetica, Arial, sans-serif">0.100</text>
<line x1="1220.00" y1="1020.00" x2="1220.00" y2="1310.00" stroke="#223445" stroke-width="1" opacity="0.8"/>
<text x="1220.00" y="1334.00" fill="#8aa3bc" font-size="13" text-anchor="middle" font-family="Helvetica, Arial, sans-serif">0.120</text>
<line x1="106.00" y1="1310.00" x2="1220.00" y2="1310.00" stroke="#223445" stroke-width="1" opacity="0.8"/>
<text x="92.00" y="1314.00" fill="#8aa3bc" font-size="13" text-anchor="end" font-family="Helvetica, Arial, sans-serif">0.15</text>
<line x1="106.00" y1="1238.80" x2="1220.00" y2="1238.80" stroke="#223445" stroke-width="1" opacity="0.8"/>
<text x="92.00" y="1242.80" fill="#8aa3bc" font-size="13" text-anchor="end" font-family="Helvetica, Arial, sans-serif">0.33</text>
<line x1="106.00" y1="1167.60" x2="1220.00" y2="1167.60" stroke="#223445" stroke-width="1" opacity="0.8"/>
<text x="92.00" y="1171.60" fill="#8aa3bc" font-size="13" text-anchor="end" font-family="Helvetica, Arial, sans-serif">0.51</text>
<line x1="106.00" y1="1096.40" x2="1220.00" y2="1096.40" stroke="#223445" stroke-width="1" opacity="0.8"/>
<text x="92.00" y="1100.40" fill="#8aa3bc" font-size="13" text-anchor="end" font-family="Helvetica, Arial, sans-serif">0.69</text>
<line x1="106.00" y1="1025.20" x2="1220.00" y2="1025.20" stroke="#223445" stroke-width="1" opacity="0.8"/>
<text x="92.00" y="1029.20" fill="#8aa3bc" font-size="13" text-anchor="end" font-family="Helvetica, Arial, sans-serif">0.87</text>
<line x1="106.00" y1="954.00" x2="1220.00" y2="954.00" stroke="#223445" stroke-width="1" opacity="0.8"/>
<text x="92.00" y="958.00" fill="#8aa3bc" font-size="13" text-anchor="end" font-family="Helvetica, Arial, sans-serif">1.05</text>
<text x="663.00" y="1358.00" fill="#dce7f3" font-size="16" text-anchor="middle" font-family="Helvetica, Arial, sans-serif">a</text>
<text x="38.00" y="1132.00" fill="#dce7f3" font-size="16" text-anchor="middle" transform="rotate(-90 38.00 1132.00)" font-family="Helvetica, Arial, sans-serif">b</text>
<defs>
<linearGradient id="legend-local-side-1248-220" x1="0" y1="1" x2="0" y2="0">
  <stop offset="0.0%" stop-color="#2563eb"/>
  <stop offset="100.0%" stop-color="#fb7185"/>
</linearGradient>
</defs>
<rect x="1248.00" y="220.00" width="34.00" height="210.00" rx="12" fill="url(#legend-local-side-1248-220)" stroke="#5e7fa3" stroke-width="1.5"/>
<text x="1248.00" y="206.00" fill="#dce7f3" font-size="14" font-family="Helvetica, Arial, sans-serif">local side</text>
<line x1="1286.00" y1="430.00" x2="1292.00" y2="430.00" stroke="#dce7f3" stroke-width="1.2"/>
<text x="1296.00" y="434.00" fill="#9fb3c8" font-size="12" font-family="Helvetica, Arial, sans-serif">stable</text>
<line x1="1286.00" y1="325.00" x2="1292.00" y2="325.00" stroke="#dce7f3" stroke-width="1.2"/>
<text x="1296.00" y="329.00" fill="#9fb3c8" font-size="12" font-family="Helvetica, Arial, sans-serif">Hopf edge</text>
<line x1="1286.00" y1="220.00" x2="1292.00" y2="220.00" stroke="#dce7f3" stroke-width="1.2"/>
<text x="1296.00" y="224.00" fill="#9fb3c8" font-size="12" font-family="Helvetica, Arial, sans-serif">inside band</text>
<defs>
<linearGradient id="legend-x-amplitude--95--cap-1248-658" x1="0" y1="1" x2="0" y2="0">
  <stop offset="0.0%" stop-color="#0b1722"/>
  <stop offset="50.0%" stop-color="#0f766e"/>
  <stop offset="100.0%" stop-color="#fde68a"/>
</linearGradient>
</defs>
<rect x="1248.00" y="658.00" width="34.00" height="210.00" rx="12" fill="url(#legend-x-amplitude--95--cap-1248-658)" stroke="#5e7fa3" stroke-width="1.5"/>
<text x="1248.00" y="644.00" fill="#dce7f3" font-size="14" font-family="Helvetica, Arial, sans-serif">x amplitude (95% cap)</text>
<line x1="1286.00" y1="868.00" x2="1292.00" y2="868.00" stroke="#dce7f3" stroke-width="1.2"/>
<text x="1296.00" y="872.00" fill="#9fb3c8" font-size="12" font-family="Helvetica, Arial, sans-serif">0.00</text>
<line x1="1286.00" y1="763.00" x2="1292.00" y2="763.00" stroke="#dce7f3" stroke-width="1.2"/>
<text x="1296.00" y="767.00" fill="#9fb3c8" font-size="12" font-family="Helvetica, Arial, sans-serif">0.97</text>
<line x1="1286.00" y1="658.00" x2="1292.00" y2="658.00" stroke="#dce7f3" stroke-width="1.2"/>
<text x="1296.00" y="662.00" fill="#9fb3c8" font-size="12" font-family="Helvetica, Arial, sans-serif">1.94</text>
<defs>
<linearGradient id="legend-period--95--cap-1248-1072" x1="0" y1="1" x2="0" y2="0">
  <stop offset="0.0%" stop-color="#0b1722"/>
  <stop offset="50.0%" stop-color="#7c3aed"/>
  <stop offset="100.0%" stop-color="#bef264"/>
</linearGradient>
</defs>
<rect x="1248.00" y="1072.00" width="34.00" height="210.00" rx="12" fill="url(#legend-period--95--cap-1248-1072)" stroke="#5e7fa3" stroke-width="1.5"/>
<text x="1248.00" y="1058.00" fill="#dce7f3" font-size="14" font-family="Helvetica, Arial, sans-serif">period (95% cap)</text>
<line x1="1286.00" y1="1282.00" x2="1292.00" y2="1282.00" stroke="#dce7f3" stroke-width="1.2"/>
<text x="1296.00" y="1286.00" fill="#9fb3c8" font-size="12" font-family="Helvetica, Arial, sans-serif">0.0</text>
<line x1="1286.00" y1="1177.00" x2="1292.00" y2="1177.00" stroke="#dce7f3" stroke-width="1.2"/>
<text x="1296.00" y="1181.00" fill="#9fb3c8" font-size="12" font-family="Helvetica, Arial, sans-serif">10.4</text>
<line x1="1286.00" y1="1072.00" x2="1292.00" y2="1072.00" stroke="#dce7f3" stroke-width="1.2"/>
<text x="1296.00" y="1076.00" fill="#9fb3c8" font-size="12" font-family="Helvetica, Arial, sans-serif">20.8</text>
<rect x="1232.00" y="1288.00" width="314.00" height="196" rx="18" fill="#0b1722" stroke="#5e7fa3" stroke-width="1.6"/>
<text x="1250.00" y="1316.00" fill="#dce7f3" font-size="18" font-family="Helvetica, Arial, sans-serif" font-weight="700">Anchor readings</text>
<text x="1250.00" y="1344.00" fill="#dce7f3" font-size="13" font-family="Helvetica, Arial, sans-serif">a=0.050, b=0.20 → fixed point attracts</text>
<text x="1262.00" y="1361.00" fill="#9fb3c8" font-size="12" font-family="Helvetica, Arial, sans-serif">local=stable spiral, x amp=0.00, period=—</text>
<text x="1250.00" y="1378.00" fill="#dce7f3" font-size="13" font-family="Helvetica, Arial, sans-serif">a=0.050, b=0.45 → limit cycle measured</text>
<text x="1262.00" y="1395.00" fill="#9fb3c8" font-size="12" font-family="Helvetica, Arial, sans-serif">local=unstable spiral, x amp=0.89, period=13.04</text>
<text x="1250.00" y="1412.00" fill="#dce7f3" font-size="13" font-family="Helvetica, Arial, sans-serif">a=0.080, b=0.60 → limit cycle measured</text>
<text x="1262.00" y="1429.00" fill="#9fb3c8" font-size="12" font-family="Helvetica, Arial, sans-serif">local=unstable spiral, x amp=0.64, period=9.62</text>
<text x="1250.00" y="1446.00" fill="#dce7f3" font-size="13" font-family="Helvetica, Arial, sans-serif">a=0.080, b=0.95 → fixed point attracts</text>
<text x="1262.00" y="1463.00" fill="#9fb3c8" font-size="12" font-family="Helvetica, Arial, sans-serif">local=stable spiral, x amp=0.00, period=—</text>
<text x="106" y="1576" fill="#9fb3c8" font-size="13" font-family="Helvetica, Arial, sans-serif">Measurement recipe: RK4 with dt = 0.02 for 240 time units, using the last 90 time units to estimate amplitude and period inside the oscillatory band.</text>
<text x="106" y="1598" fill="#9fb3c8" font-size="13" font-family="Helvetica, Arial, sans-serif">Color bars are capped at the 95th percentile for readability; the full scan reaches x amplitude 2.26 and period 35.26 at the widest part of the band.</text>
</svg>
