<svg xmlns="http://www.w3.org/2000/svg" viewBox="0 0 1280 860">
<defs>
  <linearGradient id="bg" x1="0" y1="0" x2="1" y2="1">
    <stop offset="0%" stop-color="#081018"/>
    <stop offset="100%" stop-color="#101d2a"/>
  </linearGradient>
  <style>
    .title { font: 700 34px Helvetica, Arial, sans-serif; fill: #e6edf3; }
    .subtitle { font: 500 18px Helvetica, Arial, sans-serif; fill: #9fb3c8; }
    .label { font: 700 20px Helvetica, Arial, sans-serif; fill: #dce7f3; }
    .small { font: 500 15px Helvetica, Arial, sans-serif; fill: #9fb3c8; }
    .tiny { font: 500 13px Helvetica, Arial, sans-serif; fill: #8aa3bc; }
    .panel { fill: #122131; stroke: #5e7fa3; stroke-width: 2; rx: 18; }
    .grid { stroke: #223445; stroke-width: 1; opacity: 0.8; }
    .axis { stroke: #39516a; stroke-width: 2; }
  </style>
</defs>
<rect width="1280" height="860" fill="url(#bg)"/>
<rect x="60" y="120" width="1160" height="690" rx="18" class="panel"/>
<text x="90.0" y="68.0" class="title" text-anchor="start">Selkov glycolysis oscillator</text>
<text x="90.0" y="98.0" class="subtitle" text-anchor="start">A compact glycolytic oscillator whose fixed point is stable, then unstable, then stable again as the drive parameter crosses a finite Hopf band.</text>
<text x="930.0" y="185.0" class="label" text-anchor="start">Legend</text>
<text x="968.0" y="232.0" class="small" text-anchor="start">trajectories</text>
<text x="968.0" y="268.0" class="small" text-anchor="start">dx/dt = 0</text>
<text x="968.0" y="304.0" class="small" text-anchor="start">dy/dt = 0</text>
<text x="968.0" y="340.0" class="small" text-anchor="start">fixed points</text>
<circle cx="940.0" cy="224.0" r="8.0" fill="#4ade80" opacity="1.0"/>
<line x1="924.0" y1="260.0" x2="956.0" y2="260.0" stroke="#f97316" stroke-width="4" opacity="1.0"/>
<line x1="924.0" y1="296.0" x2="956.0" y2="296.0" stroke="#60a5fa" stroke-width="4" opacity="1.0"/>
<circle cx="940.0" cy="336.0" r="7.0" fill="#f8fafc" opacity="1.0"/>
<text x="930.0" y="392.0" class="label" text-anchor="start">How to read it</text>
<text x="930.0" y="422.0" class="small" text-anchor="start">The arrows show the local flow.</text>
<text x="930.0" y="446.0" class="small" text-anchor="start">The colored curves show where one derivative vanishes.</text>
<text x="930.0" y="470.0" class="small" text-anchor="start">Trajectories reveal whether the fixed point attracts, spirals, or closes into an orbit.</text>
<text x="930.0" y="528.0" class="label" text-anchor="start">Local fixed-point readout</text>
<text x="930.0" y="558.0" class="small" text-anchor="start">1. (0.60, 1.36) → unstable spiral</text>
<text x="950.0" y="580.0" class="tiny" text-anchor="start">λ = 0.10+0.66i, 0.10-0.66i</text>
<line x1="110.0" y1="170.0" x2="110.0" y2="760.0" stroke="#223445" stroke-width="1" opacity="1.0"/>
<text x="110.0" y="788.0" class="tiny" text-anchor="middle">0.0</text>
<line x1="260.0" y1="170.0" x2="260.0" y2="760.0" stroke="#223445" stroke-width="1" opacity="1.0"/>
<text x="260.0" y="788.0" class="tiny" text-anchor="middle">0.4</text>
<line x1="410.0" y1="170.0" x2="410.0" y2="760.0" stroke="#223445" stroke-width="1" opacity="1.0"/>
<text x="410.0" y="788.0" class="tiny" text-anchor="middle">0.7</text>
<line x1="560.0" y1="170.0" x2="560.0" y2="760.0" stroke="#223445" stroke-width="1" opacity="1.0"/>
<text x="560.0" y="788.0" class="tiny" text-anchor="middle">1.1</text>
<line x1="710.0" y1="170.0" x2="710.0" y2="760.0" stroke="#223445" stroke-width="1" opacity="1.0"/>
<text x="710.0" y="788.0" class="tiny" text-anchor="middle">1.4</text>
<line x1="860.0" y1="170.0" x2="860.0" y2="760.0" stroke="#223445" stroke-width="1" opacity="1.0"/>
<text x="860.0" y="788.0" class="tiny" text-anchor="middle">1.8</text>
<line x1="110.0" y1="760.0" x2="860.0" y2="760.0" stroke="#223445" stroke-width="1" opacity="1.0"/>
<text x="92.0" y="764.0" class="tiny" text-anchor="end">0.0</text>
<line x1="110.0" y1="642.0" x2="860.0" y2="642.0" stroke="#223445" stroke-width="1" opacity="1.0"/>
<text x="92.0" y="646.0" class="tiny" text-anchor="end">0.6</text>
<line x1="110.0" y1="524.0" x2="860.0" y2="524.0" stroke="#223445" stroke-width="1" opacity="1.0"/>
<text x="92.0" y="528.0" class="tiny" text-anchor="end">1.1</text>
<line x1="110.0" y1="406.0" x2="860.0" y2="406.0" stroke="#223445" stroke-width="1" opacity="1.0"/>
<text x="92.0" y="410.0" class="tiny" text-anchor="end">1.7</text>
<line x1="110.0" y1="288.0" x2="860.0" y2="288.0" stroke="#223445" stroke-width="1" opacity="1.0"/>
<text x="92.0" y="292.0" class="tiny" text-anchor="end">2.2</text>
<line x1="110.0" y1="170.0" x2="860.0" y2="170.0" stroke="#223445" stroke-width="1" opacity="1.0"/>
<text x="92.0" y="174.0" class="tiny" text-anchor="end">2.8</text>
<line x1="110.0" y1="170.0" x2="110.0" y2="760.0" stroke="#39516a" stroke-width="2" opacity="1.0"/>
<line x1="110.0" y1="760.0" x2="860.0" y2="760.0" stroke="#39516a" stroke-width="2" opacity="1.0"/>
<line x1="110.0" y1="760.0" x2="110.0" y2="748.2" stroke="#4b6580" stroke-width="1.4" opacity="0.9"/>
<line x1="110.0" y1="710.8" x2="110.5" y2="699.0" stroke="#4b6580" stroke-width="1.4" opacity="0.9"/>
<line x1="110.0" y1="661.7" x2="111.0" y2="649.9" stroke="#4b6580" stroke-width="1.4" opacity="0.9"/>
<line x1="110.0" y1="612.5" x2="111.5" y2="600.8" stroke="#4b6580" stroke-width="1.4" opacity="0.9"/>
<line x1="110.0" y1="563.3" x2="112.1" y2="551.7" stroke="#4b6580" stroke-width="1.4" opacity="0.9"/>
<line x1="110.0" y1="514.2" x2="112.7" y2="502.6" stroke="#4b6580" stroke-width="1.4" opacity="0.9"/>
<line x1="110.0" y1="465.0" x2="113.4" y2="453.5" stroke="#4b6580" stroke-width="1.4" opacity="0.9"/>
<line x1="110.0" y1="415.8" x2="114.0" y2="404.5" stroke="#4b6580" stroke-width="1.4" opacity="0.9"/>
<line x1="110.0" y1="366.7" x2="114.7" y2="355.5" stroke="#4b6580" stroke-width="1.4" opacity="0.9"/>
<line x1="110.0" y1="317.5" x2="115.4" y2="306.5" stroke="#4b6580" stroke-width="1.4" opacity="0.9"/>
<line x1="110.0" y1="268.3" x2="116.2" y2="257.6" stroke="#4b6580" stroke-width="1.4" opacity="0.9"/>
<line x1="110.0" y1="219.2" x2="116.9" y2="208.7" stroke="#4b6580" stroke-width="1.4" opacity="0.9"/>
<line x1="110.0" y1="170.0" x2="117.7" y2="159.9" stroke="#4b6580" stroke-width="1.4" opacity="0.9"/>
<line x1="156.9" y1="760.0" x2="154.1" y2="748.4" stroke="#4b6580" stroke-width="1.4" opacity="0.9"/>
<line x1="156.9" y1="710.8" x2="154.5" y2="699.2" stroke="#4b6580" stroke-width="1.4" opacity="0.9"/>
<line x1="156.9" y1="661.7" x2="155.0" y2="650.0" stroke="#4b6580" stroke-width="1.4" opacity="0.9"/>
<line x1="156.9" y1="612.5" x2="155.5" y2="600.7" stroke="#4b6580" stroke-width="1.4" opacity="0.9"/>
<line x1="156.9" y1="563.3" x2="156.1" y2="551.5" stroke="#4b6580" stroke-width="1.4" opacity="0.9"/>
<line x1="156.9" y1="514.2" x2="156.7" y2="502.4" stroke="#4b6580" stroke-width="1.4" opacity="0.9"/>
<line x1="156.9" y1="465.0" x2="157.4" y2="453.2" stroke="#4b6580" stroke-width="1.4" opacity="0.9"/>
<line x1="156.9" y1="415.8" x2="158.2" y2="404.1" stroke="#4b6580" stroke-width="1.4" opacity="0.9"/>
<line x1="156.9" y1="366.7" x2="159.0" y2="355.0" stroke="#4b6580" stroke-width="1.4" opacity="0.9"/>
<line x1="156.9" y1="317.5" x2="159.9" y2="305.9" stroke="#4b6580" stroke-width="1.4" opacity="0.9"/>
<line x1="156.9" y1="268.3" x2="160.8" y2="256.9" stroke="#4b6580" stroke-width="1.4" opacity="0.9"/>
<line x1="156.9" y1="219.2" x2="161.8" y2="208.0" stroke="#4b6580" stroke-width="1.4" opacity="0.9"/>
<line x1="156.9" y1="170.0" x2="162.8" y2="159.2" stroke="#4b6580" stroke-width="1.4" opacity="0.9"/>
<line x1="203.8" y1="760.0" x2="198.5" y2="749.0" stroke="#4b6580" stroke-width="1.4" opacity="0.9"/>
<line x1="203.8" y1="710.8" x2="198.9" y2="699.7" stroke="#4b6580" stroke-width="1.4" opacity="0.9"/>
<line x1="203.8" y1="661.7" x2="199.4" y2="650.4" stroke="#4b6580" stroke-width="1.4" opacity="0.9"/>
<line x1="203.8" y1="612.5" x2="199.9" y2="601.1" stroke="#4b6580" stroke-width="1.4" opacity="0.9"/>
<line x1="203.8" y1="563.3" x2="200.6" y2="551.8" stroke="#4b6580" stroke-width="1.4" opacity="0.9"/>
<line x1="203.8" y1="514.2" x2="201.3" y2="502.5" stroke="#4b6580" stroke-width="1.4" opacity="0.9"/>
<line x1="203.8" y1="465.0" x2="202.2" y2="453.3" stroke="#4b6580" stroke-width="1.4" opacity="0.9"/>
<line x1="203.8" y1="415.8" x2="203.3" y2="404.0" stroke="#4b6580" stroke-width="1.4" opacity="0.9"/>
<line x1="203.8" y1="366.7" x2="204.5" y2="354.9" stroke="#4b6580" stroke-width="1.4" opacity="0.9"/>
<line x1="203.8" y1="317.5" x2="206.0" y2="305.8" stroke="#4b6580" stroke-width="1.4" opacity="0.9"/>
<line x1="203.8" y1="268.3" x2="207.7" y2="256.9" stroke="#4b6580" stroke-width="1.4" opacity="0.9"/>
<line x1="203.8" y1="219.2" x2="209.5" y2="208.3" stroke="#4b6580" stroke-width="1.4" opacity="0.9"/>
<line x1="203.8" y1="170.0" x2="211.5" y2="159.9" stroke="#4b6580" stroke-width="1.4" opacity="0.9"/>
<line x1="250.6" y1="760.0" x2="243.3" y2="749.7" stroke="#4b6580" stroke-width="1.4" opacity="0.9"/>
<line x1="250.6" y1="710.8" x2="243.6" y2="700.4" stroke="#4b6580" stroke-width="1.4" opacity="0.9"/>
<line x1="250.6" y1="661.7" x2="244.1" y2="651.0" stroke="#4b6580" stroke-width="1.4" opacity="0.9"/>
<line x1="250.6" y1="612.5" x2="244.6" y2="601.7" stroke="#4b6580" stroke-width="1.4" opacity="0.9"/>
<line x1="250.6" y1="563.3" x2="245.4" y2="552.3" stroke="#4b6580" stroke-width="1.4" opacity="0.9"/>
<line x1="250.6" y1="514.2" x2="246.3" y2="502.9" stroke="#4b6580" stroke-width="1.4" opacity="0.9"/>
<line x1="250.6" y1="465.0" x2="247.7" y2="453.4" stroke="#4b6580" stroke-width="1.4" opacity="0.9"/>
<line x1="250.6" y1="415.8" x2="249.5" y2="404.1" stroke="#4b6580" stroke-width="1.4" opacity="0.9"/>
<line x1="250.6" y1="366.7" x2="252.2" y2="354.9" stroke="#4b6580" stroke-width="1.4" opacity="0.9"/>
<line x1="250.6" y1="317.5" x2="255.7" y2="306.4" stroke="#4b6580" stroke-width="1.4" opacity="0.9"/>
<line x1="250.6" y1="268.3" x2="259.8" y2="259.0" stroke="#4b6580" stroke-width="1.4" opacity="0.9"/>
<line x1="250.6" y1="219.2" x2="263.3" y2="212.8" stroke="#4b6580" stroke-width="1.4" opacity="0.9"/>
<line x1="250.6" y1="170.0" x2="265.1" y2="166.8" stroke="#4b6580" stroke-width="1.4" opacity="0.9"/>
<line x1="297.5" y1="760.0" x2="288.5" y2="750.6" stroke="#4b6580" stroke-width="1.4" opacity="0.9"/>
<line x1="297.5" y1="710.8" x2="288.7" y2="701.3" stroke="#4b6580" stroke-width="1.4" opacity="0.9"/>
<line x1="297.5" y1="661.7" x2="289.1" y2="651.9" stroke="#4b6580" stroke-width="1.4" opacity="0.9"/>
<line x1="297.5" y1="612.5" x2="289.5" y2="602.5" stroke="#4b6580" stroke-width="1.4" opacity="0.9"/>
<line x1="297.5" y1="563.3" x2="290.2" y2="553.0" stroke="#4b6580" stroke-width="1.4" opacity="0.9"/>
<line x1="297.5" y1="514.2" x2="291.4" y2="503.4" stroke="#4b6580" stroke-width="1.4" opacity="0.9"/>
<line x1="297.5" y1="465.0" x2="293.6" y2="453.6" stroke="#4b6580" stroke-width="1.4" opacity="0.9"/>
<line x1="297.5" y1="415.8" x2="298.7" y2="404.1" stroke="#4b6580" stroke-width="1.4" opacity="0.9"/>
<line x1="297.5" y1="366.7" x2="308.4" y2="358.6" stroke="#4b6580" stroke-width="1.4" opacity="0.9"/>
<line x1="297.5" y1="317.5" x2="312.5" y2="316.9" stroke="#4b6580" stroke-width="1.4" opacity="0.9"/>
<line x1="297.5" y1="268.3" x2="311.9" y2="271.5" stroke="#4b6580" stroke-width="1.4" opacity="0.9"/>
<line x1="297.5" y1="219.2" x2="311.2" y2="224.1" stroke="#4b6580" stroke-width="1.4" opacity="0.9"/>
<line x1="297.5" y1="170.0" x2="310.6" y2="175.8" stroke="#4b6580" stroke-width="1.4" opacity="0.9"/>
<line x1="344.4" y1="760.0" x2="334.1" y2="751.4" stroke="#4b6580" stroke-width="1.4" opacity="0.9"/>
<line x1="344.4" y1="710.8" x2="334.2" y2="702.2" stroke="#4b6580" stroke-width="1.4" opacity="0.9"/>
<line x1="344.4" y1="661.7" x2="334.3" y2="652.9" stroke="#4b6580" stroke-width="1.4" opacity="0.9"/>
<line x1="344.4" y1="612.5" x2="334.4" y2="603.7" stroke="#4b6580" stroke-width="1.4" opacity="0.9"/>
<line x1="344.4" y1="563.3" x2="334.7" y2="554.3" stroke="#4b6580" stroke-width="1.4" opacity="0.9"/>
<line x1="344.4" y1="514.2" x2="335.6" y2="504.6" stroke="#4b6580" stroke-width="1.4" opacity="0.9"/>
<line x1="344.4" y1="465.0" x2="341.9" y2="453.4" stroke="#4b6580" stroke-width="1.4" opacity="0.9"/>
<line x1="344.4" y1="415.8" x2="357.5" y2="421.6" stroke="#4b6580" stroke-width="1.4" opacity="0.9"/>
<line x1="344.4" y1="366.7" x2="356.2" y2="374.0" stroke="#4b6580" stroke-width="1.4" opacity="0.9"/>
<line x1="344.4" y1="317.5" x2="355.7" y2="325.2" stroke="#4b6580" stroke-width="1.4" opacity="0.9"/>
<line x1="344.4" y1="268.3" x2="355.5" y2="276.2" stroke="#4b6580" stroke-width="1.4" opacity="0.9"/>
<line x1="344.4" y1="219.2" x2="355.4" y2="227.1" stroke="#4b6580" stroke-width="1.4" opacity="0.9"/>
<line x1="344.4" y1="170.0" x2="355.4" y2="178.0" stroke="#4b6580" stroke-width="1.4" opacity="0.9"/>
<line x1="391.2" y1="760.0" x2="380.0" y2="752.2" stroke="#4b6580" stroke-width="1.4" opacity="0.9"/>
<line x1="391.2" y1="710.8" x2="379.9" y2="703.1" stroke="#4b6580" stroke-width="1.4" opacity="0.9"/>
<line x1="391.2" y1="661.7" x2="379.7" y2="654.2" stroke="#4b6580" stroke-width="1.4" opacity="0.9"/>
<line x1="391.2" y1="612.5" x2="379.3" y2="605.4" stroke="#4b6580" stroke-width="1.4" opacity="0.9"/>
<line x1="391.2" y1="563.3" x2="378.2" y2="557.5" stroke="#4b6580" stroke-width="1.4" opacity="0.9"/>
<line x1="391.2" y1="514.2" x2="377.8" y2="519.4" stroke="#4b6580" stroke-width="1.4" opacity="0.9"/>
<line x1="391.2" y1="465.0" x2="398.0" y2="475.6" stroke="#4b6580" stroke-width="1.4" opacity="0.9"/>
<line x1="391.2" y1="415.8" x2="400.1" y2="425.4" stroke="#4b6580" stroke-width="1.4" opacity="0.9"/>
<line x1="391.2" y1="366.7" x2="400.7" y2="375.8" stroke="#4b6580" stroke-width="1.4" opacity="0.9"/>
<line x1="391.2" y1="317.5" x2="401.0" y2="326.5" stroke="#4b6580" stroke-width="1.4" opacity="0.9"/>
<line x1="391.2" y1="268.3" x2="401.2" y2="277.2" stroke="#4b6580" stroke-width="1.4" opacity="0.9"/>
<line x1="391.2" y1="219.2" x2="401.3" y2="227.9" stroke="#4b6580" stroke-width="1.4" opacity="0.9"/>
<line x1="391.2" y1="170.0" x2="401.4" y2="178.7" stroke="#4b6580" stroke-width="1.4" opacity="0.9"/>
<line x1="438.1" y1="760.0" x2="426.2" y2="752.8" stroke="#4b6580" stroke-width="1.4" opacity="0.9"/>
<line x1="438.1" y1="710.8" x2="425.8" y2="704.1" stroke="#4b6580" stroke-width="1.4" opacity="0.9"/>
<line x1="438.1" y1="661.7" x2="425.2" y2="655.6" stroke="#4b6580" stroke-width="1.4" opacity="0.9"/>
<line x1="438.1" y1="612.5" x2="424.1" y2="608.4" stroke="#4b6580" stroke-width="1.4" opacity="0.9"/>
<line x1="438.1" y1="563.3" x2="424.2" y2="567.7" stroke="#4b6580" stroke-width="1.4" opacity="0.9"/>
<line x1="438.1" y1="514.2" x2="440.1" y2="525.9" stroke="#4b6580" stroke-width="1.4" opacity="0.9"/>
<line x1="438.1" y1="465.0" x2="444.9" y2="475.5" stroke="#4b6580" stroke-width="1.4" opacity="0.9"/>
<line x1="438.1" y1="415.8" x2="446.3" y2="425.7" stroke="#4b6580" stroke-width="1.4" opacity="0.9"/>
<line x1="438.1" y1="366.7" x2="447.0" y2="376.2" stroke="#4b6580" stroke-width="1.4" opacity="0.9"/>
<line x1="438.1" y1="317.5" x2="447.4" y2="326.8" stroke="#4b6580" stroke-width="1.4" opacity="0.9"/>
<line x1="438.1" y1="268.3" x2="447.6" y2="277.5" stroke="#4b6580" stroke-width="1.4" opacity="0.9"/>
<line x1="438.1" y1="219.2" x2="447.8" y2="228.2" stroke="#4b6580" stroke-width="1.4" opacity="0.9"/>
<line x1="438.1" y1="170.0" x2="447.9" y2="178.9" stroke="#4b6580" stroke-width="1.4" opacity="0.9"/>
<line x1="485.0" y1="760.0" x2="472.5" y2="753.5" stroke="#4b6580" stroke-width="1.4" opacity="0.9"/>
<line x1="485.0" y1="710.8" x2="471.9" y2="705.0" stroke="#4b6580" stroke-width="1.4" opacity="0.9"/>
<line x1="485.0" y1="661.7" x2="471.0" y2="657.5" stroke="#4b6580" stroke-width="1.4" opacity="0.9"/>
<line x1="485.0" y1="612.5" x2="470.1" y2="613.5" stroke="#4b6580" stroke-width="1.4" opacity="0.9"/>
<line x1="485.0" y1="563.3" x2="480.7" y2="574.6" stroke="#4b6580" stroke-width="1.4" opacity="0.9"/>
<line x1="485.0" y1="514.2" x2="489.5" y2="525.4" stroke="#4b6580" stroke-width="1.4" opacity="0.9"/>
<line x1="485.0" y1="465.0" x2="492.1" y2="475.4" stroke="#4b6580" stroke-width="1.4" opacity="0.9"/>
<line x1="485.0" y1="415.8" x2="493.2" y2="425.7" stroke="#4b6580" stroke-width="1.4" opacity="0.9"/>
<line x1="485.0" y1="366.7" x2="493.7" y2="376.3" stroke="#4b6580" stroke-width="1.4" opacity="0.9"/>
<line x1="485.0" y1="317.5" x2="494.1" y2="326.9" stroke="#4b6580" stroke-width="1.4" opacity="0.9"/>
<line x1="485.0" y1="268.3" x2="494.3" y2="277.6" stroke="#4b6580" stroke-width="1.4" opacity="0.9"/>
<line x1="485.0" y1="219.2" x2="494.5" y2="228.3" stroke="#4b6580" stroke-width="1.4" opacity="0.9"/>
<line x1="485.0" y1="170.0" x2="494.7" y2="179.0" stroke="#4b6580" stroke-width="1.4" opacity="0.9"/>
<line x1="531.9" y1="760.0" x2="519.0" y2="754.0" stroke="#4b6580" stroke-width="1.4" opacity="0.9"/>
<line x1="531.9" y1="710.8" x2="518.2" y2="706.0" stroke="#4b6580" stroke-width="1.4" opacity="0.9"/>
<line x1="531.9" y1="661.7" x2="517.1" y2="659.7" stroke="#4b6580" stroke-width="1.4" opacity="0.9"/>
<line x1="531.9" y1="612.5" x2="519.7" y2="619.4" stroke="#4b6580" stroke-width="1.4" opacity="0.9"/>
<line x1="531.9" y1="563.3" x2="532.5" y2="575.1" stroke="#4b6580" stroke-width="1.4" opacity="0.9"/>
<line x1="531.9" y1="514.2" x2="537.5" y2="525.1" stroke="#4b6580" stroke-width="1.4" opacity="0.9"/>
<line x1="531.9" y1="465.0" x2="539.2" y2="475.3" stroke="#4b6580" stroke-width="1.4" opacity="0.9"/>
<line x1="531.9" y1="415.8" x2="540.1" y2="425.7" stroke="#4b6580" stroke-width="1.4" opacity="0.9"/>
<line x1="531.9" y1="366.7" x2="540.6" y2="376.3" stroke="#4b6580" stroke-width="1.4" opacity="0.9"/>
<line x1="531.9" y1="317.5" x2="541.0" y2="326.9" stroke="#4b6580" stroke-width="1.4" opacity="0.9"/>
<line x1="531.9" y1="268.3" x2="541.2" y2="277.6" stroke="#4b6580" stroke-width="1.4" opacity="0.9"/>
<line x1="531.9" y1="219.2" x2="541.4" y2="228.3" stroke="#4b6580" stroke-width="1.4" opacity="0.9"/>
<line x1="531.9" y1="170.0" x2="541.5" y2="179.1" stroke="#4b6580" stroke-width="1.4" opacity="0.9"/>
<line x1="578.8" y1="760.0" x2="565.5" y2="754.4" stroke="#4b6580" stroke-width="1.4" opacity="0.9"/>
<line x1="578.8" y1="710.8" x2="564.6" y2="706.9" stroke="#4b6580" stroke-width="1.4" opacity="0.9"/>
<line x1="578.8" y1="661.7" x2="563.8" y2="662.3" stroke="#4b6580" stroke-width="1.4" opacity="0.9"/>
<line x1="578.8" y1="612.5" x2="571.7" y2="622.9" stroke="#4b6580" stroke-width="1.4" opacity="0.9"/>
<line x1="578.8" y1="563.3" x2="581.7" y2="574.9" stroke="#4b6580" stroke-width="1.4" opacity="0.9"/>
<line x1="578.8" y1="514.2" x2="585.0" y2="524.9" stroke="#4b6580" stroke-width="1.4" opacity="0.9"/>
<line x1="578.8" y1="465.0" x2="586.4" y2="475.2" stroke="#4b6580" stroke-width="1.4" opacity="0.9"/>
<line x1="578.8" y1="415.8" x2="587.1" y2="425.6" stroke="#4b6580" stroke-width="1.4" opacity="0.9"/>
<line x1="578.8" y1="366.7" x2="587.6" y2="376.2" stroke="#4b6580" stroke-width="1.4" opacity="0.9"/>
<line x1="578.8" y1="317.5" x2="587.9" y2="326.9" stroke="#4b6580" stroke-width="1.4" opacity="0.9"/>
<line x1="578.8" y1="268.3" x2="588.1" y2="277.6" stroke="#4b6580" stroke-width="1.4" opacity="0.9"/>
<line x1="578.8" y1="219.2" x2="588.2" y2="228.3" stroke="#4b6580" stroke-width="1.4" opacity="0.9"/>
<line x1="578.8" y1="170.0" x2="588.4" y2="179.1" stroke="#4b6580" stroke-width="1.4" opacity="0.9"/>
<line x1="625.6" y1="760.0" x2="612.1" y2="754.9" stroke="#4b6580" stroke-width="1.4" opacity="0.9"/>
<line x1="625.6" y1="710.8" x2="611.1" y2="707.9" stroke="#4b6580" stroke-width="1.4" opacity="0.9"/>
<line x1="625.6" y1="661.7" x2="611.3" y2="665.2" stroke="#4b6580" stroke-width="1.4" opacity="0.9"/>
<line x1="625.6" y1="612.5" x2="622.6" y2="624.1" stroke="#4b6580" stroke-width="1.4" opacity="0.9"/>
<line x1="625.6" y1="563.3" x2="629.9" y2="574.7" stroke="#4b6580" stroke-width="1.4" opacity="0.9"/>
<line x1="625.6" y1="514.2" x2="632.4" y2="524.7" stroke="#4b6580" stroke-width="1.4" opacity="0.9"/>
<line x1="625.6" y1="465.0" x2="633.5" y2="475.1" stroke="#4b6580" stroke-width="1.4" opacity="0.9"/>
<line x1="625.6" y1="415.8" x2="634.1" y2="425.6" stroke="#4b6580" stroke-width="1.4" opacity="0.9"/>
<line x1="625.6" y1="366.7" x2="634.5" y2="376.2" stroke="#4b6580" stroke-width="1.4" opacity="0.9"/>
<line x1="625.6" y1="317.5" x2="634.8" y2="326.8" stroke="#4b6580" stroke-width="1.4" opacity="0.9"/>
<line x1="625.6" y1="268.3" x2="635.0" y2="277.6" stroke="#4b6580" stroke-width="1.4" opacity="0.9"/>
<line x1="625.6" y1="219.2" x2="635.1" y2="228.3" stroke="#4b6580" stroke-width="1.4" opacity="0.9"/>
<line x1="625.6" y1="170.0" x2="635.3" y2="179.0" stroke="#4b6580" stroke-width="1.4" opacity="0.9"/>
<line x1="672.5" y1="760.0" x2="658.8" y2="755.2" stroke="#4b6580" stroke-width="1.4" opacity="0.9"/>
<line x1="672.5" y1="710.8" x2="657.7" y2="708.8" stroke="#4b6580" stroke-width="1.4" opacity="0.9"/>
<line x1="672.5" y1="661.7" x2="659.8" y2="667.9" stroke="#4b6580" stroke-width="1.4" opacity="0.9"/>
<line x1="672.5" y1="612.5" x2="672.1" y2="624.3" stroke="#4b6580" stroke-width="1.4" opacity="0.9"/>
<line x1="672.5" y1="563.3" x2="677.6" y2="574.4" stroke="#4b6580" stroke-width="1.4" opacity="0.9"/>
<line x1="672.5" y1="514.2" x2="679.6" y2="524.6" stroke="#4b6580" stroke-width="1.4" opacity="0.9"/>
<line x1="672.5" y1="465.0" x2="680.6" y2="475.0" stroke="#4b6580" stroke-width="1.4" opacity="0.9"/>
<line x1="672.5" y1="415.8" x2="681.1" y2="425.5" stroke="#4b6580" stroke-width="1.4" opacity="0.9"/>
<line x1="672.5" y1="366.7" x2="681.5" y2="376.1" stroke="#4b6580" stroke-width="1.4" opacity="0.9"/>
<line x1="672.5" y1="317.5" x2="681.7" y2="326.8" stroke="#4b6580" stroke-width="1.4" opacity="0.9"/>
<line x1="672.5" y1="268.3" x2="681.9" y2="277.5" stroke="#4b6580" stroke-width="1.4" opacity="0.9"/>
<line x1="672.5" y1="219.2" x2="682.0" y2="228.3" stroke="#4b6580" stroke-width="1.4" opacity="0.9"/>
<line x1="672.5" y1="170.0" x2="682.2" y2="179.0" stroke="#4b6580" stroke-width="1.4" opacity="0.9"/>
<line x1="719.4" y1="760.0" x2="705.5" y2="755.5" stroke="#4b6580" stroke-width="1.4" opacity="0.9"/>
<line x1="719.4" y1="710.8" x2="704.4" y2="709.8" stroke="#4b6580" stroke-width="1.4" opacity="0.9"/>
<line x1="719.4" y1="661.7" x2="708.9" y2="670.1" stroke="#4b6580" stroke-width="1.4" opacity="0.9"/>
<line x1="719.4" y1="612.5" x2="720.8" y2="624.2" stroke="#4b6580" stroke-width="1.4" opacity="0.9"/>
<line x1="719.4" y1="563.3" x2="725.1" y2="574.2" stroke="#4b6580" stroke-width="1.4" opacity="0.9"/>
<line x1="719.4" y1="514.2" x2="726.8" y2="524.4" stroke="#4b6580" stroke-width="1.4" opacity="0.9"/>
<line x1="719.4" y1="465.0" x2="727.6" y2="474.9" stroke="#4b6580" stroke-width="1.4" opacity="0.9"/>
<line x1="719.4" y1="415.8" x2="728.1" y2="425.4" stroke="#4b6580" stroke-width="1.4" opacity="0.9"/>
<line x1="719.4" y1="366.7" x2="728.4" y2="376.1" stroke="#4b6580" stroke-width="1.4" opacity="0.9"/>
<line x1="719.4" y1="317.5" x2="728.7" y2="326.8" stroke="#4b6580" stroke-width="1.4" opacity="0.9"/>
<line x1="719.4" y1="268.3" x2="728.8" y2="277.5" stroke="#4b6580" stroke-width="1.4" opacity="0.9"/>
<line x1="719.4" y1="219.2" x2="729.0" y2="228.2" stroke="#4b6580" stroke-width="1.4" opacity="0.9"/>
<line x1="719.4" y1="170.0" x2="729.1" y2="179.0" stroke="#4b6580" stroke-width="1.4" opacity="0.9"/>
<line x1="766.2" y1="760.0" x2="752.2" y2="755.8" stroke="#4b6580" stroke-width="1.4" opacity="0.9"/>
<line x1="766.2" y1="710.8" x2="751.3" y2="710.8" stroke="#4b6580" stroke-width="1.4" opacity="0.9"/>
<line x1="766.2" y1="661.7" x2="758.2" y2="671.6" stroke="#4b6580" stroke-width="1.4" opacity="0.9"/>
<line x1="766.2" y1="612.5" x2="768.9" y2="624.1" stroke="#4b6580" stroke-width="1.4" opacity="0.9"/>
<line x1="766.2" y1="563.3" x2="772.5" y2="574.1" stroke="#4b6580" stroke-width="1.4" opacity="0.9"/>
<line x1="766.2" y1="514.2" x2="773.9" y2="524.3" stroke="#4b6580" stroke-width="1.4" opacity="0.9"/>
<line x1="766.2" y1="465.0" x2="774.6" y2="474.8" stroke="#4b6580" stroke-width="1.4" opacity="0.9"/>
<line x1="766.2" y1="415.8" x2="775.1" y2="425.4" stroke="#4b6580" stroke-width="1.4" opacity="0.9"/>
<line x1="766.2" y1="366.7" x2="775.4" y2="376.0" stroke="#4b6580" stroke-width="1.4" opacity="0.9"/>
<line x1="766.2" y1="317.5" x2="775.6" y2="326.7" stroke="#4b6580" stroke-width="1.4" opacity="0.9"/>
<line x1="766.2" y1="268.3" x2="775.8" y2="277.5" stroke="#4b6580" stroke-width="1.4" opacity="0.9"/>
<line x1="766.2" y1="219.2" x2="775.9" y2="228.2" stroke="#4b6580" stroke-width="1.4" opacity="0.9"/>
<line x1="766.2" y1="170.0" x2="776.0" y2="179.0" stroke="#4b6580" stroke-width="1.4" opacity="0.9"/>
<line x1="813.1" y1="760.0" x2="799.0" y2="756.0" stroke="#4b6580" stroke-width="1.4" opacity="0.9"/>
<line x1="813.1" y1="710.8" x2="798.2" y2="711.8" stroke="#4b6580" stroke-width="1.4" opacity="0.9"/>
<line x1="813.1" y1="661.7" x2="807.3" y2="672.5" stroke="#4b6580" stroke-width="1.4" opacity="0.9"/>
<line x1="813.1" y1="612.5" x2="816.8" y2="623.9" stroke="#4b6580" stroke-width="1.4" opacity="0.9"/>
<line x1="813.1" y1="563.3" x2="819.7" y2="573.9" stroke="#4b6580" stroke-width="1.4" opacity="0.9"/>
<line x1="813.1" y1="514.2" x2="821.0" y2="524.2" stroke="#4b6580" stroke-width="1.4" opacity="0.9"/>
<line x1="813.1" y1="465.0" x2="821.6" y2="474.7" stroke="#4b6580" stroke-width="1.4" opacity="0.9"/>
<line x1="813.1" y1="415.8" x2="822.0" y2="425.3" stroke="#4b6580" stroke-width="1.4" opacity="0.9"/>
<line x1="813.1" y1="366.7" x2="822.3" y2="376.0" stroke="#4b6580" stroke-width="1.4" opacity="0.9"/>
<line x1="813.1" y1="317.5" x2="822.5" y2="326.7" stroke="#4b6580" stroke-width="1.4" opacity="0.9"/>
<line x1="813.1" y1="268.3" x2="822.7" y2="277.4" stroke="#4b6580" stroke-width="1.4" opacity="0.9"/>
<line x1="813.1" y1="219.2" x2="822.8" y2="228.2" stroke="#4b6580" stroke-width="1.4" opacity="0.9"/>
<line x1="813.1" y1="170.0" x2="822.9" y2="179.0" stroke="#4b6580" stroke-width="1.4" opacity="0.9"/>
<line x1="860.0" y1="760.0" x2="845.8" y2="756.3" stroke="#4b6580" stroke-width="1.4" opacity="0.9"/>
<line x1="860.0" y1="710.8" x2="845.2" y2="712.8" stroke="#4b6580" stroke-width="1.4" opacity="0.9"/>
<line x1="860.0" y1="661.7" x2="856.2" y2="673.1" stroke="#4b6580" stroke-width="1.4" opacity="0.9"/>
<line x1="860.0" y1="612.5" x2="864.4" y2="623.8" stroke="#4b6580" stroke-width="1.4" opacity="0.9"/>
<line x1="860.0" y1="563.3" x2="866.9" y2="573.8" stroke="#4b6580" stroke-width="1.4" opacity="0.9"/>
<line x1="860.0" y1="514.2" x2="868.0" y2="524.1" stroke="#4b6580" stroke-width="1.4" opacity="0.9"/>
<line x1="860.0" y1="465.0" x2="868.6" y2="474.7" stroke="#4b6580" stroke-width="1.4" opacity="0.9"/>
<line x1="860.0" y1="415.8" x2="869.0" y2="425.3" stroke="#4b6580" stroke-width="1.4" opacity="0.9"/>
<line x1="860.0" y1="366.7" x2="869.3" y2="375.9" stroke="#4b6580" stroke-width="1.4" opacity="0.9"/>
<line x1="860.0" y1="317.5" x2="869.5" y2="326.7" stroke="#4b6580" stroke-width="1.4" opacity="0.9"/>
<line x1="860.0" y1="268.3" x2="869.6" y2="277.4" stroke="#4b6580" stroke-width="1.4" opacity="0.9"/>
<line x1="860.0" y1="219.2" x2="869.7" y2="228.2" stroke="#4b6580" stroke-width="1.4" opacity="0.9"/>
<line x1="860.0" y1="170.0" x2="869.8" y2="178.9" stroke="#4b6580" stroke-width="1.4" opacity="0.9"/>
<polyline points="110.0,760.0 112.5,744.2 115.0,728.3 117.5,712.6 120.0,697.0 122.5,681.6 125.1,666.4 127.6,651.4 130.1,636.7 132.6,622.3 135.1,608.3 137.6,594.6 140.1,581.4 142.6,568.5 145.1,556.1 147.6,544.2 150.1,532.7 152.6,521.6 155.2,511.1 157.7,501.1 160.2,491.5 162.7,482.5 165.2,473.9 167.7,465.8 170.2,458.2 172.7,451.1 175.2,444.4 177.7,438.2 180.2,432.4 182.7,427.0 185.3,422.1 187.8,417.5 190.3,413.4 192.8,409.6 195.3,406.2 197.8,403.1 200.3,400.3 202.8,397.9 205.3,395.7 207.8,393.9 210.3,392.3 212.8,390.9 215.4,389.8 217.9,389.0 220.4,388.3 222.9,387.9 225.4,387.6 227.9,387.5 230.4,387.6 232.9,387.8 235.4,388.2 237.9,388.8 240.4,389.4 242.9,390.2 245.5,391.1 248.0,392.1 250.5,393.2 253.0,394.4 255.5,395.6 258.0,397.0 260.5,398.4 263.0,399.9 265.5,401.4 268.0,403.0 270.5,404.6 273.0,406.3 275.6,408.0 278.1,409.8 280.6,411.6 283.1,413.4 285.6,415.3 288.1,417.1 290.6,419.0 293.1,421.0 295.6,422.9 298.1,424.8 300.6,426.8 303.1,428.8 305.7,430.7 308.2,432.7 310.7,434.7 313.2,436.7 315.7,438.6 318.2,440.6 320.7,442.6 323.2,444.6 325.7,446.6 328.2,448.5 330.7,450.5 333.2,452.4 335.8,454.4 338.3,456.3 340.8,458.2 343.3,460.2 345.8,462.1 348.3,464.0 350.8,465.9 353.3,467.7 355.8,469.6 358.3,471.4 360.8,473.3 363.3,475.1 365.9,476.9 368.4,478.7 370.9,480.5 373.4,482.3 375.9,484.0 378.4,485.8 380.9,487.5 383.4,489.2 385.9,490.9 388.4,492.6 390.9,494.2 393.4,495.9 396.0,497.5 398.5,499.2 401.0,500.8 403.5,502.4 406.0,504.0 408.5,505.5 411.0,507.1 413.5,508.6 416.0,510.2 418.5,511.7 421.0,513.2 423.5,514.6 426.1,516.1 428.6,517.6 431.1,519.0 433.6,520.4 436.1,521.9 438.6,523.3 441.1,524.6 443.6,526.0 446.1,527.4 448.6,528.7 451.1,530.1 453.6,531.4 456.2,532.7 458.7,534.0 461.2,535.3 463.7,536.6 466.2,537.8 468.7,539.1 471.2,540.3 473.7,541.5 476.2,542.8 478.7,544.0 481.2,545.2 483.7,546.3 486.3,547.5 488.8,548.7 491.3,549.8 493.8,550.9 496.3,552.1 498.8,553.2 501.3,554.3 503.8,555.4 506.3,556.5 508.8,557.5 511.3,558.6 513.8,559.7 516.4,560.7 518.9,561.7 521.4,562.8 523.9,563.8 526.4,564.8 528.9,565.8 531.4,566.8 533.9,567.7 536.4,568.7 538.9,569.7 541.4,570.6 543.9,571.6 546.5,572.5 549.0,573.4 551.5,574.4 554.0,575.3 556.5,576.2 559.0,577.1 561.5,577.9 564.0,578.8 566.5,579.7 569.0,580.6 571.5,581.4 574.0,582.3 576.6,583.1 579.1,583.9 581.6,584.8 584.1,585.6 586.6,586.4 589.1,587.2 591.6,588.0 594.1,588.8 596.6,589.6 599.1,590.4 601.6,591.1 604.1,591.9 606.7,592.6 609.2,593.4 611.7,594.1 614.2,594.9 616.7,595.6 619.2,596.3 621.7,597.1 624.2,597.8 626.7,598.5 629.2,599.2 631.7,599.9 634.2,600.6 636.8,601.3 639.3,602.0 641.8,602.6 644.3,603.3 646.8,604.0 649.3,604.6 651.8,605.3 654.3,605.9 656.8,606.6 659.3,607.2 661.8,607.8 664.3,608.5 666.9,609.1 669.4,609.7 671.9,610.3 674.4,610.9 676.9,611.5 679.4,612.1 681.9,612.7 684.4,613.3 686.9,613.9 689.4,614.5 691.9,615.1 694.4,615.6 697.0,616.2 699.5,616.8 702.0,617.3 704.5,617.9 707.0,618.4 709.5,619.0 712.0,619.5 714.5,620.1 717.0,620.6 719.5,621.1 722.0,621.7 724.5,622.2 727.1,622.7 729.6,623.2 732.1,623.8 734.6,624.3 737.1,624.8 739.6,625.3 742.1,625.8 744.6,626.3 747.1,626.8 749.6,627.2 752.1,627.7 754.6,628.2 757.2,628.7 759.7,629.2 762.2,629.6 764.7,630.1 767.2,630.6 769.7,631.0 772.2,631.5 774.7,631.9 777.2,632.4 779.7,632.8 782.2,633.3 784.7,633.7 787.3,634.2 789.8,634.6 792.3,635.0 794.8,635.5 797.3,635.9 799.8,636.3 802.3,636.8 804.8,637.2 807.3,637.6 809.8,638.0 812.3,638.4 814.8,638.8 817.4,639.2 819.9,639.6 822.4,640.0 824.9,640.4 827.4,640.8 829.9,641.2 832.4,641.6 834.9,642.0 837.4,642.4 839.9,642.8 842.4,643.2 844.9,643.5 847.5,643.9 850.0,644.3 852.5,644.7 855.0,645.0 857.5,645.4 860.0,645.8" fill="none" stroke="#f97316" stroke-width="3.2" stroke-opacity="0.9" stroke-linejoin="round" stroke-linecap="round"/>
<polyline points="170.2,-493.3 172.7,-471.6 175.2,-449.9 177.7,-428.0 180.2,-406.2 182.7,-384.4 185.3,-362.6 187.8,-341.0 190.3,-319.6 192.8,-298.3 195.3,-277.2 197.8,-256.3 200.3,-235.7 202.8,-215.4 205.3,-195.4 207.8,-175.7 210.3,-156.2 212.8,-137.2 215.4,-118.4 217.9,-100.0 220.4,-81.9 222.9,-64.2 225.4,-46.9 227.9,-29.9 230.4,-13.3 232.9,3.0 235.4,18.9 237.9,34.5 240.4,49.7 242.9,64.6 245.5,79.1 248.0,93.3 250.5,107.1 253.0,120.7 255.5,133.9 258.0,146.7 260.5,159.3 263.0,171.6 265.5,183.5 268.0,195.2 270.5,206.6 273.0,217.7 275.6,228.5 278.1,239.0 280.6,249.3 283.1,259.4 285.6,269.2 288.1,278.7 290.6,288.0 293.1,297.1 295.6,306.0 298.1,314.6 300.6,323.0 303.1,331.2 305.7,339.3 308.2,347.1 310.7,354.7 313.2,362.1 315.7,369.4 318.2,376.5 320.7,383.4 323.2,390.2 325.7,396.7 328.2,403.2 330.7,409.4 333.2,415.6 335.8,421.6 338.3,427.4 340.8,433.1 343.3,438.7 345.8,444.1 348.3,449.4 350.8,454.6 353.3,459.7 355.8,464.6 358.3,469.5 360.8,474.2 363.3,478.9 365.9,483.4 368.4,487.8 370.9,492.1 373.4,496.4 375.9,500.5 378.4,504.6 380.9,508.5 383.4,512.4 385.9,516.2 388.4,519.9 390.9,523.5 393.4,527.1 396.0,530.5 398.5,533.9 401.0,537.3 403.5,540.5 406.0,543.7 408.5,546.9 411.0,549.9 413.5,552.9 416.0,555.9 418.5,558.8 421.0,561.6 423.5,564.4 426.1,567.1 428.6,569.7 431.1,572.4 433.6,574.9 436.1,577.4 438.6,579.9 441.1,582.3 443.6,584.7 446.1,587.0 448.6,589.3 451.1,591.5 453.6,593.7 456.2,595.8 458.7,598.0 461.2,600.0 463.7,602.1 466.2,604.1 468.7,606.0 471.2,608.0 473.7,609.8 476.2,611.7 478.7,613.5 481.2,615.3 483.7,617.1 486.3,618.8 488.8,620.5 491.3,622.2 493.8,623.8 496.3,625.4 498.8,627.0 501.3,628.6 503.8,630.1 506.3,631.6 508.8,633.1 511.3,634.5 513.8,636.0 516.4,637.4 518.9,638.8 521.4,640.1 523.9,641.5 526.4,642.8 528.9,644.1 531.4,645.4 533.9,646.6 536.4,647.9 538.9,649.1 541.4,650.3 543.9,651.4 546.5,652.6 549.0,653.7 551.5,654.9 554.0,656.0 556.5,657.1 559.0,658.1 561.5,659.2 564.0,660.2 566.5,661.3 569.0,662.3 571.5,663.3 574.0,664.2 576.6,665.2 579.1,666.2 581.6,667.1 584.1,668.0 586.6,668.9 589.1,669.8 591.6,670.7 594.1,671.6 596.6,672.4 599.1,673.3 601.6,674.1 604.1,674.9 606.7,675.8 609.2,676.6 611.7,677.3 614.2,678.1 616.7,678.9 619.2,679.6 621.7,680.4 624.2,681.1 626.7,681.9 629.2,682.6 631.7,683.3 634.2,684.0 636.8,684.7 639.3,685.3 641.8,686.0 644.3,686.7 646.8,687.3 649.3,688.0 651.8,688.6 654.3,689.2 656.8,689.9 659.3,690.5 661.8,691.1 664.3,691.7 666.9,692.3 669.4,692.8 671.9,693.4 674.4,694.0 676.9,694.5 679.4,695.1 681.9,695.6 684.4,696.2 686.9,696.7 689.4,697.2 691.9,697.7 694.4,698.3 697.0,698.8 699.5,699.3 702.0,699.8 704.5,700.2 707.0,700.7 709.5,701.2 712.0,701.7 714.5,702.1 717.0,702.6 719.5,703.1 722.0,703.5 724.5,703.9 727.1,704.4 729.6,704.8 732.1,705.2 734.6,705.7 737.1,706.1 739.6,706.5 742.1,706.9 744.6,707.3 747.1,707.7 749.6,708.1 752.1,708.5 754.6,708.9 757.2,709.3 759.7,709.7 762.2,710.0 764.7,710.4 767.2,710.8 769.7,711.1 772.2,711.5 774.7,711.8 777.2,712.2 779.7,712.5 782.2,712.9 784.7,713.2 787.3,713.6 789.8,713.9 792.3,714.2 794.8,714.5 797.3,714.9 799.8,715.2 802.3,715.5 804.8,715.8 807.3,716.1 809.8,716.4 812.3,716.7 814.8,717.0 817.4,717.3 819.9,717.6 822.4,717.9 824.9,718.2 827.4,718.5 829.9,718.8 832.4,719.0 834.9,719.3 837.4,719.6 839.9,719.9 842.4,720.1 844.9,720.4 847.5,720.6 850.0,720.9 852.5,721.2 855.0,721.4 857.5,721.7 860.0,721.9" fill="none" stroke="#60a5fa" stroke-width="3.2" stroke-opacity="0.9" stroke-linejoin="round" stroke-linecap="round"/>
<polyline points="398.1,843.1 388.9,838.9 380.1,834.7 371.7,830.7 363.7,826.7 356.0,822.9 348.7,819.1 341.7,815.3 335.0,811.7 328.5,808.1 322.3,804.5 316.4,801.0 310.7,797.5 305.2,794.1 299.9,790.7 294.8,787.3 289.9,784.0 285.2,780.7 280.7,777.4 276.3,774.1 272.0,770.9 267.9,767.7 263.9,764.5 260.1,761.3 256.4,758.1 252.8,755.0 249.4,751.9 246.0,748.8 242.8,745.7 239.6,742.6 236.6,739.5 233.6,736.4 230.8,733.4 228.0,730.3 225.4,727.3 222.8,724.3 220.3,721.2 217.8,718.2 215.5,715.2 213.2,712.2 211.0,709.2 208.8,706.3 206.8,703.3 204.8,700.3 202.8,697.4 200.9,694.4 199.1,691.5 197.3,688.5 195.6,685.6 193.9,682.6 192.3,679.7 190.8,676.8 189.2,673.9 187.8,671.0 186.4,668.1 185.0,665.2 183.7,662.3 182.4,659.4 181.1,656.5 179.9,653.6 178.8,650.8 177.7,647.9 176.6,645.0 175.5,642.2 174.5,639.3 173.6,636.5 172.6,633.7 171.7,630.8 170.8,628.0 170.0,625.2 169.2,622.4 168.4,619.5 167.6,616.7 166.9,613.9 166.2,611.1 165.5,608.3 164.9,605.6 164.3,602.8 163.7,600.0 163.1,597.2 162.6,594.5 162.1,591.7 161.6,588.9 161.1,586.2 160.7,583.4 160.2,580.7 159.8,578.0 159.4,575.2 159.1,572.5 158.7,569.8 158.4,567.1 158.1,564.4 157.8,561.7 157.5,559.0 157.3,556.3 157.0,553.6 156.8,550.9 156.6,548.3 156.4,545.6 156.2,542.9 156.1,540.3 155.9,537.6 155.8,535.0 155.7,532.3 155.6,529.7 155.5,527.1 155.4,524.4 155.4,521.8 155.3,519.2 155.3,516.6 155.3,514.0 155.3,511.4 155.3,508.8 155.3,506.3 155.3,503.7 155.3,501.1 155.4,498.5 155.4,496.0 155.5,493.4 155.6,490.9 155.7,488.4 155.8,485.8 155.9,483.3 156.0,480.8 156.1,478.3 156.3,475.7 156.4,473.2 156.6,470.8 156.7,468.3 156.9,465.8 157.1,463.3 157.3,460.8 157.5,458.4 157.7,455.9 157.9,453.5 158.1,451.0 158.3,448.6 158.6,446.2 158.8,443.7 159.1,441.3 159.3,438.9 159.6,436.5 159.8,434.1 160.1,431.7 160.4,429.3 160.7,427.0 161.0,424.6 161.3,422.2 161.6,419.9 161.9,417.5 162.2,415.2 162.6,412.9 162.9,410.5 163.2,408.2 163.6,405.9 163.9,403.6 164.3,401.3 164.7,399.0 165.0,396.7 165.4,394.5 165.8,392.2 166.2,390.0 166.6,387.7 167.0,385.5 167.4,383.2 167.8,381.0 168.2,378.8 168.6,376.6 169.1,374.4 169.5,372.2 169.9,370.0 170.4,367.8 170.8,365.7 171.3,363.5 171.8,361.4 172.2,359.2 172.7,357.1 173.2,355.0 173.7,352.9 174.2,350.8 174.7,348.7 175.2,346.6 175.7,344.5 176.2,342.4 176.7,340.4 177.2,338.3 177.8,336.3 178.3,334.3 178.8,332.2 179.4,330.2 180.0,328.2 180.5,326.2 181.1,324.3 181.7,322.3 182.2,320.3 182.8,318.4 183.4,316.5 184.0,314.5 184.6,312.6 185.3,310.7 185.9,308.8 186.5,307.0 187.2,305.1 187.8,303.2 188.4,301.4 189.1,299.6 189.8,297.7 190.5,295.9 191.1,294.1 191.8,292.4 192.5,290.6 193.2,288.8 193.9,287.1 194.7,285.4 195.4,283.7 196.2,282.0 196.9,280.3 197.7,278.6 198.4,276.9 199.2,275.3 200.0,273.7 200.8,272.1 201.6,270.5 202.4,268.9 203.3,267.3 204.1,265.8 205.0,264.2 205.8,262.7 206.7,261.2 207.6,259.7 208.5,258.3 209.4,256.8 210.3,255.4 211.3,254.0 212.2,252.6 213.2,251.2 214.2,249.9 215.2,248.5 216.2,247.2 217.2,245.9 218.3,244.6 219.3,243.4 220.4,242.2 221.5,241.0 222.6,239.8 223.7,238.6 224.9,237.5 226.1,236.4 227.2,235.3 228.4,234.2 229.7,233.2 230.9,232.2 232.2,231.2 233.5,230.3 234.8,229.3 236.2,228.4 237.5,227.6 238.9,226.7 240.4,225.9 241.8,225.2 243.3,224.4 244.8,223.7 246.3,223.1 247.9,222.4 249.5,221.8 251.2,221.3 252.8,220.8 254.5,220.3 256.3,219.9 258.1,219.5 259.9,219.1 261.8,218.8 263.7,218.5 265.7,218.3 267.7,218.2 269.7,218.1 271.9,218.0 274.0,218.0 276.3,218.0 278.5,218.2 280.9,218.3 283.3,218.6 285.8,218.9 288.3,219.2 290.9,219.6 293.6,220.1 296.4,220.7 299.2,221.4 302.1,222.1 305.2,222.9 308.3,223.8 311.5,224.8 314.8,225.9 318.3,227.1 321.8,228.4 325.4,229.8 329.2,231.3 333.1,232.9 337.2,234.6 341.4,236.5 345.7,238.5 350.2,240.6 354.9,242.9 359.7,245.3 364.8,247.8 370.0,250.6 375.4,253.5 381.0,256.6 386.9,259.8 393.0,263.3 399.3,267.0 406.0,270.8 412.8,274.9 420.0,279.3 427.4,283.8 435.2,288.7 443.3,293.8 451.7,299.1 460.5,304.8 469.7,310.7 479.2,317.0 489.1,323.6 499.4,330.5 510.1,337.7 521.2,345.3 532.8,353.3 544.7,361.6 557.1,370.2 569.8,379.2 582.9,388.6 596.4,398.3 610.2,408.4 624.2,418.7 638.5,429.4 653.0,440.3 667.6,451.5 682.1,462.8 696.7,474.4 711.0,486.0 725.1,497.6 738.9,509.3 752.1,520.8 764.8,532.3 776.7,543.5 787.9,554.5 798.2,565.2 807.5,575.5 815.9,585.5 823.2,594.9 829.3,604.0 834.4,612.5 838.4,620.5 841.2,628.0 843.0,635.0 843.8,641.6 843.6,647.6 842.5,653.1 840.5,658.2 837.7,662.9 834.2,667.1 830.0,670.9 825.2,674.4 819.9,677.6 814.1,680.4 807.8,682.9 801.2,685.2 794.2,687.2 787.0,689.0 779.5,690.6 771.8,691.9 763.9,693.1 755.9,694.1 747.8,695.0 739.6,695.7 731.3,696.2 723.1,696.7 714.7,697.0 706.4,697.3 698.1,697.4 689.9,697.4 681.6,697.4 673.4,697.3 665.3,697.1 657.2,696.8 649.2,696.4 641.3,696.0 633.4,695.6 625.7,695.1 618.0,694.5 610.4,693.9 602.9,693.2 595.6,692.5 588.3,691.7 581.1,690.9 574.0,690.1 567.0,689.2 560.1,688.3 553.3,687.4 546.6,686.4 540.1,685.4 533.6,684.4 527.2,683.3 520.9,682.2 514.8,681.1 508.7,679.9 502.7,678.7 496.8,677.5 491.1,676.3 485.4,675.0 479.8,673.8 474.3,672.5 468.9,671.1 463.6,669.8 458.3,668.4 453.2,667.0 448.1,665.6 443.2,664.2 438.3,662.7 433.5,661.3 428.8,659.8 424.2,658.3 419.6,656.8 415.1,655.2 410.7,653.7 406.4,652.1 402.2,650.5 398.0,648.9 393.9,647.3 389.9,645.7 385.9,644.0 382.0,642.3 378.2,640.7 374.4,639.0 370.7,637.3 367.1,635.5 363.6,633.8 360.1,632.1 356.6,630.3 353.2,628.5 349.9,626.8 346.7,625.0 343.5,623.1 340.3,621.3 337.2,619.5 334.2,617.7 331.2,615.8 328.3,613.9 325.4,612.1 322.6,610.2 319.8,608.3 317.1,606.4 314.4,604.5 311.8,602.6 309.3,600.6 306.7,598.7 304.2,596.8 301.8,594.8 299.4,592.9 297.1,590.9 294.8,588.9 292.5,586.9 290.3,585.0 288.1,583.0 286.0,581.0 283.9,578.9 281.9,576.9 279.8,574.9 277.9,572.9 275.9,570.9 274.0,568.8 272.2,566.8 270.3,564.7 268.6,562.7 266.8,560.6 265.1,558.6 263.4,556.5 261.7,554.5 260.1,552.4 258.5,550.3 257.0,548.2 255.5,546.2 254.0,544.1 252.5,542.0 251.1,539.9 249.7,537.8 248.4,535.7 247.0,533.6 245.7,531.5 244.4,529.4 243.2,527.3 242.0,525.2 240.8,523.1 239.6,521.0 238.5,518.9 237.4,516.8 236.3,514.7 235.2,512.6 234.2,510.5 233.2,508.4 232.2,506.3 231.2,504.2 230.3,502.1 229.4,499.9 228.5,497.8 227.6,495.7 226.8,493.6 226.0,491.5 225.2,489.4 224.4,487.3 223.6,485.2 222.9,483.1 222.2,481.0 221.5,478.9 220.8,476.8 220.2,474.7 219.5,472.6 218.9,470.6 218.3,468.5 217.8,466.4 217.2,464.3 216.7,462.2 216.2,460.1 215.7,458.1 215.2,456.0 214.7,453.9 214.3,451.9 213.9,449.8 213.5,447.8 213.1,445.7 212.7,443.7 212.3,441.6 212.0,439.6 211.7,437.5 211.4,435.5 211.1,433.5 210.8,431.4 210.5,429.4 210.3,427.4 210.0,425.4 209.8,423.4 209.6,421.4 209.4,419.4 209.3,417.4 209.1,415.4 209.0,413.4 208.8,411.5 208.7,409.5 208.6,407.5 208.5,405.6 208.4,403.6 208.4,401.7 208.3,399.7 208.3,397.8 208.3,395.9 208.3,393.9 208.3,392.0 208.3,390.1 208.3,388.2 208.4,386.3 208.4,384.4 208.5,382.5 208.6,380.7 208.7,378.8 208.8,376.9 208.9,375.1 209.0,373.2 209.1,371.4 209.3,369.6 209.5,367.7 209.6,365.9 209.8,364.1 210.0,362.3 210.2,360.5 210.5,358.8 210.7,357.0 210.9,355.2 211.2,353.5 211.5,351.7 211.7,350.0 212.0,348.3 212.3,346.6 212.7,344.9 213.0,343.2 213.3,341.5 213.7,339.8 214.0,338.1 214.4,336.5 214.8,334.8 215.2,333.2 215.6,331.6 216.0,330.0 216.5,328.4 216.9,326.8 217.4,325.2 217.8,323.6 218.3,322.1 218.8,320.6 219.3,319.0 219.8,317.5 220.3,316.0 220.9,314.5 221.4,313.1 222.0,311.6 222.6,310.1 223.2,308.7 223.8,307.3 224.4,305.9 225.1,304.5 225.7,303.1 226.4,301.8 227.0,300.4 227.7,299.1 228.4,297.8 229.2,296.5 229.9,295.2 230.7,294.0 231.4,292.7 232.2,291.5 233.0,290.3 233.8,289.1 234.6,287.9 235.5,286.8 236.4,285.6 237.2,284.5 238.1,283.4 239.1,282.4 240.0,281.3 240.9,280.3 241.9,279.3 242.9,278.3 243.9,277.3 245.0,276.4 246.0,275.5 247.1,274.6 248.2,273.7 249.3,272.9 250.5,272.1 251.7,271.3 252.8,270.5 254.1,269.8 255.3,269.1 256.6,268.4 257.9,267.8 259.2,267.2 260.6,266.6 262.0,266.1 263.4,265.6 264.8,265.1 266.3,264.6 267.8,264.2 269.4,263.8 271.0,263.5 272.6,263.2 274.2,263.0 275.9,262.7 277.7,262.6 279.5,262.4 281.3,262.4 283.1,262.3 285.0,262.3 287.0,262.4 289.0,262.5 291.1,262.6 293.2,262.8 295.3,263.1 297.6,263.4 299.8,263.8 302.2,264.2 304.6,264.7 307.1,265.3 309.6,265.9 312.2,266.6 314.9,267.4 317.6,268.2 320.4,269.1 323.4,270.1 326.4,271.2 329.4,272.4 332.6,273.6 335.9,274.9 339.3,276.3 342.7,277.9 346.3,279.5 350.0,281.2 353.8,283.0 357.7,284.9 361.8,287.0 366.0,289.2 370.3,291.4 374.7,293.8 379.3,296.4 384.1,299.1 389.0,301.9 394.1,304.8 399.3,308.0 404.7,311.2 410.3,314.7 416.1,318.3 422.1,322.0 428.3,326.0 434.6,330.1 441.2,334.4 448.0,338.9 455.1,343.6 462.3,348.6 469.8,353.7 477.5,359.0 485.4,364.6 493.6,370.3 502.0,376.3 510.6,382.5 519.4,388.9 528.5,395.6 537.7,402.5 547.1,409.5 556.8,416.8 566.5,424.3 576.4,432.0 586.4,439.8 596.5,447.9 606.6,456.0 616.8,464.3 626.9,472.8 636.9,481.3 646.8,489.8 656.5,498.4 666.0,507.0 675.2,515.6 684.1,524.2 692.6,532.6 700.7,541.0 708.3,549.2 715.4,557.2 722.0,565.1 727.9,572.7 733.3,580.1 738.0,587.2 742.0,594.1 745.4,600.6 748.2,606.9 750.2,612.9 751.7,618.6 752.4,623.9 752.6,629.0 752.2,633.7 751.2,638.1 749.6,642.3 747.5,646.2 745.0,649.8 742.0,653.1 738.6,656.2 734.8,659.0 730.6,661.6 726.1,664.0 721.3,666.2 716.3,668.1 711.0,669.9 705.5,671.6 699.8,673.0 693.9,674.3 687.9,675.4 681.8,676.5 675.5,677.3 669.2,678.1 662.8,678.7 656.4,679.2 649.9,679.7 643.3,680.0 636.8,680.2 630.2,680.4 623.7,680.4 617.1,680.4 610.6,680.3 604.1,680.2 597.6,679.9 591.2,679.6 584.8,679.3 578.5,678.9 572.2,678.4 565.9,677.9 559.8,677.3 553.6,676.7 547.6,676.1 541.6,675.4 535.6,674.6 529.8,673.8 524.0,673.0 518.2,672.2 512.6,671.3 507.0,670.3 501.5,669.4 496.1,668.4 490.7,667.4 485.4,666.3 480.2,665.2 475.0,664.1 470.0,663.0 465.0,661.8 460.0,660.6 455.2,659.4 450.4,658.1 445.7,656.9 441.1,655.6 436.5,654.3 432.0,652.9 427.6,651.6 423.2,650.2 418.9,648.8 414.7,647.4 410.5,645.9 406.4,644.5 402.4,643.0 398.4,641.5 394.5,640.0 390.7,638.4 386.9,636.9 383.2,635.3 379.5,633.8 375.9,632.2 372.4,630.5 368.9,628.9 365.5,627.3 362.1,625.6 358.8,624.0 355.5,622.3 352.3,620.6 349.2,618.9 346.1,617.1 343.1,615.4 340.1,613.7 337.1,611.9 334.2,610.1 331.4,608.4 328.6,606.6 325.8,604.8 323.1,602.9 320.5,601.1 317.9,599.3 315.3,597.4 312.8,595.6 310.3,593.7 307.9,591.9 305.5,590.0 303.2,588.1 300.9,586.2 298.6,584.3 296.4,582.4 294.2,580.5 292.1,578.5 290.0,576.6 287.9,574.6 285.9,572.7 283.9,570.7 281.9,568.8 280.0,566.8 278.2,564.8 276.3,562.9 274.5,560.9 272.7,558.9 271.0,556.9 269.3,554.9 267.6,552.9 266.0,550.9 264.4,548.9 262.8,546.9 261.2,544.8 259.7,542.8 258.2,540.8 256.8,538.8 255.4,536.7 254.0,534.7 252.6,532.6 251.3,530.6 250.0,528.6 248.7,526.5 247.4,524.5 246.2,522.4 245.0,520.4 243.8,518.3 242.7,516.3 241.6,514.2 240.5,512.1 239.4,510.1 238.4,508.0 237.4,506.0 236.4,503.9 235.4,501.9 234.5,499.8 233.5,497.7 232.6,495.7 231.8,493.6 230.9,491.6 230.1,489.5 229.3,487.4 228.5,485.4 227.7,483.3 227.0,481.3 226.2,479.2 225.5,477.2 224.8,475.1 224.2,473.1 223.5,471.0 222.9,469.0 222.3,466.9 221.7,464.9 221.1,462.8 220.6,460.8 220.1,458.8 219.6,456.7 219.1,454.7 218.6,452.7 218.1,450.7 217.7,448.6 217.3,446.6 216.9,444.6 216.5,442.6 216.1,440.6 215.7,438.6 215.4,436.6 215.1,434.6 214.8,432.6 214.5,430.6 214.2,428.6 213.9,426.7 213.7,424.7 213.4,422.7 213.2,420.8 213.0,418.8 212.8,416.9 212.7,414.9 212.5,413.0 212.4,411.0 212.2,409.1 212.1,407.2 212.0,405.2 211.9,403.3 211.8,401.4 211.8,399.5 211.7,397.6 211.7,395.7 211.7,393.8 211.7,391.9 211.7,390.1 211.7,388.2 211.7,386.3 211.8,384.5 211.8,382.6 211.9,380.8 212.0,379.0 212.0,377.1 212.2,375.3 212.3,373.5 212.4,371.7 212.5,369.9 212.7,368.1 212.9,366.4 213.0,364.6 213.2,362.8 213.4,361.1 213.6,359.3 213.9,357.6 214.1,355.9 214.3,354.2 214.6,352.4 214.9,350.7 215.2,349.1 215.5,347.4 215.8,345.7 216.1,344.1 216.4,342.4 216.8,340.8 217.1,339.1 217.5,337.5 217.9,335.9 218.3,334.3 218.7,332.7 219.1,331.2 219.5,329.6 219.9,328.0 220.4,326.5 220.9,325.0 221.3,323.5 221.8,322.0 222.3,320.5 222.9,319.0 223.4,317.5 223.9,316.1 224.5,314.6 225.0,313.2 225.6,311.8 226.2,310.4 226.8,309.0 227.5,307.7 228.1,306.3 228.7,305.0 229.4,303.7 230.1,302.4 230.8,301.1 231.5,299.8 232.2,298.6 233.0,297.3 233.7,296.1 234.5,294.9 235.3,293.7 236.1,292.5 236.9,291.4 237.7,290.3 238.6,289.2 239.5,288.1 240.3,287.0 241.3,286.0 242.2,284.9 243.1,283.9 244.1,282.9 245.1,282.0 246.1,281.1 247.1,280.1 248.2,279.2 249.2,278.4 250.3,277.5 251.5,276.7 252.6,275.9 253.8,275.2 254.9,274.4 256.2,273.7 257.4,273.1 258.7,272.4 260.0,271.8 261.3,271.2 262.6,270.6 264.0,270.1 265.4,269.6 266.9,269.2 268.3,268.8 269.9,268.4 271.4,268.0 273.0,267.7 274.6,267.4 276.2,267.2 277.9,267.0 279.7,266.9 281.4,266.7 283.2,266.7 285.1,266.7 287.0,266.7 289.0,266.8 291.0,266.9 293.0,267.1 295.1,267.3 297.3,267.6 299.5,267.9 301.7,268.3 304.1,268.8 306.5,269.3 308.9,269.9 311.4,270.5" fill="none" stroke="#4ade80" stroke-width="2.6" stroke-opacity="0.72" stroke-linejoin="round" stroke-linecap="round"/>
<polyline points="309.4,488.1 308.6,487.0 307.8,486.0 307.0,484.9 306.2,483.8 305.4,482.7 304.6,481.7 303.9,480.6 303.1,479.5 302.4,478.4 301.7,477.3 301.0,476.2 300.3,475.1 299.6,474.0 298.9,472.9 298.2,471.8 297.6,470.6 297.0,469.5 296.3,468.4 295.7,467.3 295.1,466.2 294.5,465.0 293.9,463.9 293.4,462.8 292.8,461.7 292.3,460.5 291.7,459.4 291.2,458.3 290.7,457.1 290.2,456.0 289.7,454.9 289.2,453.7 288.8,452.6 288.3,451.5 287.9,450.4 287.5,449.2 287.0,448.1 286.6,447.0 286.3,445.8 285.9,444.7 285.5,443.6 285.2,442.5 284.8,441.3 284.5,440.2 284.2,439.1 283.9,438.0 283.6,436.9 283.3,435.8 283.0,434.7 282.7,433.5 282.5,432.4 282.3,431.3 282.0,430.2 281.8,429.2 281.6,428.1 281.4,427.0 281.3,425.9 281.1,424.8 280.9,423.7 280.8,422.7 280.7,421.6 280.6,420.5 280.5,419.5 280.4,418.4 280.3,417.4 280.2,416.3 280.2,415.3 280.1,414.3 280.1,413.2 280.1,412.2 280.1,411.2 280.1,410.2 280.1,409.2 280.1,408.2 280.2,407.2 280.2,406.2 280.3,405.3 280.4,404.3 280.5,403.3 280.6,402.4 280.7,401.4 280.8,400.5 281.0,399.6 281.1,398.7 281.3,397.8 281.5,396.9 281.7,396.0 281.9,395.1 282.1,394.2 282.3,393.3 282.6,392.5 282.9,391.6 283.1,390.8 283.4,390.0 283.7,389.2 284.0,388.4 284.4,387.6 284.7,386.8 285.1,386.0 285.4,385.3 285.8,384.5 286.2,383.8 286.7,383.1 287.1,382.4 287.5,381.7 288.0,381.0 288.5,380.3 289.0,379.7 289.5,379.0 290.0,378.4 290.5,377.8 291.1,377.2 291.6,376.6 292.2,376.1 292.8,375.5 293.4,375.0 294.1,374.5 294.7,374.0 295.4,373.5 296.1,373.0 296.8,372.6 297.5,372.1 298.2,371.7 299.0,371.3 299.8,371.0 300.6,370.6 301.4,370.3 302.2,370.0 303.1,369.7 303.9,369.4 304.8,369.1 305.7,368.9 306.7,368.7 307.6,368.5 308.6,368.3 309.6,368.2 310.6,368.1 311.6,368.0 312.7,367.9 313.8,367.9 314.9,367.8 316.0,367.9 317.2,367.9 318.3,367.9 319.5,368.0 320.8,368.2 322.0,368.3 323.3,368.5 324.6,368.7 325.9,368.9 327.3,369.2 328.6,369.5 330.1,369.8 331.5,370.1 333.0,370.5 334.4,370.9 336.0,371.4 337.5,371.9 339.1,372.4 340.7,373.0 342.4,373.6 344.0,374.2 345.7,374.9 347.5,375.6 349.3,376.4 351.1,377.1 352.9,378.0 354.8,378.8 356.7,379.7 358.6,380.7 360.6,381.7 362.6,382.7 364.7,383.8 366.8,384.9 368.9,386.1 371.0,387.3 373.2,388.6 375.5,389.9 377.7,391.3 380.1,392.7 382.4,394.1 384.8,395.6 387.2,397.2 389.7,398.8 392.2,400.5 394.7,402.2 397.3,403.9 399.9,405.7 402.6,407.6 405.2,409.5 408.0,411.5 410.7,413.5 413.5,415.6 416.3,417.7 419.2,419.9 422.1,422.1 425.0,424.4 428.0,426.7 430.9,429.1 433.9,431.5 437.0,434.0 440.0,436.5 443.1,439.1 446.2,441.8 449.3,444.4 452.4,447.2 455.5,449.9 458.6,452.7 461.8,455.6 464.9,458.5 468.0,461.4 471.2,464.4 474.3,467.4 477.4,470.4 480.5,473.5 483.5,476.6 486.6,479.7 489.5,482.8 492.5,486.0 495.4,489.1 498.3,492.3 501.1,495.5 503.9,498.7 506.6,501.9 509.2,505.1 511.8,508.3 514.2,511.5 516.6,514.7 518.9,517.8 521.2,521.0 523.3,524.1 525.3,527.2 527.2,530.3 529.0,533.3 530.7,536.3 532.3,539.3 533.8,542.2 535.1,545.1 536.4,547.9 537.4,550.7 538.4,553.5 539.2,556.1 540.0,558.8 540.5,561.3 541.0,563.9 541.3,566.3 541.5,568.7 541.5,571.0 541.4,573.2 541.2,575.4 540.9,577.5 540.4,579.6 539.8,581.6 539.1,583.5 538.2,585.3 537.3,587.1 536.2,588.8 535.1,590.4 533.8,592.0 532.4,593.4 530.9,594.9 529.3,596.2 527.6,597.5 525.8,598.7 524.0,599.8 522.0,600.9 520.0,601.9 517.9,602.9 515.8,603.8 513.5,604.6 511.2,605.4 508.9,606.1 506.5,606.7 504.0,607.3 501.5,607.8 498.9,608.3 496.3,608.7 493.6,609.1 490.9,609.4 488.2,609.7 485.5,609.9 482.7,610.0 479.9,610.2 477.1,610.2 474.2,610.2 471.3,610.2 468.5,610.2 465.6,610.0 462.7,609.9 459.8,609.7 456.8,609.5 453.9,609.2 451.0,608.9 448.1,608.5 445.1,608.2 442.2,607.7 439.3,607.3 436.4,606.8 433.5,606.3 430.6,605.7 427.7,605.1 424.8,604.5 422.0,603.9 419.1,603.2 416.3,602.5 413.5,601.8 410.7,601.0 407.9,600.2 405.1,599.4 402.4,598.6 399.6,597.7 396.9,596.8 394.2,595.9 391.6,595.0 388.9,594.0 386.3,593.0 383.7,592.0 381.1,591.0 378.5,590.0 376.0,588.9 373.5,587.8 371.0,586.7 368.5,585.6 366.1,584.4 363.7,583.3 361.3,582.1 358.9,580.9 356.6,579.7 354.2,578.5 352.0,577.2 349.7,576.0 347.4,574.7 345.2,573.4 343.0,572.1 340.9,570.8 338.7,569.4 336.6,568.1 334.5,566.7 332.5,565.3 330.4,563.9 328.4,562.5 326.4,561.1 324.5,559.7 322.6,558.3 320.6,556.8 318.8,555.3 316.9,553.9 315.1,552.4 313.3,550.9 311.5,549.4 309.7,547.9 308.0,546.4 306.3,544.8 304.6,543.3 302.9,541.7 301.3,540.2 299.7,538.6 298.1,537.0 296.6,535.4 295.0,533.9 293.5,532.3 292.0,530.7 290.5,529.0 289.1,527.4 287.7,525.8 286.3,524.2 284.9,522.5 283.5,520.9 282.2,519.2 280.9,517.6 279.6,515.9 278.4,514.3 277.1,512.6 275.9,510.9 274.7,509.2 273.5,507.6 272.4,505.9 271.2,504.2 270.1,502.5 269.0,500.8 267.9,499.1 266.9,497.4 265.8,495.7 264.8,494.0 263.8,492.3 262.9,490.6 261.9,488.8 261.0,487.1 260.1,485.4 259.2,483.7 258.3,482.0 257.4,480.2 256.6,478.5 255.8,476.8 255.0,475.1 254.2,473.3 253.4,471.6 252.7,469.9 252.0,468.1 251.2,466.4 250.6,464.7 249.9,462.9 249.2,461.2 248.6,459.5 248.0,457.8 247.3,456.0 246.8,454.3 246.2,452.6 245.6,450.9 245.1,449.1 244.6,447.4 244.1,445.7 243.6,444.0 243.1,442.3 242.6,440.5 242.2,438.8 241.8,437.1 241.3,435.4 240.9,433.7 240.6,432.0 240.2,430.3 239.8,428.6 239.5,426.9 239.2,425.2 238.9,423.6 238.6,421.9 238.3,420.2 238.0,418.5 237.8,416.8 237.6,415.2 237.3,413.5 237.1,411.9 236.9,410.2 236.8,408.6 236.6,406.9 236.4,405.3 236.3,403.7 236.2,402.0 236.1,400.4 236.0,398.8 235.9,397.2 235.8,395.6 235.8,394.0 235.7,392.4 235.7,390.8 235.7,389.2 235.7,387.6 235.7,386.1 235.7,384.5 235.8,383.0 235.8,381.4 235.9,379.9 236.0,378.4 236.0,376.8 236.2,375.3 236.3,373.8 236.4,372.3 236.5,370.8 236.7,369.4 236.9,367.9 237.0,366.4 237.2,365.0 237.5,363.5 237.7,362.1 237.9,360.7 238.2,359.2 238.4,357.8 238.7,356.4 239.0,355.1 239.3,353.7 239.6,352.3 239.9,351.0 240.3,349.6 240.6,348.3 241.0,347.0 241.4,345.7 241.8,344.4 242.2,343.1 242.6,341.8 243.1,340.5 243.5,339.3 244.0,338.1 244.5,336.8 245.0,335.6 245.5,334.5 246.0,333.3 246.5,332.1 247.1,331.0 247.7,329.8 248.3,328.7 248.9,327.6 249.5,326.5 250.1,325.4 250.8,324.4 251.5,323.4 252.1,322.3 252.8,321.3 253.6,320.3 254.3,319.4 255.1,318.4 255.8,317.5 256.6,316.6 257.4,315.7 258.3,314.8 259.1,314.0 260.0,313.1 260.9,312.3 261.8,311.6 262.7,310.8 263.7,310.0 264.6,309.3 265.6,308.6 266.7,308.0 267.7,307.3 268.8,306.7 269.9,306.1 271.0,305.5 272.1,305.0 273.3,304.5 274.5,304.0 275.7,303.5 276.9,303.1 278.2,302.7 279.5,302.3 280.8,302.0 282.2,301.7 283.6,301.4 285.0,301.2 286.5,301.0 288.0,300.8 289.5,300.7 291.1,300.6 292.6,300.5 294.3,300.5 296.0,300.5 297.7,300.6 299.4,300.7 301.2,300.9 303.1,301.1 304.9,301.3 306.9,301.6 308.8,301.9 310.9,302.3 312.9,302.8 315.0,303.3 317.2,303.8 319.5,304.4 321.7,305.1 324.1,305.8 326.5,306.6 328.9,307.4 331.5,308.3 334.1,309.3 336.7,310.3 339.4,311.4 342.2,312.6 345.1,313.8 348.1,315.1 351.1,316.5 354.2,318.0 357.4,319.6 360.7,321.2 364.0,323.0 367.5,324.8 371.0,326.7 374.7,328.7 378.4,330.8 382.3,333.0 386.2,335.3 390.3,337.7 394.4,340.2 398.7,342.8 403.1,345.6 407.6,348.4 412.2,351.4 417.0,354.5 421.8,357.7 426.8,361.0 432.0,364.5 437.2,368.1 442.6,371.8 448.1,375.7 453.8,379.7 459.5,383.9 465.4,388.1 471.4,392.5 477.6,397.1 483.9,401.8 490.2,406.6 496.7,411.6 503.3,416.7 510.0,422.0 516.8,427.3 523.7,432.8 530.6,438.4 537.6,444.2 544.6,450.0 551.6,455.9 558.7,462.0 565.7,468.1 572.7,474.3 579.7,480.5 586.6,486.8 593.3,493.2 600.0,499.5 606.5,505.9 612.8,512.3 619.0,518.6 624.9,524.9 630.6,531.2 636.0,537.4 641.1,543.5 645.9,549.5 650.4,555.4 654.6,561.2 658.3,566.8 661.7,572.4 664.8,577.7 667.4,582.9 669.6,588.0 671.5,592.8 672.9,597.5 673.9,602.0 674.6,606.3 674.8,610.4 674.7,614.3 674.2,618.0 673.4,621.6 672.2,624.9 670.6,628.1 668.8,631.1 666.7,633.9 664.2,636.5 661.5,639.0 658.6,641.3 655.4,643.4 652.0,645.4 648.4,647.2 644.6,648.9 640.6,650.5 636.5,651.9 632.2,653.2 627.8,654.4 623.3,655.5 618.6,656.5 613.9,657.3 609.1,658.1 604.2,658.7 599.3,659.3 594.3,659.7 589.3,660.1 584.2,660.4 579.1,660.6 574.0,660.8 568.8,660.9 563.7,660.9 558.6,660.8 553.4,660.7 548.3,660.5 543.2,660.3 538.1,660.0 533.0,659.6 528.0,659.2 522.9,658.8 517.9,658.3 513.0,657.8 508.1,657.2 503.2,656.5 498.3,655.9 493.5,655.2 488.8,654.4 484.0,653.6 479.4,652.8 474.8,651.9 470.2,651.1 465.7,650.1 461.2,649.2 456.8,648.2 452.4,647.2 448.1,646.1 443.8,645.1 439.6,644.0 435.4,642.8 431.3,641.7 427.2,640.5 423.2,639.3 419.3,638.1 415.4,636.8 411.5,635.5 407.7,634.3 404.0,632.9 400.3,631.6 396.6,630.2 393.1,628.9 389.5,627.5 386.0,626.1 382.6,624.6 379.2,623.2 375.8,621.7 372.6,620.2 369.3,618.7 366.1,617.2 363.0,615.7 359.9,614.1 356.8,612.6 353.8,611.0 350.9,609.4 347.9,607.8 345.1,606.2 342.2,604.5 339.5,602.9 336.7,601.2 334.0,599.5 331.4,597.8 328.8,596.1 326.2,594.4 323.7,592.7 321.2,591.0 318.7,589.2 316.3,587.5 314.0,585.7 311.6,584.0 309.4,582.2 307.1,580.4 304.9,578.6 302.7,576.8 300.6,575.0 298.5,573.1 296.4,571.3 294.4,569.4 292.4,567.6 290.4,565.7 288.5,563.9 286.6,562.0 284.8,560.1 282.9,558.2 281.2,556.3 279.4,554.4 277.7,552.5 276.0,550.6 274.3,548.7 272.7,546.8 271.1,544.9 269.5,543.0 268.0,541.0 266.4,539.1 265.0,537.1 263.5,535.2 262.1,533.2 260.7,531.3 259.3,529.3 258.0,527.4 256.7,525.4 255.4,523.4 254.1,521.5 252.9,519.5 251.7,517.5 250.5,515.5 249.3,513.6 248.2,511.6 247.1,509.6 246.0,507.6 244.9,505.6 243.9,503.7 242.9,501.7 241.9,499.7 240.9,497.7 240.0,495.7 239.1,493.7 238.2,491.7 237.3,489.7 236.4,487.7 235.6,485.8 234.8,483.8 234.0,481.8 233.2,479.8 232.5,477.8 231.7,475.8 231.0,473.8 230.3,471.8 229.7,469.9 229.0,467.9 228.4,465.9 227.8,463.9 227.2,461.9 226.6,460.0 226.0,458.0 225.5,456.0 225.0,454.1 224.5,452.1 224.0,450.1 223.5,448.2 223.1,446.2 222.6,444.3 222.2,442.3 221.8,440.4 221.4,438.4 221.1,436.5 220.7,434.5 220.4,432.6 220.0,430.7 219.7,428.8 219.4,426.8 219.2,424.9 218.9,423.0 218.7,421.1 218.4,419.2 218.2,417.3 218.0,415.4 217.8,413.5 217.7,411.6 217.5,409.7 217.4,407.9 217.2,406.0 217.1,404.1 217.0,402.3 216.9,400.4 216.9,398.6 216.8,396.7 216.8,394.9 216.7,393.1 216.7,391.3 216.7,389.4 216.7,387.6 216.7,385.8 216.8,384.0 216.8,382.2 216.9,380.5 216.9,378.7 217.0,376.9 217.1,375.2 217.2,373.4 217.3,371.7 217.5,369.9 217.6,368.2 217.8,366.5 217.9,364.8 218.1,363.1 218.3,361.4 218.5,359.7 218.7,358.0 219.0,356.3 219.2,354.7 219.5,353.0 219.7,351.4 220.0,349.8 220.3,348.1 220.6,346.5 220.9,344.9 221.3,343.3 221.6,341.8 221.9,340.2 222.3,338.6 222.7,337.1 223.1,335.6 223.5,334.0 223.9,332.5 224.3,331.0 224.8,329.5 225.2,328.1 225.7,326.6 226.2,325.1 226.7,323.7 227.2,322.3 227.7,320.9 228.2,319.5 228.8,318.1 229.3,316.7 229.9,315.3 230.5,314.0 231.1,312.7 231.7,311.4 232.3,310.1 233.0,308.8 233.7,307.5 234.3,306.3 235.0,305.0 235.7,303.8 236.5,302.6 237.2,301.4 237.9,300.2 238.7,299.1 239.5,298.0 240.3,296.9 241.1,295.8 242.0,294.7 242.8,293.6 243.7,292.6 244.6,291.6 245.5,290.6 246.4,289.6 247.4,288.7 248.4,287.8 249.4,286.9 250.4,286.0 251.4,285.1 252.5,284.3 253.5,283.5 254.7,282.7 255.8,281.9 256.9,281.2 258.1,280.5 259.3,279.8 260.5,279.2 261.8,278.6 263.1,278.0 264.4,277.4 265.7,276.9 267.1,276.4 268.5,276.0 269.9,275.5 271.4,275.2 272.9,274.8 274.4,274.5 276.0,274.2 277.6,274.0 279.2,273.8 280.9,273.6 282.6,273.5 284.4,273.4 286.2,273.4 288.0,273.4 289.9,273.4 291.8,273.5 293.8,273.7 295.8,273.9 297.9,274.1 300.0,274.4 302.2,274.8 304.5,275.2 306.8,275.7 309.2,276.2 311.6,276.8 314.1,277.5 316.6,278.2 319.3,279.0 322.0,279.9 324.8,280.9 327.6,281.9 330.6,283.0 333.6,284.1 336.7,285.4 339.9,286.7 343.2,288.2 346.6,289.7 350.1,291.3 353.7,293.0 357.4,294.8 361.2,296.8 365.1,298.8 369.2,300.9 373.4,303.2 377.7,305.6 382.1,308.1 386.7,310.7 391.4,313.5 396.3,316.3 401.3,319.4 406.5,322.6 411.9,325.9 417.4,329.4 423.1,333.0 428.9,336.8 435.0,340.8 441.2,344.9 447.6,349.2 454.3,353.7 461.1,358.4 468.1,363.3 475.3,368.3 482.7,373.6 490.2,379.0 498.0,384.6 506.0,390.5 514.2,396.5 522.5,402.7 531.0,409.1 539.6,415.7 548.4,422.4 557.3,429.4 566.3,436.5 575.4,443.8 584.5,451.2 593.7,458.7 602.9,466.3 612.0,474.1 621.1,481.9 630.0,489.8 638.8,497.7 647.4,505.6 655.8,513.6 663.8,521.4 671.6,529.3 679.0,537.0 686.0,544.6 692.6,552.1 698.7,559.4 704.3,566.6 709.4,573.6 714.0,580.3 718.0,586.8 721.4,593.1 724.3,599.1 726.5,604.9 728.2,610.4 729.4,615.7 730.0,620.6 730.0,625.3 729.5,629.7 728.5,633.9 727.1,637.8 725.1,641.5 722.8,644.9 720.0,648.1 716.9,651.0 713.4,653.8 709.6,656.3 705.5,658.6 701.1,660.7 696.5,662.7 691.6,664.4 686.6,666.0 681.4,667.5 676.0,668.8 670.4,669.9 664.8,671.0 659.0,671.9 653.1,672.7 647.2,673.3 641.2,673.9 635.2,674.3 629.1,674.7 623.0,675.0 616.9,675.2 610.7,675.3 604.6,675.3 598.5,675.3 592.4,675.2 586.3,675.0 580.2,674.7 574.2,674.4 568.2,674.1 562.2,673.6 556.3,673.2 550.4,672.6 544.6,672.1 538.9,671.5 533.2,670.8 527.5,670.1 521.9,669.4 516.4,668.6 510.9,667.7 505.5,666.9 500.2,666.0 494.9,665.1 489.7,664.1 484.5,663.1 479.5,662.1 474.5,661.0 469.5,659.9 464.6,658.8 459.8,657.7 455.1,656.5 450.4,655.3 445.8,654.1 441.3,652.9 436.8,651.6 432.4,650.3 428.0,649.0 423.7,647.7 419.5,646.3 415.4,644.9 411.3,643.6 407.2,642.1 403.3,640.7 399.4,639.2 395.5,637.8 391.7,636.3 388.0,634.8 384.3,633.3 380.7,631.7 377.2,630.2 373.7,628.6 370.2,627.0 366.8,625.4 363.5,623.8 360.2,622.1 357.0,620.5 353.8,618.8 350.7,617.1 347.6,615.4 344.6,613.7 341.6,612.0 338.7,610.3 335.9,608.6 333.0,606.8 330.3,605.0 327.5,603.3 324.8,601.5 322.2,599.7 319.6,597.9 317.1,596.1 314.6,594.2 312.1,592.4 309.7,590.6 307.3,588.7 305.0,586.9 302.7,585.0 300.4,583.1 298.2,581.2 296.0,579.3 293.9,577.4 291.8,575.5 289.7,573.6 287.7,571.7 285.7,569.7 283.8,567.8 281.9,565.9 280.0,563.9 278.1,561.9 276.3,560.0 274.5,558.0 272.8,556.0 271.1,554.1 269.4,552.1 267.8,550.1 266.2,548.1 264.6,546.1 263.0,544.1 261.5,542.1 260.0,540.1 258.6,538.1 257.2,536.1 255.8,534.1 254.4,532.1 253.0,530.0 251.7,528.0 250.4,526.0 249.2,523.9 248.0,521.9 246.8,519.9 245.6,517.9 244.4,515.8 243.3,513.8 242.2,511.7 241.1,509.7 240.1,507.7 239.1,505.6 238.0,503.6 237.1,501.5 236.1,499.5 235.2,497.4 234.3,495.4 233.4,493.4 232.5,491.3 231.7,489.3 230.9,487.2 230.1,485.2 229.3,483.2 228.5,481.1 227.8,479.1 227.1,477.0 226.4,475.0 225.7,473.0 225.1,470.9 224.4,468.9 223.8,466.9 223.2,464.9 222.7,462.8 222.1,460.8 221.6,458.8 221.0,456.8 220.5,454.8 220.0,452.7 219.6,450.7 219.1,448.7 218.7,446.7 218.3,444.7 217.9,442.7 217.5,440.7 217.1,438.7 216.8,436.8 216.4,434.8 216.1,432.8 215.8,430.8 215.5,428.9 215.3,426.9 215.0,424.9 214.8,423.0 214.5,421.0 214.3,419.1 214.1,417.1 214.0,415.2 213.8,413.3 213.6,411.3 213.5,409.4 213.4,407.5 213.3,405.6 213.2,403.7 213.1,401.8 213.0,399.9 213.0,398.0 212.9,396.1 212.9,394.3 212.9,392.4 212.9,390.5 212.9,388.7 212.9,386.8 212.9,385.0 213.0,383.1 213.0,381.3 213.1,379.5 213.2,377.7 213.3,375.9 213.4,374.1 213.5,372.3 213.7,370.5 213.8,368.7 214.0,367.0 214.1,365.2 214.3,363.4 214.5,361.7 214.7,360.0 214.9,358.2 215.2,356.5 215.4,354.8 215.7,353.1 215.9,351.4 216.2,349.8 216.5,348.1 216.8,346.4 217.1,344.8 217.5,343.1 217.8,341.5 218.1,339.9 218.5,338.3 218.9,336.7 219.3,335.1 219.7,333.5 220.1,332.0 220.5,330.4 220.9,328.9 221.4,327.3 221.8,325.8 222.3,324.3 222.8,322.8 223.3,321.4 223.8,319.9 224.3,318.4 224.9,317.0 225.4,315.6 226.0,314.2 226.6,312.8 227.2,311.4 227.8,310.0 228.4,308.7 229.0,307.3 229.7,306.0 230.3,304.7 231.0,303.4 231.7,302.1 232.4,300.9 233.1,299.6 233.9,298.4 234.6,297.2 235.4,296.0 236.2,294.8 237.0,293.7 237.8,292.5 238.6,291.4 239.5,290.3 240.4,289.2 241.3,288.2 242.2,287.1 243.1,286.1 244.0,285.1 245.0,284.2 246.0,283.2 247.0,282.3 248.0,281.4 249.1,280.5 250.1,279.7 251.2,278.8 252.4,278.0 253.5,277.2 254.7,276.5 255.9,275.8 257.1,275.1 258.3,274.4 259.6,273.8 260.9,273.2 262.2,272.6 263.5,272.0 264.9,271.5 266.3,271.1 267.8,270.6 269.3,270.2 270.8,269.8 272.3,269.5 273.9,269.2 275.5,268.9 277.2,268.7 278.9,268.5 280.6,268.4 282.4,268.3 284.2,268.2 286.0,268.2 288.0,268.3 289.9,268.4 291.9,268.5 294.0,268.7 296.1,268.9 298.2,269.2 300.4,269.6 302.7,270.0 305.0,270.5 307.4,271.0 309.9,271.6 312.4,272.2 315.0,273.0 317.7,273.8 320.4,274.6 323.2,275.6 326.1,276.6 329.1,277.7 332.2,278.9 335.3,280.1 338.6,281.5 341.9,282.9 345.4,284.5 348.9,286.1 352.6,287.8 356.4,289.7 360.2,291.6 364.3,293.7 368.4,295.8 372.7,298.1 377.1,300.6 381.6,303.1 386.3,305.8 391.1,308.6 396.1,311.5 401.3,314.6 406.6,317.9 412.1,321.3 417.8,324.8 423.6,328.6 429.7,332.5 435.9,336.5 442.3,340.8 449.0,345.2 455.8,349.9 462.9,354.7 470.1,359.7 477.6,364.9 485.3,370.3 493.2,376.0 501.3,381.8 509.6,387.8 518.1,394.1 526.7,400.5 535.6,407.2 544.7,414.0 553.8,421.0 563.2,428.3 572.6,435.7 582.1,443.2 591.7,450.9 601.3,458.8 610.9,466.8 620.5,474.8 629.9,483.0 639.3,491.2 648.5,499.4 657.4,507.6 666.2,515.9 674.6,524.0 682.6,532.1 690.3,540.1 697.5,548.0 704.2,555.7 710.5,563.3 716.1,570.6 721.3,577.7 725.8,584.6 729.7,591.3 733.0,597.6 735.7,603.7 737.8,609.6 739.3,615.1 740.2,620.3 740.5,625.3 740.2,630.0 739.4,634.4 738.1,638.5 736.3,642.4 734.0,645.9 731.3,649.3 728.2,652.4 724.7,655.2 720.8,657.9 716.7,660.3 712.2,662.5 707.5,664.6 702.5,666.4 697.3,668.1 691.9,669.6 686.3,670.9 680.6,672.1 674.8,673.2 668.9,674.1 662.8,675.0 656.7,675.6 650.5,676.2 644.3,676.7 638.0,677.1 631.7,677.4 625.4,677.6 619.1,677.7 612.7,677.7 606.4,677.7 600.1,677.6 593.8,677.4 587.6,677.2 581.4,676.9 575.2,676.5 569.1,676.1 563.0,675.6 556.9,675.1 551.0,674.5 545.0,673.9 539.2,673.2 533.4,672.5 527.6,671.8 522.0,671.0 516.3,670.2 510.8,669.3 505.3,668.4 499.9,667.5 494.6,666.5 489.3,665.5 484.1,664.5 479.0,663.4 473.9,662.3 468.9,661.2 464.0,660.1 459.1,658.9 454.3,657.7 449.6,656.5 445.0,655.2 440.4,654.0 435.9,652.7 431.4,651.3 427.1,650.0 422.8,648.6 418.5,647.3 414.3,645.9 410.2,644.4 406.2,643.0 402.2,641.6 398.3,640.1 394.4,638.6 390.6,637.1 386.9,635.5 383.2,634.0 379.5,632.4 376.0,630.8 372.5,629.3 369.0,627.6 365.6,626.0 362.3,624.4 359.0,622.7 355.8,621.1 352.6,619.4 349.5,617.7 346.4,616.0 343.4,614.3 340.4,612.5 337.5,610.8 334.6,609.0 331.8,607.3 329.0,605.5 326.3,603.7 323.6,601.9 320.9,600.1 318.3,598.3 315.8,596.4 313.3,594.6 310.8,592.7 308.4,590.9 306.0,589.0 303.7,587.1 301.4,585.2 299.2,583.4 297.0,581.4 294.8,579.5 292.7,577.6 290.6,575.7 288.5,573.8 286.5,571.8 284.5,569.9" fill="none" stroke="#4ade80" stroke-width="2.6" stroke-opacity="0.72" stroke-linejoin="round" stroke-linecap="round"/>
<polyline points="339.7,405.3 340.7,405.5 341.7,405.8 342.7,406.1 343.8,406.4 344.8,406.7 345.9,407.1 347.0,407.5 348.1,407.9 349.3,408.3 350.4,408.8 351.6,409.3 352.8,409.8 354.0,410.3 355.2,410.8 356.4,411.4 357.7,412.0 359.0,412.6 360.3,413.3 361.6,413.9 362.9,414.6 364.2,415.4 365.6,416.1 367.0,416.9 368.4,417.7 369.8,418.5 371.2,419.4 372.6,420.3 374.1,421.2 375.6,422.1 377.1,423.1 378.6,424.0 380.1,425.1 381.6,426.1 383.2,427.2 384.8,428.3 386.3,429.4 387.9,430.5 389.5,431.7 391.2,432.9 392.8,434.1 394.4,435.4 396.1,436.7 397.8,438.0 399.4,439.3 401.1,440.7 402.8,442.1 404.5,443.5 406.2,444.9 407.9,446.4 409.7,447.9 411.4,449.4 413.1,450.9 414.9,452.5 416.6,454.1 418.3,455.7 420.1,457.3 421.8,458.9 423.5,460.6 425.2,462.3 427.0,464.0 428.7,465.7 430.4,467.5 432.1,469.2 433.7,471.0 435.4,472.8 437.1,474.6 438.7,476.4 440.3,478.2 441.9,480.0 443.5,481.9 445.1,483.7 446.6,485.6 448.1,487.5 449.6,489.3 451.0,491.2 452.5,493.1 453.9,495.0 455.2,496.9 456.5,498.7 457.8,500.6 459.1,502.5 460.3,504.4 461.4,506.2 462.6,508.1 463.6,509.9 464.7,511.8 465.6,513.6 466.6,515.4 467.5,517.2 468.3,519.0 469.1,520.8 469.8,522.5 470.5,524.2 471.1,526.0 471.6,527.6 472.1,529.3 472.6,531.0 473.0,532.6 473.3,534.2 473.6,535.7 473.8,537.3 473.9,538.8 474.0,540.3 474.0,541.7 474.0,543.2 473.9,544.6 473.8,545.9 473.6,547.3 473.3,548.6 473.0,549.8 472.6,551.0 472.1,552.2 471.6,553.4 471.1,554.5 470.4,555.6 469.8,556.7 469.1,557.7 468.3,558.7 467.4,559.6 466.6,560.5 465.6,561.4 464.7,562.2 463.6,563.0 462.6,563.8 461.5,564.5 460.3,565.2 459.1,565.9 457.8,566.5 456.6,567.1 455.2,567.6 453.9,568.1 452.5,568.6 451.1,569.0 449.6,569.4 448.1,569.8 446.6,570.1 445.0,570.4 443.4,570.7 441.8,570.9 440.2,571.1 438.6,571.3 436.9,571.4 435.2,571.5 433.5,571.6 431.7,571.6 430.0,571.6 428.2,571.6 426.4,571.6 424.6,571.5 422.8,571.4 421.0,571.2 419.1,571.1 417.3,570.9 415.4,570.6 413.6,570.4 411.7,570.1 409.8,569.8 408.0,569.5 406.1,569.1 404.2,568.7 402.3,568.3 400.4,567.9 398.5,567.4 396.7,567.0 394.8,566.5 392.9,565.9 391.0,565.4 389.1,564.8 387.2,564.2 385.4,563.6 383.5,563.0 381.7,562.3 379.8,561.7 378.0,561.0 376.1,560.2 374.3,559.5 372.5,558.8 370.7,558.0 368.8,557.2 367.1,556.4 365.3,555.6 363.5,554.7 361.7,553.9 360.0,553.0 358.2,552.1 356.5,551.2 354.8,550.3 353.1,549.3 351.4,548.4 349.7,547.4 348.0,546.4 346.4,545.4 344.7,544.4 343.1,543.4 341.5,542.3 339.9,541.3 338.3,540.2 336.8,539.1 335.2,538.1 333.7,537.0 332.1,535.8 330.6,534.7 329.1,533.6 327.7,532.4 326.2,531.3 324.7,530.1 323.3,528.9 321.9,527.7 320.5,526.5 319.1,525.3 317.7,524.1 316.4,522.9 315.0,521.6 313.7,520.4 312.4,519.1 311.1,517.9 309.8,516.6 308.6,515.3 307.4,514.0 306.1,512.8 304.9,511.5 303.7,510.1 302.5,508.8 301.4,507.5 300.2,506.2 299.1,504.9 298.0,503.5 296.9,502.2 295.8,500.8 294.8,499.5 293.7,498.1 292.7,496.7 291.7,495.4 290.7,494.0 289.7,492.6 288.7,491.2 287.8,489.8 286.8,488.4 285.9,487.0 285.0,485.6 284.1,484.2 283.2,482.8 282.4,481.4 281.5,480.0 280.7,478.6 279.9,477.2 279.1,475.8 278.3,474.3 277.5,472.9 276.8,471.5 276.1,470.0 275.3,468.6 274.6,467.2 273.9,465.8 273.3,464.3 272.6,462.9 272.0,461.4 271.3,460.0 270.7,458.6 270.1,457.1 269.5,455.7 269.0,454.3 268.4,452.8 267.9,451.4 267.3,450.0 266.8,448.5 266.3,447.1 265.8,445.7 265.3,444.2 264.9,442.8 264.4,441.4 264.0,439.9 263.6,438.5 263.2,437.1 262.8,435.7 262.4,434.2 262.1,432.8 261.7,431.4 261.4,430.0 261.1,428.6 260.8,427.2 260.5,425.8 260.2,424.4 259.9,423.0 259.7,421.6 259.4,420.2 259.2,418.8 259.0,417.4 258.8,416.0 258.6,414.7 258.5,413.3 258.3,411.9 258.2,410.6 258.0,409.2 257.9,407.9 257.8,406.5 257.7,405.2 257.6,403.9 257.6,402.5 257.5,401.2 257.5,399.9 257.5,398.6 257.4,397.3 257.4,396.0 257.5,394.7 257.5,393.4 257.5,392.1 257.6,390.9 257.6,389.6 257.7,388.3 257.8,387.1 257.9,385.9 258.0,384.6 258.2,383.4 258.3,382.2 258.5,381.0 258.6,379.8 258.8,378.6 259.0,377.4 259.2,376.3 259.5,375.1 259.7,374.0 260.0,372.8 260.2,371.7 260.5,370.6 260.8,369.5 261.1,368.4 261.4,367.3 261.8,366.2 262.1,365.2 262.5,364.1 262.9,363.1 263.3,362.1 263.7,361.0 264.1,360.0 264.6,359.1 265.0,358.1 265.5,357.1 266.0,356.2 266.5,355.2 267.0,354.3 267.5,353.4 268.1,352.5 268.7,351.7 269.2,350.8 269.8,350.0 270.5,349.2 271.1,348.3 271.7,347.6 272.4,346.8 273.1,346.0 273.8,345.3 274.5,344.6 275.3,343.9 276.0,343.2 276.8,342.5 277.6,341.9 278.4,341.3 279.3,340.7 280.1,340.1 281.0,339.5 281.9,339.0 282.8,338.5 283.8,338.0 284.7,337.5 285.7,337.0 286.7,336.6 287.8,336.2 288.8,335.9 289.9,335.5 291.0,335.2 292.1,334.9 293.3,334.6 294.5,334.4 295.7,334.2 296.9,334.0 298.2,333.8 299.5,333.7 300.8,333.6 302.1,333.6 303.5,333.6 304.9,333.6 306.4,333.6 307.8,333.7 309.4,333.8 310.9,333.9 312.5,334.1 314.1,334.4 315.7,334.6 317.4,334.9 319.1,335.3 320.9,335.6 322.7,336.1 324.5,336.5 326.4,337.1 328.3,337.6 330.3,338.2 332.3,338.9 334.4,339.6 336.5,340.3 338.6,341.1 340.8,342.0 343.1,342.9 345.4,343.9 347.7,344.9 350.1,346.0 352.6,347.1 355.1,348.3 357.7,349.6 360.3,350.9 363.0,352.3 365.8,353.7 368.6,355.2 371.4,356.8 374.4,358.4 377.4,360.2 380.5,361.9 383.6,363.8 386.8,365.8 390.1,367.8 393.4,369.9 396.8,372.0 400.3,374.3 403.9,376.6 407.5,379.0 411.2,381.5 415.0,384.1 418.9,386.8 422.8,389.5 426.8,392.4 430.9,395.3 435.0,398.3 439.2,401.4 443.5,404.6 447.9,407.9 452.3,411.3 456.8,414.8 461.3,418.3 465.9,422.0 470.6,425.7 475.3,429.5 480.1,433.4 484.9,437.4 489.7,441.4 494.5,445.5 499.4,449.7 504.3,454.0 509.2,458.3 514.1,462.7 519.0,467.2 523.9,471.7 528.7,476.2 533.5,480.8 538.3,485.5 543.0,490.1 547.6,494.8 552.1,499.5 556.5,504.2 560.8,508.9 565.0,513.5 569.1,518.2 573.0,522.9 576.8,527.5 580.3,532.1 583.7,536.6 587.0,541.1 590.0,545.5 592.8,549.8 595.4,554.1 597.8,558.3 599.9,562.4 601.9,566.4 603.6,570.4 605.0,574.2 606.2,577.9 607.2,581.5 607.9,585.0 608.4,588.4 608.6,591.6 608.6,594.8 608.4,597.8 607.9,600.7 607.2,603.5 606.3,606.2 605.2,608.7 603.9,611.1 602.4,613.4 600.7,615.6 598.8,617.7 596.7,619.7 594.5,621.5 592.1,623.3 589.6,624.9 586.9,626.4 584.1,627.9 581.2,629.2 578.1,630.4 574.9,631.6 571.7,632.6 568.3,633.6 564.9,634.4 561.4,635.2 557.8,635.9 554.1,636.6 550.4,637.1 546.7,637.6 542.9,638.0 539.0,638.4 535.1,638.6 531.2,638.8 527.3,639.0 523.3,639.1 519.3,639.1 515.3,639.1 511.3,639.0 507.3,638.8 503.3,638.7 499.3,638.4 495.3,638.1 491.3,637.8 487.3,637.4 483.3,637.0 479.4,636.5 475.5,636.0 471.5,635.5 467.6,634.9 463.8,634.3 459.9,633.6 456.1,632.9 452.3,632.2 448.5,631.4 444.8,630.6 441.0,629.8 437.4,628.9 433.7,628.0 430.1,627.1 426.5,626.2 423.0,625.2 419.5,624.2 416.0,623.1 412.5,622.1 409.1,621.0 405.8,619.9 402.4,618.8 399.1,617.6 395.9,616.5 392.7,615.3 389.5,614.0 386.3,612.8 383.2,611.5 380.1,610.3 377.1,609.0 374.1,607.7 371.2,606.3 368.3,605.0 365.4,603.6 362.5,602.2 359.7,600.8 357.0,599.4 354.2,597.9 351.5,596.5 348.9,595.0 346.3,593.5 343.7,592.0 341.1,590.5 338.6,589.0 336.1,587.5 333.7,585.9 331.3,584.4 328.9,582.8 326.6,581.2 324.3,579.6 322.0,578.0 319.8,576.4 317.6,574.7 315.4,573.1 313.3,571.4 311.2,569.7 309.1,568.1 307.1,566.4 305.1,564.7 303.1,563.0 301.2,561.3 299.2,559.6 297.4,557.8 295.5,556.1 293.7,554.3 291.9,552.6 290.1,550.8 288.4,549.1 286.7,547.3 285.1,545.5 283.4,543.7 281.8,541.9 280.2,540.1 278.7,538.3 277.1,536.5 275.6,534.7 274.1,532.9 272.7,531.0 271.3,529.2 269.9,527.4 268.5,525.5 267.2,523.7 265.8,521.8 264.5,520.0 263.3,518.1 262.0,516.2 260.8,514.4 259.6,512.5 258.4,510.6 257.3,508.8 256.2,506.9 255.1,505.0 254.0,503.1 252.9,501.3 251.9,499.4 250.9,497.5 249.9,495.6 248.9,493.7 248.0,491.8 247.1,489.9 246.2,488.1 245.3,486.2 244.4,484.3 243.6,482.4 242.7,480.5 241.9,478.6 241.2,476.7 240.4,474.8 239.7,472.9 238.9,471.0 238.2,469.1 237.6,467.2 236.9,465.4 236.2,463.5 235.6,461.6 235.0,459.7 234.4,457.8 233.8,455.9 233.3,454.1 232.7,452.2 232.2,450.3 231.7,448.4 231.2,446.6 230.8,444.7 230.3,442.8 229.9,441.0 229.4,439.1 229.0,437.2 228.6,435.4 228.3,433.5 227.9,431.7 227.6,429.8 227.2,428.0 226.9,426.2 226.6,424.3 226.4,422.5 226.1,420.7 225.8,418.8 225.6,417.0 225.4,415.2 225.2,413.4 225.0,411.6 224.8,409.8 224.6,408.0 224.5,406.2 224.4,404.4 224.2,402.7 224.1,400.9 224.0,399.1 224.0,397.4 223.9,395.6 223.8,393.9 223.8,392.1 223.8,390.4 223.8,388.7 223.8,386.9 223.8,385.2 223.8,383.5 223.8,381.8 223.9,380.1 223.9,378.4 224.0,376.7 224.1,375.1 224.2,373.4 224.3,371.7 224.5,370.1 224.6,368.5 224.8,366.8 224.9,365.2 225.1,363.6 225.3,362.0 225.5,360.4 225.7,358.8 225.9,357.2 226.2,355.6 226.4,354.1 226.7,352.5 227.0,351.0 227.3,349.5 227.6,347.9 227.9,346.4 228.2,344.9 228.6,343.4 228.9,342.0 229.3,340.5 229.7,339.0 230.1,337.6 230.5,336.2 230.9,334.7 231.4,333.3 231.8,331.9 232.3,330.5 232.8,329.2 233.2,327.8 233.7,326.5 234.3,325.1 234.8,323.8 235.3,322.5 235.9,321.2 236.5,320.0 237.1,318.7 237.7,317.5 238.3,316.2 238.9,315.0 239.6,313.8 240.2,312.6 240.9,311.5 241.6,310.3 242.3,309.2 243.1,308.1 243.8,307.0 244.6,305.9 245.4,304.8 246.2,303.8 247.0,302.8 247.8,301.8 248.7,300.8 249.5,299.8 250.4,298.9 251.4,298.0 252.3,297.1 253.2,296.2 254.2,295.4 255.2,294.5 256.2,293.7 257.3,292.9 258.3,292.2 259.4,291.5 260.5,290.8 261.6,290.1 262.8,289.4 264.0,288.8 265.2,288.2 266.4,287.6 267.7,287.1 269.0,286.6 270.3,286.1 271.6,285.7 273.0,285.3 274.4,284.9 275.9,284.5 277.4,284.2 278.9,284.0 280.4,283.7 282.0,283.5 283.6,283.4 285.3,283.3 287.0,283.2 288.7,283.1 290.5,283.2 292.3,283.2 294.1,283.3 296.0,283.4 298.0,283.6 300.0,283.9 302.1,284.2 304.2,284.5 306.3,284.9 308.5,285.4 310.8,285.9 313.1,286.4 315.5,287.1 318.0,287.8 320.5,288.5 323.1,289.4 325.7,290.2 328.4,291.2 331.2,292.2 334.1,293.4 337.1,294.5 340.1,295.8 343.2,297.2 346.5,298.6 349.8,300.1 353.2,301.7 356.7,303.4 360.3,305.2 364.0,307.1 367.8,309.1 371.7,311.2 375.8,313.5 379.9,315.8 384.2,318.2 388.6,320.8 393.2,323.5 397.9,326.3 402.7,329.3 407.6,332.3 412.8,335.6 418.0,338.9 423.4,342.4 429.0,346.1 434.7,349.9 440.6,353.9 446.7,358.0 452.9,362.3 459.4,366.7 465.9,371.4 472.7,376.1 479.6,381.1 486.7,386.2 493.9,391.6 501.3,397.0 508.9,402.7 516.6,408.5 524.4,414.5 532.4,420.7 540.4,427.0 548.6,433.4 556.8,440.0 565.2,446.8 573.5,453.7 581.9,460.6 590.2,467.7 598.6,474.9 606.8,482.1 615.0,489.4 623.0,496.8 630.8,504.1 638.5,511.5 645.9,518.8 653.0,526.0 659.9,533.2 666.4,540.4 672.5,547.4 678.2,554.3 683.5,561.0 688.4,567.6 692.8,574.0 696.7,580.2 700.1,586.2 703.0,592.0 705.4,597.6 707.3,602.9 708.7,608.0 709.6,612.9 710.1,617.5 710.0,621.9 709.5,626.1 708.5,630.0 707.1,633.7 705.3,637.1 703.1,640.4 700.5,643.4 697.7,646.2 694.4,648.9 690.9,651.3 687.2,653.6 683.1,655.6 678.9,657.5 674.4,659.3 669.7,660.8 664.9,662.3 659.9,663.6 654.8,664.8 649.5,665.8 644.1,666.7 638.7,667.5 633.2,668.2 627.6,668.8 621.9,669.3 616.2,669.7 610.5,670.0 604.8,670.2 599.0,670.4 593.2,670.4 587.5,670.4 581.7,670.3 576.0,670.2 570.2,670.0 564.5,669.7 558.8,669.4 553.2,669.0 547.6,668.6 542.0,668.1 536.5,667.6 531.0,667.0 525.5,666.4 520.1,665.7 514.8,665.0 509.5,664.3 504.3,663.5 499.1,662.6 494.0,661.8 488.9,660.9 483.9,660.0 479.0,659.0 474.1,658.0 469.3,657.0 464.5,655.9 459.9,654.8 455.2,653.7 450.6,652.6 446.1,651.4 441.7,650.2 437.3,649.0 433.0,647.8 428.7,646.5 424.5,645.2 420.3,643.9 416.3,642.6 412.2,641.2 408.3,639.9 404.4,638.5 400.5,637.1 396.7,635.6 393.0,634.2 389.3,632.7 385.7,631.2 382.1,629.7 378.6,628.2 375.1,626.7 371.7,625.1 368.4,623.6 365.1,622.0 361.8,620.4 358.6,618.8 355.5,617.1 352.4,615.5 349.3,613.8 346.3,612.2 343.4,610.5 340.5,608.8 337.6,607.1 334.8,605.4 332.1,603.6 329.4,601.9 326.7,600.1 324.1,598.4 321.5,596.6 318.9,594.8 316.4,593.0 314.0,591.2 311.6,589.4 309.2,587.6 306.9,585.7 304.6,583.9 302.3,582.0 300.1,580.2 298.0,578.3 295.8,576.4 293.7,574.5 291.7,572.6 289.7,570.7 287.7,568.8 285.7,566.9 283.8,565.0 281.9,563.1 280.1,561.1 278.3,559.2 276.5,557.3 274.7,555.3 273.0,553.4 271.4,551.4 269.7,549.4 268.1,547.5 266.5,545.5 265.0,543.5 263.4,541.5 261.9,539.6 260.5,537.6 259.0,535.6 257.6,533.6 256.3,531.6 254.9,529.6 253.6,527.6 252.3,525.6 251.0,523.6 249.8,521.5 248.6,519.5 247.4,517.5 246.2,515.5 245.1,513.5 244.0,511.5 242.9,509.4 241.9,507.4 240.8,505.4 239.8,503.4 238.8,501.3 237.9,499.3 236.9,497.3 236.0,495.3 235.1,493.2 234.2,491.2 233.4,489.2 232.6,487.2 231.7,485.1 231.0,483.1 230.2,481.1 229.5,479.1 228.7,477.1 228.0,475.0 227.3,473.0 226.7,471.0 226.0,469.0 225.4,467.0 224.8,465.0 224.2,462.9 223.7,460.9 223.1,458.9 222.6,456.9 222.1,454.9 221.6,452.9 221.1,450.9 220.6,448.9 220.2,447.0 219.8,445.0 219.3,443.0 219.0,441.0 218.6,439.0 218.2,437.1 217.9,435.1 217.5,433.1 217.2,431.2 216.9,429.2 216.7,427.3 216.4,425.3 216.1,423.4 215.9,421.4 215.7,419.5 215.5,417.6 215.3,415.6 215.1,413.7 215.0,411.8 214.8,409.9 214.7,408.0 214.6,406.1 214.5,404.2 214.4,402.3 214.3,400.4 214.2,398.6 214.2,396.7 214.1,394.8 214.1,393.0 214.1,391.1 214.1,389.3 214.1,387.4 214.1,385.6 214.2,383.8 214.2,382.0 214.3,380.2 214.4,378.4 214.5,376.6 214.6,374.8 214.7,373.0 214.8,371.2 214.9,369.5 215.1,367.7 215.3,365.9 215.4,364.2 215.6,362.5 215.8,360.8 216.0,359.0 216.3,357.3 216.5,355.6 216.7,354.0 217.0,352.3 217.3,350.6 217.6,348.9 217.9,347.3 218.2,345.7 218.5,344.0 218.8,342.4 219.2,340.8 219.5,339.2 219.9,337.6 220.3,336.0 220.7,334.5 221.1,332.9 221.5,331.4 221.9,329.9 222.4,328.3 222.8,326.8 223.3,325.3 223.8,323.9 224.3,322.4 224.8,320.9 225.3,319.5 225.8,318.1 226.4,316.6 226.9,315.2 227.5,313.8 228.1,312.5 228.7,311.1 229.3,309.8 229.9,308.4 230.6,307.1 231.3,305.8 231.9,304.5 232.6,303.3 233.3,302.0 234.0,300.8 234.8,299.6 235.5,298.4 236.3,297.2 237.1,296.0 237.9,294.9 238.7,293.8 239.5,292.7 240.4,291.6 241.2,290.5 242.1,289.5 243.0,288.4 244.0,287.4 244.9,286.4 245.9,285.5 246.9,284.5 247.9,283.6 248.9,282.7 249.9,281.9 251.0,281.0 252.1,280.2 253.2,279.4 254.4,278.6 255.5,277.9 256.7,277.2 257.9,276.5 259.2,275.8 260.4,275.2 261.7,274.6 263.0,274.1 264.4,273.5 265.8,273.0 267.2,272.6 268.6,272.1 270.1,271.7 271.6,271.4 273.2,271.0 274.7,270.7 276.3,270.5 278.0,270.3 279.7,270.1 281.4,270.0 283.2,269.9 285.0,269.9 286.9,269.9 288.8,269.9 290.7,270.0 292.7,270.2 294.8,270.4 296.9,270.6 299.0,270.9 301.3,271.3 303.5,271.7 305.9,272.2 308.3,272.7 310.7,273.3 313.2,274.0 315.8,274.7 318.5,275.5 321.2,276.4 324.0,277.4 326.9,278.4 329.9,279.5 333.0,280.7 336.1,282.0 339.4,283.3 342.7,284.8 346.2,286.3 349.7,287.9 353.4,289.7 357.1,291.5 361.0,293.5 365.0,295.5 369.1,297.7 373.4,300.0 377.8,302.4 382.3,305.0 387.0,307.6 391.8,310.5 396.8,313.4 401.9,316.5 407.2,319.7 412.7,323.1 418.3,326.7 424.1,330.4 430.1,334.3 436.3,338.4 442.7,342.6 449.3,347.0 456.1,351.6 463.1,356.4 470.3,361.4 477.7,366.6 485.3,372.0 493.2,377.6 501.2,383.4 509.4,389.4 517.8,395.6 526.4,401.9 535.2,408.5 544.1,415.3 553.2,422.3 562.4,429.5 571.7,436.8 581.1,444.3 590.5,451.9 600.0,459.7 609.5,467.5 618.9,475.5 628.2,483.6 637.4,491.7 646.4,499.8 655.3,507.9 663.8,516.1 672.1,524.1 680.0,532.1 687.5,540.0 694.7,547.8 701.3,555.4 707.4,562.9 713.0,570.2 718.1,577.2 722.6,584.0 726.4,590.6 729.7,596.9 732.4,603.0 734.5,608.8 736.0,614.2 736.9,619.5 737.2,624.4 737.0,629.0 736.2,633.4 734.9,637.5 733.2,641.4 731.0,645.0 728.3,648.3 725.3,651.4 721.8,654.2 718.1,656.9 714.0,659.3 709.6,661.5 704.9,663.6 700.0,665.4 694.9,667.1 689.6,668.6 684.2,670.0 678.5,671.2 672.8,672.3 666.9,673.3 660.9,674.1 654.9,674.8 648.8,675.4 642.6,675.9 636.4,676.3 630.2,676.6 623.9,676.8 617.7,676.9 611.4,677.0 605.1,677.0 598.9,676.9 592.7,676.7 586.5,676.5 580.3,676.2 574.2,675.8 568.1,675.4 562.1,674.9 556.1,674.4 550.1,673.9 544.2,673.3 538.4,672.6 532.6,671.9 526.9,671.2 521.3,670.4 515.7,669.6 510.2,668.7 504.8,667.8 499.4,666.9 494.1,665.9 488.8,665.0 483.6,663.9 478.5,662.9 473.5,661.8 468.5,660.7 463.6,659.5 458.8,658.4 454.0,657.2 449.3,656.0 444.7,654.7 440.1,653.5 435.7,652.2 431.2,650.9 426.9,649.5 422.6,648.2 418.3,646.8 414.2,645.4 410.1,644.0 406.0,642.6 402.1,641.1 398.2,639.6 394.3,638.2 390.5,636.7 386.8,635.1 383.1,633.6 379.5,632.0 375.9,630.5 372.4,628.9 369.0,627.3 365.6,625.6 362.3,624.0 359.0,622.4 355.8,620.7 352.6,619.0 349.5,617.3 346.4,615.6 343.4,613.9 340.4,612.2 337.5,610.4 334.7,608.7 331.8,606.9 329.1,605.1 326.3,603.4 323.7,601.6 321.0,599.7 318.4,597.9 315.9,596.1 313.4,594.3 310.9,592.4 308.5,590.6 306.2,588.7 303.8,586.8 301.5,584.9 299.3,583.1 297.1,581.2 294.9,579.3 292.8,577.3 290.7,575.4 288.6,573.5 286.6,571.6 284.7,569.6 282.7,567.7 280.8,565.7 278.9,563.8 277.1,561.8 275.3,559.8 273.5,557.8 271.8,555.9 270.1,553.9 268.4,551.9 266.8,549.9 265.2,547.9 263.6,545.9 262.1,543.9 260.6,541.9 259.1,539.9 257.7,537.8 256.2,535.8 254.8,533.8 253.5,531.8 252.2,529.7 250.8,527.7 249.6,525.7 248.3,523.6 247.1,521.6 245.9,519.6 244.7,517.5 243.6,515.5 242.5,513.4 241.4,511.4 240.3,509.4 239.3,507.3 238.3,505.3 237.3,503.2 236.3,501.2 235.3,499.1 234.4,497.1 233.5,495.0 232.6,493.0 231.8,490.9 231.0,488.9 230.1,486.8 229.4,484.8 228.6,482.7 227.8,480.7 227.1,478.6 226.4,476.6 225.7,474.6 225.1,472.5 224.4,470.5 223.8,468.5 223.2,466.4 222.6,464.4 222.0,462.4 221.5,460.3 220.9,458.3 220.4,456.3 219.9,454.3 219.4,452.3 219.0,450.2 218.5,448.2 218.1,446.2 217.7,444.2 217.3,442.2 216.9,440.2 216.6,438.2 216.2,436.2 215.9,434.3 215.6,432.3 215.3,430.3 215.0,428.3 214.8,426.4 214.5,424.4 214.3,422.4 214.1,420.5 213.9,418.5 213.7,416.6 213.5,414.6 213.3,412.7 213.2,410.8 213.0,408.9 212.9,406.9 212.8,405.0 212.7,403.1 212.7,401.2 212.6,399.3 212.5,397.4 212.5,395.5 212.5,393.7 212.5,391.8 212.5,389.9 212.5,388.1 212.5,386.2 212.5,384.4 212.6,382.5 212.7,380.7 212.7,378.9 212.8,377.1 212.9,375.3 213.1,373.5 213.2,371.7 213.3,369.9 213.5,368.1 213.6,366.3 213.8,364.6 214.0,362.8 214.2,361.1 214.4,359.4 214.6,357.6 214.9,355.9 215.1,354.2 215.4,352.5 215.6,350.8 215.9,349.1 216.2,347.5 216.5,345.8 216.9,344.2 217.2,342.5 217.5,340.9 217.9,339.3 218.3,337.7 218.6,336.1 219.0,334.5 219.4,332.9 219.8,331.3 220.3,329.8 220.7,328.2 221.2,326.7 221.6,325.2 222.1,323.7 222.6,322.2 223.1,320.7 223.6,319.2 224.1,317.8 224.7,316.4 225.2,314.9 225.8,313.5 226.4,312.1 227.0,310.7 227.6,309.4 228.2,308.0 228.9,306.7 229.5,305.3 230.2,304.0 230.9,302.7 231.6,301.5 232.3,300.2 233.0,299.0 233.7,297.7" fill="none" stroke="#4ade80" stroke-width="2.6" stroke-opacity="0.72" stroke-linejoin="round" stroke-linecap="round"/>
<polyline points="343.6,85.7 351.1,89.4 359.0,93.3 367.5,97.6 376.4,102.3 385.9,107.4 396.1,112.9 406.9,118.9 418.5,125.5 430.9,132.6 444.3,140.3 458.6,148.7 474.0,157.8 490.6,167.8 508.6,178.6 528.0,190.4 548.9,203.2 571.5,217.2 596.0,232.4 622.4,248.9 650.9,266.8 681.5,286.2 714.2,307.0 749.0,329.3 785.7,353.0 824.1,378.0 863.8,404.2 904.2,431.3 944.5,458.8 984.0,486.4 1021.7,513.6" fill="none" stroke="#4ade80" stroke-width="2.6" stroke-opacity="0.72" stroke-linejoin="round" stroke-linecap="round"/>
<circle cx="360.0" cy="472.7" r="6.0" fill="#f8fafc" opacity="1.0"/>
<text x="110.0" y="788.0" class="small" text-anchor="start">Generated from a standard-library Python gallery: vector field + nullclines + trajectories.</text>
</svg>
