<svg xmlns="http://www.w3.org/2000/svg" viewBox="0 0 1440 920">
<defs>
  <linearGradient id="bg" x1="0" y1="0" x2="1" y2="1">
    <stop offset="0%" stop-color="#081018"/>
    <stop offset="100%" stop-color="#101d2a"/>
  </linearGradient>
  <style>
    .title { font: 700 34px Helvetica, Arial, sans-serif; fill: #e6edf3; }
    .subtitle { font: 500 18px Helvetica, Arial, sans-serif; fill: #9fb3c8; }
    .label { font: 700 20px Helvetica, Arial, sans-serif; fill: #dce7f3; }
    .small { font: 500 15px Helvetica, Arial, sans-serif; fill: #9fb3c8; }
    .tiny { font: 500 13px Helvetica, Arial, sans-serif; fill: #8aa3bc; }
    .panel { fill: #122131; stroke: #5e7fa3; stroke-width: 2; rx: 18; }
    .grid { stroke: #223445; stroke-width: 1; opacity: 0.8; }
    .axis { stroke: #39516a; stroke-width: 2; }
  </style>
</defs>
<rect width="1440" height="920" fill="url(#bg)"/>
<rect x="70" y="136" width="1310" height="712" rx="18" class="panel"/>
<rect x="900" y="150" width="480" height="678" rx="18" fill="#0f1b28" stroke="#5e7fa3" stroke-width="1.6"/>
<text x="90.0" y="68.0" class="title" text-anchor="start">Selkov glycolysis oscillator</text>
<text x="90.0" y="98.0" class="subtitle"><tspan x="90.0" dy="0">A compact glycolytic oscillator whose fixed point is stable, then unstable, then stable again as the</tspan><tspan x="90.0" dy="22.0">drive parameter crosses a finite Hopf band.</tspan></text>
<text x="928.0" y="188.0" class="label" text-anchor="start">Legend</text>
<text x="966.0" y="234.0" class="small" text-anchor="start">trajectories</text>
<text x="966.0" y="270.0" class="small" text-anchor="start">dx/dt = 0</text>
<text x="966.0" y="306.0" class="small" text-anchor="start">dy/dt = 0</text>
<text x="966.0" y="342.0" class="small" text-anchor="start">fixed points</text>
<circle cx="938.0" cy="226.0" r="8.0" fill="#4ade80" opacity="1.0"/>
<line x1="922.0" y1="262.0" x2="954.0" y2="262.0" stroke="#f97316" stroke-width="4" opacity="1.0"/>
<line x1="922.0" y1="298.0" x2="954.0" y2="298.0" stroke="#60a5fa" stroke-width="4" opacity="1.0"/>
<circle cx="938.0" cy="334.0" r="7.0" fill="#f8fafc" opacity="1.0"/>
<text x="928.0" y="392.0" class="label" text-anchor="start">How to read it</text>
<text x="928.0" y="422.0" class="small"><tspan x="928.0" dy="0">The arrows show the local flow.</tspan></text>
<text x="928.0" y="468.0" class="small"><tspan x="928.0" dy="0">The colored curves show where one derivative</tspan><tspan x="928.0" dy="22.0">vanishes.</tspan></text>
<text x="928.0" y="530.0" class="small"><tspan x="928.0" dy="0">Trajectories reveal whether the fixed point</tspan><tspan x="928.0" dy="22.0">attracts, spirals, or closes into an orbit.</tspan></text>
<text x="928.0" y="620.0" class="label" text-anchor="start">Local fixed-point readout</text>
<text x="928.0" y="650.0" class="small"><tspan x="928.0" dy="0">1. (0.60, 1.36) → unstable spiral</tspan></text>
<text x="946.0" y="670.0" class="tiny"><tspan x="946.0" dy="0">λ = 0.10+0.66i, 0.10-0.66i</tspan></text>
<line x1="118.0" y1="186.0" x2="118.0" y2="788.0" stroke="#223445" stroke-width="1" opacity="1.0"/>
<text x="118.0" y="816.0" class="tiny" text-anchor="middle">0.0</text>
<line x1="266.4" y1="186.0" x2="266.4" y2="788.0" stroke="#223445" stroke-width="1" opacity="1.0"/>
<text x="266.4" y="816.0" class="tiny" text-anchor="middle">0.4</text>
<line x1="414.8" y1="186.0" x2="414.8" y2="788.0" stroke="#223445" stroke-width="1" opacity="1.0"/>
<text x="414.8" y="816.0" class="tiny" text-anchor="middle">0.7</text>
<line x1="563.2" y1="186.0" x2="563.2" y2="788.0" stroke="#223445" stroke-width="1" opacity="1.0"/>
<text x="563.2" y="816.0" class="tiny" text-anchor="middle">1.1</text>
<line x1="711.6" y1="186.0" x2="711.6" y2="788.0" stroke="#223445" stroke-width="1" opacity="1.0"/>
<text x="711.6" y="816.0" class="tiny" text-anchor="middle">1.4</text>
<line x1="860.0" y1="186.0" x2="860.0" y2="788.0" stroke="#223445" stroke-width="1" opacity="1.0"/>
<text x="860.0" y="816.0" class="tiny" text-anchor="middle">1.8</text>
<line x1="118.0" y1="788.0" x2="860.0" y2="788.0" stroke="#223445" stroke-width="1" opacity="1.0"/>
<text x="100.0" y="792.0" class="tiny" text-anchor="end">0.0</text>
<line x1="118.0" y1="667.6" x2="860.0" y2="667.6" stroke="#223445" stroke-width="1" opacity="1.0"/>
<text x="100.0" y="671.6" class="tiny" text-anchor="end">0.6</text>
<line x1="118.0" y1="547.2" x2="860.0" y2="547.2" stroke="#223445" stroke-width="1" opacity="1.0"/>
<text x="100.0" y="551.2" class="tiny" text-anchor="end">1.1</text>
<line x1="118.0" y1="426.8" x2="860.0" y2="426.8" stroke="#223445" stroke-width="1" opacity="1.0"/>
<text x="100.0" y="430.8" class="tiny" text-anchor="end">1.7</text>
<line x1="118.0" y1="306.4" x2="860.0" y2="306.4" stroke="#223445" stroke-width="1" opacity="1.0"/>
<text x="100.0" y="310.4" class="tiny" text-anchor="end">2.2</text>
<line x1="118.0" y1="186.0" x2="860.0" y2="186.0" stroke="#223445" stroke-width="1" opacity="1.0"/>
<text x="100.0" y="190.0" class="tiny" text-anchor="end">2.8</text>
<line x1="118.0" y1="186.0" x2="118.0" y2="788.0" stroke="#39516a" stroke-width="2" opacity="1.0"/>
<line x1="118.0" y1="788.0" x2="860.0" y2="788.0" stroke="#39516a" stroke-width="2" opacity="1.0"/>
<line x1="118.0" y1="788.0" x2="118.0" y2="776.0" stroke="#4b6580" stroke-width="1.4" opacity="0.9"/>
<line x1="118.0" y1="737.8" x2="118.5" y2="725.8" stroke="#4b6580" stroke-width="1.4" opacity="0.9"/>
<line x1="118.0" y1="687.7" x2="119.0" y2="675.7" stroke="#4b6580" stroke-width="1.4" opacity="0.9"/>
<line x1="118.0" y1="637.5" x2="119.5" y2="625.5" stroke="#4b6580" stroke-width="1.4" opacity="0.9"/>
<line x1="118.0" y1="587.3" x2="120.1" y2="575.4" stroke="#4b6580" stroke-width="1.4" opacity="0.9"/>
<line x1="118.0" y1="537.2" x2="120.7" y2="525.3" stroke="#4b6580" stroke-width="1.4" opacity="0.9"/>
<line x1="118.0" y1="487.0" x2="121.3" y2="475.3" stroke="#4b6580" stroke-width="1.4" opacity="0.9"/>
<line x1="118.0" y1="436.8" x2="122.0" y2="425.2" stroke="#4b6580" stroke-width="1.4" opacity="0.9"/>
<line x1="118.0" y1="386.7" x2="122.7" y2="375.2" stroke="#4b6580" stroke-width="1.4" opacity="0.9"/>
<line x1="118.0" y1="336.5" x2="123.4" y2="325.3" stroke="#4b6580" stroke-width="1.4" opacity="0.9"/>
<line x1="118.0" y1="286.3" x2="124.1" y2="275.4" stroke="#4b6580" stroke-width="1.4" opacity="0.9"/>
<line x1="118.0" y1="236.2" x2="124.8" y2="225.5" stroke="#4b6580" stroke-width="1.4" opacity="0.9"/>
<line x1="118.0" y1="186.0" x2="125.6" y2="175.7" stroke="#4b6580" stroke-width="1.4" opacity="0.9"/>
<line x1="164.4" y1="788.0" x2="161.6" y2="776.2" stroke="#4b6580" stroke-width="1.4" opacity="0.9"/>
<line x1="164.4" y1="737.8" x2="162.1" y2="725.9" stroke="#4b6580" stroke-width="1.4" opacity="0.9"/>
<line x1="164.4" y1="687.7" x2="162.5" y2="675.7" stroke="#4b6580" stroke-width="1.4" opacity="0.9"/>
<line x1="164.4" y1="637.5" x2="163.1" y2="625.5" stroke="#4b6580" stroke-width="1.4" opacity="0.9"/>
<line x1="164.4" y1="587.3" x2="163.6" y2="575.3" stroke="#4b6580" stroke-width="1.4" opacity="0.9"/>
<line x1="164.4" y1="537.2" x2="164.2" y2="525.1" stroke="#4b6580" stroke-width="1.4" opacity="0.9"/>
<line x1="164.4" y1="487.0" x2="164.9" y2="475.0" stroke="#4b6580" stroke-width="1.4" opacity="0.9"/>
<line x1="164.4" y1="436.8" x2="165.7" y2="424.8" stroke="#4b6580" stroke-width="1.4" opacity="0.9"/>
<line x1="164.4" y1="386.7" x2="166.5" y2="374.7" stroke="#4b6580" stroke-width="1.4" opacity="0.9"/>
<line x1="164.4" y1="336.5" x2="167.3" y2="324.7" stroke="#4b6580" stroke-width="1.4" opacity="0.9"/>
<line x1="164.4" y1="286.3" x2="168.2" y2="274.7" stroke="#4b6580" stroke-width="1.4" opacity="0.9"/>
<line x1="164.4" y1="236.2" x2="169.2" y2="224.8" stroke="#4b6580" stroke-width="1.4" opacity="0.9"/>
<line x1="164.4" y1="186.0" x2="170.3" y2="174.9" stroke="#4b6580" stroke-width="1.4" opacity="0.9"/>
<line x1="210.8" y1="788.0" x2="205.5" y2="776.7" stroke="#4b6580" stroke-width="1.4" opacity="0.9"/>
<line x1="210.8" y1="737.8" x2="206.0" y2="726.4" stroke="#4b6580" stroke-width="1.4" opacity="0.9"/>
<line x1="210.8" y1="687.7" x2="206.4" y2="676.1" stroke="#4b6580" stroke-width="1.4" opacity="0.9"/>
<line x1="210.8" y1="637.5" x2="207.0" y2="625.9" stroke="#4b6580" stroke-width="1.4" opacity="0.9"/>
<line x1="210.8" y1="587.3" x2="207.6" y2="575.6" stroke="#4b6580" stroke-width="1.4" opacity="0.9"/>
<line x1="210.8" y1="537.2" x2="208.4" y2="525.3" stroke="#4b6580" stroke-width="1.4" opacity="0.9"/>
<line x1="210.8" y1="487.0" x2="209.3" y2="475.0" stroke="#4b6580" stroke-width="1.4" opacity="0.9"/>
<line x1="210.8" y1="436.8" x2="210.3" y2="424.8" stroke="#4b6580" stroke-width="1.4" opacity="0.9"/>
<line x1="210.8" y1="386.7" x2="211.5" y2="374.6" stroke="#4b6580" stroke-width="1.4" opacity="0.9"/>
<line x1="210.8" y1="336.5" x2="213.0" y2="324.6" stroke="#4b6580" stroke-width="1.4" opacity="0.9"/>
<line x1="210.8" y1="286.3" x2="214.6" y2="274.7" stroke="#4b6580" stroke-width="1.4" opacity="0.9"/>
<line x1="210.8" y1="236.2" x2="216.5" y2="225.1" stroke="#4b6580" stroke-width="1.4" opacity="0.9"/>
<line x1="210.8" y1="186.0" x2="218.4" y2="175.7" stroke="#4b6580" stroke-width="1.4" opacity="0.9"/>
<line x1="257.1" y1="788.0" x2="249.8" y2="777.5" stroke="#4b6580" stroke-width="1.4" opacity="0.9"/>
<line x1="257.1" y1="737.8" x2="250.2" y2="727.2" stroke="#4b6580" stroke-width="1.4" opacity="0.9"/>
<line x1="257.1" y1="687.7" x2="250.7" y2="676.8" stroke="#4b6580" stroke-width="1.4" opacity="0.9"/>
<line x1="257.1" y1="637.5" x2="251.2" y2="626.5" stroke="#4b6580" stroke-width="1.4" opacity="0.9"/>
<line x1="257.1" y1="587.3" x2="251.9" y2="576.1" stroke="#4b6580" stroke-width="1.4" opacity="0.9"/>
<line x1="257.1" y1="537.2" x2="252.9" y2="525.6" stroke="#4b6580" stroke-width="1.4" opacity="0.9"/>
<line x1="257.1" y1="487.0" x2="254.2" y2="475.2" stroke="#4b6580" stroke-width="1.4" opacity="0.9"/>
<line x1="257.1" y1="436.8" x2="256.0" y2="424.8" stroke="#4b6580" stroke-width="1.4" opacity="0.9"/>
<line x1="257.1" y1="386.7" x2="258.6" y2="374.7" stroke="#4b6580" stroke-width="1.4" opacity="0.9"/>
<line x1="257.1" y1="336.5" x2="262.2" y2="325.2" stroke="#4b6580" stroke-width="1.4" opacity="0.9"/>
<line x1="257.1" y1="286.3" x2="266.2" y2="276.8" stroke="#4b6580" stroke-width="1.4" opacity="0.9"/>
<line x1="257.1" y1="236.2" x2="269.6" y2="229.7" stroke="#4b6580" stroke-width="1.4" opacity="0.9"/>
<line x1="257.1" y1="186.0" x2="271.4" y2="182.8" stroke="#4b6580" stroke-width="1.4" opacity="0.9"/>
<line x1="303.5" y1="788.0" x2="294.6" y2="778.4" stroke="#4b6580" stroke-width="1.4" opacity="0.9"/>
<line x1="303.5" y1="737.8" x2="294.8" y2="728.1" stroke="#4b6580" stroke-width="1.4" opacity="0.9"/>
<line x1="303.5" y1="687.7" x2="295.2" y2="677.7" stroke="#4b6580" stroke-width="1.4" opacity="0.9"/>
<line x1="303.5" y1="637.5" x2="295.6" y2="627.3" stroke="#4b6580" stroke-width="1.4" opacity="0.9"/>
<line x1="303.5" y1="587.3" x2="296.3" y2="576.8" stroke="#4b6580" stroke-width="1.4" opacity="0.9"/>
<line x1="303.5" y1="537.2" x2="297.5" y2="526.2" stroke="#4b6580" stroke-width="1.4" opacity="0.9"/>
<line x1="303.5" y1="487.0" x2="299.7" y2="475.4" stroke="#4b6580" stroke-width="1.4" opacity="0.9"/>
<line x1="303.5" y1="436.8" x2="304.7" y2="424.8" stroke="#4b6580" stroke-width="1.4" opacity="0.9"/>
<line x1="303.5" y1="386.7" x2="314.3" y2="378.4" stroke="#4b6580" stroke-width="1.4" opacity="0.9"/>
<line x1="303.5" y1="336.5" x2="318.3" y2="335.9" stroke="#4b6580" stroke-width="1.4" opacity="0.9"/>
<line x1="303.5" y1="286.3" x2="317.8" y2="289.6" stroke="#4b6580" stroke-width="1.4" opacity="0.9"/>
<line x1="303.5" y1="236.2" x2="317.0" y2="241.2" stroke="#4b6580" stroke-width="1.4" opacity="0.9"/>
<line x1="303.5" y1="186.0" x2="316.4" y2="191.9" stroke="#4b6580" stroke-width="1.4" opacity="0.9"/>
<line x1="349.9" y1="788.0" x2="339.7" y2="779.2" stroke="#4b6580" stroke-width="1.4" opacity="0.9"/>
<line x1="349.9" y1="737.8" x2="339.8" y2="729.0" stroke="#4b6580" stroke-width="1.4" opacity="0.9"/>
<line x1="349.9" y1="687.7" x2="339.9" y2="678.8" stroke="#4b6580" stroke-width="1.4" opacity="0.9"/>
<line x1="349.9" y1="637.5" x2="340.0" y2="628.5" stroke="#4b6580" stroke-width="1.4" opacity="0.9"/>
<line x1="349.9" y1="587.3" x2="340.4" y2="578.1" stroke="#4b6580" stroke-width="1.4" opacity="0.9"/>
<line x1="349.9" y1="537.2" x2="341.1" y2="527.4" stroke="#4b6580" stroke-width="1.4" opacity="0.9"/>
<line x1="349.9" y1="487.0" x2="347.4" y2="475.1" stroke="#4b6580" stroke-width="1.4" opacity="0.9"/>
<line x1="349.9" y1="436.8" x2="362.8" y2="442.7" stroke="#4b6580" stroke-width="1.4" opacity="0.9"/>
<line x1="349.9" y1="386.7" x2="361.5" y2="394.1" stroke="#4b6580" stroke-width="1.4" opacity="0.9"/>
<line x1="349.9" y1="336.5" x2="361.1" y2="344.4" stroke="#4b6580" stroke-width="1.4" opacity="0.9"/>
<line x1="349.9" y1="286.3" x2="360.9" y2="294.4" stroke="#4b6580" stroke-width="1.4" opacity="0.9"/>
<line x1="349.9" y1="236.2" x2="360.8" y2="244.3" stroke="#4b6580" stroke-width="1.4" opacity="0.9"/>
<line x1="349.9" y1="186.0" x2="360.7" y2="194.2" stroke="#4b6580" stroke-width="1.4" opacity="0.9"/>
<line x1="396.2" y1="788.0" x2="385.2" y2="780.0" stroke="#4b6580" stroke-width="1.4" opacity="0.9"/>
<line x1="396.2" y1="737.8" x2="385.0" y2="730.0" stroke="#4b6580" stroke-width="1.4" opacity="0.9"/>
<line x1="396.2" y1="687.7" x2="384.8" y2="680.0" stroke="#4b6580" stroke-width="1.4" opacity="0.9"/>
<line x1="396.2" y1="637.5" x2="384.4" y2="630.3" stroke="#4b6580" stroke-width="1.4" opacity="0.9"/>
<line x1="396.2" y1="587.3" x2="383.4" y2="581.4" stroke="#4b6580" stroke-width="1.4" opacity="0.9"/>
<line x1="396.2" y1="537.2" x2="383.0" y2="542.5" stroke="#4b6580" stroke-width="1.4" opacity="0.9"/>
<line x1="396.2" y1="487.0" x2="402.9" y2="497.8" stroke="#4b6580" stroke-width="1.4" opacity="0.9"/>
<line x1="396.2" y1="436.8" x2="405.0" y2="446.6" stroke="#4b6580" stroke-width="1.4" opacity="0.9"/>
<line x1="396.2" y1="386.7" x2="405.6" y2="396.0" stroke="#4b6580" stroke-width="1.4" opacity="0.9"/>
<line x1="396.2" y1="336.5" x2="405.9" y2="345.6" stroke="#4b6580" stroke-width="1.4" opacity="0.9"/>
<line x1="396.2" y1="286.3" x2="406.1" y2="295.4" stroke="#4b6580" stroke-width="1.4" opacity="0.9"/>
<line x1="396.2" y1="236.2" x2="406.2" y2="245.1" stroke="#4b6580" stroke-width="1.4" opacity="0.9"/>
<line x1="396.2" y1="186.0" x2="406.3" y2="194.9" stroke="#4b6580" stroke-width="1.4" opacity="0.9"/>
<line x1="442.6" y1="788.0" x2="430.8" y2="780.7" stroke="#4b6580" stroke-width="1.4" opacity="0.9"/>
<line x1="442.6" y1="737.8" x2="430.5" y2="730.9" stroke="#4b6580" stroke-width="1.4" opacity="0.9"/>
<line x1="442.6" y1="687.7" x2="429.9" y2="681.5" stroke="#4b6580" stroke-width="1.4" opacity="0.9"/>
<line x1="442.6" y1="637.5" x2="428.7" y2="633.3" stroke="#4b6580" stroke-width="1.4" opacity="0.9"/>
<line x1="442.6" y1="587.3" x2="428.8" y2="591.8" stroke="#4b6580" stroke-width="1.4" opacity="0.9"/>
<line x1="442.6" y1="537.2" x2="444.6" y2="549.1" stroke="#4b6580" stroke-width="1.4" opacity="0.9"/>
<line x1="442.6" y1="487.0" x2="449.3" y2="497.7" stroke="#4b6580" stroke-width="1.4" opacity="0.9"/>
<line x1="442.6" y1="436.8" x2="450.8" y2="446.9" stroke="#4b6580" stroke-width="1.4" opacity="0.9"/>
<line x1="442.6" y1="386.7" x2="451.4" y2="396.4" stroke="#4b6580" stroke-width="1.4" opacity="0.9"/>
<line x1="442.6" y1="336.5" x2="451.8" y2="346.0" stroke="#4b6580" stroke-width="1.4" opacity="0.9"/>
<line x1="442.6" y1="286.3" x2="452.0" y2="295.6" stroke="#4b6580" stroke-width="1.4" opacity="0.9"/>
<line x1="442.6" y1="236.2" x2="452.2" y2="245.4" stroke="#4b6580" stroke-width="1.4" opacity="0.9"/>
<line x1="442.6" y1="186.0" x2="452.3" y2="195.1" stroke="#4b6580" stroke-width="1.4" opacity="0.9"/>
<line x1="489.0" y1="788.0" x2="476.7" y2="781.3" stroke="#4b6580" stroke-width="1.4" opacity="0.9"/>
<line x1="489.0" y1="737.8" x2="476.1" y2="731.9" stroke="#4b6580" stroke-width="1.4" opacity="0.9"/>
<line x1="489.0" y1="687.7" x2="475.1" y2="683.4" stroke="#4b6580" stroke-width="1.4" opacity="0.9"/>
<line x1="489.0" y1="637.5" x2="474.2" y2="638.5" stroke="#4b6580" stroke-width="1.4" opacity="0.9"/>
<line x1="489.0" y1="587.3" x2="484.7" y2="598.9" stroke="#4b6580" stroke-width="1.4" opacity="0.9"/>
<line x1="489.0" y1="537.2" x2="493.5" y2="548.6" stroke="#4b6580" stroke-width="1.4" opacity="0.9"/>
<line x1="489.0" y1="487.0" x2="496.0" y2="497.6" stroke="#4b6580" stroke-width="1.4" opacity="0.9"/>
<line x1="489.0" y1="436.8" x2="497.1" y2="446.9" stroke="#4b6580" stroke-width="1.4" opacity="0.9"/>
<line x1="489.0" y1="386.7" x2="497.6" y2="396.4" stroke="#4b6580" stroke-width="1.4" opacity="0.9"/>
<line x1="489.0" y1="336.5" x2="498.0" y2="346.1" stroke="#4b6580" stroke-width="1.4" opacity="0.9"/>
<line x1="489.0" y1="286.3" x2="498.2" y2="295.7" stroke="#4b6580" stroke-width="1.4" opacity="0.9"/>
<line x1="489.0" y1="236.2" x2="498.4" y2="245.5" stroke="#4b6580" stroke-width="1.4" opacity="0.9"/>
<line x1="489.0" y1="186.0" x2="498.6" y2="195.2" stroke="#4b6580" stroke-width="1.4" opacity="0.9"/>
<line x1="535.4" y1="788.0" x2="522.6" y2="781.9" stroke="#4b6580" stroke-width="1.4" opacity="0.9"/>
<line x1="535.4" y1="737.8" x2="521.9" y2="732.9" stroke="#4b6580" stroke-width="1.4" opacity="0.9"/>
<line x1="535.4" y1="687.7" x2="520.7" y2="685.7" stroke="#4b6580" stroke-width="1.4" opacity="0.9"/>
<line x1="535.4" y1="637.5" x2="523.4" y2="644.6" stroke="#4b6580" stroke-width="1.4" opacity="0.9"/>
<line x1="535.4" y1="587.3" x2="536.0" y2="599.4" stroke="#4b6580" stroke-width="1.4" opacity="0.9"/>
<line x1="535.4" y1="537.2" x2="540.9" y2="548.3" stroke="#4b6580" stroke-width="1.4" opacity="0.9"/>
<line x1="535.4" y1="487.0" x2="542.7" y2="497.5" stroke="#4b6580" stroke-width="1.4" opacity="0.9"/>
<line x1="535.4" y1="436.8" x2="543.5" y2="446.9" stroke="#4b6580" stroke-width="1.4" opacity="0.9"/>
<line x1="535.4" y1="386.7" x2="544.0" y2="396.4" stroke="#4b6580" stroke-width="1.4" opacity="0.9"/>
<line x1="535.4" y1="336.5" x2="544.4" y2="346.1" stroke="#4b6580" stroke-width="1.4" opacity="0.9"/>
<line x1="535.4" y1="286.3" x2="544.6" y2="295.8" stroke="#4b6580" stroke-width="1.4" opacity="0.9"/>
<line x1="535.4" y1="236.2" x2="544.8" y2="245.5" stroke="#4b6580" stroke-width="1.4" opacity="0.9"/>
<line x1="535.4" y1="186.0" x2="544.9" y2="195.2" stroke="#4b6580" stroke-width="1.4" opacity="0.9"/>
<line x1="581.8" y1="788.0" x2="568.7" y2="782.3" stroke="#4b6580" stroke-width="1.4" opacity="0.9"/>
<line x1="581.8" y1="737.8" x2="567.8" y2="733.8" stroke="#4b6580" stroke-width="1.4" opacity="0.9"/>
<line x1="581.8" y1="687.7" x2="566.9" y2="688.3" stroke="#4b6580" stroke-width="1.4" opacity="0.9"/>
<line x1="581.8" y1="637.5" x2="574.7" y2="648.1" stroke="#4b6580" stroke-width="1.4" opacity="0.9"/>
<line x1="581.8" y1="587.3" x2="584.7" y2="599.1" stroke="#4b6580" stroke-width="1.4" opacity="0.9"/>
<line x1="581.8" y1="537.2" x2="587.9" y2="548.1" stroke="#4b6580" stroke-width="1.4" opacity="0.9"/>
<line x1="581.8" y1="487.0" x2="589.3" y2="497.4" stroke="#4b6580" stroke-width="1.4" opacity="0.9"/>
<line x1="581.8" y1="436.8" x2="590.0" y2="446.8" stroke="#4b6580" stroke-width="1.4" opacity="0.9"/>
<line x1="581.8" y1="386.7" x2="590.5" y2="396.4" stroke="#4b6580" stroke-width="1.4" opacity="0.9"/>
<line x1="581.8" y1="336.5" x2="590.8" y2="346.1" stroke="#4b6580" stroke-width="1.4" opacity="0.9"/>
<line x1="581.8" y1="286.3" x2="591.0" y2="295.8" stroke="#4b6580" stroke-width="1.4" opacity="0.9"/>
<line x1="581.8" y1="236.2" x2="591.1" y2="245.5" stroke="#4b6580" stroke-width="1.4" opacity="0.9"/>
<line x1="581.8" y1="186.0" x2="591.3" y2="195.2" stroke="#4b6580" stroke-width="1.4" opacity="0.9"/>
<line x1="628.1" y1="788.0" x2="614.8" y2="782.7" stroke="#4b6580" stroke-width="1.4" opacity="0.9"/>
<line x1="628.1" y1="737.8" x2="613.8" y2="734.8" stroke="#4b6580" stroke-width="1.4" opacity="0.9"/>
<line x1="628.1" y1="687.7" x2="614.0" y2="691.3" stroke="#4b6580" stroke-width="1.4" opacity="0.9"/>
<line x1="628.1" y1="637.5" x2="625.1" y2="649.3" stroke="#4b6580" stroke-width="1.4" opacity="0.9"/>
<line x1="628.1" y1="587.3" x2="632.3" y2="598.9" stroke="#4b6580" stroke-width="1.4" opacity="0.9"/>
<line x1="628.1" y1="537.2" x2="634.8" y2="547.9" stroke="#4b6580" stroke-width="1.4" opacity="0.9"/>
<line x1="628.1" y1="487.0" x2="635.9" y2="497.3" stroke="#4b6580" stroke-width="1.4" opacity="0.9"/>
<line x1="628.1" y1="436.8" x2="636.5" y2="446.8" stroke="#4b6580" stroke-width="1.4" opacity="0.9"/>
<line x1="628.1" y1="386.7" x2="636.9" y2="396.4" stroke="#4b6580" stroke-width="1.4" opacity="0.9"/>
<line x1="628.1" y1="336.5" x2="637.2" y2="346.0" stroke="#4b6580" stroke-width="1.4" opacity="0.9"/>
<line x1="628.1" y1="286.3" x2="637.4" y2="295.7" stroke="#4b6580" stroke-width="1.4" opacity="0.9"/>
<line x1="628.1" y1="236.2" x2="637.5" y2="245.5" stroke="#4b6580" stroke-width="1.4" opacity="0.9"/>
<line x1="628.1" y1="186.0" x2="637.7" y2="195.2" stroke="#4b6580" stroke-width="1.4" opacity="0.9"/>
<line x1="674.5" y1="788.0" x2="660.9" y2="783.1" stroke="#4b6580" stroke-width="1.4" opacity="0.9"/>
<line x1="674.5" y1="737.8" x2="659.9" y2="735.8" stroke="#4b6580" stroke-width="1.4" opacity="0.9"/>
<line x1="674.5" y1="687.7" x2="661.9" y2="694.0" stroke="#4b6580" stroke-width="1.4" opacity="0.9"/>
<line x1="674.5" y1="637.5" x2="674.1" y2="649.5" stroke="#4b6580" stroke-width="1.4" opacity="0.9"/>
<line x1="674.5" y1="587.3" x2="679.6" y2="598.7" stroke="#4b6580" stroke-width="1.4" opacity="0.9"/>
<line x1="674.5" y1="537.2" x2="681.5" y2="547.8" stroke="#4b6580" stroke-width="1.4" opacity="0.9"/>
<line x1="674.5" y1="487.0" x2="682.5" y2="497.2" stroke="#4b6580" stroke-width="1.4" opacity="0.9"/>
<line x1="674.5" y1="436.8" x2="683.0" y2="446.7" stroke="#4b6580" stroke-width="1.4" opacity="0.9"/>
<line x1="674.5" y1="386.7" x2="683.4" y2="396.3" stroke="#4b6580" stroke-width="1.4" opacity="0.9"/>
<line x1="674.5" y1="336.5" x2="683.6" y2="346.0" stroke="#4b6580" stroke-width="1.4" opacity="0.9"/>
<line x1="674.5" y1="286.3" x2="683.8" y2="295.7" stroke="#4b6580" stroke-width="1.4" opacity="0.9"/>
<line x1="674.5" y1="236.2" x2="683.9" y2="245.5" stroke="#4b6580" stroke-width="1.4" opacity="0.9"/>
<line x1="674.5" y1="186.0" x2="684.1" y2="195.2" stroke="#4b6580" stroke-width="1.4" opacity="0.9"/>
<line x1="720.9" y1="788.0" x2="707.1" y2="783.4" stroke="#4b6580" stroke-width="1.4" opacity="0.9"/>
<line x1="720.9" y1="737.8" x2="706.1" y2="736.8" stroke="#4b6580" stroke-width="1.4" opacity="0.9"/>
<line x1="720.9" y1="687.7" x2="710.5" y2="696.3" stroke="#4b6580" stroke-width="1.4" opacity="0.9"/>
<line x1="720.9" y1="637.5" x2="722.3" y2="649.5" stroke="#4b6580" stroke-width="1.4" opacity="0.9"/>
<line x1="720.9" y1="587.3" x2="726.5" y2="598.5" stroke="#4b6580" stroke-width="1.4" opacity="0.9"/>
<line x1="720.9" y1="537.2" x2="728.2" y2="547.6" stroke="#4b6580" stroke-width="1.4" opacity="0.9"/>
<line x1="720.9" y1="487.0" x2="729.0" y2="497.1" stroke="#4b6580" stroke-width="1.4" opacity="0.9"/>
<line x1="720.9" y1="436.8" x2="729.5" y2="446.6" stroke="#4b6580" stroke-width="1.4" opacity="0.9"/>
<line x1="720.9" y1="386.7" x2="729.8" y2="396.3" stroke="#4b6580" stroke-width="1.4" opacity="0.9"/>
<line x1="720.9" y1="336.5" x2="730.1" y2="346.0" stroke="#4b6580" stroke-width="1.4" opacity="0.9"/>
<line x1="720.9" y1="286.3" x2="730.2" y2="295.7" stroke="#4b6580" stroke-width="1.4" opacity="0.9"/>
<line x1="720.9" y1="236.2" x2="730.4" y2="245.4" stroke="#4b6580" stroke-width="1.4" opacity="0.9"/>
<line x1="720.9" y1="186.0" x2="730.5" y2="195.2" stroke="#4b6580" stroke-width="1.4" opacity="0.9"/>
<line x1="767.2" y1="788.0" x2="753.4" y2="783.7" stroke="#4b6580" stroke-width="1.4" opacity="0.9"/>
<line x1="767.2" y1="737.8" x2="752.4" y2="737.8" stroke="#4b6580" stroke-width="1.4" opacity="0.9"/>
<line x1="767.2" y1="687.7" x2="759.3" y2="697.8" stroke="#4b6580" stroke-width="1.4" opacity="0.9"/>
<line x1="767.2" y1="637.5" x2="769.9" y2="649.3" stroke="#4b6580" stroke-width="1.4" opacity="0.9"/>
<line x1="767.2" y1="587.3" x2="773.4" y2="598.3" stroke="#4b6580" stroke-width="1.4" opacity="0.9"/>
<line x1="767.2" y1="537.2" x2="774.8" y2="547.5" stroke="#4b6580" stroke-width="1.4" opacity="0.9"/>
<line x1="767.2" y1="487.0" x2="775.5" y2="497.0" stroke="#4b6580" stroke-width="1.4" opacity="0.9"/>
<line x1="767.2" y1="436.8" x2="776.0" y2="446.6" stroke="#4b6580" stroke-width="1.4" opacity="0.9"/>
<line x1="767.2" y1="386.7" x2="776.3" y2="396.2" stroke="#4b6580" stroke-width="1.4" opacity="0.9"/>
<line x1="767.2" y1="336.5" x2="776.5" y2="345.9" stroke="#4b6580" stroke-width="1.4" opacity="0.9"/>
<line x1="767.2" y1="286.3" x2="776.7" y2="295.6" stroke="#4b6580" stroke-width="1.4" opacity="0.9"/>
<line x1="767.2" y1="236.2" x2="776.8" y2="245.4" stroke="#4b6580" stroke-width="1.4" opacity="0.9"/>
<line x1="767.2" y1="186.0" x2="776.9" y2="195.2" stroke="#4b6580" stroke-width="1.4" opacity="0.9"/>
<line x1="813.6" y1="788.0" x2="799.6" y2="784.0" stroke="#4b6580" stroke-width="1.4" opacity="0.9"/>
<line x1="813.6" y1="737.8" x2="798.8" y2="738.8" stroke="#4b6580" stroke-width="1.4" opacity="0.9"/>
<line x1="813.6" y1="687.7" x2="807.9" y2="698.8" stroke="#4b6580" stroke-width="1.4" opacity="0.9"/>
<line x1="813.6" y1="637.5" x2="817.2" y2="649.2" stroke="#4b6580" stroke-width="1.4" opacity="0.9"/>
<line x1="813.6" y1="587.3" x2="820.2" y2="598.1" stroke="#4b6580" stroke-width="1.4" opacity="0.9"/>
<line x1="813.6" y1="537.2" x2="821.4" y2="547.4" stroke="#4b6580" stroke-width="1.4" opacity="0.9"/>
<line x1="813.6" y1="487.0" x2="822.0" y2="496.9" stroke="#4b6580" stroke-width="1.4" opacity="0.9"/>
<line x1="813.6" y1="436.8" x2="822.5" y2="446.5" stroke="#4b6580" stroke-width="1.4" opacity="0.9"/>
<line x1="813.6" y1="386.7" x2="822.7" y2="396.2" stroke="#4b6580" stroke-width="1.4" opacity="0.9"/>
<line x1="813.6" y1="336.5" x2="822.9" y2="345.9" stroke="#4b6580" stroke-width="1.4" opacity="0.9"/>
<line x1="813.6" y1="286.3" x2="823.1" y2="295.6" stroke="#4b6580" stroke-width="1.4" opacity="0.9"/>
<line x1="813.6" y1="236.2" x2="823.2" y2="245.4" stroke="#4b6580" stroke-width="1.4" opacity="0.9"/>
<line x1="813.6" y1="186.0" x2="823.3" y2="195.1" stroke="#4b6580" stroke-width="1.4" opacity="0.9"/>
<line x1="860.0" y1="788.0" x2="845.9" y2="784.2" stroke="#4b6580" stroke-width="1.4" opacity="0.9"/>
<line x1="860.0" y1="737.8" x2="845.4" y2="739.9" stroke="#4b6580" stroke-width="1.4" opacity="0.9"/>
<line x1="860.0" y1="687.7" x2="856.2" y2="699.3" stroke="#4b6580" stroke-width="1.4" opacity="0.9"/>
<line x1="860.0" y1="637.5" x2="864.3" y2="649.0" stroke="#4b6580" stroke-width="1.4" opacity="0.9"/>
<line x1="860.0" y1="587.3" x2="866.8" y2="598.0" stroke="#4b6580" stroke-width="1.4" opacity="0.9"/>
<line x1="860.0" y1="537.2" x2="867.9" y2="547.3" stroke="#4b6580" stroke-width="1.4" opacity="0.9"/>
<line x1="860.0" y1="487.0" x2="868.5" y2="496.8" stroke="#4b6580" stroke-width="1.4" opacity="0.9"/>
<line x1="860.0" y1="436.8" x2="868.9" y2="446.5" stroke="#4b6580" stroke-width="1.4" opacity="0.9"/>
<line x1="860.0" y1="386.7" x2="869.2" y2="396.1" stroke="#4b6580" stroke-width="1.4" opacity="0.9"/>
<line x1="860.0" y1="336.5" x2="869.4" y2="345.8" stroke="#4b6580" stroke-width="1.4" opacity="0.9"/>
<line x1="860.0" y1="286.3" x2="869.5" y2="295.6" stroke="#4b6580" stroke-width="1.4" opacity="0.9"/>
<line x1="860.0" y1="236.2" x2="869.6" y2="245.3" stroke="#4b6580" stroke-width="1.4" opacity="0.9"/>
<line x1="860.0" y1="186.0" x2="869.7" y2="195.1" stroke="#4b6580" stroke-width="1.4" opacity="0.9"/>
<polyline points="118.0,788.0 120.5,771.8 123.0,755.7 125.4,739.7 127.9,723.7 130.4,708.0 132.9,692.5 135.4,677.2 137.9,662.2 140.3,647.5 142.8,633.2 145.3,619.3 147.8,605.7 150.3,592.6 152.7,580.0 155.2,567.8 157.7,556.0 160.2,544.8 162.7,534.1 165.2,523.8 167.6,514.1 170.1,504.8 172.6,496.1 175.1,487.8 177.6,480.1 180.0,472.8 182.5,466.0 185.0,459.6 187.5,453.7 190.0,448.3 192.4,443.2 194.9,438.6 197.4,434.3 199.9,430.5 202.4,427.0 204.9,423.8 207.3,421.0 209.8,418.5 212.3,416.3 214.8,414.4 217.3,412.8 219.7,411.4 222.2,410.3 224.7,409.4 227.2,408.7 229.7,408.3 232.2,408.0 234.6,407.9 237.1,408.0 239.6,408.3 242.1,408.7 244.6,409.2 247.0,409.9 249.5,410.7 252.0,411.6 254.5,412.6 257.0,413.7 259.5,414.9 261.9,416.2 264.4,417.6 266.9,419.0 269.4,420.5 271.9,422.1 274.3,423.7 276.8,425.4 279.3,427.1 281.8,428.9 284.3,430.7 286.7,432.5 289.2,434.4 291.7,436.3 294.2,438.2 296.7,440.1 299.2,442.1 301.6,444.0 304.1,446.0 306.6,448.0 309.1,450.0 311.6,452.0 314.0,454.0 316.5,456.1 319.0,458.1 321.5,460.1 324.0,462.1 326.5,464.1 328.9,466.2 331.4,468.2 333.9,470.2 336.4,472.2 338.9,474.2 341.3,476.2 343.8,478.1 346.3,480.1 348.8,482.1 351.3,484.0 353.8,485.9 356.2,487.9 358.7,489.8 361.2,491.7 363.7,493.6 366.2,495.4 368.6,497.3 371.1,499.1 373.6,501.0 376.1,502.8 378.6,504.6 381.1,506.4 383.5,508.2 386.0,509.9 388.5,511.7 391.0,513.4 393.5,515.1 395.9,516.8 398.4,518.5 400.9,520.2 403.4,521.9 405.9,523.5 408.3,525.1 410.8,526.8 413.3,528.4 415.8,529.9 418.3,531.5 420.8,533.1 423.2,534.6 425.7,536.1 428.2,537.7 430.7,539.2 433.2,540.6 435.6,542.1 438.1,543.6 440.6,545.0 443.1,546.4 445.6,547.9 448.1,549.3 450.5,550.7 453.0,552.0 455.5,553.4 458.0,554.7 460.5,556.1 462.9,557.4 465.4,558.7 467.9,560.0 470.4,561.3 472.9,562.6 475.4,563.8 477.8,565.1 480.3,566.3 482.8,567.6 485.3,568.8 487.8,570.0 490.2,571.2 492.7,572.4 495.2,573.5 497.7,574.7 500.2,575.8 502.6,577.0 505.1,578.1 507.6,579.2 510.1,580.3 512.6,581.4 515.1,582.5 517.5,583.6 520.0,584.6 522.5,585.7 525.0,586.7 527.5,587.8 529.9,588.8 532.4,589.8 534.9,590.8 537.4,591.8 539.9,592.8 542.4,593.8 544.8,594.8 547.3,595.7 549.8,596.7 552.3,597.6 554.8,598.6 557.2,599.5 559.7,600.4 562.2,601.3 564.7,602.2 567.2,603.1 569.7,604.0 572.1,604.9 574.6,605.8 577.1,606.6 579.6,607.5 582.1,608.4 584.5,609.2 587.0,610.0 589.5,610.9 592.0,611.7 594.5,612.5 596.9,613.3 599.4,614.1 601.9,614.9 604.4,615.7 606.9,616.5 609.4,617.2 611.8,618.0 614.3,618.8 616.8,619.5 619.3,620.3 621.8,621.0 624.2,621.8 626.7,622.5 629.2,623.2 631.7,623.9 634.2,624.6 636.7,625.3 639.1,626.0 641.6,626.7 644.1,627.4 646.6,628.1 649.1,628.8 651.5,629.5 654.0,630.1 656.5,630.8 659.0,631.4 661.5,632.1 664.0,632.7 666.4,633.4 668.9,634.0 671.4,634.7 673.9,635.3 676.4,635.9 678.8,636.5 681.3,637.1 683.8,637.7 686.3,638.3 688.8,638.9 691.3,639.5 693.7,640.1 696.2,640.7 698.7,641.3 701.2,641.9 703.7,642.4 706.1,643.0 708.6,643.6 711.1,644.1 713.6,644.7 716.1,645.2 718.5,645.8 721.0,646.3 723.5,646.9 726.0,647.4 728.5,647.9 731.0,648.5 733.4,649.0 735.9,649.5 738.4,650.0 740.9,650.5 743.4,651.0 745.8,651.5 748.3,652.0 750.8,652.5 753.3,653.0 755.8,653.5 758.3,654.0 760.7,654.5 763.2,655.0 765.7,655.5 768.2,655.9 770.7,656.4 773.1,656.9 775.6,657.3 778.1,657.8 780.6,658.3 783.1,658.7 785.6,659.2 788.0,659.6 790.5,660.1 793.0,660.5 795.5,660.9 798.0,661.4 800.4,661.8 802.9,662.2 805.4,662.7 807.9,663.1 810.4,663.5 812.8,663.9 815.3,664.4 817.8,664.8 820.3,665.2 822.8,665.6 825.3,666.0 827.7,666.4 830.2,666.8 832.7,667.2 835.2,667.6 837.7,668.0 840.1,668.4 842.6,668.8 845.1,669.2 847.6,669.5 850.1,669.9 852.6,670.3 855.0,670.7 857.5,671.1 860.0,671.4" fill="none" stroke="#f97316" stroke-width="3.2" stroke-opacity="0.9" stroke-linejoin="round" stroke-linecap="round"/>
<polyline points="177.6,-490.8 180.0,-468.7 182.5,-446.5 185.0,-424.2 187.5,-401.9 190.0,-379.6 192.4,-357.5 194.9,-335.4 197.4,-313.5 199.9,-291.8 202.4,-270.3 204.9,-249.0 207.3,-228.0 209.8,-207.3 212.3,-186.8 214.8,-166.7 217.3,-146.9 219.7,-127.4 222.2,-108.3 224.7,-89.5 227.2,-71.1 229.7,-53.0 232.2,-35.3 234.6,-18.0 237.1,-1.0 239.6,15.6 242.1,31.9 244.6,47.7 247.0,63.3 249.5,78.4 252.0,93.3 254.5,107.7 257.0,121.9 259.5,135.7 261.9,149.1 264.4,162.3 266.9,175.1 269.4,187.6 271.9,199.8 274.3,211.7 276.8,223.3 279.3,234.6 281.8,245.7 284.3,256.5 286.7,267.0 289.2,277.2 291.7,287.2 294.2,296.9 296.7,306.4 299.2,315.7 301.6,324.7 304.1,333.5 306.6,342.1 309.1,350.5 311.6,358.7 314.0,366.7 316.5,374.5 319.0,382.1 321.5,389.5 324.0,396.7 326.5,403.7 328.9,410.6 331.4,417.4 333.9,423.9 336.4,430.3 338.9,436.6 341.3,442.7 343.8,448.6 346.3,454.4 348.8,460.1 351.3,465.7 353.8,471.1 356.2,476.4 358.7,481.6 361.2,486.6 363.7,491.6 366.2,496.4 368.6,501.1 371.1,505.8 373.6,510.3 376.1,514.7 378.6,519.0 381.1,523.2 383.5,527.4 386.0,531.4 388.5,535.3 391.0,539.2 393.5,543.0 395.9,546.7 398.4,550.3 400.9,553.9 403.4,557.4 405.9,560.8 408.3,564.1 410.8,567.3 413.3,570.5 415.8,573.7 418.3,576.7 420.8,579.7 423.2,582.7 425.7,585.6 428.2,588.4 430.7,591.2 433.2,593.9 435.6,596.5 438.1,599.2 440.6,601.7 443.1,604.2 445.6,606.7 448.1,609.1 450.5,611.5 453.0,613.8 455.5,616.1 458.0,618.3 460.5,620.5 462.9,622.7 465.4,624.8 467.9,626.9 470.4,628.9 472.9,630.9 475.4,632.9 477.8,634.8 480.3,636.7 482.8,638.5 485.3,640.4 487.8,642.2 490.2,643.9 492.7,645.7 495.2,647.4 497.7,649.0 500.2,650.7 502.6,652.3 505.1,653.9 507.6,655.5 510.1,657.0 512.6,658.5 515.1,660.0 517.5,661.5 520.0,662.9 522.5,664.3 525.0,665.7 527.5,667.1 529.9,668.4 532.4,669.7 534.9,671.0 537.4,672.3 539.9,673.6 542.4,674.8 544.8,676.0 547.3,677.2 549.8,678.4 552.3,679.6 554.8,680.7 557.2,681.9 559.7,683.0 562.2,684.1 564.7,685.1 567.2,686.2 569.7,687.3 572.1,688.3 574.6,689.3 577.1,690.3 579.6,691.3 582.1,692.3 584.5,693.2 587.0,694.2 589.5,695.1 592.0,696.0 594.5,696.9 596.9,697.8 599.4,698.7 601.9,699.5 604.4,700.4 606.9,701.2 609.4,702.0 611.8,702.9 614.3,703.7 616.8,704.5 619.3,705.2 621.8,706.0 624.2,706.8 626.7,707.5 629.2,708.3 631.7,709.0 634.2,709.7 636.7,710.4 639.1,711.1 641.6,711.8 644.1,712.5 646.6,713.2 649.1,713.8 651.5,714.5 654.0,715.2 656.5,715.8 659.0,716.4 661.5,717.0 664.0,717.7 666.4,718.3 668.9,718.9 671.4,719.5 673.9,720.0 676.4,720.6 678.8,721.2 681.3,721.8 683.8,722.3 686.3,722.9 688.8,723.4 691.3,723.9 693.7,724.5 696.2,725.0 698.7,725.5 701.2,726.0 703.7,726.5 706.1,727.0 708.6,727.5 711.1,728.0 713.6,728.5 716.1,729.0 718.5,729.4 721.0,729.9 723.5,730.4 726.0,730.8 728.5,731.3 731.0,731.7 733.4,732.1 735.9,732.6 738.4,733.0 740.9,733.4 743.4,733.8 745.8,734.2 748.3,734.7 750.8,735.1 753.3,735.5 755.8,735.9 758.3,736.2 760.7,736.6 763.2,737.0 765.7,737.4 768.2,737.8 770.7,738.1 773.1,738.5 775.6,738.9 778.1,739.2 780.6,739.6 783.1,739.9 785.6,740.3 788.0,740.6 790.5,740.9 793.0,741.3 795.5,741.6 798.0,741.9 800.4,742.3 802.9,742.6 805.4,742.9 807.9,743.2 810.4,743.5 812.8,743.8 815.3,744.1 817.8,744.4 820.3,744.7 822.8,745.0 825.3,745.3 827.7,745.6 830.2,745.9 832.7,746.2 835.2,746.5 837.7,746.8 840.1,747.0 842.6,747.3 845.1,747.6 847.6,747.8 850.1,748.1 852.6,748.4 855.0,748.6 857.5,748.9 860.0,749.1" fill="none" stroke="#60a5fa" stroke-width="3.2" stroke-opacity="0.9" stroke-linejoin="round" stroke-linecap="round"/>
<polyline points="403.1,872.8 393.9,868.5 385.2,864.3 376.9,860.1 369.0,856.1 361.4,852.1 354.1,848.3 347.2,844.5 340.6,840.7 334.2,837.0 328.1,833.4 322.2,829.8 316.6,826.3 311.1,822.8 305.9,819.3 300.9,815.9 296.0,812.5 291.3,809.1 286.8,805.7 282.5,802.4 278.3,799.1 274.2,795.8 270.3,792.6 266.5,789.3 262.8,786.1 259.3,782.9 255.9,779.7 252.6,776.5 249.3,773.4 246.2,770.2 243.2,767.1 240.3,763.9 237.5,760.8 234.8,757.7 232.1,754.6 229.6,751.5 227.1,748.4 224.7,745.4 222.4,742.3 220.1,739.3 217.9,736.2 215.8,733.2 213.7,730.1 211.7,727.1 209.8,724.1 207.9,721.1 206.1,718.1 204.4,715.1 202.7,712.1 201.0,709.1 199.4,706.1 197.9,703.1 196.4,700.1 195.0,697.2 193.6,694.2 192.2,691.2 190.9,688.3 189.6,685.4 188.4,682.4 187.2,679.5 186.1,676.6 184.9,673.6 183.9,670.7 182.8,667.8 181.8,664.9 180.9,662.0 179.9,659.1 179.0,656.2 178.2,653.3 177.3,650.4 176.5,647.6 175.8,644.7 175.0,641.8 174.3,639.0 173.6,636.1 173.0,633.3 172.3,630.4 171.7,627.6 171.1,624.7 170.6,621.9 170.0,619.1 169.5,616.3 169.0,613.5 168.6,610.7 168.1,607.9 167.7,605.1 167.3,602.3 166.9,599.5 166.5,596.7 166.2,593.9 165.9,591.2 165.6,588.4 165.3,585.6 165.0,582.9 164.8,580.1 164.5,577.4 164.3,574.7 164.1,571.9 163.9,569.2 163.7,566.5 163.6,563.8 163.4,561.1 163.3,558.4 163.2,555.7 163.1,553.0 163.0,550.3 163.0,547.7 162.9,545.0 162.8,542.3 162.8,539.7 162.8,537.0 162.8,534.4 162.8,531.7 162.8,529.1 162.8,526.5 162.9,523.8 162.9,521.2 163.0,518.6 163.0,516.0 163.1,513.4 163.2,510.8 163.3,508.2 163.4,505.7 163.5,503.1 163.6,500.5 163.8,498.0 163.9,495.4 164.1,492.9 164.2,490.3 164.4,487.8 164.6,485.3 164.8,482.8 165.0,480.2 165.2,477.7 165.4,475.2 165.6,472.7 165.8,470.3 166.0,467.8 166.3,465.3 166.5,462.8 166.8,460.4 167.0,457.9 167.3,455.5 167.6,453.0 167.9,450.6 168.2,448.2 168.4,445.8 168.7,443.4 169.1,441.0 169.4,438.6 169.7,436.2 170.0,433.8 170.3,431.4 170.7,429.1 171.0,426.7 171.4,424.4 171.7,422.0 172.1,419.7 172.5,417.4 172.8,415.0 173.2,412.7 173.6,410.4 174.0,408.1 174.4,405.9 174.8,403.6 175.2,401.3 175.6,399.0 176.0,396.8 176.4,394.5 176.9,392.3 177.3,390.1 177.7,387.9 178.2,385.7 178.6,383.4 179.1,381.3 179.6,379.1 180.0,376.9 180.5,374.7 181.0,372.6 181.5,370.4 182.0,368.3 182.5,366.2 183.0,364.0 183.5,361.9 184.0,359.8 184.5,357.7 185.0,355.7 185.6,353.6 186.1,351.5 186.7,349.5 187.2,347.5 187.8,345.4 188.3,343.4 188.9,341.4 189.5,339.4 190.1,337.4 190.6,335.4 191.2,333.5 191.8,331.5 192.5,329.6 193.1,327.7 193.7,325.7 194.3,323.8 195.0,321.9 195.6,320.1 196.3,318.2 196.9,316.3 197.6,314.5 198.3,312.7 199.0,310.9 199.6,309.0 200.3,307.3 201.1,305.5 201.8,303.7 202.5,302.0 203.2,300.2 204.0,298.5 204.7,296.8 205.5,295.1 206.3,293.4 207.0,291.8 207.8,290.1 208.6,288.5 209.4,286.9 210.3,285.3 211.1,283.7 212.0,282.1 212.8,280.6 213.7,279.1 214.6,277.5 215.4,276.1 216.4,274.6 217.3,273.1 218.2,271.7 219.1,270.3 220.1,268.9 221.1,267.5 222.1,266.1 223.1,264.8 224.1,263.5 225.1,262.2 226.2,260.9 227.2,259.6 228.3,258.4 229.4,257.2 230.5,256.0 231.7,254.9 232.8,253.7 234.0,252.6 235.2,251.5 236.4,250.5 237.6,249.5 238.9,248.5 240.2,247.5 241.5,246.5 242.8,245.6 244.2,244.7 245.6,243.9 247.0,243.1 248.4,242.3 249.9,241.5 251.4,240.8 252.9,240.1 254.4,239.5 256.0,238.9 257.6,238.3 259.3,237.8 261.0,237.3 262.7,236.9 264.5,236.5 266.3,236.1 268.2,235.8 270.1,235.5 272.0,235.3 274.0,235.1 276.0,235.0 278.1,235.0 280.3,235.0 282.5,235.0 284.7,235.1 287.1,235.3 289.4,235.5 291.9,235.8 294.4,236.2 297.0,236.7 299.6,237.2 302.4,237.8 305.2,238.4 308.1,239.2 311.1,240.0 314.2,240.9 317.4,241.9 320.6,243.0 324.0,244.3 327.5,245.6 331.2,247.0 334.9,248.5 338.8,250.2 342.8,251.9 346.9,253.8 351.2,255.9 355.7,258.0 360.3,260.3 365.1,262.8 370.1,265.4 375.2,268.2 380.6,271.2 386.2,274.3 392.0,277.7 398.0,281.2 404.3,284.9 410.8,288.9 417.6,293.1 424.7,297.5 432.1,302.2 439.7,307.1 447.7,312.3 456.1,317.8 464.8,323.5 473.8,329.6 483.2,336.0 493.0,342.7 503.2,349.8 513.8,357.2 524.8,364.9 536.3,373.0 548.1,381.5 560.3,390.3 572.9,399.5 585.9,409.1 599.2,419.0 612.8,429.2 626.8,439.8 640.9,450.7 655.2,461.8 669.6,473.2 684.0,484.8 698.4,496.5 712.6,508.4 726.6,520.3 740.1,532.2 753.2,544.0 765.8,555.6 777.6,567.1 788.7,578.3 798.9,589.2 808.1,599.8 816.4,609.9 823.5,619.6 829.7,628.8 834.7,637.5 838.6,645.7 841.4,653.4 843.2,660.5 844.0,667.1 843.8,673.3 842.7,678.9 840.7,684.1 838.0,688.9 834.5,693.2 830.4,697.1 825.6,700.7 820.3,703.9 814.6,706.8 808.4,709.4 801.8,711.7 794.9,713.7 787.7,715.6 780.3,717.1 772.7,718.5 764.9,719.7 757.0,720.8 749.0,721.6 740.9,722.4 732.7,723.0 724.5,723.4 716.3,723.8 708.1,724.0 699.9,724.1 691.7,724.2 683.5,724.1 675.4,724.0 667.4,723.8 659.4,723.5 651.5,723.1 643.6,722.7 635.9,722.3 628.2,721.7 620.6,721.2 613.1,720.5 605.7,719.8 598.4,719.1 591.2,718.3 584.0,717.5 577.0,716.7 570.1,715.8 563.3,714.9 556.6,713.9 550.0,712.9 543.5,711.9 537.1,710.8 530.8,709.7 524.6,708.6 518.5,707.5 512.4,706.3 506.5,705.1 500.7,703.8 495.0,702.6 489.4,701.3 483.8,700.0 478.4,698.7 473.0,697.3 467.8,695.9 462.6,694.6 457.5,693.1 452.5,691.7 447.6,690.2 442.8,688.8 438.1,687.3 433.4,685.8 428.8,684.2 424.3,682.7 419.9,681.1 415.5,679.5 411.2,677.9 407.0,676.3 402.9,674.7 398.9,673.0 394.9,671.3 391.0,669.7 387.1,668.0 383.3,666.2 379.6,664.5 376.0,662.8 372.4,661.0 368.8,659.2 365.4,657.5 362.0,655.7 358.6,653.9 355.4,652.0 352.1,650.2 349.0,648.4 345.9,646.5 342.8,644.6 339.8,642.8 336.9,640.9 334.0,639.0 331.1,637.1 328.3,635.1 325.6,633.2 322.9,631.3 320.3,629.3 317.7,627.4 315.1,625.4 312.6,623.4 310.2,621.5 307.8,619.5 305.4,617.5 303.1,615.5 300.8,613.4 298.6,611.4 296.4,609.4 294.2,607.4 292.1,605.3 290.1,603.3 288.0,601.2 286.0,599.2 284.1,597.1 282.2,595.0 280.3,592.9 278.4,590.9 276.6,588.8 274.9,586.7 273.1,584.6 271.4,582.5 269.8,580.4 268.1,578.3 266.5,576.2 265.0,574.0 263.4,571.9 261.9,569.8 260.5,567.7 259.0,565.6 257.6,563.4 256.2,561.3 254.9,559.2 253.6,557.0 252.3,554.9 251.0,552.7 249.8,550.6 248.6,548.4 247.4,546.3 246.2,544.2 245.1,542.0 244.0,539.9 242.9,537.7 241.9,535.6 240.9,533.4 239.9,531.3 238.9,529.1 237.9,527.0 237.0,524.8 236.1,522.7 235.2,520.5 234.4,518.4 233.5,516.2 232.7,514.1 231.9,511.9 231.2,509.8 230.4,507.6 229.7,505.5 229.0,503.3 228.3,501.2 227.6,499.1 227.0,496.9 226.4,494.8 225.8,492.7 225.2,490.5 224.6,488.4 224.1,486.3 223.5,484.2 223.0,482.1 222.5,479.9 222.1,477.8 221.6,475.7 221.2,473.6 220.8,471.5 220.4,469.4 220.0,467.3 219.6,465.2 219.2,463.1 218.9,461.1 218.6,459.0 218.3,456.9 218.0,454.8 217.7,452.8 217.4,450.7 217.2,448.6 217.0,446.6 216.8,444.5 216.6,442.5 216.4,440.5 216.2,438.4 216.0,436.4 215.9,434.4 215.8,432.4 215.7,430.4 215.6,428.3 215.5,426.3 215.4,424.4 215.3,422.4 215.3,420.4 215.3,418.4 215.2,416.4 215.2,414.5 215.2,412.5 215.2,410.6 215.3,408.6 215.3,406.7 215.4,404.8 215.4,402.9 215.5,400.9 215.6,399.0 215.7,397.1 215.8,395.2 216.0,393.4 216.1,391.5 216.2,389.6 216.4,387.8 216.6,385.9 216.8,384.1 217.0,382.2 217.2,380.4 217.4,378.6 217.6,376.8 217.9,375.0 218.1,373.2 218.4,371.4 218.7,369.7 218.9,367.9 219.2,366.1 219.6,364.4 219.9,362.7 220.2,361.0 220.6,359.2 220.9,357.6 221.3,355.9 221.7,354.2 222.1,352.5 222.5,350.9 222.9,349.2 223.3,347.6 223.8,346.0 224.2,344.4 224.7,342.8 225.1,341.2 225.6,339.6 226.1,338.1 226.6,336.5 227.2,335.0 227.7,333.5 228.3,332.0 228.8,330.5 229.4,329.0 230.0,327.5 230.6,326.1 231.2,324.7 231.8,323.2 232.5,321.8 233.1,320.4 233.8,319.1 234.5,317.7 235.2,316.4 235.9,315.1 236.6,313.8 237.4,312.5 238.1,311.2 238.9,310.0 239.7,308.7 240.5,307.5 241.3,306.3 242.2,305.1 243.0,304.0 243.9,302.9 244.8,301.7 245.7,300.7 246.6,299.6 247.6,298.5 248.5,297.5 249.5,296.5 250.5,295.5 251.5,294.6 252.6,293.6 253.6,292.7 254.7,291.8 255.8,291.0 257.0,290.2 258.1,289.4 259.3,288.6 260.5,287.8 261.8,287.1 263.0,286.4 264.3,285.8 265.6,285.2 267.0,284.6 268.3,284.0 269.7,283.5 271.2,283.0 272.6,282.6 274.1,282.1 275.7,281.8 277.2,281.4 278.8,281.1 280.5,280.9 282.2,280.6 283.9,280.5 285.6,280.3 287.4,280.2 289.3,280.2 291.2,280.2 293.1,280.3 295.1,280.4 297.1,280.5 299.2,280.7 301.4,281.0 303.6,281.3 305.8,281.7 308.1,282.2 310.5,282.7 313.0,283.2 315.5,283.9 318.0,284.6 320.7,285.4 323.4,286.2 326.2,287.2 329.1,288.2 332.0,289.3 335.1,290.4 338.2,291.7 341.5,293.1 344.8,294.5 348.2,296.1 351.8,297.7 355.4,299.5 359.2,301.3 363.1,303.3 367.1,305.4 371.2,307.6 375.5,309.9 379.9,312.4 384.5,315.0 389.2,317.7 394.0,320.6 399.0,323.6 404.2,326.8 409.6,330.1 415.1,333.6 420.8,337.3 426.7,341.1 432.9,345.2 439.2,349.4 445.7,353.8 452.4,358.4 459.4,363.2 466.5,368.2 473.9,373.4 481.6,378.9 489.4,384.5 497.5,390.4 505.8,396.5 514.3,402.8 523.0,409.4 532.0,416.2 541.1,423.2 550.5,430.4 560.0,437.8 569.7,445.5 579.4,453.3 589.3,461.3 599.3,469.5 609.3,477.9 619.4,486.3 629.3,494.9 639.2,503.6 649.0,512.3 658.7,521.1 668.0,529.9 677.2,538.7 686.0,547.4 694.4,556.0 702.4,564.5 709.9,572.9 716.9,581.1 723.4,589.1 729.3,596.9 734.6,604.4 739.3,611.7 743.3,618.7 746.6,625.4 749.3,631.8 751.4,637.9 752.8,643.7 753.6,649.1 753.7,654.3 753.3,659.1 752.3,663.7 750.8,667.9 748.7,671.8 746.2,675.5 743.3,678.9 739.9,682.1 736.1,684.9 732.0,687.6 727.5,690.0 722.8,692.3 717.8,694.3 712.6,696.1 707.1,697.8 701.5,699.2 695.7,700.6 689.7,701.7 683.7,702.8 677.5,703.6 671.2,704.4 664.9,705.1 658.5,705.6 652.1,706.0 645.6,706.4 639.2,706.6 632.7,706.7 626.2,706.8 619.7,706.8 613.3,706.7 606.8,706.5 600.4,706.3 594.1,706.0 587.8,705.6 581.5,705.2 575.3,704.8 569.1,704.2 563.0,703.7 556.9,703.0 550.9,702.4 545.0,701.7 539.1,700.9 533.3,700.1 527.6,699.3 521.9,698.4 516.3,697.5 510.8,696.5 505.3,695.5 499.9,694.5 494.6,693.5 489.4,692.4 484.2,691.3 479.1,690.1 474.1,689.0 469.2,687.8 464.3,686.6 459.5,685.3 454.8,684.1 450.1,682.8 445.5,681.4 441.0,680.1 436.6,678.7 432.2,677.4 427.9,675.9 423.6,674.5 419.4,673.1 415.3,671.6 411.3,670.1 407.3,668.6 403.3,667.1 399.5,665.5 395.7,664.0 391.9,662.4 388.3,660.8 384.7,659.2 381.1,657.6 377.6,655.9 374.1,654.3 370.8,652.6 367.4,650.9 364.2,649.2 360.9,647.5 357.8,645.7 354.6,644.0 351.6,642.2 348.6,640.5 345.6,638.7 342.7,636.9 339.8,635.1 337.0,633.3 334.3,631.4 331.5,629.6 328.9,627.8 326.2,625.9 323.7,624.0 321.1,622.1 318.6,620.2 316.2,618.3 313.8,616.4 311.4,614.5 309.1,612.6 306.8,610.7 304.6,608.7 302.4,606.8 300.2,604.8 298.1,602.8 296.1,600.9 294.0,598.9 292.0,596.9 290.0,594.9 288.1,592.9 286.2,590.9 284.4,588.9 282.5,586.9 280.7,584.8 279.0,582.8 277.3,580.8 275.6,578.7 273.9,576.7 272.3,574.6 270.7,572.6 269.2,570.5 267.6,568.5 266.1,566.4 264.7,564.3 263.2,562.3 261.8,560.2 260.4,558.1 259.1,556.0 257.8,553.9 256.5,551.9 255.2,549.8 254.0,547.7 252.8,545.6 251.6,543.5 250.4,541.4 249.3,539.3 248.2,537.2 247.1,535.1 246.0,533.0 245.0,530.9 244.0,528.8 243.0,526.7 242.1,524.6 241.1,522.5 240.2,520.4 239.3,518.3 238.5,516.2 237.6,514.1 236.8,512.0 236.0,509.9 235.2,507.8 234.4,505.7 233.7,503.6 233.0,501.5 232.3,499.4 231.6,497.3 231.0,495.2 230.3,493.1 229.7,491.1 229.1,489.0 228.5,486.9 228.0,484.8 227.4,482.7 226.9,480.7 226.4,478.6 225.9,476.5 225.4,474.4 225.0,472.4 224.5,470.3 224.1,468.3 223.7,466.2 223.3,464.2 223.0,462.1 222.6,460.1 222.3,458.0 221.9,456.0 221.6,454.0 221.3,451.9 221.1,449.9 220.8,447.9 220.6,445.9 220.3,443.9 220.1,441.9 219.9,439.9 219.7,437.9 219.6,435.9 219.4,433.9 219.3,431.9 219.1,429.9 219.0,428.0 218.9,426.0 218.8,424.1 218.8,422.1 218.7,420.2 218.6,418.2 218.6,416.3 218.6,414.4 218.6,412.5 218.6,410.5 218.6,408.6 218.6,406.7 218.7,404.9 218.7,403.0 218.8,401.1 218.9,399.2 219.0,397.4 219.1,395.5 219.2,393.7 219.3,391.8 219.4,390.0 219.6,388.2 219.8,386.4 219.9,384.5 220.1,382.8 220.3,381.0 220.5,379.2 220.8,377.4 221.0,375.7 221.2,373.9 221.5,372.2 221.8,370.4 222.0,368.7 222.3,367.0 222.6,365.3 223.0,363.6 223.3,361.9 223.6,360.2 224.0,358.6 224.3,356.9 224.7,355.3 225.1,353.7 225.5,352.0 225.9,350.4 226.3,348.8 226.8,347.3 227.2,345.7 227.7,344.1 228.2,342.6 228.6,341.0 229.1,339.5 229.6,338.0 230.2,336.5 230.7,335.0 231.3,333.6 231.8,332.1 232.4,330.7 233.0,329.3 233.6,327.9 234.2,326.5 234.8,325.1 235.5,323.7 236.1,322.4 236.8,321.1 237.5,319.7 238.2,318.4 238.9,317.2 239.6,315.9 240.4,314.7 241.2,313.4 241.9,312.2 242.7,311.0 243.5,309.9 244.4,308.7 245.2,307.6 246.1,306.5 247.0,305.4 247.9,304.3 248.8,303.3 249.7,302.2 250.7,301.2 251.6,300.3 252.6,299.3 253.7,298.4 254.7,297.5 255.8,296.6 256.8,295.7 257.9,294.9 259.1,294.1 260.2,293.3 261.4,292.6 262.6,291.8 263.8,291.2 265.1,290.5 266.4,289.9 267.7,289.3 269.0,288.7 270.4,288.2 271.8,287.7 273.2,287.2 274.7,286.8 276.1,286.4 277.7,286.0 279.2,285.7 280.8,285.4 282.5,285.2 284.1,285.0 285.9,284.8 287.6,284.7 289.4,284.6 291.2,284.6 293.1,284.7 295.1,284.7 297.0,284.9 299.1,285.0 301.1,285.3 303.3,285.6 305.5,285.9 307.7,286.3 310.0,286.8 312.4,287.3 314.8,287.9 317.3,288.6" fill="none" stroke="#4ade80" stroke-width="2.6" stroke-opacity="0.72" stroke-linejoin="round" stroke-linecap="round"/>
<polyline points="315.3,510.6 314.5,509.5 313.7,508.4 312.9,507.3 312.1,506.2 311.3,505.1 310.6,504.0 309.8,502.9 309.1,501.8 308.4,500.7 307.6,499.5 306.9,498.4 306.2,497.3 305.6,496.2 304.9,495.0 304.2,493.9 303.6,492.8 303.0,491.6 302.3,490.5 301.7,489.3 301.1,488.2 300.5,487.0 300.0,485.9 299.4,484.7 298.9,483.6 298.3,482.4 297.8,481.3 297.3,480.1 296.8,479.0 296.3,477.8 295.8,476.7 295.3,475.5 294.9,474.4 294.4,473.2 294.0,472.1 293.6,470.9 293.2,469.8 292.8,468.6 292.4,467.5 292.0,466.3 291.6,465.2 291.3,464.0 290.9,462.9 290.6,461.7 290.3,460.6 290.0,459.4 289.7,458.3 289.4,457.2 289.2,456.0 288.9,454.9 288.7,453.8 288.4,452.7 288.2,451.5 288.0,450.4 287.8,449.3 287.6,448.2 287.4,447.1 287.3,446.0 287.1,444.9 287.0,443.8 286.9,442.7 286.7,441.6 286.6,440.6 286.5,439.5 286.5,438.4 286.4,437.3 286.3,436.3 286.3,435.2 286.3,434.2 286.3,433.1 286.3,432.1 286.3,431.1 286.3,430.1 286.3,429.1 286.3,428.0 286.4,427.0 286.5,426.0 286.6,425.1 286.6,424.1 286.8,423.1 286.9,422.2 287.0,421.2 287.1,420.3 287.3,419.3 287.5,418.4 287.6,417.5 287.8,416.6 288.0,415.7 288.3,414.8 288.5,413.9 288.7,413.0 289.0,412.1 289.3,411.3 289.6,410.5 289.9,409.6 290.2,408.8 290.5,408.0 290.9,407.2 291.2,406.4 291.6,405.7 292.0,404.9 292.4,404.1 292.8,403.4 293.2,402.7 293.6,402.0 294.1,401.3 294.6,400.6 295.0,399.9 295.5,399.3 296.1,398.7 296.6,398.0 297.1,397.4 297.7,396.8 298.3,396.3 298.9,395.7 299.5,395.2 300.1,394.6 300.8,394.1 301.4,393.6 302.1,393.1 302.8,392.7 303.5,392.2 304.2,391.8 305.0,391.4 305.8,391.0 306.5,390.7 307.3,390.3 308.2,390.0 309.0,389.7 309.9,389.4 310.7,389.2 311.6,388.9 312.6,388.7 313.5,388.5 314.5,388.4 315.5,388.2 316.5,388.1 317.5,388.0 318.5,387.9 319.6,387.9 320.7,387.9 321.8,387.9 322.9,387.9 324.1,388.0 325.3,388.1 326.5,388.2 327.7,388.3 329.0,388.5 330.3,388.7 331.6,388.9 332.9,389.2 334.3,389.5 335.7,389.8 337.1,390.2 338.6,390.6 340.1,391.0 341.6,391.5 343.1,392.0 344.7,392.5 346.3,393.1 347.9,393.7 349.5,394.4 351.2,395.1 353.0,395.8 354.7,396.5 356.5,397.4 358.3,398.2 360.2,399.1 362.1,400.0 364.0,401.0 365.9,402.0 367.9,403.1 370.0,404.2 372.0,405.3 374.1,406.5 376.3,407.8 378.4,409.0 380.6,410.4 382.9,411.8 385.2,413.2 387.5,414.7 389.9,416.2 392.3,417.8 394.7,419.5 397.2,421.1 399.7,422.9 402.2,424.7 404.8,426.5 407.4,428.4 410.1,430.4 412.8,432.4 415.5,434.4 418.3,436.6 421.1,438.7 423.9,440.9 426.8,443.2 429.6,445.5 432.6,447.9 435.5,450.4 438.5,452.8 441.5,455.4 444.5,458.0 447.5,460.6 450.6,463.3 453.7,466.0 456.7,468.8 459.8,471.6 462.9,474.5 466.0,477.4 469.1,480.3 472.2,483.3 475.3,486.4 478.4,489.4 481.5,492.5 484.5,495.6 487.5,498.8 490.5,502.0 493.5,505.2 496.4,508.4 499.3,511.6 502.2,514.9 504.9,518.1 507.7,521.4 510.3,524.6 512.9,527.9 515.5,531.2 517.9,534.4 520.3,537.7 522.6,540.9 524.8,544.1 526.9,547.3 528.9,550.5 530.8,553.6 532.6,556.7 534.3,559.8 535.8,562.8 537.3,565.8 538.6,568.7 539.8,571.6 540.9,574.5 541.8,577.3 542.7,580.0 543.4,582.7 543.9,585.3 544.4,587.9 544.7,590.4 544.9,592.8 544.9,595.2 544.8,597.5 544.6,599.7 544.3,601.8 543.8,603.9 543.2,605.9 542.5,607.9 541.7,609.8 540.7,611.6 539.7,613.3 538.5,615.0 537.2,616.5 535.9,618.1 534.4,619.5 532.8,620.9 531.2,622.2 529.4,623.4 527.6,624.6 525.7,625.7 523.7,626.7 521.6,627.7 519.4,628.6 517.2,629.4 514.9,630.2 512.6,630.9 510.2,631.6 507.8,632.2 505.3,632.7 502.7,633.2 500.2,633.6 497.5,634.0 494.9,634.3 492.2,634.6 489.5,634.8 486.7,635.0 483.9,635.1 481.1,635.2 478.3,635.2 475.5,635.2 472.6,635.1 469.8,635.0 466.9,634.8 464.0,634.6 461.1,634.4 458.3,634.1 455.4,633.8 452.5,633.5 449.6,633.1 446.7,632.6 443.8,632.2 440.9,631.7 438.1,631.2 435.2,630.6 432.3,630.0 429.5,629.4 426.7,628.7 423.8,628.0 421.0,627.3 418.2,626.6 415.5,625.8 412.7,625.0 410.0,624.1 407.3,623.3 404.6,622.4 401.9,621.5 399.2,620.6 396.6,619.6 393.9,618.6 391.3,617.6 388.8,616.6 386.2,615.6 383.7,614.5 381.2,613.4 378.7,612.3 376.2,611.2 373.8,610.0 371.4,608.9 369.0,607.7 366.6,606.5 364.3,605.3 361.9,604.0 359.6,602.8 357.4,601.5 355.1,600.2 352.9,598.9 350.7,597.6 348.6,596.3 346.4,594.9 344.3,593.5 342.2,592.2 340.1,590.8 338.1,589.4 336.1,587.9 334.1,586.5 332.1,585.1 330.2,583.6 328.3,582.1 326.4,580.7 324.5,579.2 322.7,577.7 320.9,576.2 319.1,574.6 317.3,573.1 315.6,571.6 313.9,570.0 312.2,568.4 310.5,566.9 308.9,565.3 307.3,563.7 305.7,562.1 304.1,560.5 302.6,558.9 301.0,557.3 299.5,555.6 298.1,554.0 296.6,552.3 295.2,550.7 293.8,549.0 292.4,547.4 291.0,545.7 289.7,544.0 288.4,542.3 287.1,540.7 285.8,539.0 284.6,537.3 283.3,535.6 282.1,533.9 280.9,532.1 279.8,530.4 278.6,528.7 277.5,527.0 276.4,525.3 275.3,523.5 274.3,521.8 273.2,520.1 272.2,518.3 271.2,516.6 270.2,514.8 269.2,513.1 268.3,511.3 267.4,509.6 266.5,507.8 265.6,506.1 264.7,504.3 263.9,502.5 263.0,500.8 262.2,499.0 261.4,497.3 260.7,495.5 259.9,493.7 259.2,492.0 258.4,490.2 257.7,488.4 257.1,486.7 256.4,484.9 255.7,483.1 255.1,481.4 254.5,479.6 253.9,477.8 253.3,476.1 252.7,474.3 252.2,472.6 251.6,470.8 251.1,469.1 250.6,467.3 250.1,465.5 249.7,463.8 249.2,462.0 248.8,460.3 248.3,458.6 247.9,456.8 247.5,455.1 247.2,453.3 246.8,451.6 246.5,449.9 246.1,448.1 245.8,446.4 245.5,444.7 245.2,443.0 244.9,441.3 244.7,439.6 244.4,437.9 244.2,436.2 244.0,434.5 243.8,432.8 243.6,431.1 243.4,429.4 243.2,427.7 243.1,426.1 243.0,424.4 242.8,422.7 242.7,421.1 242.6,419.4 242.6,417.8 242.5,416.2 242.4,414.5 242.4,412.9 242.4,411.3 242.3,409.7 242.3,408.1 242.4,406.5 242.4,404.9 242.4,403.3 242.5,401.7 242.5,400.2 242.6,398.6 242.7,397.0 242.8,395.5 242.9,394.0 243.0,392.4 243.2,390.9 243.3,389.4 243.5,387.9 243.7,386.4 243.9,384.9 244.1,383.5 244.3,382.0 244.5,380.5 244.8,379.1 245.1,377.7 245.3,376.2 245.6,374.8 245.9,373.4 246.2,372.0 246.5,370.6 246.9,369.3 247.2,367.9 247.6,366.6 248.0,365.2 248.4,363.9 248.8,362.6 249.2,361.3 249.6,360.0 250.1,358.7 250.6,357.5 251.0,356.2 251.5,355.0 252.0,353.8 252.6,352.6 253.1,351.4 253.6,350.2 254.2,349.1 254.8,347.9 255.4,346.8 256.0,345.7 256.6,344.6 257.3,343.5 257.9,342.5 258.6,341.4 259.3,340.4 260.0,339.4 260.8,338.4 261.5,337.4 262.3,336.5 263.1,335.6 263.9,334.7 264.7,333.8 265.5,332.9 266.4,332.1 267.3,331.2 268.2,330.4 269.1,329.6 270.0,328.9 271.0,328.2 272.0,327.4 273.0,326.8 274.0,326.1 275.1,325.5 276.2,324.9 277.3,324.3 278.4,323.7 279.5,323.2 280.7,322.7 281.9,322.2 283.2,321.8 284.4,321.4 285.7,321.0 287.0,320.7 288.4,320.4 289.7,320.1 291.2,319.9 292.6,319.6 294.1,319.5 295.6,319.3 297.1,319.2 298.7,319.2 300.3,319.2 302.0,319.2 303.7,319.3 305.4,319.4 307.2,319.5 309.0,319.7 310.9,320.0 312.8,320.3 314.7,320.6 316.7,321.0 318.8,321.5 320.9,322.0 323.0,322.5 325.2,323.1 327.5,323.8 329.8,324.5 332.2,325.3 334.6,326.2 337.1,327.1 339.7,328.1 342.3,329.2 345.0,330.3 347.8,331.5 350.6,332.7 353.5,334.1 356.5,335.5 359.6,337.0 362.7,338.6 366.0,340.3 369.3,342.1 372.7,343.9 376.2,345.9 379.8,347.9 383.6,350.1 387.4,352.3 391.3,354.7 395.3,357.1 399.4,359.7 403.6,362.4 408.0,365.1 412.4,368.1 417.0,371.1 421.7,374.2 426.5,377.5 431.5,380.9 436.5,384.5 441.7,388.1 447.1,392.0 452.5,395.9 458.1,400.0 463.8,404.2 469.6,408.6 475.6,413.1 481.7,417.7 487.9,422.5 494.2,427.4 500.6,432.5 507.1,437.7 513.8,443.1 520.5,448.6 527.3,454.2 534.1,459.9 541.0,465.7 548.0,471.7 554.9,477.8 561.9,483.9 568.9,490.2 575.8,496.5 582.7,502.8 589.5,509.3 596.2,515.7 602.8,522.2 609.2,528.7 615.5,535.2 621.6,541.7 627.4,548.1 633.0,554.5 638.4,560.8 643.5,567.1 648.2,573.2 652.7,579.2 656.8,585.1 660.5,590.9 663.9,596.5 666.9,602.0 669.5,607.3 671.7,612.5 673.5,617.4 674.9,622.2 675.9,626.8 676.5,631.1 676.8,635.3 676.7,639.3 676.2,643.1 675.3,646.7 674.2,650.2 672.7,653.4 670.8,656.4 668.7,659.3 666.3,662.0 663.6,664.5 660.7,666.8 657.6,669.0 654.2,671.1 650.6,672.9 646.9,674.7 642.9,676.3 638.9,677.7 634.6,679.1 630.3,680.3 625.8,681.4 621.2,682.4 616.5,683.2 611.8,684.0 607.0,684.6 602.1,685.2 597.1,685.7 592.2,686.1 587.1,686.4 582.1,686.6 577.0,686.8 572.0,686.9 566.9,686.9 561.8,686.8 556.7,686.7 551.6,686.5 546.6,686.3 541.5,686.0 536.5,685.6 531.5,685.2 526.5,684.7 521.6,684.2 516.7,683.7 511.8,683.1 507.0,682.4 502.2,681.8 497.4,681.0 492.7,680.3 488.1,679.5 483.4,678.6 478.9,677.7 474.3,676.8 469.9,675.9 465.4,674.9 461.1,673.9 456.7,672.9 452.5,671.8 448.2,670.7 444.1,669.6 439.9,668.4 435.9,667.3 431.9,666.1 427.9,664.8 424.0,663.6 420.1,662.3 416.3,661.0 412.6,659.7 408.8,658.4 405.2,657.0 401.6,655.6 398.0,654.2 394.5,652.8 391.1,651.3 387.7,649.9 384.3,648.4 381.0,646.9 377.8,645.4 374.5,643.9 371.4,642.3 368.3,640.7 365.2,639.2 362.2,637.6 359.2,635.9 356.3,634.3 353.4,632.7 350.6,631.0 347.8,629.4 345.0,627.7 342.3,626.0 339.6,624.3 337.0,622.5 334.4,620.8 331.9,619.1 329.4,617.3 326.9,615.5 324.5,613.8 322.1,612.0 319.8,610.2 317.5,608.4 315.2,606.6 313.0,604.7 310.8,602.9 308.7,601.0 306.6,599.2 304.5,597.3 302.4,595.5 300.4,593.6 298.5,591.7 296.5,589.8 294.6,587.9 292.7,586.0 290.9,584.1 289.1,582.1 287.3,580.2 285.6,578.3 283.9,576.3 282.2,574.4 280.6,572.4 278.9,570.5 277.4,568.5 275.8,566.5 274.3,564.6 272.8,562.6 271.3,560.6 269.9,558.6 268.5,556.6 267.1,554.6 265.7,552.6 264.4,550.6 263.1,548.6 261.8,546.6 260.6,544.6 259.3,542.6 258.2,540.6 257.0,538.6 255.8,536.6 254.7,534.5 253.6,532.5 252.5,530.5 251.5,528.5 250.5,526.4 249.5,524.4 248.5,522.4 247.5,520.4 246.6,518.3 245.7,516.3 244.8,514.3 243.9,512.2 243.1,510.2 242.3,508.2 241.4,506.1 240.7,504.1 239.9,502.1 239.2,500.1 238.4,498.0 237.7,496.0 237.1,494.0 236.4,492.0 235.7,489.9 235.1,487.9 234.5,485.9 233.9,483.9 233.4,481.9 232.8,479.9 232.3,477.8 231.7,475.8 231.3,473.8 230.8,471.8 230.3,469.8 229.9,467.8 229.4,465.8 229.0,463.9 228.6,461.9 228.2,459.9 227.9,457.9 227.5,455.9 227.2,454.0 226.9,452.0 226.6,450.0 226.3,448.1 226.0,446.1 225.8,444.1 225.5,442.2 225.3,440.3 225.1,438.3 224.9,436.4 224.7,434.5 224.5,432.5 224.4,430.6 224.2,428.7 224.1,426.8 224.0,424.9 223.9,423.0 223.8,421.1 223.7,419.2 223.7,417.3 223.6,415.5 223.6,413.6 223.6,411.8 223.6,409.9 223.6,408.1 223.6,406.2 223.6,404.4 223.7,402.6 223.7,400.7 223.8,398.9 223.9,397.1 224.0,395.3 224.1,393.5 224.2,391.8 224.3,390.0 224.5,388.2 224.6,386.5 224.8,384.7 225.0,383.0 225.2,381.3 225.4,379.5 225.6,377.8 225.8,376.1 226.0,374.4 226.3,372.8 226.6,371.1 226.8,369.4 227.1,367.8 227.4,366.1 227.7,364.5 228.1,362.9 228.4,361.3 228.8,359.7 229.1,358.1 229.5,356.5 229.9,354.9 230.3,353.4 230.7,351.8 231.1,350.3 231.5,348.8 232.0,347.3 232.5,345.8 232.9,344.3 233.4,342.8 233.9,341.4 234.4,339.9 235.0,338.5 235.5,337.1 236.1,335.7 236.6,334.3 237.2,332.9 237.8,331.6 238.4,330.2 239.0,328.9 239.7,327.6 240.3,326.3 241.0,325.0 241.7,323.8 242.4,322.5 243.1,321.3 243.8,320.1 244.6,318.9 245.3,317.7 246.1,316.6 246.9,315.4 247.7,314.3 248.6,313.2 249.4,312.2 250.3,311.1 251.2,310.1 252.1,309.1 253.0,308.1 253.9,307.1 254.9,306.2 255.9,305.2 256.9,304.3 257.9,303.5 258.9,302.6 260.0,301.8 261.1,301.0 262.2,300.2 263.4,299.5 264.5,298.8 265.7,298.1 266.9,297.4 268.2,296.8 269.4,296.2 270.7,295.6 272.1,295.1 273.4,294.6 274.8,294.1 276.2,293.7 277.7,293.3 279.1,292.9 280.6,292.6 282.2,292.3 283.8,292.1 285.4,291.9 287.1,291.7 288.8,291.6 290.5,291.5 292.3,291.5 294.1,291.5 296.0,291.5 297.9,291.6 299.8,291.8 301.8,292.0 303.9,292.3 306.0,292.6 308.2,292.9 310.4,293.4 312.7,293.9 315.0,294.4 317.4,295.0 319.9,295.7 322.4,296.4 325.0,297.3 327.7,298.1 330.5,299.1 333.3,300.1 336.2,301.3 339.2,302.5 342.3,303.7 345.4,305.1 348.7,306.6 352.1,308.1 355.5,309.8 359.1,311.5 362.7,313.4 366.5,315.3 370.4,317.4 374.4,319.6 378.5,321.9 382.8,324.3 387.2,326.9 391.7,329.6 396.4,332.4 401.2,335.3 406.2,338.4 411.3,341.7 416.6,345.1 422.1,348.6 427.7,352.3 433.5,356.2 439.5,360.2 445.7,364.5 452.0,368.9 458.6,373.5 465.3,378.2 472.2,383.2 479.4,388.4 486.7,393.7 494.2,399.2 501.9,405.0 509.8,410.9 517.8,417.1 526.1,423.4 534.5,430.0 543.0,436.7 551.7,443.6 560.5,450.7 569.4,457.9 578.4,465.3 587.5,472.9 596.6,480.6 605.6,488.4 614.7,496.3 623.6,504.3 632.5,512.3 641.2,520.4 649.7,528.5 657.9,536.5 665.9,544.6 673.6,552.6 681.0,560.4 687.9,568.2 694.4,575.9 700.5,583.4 706.0,590.7 711.0,597.8 715.6,604.7 719.5,611.3 722.9,617.7 725.7,623.9 728.0,629.8 729.6,635.4 730.8,640.7 731.3,645.8 731.4,650.6 730.9,655.1 729.9,659.4 728.5,663.3 726.6,667.1 724.3,670.6 721.5,673.8 718.4,676.8 715.0,679.6 711.2,682.2 707.2,684.5 702.8,686.7 698.2,688.7 693.4,690.5 688.4,692.1 683.3,693.6 677.9,694.9 672.5,696.1 666.9,697.2 661.1,698.1 655.4,698.9 649.5,699.6 643.6,700.1 637.6,700.6 631.6,701.0 625.5,701.3 619.5,701.5 613.4,701.6 607.3,701.6 601.3,701.5 595.2,701.4 589.2,701.2 583.2,701.0 577.2,700.7 571.3,700.3 565.4,699.9 559.5,699.4 553.7,698.9 548.0,698.3 542.3,697.7 536.6,697.0 531.1,696.3 525.5,695.5 520.1,694.7 514.6,693.9 509.3,693.0 504.0,692.1 498.8,691.1 493.6,690.2 488.6,689.1 483.5,688.1 478.6,687.0 473.7,685.9 468.9,684.8 464.1,683.6 459.4,682.4 454.8,681.2 450.2,680.0 445.7,678.7 441.3,677.4 436.9,676.1 432.6,674.8 428.4,673.4 424.2,672.0 420.1,670.6 416.1,669.2 412.1,667.7 408.1,666.3 404.3,664.8 400.5,663.3 396.7,661.8 393.0,660.2 389.4,658.7 385.8,657.1 382.3,655.5 378.9,653.9 375.4,652.3 372.1,650.6 368.8,649.0 365.6,647.3 362.4,645.6 359.2,643.9 356.1,642.2 353.1,640.5 350.1,638.8 347.2,637.0 344.3,635.3 341.4,633.5 338.6,631.7 335.9,629.9 333.2,628.1 330.5,626.3 327.9,624.4 325.4,622.6 322.8,620.7 320.4,618.9 317.9,617.0 315.5,615.1 313.2,613.2 310.9,611.3 308.6,609.4 306.4,607.5 304.2,605.6 302.0,603.6 299.9,601.7 297.8,599.8 295.8,597.8 293.8,595.8 291.8,593.9 289.9,591.9 288.0,589.9 286.2,587.9 284.3,585.9 282.5,583.9 280.8,581.9 279.1,579.9 277.4,577.9 275.7,575.9 274.1,573.8 272.5,571.8 270.9,569.8 269.4,567.7 267.9,565.7 266.4,563.6 265.0,561.6 263.6,559.5 262.2,557.5 260.8,555.4 259.5,553.4 258.2,551.3 257.0,549.2 255.7,547.1 254.5,545.1 253.3,543.0 252.1,540.9 251.0,538.8 249.9,536.8 248.8,534.7 247.7,532.6 246.7,530.5 245.7,528.4 244.7,526.4 243.7,524.3 242.8,522.2 241.8,520.1 241.0,518.0 240.1,515.9 239.2,513.9 238.4,511.8 237.6,509.7 236.8,507.6 236.0,505.5 235.3,503.4 234.5,501.4 233.8,499.3 233.2,497.2 232.5,495.1 231.8,493.1 231.2,491.0 230.6,488.9 230.0,486.8 229.4,484.8 228.9,482.7 228.4,480.7 227.8,478.6 227.3,476.5 226.9,474.5 226.4,472.4 226.0,470.4 225.5,468.4 225.1,466.3 224.7,464.3 224.3,462.2 224.0,460.2 223.6,458.2 223.3,456.2 223.0,454.1 222.7,452.1 222.4,450.1 222.1,448.1 221.9,446.1 221.7,444.1 221.4,442.1 221.2,440.1 221.0,438.2 220.8,436.2 220.7,434.2 220.5,432.2 220.4,430.3 220.3,428.3 220.2,426.4 220.1,424.4 220.0,422.5 219.9,420.6 219.9,418.6 219.8,416.7 219.8,414.8 219.8,412.9 219.8,411.0 219.8,409.1 219.8,407.2 219.8,405.3 219.9,403.5 219.9,401.6 220.0,399.8 220.1,397.9 220.2,396.1 220.3,394.2 220.4,392.4 220.6,390.6 220.7,388.8 220.9,387.0 221.0,385.2 221.2,383.4 221.4,381.6 221.6,379.8 221.8,378.1 222.1,376.3 222.3,374.6 222.5,372.9 222.8,371.1 223.1,369.4 223.4,367.7 223.7,366.0 224.0,364.3 224.3,362.7 224.6,361.0 225.0,359.4 225.3,357.7 225.7,356.1 226.1,354.5 226.5,352.9 226.9,351.3 227.3,349.7 227.8,348.1 228.2,346.5 228.7,345.0 229.1,343.5 229.6,341.9 230.1,340.4 230.6,338.9 231.1,337.5 231.7,336.0 232.2,334.5 232.8,333.1 233.3,331.7 233.9,330.3 234.5,328.9 235.1,327.5 235.8,326.1 236.4,324.8 237.1,323.4 237.7,322.1 238.4,320.8 239.1,319.5 239.8,318.2 240.6,317.0 241.3,315.8 242.1,314.5 242.8,313.4 243.6,312.2 244.4,311.0 245.3,309.9 246.1,308.8 247.0,307.7 247.9,306.6 248.8,305.5 249.7,304.5 250.6,303.5 251.6,302.5 252.5,301.5 253.5,300.6 254.6,299.6 255.6,298.8 256.7,297.9 257.7,297.0 258.8,296.2 260.0,295.4 261.1,294.7 262.3,293.9 263.5,293.2 264.7,292.5 266.0,291.9 267.3,291.3 268.6,290.7 269.9,290.1 271.3,289.6 272.7,289.1 274.1,288.7 275.6,288.2 277.1,287.9 278.6,287.5 280.1,287.2 281.7,286.9 283.4,286.7 285.1,286.5 286.8,286.4 288.5,286.3 290.3,286.2 292.2,286.2 294.1,286.3 296.0,286.4 298.0,286.5 300.0,286.7 302.1,286.9 304.2,287.3 306.4,287.6 308.7,288.0 311.0,288.5 313.3,289.1 315.8,289.7 318.3,290.3 320.8,291.1 323.5,291.9 326.2,292.8 329.0,293.7 331.8,294.8 334.8,295.9 337.8,297.1 340.9,298.4 344.1,299.8 347.5,301.2 350.9,302.8 354.4,304.5 358.0,306.2 361.7,308.1 365.6,310.1 369.5,312.2 373.6,314.4 377.9,316.7 382.2,319.2 386.7,321.8 391.3,324.5 396.1,327.4 401.1,330.4 406.2,333.6 411.4,336.9 416.9,340.4 422.5,344.0 428.3,347.8 434.3,351.8 440.4,355.9 446.8,360.3 453.4,364.8 460.1,369.5 467.1,374.4 474.3,379.6 481.7,384.9 489.3,390.4 497.1,396.1 505.1,402.1 513.3,408.2 521.7,414.6 530.3,421.2 539.1,428.0 548.0,435.0 557.1,442.2 566.3,449.5 575.7,457.1 585.1,464.8 594.6,472.7 604.1,480.7 613.6,488.8 623.0,497.0 632.4,505.3 641.6,513.7 650.7,522.1 659.6,530.5 668.2,538.9 676.5,547.2 684.5,555.5 692.1,563.7 699.2,571.7 705.9,579.6 712.0,587.3 717.7,594.8 722.7,602.0 727.2,609.1 731.1,615.8 734.4,622.3 737.1,628.6 739.1,634.5 740.6,640.2 741.5,645.5 741.8,650.6 741.5,655.3 740.7,659.8 739.4,664.0 737.6,668.0 735.4,671.6 732.7,675.0 729.6,678.2 726.1,681.1 722.3,683.8 718.2,686.3 713.8,688.5 709.1,690.6 704.2,692.5 699.0,694.2 693.7,695.7 688.2,697.1 682.6,698.4 676.8,699.4 670.9,700.4 664.9,701.2 658.9,701.9 652.8,702.5 646.6,703.0 640.4,703.4 634.1,703.7 627.9,703.9 621.6,704.0 615.4,704.1 609.1,704.0 602.9,703.9 596.7,703.7 590.5,703.5 584.3,703.2 578.2,702.8 572.2,702.4 566.2,701.9 560.2,701.4 554.3,700.8 548.4,700.1 542.6,699.5 536.9,698.7 531.2,698.0 525.6,697.2 520.0,696.3 514.5,695.4 509.1,694.5 503.8,693.6 498.5,692.6 493.3,691.6 488.1,690.5 483.0,689.4 478.0,688.3 473.1,687.2 468.2,686.0 463.4,684.8 458.7,683.6 454.0,682.4 449.4,681.1 444.9,679.8 440.4,678.5 436.0,677.1 431.7,675.8 427.4,674.4 423.2,673.0 419.1,671.5 415.0,670.1 411.0,668.6 407.1,667.1 403.2,665.6 399.4,664.1 395.6,662.6 391.9,661.0 388.3,659.4 384.7,657.8 381.1,656.2 377.7,654.6 374.3,653.0 370.9,651.3 367.6,649.6 364.3,647.9 361.1,646.2 358.0,644.5 354.9,642.8 351.9,641.0 348.9,639.3 345.9,637.5 343.0,635.7 340.2,634.0 337.4,632.1 334.7,630.3 332.0,628.5 329.3,626.7 326.7,624.8 324.1,623.0 321.6,621.1 319.1,619.2 316.7,617.3 314.3,615.4 312.0,613.5 309.6,611.6 307.4,609.7 305.2,607.8 303.0,605.8 300.8,603.9 298.7,601.9 296.6,600.0 294.6,598.0 292.6,596.0 290.6,594.0" fill="none" stroke="#4ade80" stroke-width="2.6" stroke-opacity="0.72" stroke-linejoin="round" stroke-linecap="round"/>
<polyline points="345.2,426.0 346.2,426.3 347.2,426.6 348.3,426.9 349.3,427.2 350.3,427.6 351.4,427.9 352.5,428.3 353.6,428.7 354.7,429.2 355.9,429.6 357.0,430.1 358.2,430.6 359.4,431.2 360.6,431.7 361.8,432.3 363.1,432.9 364.3,433.6 365.6,434.2 366.9,434.9 368.2,435.6 369.5,436.4 370.9,437.1 372.2,437.9 373.6,438.7 375.0,439.6 376.4,440.4 377.8,441.3 379.3,442.3 380.7,443.2 382.2,444.2 383.7,445.2 385.2,446.2 386.7,447.3 388.3,448.4 389.8,449.5 391.4,450.7 393.0,451.8 394.6,453.0 396.2,454.3 397.8,455.5 399.4,456.8 401.0,458.1 402.7,459.4 404.3,460.8 406.0,462.2 407.7,463.6 409.4,465.1 411.1,466.5 412.8,468.0 414.5,469.5 416.2,471.1 417.9,472.6 419.6,474.2 421.3,475.8 423.0,477.5 424.7,479.1 426.5,480.8 428.2,482.5 429.9,484.2 431.6,486.0 433.3,487.7 434.9,489.5 436.6,491.3 438.3,493.1 439.9,494.9 441.6,496.8 443.2,498.6 444.8,500.5 446.4,502.3 447.9,504.2 449.5,506.1 451.0,508.0 452.5,509.9 454.0,511.8 455.4,513.8 456.8,515.7 458.2,517.6 459.5,519.5 460.8,521.4 462.1,523.3 463.3,525.3 464.5,527.2 465.7,529.1 466.8,531.0 467.9,532.8 468.9,534.7 469.8,536.6 470.8,538.4 471.6,540.3 472.5,542.1 473.2,543.9 474.0,545.7 474.6,547.4 475.2,549.2 475.8,550.9 476.3,552.6 476.7,554.3 477.1,556.0 477.4,557.6 477.7,559.2 477.9,560.8 478.0,562.3 478.1,563.8 478.2,565.3 478.1,566.8 478.0,568.2 477.9,569.6 477.7,570.9 477.4,572.3 477.1,573.5 476.7,574.8 476.3,576.0 475.8,577.2 475.2,578.3 474.6,579.5 473.9,580.5 473.2,581.6 472.5,582.6 471.6,583.5 470.8,584.5 469.8,585.4 468.9,586.2 467.9,587.0 466.8,587.8 465.7,588.5 464.6,589.2 463.4,589.9 462.1,590.5 460.9,591.1 459.6,591.7 458.2,592.2 456.8,592.7 455.4,593.1 454.0,593.5 452.5,593.9 451.0,594.3 449.5,594.6 447.9,594.8 446.3,595.1 444.7,595.3 443.0,595.4 441.4,595.6 439.7,595.7 438.0,595.8 436.3,595.8 434.6,595.8 432.8,595.8 431.0,595.7 429.3,595.6 427.5,595.5 425.7,595.4 423.8,595.2 422.0,595.0 420.2,594.8 418.3,594.5 416.5,594.3 414.6,593.9 412.8,593.6 410.9,593.2 409.1,592.8 407.2,592.4 405.3,592.0 403.5,591.5 401.6,591.0 399.7,590.5 397.9,590.0 396.0,589.4 394.1,588.9 392.3,588.2 390.4,587.6 388.6,587.0 386.8,586.3 384.9,585.6 383.1,584.9 381.3,584.2 379.5,583.4 377.7,582.7 375.9,581.9 374.1,581.1 372.3,580.2 370.5,579.4 368.8,578.5 367.0,577.7 365.3,576.8 363.6,575.9 361.9,574.9 360.2,574.0 358.5,573.0 356.8,572.1 355.1,571.1 353.5,570.1 351.9,569.1 350.2,568.0 348.6,567.0 347.0,565.9 345.5,564.8 343.9,563.8 342.3,562.7 340.8,561.5 339.3,560.4 337.8,559.3 336.3,558.1 334.8,557.0 333.3,555.8 331.9,554.6 330.4,553.4 329.0,552.2 327.6,551.0 326.2,549.8 324.9,548.6 323.5,547.3 322.2,546.1 320.9,544.8 319.5,543.5 318.3,542.2 317.0,541.0 315.7,539.7 314.5,538.4 313.2,537.0 312.0,535.7 310.8,534.4 309.7,533.1 308.5,531.7 307.3,530.4 306.2,529.0 305.1,527.7 304.0,526.3 302.9,524.9 301.8,523.5 300.8,522.2 299.8,520.8 298.7,519.4 297.7,518.0 296.7,516.6 295.8,515.2 294.8,513.8 293.9,512.3 292.9,510.9 292.0,509.5 291.1,508.1 290.2,506.6 289.4,505.2 288.5,503.8 287.7,502.3 286.9,500.9 286.1,499.4 285.3,498.0 284.5,496.5 283.8,495.1 283.0,493.6 282.3,492.2 281.6,490.7 280.9,489.2 280.2,487.8 279.5,486.3 278.9,484.8 278.2,483.4 277.6,481.9 277.0,480.4 276.4,479.0 275.8,477.5 275.3,476.0 274.7,474.6 274.2,473.1 273.6,471.7 273.1,470.2 272.6,468.7 272.2,467.3 271.7,465.8 271.2,464.3 270.8,462.9 270.4,461.4 270.0,460.0 269.6,458.5 269.2,457.1 268.8,455.6 268.5,454.2 268.1,452.7 267.8,451.3 267.5,449.8 267.2,448.4 266.9,447.0 266.6,445.5 266.3,444.1 266.1,442.7 265.9,441.3 265.6,439.9 265.4,438.5 265.2,437.0 265.0,435.6 264.9,434.2 264.7,432.9 264.6,431.5 264.4,430.1 264.3,428.7 264.2,427.3 264.1,426.0 264.1,424.6 264.0,423.3 263.9,421.9 263.9,420.6 263.9,419.2 263.9,417.9 263.9,416.6 263.9,415.3 263.9,414.0 263.9,412.6 264.0,411.4 264.1,410.1 264.1,408.8 264.2,407.5 264.3,406.3 264.5,405.0 264.6,403.8 264.7,402.5 264.9,401.3 265.1,400.1 265.2,398.9 265.4,397.7 265.7,396.5 265.9,395.3 266.1,394.1 266.4,393.0 266.6,391.8 266.9,390.7 267.2,389.5 267.5,388.4 267.8,387.3 268.2,386.2 268.5,385.1 268.9,384.1 269.3,383.0 269.7,382.0 270.1,380.9 270.5,379.9 270.9,378.9 271.4,377.9 271.8,376.9 272.3,376.0 272.8,375.0 273.3,374.1 273.9,373.2 274.4,372.3 275.0,371.4 275.5,370.5 276.1,369.6 276.7,368.8 277.4,368.0 278.0,367.2 278.7,366.4 279.4,365.6 280.1,364.9 280.8,364.1 281.5,363.4 282.3,362.7 283.0,362.0 283.8,361.4 284.6,360.7 285.5,360.1 286.3,359.5 287.2,359.0 288.1,358.4 289.0,357.9 289.9,357.4 290.9,356.9 291.8,356.4 292.8,356.0 293.9,355.6 294.9,355.2 296.0,354.9 297.1,354.5 298.2,354.2 299.3,354.0 300.5,353.7 301.7,353.5 302.9,353.3 304.2,353.2 305.4,353.1 306.7,353.0 308.1,352.9 309.4,352.9 310.8,352.9 312.3,352.9 313.7,353.0 315.2,353.1 316.7,353.3 318.3,353.5 319.9,353.7 321.5,354.0 323.2,354.3 324.9,354.6 326.6,355.0 328.4,355.5 330.2,355.9 332.1,356.5 334.0,357.0 336.0,357.7 337.9,358.3 340.0,359.0 342.1,359.8 344.2,360.6 346.4,361.5 348.6,362.4 350.9,363.4 353.2,364.4 355.6,365.5 358.0,366.7 360.5,367.9 363.0,369.2 365.6,370.5 368.3,372.0 371.0,373.4 373.8,375.0 376.7,376.6 379.6,378.3 382.5,380.0 385.6,381.9 388.7,383.8 391.8,385.7 395.1,387.8 398.4,389.9 401.8,392.1 405.2,394.4 408.7,396.8 412.3,399.3 416.0,401.8 419.7,404.5 423.6,407.2 427.4,410.0 431.4,412.9 435.4,415.9 439.5,419.0 443.7,422.2 448.0,425.4 452.3,428.8 456.6,432.2 461.1,435.7 465.6,439.4 470.1,443.1 474.8,446.9 479.4,450.8 484.1,454.7 488.9,458.8 493.6,462.9 498.4,467.1 503.3,471.4 508.1,475.8 513.0,480.2 517.8,484.7 522.7,489.2 527.5,493.8 532.3,498.5 537.0,503.2 541.7,507.9 546.3,512.6 550.9,517.4 555.4,522.2 559.7,527.0 564.0,531.8 568.2,536.5 572.2,541.3 576.1,546.0 579.8,550.8 583.3,555.4 586.7,560.0 589.9,564.6 592.9,569.1 595.7,573.6 598.2,577.9 600.6,582.2 602.7,586.4 604.6,590.5 606.3,594.5 607.7,598.4 608.9,602.2 609.9,605.9 610.6,609.4 611.0,612.9 611.3,616.2 611.3,619.4 611.1,622.5 610.6,625.5 609.9,628.3 609.0,631.0 607.9,633.6 606.6,636.1 605.1,638.4 603.4,640.7 601.6,642.8 599.5,644.8 597.3,646.7 595.0,648.5 592.5,650.1 589.8,651.7 587.0,653.2 584.1,654.5 581.1,655.8 578.0,656.9 574.8,658.0 571.4,659.0 568.0,659.9 564.6,660.7 561.0,661.4 557.4,662.1 553.7,662.6 550.0,663.1 546.2,663.5 542.4,663.9 538.6,664.2 534.7,664.4 530.8,664.5 526.9,664.6 523.0,664.6 519.0,664.6 515.0,664.5 511.1,664.4 507.1,664.2 503.1,663.9 499.2,663.6 495.2,663.3 491.3,662.9 487.4,662.5 483.5,662.0 479.6,661.5 475.7,660.9 471.8,660.3 468.0,659.7 464.2,659.0 460.4,658.3 456.6,657.6 452.9,656.8 449.2,656.0 445.5,655.1 441.9,654.2 438.3,653.3 434.7,652.4 431.1,651.4 427.6,650.4 424.2,649.4 420.7,648.4 417.3,647.3 413.9,646.2 410.6,645.1 407.3,643.9 404.0,642.7 400.8,641.5 397.6,640.3 394.5,639.1 391.4,637.8 388.3,636.5 385.3,635.2 382.3,633.9 379.3,632.6 376.4,631.2 373.5,629.8 370.6,628.4 367.8,627.0 365.1,625.6 362.3,624.1 359.6,622.7 357.0,621.2 354.3,619.7 351.7,618.2 349.2,616.6 346.7,615.1 344.2,613.5 341.7,612.0 339.3,610.4 336.9,608.8 334.6,607.2 332.3,605.6 330.0,603.9 327.7,602.3 325.5,600.6 323.4,598.9 321.2,597.3 319.1,595.6 317.0,593.9 315.0,592.2 313.0,590.4 311.0,588.7 309.0,587.0 307.1,585.2 305.2,583.5 303.4,581.7 301.5,579.9 299.7,578.2 298.0,576.4 296.2,574.6 294.5,572.8 292.8,571.0 291.2,569.1 289.6,567.3 288.0,565.5 286.4,563.6 284.9,561.8 283.3,559.9 281.9,558.1 280.4,556.2 279.0,554.4 277.5,552.5 276.2,550.6 274.8,548.7 273.5,546.9 272.2,545.0 270.9,543.1 269.6,541.2 268.4,539.3 267.2,537.4 266.0,535.5 264.9,533.6 263.7,531.7 262.6,529.8 261.5,527.8 260.5,525.9 259.4,524.0 258.4,522.1 257.4,520.2 256.4,518.2 255.4,516.3 254.5,514.4 253.6,512.5 252.7,510.5 251.8,508.6 251.0,506.7 250.1,504.7 249.3,502.8 248.5,500.9 247.8,498.9 247.0,497.0 246.3,495.1 245.6,493.2 244.9,491.2 244.2,489.3 243.5,487.4 242.9,485.4 242.3,483.5 241.7,481.6 241.1,479.7 240.5,477.7 240.0,475.8 239.4,473.9 238.9,472.0 238.4,470.1 237.9,468.2 237.5,466.3 237.0,464.4 236.6,462.5 236.2,460.6 235.8,458.7 235.4,456.8 235.0,454.9 234.7,453.0 234.3,451.1 234.0,449.2 233.7,447.4 233.4,445.5 233.1,443.6 232.9,441.8 232.6,439.9 232.4,438.1 232.2,436.2 232.0,434.4 231.8,432.5 231.6,430.7 231.4,428.9 231.3,427.0 231.1,425.2 231.0,423.4 230.9,421.6 230.8,419.8 230.7,418.0 230.7,416.2 230.6,414.4 230.6,412.6 230.6,410.9 230.5,409.1 230.5,407.3 230.6,405.6 230.6,403.9 230.6,402.1 230.7,400.4 230.7,398.7 230.8,396.9 230.9,395.2 231.0,393.5 231.1,391.9 231.2,390.2 231.4,388.5 231.5,386.8 231.7,385.2 231.9,383.5 232.1,381.9 232.3,380.3 232.5,378.6 232.7,377.0 233.0,375.4 233.2,373.8 233.5,372.2 233.7,370.7 234.0,369.1 234.3,367.6 234.7,366.0 235.0,364.5 235.3,363.0 235.7,361.5 236.0,360.0 236.4,358.5 236.8,357.0 237.2,355.5 237.6,354.1 238.1,352.6 238.5,351.2 239.0,349.8 239.4,348.4 239.9,347.0 240.4,345.7 240.9,344.3 241.5,343.0 242.0,341.6 242.6,340.3 243.1,339.0 243.7,337.7 244.3,336.5 244.9,335.2 245.6,334.0 246.2,332.7 246.9,331.5 247.5,330.3 248.2,329.2 248.9,328.0 249.7,326.9 250.4,325.8 251.2,324.7 251.9,323.6 252.7,322.5 253.5,321.5 254.4,320.5 255.2,319.5 256.1,318.5 256.9,317.5 257.8,316.6 258.8,315.7 259.7,314.8 260.7,313.9 261.7,313.1 262.7,312.2 263.7,311.4 264.7,310.7 265.8,309.9 266.9,309.2 268.0,308.5 269.2,307.9 270.3,307.2 271.5,306.6 272.8,306.0 274.0,305.5 275.3,305.0 276.6,304.5 277.9,304.0 279.3,303.6 280.7,303.2 282.1,302.9 283.6,302.6 285.1,302.3 286.6,302.0 288.2,301.8 289.8,301.7 291.4,301.6 293.1,301.5 294.8,301.4 296.5,301.5 298.3,301.5 300.2,301.6 302.1,301.8 304.0,301.9 306.0,302.2 308.0,302.5 310.1,302.8 312.2,303.3 314.4,303.7 316.7,304.2 319.0,304.8 321.3,305.5 323.7,306.2 326.2,306.9 328.8,307.8 331.4,308.7 334.1,309.7 336.9,310.7 339.7,311.9 342.7,313.1 345.7,314.4 348.8,315.7 351.9,317.2 355.2,318.8 358.6,320.4 362.0,322.1 365.6,324.0 369.3,325.9 373.0,328.0 376.9,330.1 380.9,332.4 385.0,334.8 389.3,337.3 393.7,339.9 398.2,342.6 402.8,345.5 407.6,348.5 412.5,351.6 417.5,354.9 422.7,358.4 428.1,361.9 433.6,365.7 439.3,369.6 445.1,373.6 451.1,377.8 457.3,382.2 463.6,386.7 470.1,391.4 476.8,396.3 483.6,401.4 490.6,406.6 497.8,412.1 505.1,417.7 512.6,423.4 520.2,429.4 528.0,435.5 535.8,441.8 543.8,448.2 551.9,454.8 560.1,461.5 568.3,468.4 576.6,475.4 584.8,482.6 593.1,489.8 601.3,497.1 609.5,504.5 617.6,511.9 625.5,519.4 633.3,526.9 640.8,534.4 648.2,541.9 655.2,549.3 662.0,556.6 668.4,563.9 674.5,571.1 680.2,578.1 685.4,585.0 690.2,591.7 694.6,598.2 698.4,604.5 701.8,610.7 704.7,616.6 707.1,622.3 709.0,627.7 710.4,632.9 711.2,637.9 711.7,642.6 711.6,647.1 711.1,651.3 710.1,655.3 708.7,659.1 706.9,662.6 704.8,666.0 702.3,669.1 699.4,671.9 696.2,674.6 692.7,677.1 689.0,679.4 685.0,681.5 680.8,683.4 676.4,685.2 671.7,686.8 667.0,688.3 662.0,689.6 656.9,690.8 651.7,691.9 646.4,692.8 641.1,693.6 635.6,694.3 630.1,694.9 624.5,695.4 618.8,695.8 613.2,696.2 607.5,696.4 601.8,696.5 596.1,696.6 590.4,696.6 584.7,696.5 579.0,696.4 573.3,696.2 567.7,695.9 562.0,695.6 556.5,695.2 550.9,694.7 545.4,694.2 539.9,693.7 534.5,693.1 529.1,692.5 523.8,691.8 518.5,691.1 513.3,690.3 508.1,689.5 503.0,688.7 497.9,687.8 492.9,686.9 488.0,685.9 483.1,684.9 478.2,683.9 473.5,682.9 468.8,681.8 464.1,680.7 459.5,679.6 455.0,678.4 450.5,677.2 446.1,676.0 441.8,674.8 437.5,673.5 433.3,672.2 429.1,670.9 425.0,669.6 421.0,668.2 417.0,666.8 413.1,665.4 409.2,664.0 405.4,662.6 401.7,661.1 398.0,659.6 394.3,658.1 390.7,656.6 387.2,655.1 383.7,653.5 380.3,652.0 376.9,650.4 373.6,648.8 370.3,647.2 367.1,645.5 364.0,643.9 360.9,642.2 357.8,640.6 354.8,638.9 351.8,637.2 348.9,635.4 346.0,633.7 343.2,632.0 340.4,630.2 337.7,628.5 335.0,626.7 332.4,624.9 329.8,623.1 327.2,621.3 324.7,619.4 322.2,617.6 319.8,615.8 317.4,613.9 315.1,612.1 312.8,610.2 310.5,608.3 308.3,606.4 306.1,604.5 304.0,602.6 301.8,600.7 299.8,598.8 297.7,596.8 295.7,594.9 293.8,593.0 291.8,591.0 289.9,589.0 288.1,587.1 286.3,585.1 284.5,583.1 282.7,581.1 281.0,579.2 279.3,577.2 277.6,575.2 276.0,573.2 274.4,571.2 272.8,569.1 271.3,567.1 269.8,565.1 268.3,563.1 266.9,561.0 265.5,559.0 264.1,557.0 262.7,554.9 261.4,552.9 260.1,550.8 258.8,548.8 257.5,546.8 256.3,544.7 255.1,542.6 253.9,540.6 252.8,538.5 251.7,536.5 250.6,534.4 249.5,532.3 248.5,530.3 247.4,528.2 246.4,526.2 245.5,524.1 244.5,522.0 243.6,520.0 242.7,517.9 241.8,515.8 240.9,513.7 240.1,511.7 239.2,509.6 238.5,507.6 237.7,505.5 236.9,503.4 236.2,501.4 235.5,499.3 234.8,497.2 234.1,495.2 233.4,493.1 232.8,491.1 232.2,489.0 231.6,487.0 231.0,484.9 230.4,482.9 229.9,480.8 229.4,478.8 228.9,476.7 228.4,474.7 227.9,472.7 227.4,470.6 227.0,468.6 226.6,466.6 226.2,464.5 225.8,462.5 225.4,460.5 225.1,458.5 224.7,456.5 224.4,454.5 224.1,452.5 223.8,450.5 223.5,448.5 223.3,446.5 223.0,444.5 222.8,442.5 222.6,440.6 222.4,438.6 222.2,436.6 222.0,434.7 221.8,432.7 221.7,430.8 221.6,428.8 221.4,426.9 221.3,425.0 221.2,423.0 221.2,421.1 221.1,419.2 221.1,417.3 221.0,415.4 221.0,413.5 221.0,411.6 221.0,409.7 221.0,407.9 221.0,406.0 221.1,404.1 221.1,402.3 221.2,400.4 221.3,398.6 221.3,396.8 221.4,394.9 221.6,393.1 221.7,391.3 221.8,389.5 222.0,387.7 222.1,385.9 222.3,384.2 222.5,382.4 222.7,380.6 222.9,378.9 223.1,377.1 223.4,375.4 223.6,373.7 223.9,372.0 224.1,370.3 224.4,368.6 224.7,366.9 225.0,365.2 225.3,363.6 225.7,361.9 226.0,360.3 226.4,358.6 226.7,357.0 227.1,355.4 227.5,353.8 227.9,352.2 228.3,350.7 228.7,349.1 229.2,347.6 229.6,346.0 230.1,344.5 230.6,343.0 231.1,341.5 231.6,340.0 232.1,338.5 232.6,337.1 233.1,335.6 233.7,334.2 234.3,332.8 234.8,331.4 235.4,330.0 236.0,328.6 236.7,327.3 237.3,325.9 238.0,324.6 238.6,323.3 239.3,322.0 240.0,320.7 240.7,319.5 241.4,318.2 242.2,317.0 242.9,315.8 243.7,314.6 244.5,313.4 245.3,312.3 246.1,311.2 247.0,310.0 247.8,309.0 248.7,307.9 249.6,306.8 250.5,305.8 251.5,304.8 252.4,303.8 253.4,302.9 254.4,301.9 255.4,301.0 256.4,300.1 257.5,299.3 258.6,298.4 259.7,297.6 260.8,296.8 262.0,296.1 263.1,295.4 264.3,294.7 265.6,294.0 266.8,293.4 268.1,292.8 269.4,292.2 270.7,291.6 272.1,291.1 273.5,290.6 274.9,290.2 276.4,289.8 277.9,289.4 279.4,289.1 281.0,288.8 282.6,288.5 284.2,288.3 285.9,288.1 287.6,288.0 289.4,287.9 291.1,287.9 293.0,287.9 294.9,287.9 296.8,288.0 298.8,288.2 300.8,288.4 302.9,288.7 305.0,289.0 307.2,289.3 309.5,289.8 311.8,290.3 314.1,290.8 316.6,291.4 319.1,292.1 321.6,292.9 324.3,293.7 327.0,294.6 329.8,295.5 332.6,296.6 335.6,297.7 338.6,298.9 341.7,300.2 344.9,301.6 348.2,303.1 351.6,304.7 355.1,306.3 358.8,308.1 362.5,310.0 366.3,312.0 370.3,314.1 374.4,316.3 378.6,318.7 382.9,321.1 387.4,323.7 392.0,326.4 396.8,329.3 401.7,332.3 406.8,335.5 412.0,338.8 417.4,342.3 423.0,345.9 428.8,349.7 434.7,353.6 440.9,357.8 447.2,362.1 453.7,366.6 460.4,371.3 467.4,376.2 474.5,381.3 481.8,386.6 489.3,392.1 497.1,397.8 505.0,403.7 513.1,409.8 521.5,416.1 530.0,422.7 538.6,429.4 547.5,436.3 556.4,443.4 565.6,450.7 574.8,458.2 584.1,465.8 593.4,473.6 602.8,481.6 612.1,489.6 621.4,497.7 630.7,505.9 639.8,514.2 648.7,522.5 657.4,530.8 665.9,539.1 674.1,547.3 681.9,555.5 689.4,563.6 696.4,571.5 703.0,579.3 709.0,586.9 714.6,594.3 719.6,601.5 724.0,608.5 727.9,615.2 731.1,621.6 733.8,627.8 735.8,633.7 737.3,639.3 738.2,644.6 738.5,649.6 738.3,654.4 737.5,658.8 736.3,663.0 734.5,667.0 732.3,670.6 729.7,674.0 726.7,677.2 723.3,680.1 719.6,682.8 715.5,685.3 711.2,687.5 706.6,689.6 701.7,691.5 696.7,693.2 691.4,694.8 686.0,696.2 680.5,697.4 674.8,698.5 669.0,699.5 663.1,700.3 657.1,701.1 651.0,701.7 644.9,702.2 638.8,702.6 632.6,702.9 626.4,703.1 620.2,703.2 614.0,703.3 607.9,703.3 601.7,703.2 595.5,703.0 589.4,702.8 583.3,702.5 577.2,702.1 571.2,701.7 565.2,701.2 559.3,700.7 553.4,700.1 547.6,699.5 541.8,698.8 536.1,698.1 530.5,697.4 524.9,696.6 519.4,695.7 513.9,694.9 508.5,694.0 503.2,693.0 498.0,692.0 492.8,691.0 487.7,690.0 482.6,688.9 477.6,687.8 472.7,686.7 467.9,685.5 463.1,684.3 458.4,683.1 453.7,681.9 449.1,680.6 444.6,679.3 440.2,678.0 435.8,676.7 431.5,675.3 427.2,673.9 423.1,672.5 418.9,671.1 414.9,669.6 410.9,668.2 407.0,666.7 403.1,665.2 399.3,663.7 395.5,662.1 391.8,660.6 388.2,659.0 384.6,657.4 381.1,655.8 377.6,654.2 374.2,652.6 370.9,650.9 367.6,649.2 364.3,647.6 361.2,645.9 358.0,644.1 354.9,642.4 351.9,640.7 348.9,638.9 346.0,637.2 343.1,635.4 340.3,633.6 337.5,631.8 334.7,630.0 332.0,628.2 329.4,626.3 326.8,624.5 324.2,622.6 321.7,620.8 319.2,618.9 316.8,617.0 314.4,615.1 312.1,613.2 309.8,611.3 307.5,609.4 305.3,607.5 303.1,605.5 300.9,603.6 298.8,601.6 296.8,599.7 294.7,597.7 292.7,595.7 290.8,593.7 288.9,591.8 287.0,589.8 285.1,587.8 283.3,585.8 281.5,583.8 279.8,581.7 278.1,579.7 276.4,577.7 274.7,575.7 273.1,573.6 271.5,571.6 270.0,569.5 268.5,567.5 267.0,565.4 265.5,563.4 264.1,561.3 262.7,559.3 261.3,557.2 260.0,555.1 258.6,553.1 257.3,551.0 256.1,548.9 254.8,546.8 253.6,544.8 252.5,542.7 251.3,540.6 250.2,538.5 249.1,536.4 248.0,534.3 246.9,532.3 245.9,530.2 244.9,528.1 243.9,526.0 242.9,523.9 242.0,521.8 241.1,519.7 240.2,517.6 239.3,515.5 238.5,513.4 237.7,511.4 236.9,509.3 236.1,507.2 235.3,505.1 234.6,503.0 233.9,500.9 233.2,498.8 232.5,496.8 231.8,494.7 231.2,492.6 230.6,490.5 230.0,488.4 229.4,486.4 228.8,484.3 228.3,482.2 227.8,480.2 227.2,478.1 226.8,476.1 226.3,474.0 225.8,471.9 225.4,469.9 225.0,467.8 224.6,465.8 224.2,463.8 223.8,461.7 223.4,459.7 223.1,457.7 222.8,455.6 222.5,453.6 222.2,451.6 221.9,449.6 221.6,447.6 221.4,445.6 221.2,443.6 220.9,441.6 220.7,439.6 220.6,437.6 220.4,435.6 220.2,433.6 220.1,431.7 219.9,429.7 219.8,427.8 219.7,425.8 219.6,423.9 219.6,421.9 219.5,420.0 219.4,418.1 219.4,416.1 219.4,414.2 219.4,412.3 219.4,410.4 219.4,408.5 219.4,406.6 219.5,404.7 219.5,402.9 219.6,401.0 219.6,399.1 219.7,397.3 219.8,395.4 220.0,393.6 220.1,391.8 220.2,390.0 220.4,388.1 220.5,386.3 220.7,384.5 220.9,382.8 221.1,381.0 221.3,379.2 221.5,377.4 221.8,375.7 222.0,374.0 222.3,372.2 222.5,370.5 222.8,368.8 223.1,367.1 223.4,365.4 223.7,363.7 224.0,362.0 224.4,360.4 224.7,358.7 225.1,357.1 225.5,355.4 225.9,353.8 226.3,352.2 226.7,350.6 227.1,349.0 227.5,347.5 228.0,345.9 228.4,344.3 228.9,342.8 229.4,341.3 229.9,339.8 230.4,338.3 230.9,336.8 231.5,335.3 232.0,333.9 232.6,332.4 233.2,331.0 233.7,329.6 234.3,328.2 235.0,326.8 235.6,325.5 236.2,324.1 236.9,322.8 237.6,321.4 238.3,320.1 239.0,318.9 239.7,317.6 240.4,316.3" fill="none" stroke="#4ade80" stroke-width="2.6" stroke-opacity="0.72" stroke-linejoin="round" stroke-linecap="round"/>
<polyline points="349.1,100.0 356.5,103.7 364.4,107.8 372.7,112.2 381.6,116.9 391.0,122.1 401.0,127.8 411.8,133.9 423.2,140.6 435.5,147.8 448.7,155.7 462.9,164.2 478.1,173.6 494.6,183.7 512.3,194.8 531.5,206.8 552.2,219.9 574.6,234.2 598.8,249.7 624.9,266.5 653.1,284.8 683.4,304.5 715.7,325.7 750.2,348.5 786.5,372.7 824.5,398.3 863.8,425.0 903.7,452.6 943.6,480.7 982.7,508.8 1019.9,536.6" fill="none" stroke="#4ade80" stroke-width="2.6" stroke-opacity="0.72" stroke-linejoin="round" stroke-linecap="round"/>
<circle cx="365.3" cy="494.8" r="6.0" fill="#f8fafc" opacity="1.0"/>
<text x="118.0" y="842.0" class="small" text-anchor="start">Generated from a standard-library Python gallery: vector field + nullclines + trajectories.</text>
</svg>
