<svg xmlns="http://www.w3.org/2000/svg" viewBox="0 0 1440 920">
<defs>
  <linearGradient id="bg" x1="0" y1="0" x2="1" y2="1">
    <stop offset="0%" stop-color="#081018"/>
    <stop offset="100%" stop-color="#101d2a"/>
  </linearGradient>
  <style>
    .title { font: 700 34px Helvetica, Arial, sans-serif; fill: #e6edf3; }
    .subtitle { font: 500 18px Helvetica, Arial, sans-serif; fill: #9fb3c8; }
    .label { font: 700 20px Helvetica, Arial, sans-serif; fill: #dce7f3; }
    .small { font: 500 15px Helvetica, Arial, sans-serif; fill: #9fb3c8; }
    .tiny { font: 500 13px Helvetica, Arial, sans-serif; fill: #8aa3bc; }
    .panel { fill: #122131; stroke: #5e7fa3; stroke-width: 2; rx: 18; }
    .grid { stroke: #223445; stroke-width: 1; opacity: 0.8; }
    .axis { stroke: #39516a; stroke-width: 2; }
  </style>
</defs>
<rect width="1440" height="920" fill="url(#bg)"/>
<rect x="70" y="136" width="1310" height="712" rx="18" class="panel"/>
<rect x="900" y="150" width="480" height="678" rx="18" fill="#0f1b28" stroke="#5e7fa3" stroke-width="1.6"/>
<text x="90.0" y="68.0" class="title" text-anchor="start">Van der Pol oscillator</text>
<text x="90.0" y="98.0" class="subtitle"><tspan x="90.0" dy="0">A self-excited oscillator that pushes outward near the origin and damps harder at larger amplitude.</tspan></text>
<text x="928.0" y="188.0" class="label" text-anchor="start">Legend</text>
<text x="966.0" y="234.0" class="small" text-anchor="start">trajectories</text>
<text x="966.0" y="270.0" class="small" text-anchor="start">dx/dt = 0</text>
<text x="966.0" y="306.0" class="small" text-anchor="start">dy/dt = 0</text>
<text x="966.0" y="342.0" class="small" text-anchor="start">fixed points</text>
<circle cx="938.0" cy="226.0" r="8.0" fill="#4ade80" opacity="1.0"/>
<line x1="922.0" y1="262.0" x2="954.0" y2="262.0" stroke="#f97316" stroke-width="4" opacity="1.0"/>
<line x1="922.0" y1="298.0" x2="954.0" y2="298.0" stroke="#60a5fa" stroke-width="4" opacity="1.0"/>
<circle cx="938.0" cy="334.0" r="7.0" fill="#f8fafc" opacity="1.0"/>
<text x="928.0" y="392.0" class="label" text-anchor="start">How to read it</text>
<text x="928.0" y="422.0" class="small"><tspan x="928.0" dy="0">The arrows show the local flow.</tspan></text>
<text x="928.0" y="468.0" class="small"><tspan x="928.0" dy="0">The colored curves show where one derivative</tspan><tspan x="928.0" dy="22.0">vanishes.</tspan></text>
<text x="928.0" y="530.0" class="small"><tspan x="928.0" dy="0">Trajectories reveal whether the fixed point</tspan><tspan x="928.0" dy="22.0">attracts, spirals, or closes into an orbit.</tspan></text>
<text x="928.0" y="620.0" class="label" text-anchor="start">Local fixed-point readout</text>
<text x="928.0" y="650.0" class="small"><tspan x="928.0" dy="0">1. (0.00, 0.00) → unstable spiral</tspan></text>
<text x="946.0" y="670.0" class="tiny"><tspan x="946.0" dy="0">λ = 0.75+0.66i, 0.75-0.66i</tspan></text>
<line x1="118.0" y1="186.0" x2="118.0" y2="788.0" stroke="#223445" stroke-width="1" opacity="1.0"/>
<text x="118.0" y="816.0" class="tiny" text-anchor="middle">-3.0</text>
<line x1="266.4" y1="186.0" x2="266.4" y2="788.0" stroke="#223445" stroke-width="1" opacity="1.0"/>
<text x="266.4" y="816.0" class="tiny" text-anchor="middle">-1.8</text>
<line x1="414.8" y1="186.0" x2="414.8" y2="788.0" stroke="#223445" stroke-width="1" opacity="1.0"/>
<text x="414.8" y="816.0" class="tiny" text-anchor="middle">-0.6</text>
<line x1="563.2" y1="186.0" x2="563.2" y2="788.0" stroke="#223445" stroke-width="1" opacity="1.0"/>
<text x="563.2" y="816.0" class="tiny" text-anchor="middle">0.6</text>
<line x1="711.6" y1="186.0" x2="711.6" y2="788.0" stroke="#223445" stroke-width="1" opacity="1.0"/>
<text x="711.6" y="816.0" class="tiny" text-anchor="middle">1.8</text>
<line x1="860.0" y1="186.0" x2="860.0" y2="788.0" stroke="#223445" stroke-width="1" opacity="1.0"/>
<text x="860.0" y="816.0" class="tiny" text-anchor="middle">3.0</text>
<line x1="118.0" y1="788.0" x2="860.0" y2="788.0" stroke="#223445" stroke-width="1" opacity="1.0"/>
<text x="100.0" y="792.0" class="tiny" text-anchor="end">-4.0</text>
<line x1="118.0" y1="667.6" x2="860.0" y2="667.6" stroke="#223445" stroke-width="1" opacity="1.0"/>
<text x="100.0" y="671.6" class="tiny" text-anchor="end">-2.4</text>
<line x1="118.0" y1="547.2" x2="860.0" y2="547.2" stroke="#223445" stroke-width="1" opacity="1.0"/>
<text x="100.0" y="551.2" class="tiny" text-anchor="end">-0.8</text>
<line x1="118.0" y1="426.8" x2="860.0" y2="426.8" stroke="#223445" stroke-width="1" opacity="1.0"/>
<text x="100.0" y="430.8" class="tiny" text-anchor="end">0.8</text>
<line x1="118.0" y1="306.4" x2="860.0" y2="306.4" stroke="#223445" stroke-width="1" opacity="1.0"/>
<text x="100.0" y="310.4" class="tiny" text-anchor="end">2.4</text>
<line x1="118.0" y1="186.0" x2="860.0" y2="186.0" stroke="#223445" stroke-width="1" opacity="1.0"/>
<text x="100.0" y="190.0" class="tiny" text-anchor="end">4.0</text>
<line x1="489.0" y1="186.0" x2="489.0" y2="788.0" stroke="#39516a" stroke-width="2" opacity="1.0"/>
<line x1="118.0" y1="487.0" x2="860.0" y2="487.0" stroke="#39516a" stroke-width="2" opacity="1.0"/>
<line x1="118.0" y1="788.0" x2="116.8" y2="776.0" stroke="#4b6580" stroke-width="1.4" opacity="0.9"/>
<line x1="118.0" y1="737.8" x2="116.9" y2="725.8" stroke="#4b6580" stroke-width="1.4" opacity="0.9"/>
<line x1="118.0" y1="687.7" x2="116.9" y2="675.7" stroke="#4b6580" stroke-width="1.4" opacity="0.9"/>
<line x1="118.0" y1="637.5" x2="116.9" y2="625.5" stroke="#4b6580" stroke-width="1.4" opacity="0.9"/>
<line x1="118.0" y1="587.3" x2="117.0" y2="575.3" stroke="#4b6580" stroke-width="1.4" opacity="0.9"/>
<line x1="118.0" y1="537.2" x2="117.1" y2="525.1" stroke="#4b6580" stroke-width="1.4" opacity="0.9"/>
<line x1="118.0" y1="487.0" x2="118.0" y2="475.0" stroke="#4b6580" stroke-width="1.4" opacity="0.9"/>
<line x1="118.0" y1="436.8" x2="120.0" y2="448.8" stroke="#4b6580" stroke-width="1.4" opacity="0.9"/>
<line x1="118.0" y1="386.7" x2="119.5" y2="398.6" stroke="#4b6580" stroke-width="1.4" opacity="0.9"/>
<line x1="118.0" y1="336.5" x2="119.4" y2="348.5" stroke="#4b6580" stroke-width="1.4" opacity="0.9"/>
<line x1="118.0" y1="286.3" x2="119.4" y2="298.3" stroke="#4b6580" stroke-width="1.4" opacity="0.9"/>
<line x1="118.0" y1="236.2" x2="119.3" y2="248.2" stroke="#4b6580" stroke-width="1.4" opacity="0.9"/>
<line x1="118.0" y1="186.0" x2="119.3" y2="198.0" stroke="#4b6580" stroke-width="1.4" opacity="0.9"/>
<line x1="164.4" y1="788.0" x2="162.8" y2="776.0" stroke="#4b6580" stroke-width="1.4" opacity="0.9"/>
<line x1="164.4" y1="737.8" x2="162.8" y2="725.9" stroke="#4b6580" stroke-width="1.4" opacity="0.9"/>
<line x1="164.4" y1="687.7" x2="162.9" y2="675.7" stroke="#4b6580" stroke-width="1.4" opacity="0.9"/>
<line x1="164.4" y1="637.5" x2="162.9" y2="625.5" stroke="#4b6580" stroke-width="1.4" opacity="0.9"/>
<line x1="164.4" y1="587.3" x2="163.0" y2="575.3" stroke="#4b6580" stroke-width="1.4" opacity="0.9"/>
<line x1="164.4" y1="537.2" x2="163.2" y2="525.2" stroke="#4b6580" stroke-width="1.4" opacity="0.9"/>
<line x1="164.4" y1="487.0" x2="164.4" y2="475.0" stroke="#4b6580" stroke-width="1.4" opacity="0.9"/>
<line x1="164.4" y1="436.8" x2="167.3" y2="448.6" stroke="#4b6580" stroke-width="1.4" opacity="0.9"/>
<line x1="164.4" y1="386.7" x2="166.5" y2="398.6" stroke="#4b6580" stroke-width="1.4" opacity="0.9"/>
<line x1="164.4" y1="336.5" x2="166.3" y2="348.4" stroke="#4b6580" stroke-width="1.4" opacity="0.9"/>
<line x1="164.4" y1="286.3" x2="166.2" y2="298.3" stroke="#4b6580" stroke-width="1.4" opacity="0.9"/>
<line x1="164.4" y1="236.2" x2="166.2" y2="248.1" stroke="#4b6580" stroke-width="1.4" opacity="0.9"/>
<line x1="164.4" y1="186.0" x2="166.2" y2="198.0" stroke="#4b6580" stroke-width="1.4" opacity="0.9"/>
<line x1="210.8" y1="788.0" x2="208.5" y2="776.1" stroke="#4b6580" stroke-width="1.4" opacity="0.9"/>
<line x1="210.8" y1="737.8" x2="208.6" y2="725.9" stroke="#4b6580" stroke-width="1.4" opacity="0.9"/>
<line x1="210.8" y1="687.7" x2="208.6" y2="675.7" stroke="#4b6580" stroke-width="1.4" opacity="0.9"/>
<line x1="210.8" y1="637.5" x2="208.7" y2="625.6" stroke="#4b6580" stroke-width="1.4" opacity="0.9"/>
<line x1="210.8" y1="587.3" x2="208.9" y2="575.4" stroke="#4b6580" stroke-width="1.4" opacity="0.9"/>
<line x1="210.8" y1="537.2" x2="209.2" y2="525.2" stroke="#4b6580" stroke-width="1.4" opacity="0.9"/>
<line x1="210.8" y1="487.0" x2="210.8" y2="475.0" stroke="#4b6580" stroke-width="1.4" opacity="0.9"/>
<line x1="210.8" y1="436.8" x2="215.9" y2="448.1" stroke="#4b6580" stroke-width="1.4" opacity="0.9"/>
<line x1="210.8" y1="386.7" x2="214.0" y2="398.4" stroke="#4b6580" stroke-width="1.4" opacity="0.9"/>
<line x1="210.8" y1="336.5" x2="213.7" y2="348.3" stroke="#4b6580" stroke-width="1.4" opacity="0.9"/>
<line x1="210.8" y1="286.3" x2="213.5" y2="298.2" stroke="#4b6580" stroke-width="1.4" opacity="0.9"/>
<line x1="210.8" y1="236.2" x2="213.4" y2="248.0" stroke="#4b6580" stroke-width="1.4" opacity="0.9"/>
<line x1="210.8" y1="186.0" x2="213.4" y2="197.8" stroke="#4b6580" stroke-width="1.4" opacity="0.9"/>
<line x1="257.1" y1="788.0" x2="253.7" y2="776.3" stroke="#4b6580" stroke-width="1.4" opacity="0.9"/>
<line x1="257.1" y1="737.8" x2="253.8" y2="726.1" stroke="#4b6580" stroke-width="1.4" opacity="0.9"/>
<line x1="257.1" y1="687.7" x2="253.9" y2="675.9" stroke="#4b6580" stroke-width="1.4" opacity="0.9"/>
<line x1="257.1" y1="637.5" x2="254.0" y2="625.7" stroke="#4b6580" stroke-width="1.4" opacity="0.9"/>
<line x1="257.1" y1="587.3" x2="254.3" y2="575.5" stroke="#4b6580" stroke-width="1.4" opacity="0.9"/>
<line x1="257.1" y1="537.2" x2="254.9" y2="525.3" stroke="#4b6580" stroke-width="1.4" opacity="0.9"/>
<line x1="257.1" y1="487.0" x2="257.1" y2="475.0" stroke="#4b6580" stroke-width="1.4" opacity="0.9"/>
<line x1="257.1" y1="436.8" x2="267.8" y2="445.2" stroke="#4b6580" stroke-width="1.4" opacity="0.9"/>
<line x1="257.1" y1="386.7" x2="262.9" y2="397.8" stroke="#4b6580" stroke-width="1.4" opacity="0.9"/>
<line x1="257.1" y1="336.5" x2="262.1" y2="347.9" stroke="#4b6580" stroke-width="1.4" opacity="0.9"/>
<line x1="257.1" y1="286.3" x2="261.7" y2="297.8" stroke="#4b6580" stroke-width="1.4" opacity="0.9"/>
<line x1="257.1" y1="236.2" x2="261.5" y2="247.7" stroke="#4b6580" stroke-width="1.4" opacity="0.9"/>
<line x1="257.1" y1="186.0" x2="261.4" y2="197.5" stroke="#4b6580" stroke-width="1.4" opacity="0.9"/>
<line x1="303.5" y1="788.0" x2="297.5" y2="777.0" stroke="#4b6580" stroke-width="1.4" opacity="0.9"/>
<line x1="303.5" y1="737.8" x2="297.6" y2="726.8" stroke="#4b6580" stroke-width="1.4" opacity="0.9"/>
<line x1="303.5" y1="687.7" x2="297.9" y2="676.5" stroke="#4b6580" stroke-width="1.4" opacity="0.9"/>
<line x1="303.5" y1="637.5" x2="298.2" y2="626.2" stroke="#4b6580" stroke-width="1.4" opacity="0.9"/>
<line x1="303.5" y1="587.3" x2="298.8" y2="575.9" stroke="#4b6580" stroke-width="1.4" opacity="0.9"/>
<line x1="303.5" y1="537.2" x2="300.0" y2="525.5" stroke="#4b6580" stroke-width="1.4" opacity="0.9"/>
<line x1="303.5" y1="487.0" x2="303.5" y2="475.0" stroke="#4b6580" stroke-width="1.4" opacity="0.9"/>
<line x1="303.5" y1="436.8" x2="317.4" y2="432.6" stroke="#4b6580" stroke-width="1.4" opacity="0.9"/>
<line x1="303.5" y1="386.7" x2="315.4" y2="393.9" stroke="#4b6580" stroke-width="1.4" opacity="0.9"/>
<line x1="303.5" y1="336.5" x2="313.4" y2="345.5" stroke="#4b6580" stroke-width="1.4" opacity="0.9"/>
<line x1="303.5" y1="286.3" x2="312.5" y2="295.9" stroke="#4b6580" stroke-width="1.4" opacity="0.9"/>
<line x1="303.5" y1="236.2" x2="312.0" y2="246.0" stroke="#4b6580" stroke-width="1.4" opacity="0.9"/>
<line x1="303.5" y1="186.0" x2="311.7" y2="196.0" stroke="#4b6580" stroke-width="1.4" opacity="0.9"/>
<line x1="349.9" y1="788.0" x2="337.6" y2="781.2" stroke="#4b6580" stroke-width="1.4" opacity="0.9"/>
<line x1="349.9" y1="737.8" x2="337.9" y2="730.7" stroke="#4b6580" stroke-width="1.4" opacity="0.9"/>
<line x1="349.9" y1="687.7" x2="338.4" y2="680.0" stroke="#4b6580" stroke-width="1.4" opacity="0.9"/>
<line x1="349.9" y1="637.5" x2="339.2" y2="629.2" stroke="#4b6580" stroke-width="1.4" opacity="0.9"/>
<line x1="349.9" y1="587.3" x2="340.6" y2="578.0" stroke="#4b6580" stroke-width="1.4" opacity="0.9"/>
<line x1="349.9" y1="537.2" x2="343.5" y2="526.3" stroke="#4b6580" stroke-width="1.4" opacity="0.9"/>
<line x1="349.9" y1="487.0" x2="349.9" y2="475.0" stroke="#4b6580" stroke-width="1.4" opacity="0.9"/>
<line x1="349.9" y1="436.8" x2="359.0" y2="427.3" stroke="#4b6580" stroke-width="1.4" opacity="0.9"/>
<line x1="349.9" y1="386.7" x2="363.4" y2="381.8" stroke="#4b6580" stroke-width="1.4" opacity="0.9"/>
<line x1="349.9" y1="336.5" x2="364.5" y2="334.6" stroke="#4b6580" stroke-width="1.4" opacity="0.9"/>
<line x1="349.9" y1="286.3" x2="364.7" y2="286.1" stroke="#4b6580" stroke-width="1.4" opacity="0.9"/>
<line x1="349.9" y1="236.2" x2="364.7" y2="236.9" stroke="#4b6580" stroke-width="1.4" opacity="0.9"/>
<line x1="349.9" y1="186.0" x2="364.6" y2="187.4" stroke="#4b6580" stroke-width="1.4" opacity="0.9"/>
<line x1="396.2" y1="788.0" x2="382.8" y2="793.1" stroke="#4b6580" stroke-width="1.4" opacity="0.9"/>
<line x1="396.2" y1="737.8" x2="382.6" y2="742.6" stroke="#4b6580" stroke-width="1.4" opacity="0.9"/>
<line x1="396.2" y1="687.7" x2="382.4" y2="691.9" stroke="#4b6580" stroke-width="1.4" opacity="0.9"/>
<line x1="396.2" y1="637.5" x2="382.0" y2="640.8" stroke="#4b6580" stroke-width="1.4" opacity="0.9"/>
<line x1="396.2" y1="587.3" x2="381.5" y2="588.5" stroke="#4b6580" stroke-width="1.4" opacity="0.9"/>
<line x1="396.2" y1="537.2" x2="382.8" y2="532.1" stroke="#4b6580" stroke-width="1.4" opacity="0.9"/>
<line x1="396.2" y1="487.0" x2="396.2" y2="475.0" stroke="#4b6580" stroke-width="1.4" opacity="0.9"/>
<line x1="396.2" y1="436.8" x2="403.5" y2="426.3" stroke="#4b6580" stroke-width="1.4" opacity="0.9"/>
<line x1="396.2" y1="386.7" x2="405.7" y2="377.4" stroke="#4b6580" stroke-width="1.4" opacity="0.9"/>
<line x1="396.2" y1="336.5" x2="406.6" y2="327.9" stroke="#4b6580" stroke-width="1.4" opacity="0.9"/>
<line x1="396.2" y1="286.3" x2="407.1" y2="278.1" stroke="#4b6580" stroke-width="1.4" opacity="0.9"/>
<line x1="396.2" y1="236.2" x2="407.4" y2="228.2" stroke="#4b6580" stroke-width="1.4" opacity="0.9"/>
<line x1="396.2" y1="186.0" x2="407.6" y2="178.2" stroke="#4b6580" stroke-width="1.4" opacity="0.9"/>
<line x1="442.6" y1="788.0" x2="433.1" y2="797.2" stroke="#4b6580" stroke-width="1.4" opacity="0.9"/>
<line x1="442.6" y1="737.8" x2="433.0" y2="747.0" stroke="#4b6580" stroke-width="1.4" opacity="0.9"/>
<line x1="442.6" y1="687.7" x2="432.9" y2="696.7" stroke="#4b6580" stroke-width="1.4" opacity="0.9"/>
<line x1="442.6" y1="637.5" x2="432.7" y2="646.4" stroke="#4b6580" stroke-width="1.4" opacity="0.9"/>
<line x1="442.6" y1="587.3" x2="432.2" y2="595.9" stroke="#4b6580" stroke-width="1.4" opacity="0.9"/>
<line x1="442.6" y1="537.2" x2="430.6" y2="544.2" stroke="#4b6580" stroke-width="1.4" opacity="0.9"/>
<line x1="442.6" y1="487.0" x2="442.6" y2="475.0" stroke="#4b6580" stroke-width="1.4" opacity="0.9"/>
<line x1="442.6" y1="436.8" x2="449.7" y2="426.2" stroke="#4b6580" stroke-width="1.4" opacity="0.9"/>
<line x1="442.6" y1="386.7" x2="450.6" y2="376.5" stroke="#4b6580" stroke-width="1.4" opacity="0.9"/>
<line x1="442.6" y1="336.5" x2="450.9" y2="326.5" stroke="#4b6580" stroke-width="1.4" opacity="0.9"/>
<line x1="442.6" y1="286.3" x2="451.1" y2="276.5" stroke="#4b6580" stroke-width="1.4" opacity="0.9"/>
<line x1="442.6" y1="236.2" x2="451.2" y2="226.4" stroke="#4b6580" stroke-width="1.4" opacity="0.9"/>
<line x1="442.6" y1="186.0" x2="451.3" y2="176.2" stroke="#4b6580" stroke-width="1.4" opacity="0.9"/>
<line x1="489.0" y1="788.0" x2="480.8" y2="798.0" stroke="#4b6580" stroke-width="1.4" opacity="0.9"/>
<line x1="489.0" y1="737.8" x2="480.8" y2="747.9" stroke="#4b6580" stroke-width="1.4" opacity="0.9"/>
<line x1="489.0" y1="687.7" x2="480.8" y2="697.7" stroke="#4b6580" stroke-width="1.4" opacity="0.9"/>
<line x1="489.0" y1="637.5" x2="480.8" y2="647.5" stroke="#4b6580" stroke-width="1.4" opacity="0.9"/>
<line x1="489.0" y1="587.3" x2="480.8" y2="597.4" stroke="#4b6580" stroke-width="1.4" opacity="0.9"/>
<line x1="489.0" y1="537.2" x2="480.8" y2="547.2" stroke="#4b6580" stroke-width="1.4" opacity="0.9"/>
<line x1="489.0" y1="436.8" x2="497.2" y2="426.8" stroke="#4b6580" stroke-width="1.4" opacity="0.9"/>
<line x1="489.0" y1="386.7" x2="497.2" y2="376.6" stroke="#4b6580" stroke-width="1.4" opacity="0.9"/>
<line x1="489.0" y1="336.5" x2="497.2" y2="326.5" stroke="#4b6580" stroke-width="1.4" opacity="0.9"/>
<line x1="489.0" y1="286.3" x2="497.2" y2="276.3" stroke="#4b6580" stroke-width="1.4" opacity="0.9"/>
<line x1="489.0" y1="236.2" x2="497.2" y2="226.1" stroke="#4b6580" stroke-width="1.4" opacity="0.9"/>
<line x1="489.0" y1="186.0" x2="497.2" y2="176.0" stroke="#4b6580" stroke-width="1.4" opacity="0.9"/>
<line x1="535.4" y1="788.0" x2="526.7" y2="797.8" stroke="#4b6580" stroke-width="1.4" opacity="0.9"/>
<line x1="535.4" y1="737.8" x2="526.8" y2="747.6" stroke="#4b6580" stroke-width="1.4" opacity="0.9"/>
<line x1="535.4" y1="687.7" x2="526.9" y2="697.5" stroke="#4b6580" stroke-width="1.4" opacity="0.9"/>
<line x1="535.4" y1="637.5" x2="527.1" y2="647.5" stroke="#4b6580" stroke-width="1.4" opacity="0.9"/>
<line x1="535.4" y1="587.3" x2="527.4" y2="597.5" stroke="#4b6580" stroke-width="1.4" opacity="0.9"/>
<line x1="535.4" y1="537.2" x2="528.3" y2="547.8" stroke="#4b6580" stroke-width="1.4" opacity="0.9"/>
<line x1="535.4" y1="487.0" x2="535.4" y2="499.0" stroke="#4b6580" stroke-width="1.4" opacity="0.9"/>
<line x1="535.4" y1="436.8" x2="547.4" y2="429.8" stroke="#4b6580" stroke-width="1.4" opacity="0.9"/>
<line x1="535.4" y1="386.7" x2="545.8" y2="378.1" stroke="#4b6580" stroke-width="1.4" opacity="0.9"/>
<line x1="535.4" y1="336.5" x2="545.3" y2="327.6" stroke="#4b6580" stroke-width="1.4" opacity="0.9"/>
<line x1="535.4" y1="286.3" x2="545.1" y2="277.3" stroke="#4b6580" stroke-width="1.4" opacity="0.9"/>
<line x1="535.4" y1="236.2" x2="545.0" y2="227.0" stroke="#4b6580" stroke-width="1.4" opacity="0.9"/>
<line x1="535.4" y1="186.0" x2="544.9" y2="176.8" stroke="#4b6580" stroke-width="1.4" opacity="0.9"/>
<line x1="581.8" y1="788.0" x2="570.4" y2="795.8" stroke="#4b6580" stroke-width="1.4" opacity="0.9"/>
<line x1="581.8" y1="737.8" x2="570.6" y2="745.8" stroke="#4b6580" stroke-width="1.4" opacity="0.9"/>
<line x1="581.8" y1="687.7" x2="570.9" y2="695.9" stroke="#4b6580" stroke-width="1.4" opacity="0.9"/>
<line x1="581.8" y1="637.5" x2="571.4" y2="646.1" stroke="#4b6580" stroke-width="1.4" opacity="0.9"/>
<line x1="581.8" y1="587.3" x2="572.3" y2="596.6" stroke="#4b6580" stroke-width="1.4" opacity="0.9"/>
<line x1="581.8" y1="537.2" x2="574.5" y2="547.7" stroke="#4b6580" stroke-width="1.4" opacity="0.9"/>
<line x1="581.8" y1="487.0" x2="581.8" y2="499.0" stroke="#4b6580" stroke-width="1.4" opacity="0.9"/>
<line x1="581.8" y1="436.8" x2="595.2" y2="441.9" stroke="#4b6580" stroke-width="1.4" opacity="0.9"/>
<line x1="581.8" y1="386.7" x2="596.5" y2="385.5" stroke="#4b6580" stroke-width="1.4" opacity="0.9"/>
<line x1="581.8" y1="336.5" x2="596.0" y2="333.2" stroke="#4b6580" stroke-width="1.4" opacity="0.9"/>
<line x1="581.8" y1="286.3" x2="595.6" y2="282.1" stroke="#4b6580" stroke-width="1.4" opacity="0.9"/>
<line x1="581.8" y1="236.2" x2="595.4" y2="231.4" stroke="#4b6580" stroke-width="1.4" opacity="0.9"/>
<line x1="581.8" y1="186.0" x2="595.2" y2="180.9" stroke="#4b6580" stroke-width="1.4" opacity="0.9"/>
<line x1="628.1" y1="788.0" x2="613.4" y2="786.6" stroke="#4b6580" stroke-width="1.4" opacity="0.9"/>
<line x1="628.1" y1="737.8" x2="613.3" y2="737.1" stroke="#4b6580" stroke-width="1.4" opacity="0.9"/>
<line x1="628.1" y1="687.7" x2="613.3" y2="687.9" stroke="#4b6580" stroke-width="1.4" opacity="0.9"/>
<line x1="628.1" y1="637.5" x2="613.5" y2="639.4" stroke="#4b6580" stroke-width="1.4" opacity="0.9"/>
<line x1="628.1" y1="587.3" x2="614.6" y2="592.2" stroke="#4b6580" stroke-width="1.4" opacity="0.9"/>
<line x1="628.1" y1="537.2" x2="619.0" y2="546.7" stroke="#4b6580" stroke-width="1.4" opacity="0.9"/>
<line x1="628.1" y1="487.0" x2="628.1" y2="499.0" stroke="#4b6580" stroke-width="1.4" opacity="0.9"/>
<line x1="628.1" y1="436.8" x2="634.5" y2="447.7" stroke="#4b6580" stroke-width="1.4" opacity="0.9"/>
<line x1="628.1" y1="386.7" x2="637.4" y2="396.0" stroke="#4b6580" stroke-width="1.4" opacity="0.9"/>
<line x1="628.1" y1="336.5" x2="638.8" y2="344.8" stroke="#4b6580" stroke-width="1.4" opacity="0.9"/>
<line x1="628.1" y1="286.3" x2="639.6" y2="294.0" stroke="#4b6580" stroke-width="1.4" opacity="0.9"/>
<line x1="628.1" y1="236.2" x2="640.1" y2="243.3" stroke="#4b6580" stroke-width="1.4" opacity="0.9"/>
<line x1="628.1" y1="186.0" x2="640.4" y2="192.8" stroke="#4b6580" stroke-width="1.4" opacity="0.9"/>
<line x1="674.5" y1="788.0" x2="666.3" y2="778.0" stroke="#4b6580" stroke-width="1.4" opacity="0.9"/>
<line x1="674.5" y1="737.8" x2="666.0" y2="728.0" stroke="#4b6580" stroke-width="1.4" opacity="0.9"/>
<line x1="674.5" y1="687.7" x2="665.5" y2="678.1" stroke="#4b6580" stroke-width="1.4" opacity="0.9"/>
<line x1="674.5" y1="637.5" x2="664.6" y2="628.5" stroke="#4b6580" stroke-width="1.4" opacity="0.9"/>
<line x1="674.5" y1="587.3" x2="662.6" y2="580.1" stroke="#4b6580" stroke-width="1.4" opacity="0.9"/>
<line x1="674.5" y1="537.2" x2="660.6" y2="541.4" stroke="#4b6580" stroke-width="1.4" opacity="0.9"/>
<line x1="674.5" y1="487.0" x2="674.5" y2="499.0" stroke="#4b6580" stroke-width="1.4" opacity="0.9"/>
<line x1="674.5" y1="436.8" x2="678.0" y2="448.5" stroke="#4b6580" stroke-width="1.4" opacity="0.9"/>
<line x1="674.5" y1="386.7" x2="679.2" y2="398.1" stroke="#4b6580" stroke-width="1.4" opacity="0.9"/>
<line x1="674.5" y1="336.5" x2="679.8" y2="347.8" stroke="#4b6580" stroke-width="1.4" opacity="0.9"/>
<line x1="674.5" y1="286.3" x2="680.1" y2="297.5" stroke="#4b6580" stroke-width="1.4" opacity="0.9"/>
<line x1="674.5" y1="236.2" x2="680.4" y2="247.2" stroke="#4b6580" stroke-width="1.4" opacity="0.9"/>
<line x1="674.5" y1="186.0" x2="680.5" y2="197.0" stroke="#4b6580" stroke-width="1.4" opacity="0.9"/>
<line x1="720.9" y1="788.0" x2="716.6" y2="776.5" stroke="#4b6580" stroke-width="1.4" opacity="0.9"/>
<line x1="720.9" y1="737.8" x2="716.5" y2="726.3" stroke="#4b6580" stroke-width="1.4" opacity="0.9"/>
<line x1="720.9" y1="687.7" x2="716.3" y2="676.2" stroke="#4b6580" stroke-width="1.4" opacity="0.9"/>
<line x1="720.9" y1="637.5" x2="715.9" y2="626.1" stroke="#4b6580" stroke-width="1.4" opacity="0.9"/>
<line x1="720.9" y1="587.3" x2="715.1" y2="576.2" stroke="#4b6580" stroke-width="1.4" opacity="0.9"/>
<line x1="720.9" y1="537.2" x2="710.2" y2="528.8" stroke="#4b6580" stroke-width="1.4" opacity="0.9"/>
<line x1="720.9" y1="487.0" x2="720.9" y2="499.0" stroke="#4b6580" stroke-width="1.4" opacity="0.9"/>
<line x1="720.9" y1="436.8" x2="723.1" y2="448.7" stroke="#4b6580" stroke-width="1.4" opacity="0.9"/>
<line x1="720.9" y1="386.7" x2="723.7" y2="398.5" stroke="#4b6580" stroke-width="1.4" opacity="0.9"/>
<line x1="720.9" y1="336.5" x2="724.0" y2="348.3" stroke="#4b6580" stroke-width="1.4" opacity="0.9"/>
<line x1="720.9" y1="286.3" x2="724.1" y2="298.1" stroke="#4b6580" stroke-width="1.4" opacity="0.9"/>
<line x1="720.9" y1="236.2" x2="724.2" y2="247.9" stroke="#4b6580" stroke-width="1.4" opacity="0.9"/>
<line x1="720.9" y1="186.0" x2="724.3" y2="197.7" stroke="#4b6580" stroke-width="1.4" opacity="0.9"/>
<line x1="767.2" y1="788.0" x2="764.6" y2="776.2" stroke="#4b6580" stroke-width="1.4" opacity="0.9"/>
<line x1="767.2" y1="737.8" x2="764.6" y2="726.0" stroke="#4b6580" stroke-width="1.4" opacity="0.9"/>
<line x1="767.2" y1="687.7" x2="764.5" y2="675.8" stroke="#4b6580" stroke-width="1.4" opacity="0.9"/>
<line x1="767.2" y1="637.5" x2="764.3" y2="625.7" stroke="#4b6580" stroke-width="1.4" opacity="0.9"/>
<line x1="767.2" y1="587.3" x2="764.0" y2="575.6" stroke="#4b6580" stroke-width="1.4" opacity="0.9"/>
<line x1="767.2" y1="537.2" x2="762.1" y2="525.9" stroke="#4b6580" stroke-width="1.4" opacity="0.9"/>
<line x1="767.2" y1="487.0" x2="767.2" y2="499.0" stroke="#4b6580" stroke-width="1.4" opacity="0.9"/>
<line x1="767.2" y1="436.8" x2="768.8" y2="448.8" stroke="#4b6580" stroke-width="1.4" opacity="0.9"/>
<line x1="767.2" y1="386.7" x2="769.1" y2="398.6" stroke="#4b6580" stroke-width="1.4" opacity="0.9"/>
<line x1="767.2" y1="336.5" x2="769.3" y2="348.4" stroke="#4b6580" stroke-width="1.4" opacity="0.9"/>
<line x1="767.2" y1="286.3" x2="769.4" y2="298.3" stroke="#4b6580" stroke-width="1.4" opacity="0.9"/>
<line x1="767.2" y1="236.2" x2="769.4" y2="248.1" stroke="#4b6580" stroke-width="1.4" opacity="0.9"/>
<line x1="767.2" y1="186.0" x2="769.5" y2="197.9" stroke="#4b6580" stroke-width="1.4" opacity="0.9"/>
<line x1="813.6" y1="788.0" x2="811.8" y2="776.0" stroke="#4b6580" stroke-width="1.4" opacity="0.9"/>
<line x1="813.6" y1="737.8" x2="811.8" y2="725.9" stroke="#4b6580" stroke-width="1.4" opacity="0.9"/>
<line x1="813.6" y1="687.7" x2="811.8" y2="675.7" stroke="#4b6580" stroke-width="1.4" opacity="0.9"/>
<line x1="813.6" y1="637.5" x2="811.7" y2="625.6" stroke="#4b6580" stroke-width="1.4" opacity="0.9"/>
<line x1="813.6" y1="587.3" x2="811.5" y2="575.4" stroke="#4b6580" stroke-width="1.4" opacity="0.9"/>
<line x1="813.6" y1="537.2" x2="810.7" y2="525.4" stroke="#4b6580" stroke-width="1.4" opacity="0.9"/>
<line x1="813.6" y1="487.0" x2="813.6" y2="499.0" stroke="#4b6580" stroke-width="1.4" opacity="0.9"/>
<line x1="813.6" y1="436.8" x2="814.8" y2="448.8" stroke="#4b6580" stroke-width="1.4" opacity="0.9"/>
<line x1="813.6" y1="386.7" x2="815.0" y2="398.7" stroke="#4b6580" stroke-width="1.4" opacity="0.9"/>
<line x1="813.6" y1="336.5" x2="815.1" y2="348.5" stroke="#4b6580" stroke-width="1.4" opacity="0.9"/>
<line x1="813.6" y1="286.3" x2="815.1" y2="298.3" stroke="#4b6580" stroke-width="1.4" opacity="0.9"/>
<line x1="813.6" y1="236.2" x2="815.2" y2="248.1" stroke="#4b6580" stroke-width="1.4" opacity="0.9"/>
<line x1="813.6" y1="186.0" x2="815.2" y2="198.0" stroke="#4b6580" stroke-width="1.4" opacity="0.9"/>
<line x1="860.0" y1="788.0" x2="858.7" y2="776.0" stroke="#4b6580" stroke-width="1.4" opacity="0.9"/>
<line x1="860.0" y1="737.8" x2="858.7" y2="725.8" stroke="#4b6580" stroke-width="1.4" opacity="0.9"/>
<line x1="860.0" y1="687.7" x2="858.6" y2="675.7" stroke="#4b6580" stroke-width="1.4" opacity="0.9"/>
<line x1="860.0" y1="637.5" x2="858.6" y2="625.5" stroke="#4b6580" stroke-width="1.4" opacity="0.9"/>
<line x1="860.0" y1="587.3" x2="858.5" y2="575.4" stroke="#4b6580" stroke-width="1.4" opacity="0.9"/>
<line x1="860.0" y1="537.2" x2="858.0" y2="525.2" stroke="#4b6580" stroke-width="1.4" opacity="0.9"/>
<line x1="860.0" y1="487.0" x2="860.0" y2="499.0" stroke="#4b6580" stroke-width="1.4" opacity="0.9"/>
<line x1="860.0" y1="436.8" x2="860.9" y2="448.9" stroke="#4b6580" stroke-width="1.4" opacity="0.9"/>
<line x1="860.0" y1="386.7" x2="861.0" y2="398.7" stroke="#4b6580" stroke-width="1.4" opacity="0.9"/>
<line x1="860.0" y1="336.5" x2="861.1" y2="348.5" stroke="#4b6580" stroke-width="1.4" opacity="0.9"/>
<line x1="860.0" y1="286.3" x2="861.1" y2="298.3" stroke="#4b6580" stroke-width="1.4" opacity="0.9"/>
<line x1="860.0" y1="236.2" x2="861.1" y2="248.2" stroke="#4b6580" stroke-width="1.4" opacity="0.9"/>
<line x1="860.0" y1="186.0" x2="861.2" y2="198.0" stroke="#4b6580" stroke-width="1.4" opacity="0.9"/>
<polyline points="118.0,487.0 860.0,487.0" fill="none" stroke="#f97316" stroke-width="3.2" stroke-opacity="0.9" stroke-linejoin="round" stroke-linecap="round"/>
<polyline points="118.0,468.2 120.5,468.0 123.0,467.9 125.4,467.7 127.9,467.5 130.4,467.4 132.9,467.2 135.4,467.0 137.9,466.8 140.3,466.6 142.8,466.5 145.3,466.3 147.8,466.1 150.3,465.9 152.7,465.7 155.2,465.5 157.7,465.2 160.2,465.0 162.7,464.8 165.2,464.6 167.6,464.3 170.1,464.1 172.6,463.9 175.1,463.6 177.6,463.4 180.0,463.1 182.5,462.8 185.0,462.5 187.5,462.3 190.0,462.0 192.4,461.7 194.9,461.4 197.4,461.1 199.9,460.7 202.4,460.4 204.9,460.1 207.3,459.7 209.8,459.4 212.3,459.0 214.8,458.6 217.3,458.2 219.7,457.8 222.2,457.4 224.7,456.9 227.2,456.5 229.7,456.0 232.2,455.6 234.6,455.1 237.1,454.5 239.6,454.0 242.1,453.5 244.6,452.9 247.0,452.3 249.5,451.7 252.0,451.0 254.5,450.4 257.0,449.7 259.5,448.9 261.9,448.2 264.4,447.4 266.9,446.5 269.4,445.6 271.9,444.7 274.3,443.7 276.8,442.7 279.3,441.6 281.8,440.5 284.3,439.3 286.7,438.0 289.2,436.6 291.7,435.2 294.2,433.7 296.7,432.0 299.2,430.2 301.6,428.3 304.1,426.3 306.6,424.0 309.1,421.6 311.6,419.0 314.0,416.1 316.5,413.0 319.0,409.5 321.5,405.6 324.0,401.3 326.5,396.4 328.9,390.8 331.4,384.5 333.9,377.2 336.4,368.6 338.9,358.5 341.3,346.3 343.8,331.2 346.3,312.3 348.8,287.7 351.3,254.5 353.8,207.2 356.2,134.0 358.7,6.0 361.2,-275.3" fill="none" stroke="#60a5fa" stroke-width="3.2" stroke-opacity="0.9" stroke-linejoin="round" stroke-linecap="round"/>
<polyline points="368.6,1411.8 371.1,1009.9 373.6,849.0 376.1,762.3 378.6,708.1 381.1,671.0 383.5,643.9 386.0,623.3 388.5,607.1 391.0,594.0 393.5,583.1 395.9,574.0 398.4,566.3 400.9,559.6 403.4,553.7 405.9,548.5 408.3,543.9 410.8,539.8 413.3,536.1 415.8,532.7 418.3,529.6 420.8,526.8 423.2,524.2 425.7,521.8 428.2,519.5 430.7,517.4 433.2,515.5 435.6,513.6 438.1,511.8 440.6,510.2 443.1,508.6 445.6,507.1 448.1,505.7 450.5,504.3 453.0,502.9 455.5,501.7 458.0,500.4 460.5,499.2 462.9,498.1 465.4,496.9 467.9,495.8 470.4,494.7 472.9,493.7 475.4,492.6 477.8,491.6 480.3,490.5 482.8,489.5 485.3,488.5 487.8,487.5 490.2,486.5 492.7,485.5 495.2,484.5 497.7,483.5 500.2,482.4 502.6,481.4 505.1,480.3 507.6,479.3 510.1,478.2 512.6,477.1 515.1,475.9 517.5,474.8 520.0,473.6 522.5,472.3 525.0,471.1 527.5,469.7 529.9,468.3 532.4,466.9 534.9,465.4 537.4,463.8 539.9,462.2 542.4,460.4 544.8,458.5 547.3,456.6 549.8,454.5 552.3,452.2 554.8,449.8 557.2,447.2 559.7,444.4 562.2,441.3 564.7,437.9 567.2,434.2 569.7,430.1 572.1,425.5 574.6,420.3 577.1,414.4 579.6,407.7 582.1,400.0 584.5,390.9 587.0,380.0 589.5,366.9 592.0,350.7 594.5,330.1 596.9,303.0 599.4,265.9 601.9,211.7 604.4,125.0 606.9,-35.9 609.4,-437.8" fill="none" stroke="#60a5fa" stroke-width="3.2" stroke-opacity="0.9" stroke-linejoin="round" stroke-linecap="round"/>
<polyline points="616.8,1249.3 619.3,968.0 621.8,840.0 624.2,766.8 626.7,719.5 629.2,686.3 631.7,661.7 634.2,642.8 636.7,627.7 639.1,615.5 641.6,605.4 644.1,596.8 646.6,589.5 649.1,583.2 651.5,577.6 654.0,572.7 656.5,568.4 659.0,564.5 661.5,561.0 664.0,557.9 666.4,555.0 668.9,552.4 671.4,550.0 673.9,547.7 676.4,545.7 678.8,543.8 681.3,542.0 683.8,540.3 686.3,538.8 688.8,537.4 691.3,536.0 693.7,534.7 696.2,533.5 698.7,532.4 701.2,531.3 703.7,530.3 706.1,529.3 708.6,528.4 711.1,527.5 713.6,526.6 716.1,525.8 718.5,525.1 721.0,524.3 723.5,523.6 726.0,523.0 728.5,522.3 731.0,521.7 733.4,521.1 735.9,520.5 738.4,520.0 740.9,519.5 743.4,518.9 745.8,518.4 748.3,518.0 750.8,517.5 753.3,517.1 755.8,516.6 758.3,516.2 760.7,515.8 763.2,515.4 765.7,515.0 768.2,514.6 770.7,514.3 773.1,513.9 775.6,513.6 778.1,513.3 780.6,512.9 783.1,512.6 785.6,512.3 788.0,512.0 790.5,511.7 793.0,511.5 795.5,511.2 798.0,510.9 800.4,510.6 802.9,510.4 805.4,510.1 807.9,509.9 810.4,509.7 812.8,509.4 815.3,509.2 817.8,509.0 820.3,508.8 822.8,508.5 825.3,508.3 827.7,508.1 830.2,507.9 832.7,507.7 835.2,507.5 837.7,507.4 840.1,507.2 842.6,507.0 845.1,506.8 847.6,506.6 850.1,506.5 852.6,506.3 855.0,506.1 857.5,506.0 860.0,505.8" fill="none" stroke="#60a5fa" stroke-width="3.2" stroke-opacity="0.9" stroke-linejoin="round" stroke-linecap="round"/>
<polyline points="755.2,808.1 742.7,773.2 731.5,746.1 721.3,724.7 711.9,707.7 703.2,694.0 694.9,683.0 687.0,674.1 679.5,666.9 672.2,661.3 665.2,656.8 658.2,653.5 651.5,651.0 644.8,649.5 638.1,648.6 631.5,648.5 624.8,649.0 618.2,650.1 611.4,651.8 604.6,654.1 597.7,656.9 590.6,660.3 583.4,664.2 576.1,668.7 568.5,673.7 560.7,679.3 552.7,685.5 544.4,692.2 535.8,699.5 526.9,707.3 517.7,715.6 508.2,724.3 498.2,733.5 487.9,743.0 477.2,752.6 466.1,762.3 454.6,771.8 442.7,780.8 430.4,789.2 417.9,796.5 405.0,802.4 392.0,806.6 378.8,808.6 365.6,808.1 352.4,804.8 339.5,798.7 326.9,789.5 314.7,777.5 303.0,762.8 292.0,745.9 281.8,727.2 272.3,707.2 263.7,686.6 255.9,665.8 249.0,645.4 242.9,625.8 237.6,607.2 233.0,589.9 229.1,574.1 225.8,559.7 223.1,546.8 220.9,535.3 219.1,525.2 217.7,516.3 216.7,508.5 216.0,501.8 215.5,495.9 215.2,490.8 215.1,486.4 215.3,482.6 215.5,479.4 215.9,476.5 216.4,474.1 216.9,471.9 217.6,470.1 218.3,468.5 219.1,467.1 219.9,465.9 220.8,464.8 221.8,463.9 222.7,463.1 223.7,462.3 224.8,461.6 225.8,461.1 226.9,460.5 228.0,460.0 229.1,459.6 230.2,459.1 231.4,458.7 232.6,458.4 233.8,458.0 234.9,457.7 236.2,457.4 237.4,457.1 238.6,456.8 239.9,456.5 241.1,456.2 242.4,455.9 243.7,455.6 245.0,455.3 246.3,455.1 247.6,454.8 248.9,454.5 250.3,454.2 251.6,454.0 253.0,453.7 254.4,453.4 255.8,453.1 257.1,452.8 258.6,452.5 260.0,452.2 261.4,451.9 262.9,451.5 264.3,451.2 265.8,450.9 267.3,450.5 268.8,450.2 270.3,449.8 271.9,449.5 273.4,449.1 275.0,448.7 276.6,448.3 278.2,447.9 279.8,447.5 281.4,447.1 283.1,446.6 284.7,446.2 286.4,445.7 288.1,445.2 289.8,444.7 291.6,444.2 293.4,443.7 295.2,443.1 297.0,442.6 298.8,442.0 300.7,441.4 302.6,440.8 304.5,440.1 306.4,439.5 308.4,438.8 310.4,438.1 312.4,437.3 314.4,436.6 316.5,435.8 318.7,435.0 320.8,434.1 323.0,433.2 325.2,432.3 327.5,431.3 329.8,430.3 332.2,429.3 334.6,428.2 337.0,427.0 339.5,425.8 342.0,424.6 344.6,423.3 347.3,421.9 350.0,420.5 352.7,419.0 355.5,417.5 358.4,415.8 361.4,414.1 364.4,412.3 367.5,410.4 370.7,408.4 374.0,406.3 377.4,404.1 380.8,401.7 384.4,399.3 388.0,396.7 391.8,393.9 395.7,391.1 399.7,388.0 403.8,384.8 408.1,381.4 412.5,377.8 417.0,374.0 421.8,370.0 426.7,365.8 431.7,361.3 437.0,356.6 442.5,351.7 448.1,346.5 454.0,341.1 460.1,335.4 466.5,329.4 473.1,323.3 479.9,316.9 487.0,310.3 494.4,303.6 502.1,296.7 510.1,289.9 518.3,283.1 526.8,276.4 535.6,269.9 544.7,263.9 553.9,258.3 563.4,253.5 573.1,249.5 582.9,246.5 592.9,244.8 602.8,244.4 612.8,245.5 622.7,248.2 632.4,252.6 641.9,258.6 651.1,266.3 660.0,275.4 668.5,285.9 676.5,297.5 684.1,310.0 691.1,323.1 697.5,336.6 703.4,350.1 708.8,363.6 713.6,376.7 717.8,389.4 721.6,401.4 724.9,412.7 727.7,423.3 730.1,433.0 732.2,441.9 733.8,450.1 735.2,457.5 736.3,464.2 737.1,470.2 737.7,475.5 738.0,480.4 738.2,484.7 738.2,488.5 738.1,491.9 737.8,495.0 737.4,497.7 737.0,500.1 736.4,502.3 735.7,504.2 735.0,505.9 734.2,507.5 733.3,508.9 732.4,510.2 731.4,511.3 730.4,512.4 729.3,513.3 728.2,514.2 727.1,515.0 725.9,515.8 724.7,516.5 723.5,517.1 722.2,517.7 720.9,518.3 719.6,518.9 718.3,519.4 717.0,519.9 715.6,520.4 714.2,520.9 712.8,521.4 711.4,521.9 710.0,522.3 708.5,522.8 707.0,523.2 705.5,523.7 704.0,524.1 702.5,524.6 700.9,525.0 699.4,525.5 697.8,526.0 696.2,526.5 694.5,526.9 692.9,527.4 691.2,527.9 689.5,528.4 687.8,529.0 686.1,529.5 684.3,530.1 682.5,530.6 680.7,531.2 678.9,531.8 677.0,532.4 675.2,533.1 673.3,533.7 671.3,534.4 669.4,535.1 667.4,535.8 665.3,536.6 663.3,537.3 661.2,538.1 659.1,539.0 656.9,539.8 654.8,540.7 652.5,541.7 650.3,542.6 648.0,543.7 645.6,544.7 643.2,545.8 640.8,547.0 638.3,548.2 635.7,549.4 633.2,550.7 630.5,552.1 627.8,553.5 625.0,555.0 622.2,556.6 619.3,558.2 616.4,559.9 613.3,561.8 610.2,563.7 607.0,565.7 603.8,567.8 600.4,570.0 596.9,572.4 593.4,574.8 589.7,577.4 585.9,580.2 582.1,583.1 578.0,586.1 573.9,589.4 569.6,592.8 565.2,596.4 560.6,600.2 555.9,604.2 551.0,608.5 545.9,612.9 540.7,617.6 535.2,622.6 529.5,627.8 523.6,633.2 517.5,638.9 511.1,644.9 504.5,651.1 497.6,657.5 490.5,664.1 483.1,670.8 475.4,677.6 467.4,684.5 459.2,691.3 450.6,698.0 441.8,704.4 432.8,710.4 423.5,715.9 414.0,720.7 404.3,724.6 394.5,727.5 384.6,729.2 374.6,729.5 364.6,728.3 354.8,725.5 345.1,721.0 335.6,714.9 326.4,707.2 317.5,698.0 309.1,687.4 301.1,675.8 293.6,663.2 286.6,650.1 280.2,636.6 274.3,623.1 269.0,609.6 264.2,596.5 260.0,583.9 256.2,571.9 253.0,560.6 250.2,550.2 247.8,540.5 245.8,531.6 244.1,523.5 242.8,516.1 241.7,509.5 240.9,503.5 240.3,498.2 240.0,493.4 239.8,489.1 239.8,485.3 239.9,481.9 240.2,478.9 240.6,476.2 241.1,473.8 241.7,471.6 242.4,469.7 243.1,468.0 243.9,466.4 244.8,465.0 245.7,463.8 246.7,462.6 247.7,461.6 248.8,460.6 249.9,459.8 251.0,458.9 252.2,458.2 253.4,457.5 254.6,456.8 255.9,456.2 257.1,455.6 258.4,455.1 259.8,454.6 261.1,454.0 262.5,453.5 263.9,453.1 265.3,452.6 266.7,452.1 268.1,451.7 269.6,451.2 271.1,450.7 272.6,450.3 274.1,449.8 275.6,449.4 277.2,448.9 278.8,448.5 280.3,448.0 282.0,447.5 283.6,447.0 285.2,446.5 286.9,446.0 288.6,445.5 290.3,445.0 292.1,444.5 293.8,443.9 295.6,443.3 297.4,442.8 299.2,442.2 301.1,441.5 303.0,440.9 304.9,440.2 306.8,439.6 308.8,438.9 310.8,438.1 312.8,437.4 314.9,436.6 316.9,435.8 319.1,435.0 321.2,434.1 323.4,433.2 325.6,432.3 327.9,431.3 330.2,430.3 332.6,429.2 335.0,428.1 337.4,427.0 339.9,425.8 342.4,424.5 345.0,423.2 347.7,421.8 350.4,420.4 353.2,418.9 356.0,417.3 358.9,415.7 361.9,413.9 364.9,412.1 368.0,410.2 371.2,408.2 374.5,406.1 377.9,403.8 381.3,401.5 384.9,399.0 388.6,396.4 392.3,393.6 396.2,390.7 400.3,387.6 404.4,384.4 408.7,381.0 413.1,377.3 417.7,373.5 422.4,369.5 427.4,365.2 432.5,360.7 437.7,356.0 443.2,351.0 448.9,345.8 454.8,340.4 461.0,334.6 467.3,328.7 474.0,322.5 480.9,316.1 488.0,309.5 495.5,302.7 503.2,295.9 511.2,289.0 519.4,282.2 528.0,275.6 536.8,269.2 545.9,263.2 555.2,257.7 564.7,253.0 574.4,249.1 584.2,246.3 594.2,244.7 604.1,244.5 614.1,245.8 623.9,248.8 633.6,253.4 643.1,259.6 652.3,267.4 661.1,276.8 669.5,287.4 677.5,299.1 685.0,311.7 691.9,324.9 698.3,338.4 704.1,351.9 709.4,365.4 714.1,378.4 718.3,391.0 722.0,402.9 725.2,414.1 728.0,424.6 730.4,434.2 732.4,443.0 734.0,451.1 735.3,458.4 736.4,465.0 737.1,470.9 737.7,476.2 738.0,480.9 738.2,485.2 738.2,489.0 738.0,492.3 737.8,495.3 737.4,498.0 736.9,500.4 736.3,502.5 735.6,504.4 734.8,506.1 734.0,507.7 733.1,509.1 732.2,510.3 731.2,511.5 730.2,512.5 729.1,513.4 728.0,514.3 726.9,515.1 725.7,515.9 724.5,516.6 723.3,517.2 722.0,517.8 720.8,518.4 719.5,519.0 718.1,519.5 716.8,520.0 715.4,520.5 714.0,521.0 712.6,521.5 711.2,521.9 709.8,522.4 708.3,522.8 706.8,523.3 705.3,523.7 703.8,524.2 702.3,524.6 700.7,525.1 699.1,525.6 697.5,526.0 695.9,526.5 694.3,527.0 692.6,527.5 691.0,528.0 689.3,528.5 687.5,529.0 685.8,529.6 684.0,530.1 682.3,530.7 680.5,531.3 678.6,531.9 676.8,532.5 674.9,533.1 673.0,533.8 671.0,534.5 669.1,535.2 667.1,535.9 665.1,536.7 663.0,537.4 660.9,538.3 658.8,539.1 656.6,540.0 654.4,540.9 652.2,541.8 649.9,542.8 647.6,543.8 645.3,544.9 642.9,546.0 640.4,547.1 637.9,548.3 635.4,549.6 632.8,550.9 630.1,552.3 627.4,553.7 624.6,555.2 621.8,556.8 618.9,558.5 615.9,560.2 612.9,562.0 609.8,564.0 606.6,566.0 603.3,568.1 599.9,570.3 596.4,572.7 592.8,575.2 589.2,577.8 585.4,580.6 581.5,583.5 577.5,586.6 573.3,589.9 569.0,593.3 564.6,596.9 560.0,600.8 555.2,604.8 550.3,609.1 545.2,613.6 539.9,618.3 534.4,623.3 528.7,628.6 522.7,634.1 516.6,639.8 510.2,645.8 503.5,652.0 496.6,658.4 489.4,665.0 482.0,671.8 474.3,678.6 466.2,685.5 458.0,692.3 449.4,698.9 440.5,705.3 431.5,711.2 422.1,716.6 412.6,721.3 402.9,725.1 393.0,727.9 383.1,729.3 373.1,729.4 363.2,728.0 353.4,725.0 343.7,720.2 334.2,713.9 325.1,705.9 316.3,696.5 307.9,685.8 299.9,674.0 292.5,661.4 285.6,648.2 279.3,634.7 273.5,621.1 268.2,607.7 263.6,594.6 259.4,582.1 255.7,570.2 252.5,559.1 249.8,548.7 247.5,539.1 245.5,530.3 243.9,522.3 242.6,515.1 241.6,508.6 240.8,502.7 240.3,497.4 239.9,492.7 239.8,488.5 239.8,484.8 240.0,481.4 240.3,478.5 240.7,475.8 241.2,473.4 241.8,471.3 242.5,469.4 243.2,467.7 244.0,466.2 244.9,464.8 245.9,463.6 246.8,462.5 247.9,461.4 248.9,460.5 250.1,459.6 251.2,458.8 252.4,458.1 253.6,457.4 254.8,456.8 256.1,456.1 257.3,455.6 258.6,455.0 260.0,454.5 261.3,454.0 262.7,453.5 264.1,453.0 265.5,452.5 266.9,452.0 268.3,451.6 269.8,451.1 271.3,450.7 272.8,450.2 274.3,449.8 275.9,449.3 277.4,448.9 279.0,448.4 280.6,447.9 282.2,447.4 283.8,447.0 285.5,446.5 287.2,446.0 288.9,445.4 290.6,444.9 292.3,444.4 294.1,443.8 295.9,443.3 297.7,442.7 299.5,442.1 301.4,441.4 303.3,440.8 305.2,440.1 307.1,439.5 309.1,438.8 311.1,438.0 313.1,437.3 315.2,436.5 317.2,435.7 319.4,434.8 321.5,434.0 323.7,433.1 326.0,432.1 328.2,431.1 330.6,430.1 332.9,429.1 335.3,427.9 337.8,426.8 340.3,425.6 342.8,424.3 345.4,423.0 348.1,421.6 350.8,420.2 353.6,418.7 356.4,417.1 359.3,415.4 362.3,413.7 365.3,411.8 368.5,409.9 371.7,407.9 375.0,405.7 378.4,403.5 381.8,401.1 385.4,398.6 389.1,396.0 392.9,393.2 396.8,390.3 400.8,387.2 405.0,383.9 409.3,380.4 413.8,376.8 418.4,373.0 423.1,368.9 428.1,364.6 433.2,360.1 438.5,355.3 444.0,350.3 449.8,345.1 455.7,339.5 461.9,333.8 468.3,327.8 475.0,321.6 481.9,315.1 489.1,308.5 496.6,301.7 504.3,294.9 512.3,288.0 520.7,281.3 529.2,274.6 538.1,268.3 547.2,262.4 556.6,257.0 566.1,252.4 575.8,248.6 585.7,246.0 595.6,244.6 605.6,244.6 615.5,246.2 625.3,249.3 635.0,254.2 644.5,260.6 653.6,268.7 662.4,278.2 670.7,289.0 678.6,300.9 686.0,313.6 692.9,326.8 699.2,340.3 704.9,353.9 710.1,367.3 714.8,380.3 718.9,392.8 722.5,404.6 725.7,415.7 728.4,426.0 730.7,435.5 732.6,444.3 734.2,452.2 735.5,459.4 736.5,465.9 737.2,471.7 737.8,476.9 738.1,481.6 738.2,485.8 738.2,489.5 738.0,492.8 737.7,495.7 737.3,498.4 736.8,500.7 736.2,502.8 735.5,504.7 734.7,506.4 733.9,507.9 733.0,509.3 732.1,510.5 731.1,511.6 730.0,512.6 729.0,513.6 727.9,514.4 726.7,515.2 725.5,516.0 724.3,516.6 723.1,517.3 721.9,517.9 720.6,518.5 719.3,519.0 717.9,519.6 716.6,520.1 715.2,520.6 713.8,521.0 712.4,521.5 711.0,522.0 709.6,522.4 708.1,522.9 706.6,523.4 705.1,523.8 703.6,524.3 702.0,524.7 700.5,525.2 698.9,525.6 697.3,526.1 695.7,526.6 694.0,527.1 692.4,527.6 690.7,528.1 689.0,528.6 687.3,529.1 685.6,529.7 683.8,530.2 682.0,530.8 680.2,531.4 678.4,532.0 676.5,532.6 674.6,533.2 672.7,533.9 670.8,534.6 668.8,535.3 666.8,536.0 664.8,536.8 662.7,537.6 660.6,538.4 658.5,539.2 656.3,540.1 654.1,541.0 651.9,541.9 649.6,542.9 647.3,544.0 644.9,545.0 642.5,546.1 640.1,547.3 637.6,548.5 635.0,549.8 632.4,551.1 629.7,552.5 627.0,553.9 624.2,555.4 621.4,557.0 618.5,558.7 615.5,560.5 612.4,562.3 609.3,564.2 606.1,566.3 602.8,568.4 599.4,570.7 595.9,573.1 592.3,575.6 588.6,578.2 584.8,581.0 580.9,583.9 576.9,587.1 572.7,590.3 568.4,593.8 563.9,597.5 559.3,601.3 554.5,605.4 549.5,609.7 544.4,614.3 539.1,619.0 533.6,624.1 527.8,629.3 521.9,634.9 515.7,640.6 509.2,646.7 502.5,652.9 495.6,659.4 488.4,666.0 480.9,672.8 473.1,679.6 465.1,686.4 456.7,693.2 448.1,699.8 439.2,706.2 430.1,712.1 420.8,717.4 411.2,721.9 401.5,725.6 391.6,728.2 381.7,729.4 371.7,729.3 361.8,727.7 352.0,724.4 342.3,719.4 332.9,712.8 323.8,704.7 315.0,695.0 306.7,684.1 298.8,672.2 291.5,659.5 284.7,646.2 278.4,632.7 272.7,619.1 267.5,605.8 262.9,592.8 258.8,580.4 255.2,568.6 252.1,557.5 249.4,547.3 247.2,537.8 245.3,529.1 243.7,521.3 242.4,514.1 241.4,507.7 240.7,501.9 240.2,496.7 239.9,492.1 239.8,488.0 239.8,484.3 240.0,481.0 240.3,478.1 240.7,475.5 241.3,473.1 241.9,471.0 242.6,469.2 243.3,467.5 244.2,466.0 245.1,464.6 246.0,463.4 247.0,462.3 248.0,461.3 249.1,460.4 250.2,459.5 251.4,458.7 252.5,458.0 253.7,457.3 255.0,456.7 256.2,456.1 257.5,455.5 258.8,454.9 260.2,454.4 261.5,453.9 262.9,453.4 264.3,452.9 265.7,452.4 267.1,452.0 268.6,451.5 270.0,451.1 271.5,450.6 273.0,450.2 274.5,449.7 276.1,449.3 277.6,448.8 279.2,448.3 280.8,447.9 282.4,447.4 284.1,446.9 285.7,446.4 287.4,445.9 289.1,445.4 290.8,444.8 292.6,444.3 294.3,443.7 296.1,443.2 297.9,442.6 299.8,442.0 301.6,441.4 303.5,440.7 305.4,440.0 307.4,439.4 309.4,438.7 311.4,437.9 313.4,437.2 315.5,436.4 317.6,435.6 319.7,434.7 321.8,433.8 324.0,432.9 326.3,432.0 328.6,431.0 330.9,430.0 333.3,428.9 335.7,427.8 338.1,426.6 340.6,425.4 343.2,424.1 345.8,422.8 348.5,421.4 351.2,420.0 354.0,418.4 356.8,416.8 359.7,415.2 362.7,413.4 365.8,411.6 368.9,409.6 372.1,407.6 375.5,405.4 378.9,403.1 382.3,400.8 385.9,398.2 389.6,395.6 393.5,392.8 397.4,389.8 401.4,386.7 405.6,383.4 410.0,379.9 414.4,376.3 419.1,372.4 423.9,368.3 428.8,364.0 434.0,359.4 439.3,354.6 444.8,349.6 450.6,344.3 456.6,338.7 462.8,332.9 469.2,326.9 475.9,320.6 482.9,314.2 490.2,307.5 497.7,300.8 505.5,293.9 513.5,287.1 521.9,280.3 530.5,273.7 539.4,267.4 548.6,261.5 557.9,256.3 567.5,251.8 577.2,248.2 587.1,245.7 597.1,244.5 607.0,244.7 616.9,246.5 626.8,249.9 636.4,255.0 645.8,261.7 654.9,270.0 663.6,279.7 671.9,290.7 679.7,302.7 687.0,315.5 693.8,328.7 700.0,342.3 705.7,355.8 710.8,369.2 715.4,382.1 719.4,394.5 723.0,406.3 726.1,417.2 728.7,427.5 731.0,436.9 732.9,445.5" fill="none" stroke="#4ade80" stroke-width="2.6" stroke-opacity="0.72" stroke-linejoin="round" stroke-linecap="round"/>
<polyline points="208.5,172.7 220.6,211.8 231.2,242.1 240.8,266.1 249.5,285.2 257.4,300.7 264.8,313.4 271.7,323.8 278.2,332.5 284.4,339.6 290.4,345.5 296.1,350.4 301.6,354.4 307.0,357.6 312.2,360.2 317.4,362.2 322.5,363.7 327.5,364.7 332.6,365.2 337.6,365.4 342.6,365.2 347.6,364.6 352.6,363.7 357.7,362.5 362.9,360.9 368.1,359.0 373.4,356.8 378.8,354.3 384.3,351.4 389.9,348.2 395.7,344.6 401.6,340.7 407.7,336.5 414.0,331.9 420.5,326.8 427.2,321.4 434.1,315.7 441.3,309.5 448.7,302.9 456.4,295.9 464.4,288.6 472.7,280.9 481.3,272.9 490.3,264.7 499.6,256.3 509.3,247.8 519.3,239.5 529.6,231.4 540.3,223.7 551.2,216.7 562.5,210.5 573.9,205.6 585.6,202.0 597.3,200.2 609.1,200.4 620.8,202.7 632.4,207.4 643.8,214.3 654.8,223.6 665.4,235.1 675.5,248.4 685.0,263.4 693.8,279.6 702.0,296.6 709.5,314.0 716.2,331.5 722.3,348.6 727.6,365.0 732.3,380.7 736.4,395.3 739.8,408.8 742.8,421.2 745.3,432.4 747.3,442.5 748.9,451.5 750.2,459.5 751.2,466.6 751.9,472.9 752.4,478.4 752.6,483.2 752.7,487.4 752.6,491.1 752.4,494.4 752.0,497.2 751.5,499.7 751.0,501.9 750.3,503.8 749.6,505.5 748.8,507.0 748.0,508.3 747.1,509.4 746.1,510.5 745.1,511.4 744.1,512.3 743.1,513.0 742.0,513.7 740.9,514.3 739.7,514.9 738.6,515.5 737.4,516.0 736.2,516.4 735.0,516.9 733.7,517.3 732.5,517.7 731.2,518.1 729.9,518.4 728.6,518.8 727.3,519.2 726.0,519.5 724.6,519.9 723.3,520.2 721.9,520.5 720.5,520.9 719.1,521.2 717.7,521.6 716.3,521.9 714.9,522.3 713.4,522.6 711.9,523.0 710.4,523.3 708.9,523.7 707.4,524.1 705.9,524.4 704.3,524.8 702.8,525.2 701.2,525.6 699.6,526.0 698.0,526.5 696.4,526.9 694.7,527.4 693.1,527.8 691.4,528.3 689.7,528.8 687.9,529.3 686.2,529.8 684.4,530.3 682.6,530.9 680.8,531.4 679.0,532.0 677.1,532.6 675.2,533.3 673.3,533.9 671.4,534.6 669.4,535.3 667.4,536.0 665.4,536.7 663.3,537.5 661.2,538.3 659.1,539.1 656.9,540.0 654.7,540.9 652.5,541.8 650.2,542.8 647.9,543.8 645.6,544.8 643.2,545.9 640.7,547.1 638.2,548.3 635.7,549.5 633.1,550.8 630.5,552.2 627.7,553.6 625.0,555.1 622.1,556.7 619.2,558.3 616.3,560.1 613.2,561.9 610.1,563.8 606.9,565.8 603.6,567.9 600.3,570.2 596.8,572.5 593.3,575.0 589.6,577.6 585.8,580.3 581.9,583.2 577.9,586.3 573.7,589.6 569.5,593.0 565.0,596.6 560.5,600.4 555.7,604.4 550.8,608.7 545.7,613.2 540.4,617.9 535.0,622.8 529.3,628.1 523.4,633.5 517.2,639.2 510.8,645.2 504.2,651.4 497.3,657.8 490.2,664.4 482.8,671.1 475.1,678.0 467.1,684.8 458.8,691.6 450.3,698.3 441.4,704.7 432.4,710.7 423.1,716.2 413.5,721.0 403.9,724.9 394.0,727.7 384.1,729.3 374.1,729.5 364.2,728.3 354.3,725.4 344.6,720.8 335.1,714.6 325.9,706.8 317.1,697.5 308.6,686.9 300.7,675.2 293.2,662.7 286.2,649.5 279.8,636.0 274.0,622.4 268.7,609.0 264.0,595.9 259.8,583.3 256.0,571.4 252.8,560.1 250.0,549.7 247.7,540.0 245.7,531.2 244.0,523.1 242.7,515.8 241.6,509.2 240.9,503.2 240.3,497.9 239.9,493.2 239.8,488.9 239.8,485.1 239.9,481.7 240.2,478.7 240.6,476.1 241.1,473.7 241.7,471.5 242.4,469.6 243.1,467.9 243.9,466.4 244.8,465.0 245.8,463.7 246.7,462.6 247.8,461.5 248.8,460.6 249.9,459.7 251.1,458.9 252.2,458.2 253.4,457.5 254.7,456.8 255.9,456.2 257.2,455.6 258.5,455.1 259.8,454.5 261.2,454.0 262.5,453.5 263.9,453.0 265.3,452.6 266.7,452.1 268.2,451.6 269.6,451.2 271.1,450.7 272.6,450.3 274.1,449.8 275.7,449.4 277.2,448.9 278.8,448.4 280.4,448.0 282.0,447.5 283.6,447.0 285.3,446.5 287.0,446.0 288.7,445.5 290.4,445.0 292.1,444.4 293.9,443.9 295.7,443.3 297.5,442.7 299.3,442.1 301.2,441.5 303.0,440.9 305.0,440.2 306.9,439.5 308.9,438.8 310.8,438.1 312.9,437.4 314.9,436.6 317.0,435.8 319.1,434.9 321.3,434.1 323.5,433.2 325.7,432.2 328.0,431.2 330.3,430.2 332.6,429.2 335.0,428.1 337.5,426.9 340.0,425.7 342.5,424.5 345.1,423.1 347.8,421.8 350.5,420.3 353.3,418.8 356.1,417.3 359.0,415.6 362.0,413.9 365.0,412.0 368.1,410.1 371.3,408.1 374.6,406.0 378.0,403.7 381.4,401.4 385.0,398.9 388.7,396.3 392.5,393.5 396.4,390.6 400.4,387.5 404.5,384.3 408.8,380.8 413.3,377.2 417.9,373.4 422.6,369.3 427.5,365.1 432.6,360.6 437.9,355.9 443.4,350.9 449.1,345.6 455.0,340.2 461.2,334.4 467.6,328.5 474.2,322.2 481.1,315.8 488.3,309.2 495.7,302.5 503.4,295.7 511.4,288.8 519.7,282.0 528.3,275.3 537.1,269.0 546.2,263.0 555.5,257.5 565.0,252.8 574.7,249.0 584.6,246.2 594.5,244.7 604.5,244.5 614.4,245.9 624.3,248.9 634.0,253.5 643.4,259.8 652.6,267.7 661.4,277.1 669.8,287.8 677.8,299.5 685.2,312.1 692.1,325.3 698.5,338.8 704.3,352.4 709.6,365.8 714.3,378.9 718.5,391.4 722.1,403.3 725.3,414.5 728.1,424.9 730.5,434.5 732.4,443.3 734.1,451.4 735.4,458.6 736.4,465.2 737.2,471.1 737.7,476.4 738.0,481.1 738.2,485.3 738.2,489.1 738.0,492.4 737.8,495.4 737.3,498.1 736.8,500.5 736.2,502.6 735.6,504.5 734.8,506.2 734.0,507.7 733.1,509.1 732.2,510.4 731.2,511.5 730.2,512.5 729.1,513.5 728.0,514.3 726.8,515.1 725.7,515.9 724.5,516.6 723.2,517.2 722.0,517.8 720.7,518.4 719.4,519.0 718.1,519.5 716.7,520.0 715.4,520.5 714.0,521.0 712.6,521.5 711.2,521.9 709.7,522.4 708.2,522.8 706.8,523.3 705.3,523.8 703.7,524.2 702.2,524.7 700.7,525.1 699.1,525.6 697.5,526.1 695.9,526.5 694.2,527.0 692.6,527.5 690.9,528.0 689.2,528.5 687.5,529.1 685.7,529.6 684.0,530.2 682.2,530.7 680.4,531.3 678.6,531.9 676.7,532.5 674.8,533.2 672.9,533.8 671.0,534.5 669.0,535.2 667.0,535.9 665.0,536.7 662.9,537.5 660.8,538.3 658.7,539.1 656.6,540.0 654.4,540.9 652.1,541.8 649.8,542.8 647.5,543.8 645.2,544.9 642.8,546.0 640.3,547.2 637.8,548.4 635.3,549.6 632.7,550.9 630.0,552.3 627.3,553.8 624.5,555.3 621.7,556.9 618.8,558.5 615.8,560.3 612.8,562.1 609.7,564.0 606.4,566.1 603.2,568.2 599.8,570.4 596.3,572.8 592.7,575.3 589.0,577.9 585.3,580.7 581.3,583.6 577.3,586.7 573.1,590.0 568.8,593.4 564.4,597.1 559.8,600.9 555.0,605.0 550.1,609.2 545.0,613.7 539.7,618.5 534.2,623.5 528.5,628.7 522.5,634.2 516.4,640.0 510.0,646.0 503.3,652.2 496.4,658.6 489.2,665.2 481.7,672.0 474.0,678.8 466.0,685.7 457.7,692.5 449.1,699.1 440.2,705.5 431.1,711.4 421.8,716.8 412.3,721.5 402.5,725.2 392.7,727.9 382.8,729.4 372.8,729.4 362.9,727.9 353.0,724.8 343.4,720.1 333.9,713.6 324.7,705.6 316.0,696.2 307.6,685.4 299.7,673.6 292.3,660.9 285.4,647.7 279.1,634.2 273.3,620.6 268.1,607.2 263.4,594.2 259.3,581.7 255.6,569.8 252.4,558.7 249.7,548.4 247.4,538.8 245.4,530.1 243.8,522.1 242.6,514.9 241.5,508.4 240.8,502.5 240.3,497.3 239.9,492.6 239.8,488.4 239.8,484.7 240.0,481.3 240.3,478.4 240.7,475.7 241.2,473.4 241.8,471.3 242.5,469.4 243.2,467.7 244.1,466.2 245.0,464.8 245.9,463.6 246.9,462.4 247.9,461.4 249.0,460.5 250.1,459.6 251.2,458.8 252.4,458.1 253.6,457.4 254.8,456.7 256.1,456.1 257.4,455.5 258.7,455.0 260.0,454.5 261.4,453.9 262.7,453.5 264.1,453.0 265.5,452.5 266.9,452.0 268.4,451.6 269.9,451.1 271.3,450.7 272.8,450.2 274.4,449.8 275.9,449.3 277.5,448.8 279.0,448.4 280.6,447.9 282.3,447.4 283.9,446.9 285.5,446.4 287.2,445.9 288.9,445.4 290.6,444.9 292.4,444.4 294.1,443.8 295.9,443.2 297.7,442.6 299.6,442.0 301.4,441.4 303.3,440.8 305.2,440.1 307.2,439.4 309.1,438.7 311.1,438.0 313.2,437.2 315.2,436.5 317.3,435.7 319.4,434.8 321.6,433.9 323.8,433.0 326.0,432.1 328.3,431.1 330.6,430.1 333.0,429.0 335.4,427.9 337.9,426.7 340.4,425.5 342.9,424.3 345.5,423.0 348.2,421.6 350.9,420.1 353.7,418.6 356.5,417.0 359.4,415.4 362.4,413.6 365.4,411.8 368.6,409.8 371.8,407.8 375.1,405.7 378.5,403.4 382.0,401.0 385.5,398.5 389.2,395.9 393.0,393.1 396.9,390.2 401.0,387.1 405.2,383.8 409.5,380.3 413.9,376.7 418.5,372.8 423.3,368.7 428.3,364.4 433.4,359.9 438.7,355.1 444.2,350.1 450.0,344.9 455.9,339.3 462.1,333.6 468.5,327.6 475.2,321.3 482.1,314.9 489.3,308.3 496.8,301.5 504.6,294.7 512.6,287.8 520.9,281.0 529.5,274.4 538.4,268.1 547.5,262.2 556.9,256.8 566.4,252.2 576.2,248.5 586.0,245.9 596.0,244.6 605.9,244.6 615.8,246.2 625.7,249.5 635.3,254.4 644.8,260.9 653.9,269.0 662.7,278.6 671.0,289.4 678.9,301.3 686.3,314.0 693.1,327.3 699.4,340.8 705.1,354.4 710.3,367.7 714.9,380.7 719.0,393.2 722.6,405.0 725.8,416.1 728.5,426.4 730.8,435.9 732.7,444.5 734.3,452.5 735.5,459.6 736.5,466.1 737.3,471.9 737.8,477.1 738.1,481.7 738.2,485.9 738.2,489.6 738.0,492.9 737.7,495.8 737.3,498.5 736.8,500.8 736.2,502.9 735.5,504.8 734.7,506.4 733.9,507.9 733.0,509.3 732.0,510.5 731.0,511.7 730.0,512.7 728.9,513.6 727.8,514.5 726.7,515.2 725.5,516.0 724.3,516.7 723.1,517.3 721.8,517.9 720.5,518.5 719.2,519.0 717.9,519.6 716.5,520.1 715.2,520.6 713.8,521.1 712.4,521.5 710.9,522.0 709.5,522.5 708.0,522.9 706.5,523.4 705.0,523.8 703.5,524.3 702.0,524.7 700.4,525.2 698.8,525.7 697.2,526.1 695.6,526.6 694.0,527.1 692.3,527.6 690.7,528.1 689.0,528.6 687.2,529.1 685.5,529.7 683.7,530.2 681.9,530.8 680.1,531.4 678.3,532.0 676.4,532.6 674.5,533.3 672.6,533.9 670.7,534.6 668.7,535.3 666.7,536.0 664.7,536.8 662.6,537.6 660.5,538.4 658.4,539.2 656.2,540.1 654.0,541.0 651.8,542.0 649.5,543.0 647.2,544.0 644.8,545.1 642.4,546.2 640.0,547.3 637.5,548.6 634.9,549.8 632.3,551.1 629.6,552.5 626.9,554.0 624.1,555.5 621.3,557.1 618.4,558.8 615.4,560.5 612.3,562.4 609.2,564.3 606.0,566.4 602.7,568.5 599.3,570.8 595.8,573.1 592.2,575.7 588.5,578.3 584.7,581.1 580.8,584.1 576.7,587.2 572.5,590.5 568.2,593.9 563.7,597.6 559.1,601.5 554.3,605.6 549.4,609.9 544.2,614.4 538.9,619.2 533.4,624.2 527.6,629.5 521.7,635.1 515.5,640.8 509.0,646.9 502.3,653.1 495.4,659.6 488.1,666.2 480.6,673.0 472.8,679.8 464.8,686.7 456.4,693.5 447.8,700.1 438.9,706.4 429.8,712.3 420.4,717.5 410.9,722.1 401.1,725.7 391.3,728.2 381.3,729.5 371.4,729.3 361.4,727.6 351.6,724.2 342.0,719.2 332.6,712.6 323.5,704.3 314.7,694.7 306.4,683.8 298.6,671.8 291.2,659.0 284.4,645.8 278.2,632.2 272.5,618.7 267.4,605.3 262.8,592.4 258.7,579.9 255.1,568.2 252.0,557.2 249.4,546.9 247.1,537.5 245.2,528.9 243.6,521.0 242.4,513.9 241.4,507.5 240.7,501.7 240.2,496.6 239.9,491.9 239.8,487.8 239.8,484.2 240.0,480.9 240.3,478.0 240.8,475.4 241.3,473.0 241.9,471.0 242.6,469.1 243.4,467.5 244.2,466.0 245.1,464.6 246.0,463.4 247.0,462.3 248.1,461.3 249.1,460.3 250.3,459.5 251.4,458.7 252.6,458.0 253.8,457.3 255.0,456.6 256.3,456.0 257.6,455.5 258.9,454.9 260.2,454.4 261.6,453.9 262.9,453.4 264.3,452.9 265.7,452.4 267.2,452.0 268.6,451.5 270.1,451.1 271.6,450.6 273.1,450.1 274.6,449.7 276.1,449.2 277.7,448.8 279.3,448.3 280.9,447.8 282.5,447.4 284.1,446.9 285.8,446.4 287.5,445.9 289.2,445.4 290.9,444.8 292.6,444.3 294.4,443.7 296.2,443.1 298.0,442.6 299.8,442.0 301.7,441.3 303.6,440.7 305.5,440.0 307.5,439.3 309.4,438.6 311.4,437.9 313.5,437.1 315.5,436.4 317.6,435.5 319.8,434.7 321.9,433.8 324.1,432.9 326.4,431.9 328.7,431.0 331.0,429.9 333.3,428.9 335.8,427.7 338.2,426.6 340.7,425.4 343.3,424.1 345.9,422.8 348.6,421.4 351.3,419.9 354.1,418.4 356.9,416.8 359.8,415.1 362.8,413.3 365.9,411.5 369.0,409.5 372.3,407.5 375.6,405.3 379.0,403.1 382.5,400.7 386.1,398.2 389.8,395.5 393.6,392.7 397.5,389.7 401.6,386.6 405.8,383.3 410.1,379.8 414.6,376.1 419.2,372.2 424.0,368.1 429.0,363.8 434.1,359.2 439.5,354.4 445.0,349.4 450.8,344.1 456.8,338.5 463.0,332.7 469.5,326.7 476.2,320.4 483.2,313.9 490.4,307.3 497.9,300.5 505.7,293.7 513.8,286.8 522.2,280.0 530.8,273.5 539.7,267.2 548.9,261.3 558.3,256.1 567.8,251.6 577.6,248.1 587.5,245.6 597.4,244.5 607.4,244.8 617.3,246.6 627.1,250.1 636.7,255.2 646.1,262.0 655.2,270.3 663.9,280.1 672.2,291.1 680.0,303.1 687.3,315.9 694.0,329.2 700.2,342.8 705.9,356.3 711.0,369.6 715.5,382.6 719.6,394.9 723.1,406.6 726.2,417.6 728.8,427.8 731.1,437.2 732.9,445.7 734.5,453.5 735.7,460.6 736.6,467.0 737.3,472.7 737.8,477.8 738.1,482.4 738.2,486.5 738.2,490.1 738.0,493.3 737.6,496.2 737.2,498.8 736.7,501.1 736.1,503.2 735.4,505.0 734.6,506.7 733.7,508.1 732.8,509.5 731.9,510.7 730.9,511.8 729.9,512.8 728.8,513.7 727.7,514.6 726.5,515.4 725.3,516.1 724.1,516.8 722.9,517.4 721.6,518.0 720.3,518.6 719.0,519.1 717.7,519.7 716.3,520.2 715.0,520.7 713.6,521.1 712.2,521.6 710.7,522.1 709.3,522.5 707.8,523.0 706.3,523.4 704.8,523.9 703.3,524.3 701.8,524.8 700.2,525.3 698.6,525.7 697.0,526.2 695.4,526.7 693.8,527.2 692.1,527.7 690.4,528.2 688.7,528.7 687.0,529.2 685.2,529.8 683.5,530.3 681.7,530.9 679.9,531.5 678.0,532.1 676.2,532.7 674.3,533.4 672.4,534.0 670.4,534.7 668.4,535.4 666.4,536.2 664.4,536.9 662.3,537.7 660.2,538.5 658.1,539.4 655.9,540.3 653.7,541.2 651.5,542.1 649.2,543.1 646.9,544.1 644.5,545.2 642.1,546.3 639.6,547.5 637.1,548.7 634.5,550.0 631.9,551.3 629.2,552.7 626.5,554.2 623.7,555.7 620.9,557.3 617.9,559.0 615.0,560.8 611.9,562.6 608.7,564.6 605.5,566.7 602.2,568.8 598.8,571.1 595.3,573.5 591.7,576.0 588.0,578.7 584.1,581.5 580.2,584.5 576.1,587.6 571.9,590.9 567.6,594.5 563.1,598.1 558.4,602.1 553.6,606.2 548.6,610.5 543.5,615.1" fill="none" stroke="#4ade80" stroke-width="2.6" stroke-opacity="0.72" stroke-linejoin="round" stroke-linecap="round"/>
<polyline points="770.1,814.0 757.6,773.0 746.5,741.4 736.6,716.5 727.6,696.7 719.3,680.6 711.6,667.6 704.4,656.9 697.6,648.1 691.1,640.9 685.0,634.9 679.0,630.0 673.2,626.0 667.5,622.9 662.0,620.4 656.6,618.5 651.2,617.2 645.9,616.4 640.6,616.1 635.3,616.2 629.9,616.6 624.6,617.5 619.2,618.8 613.8,620.4 608.2,622.4 602.6,624.8 596.9,627.5 591.1,630.6 585.1,634.0 579.0,637.8 572.7,642.1 566.3,646.7 559.6,651.7 552.7,657.2 545.6,663.0 538.2,669.3 530.6,676.0 522.7,683.2 514.5,690.7 506.0,698.6 497.1,706.7 487.9,715.2 478.4,723.8 468.4,732.4 458.2,741.0 447.6,749.3 436.6,757.1 425.4,764.3 413.9,770.4 402.1,775.3 390.2,778.6 378.2,780.1 366.1,779.5 354.2,776.6 342.4,771.3 330.9,763.5 319.7,753.3 309.0,741.0 298.9,726.7 289.3,710.8 280.5,693.8 272.3,676.0 265.0,658.0 258.3,640.1 252.4,622.6 247.1,605.9 242.6,590.1 238.7,575.4 235.3,562.0 232.5,549.7 230.1,538.6 228.2,528.7 226.7,519.9 225.5,512.1 224.6,505.2 224.0,499.1 223.6,493.8 223.4,489.2 223.4,485.1 223.6,481.6 223.9,478.5 224.3,475.8 224.8,473.4 225.4,471.4 226.1,469.6 226.8,468.0 227.6,466.6 228.5,465.3 229.4,464.2 230.4,463.2 231.4,462.4 232.4,461.6 233.4,460.9 234.5,460.2 235.6,459.6 236.8,459.1 237.9,458.6 239.1,458.1 240.3,457.6 241.5,457.2 242.8,456.8 244.0,456.4 245.3,456.1 246.6,455.7 247.9,455.4 249.2,455.0 250.5,454.7 251.8,454.4 253.2,454.0 254.5,453.7 255.9,453.4 257.3,453.0 258.7,452.7 260.1,452.4 261.5,452.1 263.0,451.7 264.4,451.4 265.9,451.0 267.4,450.7 268.9,450.3 270.4,449.9 271.9,449.6 273.5,449.2 275.0,448.8 276.6,448.4 278.2,448.0 279.8,447.5 281.5,447.1 283.1,446.7 284.8,446.2 286.5,445.7 288.2,445.2 289.9,444.7 291.6,444.2 293.4,443.7 295.2,443.2 297.0,442.6 298.8,442.0 300.7,441.4 302.6,440.8 304.5,440.2 306.4,439.5 308.4,438.8 310.4,438.1 312.4,437.3 314.5,436.6 316.6,435.8 318.7,435.0 320.8,434.1 323.0,433.2 325.3,432.3 327.5,431.3 329.8,430.3 332.2,429.3 334.6,428.2 337.0,427.0 339.5,425.8 342.1,424.6 344.6,423.3 347.3,421.9 350.0,420.5 352.7,419.0 355.6,417.5 358.5,415.8 361.4,414.1 364.5,412.3 367.6,410.4 370.8,408.4 374.0,406.3 377.4,404.1 380.8,401.7 384.4,399.3 388.1,396.7 391.8,393.9 395.7,391.0 399.7,388.0 403.8,384.8 408.1,381.4 412.5,377.8 417.1,374.0 421.8,370.0 426.7,365.7 431.8,361.3 437.0,356.6 442.5,351.6 448.2,346.5 454.1,341.0 460.2,335.3 466.5,329.4 473.1,323.2 480.0,316.8 487.1,310.2 494.5,303.5 502.2,296.7 510.1,289.8 518.4,283.0 526.9,276.3 535.7,269.9 544.7,263.8 554.0,258.3 563.5,253.5 573.2,249.5 583.0,246.5 592.9,244.8 602.9,244.4 612.9,245.5 622.7,248.3 632.5,252.6 642.0,258.7 651.2,266.3 660.1,275.5 668.6,286.0 676.6,297.6 684.1,310.1 691.1,323.2 697.6,336.7 703.5,350.3 708.8,363.7 713.6,376.8 717.9,389.5 721.6,401.5 724.9,412.8 727.7,423.3 730.1,433.1 732.2,442.0 733.8,450.2 735.2,457.5 736.3,464.2 737.1,470.2 737.7,475.6 738.0,480.4 738.2,484.7 738.2,488.5 738.1,491.9 737.8,495.0 737.4,497.7 736.9,500.1 736.4,502.3 735.7,504.2 735.0,505.9 734.1,507.5 733.3,508.9 732.3,510.2 731.4,511.3 730.3,512.4 729.3,513.3 728.2,514.2 727.0,515.0 725.9,515.8 724.7,516.5 723.5,517.1 722.2,517.7 720.9,518.3 719.6,518.9 718.3,519.4 717.0,519.9 715.6,520.4 714.2,520.9 712.8,521.4 711.4,521.9 710.0,522.3 708.5,522.8 707.0,523.2 705.5,523.7 704.0,524.1 702.5,524.6 700.9,525.0 699.3,525.5 697.8,526.0 696.1,526.5 694.5,526.9 692.9,527.4 691.2,527.9 689.5,528.4 687.8,529.0 686.0,529.5 684.3,530.1 682.5,530.6 680.7,531.2 678.9,531.8 677.0,532.4 675.1,533.1 673.2,533.7 671.3,534.4 669.3,535.1 667.4,535.8 665.3,536.6 663.3,537.3 661.2,538.1 659.1,539.0 656.9,539.8 654.7,540.7 652.5,541.7 650.2,542.7 647.9,543.7 645.6,544.7 643.2,545.8 640.7,547.0 638.3,548.2 635.7,549.4 633.1,550.7 630.5,552.1 627.8,553.5 625.0,555.0 622.2,556.6 619.3,558.2 616.3,560.0 613.3,561.8 610.2,563.7 607.0,565.7 603.7,567.8 600.4,570.0 596.9,572.4 593.3,574.9 589.7,577.5 585.9,580.2 582.0,583.1 578.0,586.2 573.9,589.4 569.6,592.8 565.2,596.4 560.6,600.2 555.9,604.3 551.0,608.5 545.9,613.0 540.6,617.7 535.1,622.6 529.5,627.8 523.6,633.3 517.4,639.0 511.1,645.0 504.4,651.1 497.6,657.5 490.4,664.1 483.0,670.8 475.3,677.7 467.4,684.5 459.1,691.3 450.6,698.0 441.8,704.4 432.7,710.5 423.4,716.0 413.9,720.7 404.2,724.7 394.4,727.6 384.5,729.2 374.5,729.5 364.6,728.3 354.7,725.5 345.0,721.0 335.5,714.8 326.3,707.1 317.4,697.9 309.0,687.3 301.0,675.7 293.5,663.1 286.5,650.0 280.1,636.5 274.2,622.9 268.9,609.5 264.2,596.4 259.9,583.8 256.2,571.8 253.0,560.5 250.1,550.1 247.8,540.4 245.8,531.5 244.1,523.4 242.8,516.0 241.7,509.4 240.9,503.5 240.3,498.1 240.0,493.3 239.8,489.1 239.8,485.3 239.9,481.9 240.2,478.9 240.6,476.2 241.1,473.7 241.7,471.6 242.4,469.7 243.1,468.0 243.9,466.4 244.8,465.0 245.7,463.8 246.7,462.6 247.7,461.6 248.8,460.6 249.9,459.7 251.0,458.9 252.2,458.2 253.4,457.5 254.6,456.8 255.9,456.2 257.2,455.6 258.5,455.1 259.8,454.5 261.1,454.0 262.5,453.5 263.9,453.1 265.3,452.6 266.7,452.1 268.1,451.7 269.6,451.2 271.1,450.7 272.6,450.3 274.1,449.8 275.6,449.4 277.2,448.9 278.8,448.5 280.4,448.0 282.0,447.5 283.6,447.0 285.3,446.5 286.9,446.0 288.6,445.5 290.3,445.0 292.1,444.5 293.8,443.9 295.6,443.3 297.4,442.7 299.3,442.1 301.1,441.5 303.0,440.9 304.9,440.2 306.8,439.6 308.8,438.9 310.8,438.1 312.8,437.4 314.9,436.6 317.0,435.8 319.1,435.0 321.2,434.1 323.4,433.2 325.7,432.3 327.9,431.3 330.2,430.3 332.6,429.2 335.0,428.1 337.4,426.9 339.9,425.7 342.5,424.5 345.1,423.2 347.7,421.8 350.4,420.4 353.2,418.9 356.0,417.3 358.9,415.6 361.9,413.9 364.9,412.1 368.0,410.2 371.2,408.2 374.5,406.0 377.9,403.8 381.4,401.4 384.9,399.0 388.6,396.3 392.4,393.6 396.3,390.7 400.3,387.6 404.4,384.4 408.7,380.9 413.2,377.3 417.7,373.5 422.5,369.4 427.4,365.2 432.5,360.7 437.8,356.0 443.3,351.0 449.0,345.8 454.9,340.3 461.0,334.6 467.4,328.6 474.0,322.4 480.9,316.0 488.1,309.4 495.5,302.7 503.2,295.8 511.2,289.0 519.5,282.2 528.1,275.5 536.9,269.1 546.0,263.1 555.3,257.7 564.8,252.9 574.5,249.1 584.3,246.3 594.3,244.7 604.2,244.5 614.2,245.9 624.0,248.8 633.7,253.4 643.2,259.7 652.4,267.5 661.2,276.9 669.6,287.5 677.6,299.2 685.0,311.8 692.0,325.0 698.3,338.5 704.2,352.1 709.4,365.5 714.2,378.5 718.4,391.1 722.1,403.0 725.3,414.2 728.0,424.7 730.4,434.3 732.4,443.1 734.0,451.2 735.3,458.5 736.4,465.0 737.1,470.9 737.7,476.2 738.0,481.0 738.2,485.2 738.2,489.0 738.0,492.4 737.8,495.4 737.4,498.0 736.9,500.4 736.3,502.5 735.6,504.5 734.8,506.2 734.0,507.7 733.1,509.1 732.2,510.3 731.2,511.5 730.2,512.5 729.1,513.4 728.0,514.3 726.9,515.1 725.7,515.9 724.5,516.6 723.3,517.2 722.0,517.8 720.7,518.4 719.4,519.0 718.1,519.5 716.8,520.0 715.4,520.5 714.0,521.0 712.6,521.5 711.2,521.9 709.7,522.4 708.3,522.8 706.8,523.3 705.3,523.7 703.8,524.2 702.2,524.7 700.7,525.1 699.1,525.6 697.5,526.0 695.9,526.5 694.3,527.0 692.6,527.5 690.9,528.0 689.2,528.5 687.5,529.0 685.8,529.6 684.0,530.1 682.2,530.7 680.4,531.3 678.6,531.9 676.8,532.5 674.9,533.2 673.0,533.8 671.0,534.5 669.1,535.2 667.1,535.9 665.0,536.7 663.0,537.5 660.9,538.3 658.8,539.1 656.6,540.0 654.4,540.9 652.2,541.8 649.9,542.8 647.6,543.8 645.2,544.9 642.8,546.0 640.4,547.1 637.9,548.3 635.3,549.6 632.8,550.9 630.1,552.3 627.4,553.7 624.6,555.2 621.8,556.8 618.9,558.5 615.9,560.2 612.9,562.1 609.7,564.0 606.5,566.0 603.2,568.1 599.9,570.4 596.4,572.7 592.8,575.2 589.1,577.8 585.3,580.6 581.4,583.5 577.4,586.6 573.3,589.9 569.0,593.3 564.5,597.0 559.9,600.8 555.2,604.9 550.2,609.1 545.1,613.6 539.8,618.4 534.3,623.4 528.6,628.6 522.7,634.1 516.5,639.8 510.1,645.8 503.5,652.1 496.6,658.5 489.4,665.1 481.9,671.8 474.2,678.7 466.2,685.5 457.9,692.3 449.3,699.0 440.5,705.3 431.4,711.3 422.0,716.7 412.5,721.4 402.8,725.2 392.9,727.9 383.0,729.3 373.1,729.4 363.1,728.0 353.3,724.9 343.6,720.2 334.1,713.8 325.0,705.9 316.2,696.4 307.8,685.7 299.9,673.9 292.4,661.2 285.5,648.0 279.2,634.5 273.4,621.0 268.2,607.6 263.5,594.5 259.4,582.0 255.7,570.1 252.5,559.0 249.8,548.6 247.4,539.0 245.5,530.3 243.9,522.3 242.6,515.0 241.6,508.5 240.8,502.7 240.3,497.4 239.9,492.7 239.8,488.5 239.8,484.8 240.0,481.4 240.3,478.4 240.7,475.8 241.2,473.4 241.8,471.3 242.5,469.4 243.2,467.7 244.1,466.2 244.9,464.8 245.9,463.6 246.9,462.5 247.9,461.4 249.0,460.5 250.1,459.6 251.2,458.8 252.4,458.1 253.6,457.4 254.8,456.7 256.1,456.1 257.3,455.6 258.7,455.0 260.0,454.5 261.3,454.0 262.7,453.5 264.1,453.0 265.5,452.5 266.9,452.0 268.4,451.6 269.8,451.1 271.3,450.7 272.8,450.2 274.3,449.8 275.9,449.3 277.4,448.9 279.0,448.4 280.6,447.9 282.2,447.4 283.8,447.0 285.5,446.5 287.2,446.0 288.9,445.4 290.6,444.9 292.3,444.4 294.1,443.8 295.9,443.2 297.7,442.7 299.5,442.1 301.4,441.4 303.3,440.8 305.2,440.1 307.1,439.5 309.1,438.8 311.1,438.0 313.1,437.3 315.2,436.5 317.3,435.7 319.4,434.8 321.6,434.0 323.7,433.1 326.0,432.1 328.3,431.1 330.6,430.1 332.9,429.0 335.3,427.9 337.8,426.8 340.3,425.6 342.8,424.3 345.4,423.0 348.1,421.6 350.8,420.2 353.6,418.6 356.4,417.1 359.3,415.4 362.3,413.6 365.4,411.8 368.5,409.9 371.7,407.9 375.0,405.7 378.4,403.5 381.9,401.1 385.4,398.6 389.1,396.0 392.9,393.2 396.8,390.2 400.9,387.1 405.1,383.9 409.4,380.4 413.8,376.8 418.4,372.9 423.2,368.8 428.1,364.6 433.3,360.0 438.6,355.3 444.1,350.3 449.8,345.0 455.8,339.5 461.9,333.7 468.4,327.7 475.0,321.5 482.0,315.1 489.2,308.4 496.6,301.7 504.4,294.8 512.4,288.0 520.7,281.2 529.3,274.6 538.2,268.2 547.3,262.3 556.6,256.9 566.2,252.3 575.9,248.6 585.8,246.0 595.7,244.6 605.7,244.6 615.6,246.2 625.4,249.4 635.1,254.2 644.5,260.7 653.7,268.8 662.5,278.3 670.8,289.1 678.7,301.0 686.1,313.7 692.9,326.9 699.2,340.5 705.0,354.0 710.2,367.4 714.8,380.4 718.9,392.9 722.5,404.7 725.7,415.8 728.4,426.1 730.7,435.6 732.6,444.3 734.2,452.3 735.5,459.5 736.5,465.9 737.2,471.7 737.8,477.0 738.1,481.6 738.2,485.8 738.2,489.5 738.0,492.8 737.7,495.8 737.3,498.4 736.8,500.7 736.2,502.8 735.5,504.7 734.7,506.4 733.9,507.9 733.0,509.3 732.1,510.5 731.1,511.6 730.0,512.6 729.0,513.6 727.9,514.4 726.7,515.2 725.5,516.0 724.3,516.7 723.1,517.3 721.8,517.9 720.6,518.5 719.3,519.0 717.9,519.6 716.6,520.1 715.2,520.6 713.8,521.1 712.4,521.5 711.0,522.0 709.5,522.4 708.1,522.9 706.6,523.4 705.1,523.8 703.6,524.3 702.0,524.7 700.5,525.2 698.9,525.6 697.3,526.1 695.7,526.6 694.0,527.1 692.4,527.6 690.7,528.1 689.0,528.6 687.3,529.1 685.5,529.7 683.8,530.2 682.0,530.8 680.2,531.4 678.3,532.0 676.5,532.6 674.6,533.2 672.7,533.9 670.7,534.6 668.8,535.3 666.8,536.0 664.7,536.8 662.7,537.6 660.6,538.4 658.5,539.2 656.3,540.1 654.1,541.0 651.9,542.0 649.6,542.9 647.3,544.0 644.9,545.0 642.5,546.1 640.0,547.3 637.5,548.5 635.0,549.8 632.4,551.1 629.7,552.5 627.0,553.9 624.2,555.5 621.4,557.1 618.4,558.7 615.5,560.5 612.4,562.3 609.3,564.3 606.1,566.3 602.8,568.4 599.4,570.7 595.9,573.1 592.3,575.6 588.6,578.2 584.8,581.0 580.9,584.0 576.8,587.1 572.6,590.4 568.3,593.8 563.9,597.5 559.2,601.4 554.5,605.5 549.5,609.8 544.4,614.3 539.0,619.1 533.5,624.1 527.8,629.4 521.8,634.9 515.6,640.7 509.2,646.7 502.5,653.0 495.5,659.4 488.3,666.1 480.8,672.8 473.0,679.7 465.0,686.5 456.6,693.3 448.0,699.9 439.2,706.2 430.0,712.1 420.7,717.4 411.1,722.0 401.4,725.6 391.5,728.2 381.6,729.5 371.6,729.3 361.7,727.6 351.9,724.3 342.2,719.4 332.8,712.8 323.7,704.6 314.9,694.9 306.6,684.0 298.8,672.1 291.4,659.4 284.6,646.1 278.3,632.6 272.6,619.0 267.5,605.6 262.9,592.7 258.8,580.2 255.2,568.5 252.1,557.4 249.4,547.2 247.1,537.7 245.2,529.1 243.7,521.2 242.4,514.1 241.4,507.6 240.7,501.9 240.2,496.7 239.9,492.1 239.8,487.9 239.8,484.2 240.0,481.0 240.3,478.0 240.7,475.4 241.3,473.1 241.9,471.0 242.6,469.2 243.3,467.5 244.2,466.0 245.1,464.6 246.0,463.4 247.0,462.3 248.0,461.3 249.1,460.4 250.2,459.5 251.4,458.7 252.6,458.0 253.8,457.3 255.0,456.7 256.3,456.0 257.5,455.5 258.8,454.9 260.2,454.4 261.5,453.9 262.9,453.4 264.3,452.9 265.7,452.4 267.1,452.0 268.6,451.5 270.0,451.1 271.5,450.6 273.0,450.2 274.5,449.7 276.1,449.2 277.7,448.8 279.2,448.3 280.8,447.9 282.4,447.4 284.1,446.9 285.7,446.4 287.4,445.9 289.1,445.4 290.8,444.8 292.6,444.3 294.4,443.7 296.1,443.2 298.0,442.6 299.8,442.0 301.7,441.3 303.5,440.7 305.5,440.0 307.4,439.4 309.4,438.6 311.4,437.9 313.4,437.2 315.5,436.4 317.6,435.6 319.7,434.7 321.9,433.8 324.1,432.9 326.3,432.0 328.6,431.0 330.9,430.0 333.3,428.9 335.7,427.8" fill="none" stroke="#4ade80" stroke-width="2.6" stroke-opacity="0.72" stroke-linejoin="round" stroke-linecap="round"/>
<polyline points="770.0,175.5 781.7,226.8 791.4,273.8 799.3,315.4 805.6,351.3 810.5,381.6 814.3,406.8 817.2,427.4 819.3,444.0 820.8,457.4 821.8,468.1 822.3,476.5 822.6,483.3 822.7,488.6 822.5,492.8 822.2,496.1 821.8,498.7 821.3,500.8 820.7,502.4 820.0,503.7 819.3,504.8 818.5,505.6 817.8,506.3 817.0,506.8 816.1,507.3 815.3,507.7 814.4,508.0 813.6,508.3 812.7,508.5 811.8,508.7 810.9,508.9 810.0,509.0 809.1,509.1 808.2,509.3 807.3,509.4 806.3,509.5 805.4,509.6 804.5,509.7 803.6,509.8 802.6,509.9 801.7,510.0 800.7,510.1 799.8,510.2 798.8,510.3 797.8,510.4 796.9,510.5 795.9,510.6 794.9,510.7 794.0,510.8 793.0,510.9 792.0,511.0 791.0,511.1 790.0,511.2 789.0,511.3 788.0,511.4 787.0,511.5 786.0,511.7 785.0,511.8 784.0,511.9 782.9,512.0 781.9,512.1 780.9,512.2 779.8,512.3 778.8,512.5 777.7,512.6 776.7,512.7 775.6,512.8 774.6,513.0 773.5,513.1 772.4,513.2 771.4,513.3 770.3,513.5 769.2,513.6 768.1,513.8 767.0,513.9 765.9,514.0 764.8,514.2 763.6,514.3 762.5,514.5 761.4,514.6 760.2,514.8 759.1,514.9 757.9,515.1 756.8,515.3 755.6,515.4 754.4,515.6 753.3,515.8 752.1,515.9 750.9,516.1 749.7,516.3 748.5,516.5 747.3,516.7 746.0,516.9 744.8,517.1 743.6,517.3 742.3,517.5 741.1,517.7 739.8,517.9 738.5,518.1 737.3,518.3 736.0,518.5 734.7,518.7 733.4,519.0 732.0,519.2 730.7,519.5 729.4,519.7 728.0,520.0 726.7,520.2 725.3,520.5 723.9,520.7 722.5,521.0 721.1,521.3 719.7,521.6 718.3,521.9 716.8,522.2 715.4,522.5 713.9,522.8 712.4,523.1 710.9,523.5 709.4,523.8 707.9,524.2 706.4,524.5 704.8,524.9 703.3,525.3 701.7,525.7 700.1,526.1 698.5,526.5 696.8,526.9 695.2,527.4 693.5,527.8 691.8,528.3 690.1,528.7 688.4,529.2 686.7,529.7 684.9,530.3 683.1,530.8 681.3,531.4 679.5,531.9 677.6,532.5 675.7,533.1 673.8,533.8 671.9,534.4 669.9,535.1 667.9,535.8 665.9,536.6 663.9,537.3 661.8,538.1 659.7,538.9 657.5,539.8 655.3,540.7 653.1,541.6 650.8,542.5 648.5,543.5 646.2,544.6 643.8,545.7 641.4,546.8 638.9,548.0 636.4,549.2 633.8,550.5 631.1,551.9 628.4,553.3 625.7,554.8 622.9,556.3 620.0,557.9 617.0,559.6 614.0,561.4 610.9,563.3 607.7,565.3 604.5,567.4 601.1,569.6 597.7,571.9 594.2,574.4 590.5,576.9 586.8,579.7 582.9,582.5 578.9,585.5 574.8,588.7 570.6,592.1 566.2,595.7 561.6,599.4 556.9,603.4 552.1,607.6 547.0,612.0 541.8,616.7 536.3,621.6 530.7,626.7 524.9,632.2 518.8,637.8 512.5,643.7 505.9,649.9 499.1,656.2 492.0,662.8 484.6,669.5 477.0,676.3 469.1,683.1 460.9,690.0 452.4,696.7 443.7,703.2 434.6,709.3 425.4,714.9 415.9,719.9 406.3,724.0 396.5,727.1 386.6,729.0 376.6,729.6 366.6,728.8 356.8,726.3 347.0,722.1 337.5,716.3 328.2,708.9 319.2,700.0 310.7,689.7 302.6,678.2 295.0,665.9 287.9,652.8 281.4,639.4 275.4,625.8 270.0,612.3 265.1,599.1 260.8,586.4 256.9,574.3 253.6,562.9 250.7,552.2 248.2,542.3 246.1,533.3 244.4,525.0 243.0,517.5 241.9,510.8 241.0,504.7 240.4,499.2 240.0,494.3 239.8,489.9 239.8,486.0 239.9,482.6 240.1,479.5 240.5,476.7 241.0,474.2 241.5,472.0 242.2,470.1 242.9,468.3 243.7,466.7 244.6,465.3 245.5,464.0 246.5,462.8 247.5,461.8 248.5,460.8 249.6,459.9 250.8,459.1 251.9,458.3 253.1,457.6 254.3,457.0 255.6,456.4 256.9,455.8 258.2,455.2 259.5,454.7 260.8,454.1 262.2,453.6 263.6,453.2 265.0,452.7 266.4,452.2 267.8,451.8 269.3,451.3 270.8,450.8 272.2,450.4 273.8,449.9 275.3,449.5 276.8,449.0 278.4,448.6 280.0,448.1 281.6,447.6 283.2,447.1 284.9,446.6 286.6,446.1 288.2,445.6 290.0,445.1 291.7,444.6 293.4,444.0 295.2,443.5 297.0,442.9 298.8,442.3 300.7,441.7 302.6,441.0 304.5,440.4 306.4,439.7 308.4,439.0 310.3,438.3 312.4,437.6 314.4,436.8 316.5,436.0 318.6,435.1 320.7,434.3 322.9,433.4 325.1,432.5 327.4,431.5 329.7,430.5 332.1,429.4 334.4,428.4 336.9,427.2 339.4,426.0 341.9,424.8 344.5,423.5 347.1,422.1 349.8,420.7 352.6,419.2 355.4,417.7 358.3,416.0 361.2,414.3 364.2,412.5 367.3,410.6 370.5,408.6 373.8,406.5 377.1,404.3 380.6,402.0 384.1,399.5 387.8,397.0 391.5,394.2 395.4,391.4 399.4,388.3 403.5,385.1 407.7,381.7 412.1,378.1 416.7,374.4 421.4,370.4 426.3,366.2 431.3,361.7 436.6,357.1 442.0,352.1 447.7,347.0 453.5,341.6 459.6,335.9 465.9,330.0 472.5,323.8 479.4,317.5 486.5,310.9 493.8,304.2 501.5,297.4 509.4,290.5 517.6,283.7 526.1,277.0 534.9,270.5 543.9,264.4 553.2,258.9 562.6,253.9 572.3,249.9 582.1,246.8 592.0,245.0 602.0,244.4 611.9,245.4 621.8,248.0 631.5,252.2 641.1,258.1 650.3,265.6 659.2,274.6 667.8,285.0 675.8,296.5 683.4,308.9 690.4,322.0 697.0,335.4 702.9,349.0 708.3,362.5 713.1,375.6 717.5,388.3 721.3,400.4 724.6,411.8 727.4,422.4 729.9,432.2 732.0,441.2 733.7,449.4 735.1,456.9 736.2,463.6 737.0,469.7 737.6,475.1 738.0,480.0 738.2,484.3 738.2,488.2 738.1,491.6 737.8,494.7 737.5,497.5 737.0,499.9 736.4,502.1 735.7,504.0 735.0,505.8 734.2,507.4 733.3,508.8 732.4,510.1 731.4,511.2 730.4,512.3 729.4,513.2 728.3,514.1 727.1,514.9 726.0,515.7 724.8,516.4 723.6,517.1 722.3,517.7 721.0,518.3 719.7,518.8 718.4,519.4 717.1,519.9 715.7,520.4 714.3,520.9 712.9,521.3 711.5,521.8 710.1,522.3 708.6,522.7 707.1,523.2 705.6,523.6 704.1,524.1 702.6,524.5 701.0,525.0 699.5,525.5 697.9,525.9 696.3,526.4 694.6,526.9 693.0,527.4 691.3,527.9 689.6,528.4 687.9,528.9 686.2,529.5 684.4,530.0 682.7,530.6 680.9,531.2 679.0,531.8 677.2,532.4 675.3,533.0 673.4,533.7 671.5,534.3 669.5,535.0 667.5,535.8 665.5,536.5 663.4,537.3 661.4,538.1 659.2,538.9 657.1,539.8 654.9,540.7 652.7,541.6 650.4,542.6 648.1,543.6 645.8,544.6 643.4,545.7 640.9,546.9 638.5,548.1 635.9,549.3 633.3,550.6 630.7,552.0 628.0,553.4 625.2,554.9 622.4,556.5 619.5,558.1 616.6,559.8 613.6,561.6 610.4,563.5 607.3,565.5 604.0,567.6 600.6,569.9 597.2,572.2 593.6,574.6 590.0,577.2 586.2,580.0 582.3,582.9 578.3,585.9 574.2,589.1 569.9,592.5 565.5,596.1 561.0,599.9 556.3,603.9 551.4,608.1 546.3,612.6 541.0,617.3 535.6,622.2 529.9,627.4 524.0,632.8 517.9,638.5 511.6,644.5 505.0,650.6 498.1,657.0 491.0,663.6 483.6,670.3 476.0,677.1 468.0,684.0 459.8,690.8 451.3,697.5 442.5,703.9 433.4,710.0 424.2,715.5 414.7,720.4 405.0,724.4 395.2,727.4 385.3,729.1 375.3,729.5 365.4,728.4 355.5,725.8 345.8,721.4 336.3,715.4 327.0,707.8 318.1,698.7 309.6,688.2 301.6,676.6 294.1,664.2 287.1,651.1 280.6,637.6 274.7,624.0 269.3,610.6 264.5,597.4 260.3,584.8 256.5,572.8 253.2,561.4 250.4,550.9 247.9,541.1 245.9,532.2 244.2,524.0 242.8,516.6 241.8,509.9 241.0,503.9 240.4,498.5 240.0,493.7 239.8,489.4 239.8,485.6 239.9,482.1 240.2,479.1 240.6,476.4 241.1,473.9 241.6,471.8 242.3,469.8 243.1,468.1 243.9,466.5 244.7,465.1 245.7,463.9 246.6,462.7 247.7,461.7 248.7,460.7 249.8,459.8 250.9,459.0 252.1,458.2 253.3,457.5 254.5,456.9 255.8,456.3 257.1,455.7 258.4,455.1 259.7,454.6 261.0,454.1 262.4,453.6 263.8,453.1 265.2,452.6 266.6,452.1 268.0,451.7 269.5,451.2 271.0,450.8 272.5,450.3 274.0,449.9 275.5,449.4 277.1,449.0 278.6,448.5 280.2,448.0 281.8,447.6 283.5,447.1 285.1,446.6 286.8,446.1 288.5,445.6 290.2,445.0 291.9,444.5 293.7,443.9 295.5,443.4 297.3,442.8 299.1,442.2 301.0,441.6 302.8,440.9 304.7,440.3 306.7,439.6 308.6,438.9 310.6,438.2 312.7,437.4 314.7,436.7 316.8,435.9 318.9,435.0 321.1,434.2 323.2,433.3 325.5,432.3 327.7,431.4 330.0,430.3 332.4,429.3 334.8,428.2 337.2,427.0 339.7,425.8 342.3,424.6 344.8,423.3 347.5,421.9 350.2,420.5 353.0,419.0 355.8,417.4 358.7,415.8 361.6,414.1 364.7,412.2 367.8,410.3 371.0,408.3 374.2,406.2 377.6,404.0 381.1,401.6 384.6,399.2 388.3,396.6 392.1,393.8 395.9,390.9 400.0,387.9 404.1,384.6 408.4,381.2 412.8,377.6 417.4,373.8 422.1,369.8 427.0,365.5 432.1,361.1 437.3,356.4 442.8,351.4 448.5,346.2 454.4,340.8 460.5,335.1 466.9,329.1 473.5,322.9 480.4,316.5 487.5,309.9 494.9,303.2 502.6,296.4 510.6,289.5 518.8,282.7 527.4,276.0 536.2,269.6 545.2,263.6 554.5,258.1 564.0,253.3 573.7,249.4 583.5,246.5 593.5,244.8 603.4,244.5 613.4,245.7 623.2,248.5 632.9,253.0 642.4,259.1 651.6,266.8 660.5,276.0 669.0,286.6 677.0,298.2 684.5,310.8 691.4,323.9 697.9,337.4 703.7,351.0 709.0,364.4 713.8,377.5 718.0,390.1 721.8,402.1 725.0,413.4 727.8,423.9 730.2,433.5 732.2,442.4 733.9,450.5 735.2,457.9 736.3,464.5 737.1,470.5 737.7,475.8 738.0,480.6 738.2,484.9 738.2,488.7 738.1,492.1 737.8,495.1 737.4,497.8 736.9,500.2 736.3,502.4 735.6,504.3 734.9,506.0 734.1,507.6 733.2,509.0 732.3,510.2 731.3,511.4 730.3,512.4 729.2,513.4 728.1,514.2 727.0,515.1 725.8,515.8 724.6,516.5 723.4,517.2 722.1,517.8 720.9,518.4 719.6,518.9 718.2,519.4 716.9,520.0 715.5,520.5 714.1,520.9 712.7,521.4 711.3,521.9 709.9,522.3 708.4,522.8 706.9,523.3 705.4,523.7 703.9,524.2 702.4,524.6 700.8,525.1 699.2,525.5 697.7,526.0 696.0,526.5 694.4,527.0 692.8,527.5 691.1,528.0 689.4,528.5 687.7,529.0 685.9,529.5 684.2,530.1 682.4,530.7 680.6,531.2 678.8,531.8 676.9,532.5 675.0,533.1 673.1,533.8 671.2,534.4 669.2,535.1 667.2,535.9 665.2,536.6 663.1,537.4 661.1,538.2 658.9,539.0 656.8,539.9 654.6,540.8 652.4,541.7 650.1,542.7 647.8,543.7 645.4,544.8 643.0,545.9 640.6,547.0 638.1,548.2 635.6,549.5 633.0,550.8 630.3,552.2 627.6,553.6 624.8,555.1 622.0,556.7 619.1,558.3 616.1,560.1 613.1,561.9 610.0,563.8 606.8,565.8 603.5,568.0 600.1,570.2 596.7,572.5 593.1,575.0 589.4,577.6 585.7,580.4 581.8,583.3 577.7,586.4 573.6,589.6 569.3,593.0 564.9,596.7 560.3,600.5 555.6,604.5 550.6,608.8 545.5,613.3 540.3,618.0 534.8,623.0 529.1,628.2 523.2,633.6 517.0,639.4 510.7,645.3 504.0,651.5 497.1,657.9 490.0,664.5 482.5,671.3 474.8,678.1 466.8,685.0 458.6,691.8 450.0,698.4 441.2,704.8 432.1,710.8 422.8,716.3 413.3,721.0 403.6,724.9 393.8,727.7 383.8,729.3 373.9,729.5 363.9,728.2 354.1,725.2 344.4,720.6 334.9,714.4 325.7,706.6 316.9,697.2 308.4,686.6 300.5,674.9 293.0,662.3 286.1,649.1 279.7,635.6 273.9,622.1 268.6,608.6 263.9,595.6 259.7,583.0 256.0,571.1 252.8,559.9 250.0,549.4 247.6,539.8 245.6,530.9 244.0,522.9 242.7,515.6 241.6,509.0 240.9,503.1 240.3,497.8 240.0,493.1 239.8,488.8 239.8,485.0 240.0,481.7 240.2,478.7 240.6,476.0 241.1,473.6 241.7,471.5 242.4,469.6 243.2,467.9 244.0,466.3 244.9,464.9 245.8,463.7 246.8,462.5 247.8,461.5 248.9,460.6 250.0,459.7 251.1,458.9 252.3,458.1 253.5,457.4 254.7,456.8 256.0,456.2 257.2,455.6 258.5,455.0 259.9,454.5 261.2,454.0 262.6,453.5 264.0,453.0 265.4,452.5 266.8,452.1 268.2,451.6 269.7,451.2 271.2,450.7 272.7,450.3 274.2,449.8 275.7,449.4 277.3,448.9 278.9,448.4 280.5,448.0 282.1,447.5 283.7,447.0 285.4,446.5 287.0,446.0 288.7,445.5 290.5,445.0 292.2,444.4 294.0,443.9 295.7,443.3 297.5,442.7 299.4,442.1 301.2,441.5 303.1,440.9 305.0,440.2 307.0,439.5 308.9,438.8 310.9,438.1 312.9,437.3 315.0,436.6 317.1,435.7 319.2,434.9 321.4,434.0 323.6,433.1 325.8,432.2 328.1,431.2 330.4,430.2 332.7,429.1 335.1,428.0 337.6,426.9 340.1,425.7 342.6,424.4 345.2,423.1 347.9,421.7 350.6,420.3 353.4,418.8 356.2,417.2 359.1,415.5 362.1,413.8 365.1,412.0 368.2,410.0 371.4,408.0 374.7,405.9 378.1,403.7 381.6,401.3 385.2,398.8 388.8,396.2 392.6,393.4 396.5,390.5 400.6,387.4 404.7,384.1 409.0,380.7 413.4,377.1 418.0,373.2 422.8,369.2 427.7,364.9 432.8,360.4 438.1,355.7 443.6,350.7 449.3,345.4 455.3,339.9 461.4,334.2 467.8,328.2 474.5,322.0 481.4,315.6 488.6,309.0 496.0,302.2 503.7,295.4 511.8,288.5 520.1,281.7 528.6,275.1 537.5,268.7 546.6,262.8 555.9,257.4 565.4,252.7 575.1,248.9 585.0,246.1 594.9,244.7 604.9,244.6 614.8,246.0 624.6,249.0 634.3,253.8 643.8,260.1 652.9,268.1 661.8,277.5 670.1,288.2 678.1,300.0 685.5,312.6 692.4,325.8 698.7,339.3 704.5,352.9 709.8,366.3 714.4,379.4 718.6,391.9 722.3,403.8 725.5,414.9 728.2,425.3 730.5,434.9 732.5,443.7 734.1,451.7 735.4,458.9 736.4,465.4 737.2,471.3 737.7,476.6 738.1,481.3 738.2,485.5 738.2,489.2 738.0,492.6 737.7,495.5 737.3,498.2 736.8,500.6 736.2,502.7 735.5,504.6 734.8,506.3 734.0,507.8 733.1,509.2 732.1,510.4 731.2,511.5 730.1,512.6 729.1,513.5 727.9,514.4 726.8,515.2 725.6,515.9 724.4,516.6 723.2,517.2 721.9,517.9 720.7,518.4 719.4,519.0 718.0,519.5 716.7,520.0 715.3,520.5 713.9,521.0 712.5,521.5 711.1,522.0 709.7,522.4 708.2,522.9 706.7,523.3 705.2,523.8 703.7,524.2 702.1,524.7 700.6,525.1 699.0,525.6 697.4,526.1 695.8,526.6 694.2,527.0 692.5,527.5 690.8,528.0 689.1,528.6 687.4,529.1 685.7,529.6 683.9,530.2 682.1,530.7 680.3,531.3 678.5,531.9 676.6,532.6 674.7,533.2 672.8,533.9 670.9,534.5 668.9,535.2 666.9,536.0 664.9,536.7 662.8,537.5 660.8,538.3 658.6,539.2 656.5,540.0 654.3,540.9 652.0,541.9 649.8,542.9 647.4,543.9 645.1,544.9" fill="none" stroke="#4ade80" stroke-width="2.6" stroke-opacity="0.72" stroke-linejoin="round" stroke-linecap="round"/>
<circle cx="489.0" cy="487.0" r="6.0" fill="#f8fafc" opacity="1.0"/>
<text x="118.0" y="842.0" class="small" text-anchor="start">Generated from a standard-library Python gallery: vector field + nullclines + trajectories.</text>
</svg>
