<svg xmlns="http://www.w3.org/2000/svg" viewBox="0 0 1280 860">
<defs>
  <linearGradient id="bg" x1="0" y1="0" x2="1" y2="1">
    <stop offset="0%" stop-color="#081018"/>
    <stop offset="100%" stop-color="#101d2a"/>
  </linearGradient>
  <style>
    .title { font: 700 34px Helvetica, Arial, sans-serif; fill: #e6edf3; }
    .subtitle { font: 500 18px Helvetica, Arial, sans-serif; fill: #9fb3c8; }
    .label { font: 700 20px Helvetica, Arial, sans-serif; fill: #dce7f3; }
    .small { font: 500 15px Helvetica, Arial, sans-serif; fill: #9fb3c8; }
    .tiny { font: 500 13px Helvetica, Arial, sans-serif; fill: #8aa3bc; }
    .panel { fill: #122131; stroke: #5e7fa3; stroke-width: 2; rx: 18; }
    .grid { stroke: #223445; stroke-width: 1; opacity: 0.8; }
    .axis { stroke: #39516a; stroke-width: 2; }
  </style>
</defs>
<rect width="1280" height="860" fill="url(#bg)"/>
<rect x="60" y="120" width="1160" height="690" rx="18" class="panel"/>
<text x="90.0" y="68.0" class="title" text-anchor="start">Van der Pol oscillator</text>
<text x="90.0" y="98.0" class="subtitle" text-anchor="start">A self-excited oscillator that pushes outward near the origin and damps harder at larger amplitude.</text>
<text x="930.0" y="185.0" class="label" text-anchor="start">Legend</text>
<text x="968.0" y="232.0" class="small" text-anchor="start">trajectories</text>
<text x="968.0" y="268.0" class="small" text-anchor="start">dx/dt = 0</text>
<text x="968.0" y="304.0" class="small" text-anchor="start">dy/dt = 0</text>
<text x="968.0" y="340.0" class="small" text-anchor="start">fixed points</text>
<circle cx="940.0" cy="224.0" r="8.0" fill="#4ade80" opacity="1.0"/>
<line x1="924.0" y1="260.0" x2="956.0" y2="260.0" stroke="#f97316" stroke-width="4" opacity="1.0"/>
<line x1="924.0" y1="296.0" x2="956.0" y2="296.0" stroke="#60a5fa" stroke-width="4" opacity="1.0"/>
<circle cx="940.0" cy="336.0" r="7.0" fill="#f8fafc" opacity="1.0"/>
<text x="930.0" y="392.0" class="label" text-anchor="start">How to read it</text>
<text x="930.0" y="422.0" class="small" text-anchor="start">The arrows show the local flow.</text>
<text x="930.0" y="446.0" class="small" text-anchor="start">The colored curves show where one derivative vanishes.</text>
<text x="930.0" y="470.0" class="small" text-anchor="start">Trajectories reveal whether the fixed point attracts, spirals, or closes into an orbit.</text>
<text x="930.0" y="528.0" class="label" text-anchor="start">Local fixed-point readout</text>
<text x="930.0" y="558.0" class="small" text-anchor="start">1. (0.00, 0.00) → unstable spiral</text>
<text x="950.0" y="580.0" class="tiny" text-anchor="start">λ = 0.75+0.66i, 0.75-0.66i</text>
<line x1="110.0" y1="170.0" x2="110.0" y2="760.0" stroke="#223445" stroke-width="1" opacity="1.0"/>
<text x="110.0" y="788.0" class="tiny" text-anchor="middle">-3.0</text>
<line x1="260.0" y1="170.0" x2="260.0" y2="760.0" stroke="#223445" stroke-width="1" opacity="1.0"/>
<text x="260.0" y="788.0" class="tiny" text-anchor="middle">-1.8</text>
<line x1="410.0" y1="170.0" x2="410.0" y2="760.0" stroke="#223445" stroke-width="1" opacity="1.0"/>
<text x="410.0" y="788.0" class="tiny" text-anchor="middle">-0.6</text>
<line x1="560.0" y1="170.0" x2="560.0" y2="760.0" stroke="#223445" stroke-width="1" opacity="1.0"/>
<text x="560.0" y="788.0" class="tiny" text-anchor="middle">0.6</text>
<line x1="710.0" y1="170.0" x2="710.0" y2="760.0" stroke="#223445" stroke-width="1" opacity="1.0"/>
<text x="710.0" y="788.0" class="tiny" text-anchor="middle">1.8</text>
<line x1="860.0" y1="170.0" x2="860.0" y2="760.0" stroke="#223445" stroke-width="1" opacity="1.0"/>
<text x="860.0" y="788.0" class="tiny" text-anchor="middle">3.0</text>
<line x1="110.0" y1="760.0" x2="860.0" y2="760.0" stroke="#223445" stroke-width="1" opacity="1.0"/>
<text x="92.0" y="764.0" class="tiny" text-anchor="end">-4.0</text>
<line x1="110.0" y1="642.0" x2="860.0" y2="642.0" stroke="#223445" stroke-width="1" opacity="1.0"/>
<text x="92.0" y="646.0" class="tiny" text-anchor="end">-2.4</text>
<line x1="110.0" y1="524.0" x2="860.0" y2="524.0" stroke="#223445" stroke-width="1" opacity="1.0"/>
<text x="92.0" y="528.0" class="tiny" text-anchor="end">-0.8</text>
<line x1="110.0" y1="406.0" x2="860.0" y2="406.0" stroke="#223445" stroke-width="1" opacity="1.0"/>
<text x="92.0" y="410.0" class="tiny" text-anchor="end">0.8</text>
<line x1="110.0" y1="288.0" x2="860.0" y2="288.0" stroke="#223445" stroke-width="1" opacity="1.0"/>
<text x="92.0" y="292.0" class="tiny" text-anchor="end">2.4</text>
<line x1="110.0" y1="170.0" x2="860.0" y2="170.0" stroke="#223445" stroke-width="1" opacity="1.0"/>
<text x="92.0" y="174.0" class="tiny" text-anchor="end">4.0</text>
<line x1="485.0" y1="170.0" x2="485.0" y2="760.0" stroke="#39516a" stroke-width="2" opacity="1.0"/>
<line x1="110.0" y1="465.0" x2="860.0" y2="465.0" stroke="#39516a" stroke-width="2" opacity="1.0"/>
<line x1="110.0" y1="760.0" x2="108.8" y2="748.2" stroke="#4b6580" stroke-width="1.4" opacity="0.9"/>
<line x1="110.0" y1="710.8" x2="108.8" y2="699.1" stroke="#4b6580" stroke-width="1.4" opacity="0.9"/>
<line x1="110.0" y1="661.7" x2="108.9" y2="649.9" stroke="#4b6580" stroke-width="1.4" opacity="0.9"/>
<line x1="110.0" y1="612.5" x2="108.9" y2="600.7" stroke="#4b6580" stroke-width="1.4" opacity="0.9"/>
<line x1="110.0" y1="563.3" x2="108.9" y2="551.6" stroke="#4b6580" stroke-width="1.4" opacity="0.9"/>
<line x1="110.0" y1="514.2" x2="109.1" y2="502.4" stroke="#4b6580" stroke-width="1.4" opacity="0.9"/>
<line x1="110.0" y1="465.0" x2="110.0" y2="453.2" stroke="#4b6580" stroke-width="1.4" opacity="0.9"/>
<line x1="110.0" y1="415.8" x2="112.0" y2="427.5" stroke="#4b6580" stroke-width="1.4" opacity="0.9"/>
<line x1="110.0" y1="366.7" x2="111.5" y2="378.4" stroke="#4b6580" stroke-width="1.4" opacity="0.9"/>
<line x1="110.0" y1="317.5" x2="111.4" y2="329.2" stroke="#4b6580" stroke-width="1.4" opacity="0.9"/>
<line x1="110.0" y1="268.3" x2="111.4" y2="280.1" stroke="#4b6580" stroke-width="1.4" opacity="0.9"/>
<line x1="110.0" y1="219.2" x2="111.3" y2="230.9" stroke="#4b6580" stroke-width="1.4" opacity="0.9"/>
<line x1="110.0" y1="170.0" x2="111.3" y2="181.8" stroke="#4b6580" stroke-width="1.4" opacity="0.9"/>
<line x1="156.9" y1="760.0" x2="155.3" y2="748.3" stroke="#4b6580" stroke-width="1.4" opacity="0.9"/>
<line x1="156.9" y1="710.8" x2="155.3" y2="699.1" stroke="#4b6580" stroke-width="1.4" opacity="0.9"/>
<line x1="156.9" y1="661.7" x2="155.4" y2="649.9" stroke="#4b6580" stroke-width="1.4" opacity="0.9"/>
<line x1="156.9" y1="612.5" x2="155.4" y2="600.8" stroke="#4b6580" stroke-width="1.4" opacity="0.9"/>
<line x1="156.9" y1="563.3" x2="155.5" y2="551.6" stroke="#4b6580" stroke-width="1.4" opacity="0.9"/>
<line x1="156.9" y1="514.2" x2="155.7" y2="502.4" stroke="#4b6580" stroke-width="1.4" opacity="0.9"/>
<line x1="156.9" y1="465.0" x2="156.9" y2="453.2" stroke="#4b6580" stroke-width="1.4" opacity="0.9"/>
<line x1="156.9" y1="415.8" x2="159.9" y2="427.4" stroke="#4b6580" stroke-width="1.4" opacity="0.9"/>
<line x1="156.9" y1="366.7" x2="159.0" y2="378.3" stroke="#4b6580" stroke-width="1.4" opacity="0.9"/>
<line x1="156.9" y1="317.5" x2="158.9" y2="329.2" stroke="#4b6580" stroke-width="1.4" opacity="0.9"/>
<line x1="156.9" y1="268.3" x2="158.8" y2="280.0" stroke="#4b6580" stroke-width="1.4" opacity="0.9"/>
<line x1="156.9" y1="219.2" x2="158.7" y2="230.9" stroke="#4b6580" stroke-width="1.4" opacity="0.9"/>
<line x1="156.9" y1="170.0" x2="158.7" y2="181.7" stroke="#4b6580" stroke-width="1.4" opacity="0.9"/>
<line x1="203.8" y1="760.0" x2="201.5" y2="748.3" stroke="#4b6580" stroke-width="1.4" opacity="0.9"/>
<line x1="203.8" y1="710.8" x2="201.6" y2="699.2" stroke="#4b6580" stroke-width="1.4" opacity="0.9"/>
<line x1="203.8" y1="661.7" x2="201.6" y2="650.0" stroke="#4b6580" stroke-width="1.4" opacity="0.9"/>
<line x1="203.8" y1="612.5" x2="201.7" y2="600.8" stroke="#4b6580" stroke-width="1.4" opacity="0.9"/>
<line x1="203.8" y1="563.3" x2="201.8" y2="551.6" stroke="#4b6580" stroke-width="1.4" opacity="0.9"/>
<line x1="203.8" y1="514.2" x2="202.2" y2="502.4" stroke="#4b6580" stroke-width="1.4" opacity="0.9"/>
<line x1="203.8" y1="465.0" x2="203.8" y2="453.2" stroke="#4b6580" stroke-width="1.4" opacity="0.9"/>
<line x1="203.8" y1="415.8" x2="208.9" y2="426.9" stroke="#4b6580" stroke-width="1.4" opacity="0.9"/>
<line x1="203.8" y1="366.7" x2="207.1" y2="378.2" stroke="#4b6580" stroke-width="1.4" opacity="0.9"/>
<line x1="203.8" y1="317.5" x2="206.7" y2="329.1" stroke="#4b6580" stroke-width="1.4" opacity="0.9"/>
<line x1="203.8" y1="268.3" x2="206.6" y2="279.9" stroke="#4b6580" stroke-width="1.4" opacity="0.9"/>
<line x1="203.8" y1="219.2" x2="206.5" y2="230.8" stroke="#4b6580" stroke-width="1.4" opacity="0.9"/>
<line x1="203.8" y1="170.0" x2="206.4" y2="181.6" stroke="#4b6580" stroke-width="1.4" opacity="0.9"/>
<line x1="250.6" y1="760.0" x2="247.2" y2="748.5" stroke="#4b6580" stroke-width="1.4" opacity="0.9"/>
<line x1="250.6" y1="710.8" x2="247.3" y2="699.3" stroke="#4b6580" stroke-width="1.4" opacity="0.9"/>
<line x1="250.6" y1="661.7" x2="247.4" y2="650.2" stroke="#4b6580" stroke-width="1.4" opacity="0.9"/>
<line x1="250.6" y1="612.5" x2="247.5" y2="601.0" stroke="#4b6580" stroke-width="1.4" opacity="0.9"/>
<line x1="250.6" y1="563.3" x2="247.8" y2="551.7" stroke="#4b6580" stroke-width="1.4" opacity="0.9"/>
<line x1="250.6" y1="514.2" x2="248.4" y2="502.5" stroke="#4b6580" stroke-width="1.4" opacity="0.9"/>
<line x1="250.6" y1="465.0" x2="250.6" y2="453.2" stroke="#4b6580" stroke-width="1.4" opacity="0.9"/>
<line x1="250.6" y1="415.8" x2="261.4" y2="424.0" stroke="#4b6580" stroke-width="1.4" opacity="0.9"/>
<line x1="250.6" y1="366.7" x2="256.5" y2="377.5" stroke="#4b6580" stroke-width="1.4" opacity="0.9"/>
<line x1="250.6" y1="317.5" x2="255.6" y2="328.6" stroke="#4b6580" stroke-width="1.4" opacity="0.9"/>
<line x1="250.6" y1="268.3" x2="255.3" y2="279.6" stroke="#4b6580" stroke-width="1.4" opacity="0.9"/>
<line x1="250.6" y1="219.2" x2="255.1" y2="230.4" stroke="#4b6580" stroke-width="1.4" opacity="0.9"/>
<line x1="250.6" y1="170.0" x2="255.0" y2="181.3" stroke="#4b6580" stroke-width="1.4" opacity="0.9"/>
<line x1="297.5" y1="760.0" x2="291.4" y2="749.2" stroke="#4b6580" stroke-width="1.4" opacity="0.9"/>
<line x1="297.5" y1="710.8" x2="291.6" y2="700.0" stroke="#4b6580" stroke-width="1.4" opacity="0.9"/>
<line x1="297.5" y1="661.7" x2="291.8" y2="650.7" stroke="#4b6580" stroke-width="1.4" opacity="0.9"/>
<line x1="297.5" y1="612.5" x2="292.2" y2="601.5" stroke="#4b6580" stroke-width="1.4" opacity="0.9"/>
<line x1="297.5" y1="563.3" x2="292.8" y2="552.1" stroke="#4b6580" stroke-width="1.4" opacity="0.9"/>
<line x1="297.5" y1="514.2" x2="294.0" y2="502.7" stroke="#4b6580" stroke-width="1.4" opacity="0.9"/>
<line x1="297.5" y1="465.0" x2="297.5" y2="453.2" stroke="#4b6580" stroke-width="1.4" opacity="0.9"/>
<line x1="297.5" y1="415.8" x2="311.5" y2="411.7" stroke="#4b6580" stroke-width="1.4" opacity="0.9"/>
<line x1="297.5" y1="366.7" x2="309.5" y2="373.7" stroke="#4b6580" stroke-width="1.4" opacity="0.9"/>
<line x1="297.5" y1="317.5" x2="307.5" y2="326.3" stroke="#4b6580" stroke-width="1.4" opacity="0.9"/>
<line x1="297.5" y1="268.3" x2="306.6" y2="277.7" stroke="#4b6580" stroke-width="1.4" opacity="0.9"/>
<line x1="297.5" y1="219.2" x2="306.1" y2="228.8" stroke="#4b6580" stroke-width="1.4" opacity="0.9"/>
<line x1="297.5" y1="170.0" x2="305.8" y2="179.8" stroke="#4b6580" stroke-width="1.4" opacity="0.9"/>
<line x1="344.4" y1="760.0" x2="332.0" y2="753.4" stroke="#4b6580" stroke-width="1.4" opacity="0.9"/>
<line x1="344.4" y1="710.8" x2="332.3" y2="703.8" stroke="#4b6580" stroke-width="1.4" opacity="0.9"/>
<line x1="344.4" y1="661.7" x2="332.8" y2="654.2" stroke="#4b6580" stroke-width="1.4" opacity="0.9"/>
<line x1="344.4" y1="612.5" x2="333.6" y2="604.3" stroke="#4b6580" stroke-width="1.4" opacity="0.9"/>
<line x1="344.4" y1="563.3" x2="335.0" y2="554.1" stroke="#4b6580" stroke-width="1.4" opacity="0.9"/>
<line x1="344.4" y1="514.2" x2="337.9" y2="503.5" stroke="#4b6580" stroke-width="1.4" opacity="0.9"/>
<line x1="344.4" y1="465.0" x2="344.4" y2="453.2" stroke="#4b6580" stroke-width="1.4" opacity="0.9"/>
<line x1="344.4" y1="415.8" x2="353.6" y2="406.5" stroke="#4b6580" stroke-width="1.4" opacity="0.9"/>
<line x1="344.4" y1="366.7" x2="358.1" y2="361.9" stroke="#4b6580" stroke-width="1.4" opacity="0.9"/>
<line x1="344.4" y1="317.5" x2="359.2" y2="315.6" stroke="#4b6580" stroke-width="1.4" opacity="0.9"/>
<line x1="344.4" y1="268.3" x2="359.4" y2="268.1" stroke="#4b6580" stroke-width="1.4" opacity="0.9"/>
<line x1="344.4" y1="219.2" x2="359.3" y2="219.9" stroke="#4b6580" stroke-width="1.4" opacity="0.9"/>
<line x1="344.4" y1="170.0" x2="359.3" y2="171.4" stroke="#4b6580" stroke-width="1.4" opacity="0.9"/>
<line x1="391.2" y1="760.0" x2="377.7" y2="765.0" stroke="#4b6580" stroke-width="1.4" opacity="0.9"/>
<line x1="391.2" y1="710.8" x2="377.5" y2="715.5" stroke="#4b6580" stroke-width="1.4" opacity="0.9"/>
<line x1="391.2" y1="661.7" x2="377.2" y2="665.8" stroke="#4b6580" stroke-width="1.4" opacity="0.9"/>
<line x1="391.2" y1="612.5" x2="376.8" y2="615.7" stroke="#4b6580" stroke-width="1.4" opacity="0.9"/>
<line x1="391.2" y1="563.3" x2="376.3" y2="564.4" stroke="#4b6580" stroke-width="1.4" opacity="0.9"/>
<line x1="391.2" y1="514.2" x2="377.7" y2="509.2" stroke="#4b6580" stroke-width="1.4" opacity="0.9"/>
<line x1="391.2" y1="465.0" x2="391.2" y2="453.2" stroke="#4b6580" stroke-width="1.4" opacity="0.9"/>
<line x1="391.2" y1="415.8" x2="398.6" y2="405.5" stroke="#4b6580" stroke-width="1.4" opacity="0.9"/>
<line x1="391.2" y1="366.7" x2="400.8" y2="357.5" stroke="#4b6580" stroke-width="1.4" opacity="0.9"/>
<line x1="391.2" y1="317.5" x2="401.7" y2="309.0" stroke="#4b6580" stroke-width="1.4" opacity="0.9"/>
<line x1="391.2" y1="268.3" x2="402.2" y2="260.3" stroke="#4b6580" stroke-width="1.4" opacity="0.9"/>
<line x1="391.2" y1="219.2" x2="402.5" y2="211.4" stroke="#4b6580" stroke-width="1.4" opacity="0.9"/>
<line x1="391.2" y1="170.0" x2="402.7" y2="162.4" stroke="#4b6580" stroke-width="1.4" opacity="0.9"/>
<line x1="438.1" y1="760.0" x2="428.5" y2="769.1" stroke="#4b6580" stroke-width="1.4" opacity="0.9"/>
<line x1="438.1" y1="710.8" x2="428.4" y2="719.8" stroke="#4b6580" stroke-width="1.4" opacity="0.9"/>
<line x1="438.1" y1="661.7" x2="428.3" y2="670.6" stroke="#4b6580" stroke-width="1.4" opacity="0.9"/>
<line x1="438.1" y1="612.5" x2="428.0" y2="621.2" stroke="#4b6580" stroke-width="1.4" opacity="0.9"/>
<line x1="438.1" y1="563.3" x2="427.6" y2="571.7" stroke="#4b6580" stroke-width="1.4" opacity="0.9"/>
<line x1="438.1" y1="514.2" x2="426.0" y2="521.1" stroke="#4b6580" stroke-width="1.4" opacity="0.9"/>
<line x1="438.1" y1="465.0" x2="438.1" y2="453.2" stroke="#4b6580" stroke-width="1.4" opacity="0.9"/>
<line x1="438.1" y1="415.8" x2="445.3" y2="405.5" stroke="#4b6580" stroke-width="1.4" opacity="0.9"/>
<line x1="438.1" y1="366.7" x2="446.2" y2="356.7" stroke="#4b6580" stroke-width="1.4" opacity="0.9"/>
<line x1="438.1" y1="317.5" x2="446.5" y2="307.7" stroke="#4b6580" stroke-width="1.4" opacity="0.9"/>
<line x1="438.1" y1="268.3" x2="446.7" y2="258.7" stroke="#4b6580" stroke-width="1.4" opacity="0.9"/>
<line x1="438.1" y1="219.2" x2="446.8" y2="209.6" stroke="#4b6580" stroke-width="1.4" opacity="0.9"/>
<line x1="438.1" y1="170.0" x2="446.9" y2="160.4" stroke="#4b6580" stroke-width="1.4" opacity="0.9"/>
<line x1="485.0" y1="760.0" x2="476.7" y2="769.8" stroke="#4b6580" stroke-width="1.4" opacity="0.9"/>
<line x1="485.0" y1="710.8" x2="476.7" y2="720.7" stroke="#4b6580" stroke-width="1.4" opacity="0.9"/>
<line x1="485.0" y1="661.7" x2="476.7" y2="671.5" stroke="#4b6580" stroke-width="1.4" opacity="0.9"/>
<line x1="485.0" y1="612.5" x2="476.7" y2="622.3" stroke="#4b6580" stroke-width="1.4" opacity="0.9"/>
<line x1="485.0" y1="563.3" x2="476.7" y2="573.2" stroke="#4b6580" stroke-width="1.4" opacity="0.9"/>
<line x1="485.0" y1="514.2" x2="476.7" y2="524.0" stroke="#4b6580" stroke-width="1.4" opacity="0.9"/>
<line x1="485.0" y1="415.8" x2="493.3" y2="406.0" stroke="#4b6580" stroke-width="1.4" opacity="0.9"/>
<line x1="485.0" y1="366.7" x2="493.3" y2="356.8" stroke="#4b6580" stroke-width="1.4" opacity="0.9"/>
<line x1="485.0" y1="317.5" x2="493.3" y2="307.7" stroke="#4b6580" stroke-width="1.4" opacity="0.9"/>
<line x1="485.0" y1="268.3" x2="493.3" y2="258.5" stroke="#4b6580" stroke-width="1.4" opacity="0.9"/>
<line x1="485.0" y1="219.2" x2="493.3" y2="209.3" stroke="#4b6580" stroke-width="1.4" opacity="0.9"/>
<line x1="485.0" y1="170.0" x2="493.3" y2="160.2" stroke="#4b6580" stroke-width="1.4" opacity="0.9"/>
<line x1="531.9" y1="760.0" x2="523.1" y2="769.6" stroke="#4b6580" stroke-width="1.4" opacity="0.9"/>
<line x1="531.9" y1="710.8" x2="523.2" y2="720.4" stroke="#4b6580" stroke-width="1.4" opacity="0.9"/>
<line x1="531.9" y1="661.7" x2="523.3" y2="671.3" stroke="#4b6580" stroke-width="1.4" opacity="0.9"/>
<line x1="531.9" y1="612.5" x2="523.5" y2="622.3" stroke="#4b6580" stroke-width="1.4" opacity="0.9"/>
<line x1="531.9" y1="563.3" x2="523.8" y2="573.3" stroke="#4b6580" stroke-width="1.4" opacity="0.9"/>
<line x1="531.9" y1="514.2" x2="524.7" y2="524.5" stroke="#4b6580" stroke-width="1.4" opacity="0.9"/>
<line x1="531.9" y1="465.0" x2="531.9" y2="476.8" stroke="#4b6580" stroke-width="1.4" opacity="0.9"/>
<line x1="531.9" y1="415.8" x2="544.0" y2="408.9" stroke="#4b6580" stroke-width="1.4" opacity="0.9"/>
<line x1="531.9" y1="366.7" x2="542.4" y2="358.3" stroke="#4b6580" stroke-width="1.4" opacity="0.9"/>
<line x1="531.9" y1="317.5" x2="542.0" y2="308.8" stroke="#4b6580" stroke-width="1.4" opacity="0.9"/>
<line x1="531.9" y1="268.3" x2="541.7" y2="259.4" stroke="#4b6580" stroke-width="1.4" opacity="0.9"/>
<line x1="531.9" y1="219.2" x2="541.6" y2="210.2" stroke="#4b6580" stroke-width="1.4" opacity="0.9"/>
<line x1="531.9" y1="170.0" x2="541.5" y2="160.9" stroke="#4b6580" stroke-width="1.4" opacity="0.9"/>
<line x1="578.8" y1="760.0" x2="567.3" y2="767.6" stroke="#4b6580" stroke-width="1.4" opacity="0.9"/>
<line x1="578.8" y1="710.8" x2="567.5" y2="718.6" stroke="#4b6580" stroke-width="1.4" opacity="0.9"/>
<line x1="578.8" y1="661.7" x2="567.8" y2="669.7" stroke="#4b6580" stroke-width="1.4" opacity="0.9"/>
<line x1="578.8" y1="612.5" x2="568.3" y2="621.0" stroke="#4b6580" stroke-width="1.4" opacity="0.9"/>
<line x1="578.8" y1="563.3" x2="569.2" y2="572.5" stroke="#4b6580" stroke-width="1.4" opacity="0.9"/>
<line x1="578.8" y1="514.2" x2="571.4" y2="524.5" stroke="#4b6580" stroke-width="1.4" opacity="0.9"/>
<line x1="578.8" y1="465.0" x2="578.8" y2="476.8" stroke="#4b6580" stroke-width="1.4" opacity="0.9"/>
<line x1="578.8" y1="415.8" x2="592.3" y2="420.8" stroke="#4b6580" stroke-width="1.4" opacity="0.9"/>
<line x1="578.8" y1="366.7" x2="593.7" y2="365.6" stroke="#4b6580" stroke-width="1.4" opacity="0.9"/>
<line x1="578.8" y1="317.5" x2="593.2" y2="314.3" stroke="#4b6580" stroke-width="1.4" opacity="0.9"/>
<line x1="578.8" y1="268.3" x2="592.8" y2="264.2" stroke="#4b6580" stroke-width="1.4" opacity="0.9"/>
<line x1="578.8" y1="219.2" x2="592.5" y2="214.5" stroke="#4b6580" stroke-width="1.4" opacity="0.9"/>
<line x1="578.8" y1="170.0" x2="592.3" y2="165.0" stroke="#4b6580" stroke-width="1.4" opacity="0.9"/>
<line x1="625.6" y1="760.0" x2="610.7" y2="758.6" stroke="#4b6580" stroke-width="1.4" opacity="0.9"/>
<line x1="625.6" y1="710.8" x2="610.7" y2="710.1" stroke="#4b6580" stroke-width="1.4" opacity="0.9"/>
<line x1="625.6" y1="661.7" x2="610.6" y2="661.9" stroke="#4b6580" stroke-width="1.4" opacity="0.9"/>
<line x1="625.6" y1="612.5" x2="610.8" y2="614.4" stroke="#4b6580" stroke-width="1.4" opacity="0.9"/>
<line x1="625.6" y1="563.3" x2="611.9" y2="568.1" stroke="#4b6580" stroke-width="1.4" opacity="0.9"/>
<line x1="625.6" y1="514.2" x2="616.4" y2="523.5" stroke="#4b6580" stroke-width="1.4" opacity="0.9"/>
<line x1="625.6" y1="465.0" x2="625.6" y2="476.8" stroke="#4b6580" stroke-width="1.4" opacity="0.9"/>
<line x1="625.6" y1="415.8" x2="632.1" y2="426.5" stroke="#4b6580" stroke-width="1.4" opacity="0.9"/>
<line x1="625.6" y1="366.7" x2="635.0" y2="375.9" stroke="#4b6580" stroke-width="1.4" opacity="0.9"/>
<line x1="625.6" y1="317.5" x2="636.4" y2="325.7" stroke="#4b6580" stroke-width="1.4" opacity="0.9"/>
<line x1="625.6" y1="268.3" x2="637.2" y2="275.8" stroke="#4b6580" stroke-width="1.4" opacity="0.9"/>
<line x1="625.6" y1="219.2" x2="637.7" y2="226.2" stroke="#4b6580" stroke-width="1.4" opacity="0.9"/>
<line x1="625.6" y1="170.0" x2="638.0" y2="176.6" stroke="#4b6580" stroke-width="1.4" opacity="0.9"/>
<line x1="672.5" y1="760.0" x2="664.2" y2="750.2" stroke="#4b6580" stroke-width="1.4" opacity="0.9"/>
<line x1="672.5" y1="710.8" x2="663.9" y2="701.2" stroke="#4b6580" stroke-width="1.4" opacity="0.9"/>
<line x1="672.5" y1="661.7" x2="663.4" y2="652.3" stroke="#4b6580" stroke-width="1.4" opacity="0.9"/>
<line x1="672.5" y1="612.5" x2="662.5" y2="603.7" stroke="#4b6580" stroke-width="1.4" opacity="0.9"/>
<line x1="672.5" y1="563.3" x2="660.5" y2="556.3" stroke="#4b6580" stroke-width="1.4" opacity="0.9"/>
<line x1="672.5" y1="514.2" x2="658.5" y2="518.3" stroke="#4b6580" stroke-width="1.4" opacity="0.9"/>
<line x1="672.5" y1="465.0" x2="672.5" y2="476.8" stroke="#4b6580" stroke-width="1.4" opacity="0.9"/>
<line x1="672.5" y1="415.8" x2="676.0" y2="427.3" stroke="#4b6580" stroke-width="1.4" opacity="0.9"/>
<line x1="672.5" y1="366.7" x2="677.2" y2="377.9" stroke="#4b6580" stroke-width="1.4" opacity="0.9"/>
<line x1="672.5" y1="317.5" x2="677.8" y2="328.5" stroke="#4b6580" stroke-width="1.4" opacity="0.9"/>
<line x1="672.5" y1="268.3" x2="678.2" y2="279.3" stroke="#4b6580" stroke-width="1.4" opacity="0.9"/>
<line x1="672.5" y1="219.2" x2="678.4" y2="230.0" stroke="#4b6580" stroke-width="1.4" opacity="0.9"/>
<line x1="672.5" y1="170.0" x2="678.6" y2="180.8" stroke="#4b6580" stroke-width="1.4" opacity="0.9"/>
<line x1="719.4" y1="760.0" x2="715.0" y2="748.7" stroke="#4b6580" stroke-width="1.4" opacity="0.9"/>
<line x1="719.4" y1="710.8" x2="714.9" y2="699.6" stroke="#4b6580" stroke-width="1.4" opacity="0.9"/>
<line x1="719.4" y1="661.7" x2="714.7" y2="650.4" stroke="#4b6580" stroke-width="1.4" opacity="0.9"/>
<line x1="719.4" y1="612.5" x2="714.4" y2="601.4" stroke="#4b6580" stroke-width="1.4" opacity="0.9"/>
<line x1="719.4" y1="563.3" x2="713.5" y2="552.5" stroke="#4b6580" stroke-width="1.4" opacity="0.9"/>
<line x1="719.4" y1="514.2" x2="708.6" y2="506.0" stroke="#4b6580" stroke-width="1.4" opacity="0.9"/>
<line x1="719.4" y1="465.0" x2="719.4" y2="476.8" stroke="#4b6580" stroke-width="1.4" opacity="0.9"/>
<line x1="719.4" y1="415.8" x2="721.6" y2="427.5" stroke="#4b6580" stroke-width="1.4" opacity="0.9"/>
<line x1="719.4" y1="366.7" x2="722.2" y2="378.3" stroke="#4b6580" stroke-width="1.4" opacity="0.9"/>
<line x1="719.4" y1="317.5" x2="722.5" y2="329.0" stroke="#4b6580" stroke-width="1.4" opacity="0.9"/>
<line x1="719.4" y1="268.3" x2="722.6" y2="279.8" stroke="#4b6580" stroke-width="1.4" opacity="0.9"/>
<line x1="719.4" y1="219.2" x2="722.7" y2="230.7" stroke="#4b6580" stroke-width="1.4" opacity="0.9"/>
<line x1="719.4" y1="170.0" x2="722.8" y2="181.5" stroke="#4b6580" stroke-width="1.4" opacity="0.9"/>
<line x1="766.2" y1="760.0" x2="763.6" y2="748.4" stroke="#4b6580" stroke-width="1.4" opacity="0.9"/>
<line x1="766.2" y1="710.8" x2="763.5" y2="699.2" stroke="#4b6580" stroke-width="1.4" opacity="0.9"/>
<line x1="766.2" y1="661.7" x2="763.4" y2="650.1" stroke="#4b6580" stroke-width="1.4" opacity="0.9"/>
<line x1="766.2" y1="612.5" x2="763.3" y2="600.9" stroke="#4b6580" stroke-width="1.4" opacity="0.9"/>
<line x1="766.2" y1="563.3" x2="762.9" y2="551.8" stroke="#4b6580" stroke-width="1.4" opacity="0.9"/>
<line x1="766.2" y1="514.2" x2="761.1" y2="503.1" stroke="#4b6580" stroke-width="1.4" opacity="0.9"/>
<line x1="766.2" y1="465.0" x2="766.2" y2="476.8" stroke="#4b6580" stroke-width="1.4" opacity="0.9"/>
<line x1="766.2" y1="415.8" x2="767.8" y2="427.6" stroke="#4b6580" stroke-width="1.4" opacity="0.9"/>
<line x1="766.2" y1="366.7" x2="768.2" y2="378.4" stroke="#4b6580" stroke-width="1.4" opacity="0.9"/>
<line x1="766.2" y1="317.5" x2="768.3" y2="329.2" stroke="#4b6580" stroke-width="1.4" opacity="0.9"/>
<line x1="766.2" y1="268.3" x2="768.4" y2="280.0" stroke="#4b6580" stroke-width="1.4" opacity="0.9"/>
<line x1="766.2" y1="219.2" x2="768.4" y2="230.8" stroke="#4b6580" stroke-width="1.4" opacity="0.9"/>
<line x1="766.2" y1="170.0" x2="768.5" y2="181.7" stroke="#4b6580" stroke-width="1.4" opacity="0.9"/>
<line x1="813.1" y1="760.0" x2="811.3" y2="748.3" stroke="#4b6580" stroke-width="1.4" opacity="0.9"/>
<line x1="813.1" y1="710.8" x2="811.3" y2="699.1" stroke="#4b6580" stroke-width="1.4" opacity="0.9"/>
<line x1="813.1" y1="661.7" x2="811.2" y2="650.0" stroke="#4b6580" stroke-width="1.4" opacity="0.9"/>
<line x1="813.1" y1="612.5" x2="811.1" y2="600.8" stroke="#4b6580" stroke-width="1.4" opacity="0.9"/>
<line x1="813.1" y1="563.3" x2="811.0" y2="551.7" stroke="#4b6580" stroke-width="1.4" opacity="0.9"/>
<line x1="813.1" y1="514.2" x2="810.1" y2="502.6" stroke="#4b6580" stroke-width="1.4" opacity="0.9"/>
<line x1="813.1" y1="465.0" x2="813.1" y2="476.8" stroke="#4b6580" stroke-width="1.4" opacity="0.9"/>
<line x1="813.1" y1="415.8" x2="814.3" y2="427.6" stroke="#4b6580" stroke-width="1.4" opacity="0.9"/>
<line x1="813.1" y1="366.7" x2="814.5" y2="378.4" stroke="#4b6580" stroke-width="1.4" opacity="0.9"/>
<line x1="813.1" y1="317.5" x2="814.6" y2="329.2" stroke="#4b6580" stroke-width="1.4" opacity="0.9"/>
<line x1="813.1" y1="268.3" x2="814.6" y2="280.1" stroke="#4b6580" stroke-width="1.4" opacity="0.9"/>
<line x1="813.1" y1="219.2" x2="814.7" y2="230.9" stroke="#4b6580" stroke-width="1.4" opacity="0.9"/>
<line x1="813.1" y1="170.0" x2="814.7" y2="181.7" stroke="#4b6580" stroke-width="1.4" opacity="0.9"/>
<line x1="860.0" y1="760.0" x2="858.7" y2="748.2" stroke="#4b6580" stroke-width="1.4" opacity="0.9"/>
<line x1="860.0" y1="710.8" x2="858.7" y2="699.1" stroke="#4b6580" stroke-width="1.4" opacity="0.9"/>
<line x1="860.0" y1="661.7" x2="858.6" y2="649.9" stroke="#4b6580" stroke-width="1.4" opacity="0.9"/>
<line x1="860.0" y1="612.5" x2="858.6" y2="600.8" stroke="#4b6580" stroke-width="1.4" opacity="0.9"/>
<line x1="860.0" y1="563.3" x2="858.5" y2="551.6" stroke="#4b6580" stroke-width="1.4" opacity="0.9"/>
<line x1="860.0" y1="514.2" x2="858.0" y2="502.5" stroke="#4b6580" stroke-width="1.4" opacity="0.9"/>
<line x1="860.0" y1="465.0" x2="860.0" y2="476.8" stroke="#4b6580" stroke-width="1.4" opacity="0.9"/>
<line x1="860.0" y1="415.8" x2="860.9" y2="427.6" stroke="#4b6580" stroke-width="1.4" opacity="0.9"/>
<line x1="860.0" y1="366.7" x2="861.1" y2="378.4" stroke="#4b6580" stroke-width="1.4" opacity="0.9"/>
<line x1="860.0" y1="317.5" x2="861.1" y2="329.3" stroke="#4b6580" stroke-width="1.4" opacity="0.9"/>
<line x1="860.0" y1="268.3" x2="861.1" y2="280.1" stroke="#4b6580" stroke-width="1.4" opacity="0.9"/>
<line x1="860.0" y1="219.2" x2="861.2" y2="230.9" stroke="#4b6580" stroke-width="1.4" opacity="0.9"/>
<line x1="860.0" y1="170.0" x2="861.2" y2="181.8" stroke="#4b6580" stroke-width="1.4" opacity="0.9"/>
<polyline points="110.0,465.0 860.0,465.0" fill="none" stroke="#f97316" stroke-width="3.2" stroke-opacity="0.9" stroke-linejoin="round" stroke-linecap="round"/>
<polyline points="110.0,446.6 112.5,446.4 115.0,446.2 117.5,446.1 120.0,445.9 122.5,445.8 125.1,445.6 127.6,445.4 130.1,445.2 132.6,445.1 135.1,444.9 137.6,444.7 140.1,444.5 142.6,444.3 145.1,444.1 147.6,443.9 150.1,443.7 152.6,443.5 155.2,443.2 157.7,443.0 160.2,442.8 162.7,442.6 165.2,442.3 167.7,442.1 170.2,441.8 172.7,441.6 175.2,441.3 177.7,441.0 180.2,440.8 182.7,440.5 185.3,440.2 187.8,439.9 190.3,439.6 192.8,439.3 195.3,438.9 197.8,438.6 200.3,438.3 202.8,437.9 205.3,437.5 207.8,437.2 210.3,436.8 212.8,436.4 215.4,436.0 217.9,435.5 220.4,435.1 222.9,434.7 225.4,434.2 227.9,433.7 230.4,433.2 232.9,432.7 235.4,432.1 237.9,431.6 240.4,431.0 242.9,430.4 245.5,429.7 248.0,429.1 250.5,428.4 253.0,427.7 255.5,426.9 258.0,426.1 260.5,425.3 263.0,424.5 265.5,423.6 268.0,422.6 270.5,421.6 273.0,420.5 275.6,419.4 278.1,418.2 280.6,417.0 283.1,415.7 285.6,414.2 288.1,412.7 290.6,411.1 293.1,409.4 295.6,407.5 298.1,405.5 300.6,403.3 303.1,400.9 305.7,398.4 308.2,395.5 310.7,392.4 313.2,389.0 315.7,385.2 318.2,381.0 320.7,376.2 323.2,370.8 325.7,364.6 328.2,357.4 330.7,349.0 333.2,339.0 335.8,327.1 338.3,312.3 340.8,293.8 343.3,269.7 345.8,237.2 348.3,190.7 350.8,119.0 353.3,-6.4 355.8,-282.1" fill="none" stroke="#60a5fa" stroke-width="3.2" stroke-opacity="0.9" stroke-linejoin="round" stroke-linecap="round"/>
<polyline points="363.3,1371.3 365.9,977.4 368.4,819.8 370.9,734.9 373.4,681.7 375.9,645.3 378.4,618.8 380.9,598.6 383.4,582.7 385.9,569.8 388.4,559.2 390.9,550.3 393.4,542.7 396.0,536.1 398.5,530.4 401.0,525.3 403.5,520.8 406.0,516.8 408.5,513.1 411.0,509.8 413.5,506.8 416.0,504.0 418.5,501.5 421.0,499.1 423.5,496.9 426.1,494.8 428.6,492.9 431.1,491.1 433.6,489.3 436.1,487.7 438.6,486.2 441.1,484.7 443.6,483.3 446.1,481.9 448.6,480.6 451.1,479.4 453.6,478.2 456.2,477.0 458.7,475.8 461.2,474.7 463.7,473.6 466.2,472.6 468.7,471.5 471.2,470.5 473.7,469.5 476.2,468.5 478.7,467.5 481.2,466.5 483.7,465.5 486.3,464.5 488.8,463.5 491.3,462.5 493.8,461.5 496.3,460.5 498.8,459.5 501.3,458.5 503.8,457.4 506.3,456.4 508.8,455.3 511.3,454.2 513.8,453.0 516.4,451.8 518.9,450.6 521.4,449.4 523.9,448.1 526.4,446.7 528.9,445.3 531.4,443.8 533.9,442.3 536.4,440.7 538.9,438.9 541.4,437.1 543.9,435.2 546.5,433.1 549.0,430.9 551.5,428.5 554.0,426.0 556.5,423.2 559.0,420.2 561.5,416.9 564.0,413.2 566.5,409.2 569.0,404.7 571.5,399.6 574.0,393.9 576.6,387.3 579.1,379.7 581.6,370.8 584.1,360.2 586.6,347.3 589.1,331.4 591.6,311.2 594.1,284.7 596.6,248.3 599.1,195.1 601.6,110.2 604.1,-47.4 606.7,-441.3" fill="none" stroke="#60a5fa" stroke-width="3.2" stroke-opacity="0.9" stroke-linejoin="round" stroke-linecap="round"/>
<polyline points="614.2,1212.1 616.7,936.4 619.2,811.0 621.7,739.3 624.2,692.8 626.7,660.3 629.2,636.2 631.7,617.7 634.2,602.9 636.8,591.0 639.3,581.0 641.8,572.6 644.3,565.4 646.8,559.2 649.3,553.8 651.8,549.0 654.3,544.8 656.8,541.0 659.3,537.6 661.8,534.5 664.3,531.6 666.9,529.1 669.4,526.7 671.9,524.5 674.4,522.5 676.9,520.6 679.4,518.9 681.9,517.3 684.4,515.8 686.9,514.3 689.4,513.0 691.9,511.8 694.4,510.6 697.0,509.5 699.5,508.4 702.0,507.4 704.5,506.4 707.0,505.5 709.5,504.7 712.0,503.9 714.5,503.1 717.0,502.3 719.5,501.6 722.0,500.9 724.5,500.3 727.1,499.6 729.6,499.0 732.1,498.4 734.6,497.9 737.1,497.3 739.6,496.8 742.1,496.3 744.6,495.8 747.1,495.3 749.6,494.9 752.1,494.5 754.6,494.0 757.2,493.6 759.7,493.2 762.2,492.8 764.7,492.5 767.2,492.1 769.7,491.7 772.2,491.4 774.7,491.1 777.2,490.7 779.7,490.4 782.2,490.1 784.7,489.8 787.3,489.5 789.8,489.2 792.3,489.0 794.8,488.7 797.3,488.4 799.8,488.2 802.3,487.9 804.8,487.7 807.3,487.4 809.8,487.2 812.3,487.0 814.8,486.8 817.4,486.5 819.9,486.3 822.4,486.1 824.9,485.9 827.4,485.7 829.9,485.5 832.4,485.3 834.9,485.1 837.4,484.9 839.9,484.8 842.4,484.6 844.9,484.4 847.5,484.2 850.0,484.1 852.5,483.9 855.0,483.8 857.5,483.6 860.0,483.4" fill="none" stroke="#60a5fa" stroke-width="3.2" stroke-opacity="0.9" stroke-linejoin="round" stroke-linecap="round"/>
<polyline points="754.0,779.7 741.4,745.5 730.1,718.9 719.8,698.0 710.3,681.3 701.5,667.9 693.1,657.1 685.2,648.4 677.5,641.4 670.2,635.8 663.1,631.4 656.1,628.2 649.2,625.8 642.4,624.2 635.7,623.4 629.0,623.3 622.3,623.7 615.5,624.8 608.7,626.5 601.8,628.7 594.9,631.5 587.7,634.8 580.5,638.7 573.0,643.1 565.4,648.0 557.5,653.5 549.4,659.5 541.0,666.1 532.3,673.2 523.3,680.9 514.0,689.0 504.4,697.6 494.3,706.6 483.9,715.9 473.1,725.3 461.8,734.8 450.2,744.1 438.2,753.0 425.8,761.2 413.1,768.4 400.1,774.2 386.9,778.2 373.6,780.2 360.2,779.7 347.0,776.5 333.9,770.5 321.1,761.5 308.8,749.7 297.0,735.3 285.9,718.7 275.6,700.4 266.0,680.8 257.3,660.6 249.4,640.2 242.4,620.2 236.2,601.0 230.9,582.8 226.2,565.9 222.3,550.3 219.0,536.3 216.2,523.6 214.0,512.4 212.2,502.5 210.8,493.7 209.8,486.1 209.0,479.5 208.5,473.7 208.3,468.7 208.2,464.4 208.3,460.7 208.6,457.5 208.9,454.7 209.4,452.3 210.0,450.2 210.7,448.4 211.4,446.9 212.2,445.5 213.0,444.3 213.9,443.3 214.9,442.4 215.9,441.5 216.9,440.8 217.9,440.2 219.0,439.6 220.1,439.0 221.2,438.6 222.3,438.1 223.5,437.7 224.6,437.3 225.8,436.9 227.0,436.6 228.2,436.3 229.4,436.0 230.7,435.7 231.9,435.4 233.2,435.1 234.5,434.8 235.7,434.5 237.0,434.3 238.3,434.0 239.7,433.7 241.0,433.4 242.3,433.2 243.7,432.9 245.1,432.6 246.4,432.3 247.8,432.0 249.2,431.8 250.7,431.5 252.1,431.2 253.5,430.9 255.0,430.6 256.4,430.2 257.9,429.9 259.4,429.6 260.9,429.3 262.4,428.9 264.0,428.6 265.5,428.2 267.1,427.8 268.7,427.5 270.3,427.1 271.9,426.7 273.5,426.3 275.2,425.8 276.8,425.4 278.5,425.0 280.2,424.5 282.0,424.0 283.7,423.6 285.5,423.1 287.3,422.5 289.1,422.0 290.9,421.5 292.8,420.9 294.6,420.3 296.5,419.7 298.5,419.1 300.4,418.4 302.4,417.7 304.4,417.0 306.5,416.3 308.6,415.6 310.7,414.8 312.8,414.0 315.0,413.2 317.2,412.3 319.5,411.4 321.8,410.4 324.1,409.4 326.5,408.4 328.9,407.3 331.4,406.2 333.9,405.1 336.4,403.8 339.1,402.6 341.7,401.2 344.5,399.8 347.3,398.4 350.1,396.9 353.0,395.2 356.0,393.6 359.1,391.8 362.2,389.9 365.4,388.0 368.8,385.9 372.2,383.7 375.6,381.4 379.2,379.0 382.9,376.5 386.7,373.8 390.7,371.0 394.7,368.0 398.9,364.8 403.2,361.5 407.7,358.0 412.3,354.3 417.0,350.3 422.0,346.2 427.1,341.8 432.4,337.2 438.0,332.4 443.7,327.3 449.6,322.0 455.8,316.4 462.2,310.6 468.9,304.5 475.8,298.3 483.0,291.8 490.5,285.2 498.3,278.5 506.3,271.8 514.6,265.1 523.2,258.6 532.1,252.3 541.3,246.3 550.6,240.9 560.2,236.1 570.0,232.2 580.0,229.3 590.0,227.6 600.1,227.2 610.1,228.3 620.1,231.0 629.9,235.3 639.5,241.2 648.9,248.7 657.9,257.6 666.4,267.9 674.5,279.3 682.2,291.5 689.2,304.4 695.8,317.6 701.7,330.9 707.1,344.1 712.0,356.9 716.3,369.3 720.1,381.1 723.4,392.2 726.3,402.5 728.7,412.1 730.8,420.8 732.5,428.8 733.8,436.1 734.9,442.6 735.8,448.5 736.3,453.8 736.7,458.5 736.9,462.7 736.9,466.5 736.8,469.8 736.5,472.8 736.1,475.5 735.6,477.8 735.0,480.0 734.4,481.9 733.6,483.6 732.8,485.1 731.9,486.5 731.0,487.7 730.0,488.8 729.0,489.9 727.9,490.8 726.8,491.7 725.6,492.5 724.4,493.2 723.2,493.9 722.0,494.5 720.7,495.1 719.4,495.7 718.1,496.2 716.8,496.8 715.4,497.3 714.1,497.8 712.7,498.2 711.3,498.7 709.8,499.2 708.4,499.6 706.9,500.1 705.4,500.5 703.9,500.9 702.3,501.4 700.8,501.8 699.2,502.3 697.6,502.7 696.0,503.2 694.4,503.7 692.7,504.1 691.1,504.6 689.4,505.1 687.7,505.6 685.9,506.1 684.2,506.7 682.4,507.2 680.6,507.8 678.8,508.3 676.9,508.9 675.1,509.5 673.2,510.1 671.2,510.8 669.3,511.4 667.3,512.1 665.3,512.8 663.3,513.6 661.2,514.3 659.1,515.1 656.9,515.9 654.8,516.8 652.5,517.7 650.3,518.6 648.0,519.5 645.7,520.5 643.3,521.6 640.9,522.6 638.4,523.8 635.9,524.9 633.3,526.2 630.7,527.4 628.0,528.8 625.3,530.2 622.5,531.6 619.7,533.2 616.7,534.8 613.7,536.5 610.7,538.3 607.5,540.1 604.3,542.1 601.0,544.2 597.6,546.4 594.1,548.7 590.5,551.1 586.8,553.6 583.0,556.3 579.1,559.2 575.0,562.2 570.8,565.3 566.5,568.7 562.0,572.2 557.4,575.9 552.6,579.9 547.7,584.0 542.5,588.4 537.2,593.0 531.7,597.9 525.9,603.0 520.0,608.3 513.8,613.9 507.4,619.7 500.7,625.8 493.7,632.1 486.5,638.5 479.0,645.1 471.3,651.8 463.2,658.5 454.9,665.2 446.2,671.7 437.3,678.0 428.2,683.9 418.8,689.3 409.2,694.0 399.4,697.9 389.5,700.7 379.4,702.4 369.4,702.7 359.3,701.5 349.3,698.7 339.5,694.4 329.9,688.4 320.6,680.8 311.7,671.8 303.1,661.4 295.0,650.0 287.4,637.7 280.4,624.9 273.9,611.6 268.0,598.3 262.6,585.2 257.8,572.3 253.5,560.0 249.7,548.2 246.4,537.2 243.6,526.9 241.2,517.4 239.1,508.7 237.5,500.7 236.1,493.5 235.0,487.0 234.2,481.2 233.7,475.9 233.3,471.3 233.1,467.1 233.1,463.3 233.3,460.0 233.5,457.0 233.9,454.4 234.4,452.0 235.0,449.9 235.7,448.0 236.5,446.4 237.3,444.8 238.2,443.5 239.1,442.2 240.1,441.1 241.1,440.1 242.2,439.2 243.3,438.3 244.5,437.5 245.6,436.8 246.9,436.1 248.1,435.4 249.4,434.8 250.6,434.3 252.0,433.7 253.3,433.2 254.7,432.7 256.0,432.2 257.4,431.7 258.9,431.3 260.3,430.8 261.8,430.4 263.2,429.9 264.7,429.5 266.2,429.0 267.8,428.6 269.3,428.1 270.9,427.7 272.5,427.2 274.1,426.8 275.7,426.3 277.4,425.8 279.0,425.3 280.7,424.9 282.5,424.3 284.2,423.8 285.9,423.3 287.7,422.8 289.5,422.2 291.3,421.6 293.2,421.0 295.1,420.4 297.0,419.8 298.9,419.2 300.9,418.5 302.8,417.8 304.9,417.1 306.9,416.4 309.0,415.6 311.1,414.8 313.2,414.0 315.4,413.2 317.6,412.3 319.9,411.4 322.2,410.4 324.5,409.4 326.9,408.4 329.3,407.3 331.8,406.2 334.3,405.0 336.9,403.8 339.5,402.5 342.2,401.1 344.9,399.7 347.7,398.2 350.6,396.7 353.5,395.1 356.5,393.4 359.6,391.6 362.7,389.7 365.9,387.7 369.3,385.7 372.7,383.5 376.2,381.2 379.8,378.7 383.5,376.2 387.3,373.5 391.2,370.6 395.3,367.6 399.5,364.4 403.8,361.1 408.3,357.5 412.9,353.8 417.7,349.8 422.7,345.7 427.8,341.3 433.2,336.6 438.7,331.8 444.5,326.6 450.5,321.3 456.7,315.7 463.1,309.8 469.8,303.7 476.8,297.5 484.0,291.0 491.5,284.4 499.3,277.7 507.4,271.0 515.8,264.3 524.4,257.8 533.3,251.5 542.5,245.6 551.9,240.3 561.5,235.6 571.3,231.9 581.3,229.1 591.3,227.6 601.4,227.4 611.4,228.6 621.4,231.5 631.2,236.0 640.8,242.1 650.0,249.8 659.0,259.0 667.5,269.4 675.5,280.9 683.1,293.2 690.1,306.1 696.5,319.3 702.4,332.6 707.8,345.8 712.5,358.6 716.8,370.9 720.5,382.6 723.8,393.6 726.6,403.8 729.0,413.3 731.0,421.9 732.6,429.8 734.0,437.0 735.0,443.4 735.8,449.2 736.4,454.4 736.7,459.1 736.9,463.2 736.9,466.9 736.7,470.2 736.4,473.2 736.0,475.8 735.5,478.1 734.9,480.2 734.2,482.1 733.5,483.8 732.7,485.3 731.8,486.6 730.8,487.9 729.8,489.0 728.8,490.0 727.7,490.9 726.6,491.8 725.5,492.6 724.3,493.3 723.1,494.0 721.8,494.6 720.5,495.2 719.3,495.8 717.9,496.3 716.6,496.8 715.2,497.3 713.9,497.8 712.5,498.3 711.0,498.8 709.6,499.2 708.1,499.7 706.7,500.1 705.2,500.6 703.6,501.0 702.1,501.5 700.6,501.9 699.0,502.3 697.4,502.8 695.8,503.3 694.2,503.7 692.5,504.2 690.8,504.7 689.1,505.2 687.4,505.7 685.7,506.2 683.9,506.7 682.2,507.3 680.3,507.8 678.5,508.4 676.7,509.0 674.8,509.6 672.9,510.2 671.0,510.9 669.0,511.5 667.0,512.2 665.0,512.9 663.0,513.7 660.9,514.4 658.8,515.2 656.6,516.1 654.4,516.9 652.2,517.8 650.0,518.7 647.7,519.7 645.3,520.7 642.9,521.7 640.5,522.8 638.0,523.9 635.5,525.1 633.0,526.3 630.3,527.6 627.6,529.0 624.9,530.4 622.1,531.9 619.2,533.4 616.3,535.0 613.3,536.7 610.2,538.5 607.1,540.4 603.8,542.4 600.5,544.5 597.1,546.7 593.6,549.0 590.0,551.4 586.3,554.0 582.4,556.7 578.5,559.6 574.4,562.6 570.2,565.8 565.9,569.2 561.4,572.7 556.7,576.5 551.9,580.5 546.9,584.7 541.8,589.1 536.4,593.7 530.9,598.6 525.1,603.7 519.1,609.1 512.9,614.7 506.4,620.6 499.7,626.7 492.7,633.0 485.4,639.5 477.9,646.1 470.1,652.8 462.0,659.5 453.6,666.2 445.0,672.7 436.0,678.9 426.8,684.8 417.4,690.1 407.8,694.7 398.0,698.4 388.0,701.1 378.0,702.5 367.9,702.6 357.9,701.2 347.9,698.2 338.1,693.6 328.6,687.4 319.3,679.6 310.4,670.3 301.9,659.8 293.9,648.3 286.4,635.9 279.4,623.0 273.0,609.7 267.2,596.4 261.9,583.3 257.1,570.5 252.9,558.2 249.2,546.6 246.0,535.6 243.2,525.5 240.9,516.1 238.9,507.5 237.2,499.6 235.9,492.5 234.9,486.1 234.1,480.4 233.6,475.2 233.3,470.6 233.1,466.5 233.1,462.8 233.3,459.6 233.6,456.6 234.0,454.0 234.5,451.7 235.1,449.6 235.8,447.8 236.6,446.1 237.4,444.6 238.3,443.3 239.2,442.1 240.2,441.0 241.3,439.9 242.4,439.0 243.5,438.2 244.6,437.4 245.8,436.7 247.0,436.0 248.3,435.4 249.5,434.8 250.8,434.2 252.2,433.6 253.5,433.1 254.9,432.6 256.2,432.1 257.6,431.7 259.1,431.2 260.5,430.7 262.0,430.3 263.4,429.8 264.9,429.4 266.5,429.0 268.0,428.5 269.6,428.1 271.1,427.6 272.7,427.2 274.3,426.7 276.0,426.2 277.6,425.8 279.3,425.3 281.0,424.8 282.7,424.3 284.4,423.8 286.2,423.2 288.0,422.7 289.8,422.1 291.6,421.6 293.5,421.0 295.3,420.4 297.2,419.7 299.2,419.1 301.1,418.4 303.1,417.7 305.1,417.0 307.2,416.3 309.3,415.5 311.4,414.7 313.5,413.9 315.7,413.0 317.9,412.1 320.2,411.2 322.5,410.3 324.8,409.3 327.2,408.2 329.7,407.1 332.1,406.0 334.7,404.8 337.2,403.6 339.9,402.3 342.6,400.9 345.3,399.5 348.1,398.0 351.0,396.5 353.9,394.8 356.9,393.1 360.0,391.3 363.2,389.4 366.4,387.4 369.7,385.4 373.2,383.2 376.7,380.8 380.3,378.4 384.0,375.8 387.9,373.1 391.8,370.2 395.9,367.2 400.1,364.0 404.5,360.6 409.0,357.0 413.6,353.2 418.4,349.2 423.4,345.0 428.6,340.6 434.0,335.9 439.5,331.0 445.3,325.9 451.3,320.5 457.6,314.8 464.1,309.0 470.8,302.8 477.8,296.5 485.1,290.1 492.6,283.4 500.5,276.7 508.6,270.0 517.0,263.4 525.7,256.9 534.6,250.6 543.8,244.8 553.3,239.6 562.9,235.0 572.8,231.4 582.7,228.8 592.8,227.4 602.8,227.4 612.9,229.0 622.8,232.1 632.6,236.8 642.1,243.2 651.4,251.1 660.2,260.4 668.7,271.0 676.7,282.6 684.1,295.0 691.1,308.0 697.4,321.2 703.2,334.5 708.5,347.7 713.2,360.4 717.4,372.6 721.0,384.2 724.2,395.1 727.0,405.2 729.3,414.6 731.2,423.1 732.9,430.9 734.1,437.9 735.2,444.3 735.9,450.0 736.4,455.1 736.8,459.7 736.9,463.8 736.9,467.4 736.7,470.7 736.4,473.6 736.0,476.1 735.5,478.4 734.8,480.5 734.1,482.3 733.4,484.0 732.5,485.5 731.6,486.8 730.7,488.0 729.7,489.1 728.6,490.1 727.6,491.0 726.4,491.9 725.3,492.7 724.1,493.4 722.9,494.1 721.6,494.7 720.4,495.3 719.1,495.9 717.7,496.4 716.4,496.9 715.0,497.4 713.7,497.9 712.3,498.4 710.8,498.8 709.4,499.3 707.9,499.7 706.4,500.2 704.9,500.6 703.4,501.1 701.9,501.5 700.3,502.0 698.8,502.4 697.2,502.9 695.5,503.3 693.9,503.8 692.3,504.3 690.6,504.8 688.9,505.3 687.2,505.8 685.4,506.3 683.7,506.8 681.9,507.4 680.1,507.9 678.3,508.5 676.4,509.1 674.5,509.7 672.6,510.3 670.7,511.0 668.7,511.6 666.7,512.3 664.7,513.0 662.7,513.8 660.6,514.6 658.5,515.4 656.3,516.2 654.1,517.0 651.9,517.9 649.6,518.9 647.3,519.8 645.0,520.8 642.6,521.9 640.2,523.0 637.7,524.1 635.2,525.3 632.6,526.5 629.9,527.8 627.2,529.2 624.5,530.6 621.7,532.1 618.8,533.6 615.9,535.3 612.9,537.0 609.8,538.8 606.6,540.7 603.4,542.7 600.0,544.8 596.6,547.0 593.1,549.3 589.4,551.8 585.7,554.4 581.9,557.1 577.9,560.0 573.8,563.1 569.6,566.3 565.2,569.7 560.7,573.3 556.0,577.1 551.2,581.1 546.2,585.3 541.0,589.7 535.6,594.4 530.0,599.3 524.2,604.5 518.2,609.9 512.0,615.6 505.5,621.5 498.7,627.6 491.7,633.9 484.4,640.4 476.8,647.0 468.9,653.8 460.8,660.5 452.4,667.1 443.7,673.6 434.7,679.8 425.5,685.6 416.0,690.8 406.4,695.3 396.5,698.8 386.6,701.3 376.5,702.6 366.4,702.5 356.4,700.9 346.5,697.6 336.7,692.8 327.2,686.3 318.0,678.3 309.1,668.9 300.7,658.2 292.8,646.5 285.3,634.0 278.5,621.1 272.1,607.8 266.4,594.5 261.1,581.4 256.5,568.7 252.4,556.5 248.7,544.9 245.6,534.1 242.9,524.1 240.6,514.8 238.6,506.3 237.0,498.6 235.8,491.6 234.8,485.3 234.0,479.6 233.5,474.5 233.2,470.0 233.1,465.9 233.1,462.3 233.3,459.1 233.6,456.2 234.1,453.7 234.6,451.4 235.2,449.4 235.9,447.5 236.7,445.9 237.5,444.4 238.4,443.1 239.4,441.9 240.4,440.8 241.4,439.8 242.5,438.9 243.6,438.1 244.8,437.3 246.0,436.6 247.2,435.9 248.5,435.3 249.7,434.7 251.0,434.1 252.3,433.6 253.7,433.1 255.1,432.6 256.4,432.1 257.8,431.6 259.3,431.1 260.7,430.7 262.2,430.2 263.7,429.8 265.2,429.3 266.7,428.9 268.2,428.5 269.8,428.0 271.4,427.6 273.0,427.1 274.6,426.6 276.2,426.2 277.9,425.7 279.5,425.2 281.2,424.7 283.0,424.2 284.7,423.7 286.5,423.1 288.2,422.6 290.0,422.0 291.9,421.5 293.7,420.9 295.6,420.3 297.5,419.6 299.5,419.0 301.4,418.3 303.4,417.6 305.4,416.9 307.5,416.2 309.6,415.4 311.7,414.6 313.9,413.8 316.0,412.9 318.3,412.0 320.5,411.1 322.8,410.1 325.2,409.1 327.6,408.1 330.0,407.0 332.5,405.8 335.0,404.6 337.6,403.4 340.3,402.1 342.9,400.7 345.7,399.3 348.5,397.8 351.4,396.2 354.3,394.6 357.4,392.9 360.5,391.1 363.6,389.2 366.9,387.2 370.2,385.0 373.7,382.8 377.2,380.5 380.8,378.0 384.6,375.4 388.4,372.7 392.4,369.8 396.5,366.7 400.7,363.5 405.1,360.1 409.6,356.5 414.3,352.7 419.1,348.6 424.2,344.4 429.4,339.9 434.8,335.2 440.4,330.3 446.2,325.1 452.2,319.7 458.5,314.0 465.0,308.1 471.8,301.9 478.9,295.6 486.2,289.1 493.8,282.5 501.6,275.8 509.8,269.0 518.2,262.4 527.0,255.9 536.0,249.8 545.2,244.0 554.7,238.9 564.4,234.4 574.2,230.9 584.2,228.5 594.2,227.3 604.3,227.6 614.3,229.3 624.2,232.7 634.0,237.6 643.5,244.2 652.7,252.3 661.5,261.8 669.9,272.6 677.8,284.4 685.2,296.9 692.0,309.9 698.3,323.2 704.0,336.5 709.2,349.5 713.8,362.2 717.9,374.4 721.5,385.9 724.6,396.6 727.3,406.6 729.6,415.9 731.5,424.3" fill="none" stroke="#4ade80" stroke-width="2.6" stroke-opacity="0.72" stroke-linejoin="round" stroke-linecap="round"/>
<polyline points="201.5,157.0 213.7,195.3 224.5,225.0 234.1,248.5 242.9,267.2 250.9,282.4 258.4,294.9 265.4,305.1 272.0,313.6 278.2,320.5 284.2,326.3 290.0,331.1 295.6,335.0 301.0,338.2 306.3,340.7 311.6,342.7 316.7,344.1 321.8,345.1 326.9,345.6 331.9,345.8 337.0,345.6 342.0,345.0 347.1,344.2 352.3,342.9 357.5,341.4 362.8,339.6 368.1,337.4 373.6,334.9 379.2,332.1 384.9,329.0 390.7,325.5 396.7,321.7 402.8,317.5 409.2,313.0 415.7,308.0 422.5,302.8 429.5,297.1 436.7,291.0 444.2,284.5 452.0,277.7 460.1,270.5 468.5,263.0 477.2,255.2 486.3,247.1 495.7,238.9 505.5,230.6 515.6,222.4 526.0,214.5 536.8,206.9 547.9,200.0 559.2,194.0 570.8,189.2 582.6,185.7 594.5,184.0 606.4,184.1 618.3,186.4 630.0,190.9 641.4,197.8 652.6,206.9 663.3,218.1 673.5,231.2 683.1,245.9 692.0,261.7 700.3,278.4 707.8,295.5 714.7,312.6 720.8,329.3 726.2,345.5 730.9,360.8 735.0,375.1 738.5,388.4 741.5,400.5 744.0,411.5 746.1,421.4 747.7,430.2 749.0,438.1 750.0,445.0 750.8,451.1 751.2,456.5 751.5,461.3 751.5,465.4 751.4,469.0 751.2,472.2 750.8,475.0 750.4,477.4 749.8,479.6 749.1,481.4 748.4,483.1 747.6,484.6 746.7,485.8 745.8,487.0 744.9,488.0 743.9,488.9 742.9,489.8 741.8,490.5 740.7,491.2 739.6,491.8 738.4,492.4 737.3,492.9 736.1,493.4 734.9,493.8 733.6,494.3 732.4,494.7 731.1,495.1 729.8,495.5 728.5,495.8 727.2,496.2 725.9,496.5 724.5,496.9 723.2,497.2 721.8,497.5 720.4,497.9 719.0,498.2 717.6,498.5 716.2,498.9 714.7,499.2 713.3,499.5 711.8,499.9 710.3,500.2 708.8,500.6 707.3,501.0 705.8,501.3 704.2,501.7 702.7,502.1 701.1,502.5 699.5,502.9 697.9,503.3 696.3,503.7 694.6,504.1 692.9,504.6 691.3,505.0 689.5,505.5 687.8,505.9 686.1,506.4 684.3,506.9 682.5,507.5 680.7,508.0 678.9,508.6 677.0,509.1 675.1,509.7 673.2,510.3 671.3,511.0 669.3,511.6 667.3,512.3 665.3,513.0 663.3,513.7 661.2,514.5 659.1,515.3 656.9,516.1 654.8,516.9 652.5,517.8 650.3,518.7 648.0,519.7 645.6,520.6 643.3,521.7 640.8,522.8 638.4,523.9 635.8,525.0 633.3,526.3 630.7,527.6 628.0,528.9 625.2,530.3 622.4,531.8 619.6,533.3 616.7,534.9 613.7,536.6 610.6,538.4 607.4,540.3 604.2,542.2 600.9,544.3 597.5,546.5 594.0,548.8 590.4,551.2 586.7,553.8 582.8,556.5 578.9,559.3 574.9,562.3 570.7,565.5 566.3,568.9 561.9,572.4 557.2,576.1 552.4,580.1 547.5,584.3 542.3,588.6 537.0,593.3 531.5,598.1 525.7,603.2 519.7,608.6 513.5,614.2 507.1,620.1 500.4,626.1 493.4,632.4 486.2,638.9 478.7,645.5 470.9,652.2 462.8,658.9 454.5,665.6 445.8,672.1 436.9,678.4 427.8,684.3 418.4,689.6 408.7,694.3 398.9,698.1 389.0,700.9 379.0,702.5 368.9,702.7 358.8,701.5 348.9,698.6 339.1,694.2 329.5,688.1 320.2,680.4 311.2,671.3 302.7,661.0 294.6,649.5 287.1,637.2 280.1,624.3 273.6,611.0 267.7,597.7 262.3,584.6 257.5,571.7 253.3,559.4 249.5,547.7 246.3,536.7 243.5,526.4 241.1,517.0 239.0,508.3 237.4,500.4 236.0,493.2 235.0,486.7 234.2,480.9 233.6,475.7 233.3,471.0 233.1,466.9 233.1,463.2 233.2,459.9 233.5,456.9 233.9,454.3 234.4,451.9 235.0,449.8 235.7,448.0 236.5,446.3 237.3,444.8 238.2,443.4 239.1,442.2 240.1,441.1 241.2,440.0 242.2,439.1 243.3,438.3 244.5,437.5 245.7,436.7 246.9,436.1 248.1,435.4 249.4,434.8 250.7,434.2 252.0,433.7 253.3,433.2 254.7,432.7 256.1,432.2 257.5,431.7 258.9,431.2 260.3,430.8 261.8,430.3 263.3,429.9 264.8,429.5 266.3,429.0 267.8,428.6 269.4,428.1 271.0,427.7 272.5,427.2 274.2,426.8 275.8,426.3 277.4,425.8 279.1,425.3 280.8,424.8 282.5,424.3 284.2,423.8 286.0,423.3 287.8,422.7 289.6,422.2 291.4,421.6 293.3,421.0 295.1,420.4 297.0,419.8 299.0,419.2 300.9,418.5 302.9,417.8 304.9,417.1 307.0,416.3 309.0,415.6 311.2,414.8 313.3,414.0 315.5,413.1 317.7,412.2 320.0,411.3 322.2,410.4 324.6,409.4 327.0,408.3 329.4,407.2 331.9,406.1 334.4,404.9 336.9,403.7 339.6,402.4 342.3,401.1 345.0,399.7 347.8,398.2 350.7,396.6 353.6,395.0 356.6,393.3 359.7,391.5 362.8,389.7 366.0,387.7 369.4,385.6 372.8,383.4 376.3,381.1 379.9,378.7 383.6,376.1 387.4,373.4 391.4,370.5 395.4,367.5 399.6,364.3 404.0,361.0 408.5,357.4 413.1,353.7 417.9,349.7 422.9,345.5 428.0,341.1 433.4,336.5 438.9,331.6 444.7,326.5 450.7,321.1 456.9,315.5 463.3,309.6 470.1,303.5 477.0,297.2 484.3,290.8 491.8,284.2 499.6,277.5 507.7,270.8 516.1,264.1 524.7,257.6 533.6,251.3 542.8,245.4 552.2,240.1 561.9,235.5 571.7,231.7 581.6,229.0 591.6,227.5 601.7,227.4 611.8,228.7 621.7,231.6 631.5,236.2 641.1,242.4 650.4,250.1 659.3,259.3 667.8,269.7 675.8,281.3 683.3,293.6 690.3,306.5 696.8,319.8 702.6,333.1 707.9,346.2 712.7,359.0 716.9,371.3 720.7,383.0 723.9,394.0 726.7,404.2 729.1,413.6 731.1,422.2 732.7,430.1 734.0,437.2 735.1,443.6 735.8,449.4 736.4,454.6 736.7,459.2 736.9,463.3 736.9,467.0 736.7,470.3 736.4,473.3 736.0,475.9 735.5,478.2 734.9,480.3 734.2,482.1 733.5,483.8 732.6,485.3 731.7,486.7 730.8,487.9 729.8,489.0 728.8,490.0 727.7,490.9 726.6,491.8 725.4,492.6 724.2,493.3 723.0,494.0 721.8,494.6 720.5,495.2 719.2,495.8 717.9,496.3 716.6,496.9 715.2,497.4 713.8,497.8 712.4,498.3 711.0,498.8 709.6,499.2 708.1,499.7 706.6,500.1 705.1,500.6 703.6,501.0 702.1,501.5 700.5,501.9 698.9,502.4 697.3,502.8 695.7,503.3 694.1,503.7 692.4,504.2 690.8,504.7 689.1,505.2 687.4,505.7 685.6,506.2 683.9,506.8 682.1,507.3 680.3,507.9 678.5,508.4 676.6,509.0 674.7,509.6 672.8,510.2 670.9,510.9 668.9,511.6 666.9,512.3 664.9,513.0 662.9,513.7 660.8,514.5 658.7,515.3 656.5,516.1 654.4,516.9 652.1,517.8 649.9,518.7 647.6,519.7 645.2,520.7 642.9,521.7 640.4,522.8 638.0,524.0 635.4,525.1 632.9,526.4 630.2,527.7 627.5,529.0 624.8,530.4 622.0,531.9 619.1,533.5 616.2,535.1 613.2,536.8 610.1,538.6 607.0,540.5 603.7,542.5 600.4,544.6 597.0,546.8 593.5,549.1 589.8,551.5 586.1,554.1 582.3,556.8 578.3,559.7 574.3,562.7 570.1,565.9 565.7,569.3 561.2,572.9 556.6,576.6 551.8,580.6 546.8,584.8 541.6,589.2 536.2,593.9 530.7,598.8 524.9,603.9 518.9,609.3 512.7,614.9 506.2,620.8 499.5,626.9 492.5,633.2 485.2,639.7 477.7,646.3 469.8,653.0 461.7,659.7 453.3,666.4 444.7,672.9 435.7,679.1 426.5,685.0 417.1,690.2 407.4,694.8 397.6,698.5 387.7,701.1 377.6,702.5 367.6,702.6 357.5,701.1 347.6,698.1 337.8,693.4 328.2,687.1 319.0,679.3 310.1,670.0 301.6,659.5 293.6,647.9 286.1,635.5 279.2,622.5 272.8,609.3 267.0,596.0 261.7,582.8 257.0,570.1 252.8,557.8 249.1,546.2 245.9,535.3 243.1,525.1 240.8,515.8 238.8,507.2 237.2,499.4 235.9,492.3 234.9,485.9 234.1,480.2 233.6,475.1 233.3,470.5 233.1,466.4 233.1,462.7 233.3,459.4 233.6,456.5 234.0,454.0 234.5,451.6 235.1,449.6 235.8,447.7 236.6,446.1 237.4,444.6 238.3,443.2 239.3,442.0 240.3,440.9 241.3,439.9 242.4,439.0 243.5,438.1 244.7,437.4 245.9,436.6 247.1,436.0 248.3,435.3 249.6,434.7 250.9,434.2 252.2,433.6 253.5,433.1 254.9,432.6 256.3,432.1 257.7,431.6 259.1,431.2 260.6,430.7 262.0,430.3 263.5,429.8 265.0,429.4 266.5,428.9 268.1,428.5 269.6,428.1 271.2,427.6 272.8,427.1 274.4,426.7 276.0,426.2 277.7,425.7 279.4,425.3 281.0,424.8 282.8,424.3 284.5,423.7 286.3,423.2 288.0,422.7 289.8,422.1 291.7,421.5 293.5,420.9 295.4,420.3 297.3,419.7 299.2,419.1 301.2,418.4 303.2,417.7 305.2,417.0 307.3,416.2 309.4,415.5 311.5,414.7 313.6,413.9 315.8,413.0 318.0,412.1 320.3,411.2 322.6,410.2 324.9,409.2 327.3,408.2 329.7,407.1 332.2,405.9 334.7,404.8 337.3,403.5 340.0,402.2 342.6,400.9 345.4,399.5 348.2,398.0 351.1,396.4 354.0,394.8 357.0,393.1 360.1,391.3 363.3,389.4 366.5,387.4 369.9,385.3 373.3,383.1 376.8,380.7 380.4,378.3 384.2,375.7 388.0,373.0 392.0,370.1 396.0,367.1 400.3,363.8 404.6,360.5 409.1,356.9 413.8,353.1 418.6,349.1 423.6,344.9 428.8,340.4 434.2,335.8 439.7,330.9 445.5,325.7 451.5,320.3 457.8,314.6 464.3,308.7 471.0,302.6 478.1,296.3 485.3,289.8 492.9,283.2 500.8,276.5 508.9,269.8 517.3,263.1 526.0,256.6 534.9,250.4 544.2,244.6 553.6,239.4 563.3,234.9 573.1,231.3 583.1,228.7 593.1,227.4 603.2,227.5 613.2,229.0 623.2,232.2 632.9,237.0 642.5,243.4 651.7,251.4 660.5,260.7 669.0,271.4 676.9,283.0 684.4,295.5 691.3,308.4 697.6,321.7 703.4,335.0 708.7,348.1 713.3,360.8 717.5,373.1 721.1,384.6 724.3,395.5 727.1,405.6 729.4,414.9 731.3,423.4 732.9,431.1 734.2,438.2 735.2,444.5 735.9,450.2 736.5,455.3 736.8,459.8 736.9,463.9 736.9,467.5 736.7,470.8 736.4,473.7 736.0,476.2 735.4,478.5 734.8,480.6 734.1,482.4 733.3,484.0 732.5,485.5 731.6,486.9 730.7,488.1 729.7,489.2 728.6,490.2 727.5,491.1 726.4,491.9 725.2,492.7 724.1,493.4 722.8,494.1 721.6,494.7 720.3,495.3 719.0,495.9 717.7,496.4 716.4,496.9 715.0,497.4 713.6,497.9 712.2,498.4 710.8,498.8 709.3,499.3 707.9,499.8 706.4,500.2 704.9,500.6 703.4,501.1 701.8,501.5 700.3,502.0 698.7,502.4 697.1,502.9 695.5,503.3 693.9,503.8 692.2,504.3 690.5,504.8 688.8,505.3 687.1,505.8 685.4,506.3 683.6,506.8 681.8,507.4 680.0,507.9 678.2,508.5 676.3,509.1 674.5,509.7 672.5,510.3 670.6,511.0 668.6,511.7 666.7,512.4 664.6,513.1 662.6,513.8 660.5,514.6 658.4,515.4 656.2,516.2 654.0,517.1 651.8,518.0 649.6,518.9 647.2,519.9 644.9,520.9 642.5,521.9 640.1,523.0 637.6,524.1 635.1,525.3 632.5,526.6 629.8,527.9 627.2,529.2 624.4,530.6 621.6,532.1 618.7,533.7 615.8,535.3 612.8,537.1 609.7,538.9 606.5,540.8 603.2,542.8 599.9,544.9 596.5,547.1 592.9,549.4 589.3,551.9 585.6,554.5 581.7,557.2 577.8,560.1 573.7,563.2 569.4,566.4 565.1,569.8 560.5,573.4 555.9,577.2 551.0,581.2 546.0,585.4 540.8,589.9 535.4,594.6 529.8,599.5 524.0,604.7 518.0,610.1 511.7,615.8 505.2,621.7 498.5,627.8 491.4,634.1 484.1,640.6 476.5,647.3 468.7,654.0 460.5,660.7 452.1,667.3 443.4,673.8 434.4,680.0 425.2,685.8 415.7,690.9 406.0,695.4 396.2,698.9 386.2,701.4 376.2,702.6 366.1,702.5 356.1,700.8 346.1,697.5 336.4,692.6 326.9,686.1 317.7,678.0 308.8,668.5 300.4,657.8 292.5,646.1 285.1,633.6 278.2,620.6 271.9,607.3 266.2,594.0 261.0,581.0 256.3,568.3 252.2,556.1 248.6,544.6 245.5,533.8 242.8,523.7 240.5,514.5 238.6,506.0 237.0,498.3 235.7,491.3 234.7,485.1 234.0,479.4 233.5,474.4 233.2,469.8 233.1,465.8 233.1,462.2 233.3,459.0 233.6,456.1 234.1,453.6 234.6,451.3 235.2,449.3 235.9,447.5 236.7,445.8 237.6,444.4 238.5,443.1 239.4,441.9 240.4,440.8 241.5,439.8 242.6,438.9 243.7,438.0 244.8,437.3 246.0,436.5 247.3,435.9 248.5,435.2 249.8,434.7 251.1,434.1 252.4,433.6 253.7,433.0 255.1,432.5 256.5,432.1 257.9,431.6 259.3,431.1 260.8,430.7 262.2,430.2 263.7,429.8 265.2,429.3 266.7,428.9 268.3,428.4 269.8,428.0 271.4,427.5 273.0,427.1 274.6,426.6 276.3,426.1 277.9,425.7 279.6,425.2 281.3,424.7 283.0,424.2 284.8,423.7 286.5,423.1 288.3,422.6 290.1,422.0 291.9,421.4 293.8,420.9 295.7,420.2 297.6,419.6 299.5,419.0 301.5,418.3 303.5,417.6 305.5,416.9 307.6,416.1 309.7,415.4 311.8,414.6 313.9,413.7 316.1,412.9 318.3,412.0 320.6,411.0 322.9,410.1 325.3,409.1 327.7,408.0 330.1,406.9 332.6,405.8 335.1,404.6 337.7,403.3 340.3,402.0 343.0,400.7 345.8,399.2 348.6,397.8 351.5,396.2 354.4,394.5 357.5,392.8 360.6,391.0 363.7,389.1 367.0,387.1 370.3,385.0 373.8,382.7 377.3,380.4 381.0,377.9 384.7,375.3 388.6,372.6 392.5,369.7 396.6,366.6 400.9,363.4 405.3,359.9 409.8,356.3 414.5,352.5 419.3,348.5 424.3,344.3 429.6,339.8 435.0,335.1 440.6,330.1 446.4,324.9 452.4,319.5 458.7,313.8 465.3,307.9 472.0,301.7 479.1,295.4 486.4,288.9 494.0,282.2 501.9,275.5 510.1,268.8 518.5,262.2 527.3,255.7 536.3,249.6 545.5,243.8 555.0,238.7 564.7,234.3 574.5,230.8 584.5,228.5 594.6,227.3 604.6,227.6 614.7,229.4 624.6,232.8 634.3,237.8 643.8,244.5 653.0,252.6 661.8,262.2 670.2,273.0 678.0,284.8 685.4,297.3 692.2,310.4 698.5,323.6 704.2,336.9 709.4,350.0 714.0,362.6 718.1,374.8 721.6,386.2 724.7,397.0 727.4,407.0 729.7,416.2 731.6,424.6 733.1,432.2 734.4,439.1 735.3,445.4 736.0,451.0 736.5,456.0 736.8,460.5 736.9,464.5 736.8,468.0 736.7,471.2 736.3,474.0 735.9,476.6 735.3,478.8 734.7,480.8 734.0,482.7 733.2,484.3 732.4,485.7 731.5,487.0 730.5,488.2 729.5,489.3 728.5,490.3 727.4,491.2 726.2,492.0 725.1,492.8 723.9,493.5 722.7,494.2 721.4,494.8 720.1,495.4 718.8,496.0 717.5,496.5 716.2,497.0 714.8,497.5 713.4,498.0 712.0,498.5 710.6,498.9 709.1,499.4 707.7,499.8 706.2,500.3 704.7,500.7 703.2,501.2 701.6,501.6 700.1,502.0 698.5,502.5 696.9,503.0 695.3,503.4 693.6,503.9 692.0,504.4 690.3,504.8 688.6,505.3 686.9,505.9 685.1,506.4 683.4,506.9 681.6,507.5 679.8,508.0 677.9,508.6 676.1,509.2 674.2,509.8 672.3,510.4 670.3,511.1 668.4,511.8 666.4,512.5 664.3,513.2 662.3,513.9 660.2,514.7 658.1,515.5 655.9,516.3 653.7,517.2 651.5,518.1 649.2,519.0 646.9,520.0 644.6,521.0 642.2,522.1 639.7,523.2 637.2,524.3 634.7,525.5 632.1,526.8 629.5,528.1 626.8,529.4 624.0,530.9 621.2,532.4 618.3,533.9 615.3,535.6 612.3,537.3 609.2,539.1 606.0,541.1 602.8,543.1 599.4,545.2 596.0,547.4 592.4,549.8 588.8,552.3 585.0,554.9 581.2,557.6 577.2,560.6 573.1,563.6 568.8,566.9 564.4,570.3 559.9,573.9 555.2,577.8 550.3,581.8 545.3,586.1 540.1,590.5" fill="none" stroke="#4ade80" stroke-width="2.6" stroke-opacity="0.72" stroke-linejoin="round" stroke-linecap="round"/>
<polyline points="769.1,785.4 756.4,745.3 745.3,714.3 735.2,689.9 726.1,670.5 717.8,654.8 710.0,642.0 702.7,631.5 695.9,622.9 689.3,615.8 683.1,609.9 677.0,605.1 671.2,601.3 665.5,598.2 659.9,595.7 654.4,593.9 649.0,592.6 643.6,591.8 638.2,591.5 632.8,591.6 627.5,592.1 622.1,592.9 616.6,594.2 611.1,595.8 605.5,597.7 599.9,600.0 594.1,602.7 588.2,605.7 582.2,609.1 576.0,612.8 569.6,617.0 563.1,621.5 556.4,626.4 549.4,631.8 542.2,637.5 534.8,643.7 527.1,650.3 519.1,657.3 510.8,664.6 502.1,672.3 493.2,680.4 483.9,688.6 474.2,697.1 464.2,705.6 453.9,713.9 443.1,722.1 432.1,729.8 420.7,736.7 409.1,742.8 397.2,747.5 385.1,750.8 373.0,752.3 360.8,751.7 348.7,748.8 336.8,743.6 325.1,736.0 313.9,726.0 303.1,713.9 292.8,699.9 283.2,684.3 274.2,667.6 266.0,650.2 258.5,632.6 251.8,615.0 245.8,597.9 240.5,581.5 235.9,566.1 232.0,551.7 228.6,538.5 225.7,526.4 223.3,515.6 221.4,505.9 219.9,497.2 218.7,489.6 217.8,482.8 217.1,476.9 216.8,471.7 216.6,467.1 216.6,463.2 216.7,459.7 217.0,456.7 217.4,454.0 217.9,451.7 218.5,449.7 219.2,447.9 220.0,446.3 220.8,445.0 221.7,443.8 222.6,442.7 223.6,441.7 224.6,440.8 225.6,440.1 226.7,439.4 227.8,438.7 228.9,438.2 230.1,437.6 231.2,437.1 232.4,436.7 233.6,436.2 234.9,435.8 236.1,435.4 237.4,435.0 238.7,434.7 239.9,434.3 241.3,434.0 242.6,433.7 243.9,433.3 245.3,433.0 246.6,432.7 248.0,432.4 249.4,432.0 250.8,431.7 252.2,431.4 253.6,431.1 255.1,430.7 256.5,430.4 258.0,430.1 259.5,429.7 261.0,429.4 262.5,429.0 264.0,428.7 265.6,428.3 267.2,427.9 268.7,427.5 270.3,427.1 271.9,426.7 273.6,426.3 275.2,425.9 276.9,425.5 278.6,425.0 280.3,424.6 282.0,424.1 283.7,423.6 285.5,423.1 287.3,422.6 289.1,422.0 290.9,421.5 292.8,420.9 294.7,420.3 296.6,419.7 298.5,419.1 300.5,418.4 302.5,417.8 304.5,417.1 306.5,416.3 308.6,415.6 310.7,414.8 312.9,414.0 315.0,413.2 317.2,412.3 319.5,411.4 321.8,410.4 324.1,409.4 326.5,408.4 328.9,407.3 331.4,406.2 333.9,405.1 336.5,403.8 339.1,402.6 341.8,401.2 344.5,399.8 347.3,398.4 350.1,396.8 353.1,395.2 356.0,393.5 359.1,391.8 362.3,389.9 365.5,388.0 368.8,385.9 372.2,383.7 375.7,381.4 379.3,379.0 383.0,376.5 386.8,373.8 390.7,371.0 394.7,368.0 398.9,364.8 403.2,361.5 407.7,357.9 412.3,354.2 417.1,350.3 422.0,346.2 427.2,341.8 432.5,337.2 438.0,332.3 443.7,327.3 449.7,321.9 455.9,316.3 462.3,310.5 469.0,304.5 475.9,298.2 483.1,291.8 490.6,285.2 498.3,278.5 506.4,271.8 514.7,265.1 523.3,258.5 532.2,252.2 541.3,246.3 550.7,240.9 560.3,236.1 570.1,232.2 580.0,229.3 590.1,227.6 600.1,227.2 610.2,228.3 620.2,231.0 630.0,235.3 639.6,241.2 648.9,248.7 657.9,257.7 666.5,268.0 674.6,279.4 682.2,291.6 689.3,304.5 695.8,317.7 701.8,331.0 707.2,344.2 712.0,357.0 716.3,369.4 720.1,381.2 723.4,392.3 726.3,402.6 728.7,412.2 730.8,420.9 732.5,428.9 733.9,436.1 734.9,442.7 735.8,448.5 736.3,453.8 736.7,458.5 736.9,462.7 736.9,466.5 736.8,469.8 736.5,472.8 736.1,475.5 735.6,477.9 735.0,480.0 734.4,481.9 733.6,483.6 732.8,485.1 731.9,486.5 731.0,487.7 730.0,488.8 728.9,489.9 727.9,490.8 726.8,491.7 725.6,492.5 724.4,493.2 723.2,493.9 722.0,494.5 720.7,495.1 719.4,495.7 718.1,496.2 716.8,496.8 715.4,497.3 714.1,497.8 712.7,498.2 711.2,498.7 709.8,499.2 708.3,499.6 706.9,500.1 705.4,500.5 703.9,500.9 702.3,501.4 700.8,501.8 699.2,502.3 697.6,502.7 696.0,503.2 694.4,503.7 692.7,504.1 691.1,504.6 689.4,505.1 687.7,505.6 685.9,506.1 684.2,506.7 682.4,507.2 680.6,507.8 678.8,508.3 676.9,508.9 675.0,509.5 673.1,510.1 671.2,510.8 669.3,511.4 667.3,512.1 665.3,512.8 663.2,513.6 661.2,514.3 659.1,515.1 656.9,515.9 654.7,516.8 652.5,517.7 650.3,518.6 648.0,519.5 645.6,520.5 643.3,521.6 640.9,522.6 638.4,523.8 635.9,524.9 633.3,526.2 630.7,527.4 628.0,528.8 625.3,530.2 622.5,531.7 619.6,533.2 616.7,534.8 613.7,536.5 610.6,538.3 607.5,540.2 604.3,542.1 601.0,544.2 597.6,546.4 594.1,548.7 590.5,551.1 586.8,553.7 582.9,556.3 579.0,559.2 575.0,562.2 570.8,565.4 566.5,568.7 562.0,572.2 557.4,576.0 552.6,579.9 547.6,584.1 542.5,588.5 537.2,593.1 531.6,597.9 525.9,603.0 519.9,608.4 513.7,614.0 507.3,619.8 500.6,625.9 493.7,632.1 486.4,638.6 479.0,645.2 471.2,651.9 463.1,658.6 454.8,665.3 446.1,671.8 437.3,678.1 428.1,684.0 418.7,689.4 409.1,694.1 399.3,697.9 389.4,700.8 379.3,702.4 369.3,702.7 359.2,701.5 349.2,698.7 339.4,694.3 329.8,688.3 320.5,680.7 311.6,671.7 303.0,661.3 295.0,649.9 287.4,637.6 280.3,624.7 273.8,611.5 267.9,598.2 262.6,585.0 257.7,572.2 253.5,559.9 249.7,548.1 246.4,537.1 243.6,526.8 241.2,517.3 239.1,508.6 237.5,500.7 236.1,493.5 235.0,487.0 234.2,481.1 233.7,475.9 233.3,471.2 233.1,467.0 233.1,463.3 233.3,460.0 233.5,457.0 233.9,454.4 234.4,452.0 235.0,449.9 235.7,448.0 236.5,446.3 237.3,444.8 238.2,443.5 239.1,442.2 240.1,441.1 241.1,440.1 242.2,439.1 243.3,438.3 244.5,437.5 245.7,436.8 246.9,436.1 248.1,435.4 249.4,434.8 250.7,434.3 252.0,433.7 253.3,433.2 254.7,432.7 256.0,432.2 257.4,431.7 258.9,431.3 260.3,430.8 261.8,430.4 263.2,429.9 264.7,429.5 266.3,429.0 267.8,428.6 269.3,428.1 270.9,427.7 272.5,427.2 274.1,426.8 275.7,426.3 277.4,425.8 279.1,425.3 280.8,424.8 282.5,424.3 284.2,423.8 286.0,423.3 287.7,422.8 289.5,422.2 291.4,421.6 293.2,421.0 295.1,420.4 297.0,419.8 298.9,419.2 300.9,418.5 302.9,417.8 304.9,417.1 306.9,416.4 309.0,415.6 311.1,414.8 313.2,414.0 315.4,413.1 317.6,412.3 319.9,411.3 322.2,410.4 324.5,409.4 326.9,408.4 329.3,407.3 331.8,406.1 334.3,405.0 336.9,403.7 339.5,402.5 342.2,401.1 344.9,399.7 347.7,398.2 350.6,396.7 353.5,395.1 356.5,393.4 359.6,391.6 362.7,389.7 366.0,387.7 369.3,385.6 372.7,383.5 376.2,381.2 379.8,378.7 383.5,376.2 387.3,373.5 391.3,370.6 395.3,367.6 399.5,364.4 403.9,361.0 408.3,357.5 413.0,353.7 417.8,349.8 422.7,345.6 427.9,341.2 433.2,336.6 438.8,331.7 444.5,326.6 450.5,321.2 456.7,315.6 463.2,309.8 469.9,303.7 476.8,297.4 484.1,290.9 491.6,284.3 499.4,277.6 507.5,270.9 515.8,264.3 524.5,257.7 533.4,251.5 542.6,245.6 552.0,240.2 561.6,235.6 571.4,231.8 581.4,229.1 591.4,227.5 601.5,227.4 611.5,228.7 621.5,231.5 631.3,236.1 640.9,242.2 650.1,249.9 659.1,259.0 667.6,269.5 675.6,281.0 683.2,293.3 690.2,306.2 696.6,319.4 702.5,332.7 707.8,345.9 712.6,358.7 716.8,371.0 720.6,382.7 723.8,393.7 726.6,403.9 729.0,413.4 731.0,422.0 732.7,429.9 734.0,437.0 735.0,443.5 735.8,449.3 736.4,454.5 736.7,459.1 736.9,463.3 736.9,467.0 736.7,470.2 736.4,473.2 736.0,475.8 735.5,478.1 734.9,480.2 734.2,482.1 733.5,483.8 732.7,485.3 731.8,486.6 730.8,487.9 729.8,489.0 728.8,490.0 727.7,490.9 726.6,491.8 725.4,492.6 724.3,493.3 723.0,494.0 721.8,494.6 720.5,495.2 719.2,495.8 717.9,496.3 716.6,496.8 715.2,497.3 713.9,497.8 712.4,498.3 711.0,498.8 709.6,499.2 708.1,499.7 706.6,500.1 705.2,500.6 703.6,501.0 702.1,501.5 700.5,501.9 699.0,502.4 697.4,502.8 695.8,503.3 694.1,503.7 692.5,504.2 690.8,504.7 689.1,505.2 687.4,505.7 685.7,506.2 683.9,506.7 682.1,507.3 680.3,507.8 678.5,508.4 676.7,509.0 674.8,509.6 672.9,510.2 670.9,510.9 669.0,511.5 667.0,512.2 665.0,512.9 662.9,513.7 660.9,514.5 658.7,515.2 656.6,516.1 654.4,516.9 652.2,517.8 649.9,518.7 647.6,519.7 645.3,520.7 642.9,521.7 640.5,522.8 638.0,523.9 635.5,525.1 632.9,526.4 630.3,527.6 627.6,529.0 624.9,530.4 622.1,531.9 619.2,533.4 616.3,535.1 613.3,536.8 610.2,538.6 607.0,540.4 603.8,542.4 600.5,544.5 597.1,546.7 593.5,549.0 589.9,551.5 586.2,554.0 582.4,556.7 578.4,559.6 574.4,562.6 570.2,565.8 565.8,569.2 561.3,572.8 556.7,576.5 551.9,580.5 546.9,584.7 541.7,589.1 536.4,593.8 530.8,598.7 525.0,603.8 519.0,609.2 512.8,614.8 506.3,620.7 499.6,626.8 492.6,633.1 485.4,639.5 477.8,646.1 470.0,652.8 461.9,659.6 453.5,666.2 444.9,672.7 435.9,679.0 426.7,684.8 417.3,690.1 407.7,694.7 397.9,698.4 387.9,701.1 377.9,702.5 367.8,702.6 357.8,701.2 347.8,698.2 338.0,693.5 328.5,687.3 319.2,679.5 310.3,670.2 301.8,659.7 293.8,648.2 286.3,635.8 279.4,622.8 272.9,609.6 267.1,596.3 261.8,583.2 257.1,570.4 252.9,558.1 249.2,546.5 246.0,535.5 243.2,525.4 240.8,516.0 238.9,507.4 237.2,499.6 235.9,492.5 234.9,486.1 234.1,480.3 233.6,475.2 233.3,470.6 233.1,466.5 233.1,462.8 233.3,459.5 233.6,456.6 234.0,454.0 234.5,451.7 235.1,449.6 235.8,447.8 236.6,446.1 237.4,444.6 238.3,443.3 239.3,442.0 240.2,440.9 241.3,439.9 242.4,439.0 243.5,438.2 244.6,437.4 245.8,436.7 247.0,436.0 248.3,435.4 249.6,434.8 250.8,434.2 252.2,433.6 253.5,433.1 254.9,432.6 256.3,432.1 257.7,431.7 259.1,431.2 260.5,430.7 262.0,430.3 263.5,429.8 265.0,429.4 266.5,429.0 268.0,428.5 269.6,428.1 271.1,427.6 272.7,427.2 274.3,426.7 276.0,426.2 277.6,425.8 279.3,425.3 281.0,424.8 282.7,424.3 284.5,423.8 286.2,423.2 288.0,422.7 289.8,422.1 291.6,421.5 293.5,421.0 295.4,420.3 297.3,419.7 299.2,419.1 301.2,418.4 303.1,417.7 305.2,417.0 307.2,416.3 309.3,415.5 311.4,414.7 313.6,413.9 315.7,413.0 318.0,412.1 320.2,411.2 322.5,410.2 324.9,409.2 327.3,408.2 329.7,407.1 332.2,406.0 334.7,404.8 337.3,403.6 339.9,402.3 342.6,400.9 345.3,399.5 348.1,398.0 351.0,396.5 353.9,394.8 357.0,393.1 360.0,391.3 363.2,389.4 366.4,387.4 369.8,385.3 373.2,383.1 376.7,380.8 380.3,378.4 384.1,375.8 387.9,373.0 391.9,370.2 395.9,367.1 400.1,363.9 404.5,360.5 409.0,357.0 413.7,353.2 418.5,349.2 423.5,345.0 428.7,340.6 434.0,335.9 439.6,331.0 445.4,325.8 451.4,320.4 457.6,314.8 464.1,308.9 470.9,302.8 477.9,296.5 485.2,290.0 492.7,283.4 500.6,276.7 508.7,269.9 517.1,263.3 525.8,256.8 534.7,250.6 543.9,244.8 553.4,239.5 563.0,235.0 572.9,231.4 582.8,228.8 592.9,227.4 602.9,227.5 613.0,229.0 622.9,232.1 632.7,236.9 642.2,243.2 651.5,251.1 660.3,260.5 668.8,271.1 676.7,282.7 684.2,295.1 691.1,308.1 697.5,321.4 703.3,334.7 708.5,347.8 713.2,360.5 717.4,372.8 721.1,384.3 724.2,395.2 727.0,405.3 729.3,414.7 731.3,423.2 732.9,431.0 734.2,438.0 735.2,444.3 735.9,450.1 736.4,455.2 736.8,459.7 736.9,463.8 736.9,467.5 736.7,470.7 736.4,473.6 736.0,476.2 735.4,478.5 734.8,480.5 734.1,482.4 733.4,484.0 732.5,485.5 731.6,486.8 730.7,488.0 729.7,489.1 728.6,490.1 727.6,491.0 726.4,491.9 725.3,492.7 724.1,493.4 722.9,494.1 721.6,494.7 720.4,495.3 719.1,495.9 717.7,496.4 716.4,496.9 715.0,497.4 713.6,497.9 712.2,498.4 710.8,498.8 709.4,499.3 707.9,499.7 706.4,500.2 704.9,500.6 703.4,501.1 701.9,501.5 700.3,502.0 698.7,502.4 697.1,502.9 695.5,503.3 693.9,503.8 692.2,504.3 690.6,504.8 688.9,505.3 687.2,505.8 685.4,506.3 683.7,506.8 681.9,507.4 680.1,507.9 678.2,508.5 676.4,509.1 674.5,509.7 672.6,510.3 670.7,511.0 668.7,511.6 666.7,512.3 664.7,513.1 662.6,513.8 660.5,514.6 658.4,515.4 656.3,516.2 654.1,517.0 651.9,517.9 649.6,518.9 647.3,519.8 645.0,520.8 642.6,521.9 640.1,523.0 637.7,524.1 635.1,525.3 632.5,526.5 629.9,527.8 627.2,529.2 624.5,530.6 621.7,532.1 618.8,533.7 615.8,535.3 612.8,537.0 609.7,538.8 606.6,540.7 603.3,542.7 600.0,544.8 596.6,547.0 593.0,549.4 589.4,551.8 585.7,554.4 581.8,557.2 577.9,560.0 573.8,563.1 569.5,566.3 565.2,569.7 560.7,573.3 556.0,577.1 551.2,581.1 546.2,585.3 541.0,589.8 535.6,594.5 530.0,599.4 524.2,604.6 518.2,610.0 511.9,615.6 505.4,621.5 498.6,627.7 491.6,634.0 484.3,640.5 476.7,647.1 468.9,653.8 460.7,660.5 452.3,667.2 443.6,673.7 434.6,679.9 425.4,685.6 415.9,690.8 406.3,695.3 396.4,698.9 386.5,701.4 376.4,702.6 366.3,702.5 356.3,700.8 346.4,697.6 336.6,692.7 327.1,686.3 317.9,678.2 309.1,668.8 300.6,658.1 292.7,646.4 285.3,633.9 278.4,620.9 272.1,607.7 266.3,594.4 261.1,581.3 256.4,568.6 252.3,556.4 248.7,544.8 245.5,534.0 242.8,524.0 240.5,514.7 238.6,506.2 237.0,498.5 235.8,491.5 234.8,485.2 234.0,479.6 233.5,474.5 233.2,470.0 233.1,465.9 233.1,462.3 233.3,459.1 233.6,456.2 234.1,453.7 234.6,451.4 235.2,449.3 235.9,447.5 236.7,445.9 237.5,444.4 238.4,443.1 239.4,441.9 240.4,440.8 241.4,439.8 242.5,438.9 243.7,438.1 244.8,437.3 246.0,436.6 247.2,435.9 248.5,435.3 249.7,434.7 251.0,434.1 252.4,433.6 253.7,433.0 255.1,432.5 256.5,432.1 257.9,431.6 259.3,431.1 260.7,430.7 262.2,430.2 263.7,429.8 265.2,429.3 266.7,428.9 268.2,428.4 269.8,428.0 271.4,427.5 273.0,427.1 274.6,426.6 276.2,426.2 277.9,425.7 279.6,425.2 281.2,424.7 283.0,424.2 284.7,423.7 286.5,423.1 288.3,422.6 290.1,422.0 291.9,421.5 293.8,420.9 295.6,420.3 297.5,419.6 299.5,419.0 301.4,418.3 303.4,417.6 305.5,416.9 307.5,416.1 309.6,415.4 311.7,414.6 313.9,413.8 316.1,412.9 318.3,412.0 320.6,411.1 322.9,410.1 325.2,409.1 327.6,408.0 330.0,407.0" fill="none" stroke="#4ade80" stroke-width="2.6" stroke-opacity="0.72" stroke-linejoin="round" stroke-linecap="round"/>
<polyline points="769.0,159.7 780.9,210.0 790.7,256.0 798.7,296.8 805.0,332.0 810.0,361.8 813.8,386.4 816.7,406.6 818.8,422.9 820.3,436.0 821.3,446.4 821.9,454.7 822.2,461.3 822.3,466.5 822.1,470.6 821.8,473.9 821.4,476.5 820.8,478.5 820.2,480.1 819.6,481.4 818.9,482.4 818.1,483.2 817.3,483.9 816.5,484.5 815.7,484.9 814.8,485.3 813.9,485.6 813.1,485.8 812.2,486.1 811.3,486.2 810.4,486.4 809.5,486.6 808.6,486.7 807.6,486.8 806.7,487.0 805.8,487.1 804.8,487.2 803.9,487.3 802.9,487.4 802.0,487.5 801.0,487.6 800.1,487.7 799.1,487.8 798.2,487.9 797.2,488.0 796.2,488.1 795.2,488.2 794.2,488.2 793.3,488.3 792.3,488.4 791.3,488.5 790.3,488.6 789.3,488.7 788.3,488.8 787.2,489.0 786.2,489.1 785.2,489.2 784.2,489.3 783.1,489.4 782.1,489.5 781.1,489.6 780.0,489.7 779.0,489.8 777.9,490.0 776.9,490.1 775.8,490.2 774.7,490.3 773.7,490.4 772.6,490.6 771.5,490.7 770.4,490.8 769.3,491.0 768.2,491.1 767.1,491.2 766.0,491.4 764.9,491.5 763.7,491.6 762.6,491.8 761.5,491.9 760.3,492.1 759.2,492.2 758.0,492.4 756.8,492.5 755.7,492.7 754.5,492.9 753.3,493.0 752.1,493.2 750.9,493.4 749.7,493.5 748.5,493.7 747.3,493.9 746.1,494.1 744.8,494.3 743.6,494.5 742.3,494.6 741.1,494.8 739.8,495.0 738.5,495.3 737.2,495.5 735.9,495.7 734.6,495.9 733.3,496.1 732.0,496.3 730.7,496.6 729.3,496.8 728.0,497.1 726.6,497.3 725.2,497.6 723.8,497.8 722.4,498.1 721.0,498.3 719.6,498.6 718.2,498.9 716.7,499.2 715.3,499.5 713.8,499.8 712.3,500.1 710.8,500.4 709.3,500.8 707.8,501.1 706.3,501.4 704.7,501.8 703.2,502.1 701.6,502.5 700.0,502.9 698.4,503.3 696.7,503.7 695.1,504.1 693.4,504.5 691.7,505.0 690.0,505.4 688.3,505.9 686.6,506.4 684.8,506.9 683.0,507.4 681.2,507.9 679.4,508.5 677.5,509.0 675.6,509.6 673.7,510.2 671.8,510.8 669.9,511.5 667.9,512.2 665.9,512.9 663.8,513.6 661.7,514.3 659.6,515.1 657.5,515.9 655.3,516.7 653.1,517.6 650.9,518.5 648.6,519.4 646.2,520.4 643.9,521.4 641.5,522.5 639.0,523.6 636.5,524.8 633.9,526.0 631.3,527.2 628.7,528.6 625.9,530.0 623.2,531.4 620.3,532.9 617.4,534.5 614.4,536.2 611.4,538.0 608.2,539.8 605.0,541.8 601.7,543.8 598.3,546.0 594.9,548.2 591.3,550.6 587.6,553.1 583.8,555.8 579.9,558.6 575.9,561.6 571.7,564.7 567.4,568.0 563.0,571.5 558.4,575.2 553.7,579.1 548.7,583.2 543.6,587.5 538.3,592.1 532.9,596.9 527.2,602.0 521.2,607.3 515.1,612.8 508.7,618.6 502.1,624.6 495.2,630.8 488.0,637.2 480.6,643.8 472.9,650.5 464.9,657.2 456.6,663.9 448.0,670.5 439.2,676.9 430.1,682.9 420.7,688.4 411.1,693.2 401.4,697.3 391.5,700.3 381.5,702.2 371.4,702.8 361.3,701.9 351.3,699.5 341.5,695.5 331.8,689.8 322.4,682.5 313.4,673.7 304.8,663.7 296.6,652.4 288.9,640.3 281.7,627.5 275.1,614.4 269.1,601.0 263.6,587.8 258.7,574.9 254.3,562.4 250.4,550.5 247.0,539.3 244.1,528.9 241.6,519.2 239.5,510.4 237.7,502.3 236.3,494.9 235.2,488.3 234.3,482.3 233.7,476.9 233.3,472.2 233.1,467.9 233.1,464.0 233.2,460.6 233.4,457.6 233.8,454.9 234.3,452.5 234.9,450.3 235.5,448.4 236.3,446.7 237.1,445.1 238.0,443.7 238.9,442.5 239.9,441.3 240.9,440.3 242.0,439.3 243.1,438.5 244.2,437.7 245.4,436.9 246.6,436.2 247.8,435.6 249.1,435.0 250.4,434.4 251.7,433.8 253.0,433.3 254.4,432.8 255.7,432.3 257.1,431.8 258.5,431.4 260.0,430.9 261.4,430.5 262.9,430.0 264.4,429.6 265.9,429.1 267.4,428.7 269.0,428.2 270.6,427.8 272.1,427.3 273.7,426.9 275.4,426.4 277.0,425.9 278.7,425.4 280.4,425.0 282.1,424.5 283.8,423.9 285.6,423.4 287.3,422.9 289.1,422.3 290.9,421.8 292.8,421.2 294.7,420.6 296.6,420.0 298.5,419.3 300.4,418.7 302.4,418.0 304.4,417.3 306.5,416.5 308.5,415.8 310.6,415.0 312.8,414.2 314.9,413.3 317.1,412.5 319.4,411.6 321.7,410.6 324.0,409.6 326.4,408.6 328.8,407.5 331.2,406.4 333.7,405.2 336.3,404.0 338.9,402.8 341.6,401.4 344.3,400.0 347.1,398.6 349.9,397.0 352.8,395.4 355.8,393.8 358.9,392.0 362.0,390.1 365.2,388.2 368.5,386.1 371.9,384.0 375.4,381.7 379.0,379.3 382.7,376.7 386.5,374.1 390.4,371.3 394.4,368.3 398.6,365.1 402.9,361.8 407.3,358.3 411.9,354.6 416.7,350.7 421.6,346.6 426.7,342.2 432.0,337.7 437.5,332.8 443.2,327.8 449.1,322.5 455.3,316.9 461.7,311.1 468.3,305.1 475.2,298.8 482.4,292.4 489.9,285.8 497.6,279.2 505.6,272.4 513.9,265.8 522.5,259.2 531.4,252.9 540.5,246.9 549.8,241.4 559.4,236.6 569.2,232.6 579.1,229.6 589.1,227.8 599.2,227.3 609.2,228.2 619.2,230.8 629.1,234.9 638.7,240.7 648.1,248.0 657.1,256.9 665.7,267.0 673.8,278.3 681.5,290.5 688.6,303.3 695.2,316.4 701.2,329.7 706.7,342.9 711.6,355.8 715.9,368.3 719.8,380.1 723.1,391.3 726.0,401.7 728.5,411.3 730.6,420.1 732.3,428.2 733.7,435.5 734.8,442.1 735.7,448.0 736.3,453.3 736.7,458.1 736.9,462.4 736.9,466.2 736.8,469.5 736.5,472.6 736.1,475.2 735.7,477.6 735.1,479.8 734.4,481.7 733.7,483.4 732.8,485.0 732.0,486.3 731.0,487.6 730.1,488.7 729.0,489.8 728.0,490.7 726.8,491.6 725.7,492.4 724.5,493.1 723.3,493.8 722.1,494.5 720.8,495.1 719.5,495.7 718.2,496.2 716.9,496.7 715.5,497.2 714.2,497.7 712.8,498.2 711.4,498.7 709.9,499.1 708.5,499.6 707.0,500.0 705.5,500.5 704.0,500.9 702.4,501.4 700.9,501.8 699.3,502.3 697.7,502.7 696.1,503.2 694.5,503.6 692.9,504.1 691.2,504.6 689.5,505.1 687.8,505.6 686.1,506.1 684.3,506.6 682.5,507.2 680.7,507.7 678.9,508.3 677.1,508.9 675.2,509.5 673.3,510.1 671.4,510.7 669.4,511.4 667.4,512.1 665.4,512.8 663.4,513.5 661.3,514.3 659.2,515.1 657.1,515.9 654.9,516.7 652.7,517.6 650.5,518.5 648.2,519.5 645.8,520.5 643.5,521.5 641.0,522.6 638.6,523.7 636.1,524.8 633.5,526.1 630.9,527.3 628.2,528.7 625.5,530.1 622.7,531.5 619.9,533.1 616.9,534.7 614.0,536.4 610.9,538.1 607.8,540.0 604.5,542.0 601.2,544.0 597.8,546.2 594.3,548.5 590.8,550.9 587.1,553.4 583.3,556.1 579.3,559.0 575.3,561.9 571.1,565.1 566.8,568.4 562.4,571.9 557.7,575.7 553.0,579.6 548.0,583.7 542.9,588.1 537.6,592.7 532.1,597.5 526.4,602.6 520.4,607.9 514.2,613.5 507.8,619.3 501.2,625.4 494.2,631.6 487.0,638.1 479.6,644.6 471.8,651.3 463.8,658.0 455.5,664.7 446.9,671.3 438.0,677.6 428.8,683.5 419.5,689.0 409.9,693.7 400.1,697.7 390.2,700.6 380.2,702.3 370.1,702.7 360.0,701.6 350.1,699.0 340.2,694.7 330.6,688.9 321.3,681.4 312.3,672.5 303.7,662.2 295.6,650.9 288.0,638.6 280.9,625.8 274.3,612.6 268.4,599.3 263.0,586.1 258.1,573.2 253.8,560.8 250.0,549.0 246.7,537.9 243.8,527.6 241.3,518.0 239.3,509.3 237.6,501.3 236.2,494.0 235.1,487.5 234.3,481.6 233.7,476.3 233.3,471.6 233.1,467.4 233.1,463.6 233.2,460.2 233.5,457.2 233.9,454.6 234.4,452.2 235.0,450.1 235.6,448.2 236.4,446.5 237.2,444.9 238.1,443.6 239.0,442.3 240.0,441.2 241.0,440.2 242.1,439.2 243.2,438.4 244.4,437.6 245.6,436.8 246.8,436.1 248.0,435.5 249.3,434.9 250.6,434.3 251.9,433.8 253.2,433.2 254.6,432.7 255.9,432.2 257.3,431.8 258.8,431.3 260.2,430.8 261.6,430.4 263.1,429.9 264.6,429.5 266.1,429.1 267.7,428.6 269.2,428.2 270.8,427.7 272.4,427.3 274.0,426.8 275.6,426.3 277.3,425.9 278.9,425.4 280.6,424.9 282.3,424.4 284.1,423.9 285.8,423.3 287.6,422.8 289.4,422.2 291.2,421.7 293.1,421.1 294.9,420.5 296.8,419.9 298.8,419.2 300.7,418.6 302.7,417.9 304.7,417.2 306.8,416.4 308.8,415.7 310.9,414.9 313.1,414.1 315.2,413.2 317.5,412.3 319.7,411.4 322.0,410.5 324.3,409.5 326.7,408.4 329.1,407.4 331.6,406.2 334.1,405.1 336.7,403.8 339.3,402.6 342.0,401.2 344.7,399.8 347.5,398.4 350.3,396.8 353.3,395.2 356.3,393.5 359.3,391.7 362.5,389.9 365.7,387.9 369.0,385.8 372.4,383.6 375.9,381.3 379.5,378.9 383.2,376.4 387.0,373.7 390.9,370.8 395.0,367.8 399.2,364.7 403.5,361.3 408.0,357.8 412.6,354.1 417.4,350.1 422.3,346.0 427.5,341.6 432.8,337.0 438.3,332.1 444.1,327.0 450.0,321.7 456.2,316.1 462.6,310.2 469.3,304.2 476.3,297.9 483.5,291.5 491.0,284.9 498.8,278.2 506.8,271.5 515.2,264.8 523.8,258.2 532.7,252.0 541.8,246.0 551.2,240.7 560.8,236.0 570.6,232.1 580.5,229.3 590.6,227.6 600.6,227.3 610.7,228.5 620.7,231.3 630.5,235.6 640.1,241.6 649.4,249.2 658.3,258.2 666.9,268.6 675.0,280.0 682.6,292.3 689.6,305.1 696.1,318.4 702.0,331.7 707.4,344.8 712.2,357.7 716.5,370.0 720.3,381.8 723.6,392.8 726.4,403.1 728.8,412.6 730.9,421.3 732.5,429.3 733.9,436.5 735.0,443.0 735.8,448.8 736.3,454.1 736.7,458.7 736.9,462.9 736.9,466.7 736.7,470.0 736.5,473.0 736.1,475.6 735.6,478.0 735.0,480.1 734.3,482.0 733.5,483.6 732.7,485.2 731.8,486.5 730.9,487.8 729.9,488.9 728.9,489.9 727.8,490.8 726.7,491.7 725.5,492.5 724.4,493.2 723.1,493.9 721.9,494.6 720.6,495.2 719.4,495.7 718.0,496.3 716.7,496.8 715.3,497.3 714.0,497.8 712.6,498.3 711.1,498.7 709.7,499.2 708.2,499.6 706.8,500.1 705.3,500.5 703.8,501.0 702.2,501.4 700.7,501.9 699.1,502.3 697.5,502.8 695.9,503.2 694.3,503.7 692.6,504.2 691.0,504.7 689.3,505.1 687.5,505.7 685.8,506.2 684.1,506.7 682.3,507.2 680.5,507.8 678.7,508.4 676.8,509.0 674.9,509.6 673.0,510.2 671.1,510.8 669.1,511.5 667.2,512.2 665.1,512.9 663.1,513.6 661.0,514.4 658.9,515.2 656.8,516.0 654.6,516.8 652.4,517.7 650.1,518.6 647.8,519.6 645.5,520.6 643.1,521.6 640.7,522.7 638.2,523.8 635.7,525.0 633.1,526.2 630.5,527.5 627.8,528.9 625.1,530.3 622.3,531.8 619.4,533.3 616.5,534.9 613.5,536.6 610.4,538.4 607.3,540.3 604.1,542.3 600.7,544.3 597.3,546.5 593.8,548.8 590.2,551.3 586.5,553.8 582.7,556.5 578.8,559.4 574.7,562.4 570.5,565.6 566.2,568.9 561.7,572.5 557.1,576.2 552.3,580.2 547.3,584.3 542.2,588.7 536.8,593.4 531.3,598.2 525.5,603.4 519.5,608.7 513.3,614.3 506.9,620.2 500.2,626.3 493.2,632.5 486.0,639.0 478.5,645.6 470.7,652.3 462.6,659.0 454.2,665.7 445.6,672.2 436.7,678.5 427.5,684.4 418.1,689.7 408.5,694.4 398.7,698.1 388.7,700.9 378.7,702.4 368.6,702.6 358.6,701.4 348.6,698.5 338.8,694.0 329.2,687.9 319.9,680.2 311.0,671.0 302.5,660.6 294.5,649.1 286.9,636.8 279.9,623.9 273.4,610.7 267.6,597.4 262.2,584.2 257.4,571.4 253.2,559.1 249.5,547.4 246.2,536.4 243.4,526.2 241.0,516.7 239.0,508.1 237.4,500.2 236.0,493.0 235.0,486.6 234.2,480.8 233.6,475.6 233.3,470.9 233.1,466.8 233.1,463.1 233.3,459.8 233.6,456.8 234.0,454.2 234.5,451.9 235.1,449.8 235.8,447.9 236.5,446.2 237.3,444.7 238.2,443.4 239.2,442.1 240.2,441.0 241.2,440.0 242.3,439.1 243.4,438.2 244.5,437.4 245.7,436.7 246.9,436.0 248.2,435.4 249.5,434.8 250.7,434.2 252.1,433.7 253.4,433.2 254.8,432.7 256.1,432.2 257.5,431.7 259.0,431.2 260.4,430.8 261.9,430.3 263.3,429.9 264.8,429.4 266.4,429.0 267.9,428.5 269.4,428.1 271.0,427.7 272.6,427.2 274.2,426.7 275.8,426.3 277.5,425.8 279.2,425.3 280.9,424.8 282.6,424.3 284.3,423.8 286.1,423.3 287.8,422.7 289.7,422.2 291.5,421.6 293.3,421.0 295.2,420.4 297.1,419.8 299.0,419.1 301.0,418.5 303.0,417.8 305.0,417.1 307.0,416.3 309.1,415.6 311.2,414.8 313.4,413.9 315.6,413.1 317.8,412.2 320.0,411.3 322.3,410.3 324.7,409.3 327.1,408.3 329.5,407.2 332.0,406.1 334.5,404.9 337.1,403.7 339.7,402.4 342.4,401.0 345.1,399.6 347.9,398.1 350.8,396.6 353.7,395.0 356.7,393.3 359.8,391.5 362.9,389.6 366.2,387.6 369.5,385.5 372.9,383.3 376.4,381.0 380.0,378.6 383.7,376.0 387.6,373.3 391.5,370.4 395.6,367.4 399.8,364.2 404.1,360.8 408.6,357.3 413.3,353.5 418.1,349.5 423.1,345.3 428.2,340.9 433.6,336.3 439.1,331.4 444.9,326.3 450.9,320.9 457.1,315.2 463.6,309.4 470.3,303.3 477.3,297.0 484.6,290.5 492.1,283.9 499.9,277.2 508.0,270.5 516.4,263.8 525.0,257.3 534.0,251.1 543.2,245.2 552.6,239.9 562.2,235.3 572.0,231.6 582.0,228.9 592.0,227.5 602.1,227.4 612.2,228.8 622.1,231.8 631.9,236.4 641.5,242.6 650.7,250.4 659.6,259.7 668.1,270.2 676.1,281.7 683.6,294.1 690.6,307.0 697.0,320.3 702.8,333.6 708.1,346.7 712.9,359.5 717.1,371.8 720.8,383.4 724.0,394.4 726.8,404.5 729.1,413.9 731.1,422.5 732.8,430.4 734.1,437.5 735.1,443.9 735.9,449.6 736.4,454.8 736.7,459.4 736.9,463.5 736.9,467.2 736.7,470.4 736.4,473.4 736.0,476.0 735.5,478.3 734.9,480.4 734.2,482.2 733.4,483.9 732.6,485.4 731.7,486.7 730.8,487.9 729.8,489.0 728.7,490.1 727.6,491.0 726.5,491.8 725.4,492.6 724.2,493.3 723.0,494.0 721.7,494.6 720.5,495.2 719.2,495.8 717.8,496.4 716.5,496.9 715.1,497.4 713.8,497.9 712.4,498.3 710.9,498.8 709.5,499.3 708.0,499.7 706.6,500.2 705.1,500.6 703.5,501.0 702.0,501.5 700.4,501.9 698.9,502.4 697.3,502.8 695.7,503.3 694.0,503.8 692.4,504.2 690.7,504.7 689.0,505.2 687.3,505.7 685.6,506.2 683.8,506.8 682.0,507.3 680.2,507.9 678.4,508.4 676.5,509.0 674.7,509.6 672.7,510.3 670.8,510.9 668.9,511.6 666.9,512.3 664.9,513.0 662.8,513.7 660.7,514.5 658.6,515.3 656.5,516.1 654.3,517.0 652.1,517.9 649.8,518.8 647.5,519.7 645.2,520.7 642.8,521.8" fill="none" stroke="#4ade80" stroke-width="2.6" stroke-opacity="0.72" stroke-linejoin="round" stroke-linecap="round"/>
<circle cx="485.0" cy="465.0" r="6.0" fill="#f8fafc" opacity="1.0"/>
<text x="110.0" y="788.0" class="small" text-anchor="start">Generated from a standard-library Python gallery: vector field + nullclines + trajectories.</text>
</svg>
